<?xml version="1.0" encoding="iso-8859-1"?>
<!-- Generator: Adobe Illustrator 19.0.0, SVG Export Plug-In . SVG Version: 6.00 Build 0)  -->
<svg version="1.1" id="Layer_1" xmlns="http://www.w3.org/2000/svg" xmlns:xlink="http://www.w3.org/1999/xlink" x="0px" y="0px"
	 viewBox="0 0 512 512" style="enable-background:new 0 0 512 512;" xml:space="preserve">
<g>
	<g>
		<path d="M402.201,439.809c36.891-37.229,59.713-88.423,59.713-144.853c0-107.923-83.454-196.707-189.217-205.233V50.087
			c0-0.006-0.001-0.01-0.001-0.016c6.755-5.081,11.132-13.162,11.132-22.245C283.826,12.484,271.342,0,256,0
			s-27.826,12.484-27.826,27.826c0,9.084,4.377,17.164,11.132,22.245c0,0.006-0.001,0.01-0.001,0.016v39.637
			c-105.764,8.526-189.217,97.31-189.217,205.233c0,56.429,22.822,107.623,59.711,144.854l-43.69,43.69
			c-6.521,6.516-6.521,17.092,0,23.609c3.261,3.26,7.533,4.891,11.805,4.891c4.272,0,8.544-1.631,11.804-4.892l45.495-45.495
			C169.166,486.291,210.908,500.87,256,500.87s86.834-14.579,120.789-39.256l45.495,45.495c3.261,3.261,7.533,4.892,11.804,4.892
			s8.544-1.631,11.804-4.892c6.521-6.516,6.521-17.092,0-23.609L402.201,439.809z M256,467.478
			c-95.131,0-172.522-77.391-172.522-172.522S160.869,122.435,256,122.435s172.522,77.391,172.522,172.522
			S351.131,467.478,256,467.478z"/>
	</g>
</g>
<g>
	<g>
		<path d="M400.696,55.652c-20.536,0-40.15,6.162-56.904,16.905c67.214,26.631,119.639,82.698,141.008,152.367
			c13.614-18.038,21.635-40.157,21.635-63.533C506.435,103.087,459,55.652,400.696,55.652z"/>
	</g>
</g>
<g>
	<g>
		<path d="M111.304,55.652C53,55.652,5.565,103.087,5.565,161.391c0,23.375,8.022,45.495,21.635,63.533
			c21.37-69.669,73.794-125.736,141.008-152.367C151.454,61.814,131.84,55.652,111.304,55.652z"/>
	</g>
</g>
<g>
	<g>
		<path d="M256,155.826c-76.718,0-139.13,62.413-139.13,139.13s62.413,139.13,139.13,139.13s139.13-62.413,139.13-139.13
			S332.718,155.826,256,155.826z M300.522,311.652H256c-9.223,0-16.696-7.473-16.696-16.696v-66.783
			c0-9.223,7.473-16.696,16.696-16.696s16.696,7.473,16.696,16.696v50.087h27.826c9.223,0,16.696,7.473,16.696,16.696
			C317.217,304.179,309.744,311.652,300.522,311.652z"/>
	</g>
</g>
<g>
</g>
<g>
</g>
<g>
</g>
<g>
</g>
<g>
</g>
<g>
</g>
<g>
</g>
<g>
</g>
<g>
</g>
<g>
</g>
<g>
</g>
<g>
</g>
<g>
</g>
<g>
</g>
<g>
</g>
</svg>
