<svg xmlns="http://www.w3.org/2000/svg" width="253.88" height="192.26" viewBox="0 0 253.88 192.26"><path d="M953.73,463.31c-3-8.07-2.22-12.7,2.58-16.37a11.76,11.76,0,0,1,13.52,0c4.78,3.63,5.58,8.58,2.74,15.84,6.58,2.52,13.57,4.31,19.66,7.7,20.38,11.37,30.65,29.18,31.83,52.44.46,9.12.87,18.29,2.15,27.32a37.72,37.72,0,0,0,14.09,24.51c5.14,4.17,8.41,9.29,8,16.32-.54,9.45-7.89,17-17.38,17.07q-68,.14-135.91,0c-7.43,0-12.75-3.87-15.71-10.39A17.45,17.45,0,0,1,881.5,579a11.5,11.5,0,0,1,2-2.19c14.73-11,17.63-27,18.42-43.88.35-7.46,0-15.14,1.74-22.31C910,484.28,927.39,469.2,953.73,463.31Z" transform="translate(-836.64 -444.8)"/><path d="M1073.17,467.31c23.22,23.8,23.24,67.62-.53,90.55l-6.18-6.73c8.82-11,14.4-23.78,14.52-38.69s-5.26-27.89-15.06-39.33Z" transform="translate(-836.64 -444.8)"/><path d="M854.92,466.64l5.86,6.55c-21.16,25.37-18.23,55.76.16,78.43l-6.47,6.11C831.26,535.21,830,490.66,854.92,466.64Z" transform="translate(-836.64 -444.8)"/><path d="M986.56,617.66c-2.56,12-12.26,19.61-24.14,19.4a23.45,23.45,0,0,1-22.91-19.4Z" transform="translate(-836.64 -444.8)"/><path d="M873.21,538.46c-13.06-14.16-13.13-37,.64-53.67l5.86,7.28c-8.85,12.82-9.27,26.57.71,40.92Z" transform="translate(-836.64 -444.8)"/><path d="M1046.78,491.09l6.35-5.83c12.39,10.9,15.4,37.93.22,53.81l-5.92-7C1056.38,519.09,1056.62,505.35,1046.78,491.09Z" transform="translate(-836.64 -444.8)"/></svg>