<svg xmlns="http://www.w3.org/2000/svg" width="185.8" height="170.45" viewBox="0 0 185.8 170.45"><path d="M979.12,460.89c-5.9-.93-11.1-2-16.35-2.51a9.35,9.35,0,0,0-9.59,5,136.7,136.7,0,0,1-7.85,11.57c-5.36,7.24-6.26,7.31-13.05,1.85-5.33-4.29-7.9-4.14-12.94.5q-23.7,21.86-47.49,43.62c-3.29,3-5.69,6.59-4.56,11,4.71,18.26,11.05,35.94,20.09,52.58,1.91,3.52,4.94,4.55,8.44,3.15,3.84-1.53,7.47-3.61,11.17-5.49,8.88-4.52,17.49-9.69,26.68-13.45,15-6.15,28.22-3.41,38.88,9.75a141.2,141.2,0,0,0,16.58,17.3c11.55,10.15,29.47,9.38,39.35-1.52A101.13,101.13,0,0,0,1050.4,557c3.91-12.19,3.29-23.73-3.56-35-11.21-18.53-21.83-37.41-32.82-56.07A43.54,43.54,0,0,0,1008,458c-2-2.07-4.1-1.48-4.89,1.29a25.28,25.28,0,0,0-1.09,7.36c.13,6.33.86,12.64.86,19,0,8.44-4.83,11.33-12,6.91-4.93-3-9.34-6.95-13.7-10.79-4.13-3.64-5-8-1.91-13C976.5,466.69,977.42,464.35,979.12,460.89Zm30.06,150.5c2.23,4.71,4.2,9.36,6.62,13.76,1.4,2.55,4.08,2.9,5.56.29a64.19,64.19,0,0,0,4.9-11.72c.25-.75-1.51-3.11-2.36-3.12C1019.33,610.56,1014.75,611,1009.18,611.39Z" transform="translate(-867.01 -456.79)" fill="#fff"/><path d="M979.12,460.89c-1.7,3.46-2.62,5.8-3.93,7.9-3.07,4.94-2.22,9.33,1.91,13,4.36,3.84,8.77,7.77,13.7,10.79,7.21,4.42,12,1.53,12-6.91,0-6.32-.73-12.63-.86-19a25.28,25.28,0,0,1,1.09-7.36c.79-2.77,2.91-3.36,4.89-1.29a43.54,43.54,0,0,1,6.06,7.87c11,18.66,21.61,37.54,32.82,56.07,6.85,11.3,7.47,22.84,3.56,35a101.13,101.13,0,0,1-21.92,37.18c-9.88,10.9-27.8,11.67-39.35,1.52a141.2,141.2,0,0,1-16.58-17.3c-10.66-13.16-23.85-15.9-38.88-9.75-9.19,3.76-17.8,8.93-26.68,13.45-3.7,1.88-7.33,4-11.17,5.49-3.5,1.4-6.53.37-8.44-3.15-9-16.64-15.38-34.32-20.09-52.58-1.13-4.39,1.27-8,4.56-11q23.8-21.74,47.49-43.62c5-4.64,7.61-4.79,12.94-.5,6.79,5.46,7.69,5.39,13.05-1.85a136.7,136.7,0,0,0,7.85-11.57,9.35,9.35,0,0,1,9.59-5C968,458.9,973.22,460,979.12,460.89Z" transform="translate(-867.01 -456.79)"/><path d="M1009.18,611.39c5.57-.36,10.15-.83,14.72-.79.85,0,2.61,2.37,2.36,3.12a64.19,64.19,0,0,1-4.9,11.72c-1.48,2.61-4.16,2.26-5.56-.29C1013.38,620.75,1011.41,616.1,1009.18,611.39Z" transform="translate(-867.01 -456.79)"/></svg>