<svg xmlns="http://www.w3.org/2000/svg" viewBox="0 0 380 229.65"><defs><style>.cls-1{fill:#010202;}</style></defs><g id="Layer_2" data-name="Layer 2"><g id="Layer_1-2" data-name="Layer 1"><path class="cls-1" d="M69.72,229.65A70,70,0,0,1,54.28,91.38,47.64,47.64,0,0,1,125.5,41.9,105.17,105.17,0,0,1,210,0,106.26,106.26,0,0,1,314.74,89.78a70,70,0,0,1-4.06,139.86ZM101.13,55.21A27.65,27.65,0,0,0,73.51,82.82a27.33,27.33,0,0,0,2.93,12.37,10,10,0,0,1-8.54,14.49,50,50,0,0,0,1.88,100h240.8a50,50,0,0,0-.6-100c-1,0-2.14,0-3.51.14a10,10,0,0,1-10.67-9.33A86,86,0,0,0,136.34,61.49a10,10,0,0,1-15.64,1.86A27.41,27.41,0,0,0,101.13,55.21Z"/></g></g></svg>