<?xml version="1.0" encoding="iso-8859-1"?>
<!-- Generator: Adobe Illustrator 19.0.0, SVG Export Plug-In . SVG Version: 6.00 Build 0)  -->
<svg version="1.1" id="Capa_1" xmlns="http://www.w3.org/2000/svg" xmlns:xlink="http://www.w3.org/1999/xlink" x="0px" y="0px"
	 viewBox="0 0 57.544 57.544" style="enable-background:new 0 0 57.544 57.544;" xml:space="preserve">
<g>
	<g>
		<g>
			<path d="M41.497,21.021c-4.963,0-9,4.037-9,9s4.037,9,9,9s9-4.037,9-9S46.46,21.021,41.497,21.021z"/>
			<path d="M12.416,51.6l-6.531-6.531l1.086-1.086l6.531,6.531L12.416,51.6z M56.404,11.904L45.663,1.163
				c-1.471-1.473-4.039-1.473-5.51,0L11.78,29.536c-0.986,0.986-1.319,2.473-0.849,3.786c0.504,1.407,1.803,2.345,3.475,2.507
				c0.158,0.016,0.227,0.118,0.257,0.202c0.025,0.071,0.05,0.21-0.074,0.334l-6.203,6.203l6.531,6.531l5.637-5.637
				c0.147-0.147,0.318-0.223,0.508-0.223c0.306,0,0.688,0.213,0.809,0.682c0.448,1.751,1.895,2.928,3.6,2.928
				c0.968,0,1.877-0.377,2.562-1.062l6.934-6.935c-2.705-2.006-4.469-5.212-4.469-8.83c0-6.065,4.935-11,11-11
				c3.618,0,6.825,1.764,8.83,4.469l6.077-6.076C57.924,15.896,57.924,13.423,56.404,11.904z M0.898,50.056
				C0.319,50.635,0,51.405,0,52.226c0,0.819,0.319,1.59,0.898,2.169l2.192,2.192c0.579,0.579,1.35,0.898,2.169,0.898
				s1.59-0.319,2.169-0.898l3.574-3.574l-6.531-6.531L0.898,50.056z"/>
		</g>
	</g>
</g>
<g>
</g>
<g>
</g>
<g>
</g>
<g>
</g>
<g>
</g>
<g>
</g>
<g>
</g>
<g>
</g>
<g>
</g>
<g>
</g>
<g>
</g>
<g>
</g>
<g>
</g>
<g>
</g>
<g>
</g>
</svg>
