<svg xmlns="http://www.w3.org/2000/svg" width="300.22" height="323.8" viewBox="0 0 300.22 323.8"><path d="M812.85,542.07q0-60.5,0-121c0-17.76,9.75-32.29,25.77-38.67a23.17,23.17,0,0,1,8.23-1.6q115.74-.12,231.47-.1c6.6,0,12,2.83,17,6.49,10.59,7.77,16,18.49,16.82,31.54,0,.33,0,.66,0,1q.43,113.94.83,227.88a173.3,173.3,0,0,1-1.14,20.38c-2.72,23.38-22.83,36.7-41.33,36.43-33.15-.48-66.32-.12-99.48-.12-38.5,0-77-.53-115.49.18a42,42,0,0,1-42.78-42.94C813.14,621.74,812.84,581.9,812.85,542.07Zm104.48,72H875.4a27.9,27.9,0,0,0-4.48.19,6.15,6.15,0,0,0-5.38,5.74c-.34,3,1.3,5.17,4,6.23a13.51,13.51,0,0,0,4.86.79q42.92.06,85.85,0a15.61,15.61,0,0,0,3-.19c3.56-.7,5.67-3.25,5.54-6.61s-2.34-5.68-6-6.08a42,42,0,0,0-4.49-.09Zm0-65.85q20.49,0,41,0a28.47,28.47,0,0,0,5.47-.34,5.77,5.77,0,0,0,5-6c.08-3.25-1.69-5.36-4.77-6.17a17.44,17.44,0,0,0-4.46-.37q-42.24,0-84.47,0a20.41,20.41,0,0,0-4.94.49,6.13,6.13,0,0,0-.19,11.82,22.58,22.58,0,0,0,5.93.57C889.71,548.26,903.53,548.24,917.36,548.24ZM917,469.59c13.83,0,27.65,0,41.47,0a24,24,0,0,0,5.93-.62c3.12-.85,4.62-3.16,4.4-6.39a5.67,5.67,0,0,0-4.85-5.56,25,25,0,0,0-5-.33q-41.73,0-83.44,0a24.93,24.93,0,0,0-5,.34c-2.9.59-5.23,3.35-5,6,.23,2.86,1.6,5.19,4.56,5.88a28.15,28.15,0,0,0,6.42.64C890,469.62,903.48,469.59,917,469.59Zm109.45-2.74c-4.71-4.66-8.81-8.75-13-12.81-3.72-3.63-7.78-4.1-10.49-1.28s-2.43,6.61,1,10.14q8.38,8.55,17,16.85c1.49,1.42,3.49,2.3,5.56,3.63a69.17,69.17,0,0,0,6.21-4.66c10.4-9.84,20.67-19.8,31.08-29.63,2.37-2.23,3.85-4.61,3-7.9s-3.26-4.39-6.87-4.93a46.72,46.72,0,0,0-5.28,3.7c-3.58,3.22-7,6.68-10.46,10C1038.53,455.44,1032.73,460.89,1026.42,466.85Zm.2,157.49c-2-1.77-3.58-3.13-5.1-4.61-3-2.89-5.82-5.93-8.87-8.75-3.62-3.35-6.78-3.5-9.58-.69s-2.64,6.42.55,9.74q8.48,8.81,17.26,17.3c3.79,3.67,7.06,3.68,10.92,0q16.31-15.42,32.42-31c3.43-3.31,3.87-7.46,1.35-10.13s-6.56-2.52-10.17.79c-4,3.71-8,7.56-11.94,11.34Zm-1.07-77.79c-2.1-2.77-3.57-5-5.36-7a101.73,101.73,0,0,0-8.18-8,6.62,6.62,0,0,0-9.06,0c-2.37,2.37-2.37,6,0,9a24.42,24.42,0,0,0,1.73,1.8q7.57,7.59,15.17,15.17c5.2,5.15,7.55,5.18,13,0q15.54-14.79,31-29.67a14.21,14.21,0,0,0,2.3-2.61,6.54,6.54,0,0,0-1-8.23,6.15,6.15,0,0,0-7.83-.54,20.64,20.64,0,0,0-3,2.61q-8.33,7.9-16.61,15.84C1034.14,538.41,1030.53,541.82,1025.55,546.55Z" transform="translate(-812.74 -380.72)"/></svg>