<svg xmlns="http://www.w3.org/2000/svg" width="234.45" height="200.04" viewBox="0 0 234.45 200.04"><path d="M876.18,542.32q38.27-38.27,76.87-76.9c2-2,4-3.61,7.09-3.47a7.8,7.8,0,0,1,5.58,2.27l1.41,1.41q37.13,37.13,74.28,74.2a8.2,8.2,0,0,1,2.64,6.45c-.09,26.67,0,53.33,0,80v3.58H982.11V566.13H938.05V629.9H876.18Z" transform="translate(-842.62 -429.86)"/><path d="M960.42,430c6.61.42,12.55,2.37,17.44,7.28q47.65,47.81,95.45,95.45c2.42,2.41,3.86,4.9,3.76,8.49-.24,8.08-8.52,13.35-15.64,9.6a21.34,21.34,0,0,1-4.9-3.86q-45.82-45.74-91.59-91.55c-.7-.7-1.39-1.43-2.12-2.11-2.07-2-3.65-1.91-5.82.18-.6.57-1.18,1.17-1.77,1.76q-46,46-91.94,91.9a19.72,19.72,0,0,1-4.54,3.51c-7,3.65-12.62.26-15.23-5.9a9.29,9.29,0,0,1,2-10.76c.61-.57,1.18-1.17,1.77-1.76q47-47,94-94.08A24.08,24.08,0,0,1,952,431.46C954.75,430.69,957.38,429.4,960.42,430Z" transform="translate(-842.62 -429.86)"/><path d="M1014.12,464.62V437.13h29.64v57l-9.76-9.46q-4.86-5-9.72-9.93C1020.89,471.36,1017.47,468,1014.12,464.62Z" transform="translate(-842.62 -429.86)"/></svg>