<?xml version="1.0" encoding="utf-8"?>
<!-- Generator: Adobe Illustrator 25.4.1, SVG Export Plug-In . SVG Version: 6.00 Build 0)  -->
<svg version="1.1" xmlns="http://www.w3.org/2000/svg" xmlns:xlink="http://www.w3.org/1999/xlink" x="0px" y="0px"
	 viewBox="0 0 639.3 598" style="enable-background:new 0 0 639.3 598;" xml:space="preserve">
<style type="text/css">
	.st0{display:none;}
	.st1{fill-rule:evenodd;clip-rule:evenodd;}
</style>
<g id="Layer_2" class="st0">
	
		<image style="display:inline;overflow:visible;" width="67" height="63" xlink:href="horse-logo-green.91e4f6f2.png"  transform="matrix(9.5105 0 0 9.5105 1.0952 0.9)">
	</image>
</g>
<g id="Layer_1">
	<path class="st1" d="M204.9,0.9c-0.1,0-0.3,0-0.4,0c-1.9,0.2-3.5,2-3.6,4.1c0,0-1.1,25.5-0.3,51.8c-6.2,1.1-14.6,2.3-26,2.3
		c-19.2,0-30.4,1.6-30.4,1.6l0,0c-1.6,0.2-2.9,1.6-3.4,3.3c-0.4,1.8,0.3,3.6,1.6,4.6L161.5,83c-6.6,4.7-29.4,22-40.1,54.2
		c-6.6,19.7,0.1,45.4,7.7,66.6c1,2.9,2.1,5.4,3.2,8.1c-10.5,20.7-19.9,43.4-27,67.4c-3.6,11.9-16.5,33.7-31.9,56.8l-1.3-1.4l0,0
		c-0.8-0.9-1.9-1.3-3-1.3c-1,0-1.9,0.5-2.6,1.3l-20,21.7c-1.6,1.7-1.6,4.4,0,6.2l5.2,5.7C41.8,382.7,32,396.7,24,409
		c-8.6,13.1-15.2,24.1-18.3,32c-7.4,19.2-5,39.4,0.4,55.1c2.7,7.8,6.2,14.6,9.9,19.7c3.7,5.1,7.2,8.8,11.8,9.8
		c6.8,1.5,11.9-0.3,13.7-0.8c9,12.3,21.4,18.2,33.5,17.8c12.9-0.4,25.5-6.7,34.3-16.8s11.6-21.7,13.6-31.5s3.5-17.5,8.3-22.3
		c1.9-1.9,4.9-4.1,8.4-6.4l8.5,9.4l0,0c1.6,1.7,4.1,1.7,5.7,0l20-21.7c1.6-1.7,1.6-4.4,0-6.2l0,0c15.8-7.6,35.1-16.5,60.6-28
		c20.9-9.4,34.9-22.7,44.9-35.6l1.4,2.2l0,0c0.6,0.9,1.6,1.6,2.6,1.8c1,0.2,2.1-0.1,3-0.7l23-17.7l0,0c0.8-0.7,1.5-1.7,1.6-2.8
		c0.2-1.1-0.1-2.3-0.6-3.3l-9-14.2c1.3-2.1,2.5-3.8,3.4-4.8c0.9-1,1-0.8,1.2-0.9c0.2,0.3,0.3,0.4,0.5,0.9c0.9,1.7,2,4.4,3.3,7.9
		c2.6,7,5.6,17.1,8.9,29.1c6.8,24.1,14.8,56,23.1,87.9c8.3,31.8,16.7,63.5,24.4,87.2c3.8,11.9,7.4,21.8,10.8,28.8
		c1.6,3.5,3.3,6.4,5,8.6c1.7,2.2,4,4.3,7.3,3.9c58.8-7.5,118.8-33.2,160.9-73c41.5-39.2,65.4-92.7,52.3-154.5l35-33.1l0,0
		c0.9-0.9,1.5-2.2,1.4-3.6s-0.7-2.6-1.8-3.4c0,0-27-18.8-46.9-51.5c-21-34.4-64.7-79.5-64.7-79.5c-1.4-1.4-3.5-1.6-5-0.4L504,211.1
		c0.5-2.7,0.5-3,1-6.3c0.5-4.4,1-8.9,1.2-12.8c0.1-2,0.1-3.7-0.1-5.4c-0.2-1.7-0.3-3.1-1.4-5c-0.9-1.5-1.9-2.5-3.7-4.3
		c-1.7-1.9-4-4.2-6.8-7c-5.7-5.6-13.4-12.9-22.6-21.2c-18.4-16.5-42.5-36.5-67.2-53.4c-24.6-16.9-42.1-26.3-53.5-31.6
		c-11.5-5.1-17.3-6.2-17.3-6.2l0,0c-2-0.4-3.9,0.9-4.5,3l-6.8,25.2c-0.9-3-0.9-3.3-2.2-6.7c-1.7-4.9-3.7-9.9-5.7-13.9
		c-1-2-2-3.8-3.1-5.3c-1.1-1.5-2.4-3-4.9-3.4c-20.4-4.8-37.2-6.1-49.1-6.3c-0.1,0-0.1,0-0.2,0c-6.9-9.7-15.8-19-24.1-26.9
		c-13.6-12.9-25.9-22-25.9-22l0,0C206.5,1.2,205.7,0.9,204.9,0.9L204.9,0.9z M209.1,14.3c4,3.1,8.9,6.7,18.8,16
		c8.9,8.5,18.3,18.8,24.9,28.6c1.2,1.8,2.3,3.5,3.2,5.2c0.3,0.5,0.6,1.1,0.9,1.6c1.2,2.3,2.2,4.5,2.9,6.6c0.8,2.4,1.5,5,2,7.7
		c0.1,0.5,0.2,1,0.3,1.5c0.3,1.5,0.5,3,0.6,4.5c0.4,2.6,0.5,5.3,0.6,8c0,1,0.1,2.1,0.1,3.1c0,3.1,0,6.2-0.2,9.3c0,0.4,0,0.7,0,1.1
		l0,0c0,0.2,0,0.4,0,0.5c-0.3,4-0.6,7.8-1.2,11.4c-0.2,1.1,0.1,2.3,0.7,3.2c0.6,0.9,1.6,1.5,2.6,1.7c2.2,0.4,4.2-1.3,4.6-3.7
		c0.4-2.5,0.5-5.2,0.8-8c5.7,0.8,11.4,1.9,17.1,3.3l-61.7,145.8c-8.1,3.4-14.3,11-16.6,20.3l-95.8,87c-1-0.2-2-0.4-3.1-0.5l0,0
		c-0.4-0.2-0.8-0.3-1.3-0.3h-0.1l0,0c-0.5,0-1,0.1-1.5,0.3c-1.6,0.1-3,0.4-4.5,0.8l-24.5-27c15.7-23.7,29.4-45.5,33.8-60.4
		c6.2-21.1,14.8-40.7,23.8-59.3c4.9,11.2,9,18.9,9,18.9c0.1,0.1,0.2,0.3,0.3,0.4l0,0c0.1,0.1,0.2,0.2,0.3,0.4
		c0.1,0.1,0.1,0.2,0.2,0.2c0,0,0.1,0.1,0.2,0.1l0,0c0.1,0.1,0.3,0.2,0.4,0.3l0,0c0.1,0.1,0.3,0.2,0.4,0.2l0,0
		c0.2,0.1,0.3,0.1,0.5,0.2l0,0c0.2,0.1,0.3,0.1,0.5,0.1l0,0h0.1c0.3,0,0.5,0.1,0.8,0.1s0.6-0.1,0.9-0.2c0.3-0.1,0.6-0.2,0.9-0.4l0,0
		c0.1,0,0.1-0.1,0.2-0.1c0.1-0.1,0.2-0.1,0.3-0.2c0.1-0.1,0.3-0.2,0.4-0.3l0,0c0.1-0.1,0.2-0.2,0.3-0.3l0,0c0.1-0.1,0.2-0.3,0.3-0.4
		l0,0c0.1-0.1,0.2-0.3,0.2-0.4l0,0c0.1-0.2,0.1-0.3,0.2-0.5c0.1-0.2,0.1-0.3,0.1-0.5l0,0c0-0.1,0-0.2,0-0.2s3-21,26.6-36.1
		c3-1.9,5.8-4.5,8.2-7.5s4.7-6.5,6.7-10.2c4-7.5,7.2-16.3,10-25.2c1.5-4.4,2.7-8.9,4-13.3c2.5-8.8,4.7-17.2,6.7-24
		c0.1-0.4,0.2-0.7,0.4-1.1l0,0c1,0.3,2,0.2,3-0.3c0.9-0.5,1.6-1.5,1.9-2.6c0.3-1.1,0.2-2.3-0.3-3.3c-0.7-1.4-1.4-2.9-2-4.5
		c-0.1-0.2-0.1-0.4-0.2-0.6c-1.6-3.7-3.1-7.6-4.3-11.7c-0.2-0.6-0.4-1.2-0.5-1.9c-0.5-1.6-0.8-3.1-1.2-4.7c-0.4-1.6-0.6-3.3-0.9-5
		c-0.1-0.7-0.3-1.5-0.4-2.2c-0.9-7.2-1.5-15.4-1.8-23.8C208,40.9,208.9,20.8,209.1,14.3L209.1,14.3z M222.5,34.4
		c-2.9,0-0.7,21.6,1.8,45.5c2.6,24,17.2,38.7,17.2,38.7s6.2,0,5.8-6.4s-17.5-18.4-11.7-30.3c5.8-12,13-18,9.7-23.6
		s-13,11.2-14.5,3.6C229.4,54.4,225.4,34.4,222.5,34.4L222.5,34.4z M263,60c11,0.4,24.4,1.3,41.7,5.4l0,0c0,0,0.3,0.2,0.5,0.5
		c0.5,0.8,1.4,2.1,2.2,3.8c1.7,3.4,3.6,8.2,5.3,12.9c3.4,9.5,6.1,19,6.1,19l0,0c0.5,1.8,2.1,3,3.8,3c1.7,0,3.3-1.3,3.7-3.1l9.1-33.8
		c1.6,0.4,3.5,0.6,12.1,4.6c11,5,28,14.2,52.3,30.9c24.2,16.6,48.2,36.5,66.4,52.8c9.1,8.1,16.8,15.4,22.4,20.9c2.7,2.7,5,5,6.7,6.8
		c1.6,1.7,2.7,3.3,2.6,2.9c-0.4-0.6,0,0,0.1,1c0.1,1,0.1,2.5,0.1,4.2c-0.1,3.4-0.5,7.8-1.1,12c-1.1,8.4-2.6,16.3-2.6,16.3l0,0
		c-0.3,1.8,0.4,3.5,1.7,4.5s3.1,0.9,4.5-0.1l21.4-16.7c3.8,4,42.4,44.4,61.2,75.5c18.3,30.2,39.4,46.3,45.1,50.5l-29.8,28.3
		c-1.4-2-3.3-4.6-6.8-9.5c-1.4-1.9-3.1-4.2-4.8-6.7c-3.6-4.8-6.7-9.2-11.5-15.5c-2.1-2.7-4-5.3-6.4-8.3c-1.2-1.5-2.4-3-3.7-4.6
		c-3.4-4.3-7-8.8-10.9-13.4c-0.9-1.1-1.7-2.1-2.6-3.2c-3.8-4.7-7.9-9.5-12.2-14.4c-1.6-1.8-3-3.5-4.7-5.4c-3.6-4-7.3-8.2-11-12.3
		c-2.6-2.8-5-5.5-7.6-8.4c-2.8-3-5.8-6.1-8.8-9.2c-3.9-4.1-7.9-8.3-12-12.4c-1.1-1.1-2.2-2.2-3.4-3.3
		c-46.3-46.3-103.8-92.7-165.7-116.8l0.5-1.2l0,0c0.6-1.4,0.5-3.1-0.4-4.4c-0.1-0.1-0.2-0.3-0.3-0.4c-0.4-0.4-0.7-0.7-1.2-1
		l-25.6-13c-0.5-0.3-1.2-0.4-1.8-0.4l0,0c-0.2,0-0.3,0-0.5,0.1c-0.2,0-0.3,0.1-0.5,0.1c-0.2,0-0.3,0.1-0.5,0.2
		c-0.1,0-0.1,0.1-0.2,0.1s-0.1,0.1-0.2,0.1l0,0c-0.1,0.1-0.3,0.2-0.4,0.3c-0.1,0.1-0.3,0.2-0.4,0.3c-0.4,0.4-0.6,0.8-0.8,1.2v0.1
		l-2.8,6.7c-6.7-1.6-13.4-2.8-20.2-3.8c0.3-8.5,0-17.3-1.7-25.9v-0.1c-0.6-2.9-1.3-5.7-2.2-8.4C266.2,66.2,264.7,63.1,263,60L263,60
		z M201.1,65.4c0.4,7.5,0.9,14.8,1.7,21.4l0,0c0.4,2.6,0.8,5.1,1.4,7.6c1.5,6.8,3.6,13.2,5.9,18.9c-3.8,11.3-7.7,28.4-13,44.7
		c-5.6,17.2-13,32.8-21.5,38.3c-2.2,1.4-4.2,2.8-6,4.2c-0.9,0.7-1.6,1.4-2.5,2.1c-0.8,0.7-1.8,1.5-2.6,2.2c-0.9,0.8-1.6,1.7-2.5,2.5
		c-0.5,0.6-1.3,1.2-1.7,1.8c-0.5,0.6-1,1.3-1.6,1.9c-0.6,0.8-1.4,1.6-1.9,2.4c-0.5,0.7-0.9,1.3-1.4,2c-0.5,0.7-1,1.4-1.4,2
		c-0.5,0.8-0.8,1.5-1.3,2.3c-0.3,0.6-0.6,1.1-0.9,1.7c-0.5,1.1-0.8,2-1.3,3c-0.6,1.4-1.3,2.9-1.7,4.1c-1.2-2.3-2.7-5.2-4.4-8.7
		c-1.2-2.5-2.4-5.2-4.2-9.6l0,0c-0.1-0.2-0.2-0.4-0.3-0.6c-1.1-2.7-2.3-5.6-3.5-9.1c-7.3-20.4-12.7-45-7.6-60.4
		c11-33.3,41.3-53.7,41.3-53.7c1.2-0.8,1.9-2.1,1.9-3.6s-0.6-2.9-1.7-3.7l-13.6-10.3c4.8-0.5,6.5-1,17.9-1
		C186.6,67.9,194.6,66.5,201.1,65.4L201.1,65.4z M299.9,108.6l18.3,9.3l-0.5,1.4v0.1l0,0c0,0,0,0.1-0.1,0.1l-0.1,0.3l0,0l0,0
		l-62.8,148.4c-4.9-5-11.4-8.2-18.6-8.2h-0.1l0,0l61.2-145l0,0c0,0,0-0.1,0.1-0.1l0.1-0.1L299.9,108.6z M323,126.9
		c0.8,0.3,1.6,0.6,2.4,0.9c3.6,1.4,7.2,2.9,10.8,4.5c0.6,0.3,1.3,0.6,1.9,0.9c4,1.8,7.9,3.7,12,5.6c0.2,0.1,0.3,0.2,0.5,0.2
		c8.7,4.4,17.3,9.1,25.8,14.3c0.1,0,0.1,0.1,0.2,0.1c17.1,10.3,33.7,22,49.6,34.5c2,1.6,3.9,3.3,5.9,4.9c5.9,4.8,12,9.6,17.7,14.6
		c2.8,2.5,5.6,5,8.3,7.5c4.7,4.3,9.6,8.5,14.1,12.9c43.4,41,78.5,83.8,99.9,111.8c3.6,4.7,5.7,7.6,8.4,11.3s6.1,8.3,8,10.9
		c3.4,4.7,5.6,8,5.8,8.2c13.4,59.3-8.9,109.6-49.3,147.8c-40.5,38.2-99,63.5-156.3,70.8l0,0c0.1,0.1-0.1,0-0.5,0.1
		c0.2,0,0.4-0.1,0.5-0.1c-0.1-0.1-0.5-0.3-0.9-0.9c-1-1.3-2.5-3.6-3.9-6.8c-3-6.4-6.6-16-10.3-27.7c-7.5-23.4-16-55-24.2-86.8
		s-16.3-63.8-23.2-88c-3.4-12.1-6.5-22.3-9.1-29.8c-1.4-3.7-2.6-6.7-3.8-9.1c-0.6-1.2-1.2-2.2-2-3.1c-0.7-0.9-1.6-1.9-3.5-2.3
		c-3.4-0.7-6.6,1.1-8.8,3.5c-0.9,1-1.6,2.5-2.6,3.7l-33.1-51.8c-0.1-4.9-1.3-9.5-3.3-13.6L323,126.9z M201.1,231.3
		c-5.4-0.2-12,0.1-17.1,2.5c-9.9,4.8-20.5,16.1-18.3,20.4c1.6,3.2,2.3,0.5,11.3-6.1l0,0c0.5,6,4.9,10.8,10.5,11
		c2.9,0.1,5.7-1,7.9-3.2c2.1-2.2,3.4-5.2,3.5-8.3c0.1-2.5-0.5-4.9-1.8-7c3.3-0.3,6.7-0.5,10.7-0.5c7.4,0,3.1-7.7,3.1-7.7
		C210.7,232.4,206.5,231.5,201.1,231.3L201.1,231.3z M235.8,268.6L235.8,268.6L235.8,268.6L235.8,268.6c1.6,0,3.2,0.3,4.7,0.6
		c0.3,0.1,0.5,0.2,0.9,0.3c1.2,0.4,2.3,0.9,3.4,1.5c0.3,0.2,0.5,0.3,0.8,0.5c1.1,0.7,2.2,1.5,3.2,2.5c0.2,0.1,0.3,0.3,0.5,0.4
		c1.1,1.2,2.2,2.5,3,4l0,0l0,0c1.9,3.3,3.1,7.3,3.1,11.5c0,1.1-0.2,2.2-0.3,3.2c-0.1,0.4-0.1,0.9-0.2,1.3c0,0.1-0.1,0.2-0.1,0.3
		c-0.3,1.1-0.5,2.2-0.9,3.3c-0.2,0.5-0.4,0.9-0.6,1.3c-0.3,0.7-0.6,1.4-1,2.1c-0.3,0.5-0.6,0.9-0.9,1.4c-0.4,0.5-0.7,1.1-1.2,1.6
		c-0.4,0.4-0.7,0.9-1.2,1.3c-0.5,0.5-0.9,0.9-1.5,1.3c-0.5,0.3-0.8,0.7-1.3,1c-0.5,0.4-1.2,0.7-1.7,1c-0.5,0.3-0.9,0.5-1.5,0.8
		c-0.6,0.3-1.4,0.5-2,0.7c-0.5,0.1-0.9,0.3-1.5,0.4c-1.2,0.3-2.5,0.4-3.7,0.4c-3.7,0-7.2-1.2-10.2-3.2c-0.5-0.4-1-0.7-1.6-1.1
		c-0.5-0.4-1-0.9-1.5-1.3c-1.3-1.2-2.4-2.7-3.2-4.2c-0.1-0.1-0.2-0.3-0.2-0.4c-0.7-1.4-1.4-2.9-1.8-4.4c-0.2-0.5-0.4-1.1-0.5-1.6
		c-0.1-0.4-0.2-0.9-0.3-1.3c-0.2-1.2-0.4-2.4-0.4-3.7c0-1.4,0.2-2.9,0.4-4.3l0,0c0-0.1,0-0.1,0-0.2c1.6-8,7.1-14.3,14.3-16.2
		c0.4-0.1,0.8-0.2,1.2-0.3C233.5,268.7,234.7,268.6,235.8,268.6L235.8,268.6z M208.9,294.1c1,7.9,4.8,14.7,10.3,19.4l-83.5,75.9
		c-2.2-7.3-6.8-13.4-12.9-17L208.9,294.1z M261.2,301.4l31.9,49.8l0,0c0,0,0,0.1,0.1,0.1l8.3,12.9L284.9,377l-2-3.1l-36.1-56.4
		C253.3,314.3,258.4,308.6,261.2,301.4L261.2,301.4z M226.6,318c2.9,1.2,6,1.9,9.3,1.9c0.9,0,1.7-0.2,2.6-0.3l36,56.2
		c-9.5,12.7-22.5,25.7-43.1,35c-27,12.2-47.2,21.4-63.6,29.4l-31.6-34.9c0.5-1.9,0.6-3.9,0.7-5.9L226.6,318z M69.3,343.9l1.8,2
		l24.5,27c-6,3.9-10.5,10.2-12.3,17.7l-23.5-25.8c0,0-0.1,0-0.1-0.1l-4.7-5.2L69.3,343.9z M57.4,374.5l25.1,27.8
		c1.6,13.3,11.1,23.8,23.3,25.7l28.3,31.2c-2.9,2-6,4.1-8.1,6.1c-7.3,7.2-8.8,17.3-10.7,26.8c-2,9.6-4.2,19-11.6,27.4
		c-7.4,8.4-18.2,13.8-28.8,14.2c-9.4,0.3-18.6-3.2-26-12.3c11.7-8.2,19.8-20.1,27.7-30.9c8.7-12,16.9-22.6,28.4-27.1l0,0
		c1-0.4,1.8-1.2,2.3-2.2c0.5-1.1,0.5-2.3,0.2-3.3c-0.5-1.6-1.9-2.7-3.5-2.8l0,0c-0.5,0-1.1,0.1-1.6,0.3c-14,5.5-23.2,17.7-31.9,29.8
		c-8.7,12-17.1,23.9-28.8,31c-0.5,0.1-7.1,1.9-12,0.8c-0.7-0.2-4-2.4-7.1-6.7s-6.3-10.3-8.8-17.4c-4.9-14.1-6.8-32-0.5-48.5
		c2.5-6.3,8.9-17.3,17.4-30.3C38.3,402.2,47.8,388.4,57.4,374.5L57.4,374.5z M109.5,377L109.5,377L109.5,377c2.4,0,4.6,0.5,6.7,1.3
		c0.4,0.2,0.8,0.3,1.2,0.5l0,0c1,0.5,1.9,1,2.8,1.7c0.5,0.3,0.8,0.7,1.3,1c0.5,0.4,1,0.8,1.5,1.3c0.4,0.4,0.7,0.8,1.1,1.3
		c0.5,0.5,0.8,1,1.2,1.6c0.4,0.5,0.6,1,0.9,1.5c0.4,0.6,0.6,1.3,0.9,1.9c0.2,0.5,0.5,0.9,0.5,1.4c0.4,0.9,0.6,1.9,0.8,2.9
		c0.1,0.2,0.2,0.5,0.2,0.7c0,0.1,0,0.2,0,0.3c0.2,1.3,0.4,2.6,0.4,4c0,2.7-0.5,5.2-1.3,7.5c-0.2,0.6-0.5,1.2-0.6,1.7
		c-0.3,0.6-0.5,1.1-0.8,1.6c-0.3,0.5-0.5,1.1-0.9,1.6c-0.4,0.6-0.8,1.1-1.2,1.6c-0.4,0.4-0.6,0.8-1,1.2c-0.7,0.8-1.5,1.5-2.3,2.1
		l0,0c-0.5,0.3-0.9,0.6-1.5,0.9c-0.5,0.3-1.1,0.7-1.6,1c-0.5,0.2-0.9,0.4-1.4,0.6c-0.6,0.3-1.3,0.5-1.9,0.7
		c-0.5,0.1-0.9,0.3-1.5,0.4c-1.1,0.2-2.3,0.4-3.5,0.4l0,0c-10.8,0-19.4-9.5-19.4-21.3c0-1.3,0.2-2.6,0.4-3.8c0.1-0.5,0.2-1,0.4-1.5
		c0.2-0.7,0.4-1.5,0.6-2.2c0.2-0.5,0.4-1,0.5-1.5c0.3-0.6,0.5-1.2,0.8-1.8c0.3-0.5,0.5-1.1,0.9-1.6c0.3-0.4,0.6-0.8,0.9-1.3
		c0.7-0.9,1.6-1.8,2.4-2.6c0.4-0.3,0.7-0.7,1.1-1c0.5-0.4,1-0.7,1.6-1c0.5-0.3,1-0.6,1.5-0.9c0.5-0.3,1.1-0.5,1.6-0.7
		C104.9,377.5,107.1,377,109.5,377L109.5,377z M132.8,414.1l31.1,34.4l1.4,1.5L151,465.6l-7.9-8.7l0,0l-0.1-0.1l-26.7-29.5
		C123.3,425.4,129.2,420.6,132.8,414.1L132.8,414.1z M32,455.6c-0.5-0.1-0.9-0.1-1.3,0c-6.8,1.6-5.4,5.7-5.4,5.7v19.8
		c0,12,15.8,17.2,19.4,5.7C48,476.2,38.8,456.7,32,455.6L32,455.6z"/>
</g>
</svg>
