<svg xmlns="http://www.w3.org/2000/svg" width="466.36" height="510.95" viewBox="0 0 466.36 510.95"><path d="M333.1,512h-4a19.14,19.14,0,0,0-2.83-.85c-45-6.08-88.37-18-129.2-38.18C158.71,454,125.2,429.1,100.37,393.6,74.66,356.84,62.79,316.3,69.5,271.73c8.16-54.27,30.14-102.21,69.63-141.31,23.7-23.46,50-42.86,81.75-54.25,33.6-12,68.21-19.15,103.69-22.38,1.88-.17,4.49-.41,5.39-1.62,2.7-3.67,4.72-7.83,7.13-12A16.39,16.39,0,0,0,335,40c-25.84,1.21-51.48,4-76.7,9.92-49.82,11.76-95,32.37-132.08,68.74C103.62,140.88,87,167,75.39,196.2c-12.58,31.7-18,65.14-19.37,99.05-.77,18.78.63,37.65,1,56.47,0,1.7,0,3.4,0,5.1H55.48C47.86,320,42.47,283,48.63,244.47H24l24.37-30-25.32-3.86,36.29-28L32.83,174,70.35,153.3l-28.3-8.58,47.39-15.35-.09-1L59,119.52l.12-1,53.39-14.75L84.11,90.56l.13-1.06,53.9-7.14-25.63-15,.36-1,65.81-7V58.18L151.1,45.51l.3-1.14,67.54-5.81.1-1-28.36-14.8a10.68,10.68,0,0,1,5.19-.78c44,3.49,88.06,6.82,132.06,10.67,9.94.87,19.1,1.53,25.88-7.53a15.57,15.57,0,0,1,3.46-2.85c9.66-7,19.33-13.94,29.38-21.18-2,11.66-3.9,22.36-5.81,33.28l22.23-18.15c.29,4.11-.52,7.28-1.07,10.5-3.26,19-.93,37.88,1.81,56.7A25,25,0,0,0,407.13,93c5.07,8,11.3,15.3,15.91,23.53,16.16,28.84,28.3,59.49,39,90.67,3.62,10.51,8,20.34,14.91,29.09s10.38,18.76,11.89,29.75c2.91,21.21-5.55,37.84-24.05,45.83-8.48,3.67-17.37,6.2-26.71,4.75-14.2-2.22-22.52-11.61-25.79-24.71-2.06-8.26-5.92-11.27-14-13.12-20.6-4.68-37-17.19-51.67-31.79-8-7.94-15.16-16.68-22.75-25.11-8.85,3.73-18.56,12-24.5,21.08-12.24,18.83-13.77,39.69-10.62,61.09,4.46,30.34,16,57.95,33.9,82.86,7.57,10.53,13.43,21.81,16.38,34.49C346.18,452.21,342.3,482.28,333.1,512Z" transform="translate(-23.07 -1.05)"/></svg>