<svg xmlns="http://www.w3.org/2000/svg" xmlns:xlink="http://www.w3.org/1999/xlink" width="44.593" height="55.624" viewBox="0 0 44.593 55.624">
  <defs>
    <style>
      .cls-1 {
        fill: #fff;
        fill-rule: evenodd;
        filter: url(#filter);
      }
    </style>
    <filter id="filter" x="788.188" y="573.188" width="44.593" height="55.624" filterUnits="userSpaceOnUse">
      <feFlood result="flood"/>
      <feComposite result="composite" operator="in" in2="SourceGraphic"/>
      <feBlend result="blend" in2="SourceGraphic"/>
    </filter>
  </defs>
  <path class="cls-1" d="M805.17,628.755s-12.572-.969-16.061-9.079,3.97-16.22,4.872-19.428,0.662-6.355-.541-7.626c3.008,0.242,8.181,3.45,7.038,13.255,3.008-2.724.121-11.258,0.361-18.339s5.775-13.316,10.647-14.345c-2.646,7.566-2.587,9.684-.9,14.889s8.481,10.895,8.481,10.895-0.782-7.989,8.482-11.258c-2.226,5.024-.842,10.047,1.443,13.982s3.91,7.747,3.79,12.165S831.637,629.662,805.17,628.755Zm8.376-.152s5.956-.422,7.609-3.95-1.881-7.056-2.308-8.451-0.314-2.765.256-3.317c-1.425.105-3.876,1.5-3.334,5.765-1.426-1.184-.057-4.9-0.172-7.977a6.991,6.991,0,0,0-5.044-6.24c1.254,3.291,1.225,4.212.428,6.477s-4.019,4.739-4.019,4.739,0.371-3.476-4.018-4.9a6.141,6.141,0,0,1-.684,6.082,9.292,9.292,0,0,0-1.8,5.292C800.521,624.048,801.006,629,813.546,628.6Z" transform="translate(-788.188 -573.188)"/>
</svg>
