<svg width="68" height="68" viewBox="0 0 68 68" fill="none" xmlns="http://www.w3.org/2000/svg">
<mask id="path-1-outside-1" maskUnits="userSpaceOnUse" x="13" y="14" width="41" height="42" fill="black">
<rect fill="white" x="13" y="14" width="41" height="42"/>
<path d="M49.6522 20.4057C48.4514 19.2216 46.9948 18.3177 45.3902 17.7608C43.7855 17.204 42.0739 17.0085 40.3819 17.1888C38.7151 16.3054 36.9291 15.6584 35.0773 15.2671C34.0279 14.9785 32.9263 14.923 31.8523 15.1044C30.7784 15.2859 29.7591 15.6999 28.8684 16.3163C24.1432 19.587 22.4676 28.3346 21.8843 33.4463L14.7084 40.4951C14.6839 40.52 14.6617 40.547 14.6419 40.5758C14.5949 40.6142 14.5479 40.6526 14.501 40.6988C14.4037 40.7954 14.3195 40.9039 14.2504 41.0216C13.1425 42.8587 15.8829 46.852 19.0891 49.9998C19.3162 50.2227 19.5472 50.4417 19.7781 50.657C20.0091 50.8722 20.1931 51.0413 20.3928 51.2066C20.9617 51.719 21.5555 52.202 22.174 52.6555C22.4872 52.8861 22.8161 53.1129 23.1332 53.3243C23.2467 53.4011 23.3641 53.478 23.4581 53.5318C23.552 53.5856 23.6499 53.6548 23.7478 53.7086C23.8457 53.7624 24.0101 53.87 24.1393 53.9392C24.6381 54.2311 25.1621 54.4793 25.7052 54.681C25.7913 54.7169 25.8775 54.7476 25.9636 54.7732L26.1515 54.8309L26.3551 54.8847C26.6362 54.9579 26.9255 54.9966 27.2163 55C27.3474 54.9998 27.4783 54.9895 27.6078 54.9693C27.654 54.9633 27.6998 54.9543 27.7448 54.9423C27.7884 54.9343 27.8315 54.9241 27.874 54.9116C27.9488 54.8894 28.022 54.8624 28.0932 54.8309C28.1544 54.8048 28.2133 54.7739 28.2694 54.7387C28.3148 54.7125 28.358 54.683 28.3986 54.6502C28.4596 54.6072 28.5172 54.5597 28.5709 54.508C28.6054 54.4736 28.6368 54.4363 28.6648 54.3966C28.7053 54.3691 28.7433 54.3383 28.7783 54.3043L36.0521 47.148C37.0093 46.7722 37.906 46.2621 38.7142 45.6337L49.6131 36.2942L49.6522 36.2596C50.7135 35.2188 51.5555 33.9828 52.1299 32.6223C52.7043 31.2618 53 29.8035 53 28.3307C53 26.858 52.7043 25.3997 52.1299 24.0392C51.5555 22.6787 50.7135 21.4427 49.6522 20.4018V20.4057ZM29.4204 50.8914L27.463 49.2926L28.0189 48.6084L29.9763 50.2073L29.4204 50.8914ZM31.5031 49.4232L28.4103 46.925C28.3309 46.8599 28.2391 46.811 28.1402 46.7809C28.0413 46.7509 27.9374 46.7404 27.8343 46.75C27.7313 46.7597 27.6313 46.7893 27.54 46.8371C27.4487 46.885 27.3679 46.9501 27.3025 47.0288L25.7169 48.9044C25.6506 48.9824 25.6007 49.0725 25.5701 49.1696C25.5395 49.2667 25.5289 49.3687 25.5387 49.4699C25.5485 49.571 25.5787 49.6693 25.6274 49.7589C25.6762 49.8485 25.7425 49.9278 25.8226 49.9921L28.6061 52.2558L27.6352 53.209C27.5982 53.245 27.5653 53.285 27.5373 53.3281C27.5035 53.3477 27.472 53.3709 27.4434 53.3973H27.416H27.3455C27.1452 53.4158 26.9432 53.3962 26.7505 53.3397L26.5821 53.2935L26.4843 53.2628H26.4216C26.3746 53.2628 26.3237 53.2282 26.2611 53.2051C25.8011 53.0312 25.3571 52.8191 24.934 52.571C24.8244 52.5095 24.7147 52.448 24.609 52.3788L24.5503 52.3442C24.4706 52.2999 24.3935 52.2511 24.3194 52.1982C24.2293 52.1444 24.1393 52.0906 24.0414 52.0214C23.7282 51.8138 23.4229 51.6024 23.1371 51.3911C22.5577 50.9606 21.9939 50.5032 21.4537 50.0228C21.258 49.8575 21.0622 49.6808 20.8704 49.504C20.6786 49.3272 20.4241 49.1158 20.1892 48.9005C16.5993 45.3608 15.3035 42.4513 15.6089 41.8018C15.6967 41.7463 15.7715 41.6729 15.8281 41.5866L21.7003 35.8215C21.7356 35.9445 21.7786 36.0675 21.8295 36.2058L21.8569 36.2673C21.9196 36.4211 21.99 36.5786 22.0644 36.7401L22.1231 36.8669C22.2132 37.0475 22.315 37.2512 22.4207 37.4242L22.4441 37.4742C22.4569 37.4907 22.4674 37.5088 22.4755 37.528C22.5655 37.6855 22.6634 37.847 22.7652 38.0122C22.8161 38.0968 22.8748 38.1852 22.9335 38.2736L23.094 38.5196C23.3446 38.9039 23.6186 39.2882 23.9161 39.6726L23.9435 39.7072C24.2567 40.1107 24.5934 40.522 24.9536 40.9332L25.024 41.0139C25.2237 41.2407 25.4155 41.4674 25.6386 41.6903C25.6856 41.7442 25.7326 41.7941 25.7835 41.8441C25.8853 41.9555 25.991 42.0632 26.1006 42.1746L26.3472 42.4244L26.5821 42.6627C26.7426 42.8203 26.9031 42.9702 27.0676 43.1239L27.138 43.1931L27.5608 43.5775L27.737 43.735L28.1285 44.0963L28.3007 44.2424C28.4456 44.3615 28.5904 44.4845 28.7353 44.5998L28.8136 44.6651C29.3186 45.0725 29.8158 45.4338 30.3051 45.7797L30.3717 45.8258C30.5244 45.9296 30.677 46.0257 30.8258 46.1218L30.9237 46.1871L31.37 46.46H31.4013L31.8319 46.706C31.9924 46.7944 32.1529 46.8751 32.2939 46.9443H32.3408C32.5092 47.0288 32.6736 47.1018 32.838 47.171L33.0651 47.2594C33.1786 47.3017 33.2843 47.344 33.39 47.3786L33.5075 47.4208L31.5031 49.4232ZM48.5522 35.1451L37.7081 44.4422C36.9888 45.0026 36.186 45.4511 35.3279 45.772H35.3004C35.1713 45.8258 35.0303 45.872 34.8816 45.9219L34.7132 45.968L34.4783 46.0334H34.3961H34.3178C34.2292 46.0151 34.1416 45.992 34.0555 45.9642H34.0164L33.8402 45.9027H33.7854C33.5334 45.8089 33.2864 45.7024 33.0455 45.5837L32.7049 45.4069L32.6345 45.3685C32.4583 45.2724 32.2743 45.1686 32.0903 45.0572L32.0433 45.0264C31.8789 44.9265 31.7145 44.8189 31.5461 44.7113L31.4248 44.6305C31.2603 44.5191 31.092 44.4038 30.9237 44.2808L30.8571 44.2347C30.6653 44.0963 30.4656 43.9541 30.2816 43.8042L30.1524 43.7043C30.0076 43.5928 29.8628 43.4737 29.7179 43.3545L29.4948 43.1701L29.1581 42.8856L28.8801 42.6435L28.6296 42.4167L28.2772 42.0939L28.2498 42.0708L27.7331 41.575L27.5021 41.3406L27.279 41.1177L26.9775 40.7756L26.7661 40.545C26.6226 40.3913 26.4816 40.2375 26.3433 40.0838L26.1319 39.8455C26.0536 39.7571 25.9753 39.6687 25.9009 39.5765C25.8266 39.4842 25.6504 39.2805 25.5095 39.1307L25.3607 38.9423C25.2432 38.7924 25.1258 38.6425 25.0162 38.4965L24.9653 38.4312C24.8204 38.2351 24.6795 38.0468 24.5503 37.8546C24.2893 37.4626 24.0505 37.0783 23.8339 36.7016C23.7321 36.521 23.6421 36.348 23.556 36.1751L23.5246 36.1059C23.4542 35.9599 23.3915 35.8177 23.3367 35.6831C23.3383 35.6678 23.3383 35.6523 23.3367 35.637L23.278 35.4717C23.3132 35.0144 23.3602 34.5071 23.4229 33.9613C23.421 33.9408 23.421 33.9203 23.4229 33.8998C23.9474 29.0725 25.4742 20.5594 29.7727 17.5962C30.48 17.1057 31.2906 16.7778 32.1445 16.6368C32.9983 16.4957 33.8736 16.5451 34.7054 16.7814C35.7821 17.0242 36.8414 17.3362 37.8764 17.7153C36.2257 18.2687 34.7277 19.1895 33.4996 20.4057L33.437 20.4749L30.4891 24.1491C30.4251 24.2289 30.3777 24.3202 30.3497 24.4179C30.3216 24.5157 30.3135 24.6179 30.3256 24.7187C30.3378 24.8195 30.3701 24.917 30.4207 25.0055C30.4712 25.0941 30.539 25.172 30.6203 25.2349C30.7015 25.2977 30.7945 25.3442 30.8941 25.3718C30.9936 25.3993 31.0977 25.4073 31.2004 25.3954C31.3031 25.3834 31.4024 25.3517 31.4926 25.3021C31.5828 25.2525 31.6622 25.1859 31.7262 25.1061L34.6467 21.4703C36.4943 19.66 38.9988 18.6443 41.6091 18.6469C44.2195 18.6494 46.7219 19.6698 48.5659 21.4837C50.4098 23.2976 51.4443 25.7564 51.4418 28.3191C51.4392 30.8818 50.3998 33.3386 48.5522 35.1489V35.1451Z"/>
</mask>
<path d="M49.6522 20.4057C48.4514 19.2216 46.9948 18.3177 45.3902 17.7608C43.7855 17.204 42.0739 17.0085 40.3819 17.1888C38.7151 16.3054 36.9291 15.6584 35.0773 15.2671C34.0279 14.9785 32.9263 14.923 31.8523 15.1044C30.7784 15.2859 29.7591 15.6999 28.8684 16.3163C24.1432 19.587 22.4676 28.3346 21.8843 33.4463L14.7084 40.4951C14.6839 40.52 14.6617 40.547 14.6419 40.5758C14.5949 40.6142 14.5479 40.6526 14.501 40.6988C14.4037 40.7954 14.3195 40.9039 14.2504 41.0216C13.1425 42.8587 15.8829 46.852 19.0891 49.9998C19.3162 50.2227 19.5472 50.4417 19.7781 50.657C20.0091 50.8722 20.1931 51.0413 20.3928 51.2066C20.9617 51.719 21.5555 52.202 22.174 52.6555C22.4872 52.8861 22.8161 53.1129 23.1332 53.3243C23.2467 53.4011 23.3641 53.478 23.4581 53.5318C23.552 53.5856 23.6499 53.6548 23.7478 53.7086C23.8457 53.7624 24.0101 53.87 24.1393 53.9392C24.6381 54.2311 25.1621 54.4793 25.7052 54.681C25.7913 54.7169 25.8775 54.7476 25.9636 54.7732L26.1515 54.8309L26.3551 54.8847C26.6362 54.9579 26.9255 54.9966 27.2163 55C27.3474 54.9998 27.4783 54.9895 27.6078 54.9693C27.654 54.9633 27.6998 54.9543 27.7448 54.9423C27.7884 54.9343 27.8315 54.9241 27.874 54.9116C27.9488 54.8894 28.022 54.8624 28.0932 54.8309C28.1544 54.8048 28.2133 54.7739 28.2694 54.7387C28.3148 54.7125 28.358 54.683 28.3986 54.6502C28.4596 54.6072 28.5172 54.5597 28.5709 54.508C28.6054 54.4736 28.6368 54.4363 28.6648 54.3966C28.7053 54.3691 28.7433 54.3383 28.7783 54.3043L36.0521 47.148C37.0093 46.7722 37.906 46.2621 38.7142 45.6337L49.6131 36.2942L49.6522 36.2596C50.7135 35.2188 51.5555 33.9828 52.1299 32.6223C52.7043 31.2618 53 29.8035 53 28.3307C53 26.858 52.7043 25.3997 52.1299 24.0392C51.5555 22.6787 50.7135 21.4427 49.6522 20.4018V20.4057ZM29.4204 50.8914L27.463 49.2926L28.0189 48.6084L29.9763 50.2073L29.4204 50.8914ZM31.5031 49.4232L28.4103 46.925C28.3309 46.8599 28.2391 46.811 28.1402 46.7809C28.0413 46.7509 27.9374 46.7404 27.8343 46.75C27.7313 46.7597 27.6313 46.7893 27.54 46.8371C27.4487 46.885 27.3679 46.9501 27.3025 47.0288L25.7169 48.9044C25.6506 48.9824 25.6007 49.0725 25.5701 49.1696C25.5395 49.2667 25.5289 49.3687 25.5387 49.4699C25.5485 49.571 25.5787 49.6693 25.6274 49.7589C25.6762 49.8485 25.7425 49.9278 25.8226 49.9921L28.6061 52.2558L27.6352 53.209C27.5982 53.245 27.5653 53.285 27.5373 53.3281C27.5035 53.3477 27.472 53.3709 27.4434 53.3973H27.416H27.3455C27.1452 53.4158 26.9432 53.3962 26.7505 53.3397L26.5821 53.2935L26.4843 53.2628H26.4216C26.3746 53.2628 26.3237 53.2282 26.2611 53.2051C25.8011 53.0312 25.3571 52.8191 24.934 52.571C24.8244 52.5095 24.7147 52.448 24.609 52.3788L24.5503 52.3442C24.4706 52.2999 24.3935 52.2511 24.3194 52.1982C24.2293 52.1444 24.1393 52.0906 24.0414 52.0214C23.7282 51.8138 23.4229 51.6024 23.1371 51.3911C22.5577 50.9606 21.9939 50.5032 21.4537 50.0228C21.258 49.8575 21.0622 49.6808 20.8704 49.504C20.6786 49.3272 20.4241 49.1158 20.1892 48.9005C16.5993 45.3608 15.3035 42.4513 15.6089 41.8018C15.6967 41.7463 15.7715 41.6729 15.8281 41.5866L21.7003 35.8215C21.7356 35.9445 21.7786 36.0675 21.8295 36.2058L21.8569 36.2673C21.9196 36.4211 21.99 36.5786 22.0644 36.7401L22.1231 36.8669C22.2132 37.0475 22.315 37.2512 22.4207 37.4242L22.4441 37.4742C22.4569 37.4907 22.4674 37.5088 22.4755 37.528C22.5655 37.6855 22.6634 37.847 22.7652 38.0122C22.8161 38.0968 22.8748 38.1852 22.9335 38.2736L23.094 38.5196C23.3446 38.9039 23.6186 39.2882 23.9161 39.6726L23.9435 39.7072C24.2567 40.1107 24.5934 40.522 24.9536 40.9332L25.024 41.0139C25.2237 41.2407 25.4155 41.4674 25.6386 41.6903C25.6856 41.7442 25.7326 41.7941 25.7835 41.8441C25.8853 41.9555 25.991 42.0632 26.1006 42.1746L26.3472 42.4244L26.5821 42.6627C26.7426 42.8203 26.9031 42.9702 27.0676 43.1239L27.138 43.1931L27.5608 43.5775L27.737 43.735L28.1285 44.0963L28.3007 44.2424C28.4456 44.3615 28.5904 44.4845 28.7353 44.5998L28.8136 44.6651C29.3186 45.0725 29.8158 45.4338 30.3051 45.7797L30.3717 45.8258C30.5244 45.9296 30.677 46.0257 30.8258 46.1218L30.9237 46.1871L31.37 46.46H31.4013L31.8319 46.706C31.9924 46.7944 32.1529 46.8751 32.2939 46.9443H32.3408C32.5092 47.0288 32.6736 47.1018 32.838 47.171L33.0651 47.2594C33.1786 47.3017 33.2843 47.344 33.39 47.3786L33.5075 47.4208L31.5031 49.4232ZM48.5522 35.1451L37.7081 44.4422C36.9888 45.0026 36.186 45.4511 35.3279 45.772H35.3004C35.1713 45.8258 35.0303 45.872 34.8816 45.9219L34.7132 45.968L34.4783 46.0334H34.3961H34.3178C34.2292 46.0151 34.1416 45.992 34.0555 45.9642H34.0164L33.8402 45.9027H33.7854C33.5334 45.8089 33.2864 45.7024 33.0455 45.5837L32.7049 45.4069L32.6345 45.3685C32.4583 45.2724 32.2743 45.1686 32.0903 45.0572L32.0433 45.0264C31.8789 44.9265 31.7145 44.8189 31.5461 44.7113L31.4248 44.6305C31.2603 44.5191 31.092 44.4038 30.9237 44.2808L30.8571 44.2347C30.6653 44.0963 30.4656 43.9541 30.2816 43.8042L30.1524 43.7043C30.0076 43.5928 29.8628 43.4737 29.7179 43.3545L29.4948 43.1701L29.1581 42.8856L28.8801 42.6435L28.6296 42.4167L28.2772 42.0939L28.2498 42.0708L27.7331 41.575L27.5021 41.3406L27.279 41.1177L26.9775 40.7756L26.7661 40.545C26.6226 40.3913 26.4816 40.2375 26.3433 40.0838L26.1319 39.8455C26.0536 39.7571 25.9753 39.6687 25.9009 39.5765C25.8266 39.4842 25.6504 39.2805 25.5095 39.1307L25.3607 38.9423C25.2432 38.7924 25.1258 38.6425 25.0162 38.4965L24.9653 38.4312C24.8204 38.2351 24.6795 38.0468 24.5503 37.8546C24.2893 37.4626 24.0505 37.0783 23.8339 36.7016C23.7321 36.521 23.6421 36.348 23.556 36.1751L23.5246 36.1059C23.4542 35.9599 23.3915 35.8177 23.3367 35.6831C23.3383 35.6678 23.3383 35.6523 23.3367 35.637L23.278 35.4717C23.3132 35.0144 23.3602 34.5071 23.4229 33.9613C23.421 33.9408 23.421 33.9203 23.4229 33.8998C23.9474 29.0725 25.4742 20.5594 29.7727 17.5962C30.48 17.1057 31.2906 16.7778 32.1445 16.6368C32.9983 16.4957 33.8736 16.5451 34.7054 16.7814C35.7821 17.0242 36.8414 17.3362 37.8764 17.7153C36.2257 18.2687 34.7277 19.1895 33.4996 20.4057L33.437 20.4749L30.4891 24.1491C30.4251 24.2289 30.3777 24.3202 30.3497 24.4179C30.3216 24.5157 30.3135 24.6179 30.3256 24.7187C30.3378 24.8195 30.3701 24.917 30.4207 25.0055C30.4712 25.0941 30.539 25.172 30.6203 25.2349C30.7015 25.2977 30.7945 25.3442 30.8941 25.3718C30.9936 25.3993 31.0977 25.4073 31.2004 25.3954C31.3031 25.3834 31.4024 25.3517 31.4926 25.3021C31.5828 25.2525 31.6622 25.1859 31.7262 25.1061L34.6467 21.4703C36.4943 19.66 38.9988 18.6443 41.6091 18.6469C44.2195 18.6494 46.7219 19.6698 48.5659 21.4837C50.4098 23.2976 51.4443 25.7564 51.4418 28.3191C51.4392 30.8818 50.3998 33.3386 48.5522 35.1489V35.1451Z" fill="black"/>
<path d="M49.6522 20.4057C48.4514 19.2216 46.9948 18.3177 45.3902 17.7608C43.7855 17.204 42.0739 17.0085 40.3819 17.1888C38.7151 16.3054 36.9291 15.6584 35.0773 15.2671C34.0279 14.9785 32.9263 14.923 31.8523 15.1044C30.7784 15.2859 29.7591 15.6999 28.8684 16.3163C24.1432 19.587 22.4676 28.3346 21.8843 33.4463L14.7084 40.4951C14.6839 40.52 14.6617 40.547 14.6419 40.5758C14.5949 40.6142 14.5479 40.6526 14.501 40.6988C14.4037 40.7954 14.3195 40.9039 14.2504 41.0216C13.1425 42.8587 15.8829 46.852 19.0891 49.9998C19.3162 50.2227 19.5472 50.4417 19.7781 50.657C20.0091 50.8722 20.1931 51.0413 20.3928 51.2066C20.9617 51.719 21.5555 52.202 22.174 52.6555C22.4872 52.8861 22.8161 53.1129 23.1332 53.3243C23.2467 53.4011 23.3641 53.478 23.4581 53.5318C23.552 53.5856 23.6499 53.6548 23.7478 53.7086C23.8457 53.7624 24.0101 53.87 24.1393 53.9392C24.6381 54.2311 25.1621 54.4793 25.7052 54.681C25.7913 54.7169 25.8775 54.7476 25.9636 54.7732L26.1515 54.8309L26.3551 54.8847C26.6362 54.9579 26.9255 54.9966 27.2163 55C27.3474 54.9998 27.4783 54.9895 27.6078 54.9693C27.654 54.9633 27.6998 54.9543 27.7448 54.9423C27.7884 54.9343 27.8315 54.9241 27.874 54.9116C27.9488 54.8894 28.022 54.8624 28.0932 54.8309C28.1544 54.8048 28.2133 54.7739 28.2694 54.7387C28.3148 54.7125 28.358 54.683 28.3986 54.6502C28.4596 54.6072 28.5172 54.5597 28.5709 54.508C28.6054 54.4736 28.6368 54.4363 28.6648 54.3966C28.7053 54.3691 28.7433 54.3383 28.7783 54.3043L36.0521 47.148C37.0093 46.7722 37.906 46.2621 38.7142 45.6337L49.6131 36.2942L49.6522 36.2596C50.7135 35.2188 51.5555 33.9828 52.1299 32.6223C52.7043 31.2618 53 29.8035 53 28.3307C53 26.858 52.7043 25.3997 52.1299 24.0392C51.5555 22.6787 50.7135 21.4427 49.6522 20.4018V20.4057ZM29.4204 50.8914L27.463 49.2926L28.0189 48.6084L29.9763 50.2073L29.4204 50.8914ZM31.5031 49.4232L28.4103 46.925C28.3309 46.8599 28.2391 46.811 28.1402 46.7809C28.0413 46.7509 27.9374 46.7404 27.8343 46.75C27.7313 46.7597 27.6313 46.7893 27.54 46.8371C27.4487 46.885 27.3679 46.9501 27.3025 47.0288L25.7169 48.9044C25.6506 48.9824 25.6007 49.0725 25.5701 49.1696C25.5395 49.2667 25.5289 49.3687 25.5387 49.4699C25.5485 49.571 25.5787 49.6693 25.6274 49.7589C25.6762 49.8485 25.7425 49.9278 25.8226 49.9921L28.6061 52.2558L27.6352 53.209C27.5982 53.245 27.5653 53.285 27.5373 53.3281C27.5035 53.3477 27.472 53.3709 27.4434 53.3973H27.416H27.3455C27.1452 53.4158 26.9432 53.3962 26.7505 53.3397L26.5821 53.2935L26.4843 53.2628H26.4216C26.3746 53.2628 26.3237 53.2282 26.2611 53.2051C25.8011 53.0312 25.3571 52.8191 24.934 52.571C24.8244 52.5095 24.7147 52.448 24.609 52.3788L24.5503 52.3442C24.4706 52.2999 24.3935 52.2511 24.3194 52.1982C24.2293 52.1444 24.1393 52.0906 24.0414 52.0214C23.7282 51.8138 23.4229 51.6024 23.1371 51.3911C22.5577 50.9606 21.9939 50.5032 21.4537 50.0228C21.258 49.8575 21.0622 49.6808 20.8704 49.504C20.6786 49.3272 20.4241 49.1158 20.1892 48.9005C16.5993 45.3608 15.3035 42.4513 15.6089 41.8018C15.6967 41.7463 15.7715 41.6729 15.8281 41.5866L21.7003 35.8215C21.7356 35.9445 21.7786 36.0675 21.8295 36.2058L21.8569 36.2673C21.9196 36.4211 21.99 36.5786 22.0644 36.7401L22.1231 36.8669C22.2132 37.0475 22.315 37.2512 22.4207 37.4242L22.4441 37.4742C22.4569 37.4907 22.4674 37.5088 22.4755 37.528C22.5655 37.6855 22.6634 37.847 22.7652 38.0122C22.8161 38.0968 22.8748 38.1852 22.9335 38.2736L23.094 38.5196C23.3446 38.9039 23.6186 39.2882 23.9161 39.6726L23.9435 39.7072C24.2567 40.1107 24.5934 40.522 24.9536 40.9332L25.024 41.0139C25.2237 41.2407 25.4155 41.4674 25.6386 41.6903C25.6856 41.7442 25.7326 41.7941 25.7835 41.8441C25.8853 41.9555 25.991 42.0632 26.1006 42.1746L26.3472 42.4244L26.5821 42.6627C26.7426 42.8203 26.9031 42.9702 27.0676 43.1239L27.138 43.1931L27.5608 43.5775L27.737 43.735L28.1285 44.0963L28.3007 44.2424C28.4456 44.3615 28.5904 44.4845 28.7353 44.5998L28.8136 44.6651C29.3186 45.0725 29.8158 45.4338 30.3051 45.7797L30.3717 45.8258C30.5244 45.9296 30.677 46.0257 30.8258 46.1218L30.9237 46.1871L31.37 46.46H31.4013L31.8319 46.706C31.9924 46.7944 32.1529 46.8751 32.2939 46.9443H32.3408C32.5092 47.0288 32.6736 47.1018 32.838 47.171L33.0651 47.2594C33.1786 47.3017 33.2843 47.344 33.39 47.3786L33.5075 47.4208L31.5031 49.4232ZM48.5522 35.1451L37.7081 44.4422C36.9888 45.0026 36.186 45.4511 35.3279 45.772H35.3004C35.1713 45.8258 35.0303 45.872 34.8816 45.9219L34.7132 45.968L34.4783 46.0334H34.3961H34.3178C34.2292 46.0151 34.1416 45.992 34.0555 45.9642H34.0164L33.8402 45.9027H33.7854C33.5334 45.8089 33.2864 45.7024 33.0455 45.5837L32.7049 45.4069L32.6345 45.3685C32.4583 45.2724 32.2743 45.1686 32.0903 45.0572L32.0433 45.0264C31.8789 44.9265 31.7145 44.8189 31.5461 44.7113L31.4248 44.6305C31.2603 44.5191 31.092 44.4038 30.9237 44.2808L30.8571 44.2347C30.6653 44.0963 30.4656 43.9541 30.2816 43.8042L30.1524 43.7043C30.0076 43.5928 29.8628 43.4737 29.7179 43.3545L29.4948 43.1701L29.1581 42.8856L28.8801 42.6435L28.6296 42.4167L28.2772 42.0939L28.2498 42.0708L27.7331 41.575L27.5021 41.3406L27.279 41.1177L26.9775 40.7756L26.7661 40.545C26.6226 40.3913 26.4816 40.2375 26.3433 40.0838L26.1319 39.8455C26.0536 39.7571 25.9753 39.6687 25.9009 39.5765C25.8266 39.4842 25.6504 39.2805 25.5095 39.1307L25.3607 38.9423C25.2432 38.7924 25.1258 38.6425 25.0162 38.4965L24.9653 38.4312C24.8204 38.2351 24.6795 38.0468 24.5503 37.8546C24.2893 37.4626 24.0505 37.0783 23.8339 36.7016C23.7321 36.521 23.6421 36.348 23.556 36.1751L23.5246 36.1059C23.4542 35.9599 23.3915 35.8177 23.3367 35.6831C23.3383 35.6678 23.3383 35.6523 23.3367 35.637L23.278 35.4717C23.3132 35.0144 23.3602 34.5071 23.4229 33.9613C23.421 33.9408 23.421 33.9203 23.4229 33.8998C23.9474 29.0725 25.4742 20.5594 29.7727 17.5962C30.48 17.1057 31.2906 16.7778 32.1445 16.6368C32.9983 16.4957 33.8736 16.5451 34.7054 16.7814C35.7821 17.0242 36.8414 17.3362 37.8764 17.7153C36.2257 18.2687 34.7277 19.1895 33.4996 20.4057L33.437 20.4749L30.4891 24.1491C30.4251 24.2289 30.3777 24.3202 30.3497 24.4179C30.3216 24.5157 30.3135 24.6179 30.3256 24.7187C30.3378 24.8195 30.3701 24.917 30.4207 25.0055C30.4712 25.0941 30.539 25.172 30.6203 25.2349C30.7015 25.2977 30.7945 25.3442 30.8941 25.3718C30.9936 25.3993 31.0977 25.4073 31.2004 25.3954C31.3031 25.3834 31.4024 25.3517 31.4926 25.3021C31.5828 25.2525 31.6622 25.1859 31.7262 25.1061L34.6467 21.4703C36.4943 19.66 38.9988 18.6443 41.6091 18.6469C44.2195 18.6494 46.7219 19.6698 48.5659 21.4837C50.4098 23.2976 51.4443 25.7564 51.4418 28.3191C51.4392 30.8818 50.3998 33.3386 48.5522 35.1489V35.1451Z" stroke="black" mask="url(#path-1-outside-1)"/>
</svg>
