<svg width="68" height="68" viewBox="0 0 68 68" fill="none" xmlns="http://www.w3.org/2000/svg">
<path d="M35 40.4301L35.3784 40.4312C47.8401 40.5063 57.88 44.2848 57.88 48.9351C57.88 53.6322 47.6363 57.4401 35 57.4401C22.3637 57.4401 12.12 53.6322 12.12 48.9351C12.12 45.7079 16.9554 42.9005 24.0801 41.4594L24.0796 43.3759C22.3273 43.7415 20.7112 44.1956 19.279 44.728C15.6222 46.0873 13.68 47.7942 13.68 48.9351C13.68 50.0759 15.6222 51.7828 19.279 53.1421C23.3827 54.6676 28.9955 55.5501 35 55.5501C41.0045 55.5501 46.6173 54.6676 50.721 53.1421C54.3778 51.7828 56.32 50.0759 56.32 48.9351C56.32 47.7942 54.3778 46.0873 50.721 44.728C46.6173 43.2025 41.0045 42.3201 35 42.3201C32.8528 42.3201 30.7557 42.4329 28.7597 42.6477L28.7603 40.7502C30.7438 40.5416 32.8369 40.4301 35 40.4301ZM31.36 46.7301C32.7959 46.7301 33.96 47.2942 33.96 47.9901C33.96 48.6859 32.7959 49.2501 31.36 49.2501C29.9241 49.2501 28.76 48.6859 28.76 47.9901C28.76 47.2942 29.9241 46.7301 31.36 46.7301ZM27.2 9.56006V10.9681L34.48 14.6001L27.2 19.2696V46.7301H25.64V9.56006H27.2ZM27.2 13.0122V17.1309L30.812 14.8142L27.2 13.0122Z" fill="black"/>
</svg>
