<svg width="68" height="68" viewBox="0 0 68 68" fill="none" xmlns="http://www.w3.org/2000/svg">
<path fill-rule="evenodd" clip-rule="evenodd" d="M12 23.5H7.5V50.5H60.5V23.5H13V24.45H12V23.5ZM6 22V52H12H13H62V22H6ZM54 38.5843C54 39.6545 53.5729 40.5307 52.7188 41.2128C51.8769 41.8831 50.7299 42.2653 49.2779 42.3594V44H48.0699V42.3594C46.8741 42.2889 45.8369 42.0184 44.9584 41.548C44.0799 41.0775 43.4271 40.4425 43 39.6428L45.2146 38.1786C45.8735 39.3664 46.8253 40.0485 48.0699 40.2249V36.7497L47.3744 36.591C44.934 36.0617 43.7138 34.8739 43.7138 33.0276C43.7138 32.0397 44.0982 31.2459 44.8669 30.6461C45.6478 30.0345 46.7155 29.6876 48.0699 29.6053V28H49.2779V29.6053C51.1936 29.7464 52.67 30.505 53.7072 31.8809L51.7304 33.4333C51.157 32.4572 50.3394 31.8633 49.2779 31.6516V34.6152L50.0649 34.7916C51.4437 35.0974 52.4443 35.5502 53.0666 36.1499C53.6889 36.738 54 37.5494 54 38.5843ZM46.3311 32.9041C46.3311 33.2569 46.4592 33.545 46.7155 33.7685C46.9717 33.9919 47.4232 34.186 48.0699 34.3506V31.5987C47.5208 31.634 47.0937 31.7633 46.7887 31.9868C46.4836 32.2102 46.3311 32.516 46.3311 32.9041ZM49.2779 40.2602C49.9124 40.2014 50.4065 40.0426 50.7604 39.7839C51.1143 39.5252 51.2912 39.1724 51.2912 38.7255C51.2912 38.2668 51.1387 37.914 50.8336 37.667C50.5286 37.4083 50.01 37.1907 49.2779 37.0143V40.2602ZM38 35.4H36.2V37.2H38V35.4ZM30.8 35.4H34.4V37.2H30.8V35.4ZM30.8 38.1V39.9H38V38.1H30.8ZM30.8 32.7H38V34.5H30.8V32.7ZM27.2 35.4H25.4V37.2H27.2V35.4ZM20 35.4H23.6V37.2H20V35.4ZM27.2 38.1H20V39.9H27.2V38.1ZM20 32.7H27.2V34.5H20V32.7ZM38 40.8H20V42.6H38V40.8ZM20 30H38V31.8H20V30ZM12 27.35V30.25H13V27.35H12ZM12 33.15V36.05H13V33.15H12ZM12 38.95V41.85H13V38.95H12ZM12 44.75V47.65H13V44.75H12Z" fill="black"/>
</svg>
