<svg width="68" height="68" viewBox="0 0 68 68" fill="none" xmlns="http://www.w3.org/2000/svg">
<path fill-rule="evenodd" clip-rule="evenodd" d="M53.6413 30.0622C54.0055 31.0094 54.3722 31.9633 54.6411 32.9356C55.371 35.573 56.0592 38.359 55.9959 41.1129C56.0016 42.4588 55.6617 43.7837 55.0088 44.9606C54.6786 45.5451 54.2285 46.0531 53.688 46.4512C53.1476 46.8494 52.529 47.1287 51.8729 47.2708C51.1886 47.3842 50.4877 47.3439 49.8209 47.153C49.1541 46.9621 48.5381 46.6253 48.0176 46.1669C47.4173 45.6208 42.4575 41.1129 41.802 40.5474C41.7842 40.532 41.7577 40.5051 41.7263 40.4731C41.6295 40.3746 41.4859 40.2284 41.4053 40.2284H34.6364V40.2287H27.5947C27.514 40.2287 27.37 40.3754 27.2732 40.4739C27.2421 40.5056 27.2159 40.5323 27.1982 40.5476C26.5425 41.1131 21.5827 45.621 20.9824 46.1671C20.4619 46.6255 19.8459 46.9623 19.1791 47.1533C18.5123 47.3442 17.8114 47.3844 17.1271 47.2711C16.471 47.129 15.8525 46.8497 15.312 46.4515C14.7716 46.0533 14.3215 45.5453 13.9914 44.9609C13.3383 43.784 12.9983 42.4591 13.0041 41.1131C12.9408 38.3592 13.6292 35.5732 14.3589 32.9358C14.628 31.9633 14.9947 31.0092 15.3589 30.0618C15.4777 29.7529 15.5962 29.4446 15.7109 29.1366C16.1481 27.9667 16.5885 26.7982 17.0322 25.6309C17.0698 25.5321 17.107 25.4331 17.1443 25.3341C17.5705 24.2006 17.9977 23.0649 18.9431 22.2448C19.3364 21.9037 24.0912 19.8052 25.0595 19.6836C26.194 19.5476 27.0694 20.0977 27.9116 20.803C30.0905 20.4596 32.2936 20.2931 34.4994 20.305V20.3048C36.7056 20.2928 38.9092 20.4593 41.0886 20.8027C41.9306 20.0975 42.8061 19.5474 43.9405 19.6834C44.9088 19.805 49.6638 21.9035 50.0569 22.2445C51.0024 23.0645 51.4293 24.2 51.8555 25.3332C51.8928 25.4324 51.9301 25.5317 51.9678 25.6307C52.4128 26.7976 52.8532 27.9662 53.2891 29.1364C53.4039 29.4446 53.5225 29.753 53.6413 30.0622ZM52.3423 45.3382C53.1218 44.8709 53.7063 44.138 53.9886 43.2742C54.2631 42.4366 54.3917 41.558 54.3688 40.6768C54.3495 39.6976 54.2492 38.7217 54.069 37.7591C53.8592 36.5573 53.3777 34.5448 53.0525 33.3718C52.9002 32.8245 52.6862 32.2071 52.5051 31.7091C52.3879 31.3996 52.2231 30.9415 52.0275 30.3976C51.1952 28.0831 49.8043 24.2151 49.1355 23.6361C48.7534 23.3285 48.3318 23.0734 47.8821 22.8775C46.9518 22.4326 45.9968 22.0412 45.0219 21.7051C44.9352 21.6752 44.8496 21.6444 44.7649 21.614C44.0602 21.3608 43.4218 21.1313 42.7553 21.6259C42.6564 21.6959 41.5823 22.5602 41.5823 22.5602L41.183 22.4902C38.9757 22.1144 36.7396 21.934 34.5006 21.951V21.9513C32.2612 21.9342 30.0247 22.1146 27.817 22.4904L27.4177 22.5604C27.4177 22.5604 26.3436 21.6961 26.2447 21.6261C25.5783 21.1316 24.9401 21.3609 24.2354 21.6142C24.1507 21.6446 24.0649 21.6754 23.9781 21.7053C23.0032 22.0414 22.0482 22.4329 21.1179 22.8778C20.6682 23.0736 20.2467 23.3287 19.8645 23.6363C19.1957 24.2154 17.8048 28.0833 16.9725 30.3978C16.7769 30.9417 16.6122 31.3999 16.4949 31.7094C16.3138 32.2073 16.0998 32.8247 15.9475 33.3721C15.6223 34.545 15.1408 36.5575 14.931 37.7593C14.7509 38.7219 14.6506 39.6979 14.6312 40.677C14.6085 41.5582 14.7371 42.4367 15.0114 43.2744C15.2937 44.1382 15.8782 44.8712 16.6577 45.3384C17.0922 45.5722 17.5799 45.6896 18.0733 45.6791C18.5667 45.6687 19.049 45.5307 19.4733 45.2787C19.9819 44.9811 25.3278 40.0759 26.5201 38.982C26.6122 38.8974 26.6796 38.8357 26.7179 38.8005L26.9527 38.5824H34.3635V38.5822H42.0473L42.282 38.8003C42.3202 38.8352 42.387 38.8965 42.4783 38.9802C43.6673 40.0712 49.018 44.9807 49.5267 45.2785C49.951 45.5305 50.4333 45.6684 50.9267 45.6789C51.4201 45.6894 51.9077 45.572 52.3423 45.3382ZM45.8978 27.0363C45.9817 26.8332 46.0246 26.6157 46.0243 26.396C46.0238 25.9567 45.8503 25.5353 45.5414 25.2229C45.2325 24.9105 44.813 24.7323 44.3737 24.7269C43.9344 24.7215 43.5107 24.8893 43.1942 25.194C42.8777 25.4987 42.6939 25.9157 42.6826 26.3549V26.396C42.6822 26.6157 42.7252 26.8332 42.809 27.0363C42.8928 27.2393 43.0158 27.4238 43.171 27.5792C43.3262 27.7346 43.5105 27.858 43.7134 27.9421C43.9163 28.0262 44.1338 28.0695 44.3534 28.0695C44.5731 28.0695 44.7905 28.0262 44.9934 27.9421C45.1963 27.858 45.3806 27.7346 45.5358 27.5792C45.691 27.4238 45.814 27.2393 45.8978 27.0363ZM28.0487 31.0982C28.3957 30.5742 28.5795 29.959 28.5766 29.3305C28.5741 28.4901 28.238 27.6851 27.6422 27.0924C27.0464 26.4997 26.2397 26.1678 25.3993 26.1697C24.7707 26.1701 24.1565 26.357 23.6343 26.7068C23.1121 27.0566 22.7054 27.5535 22.4659 28.1346C22.2263 28.7157 22.1645 29.3548 22.2885 29.971C22.4124 30.5872 22.7164 31.1528 23.162 31.596C23.6076 32.0393 24.1747 32.3404 24.7916 32.4611C25.4084 32.5818 26.0472 32.5167 26.627 32.2741C27.2068 32.0315 27.7016 31.6223 28.0487 31.0982ZM45.706 33.2341C45.8894 32.9594 45.9873 32.6365 45.9873 32.3062C45.9865 31.8626 45.8097 31.4374 45.4956 31.1241C45.1816 30.8108 44.7559 30.6349 44.3123 30.6353C43.982 30.636 43.6593 30.7347 43.3851 30.9188C43.1108 31.1029 42.8973 31.3642 42.7714 31.6696C42.6456 31.9749 42.6131 32.3108 42.678 32.6347C42.7429 32.9585 42.9024 33.2559 43.1362 33.4892C43.3701 33.7225 43.6678 33.8812 43.9918 33.9454C44.3159 34.0095 44.6516 33.9762 44.9567 33.8496C45.2618 33.723 45.5226 33.5088 45.706 33.2341ZM48.8517 29.3306C48.8521 29.6615 48.7544 29.9851 48.5709 30.2604C48.3874 30.5357 48.1264 30.7505 47.8209 30.8775C47.5153 31.0045 47.179 31.038 46.8544 30.9739C46.5298 30.9097 46.2315 30.7507 45.9972 30.517C45.763 30.2833 45.6033 29.9854 45.5383 29.661C45.4734 29.3365 45.5061 29.0001 45.6324 28.6943C45.7586 28.3884 45.9727 28.1269 46.2476 27.9427C46.5225 27.7586 46.8459 27.6601 47.1768 27.6597C47.3964 27.6594 47.614 27.7024 47.8171 27.7862C48.0202 27.8701 48.2048 27.9931 48.3603 28.1482C48.5158 28.3034 48.6393 28.4877 48.7236 28.6905C48.8079 28.8934 48.8515 29.1109 48.8517 29.3306ZM41.4519 31.0016C42.3747 31.0016 43.1228 30.2535 43.1228 29.3306C43.1228 28.4078 42.3747 27.6597 41.4519 27.6597C40.5291 27.6597 39.7809 28.4078 39.7809 29.3306C39.7809 30.2535 40.5291 31.0016 41.4519 31.0016Z" fill="black"/>
</svg>
