<svg width="68" height="68" viewBox="0 0 68 68" fill="none" xmlns="http://www.w3.org/2000/svg">
<mask id="path-1-outside-1" maskUnits="userSpaceOnUse" x="8.03284" y="22.3015" width="52" height="27" fill="black">
<rect fill="white" x="8.03284" y="22.3015" width="52" height="27"/>
<path d="M52.2736 35.28C51.9799 35.281 51.6865 35.3003 51.3952 35.3376L50.6248 32.1984L52.864 32.0112C54.7216 32.0112 56.2264 30.7224 56.2264 29.1312C56.2228 28.7679 56.1418 28.4095 55.9888 28.08C54.952 25.8624 52.5256 24.2424 49.6528 23.8464L45.52 23.328C45.1335 23.2657 44.7372 23.3138 44.3768 23.4666C44.0164 23.6195 43.7064 23.8709 43.4824 24.192C43.3201 24.4403 43.2336 24.7305 43.2336 25.0272C43.2336 25.3238 43.3201 25.6141 43.4824 25.8624L44.26 27.0864C43.9002 26.9936 43.53 26.9476 43.1584 26.9496H35.188C34.1111 26.9445 33.0711 27.3419 32.2719 28.0638C31.4728 28.7857 30.9721 29.7801 30.868 30.852H24.0064L23.3512 29.9304C22.9829 29.4117 22.5127 28.9736 21.9692 28.6431C21.4256 28.3125 20.8204 28.0964 20.1904 28.008L14.2288 27.1584C13.9609 27.1208 13.6879 27.1505 13.4344 27.2449C13.1809 27.3393 12.955 27.4955 12.777 27.6992C12.599 27.9029 12.4747 28.1477 12.4151 28.4116C12.3556 28.6755 12.3628 28.95 12.436 29.2104L12.6448 29.9304C13.0057 31.1595 13.7533 32.2394 14.7767 33.0099C15.8001 33.7803 17.0446 34.2002 18.3256 34.2072H20.9896L24.2944 41.2704H15.7264C15.5354 41.2704 15.3523 41.3462 15.2173 41.4813C15.0823 41.6163 15.0064 41.7994 15.0064 41.9904C15.0064 42.1813 15.0823 42.3645 15.2173 42.4995C15.3523 42.6345 15.5354 42.7104 15.7264 42.7104H20.932C20.7619 43.9159 20.1775 45.0246 19.279 45.8462C18.3805 46.6678 17.2241 47.151 16.0082 47.2129C14.7923 47.2748 13.5928 46.9114 12.6155 46.1853C11.6383 45.4591 10.9443 44.4155 10.6528 43.2334C10.3612 42.0514 10.4902 40.8047 11.0176 39.7074C11.545 38.6101 12.4379 37.7306 13.5431 37.2199C14.6483 36.7092 15.8968 36.5992 17.0743 36.9086C18.2517 37.2181 19.2848 37.9279 19.996 38.916C20.0469 39.0019 20.115 39.0762 20.1962 39.1344C20.2773 39.1925 20.3696 39.2331 20.4673 39.2537C20.565 39.2742 20.6658 39.2742 20.7635 39.2537C20.8612 39.2332 20.9535 39.1926 21.0347 39.1345C21.1158 39.0764 21.184 39.002 21.2349 38.9162C21.2858 38.8303 21.3183 38.7348 21.3303 38.6357C21.3423 38.5366 21.3336 38.4362 21.3047 38.3406C21.2758 38.2451 21.2273 38.1566 21.1624 38.0808C20.248 36.8111 18.9178 35.9017 17.4028 35.5106C15.8878 35.1194 14.2836 35.2712 12.8688 35.9395C11.454 36.6078 10.318 37.7505 9.65788 39.1691C8.99778 40.5877 8.85533 42.1928 9.25527 43.7055C9.65521 45.2182 10.5723 46.5431 11.8473 47.4501C13.1222 48.3571 14.6746 48.789 16.2348 48.6708C17.795 48.5526 19.2646 47.8917 20.3883 46.8029C21.512 45.7141 22.219 44.2661 22.3864 42.7104H24.964L25.36 43.488C25.6114 44.0423 26.0162 44.5131 26.5265 44.8448C27.0368 45.1765 27.6314 45.3553 28.24 45.36H40.1272C40.6476 45.3578 41.1611 45.2412 41.6314 45.0185C42.1018 44.7958 42.5174 44.4724 42.8488 44.0712L42.9352 43.9488L49.1632 32.292L51.5752 42.1344C51.5924 42.2312 51.6292 42.3235 51.6833 42.4055C51.7375 42.4876 51.808 42.5577 51.8903 42.6115C51.9726 42.6652 52.065 42.7016 52.1619 42.7183C52.2588 42.735 52.3581 42.7317 52.4537 42.7085C52.5492 42.6854 52.639 42.6429 52.7176 42.5837C52.7961 42.5245 52.8616 42.4499 52.9102 42.3644C52.9588 42.2789 52.9893 42.1843 52.9999 42.0866C53.0106 41.9888 53.0011 41.8899 52.972 41.796L51.7336 36.756C51.9136 36.756 52.0936 36.756 52.2736 36.756C53.46 36.7594 54.6102 37.1653 55.5361 37.9072C56.4619 38.6491 57.1087 39.6831 57.3707 40.8403C57.6326 41.9974 57.4943 43.2092 56.9782 44.2775C56.4621 45.3459 55.5989 46.2075 54.5296 46.7216C53.4603 47.2357 52.2482 47.3718 51.0916 47.1076C49.9349 46.8435 48.9021 46.1948 48.1619 45.2676C47.4217 44.3403 47.018 43.1894 47.0168 42.0029C47.0156 40.8165 47.4169 39.6648 48.1552 38.736C48.2236 38.6635 48.2763 38.5776 48.3098 38.4837C48.3433 38.3898 48.3569 38.2899 48.3498 38.1905C48.3427 38.091 48.315 37.9941 48.2685 37.9059C48.222 37.8177 48.1577 37.7402 48.0796 37.6781C48.0016 37.6161 47.9115 37.5709 47.8151 37.5455C47.7187 37.5201 47.618 37.515 47.5196 37.5305C47.4211 37.5461 47.3269 37.5819 47.243 37.6357C47.159 37.6895 47.0872 37.7602 47.032 37.8432C46.0965 39.0358 45.5933 40.5106 45.6047 42.0263C45.6161 43.542 46.1414 45.0091 47.0948 46.1875C48.0481 47.3659 49.3731 48.186 50.8531 48.5136C52.333 48.8413 53.8803 48.6571 55.242 47.9912C56.6037 47.3254 57.6992 46.2172 58.3493 44.8479C58.9994 43.4786 59.1657 41.9293 58.821 40.4532C58.4763 38.9771 57.641 37.6617 56.4517 36.722C55.2623 35.7823 53.7894 35.2739 52.2736 35.28ZM48.6736 30.8376C48.5515 30.8447 48.4332 30.8828 48.3299 30.9483C48.2266 31.0138 48.1417 31.1046 48.0832 31.212L41.6968 43.2C41.5011 43.4243 41.2599 43.6045 40.9893 43.7286C40.7187 43.8527 40.4249 43.9179 40.1272 43.92H28.24C27.8987 43.9134 27.5665 43.8088 27.2831 43.6186C26.9997 43.4283 26.777 43.1606 26.6416 42.8472L22.1056 33.156C22.0467 33.0324 21.9538 32.9281 21.8378 32.8554C21.7217 32.7827 21.5873 32.7446 21.4504 32.7456H18.3256C17.3531 32.7449 16.407 32.4297 15.6284 31.847C14.8498 31.2644 14.2806 30.4456 14.0056 29.5128L13.84 28.8C13.8308 28.77 13.83 28.738 13.8376 28.7076C13.8452 28.6772 13.861 28.6494 13.8832 28.6272C13.8999 28.6071 13.9208 28.5909 13.9445 28.5797C13.9681 28.5685 13.9939 28.5626 14.02 28.5624L19.9816 29.412C20.4122 29.4764 20.8254 29.6269 21.1965 29.8545C21.5676 30.0821 21.889 30.3822 22.1416 30.7368L23.0128 31.968C23.0791 32.061 23.1665 32.137 23.2679 32.1896C23.3693 32.2422 23.4818 32.2699 23.596 32.2704H31.6096C31.7133 32.2714 31.8159 32.25 31.9106 32.2077C32.0052 32.1654 32.0896 32.1032 32.158 32.0252C32.2263 31.9473 32.2771 31.8555 32.3067 31.7562C32.3363 31.6568 32.3441 31.5522 32.3296 31.4496C32.326 31.3824 32.326 31.3151 32.3296 31.248C32.3293 30.8697 32.4035 30.495 32.5481 30.1454C32.6926 29.7958 32.9046 29.4781 33.172 29.2104C33.4397 28.943 33.7574 28.731 34.107 28.5865C34.4566 28.4419 34.8313 28.3677 35.2096 28.368H43.1512C43.7588 28.3673 44.351 28.5589 44.8432 28.9152C45.0346 29.0547 45.2087 29.2167 45.3616 29.3976C45.4285 29.4779 45.5121 29.5427 45.6066 29.5875C45.7011 29.6323 45.8042 29.6559 45.9088 29.6568H46.2832C46.413 29.6579 46.5406 29.6239 46.6526 29.5584C46.7646 29.4929 46.8569 29.3983 46.9196 29.2847C46.9823 29.1711 47.0131 29.0427 47.0088 28.913C47.0045 28.7833 46.9653 28.6572 46.8952 28.548L44.692 25.0704C44.6839 25.0624 44.6776 25.0528 44.6732 25.0423C44.6688 25.0318 44.6666 25.0206 44.6666 25.0092C44.6666 24.9978 44.6688 24.9866 44.6732 24.9761C44.6776 24.9656 44.6839 24.956 44.692 24.948C44.7681 24.8602 44.8664 24.7946 44.9766 24.7578C45.0868 24.7211 45.2049 24.7147 45.3184 24.7392L49.4584 25.3008C51.8488 25.6248 53.8504 26.9352 54.6784 28.7064C54.7456 28.8459 54.7824 28.998 54.7864 29.1528C54.7864 29.8368 54.0016 30.5928 52.8352 30.5928C52.8272 30.5894 52.8187 30.5877 52.81 30.5877C52.8013 30.5877 52.7928 30.5894 52.7848 30.5928L48.6736 30.8376Z"/>
</mask>
<path d="M52.2736 35.28C51.9799 35.281 51.6865 35.3003 51.3952 35.3376L50.6248 32.1984L52.864 32.0112C54.7216 32.0112 56.2264 30.7224 56.2264 29.1312C56.2228 28.7679 56.1418 28.4095 55.9888 28.08C54.952 25.8624 52.5256 24.2424 49.6528 23.8464L45.52 23.328C45.1335 23.2657 44.7372 23.3138 44.3768 23.4666C44.0164 23.6195 43.7064 23.8709 43.4824 24.192C43.3201 24.4403 43.2336 24.7305 43.2336 25.0272C43.2336 25.3238 43.3201 25.6141 43.4824 25.8624L44.26 27.0864C43.9002 26.9936 43.53 26.9476 43.1584 26.9496H35.188C34.1111 26.9445 33.0711 27.3419 32.2719 28.0638C31.4728 28.7857 30.9721 29.7801 30.868 30.852H24.0064L23.3512 29.9304C22.9829 29.4117 22.5127 28.9736 21.9692 28.6431C21.4256 28.3125 20.8204 28.0964 20.1904 28.008L14.2288 27.1584C13.9609 27.1208 13.6879 27.1505 13.4344 27.2449C13.1809 27.3393 12.955 27.4955 12.777 27.6992C12.599 27.9029 12.4747 28.1477 12.4151 28.4116C12.3556 28.6755 12.3628 28.95 12.436 29.2104L12.6448 29.9304C13.0057 31.1595 13.7533 32.2394 14.7767 33.0099C15.8001 33.7803 17.0446 34.2002 18.3256 34.2072H20.9896L24.2944 41.2704H15.7264C15.5354 41.2704 15.3523 41.3462 15.2173 41.4813C15.0823 41.6163 15.0064 41.7994 15.0064 41.9904C15.0064 42.1813 15.0823 42.3645 15.2173 42.4995C15.3523 42.6345 15.5354 42.7104 15.7264 42.7104H20.932C20.7619 43.9159 20.1775 45.0246 19.279 45.8462C18.3805 46.6678 17.2241 47.151 16.0082 47.2129C14.7923 47.2748 13.5928 46.9114 12.6155 46.1853C11.6383 45.4591 10.9443 44.4155 10.6528 43.2334C10.3612 42.0514 10.4902 40.8047 11.0176 39.7074C11.545 38.6101 12.4379 37.7306 13.5431 37.2199C14.6483 36.7092 15.8968 36.5992 17.0743 36.9086C18.2517 37.2181 19.2848 37.9279 19.996 38.916C20.0469 39.0019 20.115 39.0762 20.1962 39.1344C20.2773 39.1925 20.3696 39.2331 20.4673 39.2537C20.565 39.2742 20.6658 39.2742 20.7635 39.2537C20.8612 39.2332 20.9535 39.1926 21.0347 39.1345C21.1158 39.0764 21.184 39.002 21.2349 38.9162C21.2858 38.8303 21.3183 38.7348 21.3303 38.6357C21.3423 38.5366 21.3336 38.4362 21.3047 38.3406C21.2758 38.2451 21.2273 38.1566 21.1624 38.0808C20.248 36.8111 18.9178 35.9017 17.4028 35.5106C15.8878 35.1194 14.2836 35.2712 12.8688 35.9395C11.454 36.6078 10.318 37.7505 9.65788 39.1691C8.99778 40.5877 8.85533 42.1928 9.25527 43.7055C9.65521 45.2182 10.5723 46.5431 11.8473 47.4501C13.1222 48.3571 14.6746 48.789 16.2348 48.6708C17.795 48.5526 19.2646 47.8917 20.3883 46.8029C21.512 45.7141 22.219 44.2661 22.3864 42.7104H24.964L25.36 43.488C25.6114 44.0423 26.0162 44.5131 26.5265 44.8448C27.0368 45.1765 27.6314 45.3553 28.24 45.36H40.1272C40.6476 45.3578 41.1611 45.2412 41.6314 45.0185C42.1018 44.7958 42.5174 44.4724 42.8488 44.0712L42.9352 43.9488L49.1632 32.292L51.5752 42.1344C51.5924 42.2312 51.6292 42.3235 51.6833 42.4055C51.7375 42.4876 51.808 42.5577 51.8903 42.6115C51.9726 42.6652 52.065 42.7016 52.1619 42.7183C52.2588 42.735 52.3581 42.7317 52.4537 42.7085C52.5492 42.6854 52.639 42.6429 52.7176 42.5837C52.7961 42.5245 52.8616 42.4499 52.9102 42.3644C52.9588 42.2789 52.9893 42.1843 52.9999 42.0866C53.0106 41.9888 53.0011 41.8899 52.972 41.796L51.7336 36.756C51.9136 36.756 52.0936 36.756 52.2736 36.756C53.46 36.7594 54.6102 37.1653 55.5361 37.9072C56.4619 38.6491 57.1087 39.6831 57.3707 40.8403C57.6326 41.9974 57.4943 43.2092 56.9782 44.2775C56.4621 45.3459 55.5989 46.2075 54.5296 46.7216C53.4603 47.2357 52.2482 47.3718 51.0916 47.1076C49.9349 46.8435 48.9021 46.1948 48.1619 45.2676C47.4217 44.3403 47.018 43.1894 47.0168 42.0029C47.0156 40.8165 47.4169 39.6648 48.1552 38.736C48.2236 38.6635 48.2763 38.5776 48.3098 38.4837C48.3433 38.3898 48.3569 38.2899 48.3498 38.1905C48.3427 38.091 48.315 37.9941 48.2685 37.9059C48.222 37.8177 48.1577 37.7402 48.0796 37.6781C48.0016 37.6161 47.9115 37.5709 47.8151 37.5455C47.7187 37.5201 47.618 37.515 47.5196 37.5305C47.4211 37.5461 47.3269 37.5819 47.243 37.6357C47.159 37.6895 47.0872 37.7602 47.032 37.8432C46.0965 39.0358 45.5933 40.5106 45.6047 42.0263C45.6161 43.542 46.1414 45.0091 47.0948 46.1875C48.0481 47.3659 49.3731 48.186 50.8531 48.5136C52.333 48.8413 53.8803 48.6571 55.242 47.9912C56.6037 47.3254 57.6992 46.2172 58.3493 44.8479C58.9994 43.4786 59.1657 41.9293 58.821 40.4532C58.4763 38.9771 57.641 37.6617 56.4517 36.722C55.2623 35.7823 53.7894 35.2739 52.2736 35.28ZM48.6736 30.8376C48.5515 30.8447 48.4332 30.8828 48.3299 30.9483C48.2266 31.0138 48.1417 31.1046 48.0832 31.212L41.6968 43.2C41.5011 43.4243 41.2599 43.6045 40.9893 43.7286C40.7187 43.8527 40.4249 43.9179 40.1272 43.92H28.24C27.8987 43.9134 27.5665 43.8088 27.2831 43.6186C26.9997 43.4283 26.777 43.1606 26.6416 42.8472L22.1056 33.156C22.0467 33.0324 21.9538 32.9281 21.8378 32.8554C21.7217 32.7827 21.5873 32.7446 21.4504 32.7456H18.3256C17.3531 32.7449 16.407 32.4297 15.6284 31.847C14.8498 31.2644 14.2806 30.4456 14.0056 29.5128L13.84 28.8C13.8308 28.77 13.83 28.738 13.8376 28.7076C13.8452 28.6772 13.861 28.6494 13.8832 28.6272C13.8999 28.6071 13.9208 28.5909 13.9445 28.5797C13.9681 28.5685 13.9939 28.5626 14.02 28.5624L19.9816 29.412C20.4122 29.4764 20.8254 29.6269 21.1965 29.8545C21.5676 30.0821 21.889 30.3822 22.1416 30.7368L23.0128 31.968C23.0791 32.061 23.1665 32.137 23.2679 32.1896C23.3693 32.2422 23.4818 32.2699 23.596 32.2704H31.6096C31.7133 32.2714 31.8159 32.25 31.9106 32.2077C32.0052 32.1654 32.0896 32.1032 32.158 32.0252C32.2263 31.9473 32.2771 31.8555 32.3067 31.7562C32.3363 31.6568 32.3441 31.5522 32.3296 31.4496C32.326 31.3824 32.326 31.3151 32.3296 31.248C32.3293 30.8697 32.4035 30.495 32.5481 30.1454C32.6926 29.7958 32.9046 29.4781 33.172 29.2104C33.4397 28.943 33.7574 28.731 34.107 28.5865C34.4566 28.4419 34.8313 28.3677 35.2096 28.368H43.1512C43.7588 28.3673 44.351 28.5589 44.8432 28.9152C45.0346 29.0547 45.2087 29.2167 45.3616 29.3976C45.4285 29.4779 45.5121 29.5427 45.6066 29.5875C45.7011 29.6323 45.8042 29.6559 45.9088 29.6568H46.2832C46.413 29.6579 46.5406 29.6239 46.6526 29.5584C46.7646 29.4929 46.8569 29.3983 46.9196 29.2847C46.9823 29.1711 47.0131 29.0427 47.0088 28.913C47.0045 28.7833 46.9653 28.6572 46.8952 28.548L44.692 25.0704C44.6839 25.0624 44.6776 25.0528 44.6732 25.0423C44.6688 25.0318 44.6666 25.0206 44.6666 25.0092C44.6666 24.9978 44.6688 24.9866 44.6732 24.9761C44.6776 24.9656 44.6839 24.956 44.692 24.948C44.7681 24.8602 44.8664 24.7946 44.9766 24.7578C45.0868 24.7211 45.2049 24.7147 45.3184 24.7392L49.4584 25.3008C51.8488 25.6248 53.8504 26.9352 54.6784 28.7064C54.7456 28.8459 54.7824 28.998 54.7864 29.1528C54.7864 29.8368 54.0016 30.5928 52.8352 30.5928C52.8272 30.5894 52.8187 30.5877 52.81 30.5877C52.8013 30.5877 52.7928 30.5894 52.7848 30.5928L48.6736 30.8376Z" fill="black"/>
<path d="M52.2736 35.28C51.9799 35.281 51.6865 35.3003 51.3952 35.3376L50.6248 32.1984L52.864 32.0112C54.7216 32.0112 56.2264 30.7224 56.2264 29.1312C56.2228 28.7679 56.1418 28.4095 55.9888 28.08C54.952 25.8624 52.5256 24.2424 49.6528 23.8464L45.52 23.328C45.1335 23.2657 44.7372 23.3138 44.3768 23.4666C44.0164 23.6195 43.7064 23.8709 43.4824 24.192C43.3201 24.4403 43.2336 24.7305 43.2336 25.0272C43.2336 25.3238 43.3201 25.6141 43.4824 25.8624L44.26 27.0864C43.9002 26.9936 43.53 26.9476 43.1584 26.9496H35.188C34.1111 26.9445 33.0711 27.3419 32.2719 28.0638C31.4728 28.7857 30.9721 29.7801 30.868 30.852H24.0064L23.3512 29.9304C22.9829 29.4117 22.5127 28.9736 21.9692 28.6431C21.4256 28.3125 20.8204 28.0964 20.1904 28.008L14.2288 27.1584C13.9609 27.1208 13.6879 27.1505 13.4344 27.2449C13.1809 27.3393 12.955 27.4955 12.777 27.6992C12.599 27.9029 12.4747 28.1477 12.4151 28.4116C12.3556 28.6755 12.3628 28.95 12.436 29.2104L12.6448 29.9304C13.0057 31.1595 13.7533 32.2394 14.7767 33.0099C15.8001 33.7803 17.0446 34.2002 18.3256 34.2072H20.9896L24.2944 41.2704H15.7264C15.5354 41.2704 15.3523 41.3462 15.2173 41.4813C15.0823 41.6163 15.0064 41.7994 15.0064 41.9904C15.0064 42.1813 15.0823 42.3645 15.2173 42.4995C15.3523 42.6345 15.5354 42.7104 15.7264 42.7104H20.932C20.7619 43.9159 20.1775 45.0246 19.279 45.8462C18.3805 46.6678 17.2241 47.151 16.0082 47.2129C14.7923 47.2748 13.5928 46.9114 12.6155 46.1853C11.6383 45.4591 10.9443 44.4155 10.6528 43.2334C10.3612 42.0514 10.4902 40.8047 11.0176 39.7074C11.545 38.6101 12.4379 37.7306 13.5431 37.2199C14.6483 36.7092 15.8968 36.5992 17.0743 36.9086C18.2517 37.2181 19.2848 37.9279 19.996 38.916C20.0469 39.0019 20.115 39.0762 20.1962 39.1344C20.2773 39.1925 20.3696 39.2331 20.4673 39.2537C20.565 39.2742 20.6658 39.2742 20.7635 39.2537C20.8612 39.2332 20.9535 39.1926 21.0347 39.1345C21.1158 39.0764 21.184 39.002 21.2349 38.9162C21.2858 38.8303 21.3183 38.7348 21.3303 38.6357C21.3423 38.5366 21.3336 38.4362 21.3047 38.3406C21.2758 38.2451 21.2273 38.1566 21.1624 38.0808C20.248 36.8111 18.9178 35.9017 17.4028 35.5106C15.8878 35.1194 14.2836 35.2712 12.8688 35.9395C11.454 36.6078 10.318 37.7505 9.65788 39.1691C8.99778 40.5877 8.85533 42.1928 9.25527 43.7055C9.65521 45.2182 10.5723 46.5431 11.8473 47.4501C13.1222 48.3571 14.6746 48.789 16.2348 48.6708C17.795 48.5526 19.2646 47.8917 20.3883 46.8029C21.512 45.7141 22.219 44.2661 22.3864 42.7104H24.964L25.36 43.488C25.6114 44.0423 26.0162 44.5131 26.5265 44.8448C27.0368 45.1765 27.6314 45.3553 28.24 45.36H40.1272C40.6476 45.3578 41.1611 45.2412 41.6314 45.0185C42.1018 44.7958 42.5174 44.4724 42.8488 44.0712L42.9352 43.9488L49.1632 32.292L51.5752 42.1344C51.5924 42.2312 51.6292 42.3235 51.6833 42.4055C51.7375 42.4876 51.808 42.5577 51.8903 42.6115C51.9726 42.6652 52.065 42.7016 52.1619 42.7183C52.2588 42.735 52.3581 42.7317 52.4537 42.7085C52.5492 42.6854 52.639 42.6429 52.7176 42.5837C52.7961 42.5245 52.8616 42.4499 52.9102 42.3644C52.9588 42.2789 52.9893 42.1843 52.9999 42.0866C53.0106 41.9888 53.0011 41.8899 52.972 41.796L51.7336 36.756C51.9136 36.756 52.0936 36.756 52.2736 36.756C53.46 36.7594 54.6102 37.1653 55.5361 37.9072C56.4619 38.6491 57.1087 39.6831 57.3707 40.8403C57.6326 41.9974 57.4943 43.2092 56.9782 44.2775C56.4621 45.3459 55.5989 46.2075 54.5296 46.7216C53.4603 47.2357 52.2482 47.3718 51.0916 47.1076C49.9349 46.8435 48.9021 46.1948 48.1619 45.2676C47.4217 44.3403 47.018 43.1894 47.0168 42.0029C47.0156 40.8165 47.4169 39.6648 48.1552 38.736C48.2236 38.6635 48.2763 38.5776 48.3098 38.4837C48.3433 38.3898 48.3569 38.2899 48.3498 38.1905C48.3427 38.091 48.315 37.9941 48.2685 37.9059C48.222 37.8177 48.1577 37.7402 48.0796 37.6781C48.0016 37.6161 47.9115 37.5709 47.8151 37.5455C47.7187 37.5201 47.618 37.515 47.5196 37.5305C47.4211 37.5461 47.3269 37.5819 47.243 37.6357C47.159 37.6895 47.0872 37.7602 47.032 37.8432C46.0965 39.0358 45.5933 40.5106 45.6047 42.0263C45.6161 43.542 46.1414 45.0091 47.0948 46.1875C48.0481 47.3659 49.3731 48.186 50.8531 48.5136C52.333 48.8413 53.8803 48.6571 55.242 47.9912C56.6037 47.3254 57.6992 46.2172 58.3493 44.8479C58.9994 43.4786 59.1657 41.9293 58.821 40.4532C58.4763 38.9771 57.641 37.6617 56.4517 36.722C55.2623 35.7823 53.7894 35.2739 52.2736 35.28ZM48.6736 30.8376C48.5515 30.8447 48.4332 30.8828 48.3299 30.9483C48.2266 31.0138 48.1417 31.1046 48.0832 31.212L41.6968 43.2C41.5011 43.4243 41.2599 43.6045 40.9893 43.7286C40.7187 43.8527 40.4249 43.9179 40.1272 43.92H28.24C27.8987 43.9134 27.5665 43.8088 27.2831 43.6186C26.9997 43.4283 26.777 43.1606 26.6416 42.8472L22.1056 33.156C22.0467 33.0324 21.9538 32.9281 21.8378 32.8554C21.7217 32.7827 21.5873 32.7446 21.4504 32.7456H18.3256C17.3531 32.7449 16.407 32.4297 15.6284 31.847C14.8498 31.2644 14.2806 30.4456 14.0056 29.5128L13.84 28.8C13.8308 28.77 13.83 28.738 13.8376 28.7076C13.8452 28.6772 13.861 28.6494 13.8832 28.6272C13.8999 28.6071 13.9208 28.5909 13.9445 28.5797C13.9681 28.5685 13.9939 28.5626 14.02 28.5624L19.9816 29.412C20.4122 29.4764 20.8254 29.6269 21.1965 29.8545C21.5676 30.0821 21.889 30.3822 22.1416 30.7368L23.0128 31.968C23.0791 32.061 23.1665 32.137 23.2679 32.1896C23.3693 32.2422 23.4818 32.2699 23.596 32.2704H31.6096C31.7133 32.2714 31.8159 32.25 31.9106 32.2077C32.0052 32.1654 32.0896 32.1032 32.158 32.0252C32.2263 31.9473 32.2771 31.8555 32.3067 31.7562C32.3363 31.6568 32.3441 31.5522 32.3296 31.4496C32.326 31.3824 32.326 31.3151 32.3296 31.248C32.3293 30.8697 32.4035 30.495 32.5481 30.1454C32.6926 29.7958 32.9046 29.4781 33.172 29.2104C33.4397 28.943 33.7574 28.731 34.107 28.5865C34.4566 28.4419 34.8313 28.3677 35.2096 28.368H43.1512C43.7588 28.3673 44.351 28.5589 44.8432 28.9152C45.0346 29.0547 45.2087 29.2167 45.3616 29.3976C45.4285 29.4779 45.5121 29.5427 45.6066 29.5875C45.7011 29.6323 45.8042 29.6559 45.9088 29.6568H46.2832C46.413 29.6579 46.5406 29.6239 46.6526 29.5584C46.7646 29.4929 46.8569 29.3983 46.9196 29.2847C46.9823 29.1711 47.0131 29.0427 47.0088 28.913C47.0045 28.7833 46.9653 28.6572 46.8952 28.548L44.692 25.0704C44.6839 25.0624 44.6776 25.0528 44.6732 25.0423C44.6688 25.0318 44.6666 25.0206 44.6666 25.0092C44.6666 24.9978 44.6688 24.9866 44.6732 24.9761C44.6776 24.9656 44.6839 24.956 44.692 24.948C44.7681 24.8602 44.8664 24.7946 44.9766 24.7578C45.0868 24.7211 45.2049 24.7147 45.3184 24.7392L49.4584 25.3008C51.8488 25.6248 53.8504 26.9352 54.6784 28.7064C54.7456 28.8459 54.7824 28.998 54.7864 29.1528C54.7864 29.8368 54.0016 30.5928 52.8352 30.5928C52.8272 30.5894 52.8187 30.5877 52.81 30.5877C52.8013 30.5877 52.7928 30.5894 52.7848 30.5928L48.6736 30.8376Z" stroke="black" stroke-width="0.6" mask="url(#path-1-outside-1)"/>
</svg>
