<svg width="68" height="68" viewBox="0 0 68 68" fill="none" xmlns="http://www.w3.org/2000/svg">
<path fill-rule="evenodd" clip-rule="evenodd" d="M14.9981 13.8944C13.8765 13.118 12.0769 12.1714 10.4617 12.1266C9.61833 12.1033 8.7275 12.3264 8.06428 13.054C7.41896 13.762 7.125 14.8013 7.125 16.1138V16.5343L7.45339 16.7971C7.94973 17.1941 8.78789 17.6813 9.72727 17.8283C10.5691 17.96 11.5207 17.8134 12.2995 17.0869C12.3758 17.1473 12.466 17.2233 12.5708 17.3176C13.1288 17.8197 13.9046 18.6603 14.8613 19.7926C16.7653 22.0461 19.2919 25.3426 22.0582 29.0955C27.5866 36.5957 34.0297 45.8607 38.2764 52.1058L38.2821 52.1142L38.288 52.1224C38.8552 52.9166 40.1276 53.8254 42.1037 54.4372C44.1077 55.0576 46.8976 55.3945 50.5966 54.9835L50.6267 54.9802L50.6565 54.9747C52.909 54.5652 54.3874 54.0418 55.3279 53.5146C55.7982 53.2509 56.1605 52.9715 56.4163 52.6809C56.6571 52.4072 56.875 52.0395 56.875 51.6138V44.5565L55.8363 44.7543C54.1035 45.0844 51.3787 45.5301 48.8469 45.7936C47.58 45.9254 46.3776 46.0099 45.3793 46.0139C44.34 46.018 43.6512 45.9319 43.325 45.8014C43.328 45.8026 43.3263 45.8016 43.3197 45.7974C43.2942 45.7815 43.195 45.7195 43.001 45.5601C42.7829 45.3809 42.5026 45.1277 42.1622 44.8014C41.483 44.1501 40.6008 43.2422 39.5605 42.1314C37.4819 39.9117 34.8018 36.914 31.908 33.6121C26.122 27.0102 19.5013 19.2154 15.1704 14.0516L15.0948 13.9614L14.9981 13.8944ZM9.99773 16.0993C9.60537 16.0379 9.20819 15.8623 8.89023 15.6691C8.94755 14.8748 9.15724 14.4527 9.3576 14.2329C9.57458 13.9949 9.9025 13.8618 10.4133 13.876C11.4737 13.9053 12.8702 14.5681 13.9068 15.2682C18.2438 20.4381 24.829 28.19 30.592 34.7656C33.4898 38.0721 36.1848 41.0868 38.2832 43.3276C39.3315 44.4469 40.2384 45.3812 40.9511 46.0646C41.3067 46.4056 41.6231 46.6929 41.8901 46.9123C42.1305 47.1098 42.4105 47.3205 42.675 47.4263C43.3488 47.6958 44.3475 47.768 45.3863 47.7638C46.4662 47.7595 47.7325 47.669 49.0281 47.5342C51.1573 47.3126 53.4091 46.9667 55.125 46.6637V51.4981C55.1187 51.506 55.1113 51.5149 55.1025 51.5248C55.0145 51.6249 54.8268 51.7893 54.4721 51.9881C53.7659 52.384 52.5028 52.8581 50.3733 53.2475C46.8878 53.6313 44.354 53.3019 42.6213 52.7655C40.8667 52.2223 39.989 51.4869 39.717 51.1122C35.4636 44.8574 29.0106 35.5781 23.4668 28.0571C20.6956 24.2975 18.1409 20.9627 16.1981 18.6632C15.2313 17.5189 14.3923 16.6024 13.7413 16.0167C13.4253 15.7323 13.1002 15.4764 12.7924 15.3256C12.6419 15.2519 12.4188 15.1644 12.1589 15.1644C11.8524 15.1644 11.5238 15.2904 11.3 15.5888C10.9348 16.0757 10.4967 16.1774 9.99773 16.0993ZM29.4494 48C31.9028 48 33.8989 49.9961 33.8989 52.4494C33.8989 54.9032 31.9028 56.8993 29.4494 56.8993C26.9961 56.8993 25 54.9032 25 52.4494C25 49.9961 26.9961 48 29.4494 48ZM29.4494 49.7667C27.97 49.7667 26.7667 50.97 26.7667 52.4494C26.7667 53.9289 27.97 55.1327 29.4494 55.1327C30.9289 55.1327 32.1322 53.9289 32.1322 52.4494C32.1322 50.97 30.9289 49.7667 29.4494 49.7667Z" fill="black"/>
</svg>
