<svg width="68" height="68" viewBox="0 0 68 68" fill="none" xmlns="http://www.w3.org/2000/svg">
<mask id="path-1-outside-1" maskUnits="userSpaceOnUse" x="14" y="16" width="39" height="37" fill="black">
<rect fill="white" x="14" y="16" width="39" height="37"/>
<path fill-rule="evenodd" clip-rule="evenodd" d="M17.9054 20.1625C19.8436 18.0607 22.436 17 25.0211 17C27.6061 17 30.1841 18.0607 32.1223 20.1625L33.8761 22.06L35.6154 20.1769C39.4918 15.9732 45.956 15.9733 49.8323 20.1769C53.7087 24.3804 53.7087 31.0528 49.8323 35.2563C47.3516 37.9464 44.8727 40.6388 42.3939 43.3313C39.8906 46.0502 37.3874 48.7691 34.8823 51.4856C34.7531 51.6254 34.5964 51.7369 34.4219 51.8132C34.2475 51.8895 34.0592 51.9289 33.8689 51.9289C33.6785 51.9289 33.4902 51.8895 33.3158 51.8132C33.1414 51.7369 32.9847 51.6254 32.8554 51.4856L17.9054 35.2418C14.034 31.0356 14.029 24.3659 17.9054 20.1625ZM30.0954 22.0313C28.6577 20.4721 26.8418 19.6881 25.0211 19.6881C23.2003 19.6881 21.3844 20.4721 19.9467 22.0313C17.0713 25.1492 17.0728 30.2507 19.9467 33.3731L33.8761 48.51C36.2101 45.979 38.5423 43.4456 40.8744 40.9122C43.1842 38.4032 45.4939 35.8942 47.8054 33.3875C50.6809 30.2695 50.6809 25.1638 47.8054 22.0456C44.93 18.9274 40.5322 18.9273 37.6567 22.0456L34.8967 25.0356C34.7675 25.1754 34.6107 25.2869 34.4363 25.3632C34.2619 25.4395 34.0736 25.4789 33.8833 25.4789C33.6929 25.4789 33.5046 25.4395 33.3302 25.3632C33.1558 25.2869 32.999 25.1754 32.8698 25.0356L30.0954 22.0313ZM36.989 33.6203C37.3989 33.681 37.7304 33.9311 37.8901 34.3234C38.0498 34.7156 37.9866 35.1419 37.7553 35.4594L31.9713 43.0632C31.8651 43.215 31.6866 43.2891 31.5063 43.2624C31.4735 43.2575 31.4243 43.2502 31.3775 43.2266C31.1577 43.127 31.0418 42.892 31.0921 42.6649L32.3405 36.9525L30.2912 36.649C29.9142 36.5931 29.5966 36.3618 29.4272 36.0351C29.2578 35.7084 29.2505 35.3053 29.4162 34.978L32.715 28.4301C32.933 27.9766 33.4218 27.7306 33.9136 27.8035L36.4874 28.1848C36.8645 28.2406 37.1821 28.472 37.3515 28.7986C37.5209 29.1253 37.5282 29.5285 37.3624 29.8557L35.5791 33.4114L36.989 33.6203ZM32.5251 40.6825L36.9544 34.8717C36.9969 34.811 36.9878 34.7593 36.9763 34.7241C36.9647 34.6889 36.9228 34.6324 36.8409 34.6203L34.7424 34.3094C34.5949 34.2876 34.4407 34.1977 34.3781 34.0544C34.3156 33.9111 34.3071 33.7423 34.3781 33.6021L36.4717 29.4222C36.5101 29.3673 36.4929 29.3178 36.4807 29.2828C36.4794 29.2791 36.4782 29.2756 36.4771 29.2722C36.4632 29.2534 36.4213 29.197 36.3557 29.1872L33.7654 28.8035C33.6999 28.7938 33.627 28.8333 33.6009 28.8964L30.3021 35.4443C30.2637 35.4992 30.2809 35.5487 30.2931 35.5837C30.2943 35.5874 30.2956 35.5909 30.2967 35.5943C30.3106 35.6131 30.3525 35.6696 30.4181 35.6793L32.992 36.0606C33.1231 36.08 33.247 36.1486 33.3308 36.2616C33.4146 36.3745 33.4443 36.5129 33.4085 36.6416L32.5251 40.6825Z"/>
</mask>
<path fill-rule="evenodd" clip-rule="evenodd" d="M17.9054 20.1625C19.8436 18.0607 22.436 17 25.0211 17C27.6061 17 30.1841 18.0607 32.1223 20.1625L33.8761 22.06L35.6154 20.1769C39.4918 15.9732 45.956 15.9733 49.8323 20.1769C53.7087 24.3804 53.7087 31.0528 49.8323 35.2563C47.3516 37.9464 44.8727 40.6388 42.3939 43.3313C39.8906 46.0502 37.3874 48.7691 34.8823 51.4856C34.7531 51.6254 34.5964 51.7369 34.4219 51.8132C34.2475 51.8895 34.0592 51.9289 33.8689 51.9289C33.6785 51.9289 33.4902 51.8895 33.3158 51.8132C33.1414 51.7369 32.9847 51.6254 32.8554 51.4856L17.9054 35.2418C14.034 31.0356 14.029 24.3659 17.9054 20.1625ZM30.0954 22.0313C28.6577 20.4721 26.8418 19.6881 25.0211 19.6881C23.2003 19.6881 21.3844 20.4721 19.9467 22.0313C17.0713 25.1492 17.0728 30.2507 19.9467 33.3731L33.8761 48.51C36.2101 45.979 38.5423 43.4456 40.8744 40.9122C43.1842 38.4032 45.4939 35.8942 47.8054 33.3875C50.6809 30.2695 50.6809 25.1638 47.8054 22.0456C44.93 18.9274 40.5322 18.9273 37.6567 22.0456L34.8967 25.0356C34.7675 25.1754 34.6107 25.2869 34.4363 25.3632C34.2619 25.4395 34.0736 25.4789 33.8833 25.4789C33.6929 25.4789 33.5046 25.4395 33.3302 25.3632C33.1558 25.2869 32.999 25.1754 32.8698 25.0356L30.0954 22.0313ZM36.989 33.6203C37.3989 33.681 37.7304 33.9311 37.8901 34.3234C38.0498 34.7156 37.9866 35.1419 37.7553 35.4594L31.9713 43.0632C31.8651 43.215 31.6866 43.2891 31.5063 43.2624C31.4735 43.2575 31.4243 43.2502 31.3775 43.2266C31.1577 43.127 31.0418 42.892 31.0921 42.6649L32.3405 36.9525L30.2912 36.649C29.9142 36.5931 29.5966 36.3618 29.4272 36.0351C29.2578 35.7084 29.2505 35.3053 29.4162 34.978L32.715 28.4301C32.933 27.9766 33.4218 27.7306 33.9136 27.8035L36.4874 28.1848C36.8645 28.2406 37.1821 28.472 37.3515 28.7986C37.5209 29.1253 37.5282 29.5285 37.3624 29.8557L35.5791 33.4114L36.989 33.6203ZM32.5251 40.6825L36.9544 34.8717C36.9969 34.811 36.9878 34.7593 36.9763 34.7241C36.9647 34.6889 36.9228 34.6324 36.8409 34.6203L34.7424 34.3094C34.5949 34.2876 34.4407 34.1977 34.3781 34.0544C34.3156 33.9111 34.3071 33.7423 34.3781 33.6021L36.4717 29.4222C36.5101 29.3673 36.4929 29.3178 36.4807 29.2828C36.4794 29.2791 36.4782 29.2756 36.4771 29.2722C36.4632 29.2534 36.4213 29.197 36.3557 29.1872L33.7654 28.8035C33.6999 28.7938 33.627 28.8333 33.6009 28.8964L30.3021 35.4443C30.2637 35.4992 30.2809 35.5487 30.2931 35.5837C30.2943 35.5874 30.2956 35.5909 30.2967 35.5943C30.3106 35.6131 30.3525 35.6696 30.4181 35.6793L32.992 36.0606C33.1231 36.08 33.247 36.1486 33.3308 36.2616C33.4146 36.3745 33.4443 36.5129 33.4085 36.6416L32.5251 40.6825Z" fill="black"/>
<path d="M17.9054 20.1625L18.0525 20.2981L18.0525 20.2981L17.9054 20.1625ZM32.1223 20.1625L31.9753 20.2981L31.9754 20.2982L32.1223 20.1625ZM33.8761 22.06L33.7292 22.1957L33.8761 22.3547L34.023 22.1957L33.8761 22.06ZM35.6154 20.1769L35.7624 20.3126L35.7625 20.3125L35.6154 20.1769ZM49.8323 20.1769L49.6853 20.3125L49.6853 20.3125L49.8323 20.1769ZM49.8323 35.2563L49.6853 35.1207L49.6853 35.1207L49.8323 35.2563ZM42.3939 43.3313L42.2468 43.1958L42.2468 43.1958L42.3939 43.3313ZM34.8823 51.4856L35.0292 51.6214L35.0293 51.6212L34.8823 51.4856ZM34.4219 51.8132L34.3418 51.63L34.3418 51.63L34.4219 51.8132ZM33.3158 51.8132L33.2357 51.9965L33.2357 51.9965L33.3158 51.8132ZM32.8554 51.4856L32.7083 51.6211L32.7086 51.6214L32.8554 51.4856ZM17.9054 35.2418L18.0526 35.1064L18.0526 35.1064L17.9054 35.2418ZM30.0954 22.0313L29.9484 22.1668L29.9485 22.1669L30.0954 22.0313ZM19.9467 22.0313L20.0937 22.1668L20.0937 22.1668L19.9467 22.0313ZM19.9467 33.3731L20.0939 33.2377L20.0938 33.2377L19.9467 33.3731ZM33.8761 48.51L33.7289 48.6454L33.8759 48.8052L34.0231 48.6456L33.8761 48.51ZM40.8744 40.9122L40.7273 40.7768L40.7273 40.7768L40.8744 40.9122ZM47.8054 33.3875L47.6584 33.2519L47.6584 33.2519L47.8054 33.3875ZM47.8054 22.0456L47.6584 22.1812L47.6584 22.1812L47.8054 22.0456ZM37.6567 22.0456L37.8036 22.1813L37.8037 22.1812L37.6567 22.0456ZM34.8967 25.0356L35.0435 25.1714L35.0436 25.1713L34.8967 25.0356ZM34.4363 25.3632L34.3562 25.18L34.3562 25.18L34.4363 25.3632ZM33.3302 25.3632L33.4103 25.18L33.4103 25.18L33.3302 25.3632ZM32.8698 25.0356L32.7229 25.1713L32.723 25.1714L32.8698 25.0356ZM37.8901 34.3234L37.7048 34.3988L37.7048 34.3988L37.8901 34.3234ZM36.989 33.6203L36.9597 33.8181L36.9597 33.8181L36.989 33.6203ZM37.7553 35.4594L37.9145 35.5805L37.917 35.5772L37.7553 35.4594ZM31.9713 43.0632L31.812 42.942L31.8075 42.9485L31.9713 43.0632ZM31.5063 43.2624L31.4769 43.4602L31.4769 43.4602L31.5063 43.2624ZM31.3775 43.2266L31.468 43.048L31.4601 43.0444L31.3775 43.2266ZM31.0921 42.6649L31.2874 42.7082L31.2875 42.7076L31.0921 42.6649ZM32.3405 36.9525L32.5358 36.9952L32.5816 36.7861L32.3698 36.7547L32.3405 36.9525ZM30.2912 36.649L30.3205 36.4511L30.3205 36.4511L30.2912 36.649ZM29.4272 36.0351L29.6047 35.943L29.6047 35.943L29.4272 36.0351ZM29.4162 34.978L29.5947 35.0684L29.5949 35.068L29.4162 34.978ZM32.715 28.4301L32.8937 28.5201L32.8953 28.5168L32.715 28.4301ZM33.9136 27.8035L33.9429 27.6057L33.9429 27.6057L33.9136 27.8035ZM36.4874 28.1848L36.5167 27.9869L36.5167 27.9869L36.4874 28.1848ZM37.3624 29.8557L37.184 29.7654L37.1836 29.7661L37.3624 29.8557ZM35.5791 33.4114L35.4004 33.3218L35.2765 33.5688L35.5498 33.6093L35.5791 33.4114ZM36.9544 34.8717L37.1136 34.993L37.1183 34.9864L36.9544 34.8717ZM32.5251 40.6825L32.3297 40.6397L32.6841 40.8037L32.5251 40.6825ZM36.9763 34.7241L36.7862 34.7864L36.7862 34.7864L36.9763 34.7241ZM36.8409 34.6203L36.8116 34.8181L36.8116 34.8181L36.8409 34.6203ZM34.7424 34.3094L34.7131 34.5073L34.7131 34.5073L34.7424 34.3094ZM34.3781 34.0544L34.5614 33.9744L34.5614 33.9744L34.3781 34.0544ZM34.3781 33.6021L34.5566 33.6925L34.557 33.6916L34.3781 33.6021ZM36.4717 29.4222L36.3078 29.3075L36.2994 29.3195L36.2928 29.3327L36.4717 29.4222ZM36.4807 29.2828L36.2918 29.3485L36.2918 29.3485L36.4807 29.2828ZM36.4771 29.2722L36.6672 29.21L36.6571 29.1792L36.6377 29.1531L36.4771 29.2722ZM36.3557 29.1872L36.3264 29.3851L36.3264 29.3851L36.3557 29.1872ZM33.7654 28.8035L33.7947 28.6057L33.7947 28.6057L33.7654 28.8035ZM33.6009 28.8964L33.7795 28.9864L33.7829 28.9797L33.7857 28.9728L33.6009 28.8964ZM30.3021 35.4443L30.466 35.559L30.4743 35.5472L30.4807 35.5343L30.3021 35.4443ZM30.2931 35.5837L30.482 35.518L30.482 35.518L30.2931 35.5837ZM30.2967 35.5943L30.1066 35.6566L30.1167 35.6874L30.1361 35.7135L30.2967 35.5943ZM30.4181 35.6793L30.3888 35.8771L30.3888 35.8771L30.4181 35.6793ZM32.992 36.0606L33.0213 35.8627L33.0213 35.8627L32.992 36.0606ZM33.3308 36.2616L33.4914 36.1424L33.4914 36.1424L33.3308 36.2616ZM33.4085 36.6416L33.2155 36.5879L33.2131 36.5989L33.4085 36.6416ZM25.0211 16.8C22.381 16.8 19.735 17.8835 17.7584 20.0269L18.0525 20.2981C19.9523 18.2379 22.4911 17.2 25.0211 17.2V16.8ZM32.2693 20.0269C30.293 17.8837 27.6615 16.8 25.0211 16.8V17.2C27.5507 17.2 30.0752 18.2377 31.9753 20.2981L32.2693 20.0269ZM34.0229 21.9243L32.2692 20.0268L31.9754 20.2982L33.7292 22.1957L34.0229 21.9243ZM35.4685 20.0412L33.7291 21.9243L34.023 22.1957L35.7624 20.3126L35.4685 20.0412ZM49.9793 20.0413C46.0238 15.7518 39.424 15.7517 35.4684 20.0413L35.7625 20.3125C39.5597 16.1947 45.8881 16.1947 49.6853 20.3125L49.9793 20.0413ZM49.9793 35.3918C53.9264 31.1118 53.9263 24.3215 49.9793 20.0413L49.6853 20.3125C53.491 24.4394 53.491 30.9938 49.6853 35.1207L49.9793 35.3918ZM42.541 43.4667C45.0199 40.7743 47.4987 38.0819 49.9793 35.3918L49.6853 35.1207C47.2045 37.8109 44.7256 40.5034 42.2468 43.1958L42.541 43.4667ZM35.0293 51.6212C37.5345 48.9046 40.0378 46.1857 42.541 43.4667L42.2468 43.1958C39.7435 45.9147 37.2403 48.6336 34.7353 51.35L35.0293 51.6212ZM34.5021 51.9965C34.7018 51.9091 34.8812 51.7814 35.0292 51.6214L34.7355 51.3499C34.625 51.4694 34.4909 51.5648 34.3418 51.63L34.5021 51.9965ZM33.8689 52.1289C34.0868 52.1289 34.3024 52.0838 34.5021 51.9965L34.3418 51.63C34.1927 51.6952 34.0316 51.7289 33.8689 51.7289V52.1289ZM33.2357 51.9965C33.4353 52.0838 33.6509 52.1289 33.8689 52.1289V51.7289C33.7061 51.7289 33.5451 51.6952 33.396 51.63L33.2357 51.9965ZM32.7086 51.6214C32.8565 51.7814 33.036 51.9091 33.2357 51.9965L33.396 51.63C33.2468 51.5648 33.1128 51.4694 33.0023 51.3499L32.7086 51.6214ZM17.7583 35.3773L32.7083 51.6211L33.0026 51.3502L18.0526 35.1064L17.7583 35.3773ZM17.7584 20.0269C13.8113 24.307 13.8165 31.0946 17.7583 35.3773L18.0526 35.1064C14.2515 30.9765 14.2468 24.4247 18.0525 20.2981L17.7584 20.0269ZM25.0211 19.8881C26.7822 19.8881 28.5459 20.6459 29.9484 22.1668L30.2425 21.8957C28.7695 20.2983 26.9014 19.4881 25.0211 19.4881V19.8881ZM20.0937 22.1668C21.4962 20.6459 23.2599 19.8881 25.0211 19.8881V19.4881C23.1407 19.4881 21.2726 20.2983 19.7997 21.8957L20.0937 22.1668ZM20.0938 33.2377C17.2903 30.1917 17.289 25.2081 20.0937 22.1668L19.7997 21.8957C16.8535 25.0903 16.8553 30.3097 19.7995 33.5086L20.0938 33.2377ZM34.0232 48.3746L20.0939 33.2377L19.7995 33.5086L33.7289 48.6454L34.0232 48.3746ZM40.7273 40.7768C38.3951 43.3102 36.063 45.8435 33.729 48.3744L34.0231 48.6456C36.3572 46.1145 38.6894 43.5811 41.0216 41.0477L40.7273 40.7768ZM47.6584 33.2519C45.3468 35.7587 43.037 38.2678 40.7273 40.7768L41.0216 41.0477C43.3313 38.5387 45.641 36.0297 47.9525 33.5231L47.6584 33.2519ZM47.6584 22.1812C50.4633 25.2228 50.4632 30.2105 47.6584 33.2519L47.9525 33.5231C50.8985 30.3285 50.8986 25.1048 47.9525 21.91L47.6584 22.1812ZM37.8037 22.1812C40.6 19.1488 44.8622 19.1489 47.6584 22.1812L47.9525 21.91C44.9978 18.706 40.4644 18.7059 37.5097 21.91L37.8037 22.1812ZM35.0436 25.1713L37.8036 22.1813L37.5097 21.91L34.7497 24.9L35.0436 25.1713ZM34.5165 25.5465C34.7161 25.4591 34.8956 25.3314 35.0435 25.1714L34.7498 24.8999C34.6393 25.0194 34.5053 25.1147 34.3562 25.18L34.5165 25.5465ZM33.8833 25.6789C34.1012 25.6789 34.3168 25.6338 34.5165 25.5465L34.3562 25.18C34.207 25.2452 34.046 25.2789 33.8833 25.2789V25.6789ZM33.25 25.5465C33.4497 25.6338 33.6653 25.6789 33.8833 25.6789V25.2789C33.7205 25.2789 33.5595 25.2452 33.4103 25.18L33.25 25.5465ZM32.723 25.1714C32.8709 25.3314 33.0504 25.4591 33.25 25.5465L33.4103 25.18C33.2612 25.1147 33.1272 25.0194 33.0167 24.8999L32.723 25.1714ZM29.9485 22.1669L32.7229 25.1713L33.0167 24.8999L30.2424 21.8956L29.9485 22.1669ZM38.0753 34.248C37.8881 33.7882 37.4959 33.4932 37.0183 33.4224L36.9597 33.8181C37.3018 33.8688 37.5727 34.0741 37.7048 34.3988L38.0753 34.248ZM37.917 35.5772C38.1882 35.2048 38.2616 34.7056 38.0753 34.248L37.7048 34.3988C37.8379 34.7256 37.785 35.0789 37.5936 35.3417L37.917 35.5772ZM32.1305 43.1843L37.9145 35.5805L37.5961 35.3383L31.8122 42.9421L32.1305 43.1843ZM31.4769 43.4602C31.7306 43.4978 31.9846 43.3931 32.1352 43.1779L31.8075 42.9485C31.7456 43.037 31.6425 43.0804 31.5356 43.0645L31.4769 43.4602ZM31.2872 43.405C31.3663 43.4451 31.4457 43.4556 31.4769 43.4602L31.5356 43.0645C31.5188 43.0621 31.5066 43.0601 31.4942 43.0572C31.4822 43.0542 31.4737 43.0511 31.4679 43.0481L31.2872 43.405ZM30.8969 42.6216C30.8258 42.9421 30.99 43.2706 31.295 43.4087L31.4601 43.0444C31.3254 42.9834 31.2577 42.8419 31.2874 42.7082L30.8969 42.6216ZM32.1451 36.9098L30.8968 42.6222L31.2875 42.7076L32.5358 36.9952L32.1451 36.9098ZM30.2619 36.8468L32.3112 37.1504L32.3698 36.7547L30.3205 36.4511L30.2619 36.8468ZM29.2496 36.1272C29.4485 36.5105 29.821 36.7815 30.2619 36.8468L30.3205 36.4511C30.0073 36.4047 29.7447 36.213 29.6047 35.943L29.2496 36.1272ZM29.2378 34.8876C29.042 35.2744 29.0517 35.7454 29.2496 36.1272L29.6047 35.943C29.4639 35.6714 29.459 35.3362 29.5947 35.0684L29.2378 34.8876ZM32.5364 28.3401L29.2376 34.888L29.5949 35.068L32.8936 28.5201L32.5364 28.3401ZM33.9429 27.6057C33.3679 27.5205 32.7922 27.8078 32.5347 28.3435L32.8953 28.5168C33.0738 28.1453 33.4756 27.9408 33.8843 28.0013L33.9429 27.6057ZM36.5167 27.9869L33.9429 27.6057L33.8843 28.0013L36.4581 28.3826L36.5167 27.9869ZM37.529 28.7066C37.3302 28.3232 36.9577 28.0523 36.5167 27.9869L36.4581 28.3826C36.7713 28.429 37.0339 28.6207 37.1739 28.8907L37.529 28.7066ZM37.5408 29.9461C37.7367 29.5594 37.727 29.0883 37.529 28.7066L37.1739 28.8907C37.3148 29.1623 37.3196 29.4976 37.184 29.7654L37.5408 29.9461ZM35.7579 33.5011L37.5412 29.9454L37.1836 29.7661L35.4004 33.3218L35.7579 33.5011ZM37.0183 33.4224L35.6084 33.2136L35.5498 33.6093L36.9597 33.8181L37.0183 33.4224ZM36.7954 34.7504L32.366 40.5612L32.6841 40.8037L37.1135 34.9929L36.7954 34.7504ZM36.7862 34.7864C36.7879 34.7915 36.7854 34.786 36.786 34.7756C36.7864 34.7702 36.7874 34.7652 36.7889 34.7611C36.7904 34.757 36.7915 34.7556 36.7906 34.757L37.1183 34.9864C37.2099 34.8555 37.1891 34.7314 37.1663 34.6619L36.7862 34.7864ZM36.8116 34.8181C36.812 34.8182 36.8105 34.818 36.808 34.8168C36.8056 34.8156 36.8031 34.814 36.8009 34.8119C36.7987 34.81 36.7966 34.8075 36.7944 34.8043C36.7925 34.8014 36.7893 34.7958 36.7862 34.7864L37.1663 34.6619C37.1347 34.5652 37.0375 34.4472 36.8702 34.4225L36.8116 34.8181ZM34.7131 34.5073L36.8116 34.8181L36.8702 34.4225L34.7718 34.1116L34.7131 34.5073ZM34.1948 34.1344C34.2925 34.3583 34.5185 34.4785 34.7131 34.5073L34.7718 34.1116C34.6713 34.0967 34.5888 34.0371 34.5614 33.9744L34.1948 34.1344ZM34.1997 33.5117C34.0963 33.7158 34.1136 33.9484 34.1948 34.1344L34.5614 33.9744C34.5175 33.8739 34.5179 33.7689 34.5566 33.6924L34.1997 33.5117ZM36.2928 29.3327L34.1993 33.5125L34.557 33.6916L36.6505 29.5118L36.2928 29.3327ZM36.2918 29.3485C36.2951 29.3581 36.2959 29.3606 36.2964 29.3622C36.2966 29.3632 36.2956 29.3599 36.2954 29.3537C36.2951 29.347 36.2957 29.3381 36.2984 29.3284C36.3011 29.3186 36.305 29.3115 36.3078 29.3075L36.6355 29.5369C36.7362 29.393 36.682 29.2528 36.6696 29.2171L36.2918 29.3485ZM36.2871 29.3345C36.2888 29.3399 36.2907 29.3452 36.2918 29.3485L36.6696 29.2172C36.6682 29.2131 36.6676 29.2113 36.6672 29.21L36.2871 29.3345ZM36.3264 29.3851C36.3178 29.3838 36.3115 29.3812 36.3081 29.3794C36.3049 29.3777 36.3039 29.3767 36.3048 29.3775C36.3057 29.3783 36.3073 29.3798 36.3094 29.3823C36.3115 29.3848 36.3133 29.3871 36.3165 29.3914L36.6377 29.1531C36.6282 29.1402 36.5421 29.0127 36.385 28.9894L36.3264 29.3851ZM33.7361 29.0014L36.3264 29.3851L36.385 28.9894L33.7947 28.6057L33.7361 29.0014ZM33.7857 28.9728C33.7794 28.9882 33.7702 28.9949 33.7658 28.9973C33.7615 28.9997 33.7519 29.0037 33.7361 29.0014L33.7947 28.6057C33.6408 28.5829 33.4782 28.6698 33.4161 28.82L33.7857 28.9728ZM30.4807 35.5343L33.7795 28.9864L33.4223 28.8064L30.1235 35.3543L30.4807 35.5343ZM30.482 35.518C30.4786 35.5085 30.4779 35.506 30.4774 35.5043C30.4772 35.5033 30.4782 35.5067 30.4784 35.5129C30.4787 35.5196 30.4781 35.5284 30.4754 35.5381C30.4727 35.5479 30.4688 35.555 30.466 35.559L30.1383 35.3296C30.0376 35.4735 30.0917 35.6137 30.1041 35.6494L30.482 35.518ZM30.4867 35.532C30.485 35.5266 30.4831 35.5213 30.482 35.518L30.1041 35.6494C30.1056 35.6535 30.1062 35.6552 30.1066 35.6566L30.4867 35.532ZM30.4474 35.4815C30.456 35.4827 30.4623 35.4853 30.4657 35.4871C30.4689 35.4888 30.4699 35.4899 30.469 35.489C30.4681 35.4882 30.4665 35.4867 30.4644 35.4842C30.4622 35.4817 30.4605 35.4794 30.4573 35.4751L30.1361 35.7135C30.1456 35.7263 30.2317 35.8539 30.3888 35.8771L30.4474 35.4815ZM33.0213 35.8627L30.4474 35.4815L30.3888 35.8771L32.9626 36.2584L33.0213 35.8627ZM33.4914 36.1424C33.3739 35.9841 33.2014 35.8894 33.0213 35.8627L32.9626 36.2584C33.0449 36.2706 33.12 36.3132 33.1701 36.3807L33.4914 36.1424ZM33.6012 36.6953C33.6552 36.5012 33.6082 36.2998 33.4914 36.1424L33.1701 36.3807C33.2209 36.4492 33.2335 36.5246 33.2158 36.588L33.6012 36.6953ZM32.7205 40.7252L33.6039 36.6844L33.2131 36.5989L32.3297 40.6397L32.7205 40.7252Z" fill="black" mask="url(#path-1-outside-1)"/>
</svg>
