<svg width="68" height="68" viewBox="0 0 68 68" fill="none" xmlns="http://www.w3.org/2000/svg">
<path d="M55.8051 24.4129C54.0328 20.1067 50.9605 16.42 47.0301 13.9165C43.2266 11.4891 38.6766 10.2754 34.1723 10.443C29.7086 10.6106 25.3109 12.1137 21.7156 14.7696C20.7914 15.4551 19.918 16.1965 19.1055 17.009C15.7437 20.3809 13.484 24.7887 12.7832 29.5063C12.1078 34.0614 12.8187 38.7333 14.85 42.8668C16.8914 47.0208 20.2836 50.5145 24.3613 52.6981C28.373 54.8461 33.0348 55.7501 37.5644 55.2169C42.3379 54.6532 46.8219 52.5915 50.3461 49.311C53.6824 46.1981 56.0387 42.0543 56.9781 37.5856C57.8973 33.2083 57.5164 28.5567 55.8051 24.4129ZM34.0301 23.57C34.025 23.5954 34.0199 23.6258 34.0148 23.6512C34.0098 23.6817 33.9996 23.7122 33.9895 23.7376C33.6543 24.7379 32.659 25.393 31.5977 25.3473C30.6328 25.3067 29.7238 24.7075 29.4344 23.7629C29.15 22.8336 29.5867 21.8739 30.3687 21.3508C31.1305 20.8379 32.1867 20.8176 32.9738 21.2747C33.7914 21.7418 34.2078 22.6508 34.0301 23.57ZM41.6625 23.245C41.6625 23.2602 41.6625 23.2704 41.6625 23.2805C41.6625 23.3059 41.6574 23.3313 41.6523 23.3516C41.5102 24.484 40.5859 25.2711 39.4535 25.3422C38.509 25.4032 37.5238 24.8751 37.1277 24.0016C36.7266 23.118 36.9754 22.0821 37.7371 21.4778C38.4887 20.8836 39.5145 20.7922 40.3727 21.1934C41.1547 21.5641 41.6879 22.3766 41.6625 23.245Z" fill="black"/>
</svg>
