<svg width="68" height="68" viewBox="0 0 68 68" fill="none" xmlns="http://www.w3.org/2000/svg">
<mask id="path-1-outside-1" maskUnits="userSpaceOnUse" x="13.7" y="13.7" width="39" height="39" fill="black">
<rect fill="white" x="13.7" y="13.7" width="39" height="39"/>
<path fill-rule="evenodd" clip-rule="evenodd" d="M17.878 52.2999H49.1215C50.8739 52.2999 52.3 50.8741 52.3 49.1217V17.8782C52.3 16.1258 50.8739 14.7 49.1215 14.7H17.878C16.1256 14.7 14.7 16.1258 14.7 17.8782V49.1217C14.7 50.8741 16.1256 52.2999 17.878 52.2999ZM15.64 17.8782C15.64 16.644 16.6438 15.64 17.878 15.64H49.1215C50.3558 15.64 51.36 16.644 51.36 17.8782V49.1217C51.36 50.3559 50.3558 51.3599 49.1215 51.3599H17.878C16.6438 51.3599 15.64 50.3559 15.64 49.1217V17.8782ZM24.9624 32.1212C29.04 32.1212 32.3571 28.8041 32.3571 24.7267C32.3571 20.6493 29.04 17.332 24.9624 17.332C20.8853 17.332 17.5682 20.6493 17.5682 24.7267C17.5682 28.8041 20.8853 32.1212 24.9624 32.1212ZM22.6566 18.7052C22.6584 18.9633 22.8673 19.1721 23.126 19.1721C23.3858 19.1721 23.596 18.9617 23.596 18.7021V18.4207C24.0369 18.3252 24.4933 18.272 24.9624 18.272C25.4315 18.272 25.8879 18.3252 26.3288 18.4207V18.7021C26.3288 18.9617 26.539 19.1721 26.7988 19.1721C27.0575 19.1721 27.2664 18.9632 27.2682 18.7052C29.6903 19.6361 31.4171 21.9807 31.4171 24.7267C31.4171 27.4723 29.6906 29.8168 27.2688 30.7478V30.7346C27.2688 30.475 27.0586 30.2646 26.7988 30.2646C26.539 30.2646 26.3288 30.475 26.3288 30.7346V31.0325C25.8879 31.128 25.4315 31.1812 24.9624 31.1812C24.4933 31.1812 24.0369 31.128 23.596 31.0325V30.7346C23.596 30.475 23.3858 30.2646 23.126 30.2646C22.8662 30.2646 22.656 30.475 22.656 30.7346V30.7478C20.2344 29.8167 18.5082 27.4723 18.5082 24.7267C18.5082 21.9807 20.2347 19.6361 22.6566 18.7052ZM32.3571 41.4389C32.3571 45.5163 29.04 48.8334 24.9624 48.8334C20.8853 48.8334 17.5682 45.5163 17.5682 41.4389C17.5682 37.3615 20.8853 34.0442 24.9624 34.0442C29.04 34.0442 32.3571 37.3615 32.3571 41.4389ZM22.656 35.4225V35.4176C20.2344 36.3487 18.5082 38.6931 18.5082 41.4389C18.5082 44.1845 20.2344 46.5289 22.656 47.46V47.455C22.656 47.1955 22.8662 46.985 23.126 46.985C23.3858 46.985 23.596 47.1955 23.596 47.455V47.7447C24.0369 47.8402 24.4933 47.8934 24.9624 47.8934C25.4315 47.8934 25.8879 47.8402 26.3288 47.7447V47.455C26.3288 47.1955 26.539 46.985 26.7988 46.985C27.0586 46.985 27.2688 47.1955 27.2688 47.455V47.46C29.6906 46.5289 31.4171 44.1845 31.4171 41.4389C31.4171 38.6931 29.6906 36.3486 27.2688 35.4176V35.4225C27.2688 35.6821 27.0586 35.8925 26.7988 35.8925C26.539 35.8925 26.3288 35.6821 26.3288 35.4225V35.1329C25.8879 35.0374 25.4315 34.9842 24.9624 34.9842C24.4933 34.9842 24.0369 35.0374 23.596 35.1329V35.4225C23.596 35.6821 23.3858 35.8925 23.126 35.8925C22.8662 35.8925 22.656 35.6821 22.656 35.4225ZM41.9963 32.1212C46.0739 32.1212 49.391 28.8041 49.391 24.7267C49.391 20.6493 46.0739 17.332 41.9963 17.332C37.9186 17.332 34.6016 20.6493 34.6016 24.7267C34.6016 28.8041 37.9186 32.1212 41.9963 32.1212ZM39.6905 18.7052C39.6923 18.9632 39.9012 19.1721 40.1599 19.1721C40.4196 19.1721 40.6299 18.9617 40.6299 18.7021V18.4207C41.0708 18.3252 41.5272 18.272 41.9963 18.272C42.4653 18.272 42.9217 18.3252 43.3627 18.4207V18.7021C43.3627 18.9617 43.5729 19.1721 43.8327 19.1721C44.0914 19.1721 44.3002 18.9632 44.302 18.7052C46.7241 19.6361 48.451 21.9807 48.451 24.7267C48.451 27.4723 46.7245 29.8168 44.3027 30.7478V30.7346C44.3027 30.475 44.0924 30.2646 43.8327 30.2646C43.5729 30.2646 43.3627 30.475 43.3627 30.7346V31.0325C42.9217 31.128 42.4653 31.1812 41.9963 31.1812C41.5272 31.1812 41.0708 31.128 40.6299 31.0325V30.7346C40.6299 30.475 40.4196 30.2646 40.1599 30.2646C39.9001 30.2646 39.6899 30.475 39.6899 30.7346V30.7478C37.2681 29.8168 35.5416 27.4723 35.5416 24.7267C35.5416 21.9807 37.2684 19.6361 39.6905 18.7052ZM49.391 41.4389C49.391 45.5163 46.0739 48.8334 41.9963 48.8334C37.9186 48.8334 34.6016 45.5163 34.6016 41.4389C34.6016 37.3615 37.9186 34.0442 41.9963 34.0442C46.0739 34.0442 49.391 37.3615 49.391 41.4389ZM39.6899 35.4225V35.4176C37.2681 36.3486 35.5416 38.6931 35.5416 41.4389C35.5416 44.1845 37.2681 46.5289 39.6899 47.46V47.455C39.6899 47.1955 39.9001 46.985 40.1599 46.985C40.4196 46.985 40.6299 47.1955 40.6299 47.455V47.7447C41.0708 47.8402 41.5272 47.8934 41.9963 47.8934C42.4653 47.8934 42.9217 47.8402 43.3627 47.7447V47.455C43.3627 47.1955 43.5729 46.985 43.8327 46.985C44.0924 46.985 44.3027 47.1955 44.3027 47.455V47.46C46.7245 46.5289 48.451 44.1845 48.451 41.4389C48.451 38.6931 46.7245 36.3486 44.3027 35.4176V35.4225C44.3027 35.6821 44.0924 35.8925 43.8327 35.8925C43.5729 35.8925 43.3627 35.6821 43.3627 35.4225V35.1329C42.9217 35.0374 42.4653 34.9842 41.9963 34.9842C41.5272 34.9842 41.0708 35.0374 40.6299 35.1329V35.4225C40.6299 35.6821 40.4196 35.8925 40.1599 35.8925C39.9001 35.8925 39.6899 35.6821 39.6899 35.4225ZM23.126 21.7504C23.3858 21.7504 23.596 21.5399 23.596 21.2804V20.4209C23.596 20.1614 23.3858 19.9509 23.126 19.9509C22.8662 19.9509 22.656 20.1614 22.656 20.4209V21.2804C22.656 21.5399 22.8662 21.7504 23.126 21.7504ZM23.596 26.4371C23.596 26.6967 23.3858 26.9071 23.126 26.9071C22.8662 26.9071 22.656 26.6967 22.656 26.4371V25.5777C22.656 25.3181 22.8662 25.1077 23.126 25.1077C23.3858 25.1077 23.596 25.3181 23.596 25.5777V26.4371ZM23.126 29.4855C23.3858 29.4855 23.596 29.275 23.596 29.0155V28.156C23.596 27.8965 23.3858 27.686 23.126 27.686C22.8662 27.686 22.656 27.8965 22.656 28.156V29.0155C22.656 29.275 22.8662 29.4855 23.126 29.4855ZM23.596 23.8587C23.596 24.1183 23.3858 24.3287 23.126 24.3287C22.8662 24.3287 22.656 24.1183 22.656 23.8587V22.9993C22.656 22.7397 22.8662 22.5293 23.126 22.5293C23.3858 22.5293 23.596 22.7397 23.596 22.9993V23.8587ZM26.7989 21.7504C27.0586 21.7504 27.2689 21.5399 27.2689 21.2804V20.4209C27.2689 20.1614 27.0586 19.9509 26.7989 19.9509C26.5391 19.9509 26.3289 20.1614 26.3289 20.4209V21.2804C26.3289 21.5399 26.5391 21.7504 26.7989 21.7504ZM27.2689 29.0155C27.2689 29.275 27.0586 29.4855 26.7989 29.4855C26.5391 29.4855 26.3289 29.275 26.3289 29.0155V28.156C26.3289 27.8965 26.5391 27.686 26.7989 27.686C27.0586 27.686 27.2689 27.8965 27.2689 28.156V29.0155ZM26.7989 24.3287C27.0586 24.3287 27.2689 24.1183 27.2689 23.8587V22.9993C27.2689 22.7397 27.0586 22.5293 26.7989 22.5293C26.5391 22.5293 26.3289 22.7397 26.3289 22.9993V23.8587C26.3289 24.1183 26.5391 24.3287 26.7989 24.3287ZM27.2689 26.4371C27.2689 26.6967 27.0586 26.9071 26.7989 26.9071C26.5391 26.9071 26.3289 26.6967 26.3289 26.4371V25.5777C26.3289 25.3181 26.5391 25.1077 26.7989 25.1077C27.0586 25.1077 27.2689 25.3181 27.2689 25.5777V26.4371ZM40.1599 26.9071C40.4197 26.9071 40.6299 26.6967 40.6299 26.4371V25.5777C40.6299 25.3181 40.4197 25.1077 40.1599 25.1077C39.9001 25.1077 39.6899 25.3181 39.6899 25.5777V26.4371C39.6899 26.6967 39.9001 26.9071 40.1599 26.9071ZM40.6299 23.8587C40.6299 24.1183 40.4197 24.3287 40.1599 24.3287C39.9001 24.3287 39.6899 24.1183 39.6899 23.8587V22.9993C39.6899 22.7397 39.9001 22.5293 40.1599 22.5293C40.4197 22.5293 40.6299 22.7397 40.6299 22.9993V23.8587ZM40.1599 21.7504C40.4197 21.7504 40.6299 21.5399 40.6299 21.2804V20.4209C40.6299 20.1614 40.4197 19.9509 40.1599 19.9509C39.9001 19.9509 39.6899 20.1614 39.6899 20.4209V21.2804C39.6899 21.5399 39.9001 21.7504 40.1599 21.7504ZM40.6299 29.0155C40.6299 29.275 40.4197 29.4855 40.1599 29.4855C39.9001 29.4855 39.6899 29.275 39.6899 29.0155V28.156C39.6899 27.8965 39.9001 27.686 40.1599 27.686C40.4197 27.686 40.6299 27.8965 40.6299 28.156V29.0155ZM43.8327 24.3287C44.0925 24.3287 44.3027 24.1183 44.3027 23.8587V22.9993C44.3027 22.7397 44.0925 22.5293 43.8327 22.5293C43.5729 22.5293 43.3627 22.7397 43.3627 22.9993V23.8587C43.3627 24.1183 43.5729 24.3287 43.8327 24.3287ZM44.3027 21.2804C44.3027 21.5399 44.0925 21.7504 43.8327 21.7504C43.5729 21.7504 43.3627 21.5399 43.3627 21.2804V20.4209C43.3627 20.1614 43.5729 19.9509 43.8327 19.9509C44.0925 19.9509 44.3027 20.1614 44.3027 20.4209V21.2804ZM43.8327 29.4855C44.0925 29.4855 44.3027 29.275 44.3027 29.0155V28.156C44.3027 27.8965 44.0925 27.686 43.8327 27.686C43.5729 27.686 43.3627 27.8965 43.3627 28.156V29.0155C43.3627 29.275 43.5729 29.4855 43.8327 29.4855ZM44.3027 26.4371C44.3027 26.6967 44.0925 26.9071 43.8327 26.9071C43.5729 26.9071 43.3627 26.6967 43.3627 26.4371V25.5777C43.3627 25.3181 43.5729 25.1077 43.8327 25.1077C44.0925 25.1077 44.3027 25.3181 44.3027 25.5777V26.4371ZM23.126 46.2062C23.3858 46.2062 23.596 45.9957 23.596 45.7362V44.8767C23.596 44.6172 23.3858 44.4067 23.126 44.4067C22.8662 44.4067 22.656 44.6172 22.656 44.8767V45.7362C22.656 45.9957 22.8662 46.2062 23.126 46.2062ZM23.596 38.0011C23.596 38.2606 23.3858 38.4711 23.126 38.4711C22.8662 38.4711 22.656 38.2606 22.656 38.0011V37.1416C22.656 36.8821 22.8662 36.6716 23.126 36.6716C23.3858 36.6716 23.596 36.8821 23.596 37.1416V38.0011ZM23.126 43.6278C23.3858 43.6278 23.596 43.4174 23.596 43.1578V42.2984C23.596 42.0388 23.3858 41.8284 23.126 41.8284C22.8662 41.8284 22.656 42.0388 22.656 42.2984V43.1578C22.656 43.4174 22.8662 43.6278 23.126 43.6278ZM23.596 40.5794C23.596 40.839 23.3858 41.0494 23.126 41.0494C22.8662 41.0494 22.656 40.839 22.656 40.5794V39.72C22.656 39.4604 22.8662 39.25 23.126 39.25C23.3858 39.25 23.596 39.4604 23.596 39.72V40.5794ZM26.7989 41.0494C27.0586 41.0494 27.2689 40.839 27.2689 40.5794V39.72C27.2689 39.4604 27.0586 39.25 26.7989 39.25C26.5391 39.25 26.3289 39.4604 26.3289 39.72V40.5794C26.3289 40.839 26.5391 41.0494 26.7989 41.0494ZM27.2689 38.0011C27.2689 38.2606 27.0586 38.4711 26.7989 38.4711C26.5391 38.4711 26.3289 38.2606 26.3289 38.0011V37.1416C26.3289 36.8821 26.5391 36.6716 26.7989 36.6716C27.0586 36.6716 27.2689 36.8821 27.2689 37.1416V38.0011ZM26.7989 46.2062C27.0586 46.2062 27.2689 45.9957 27.2689 45.7362V44.8767C27.2689 44.6172 27.0586 44.4067 26.7989 44.4067C26.5391 44.4067 26.3289 44.6172 26.3289 44.8767V45.7362C26.3289 45.9957 26.5391 46.2062 26.7989 46.2062ZM27.2689 43.1578C27.2689 43.4174 27.0586 43.6278 26.7989 43.6278C26.5391 43.6278 26.3289 43.4174 26.3289 43.1578V42.2984C26.3289 42.0388 26.5391 41.8284 26.7989 41.8284C27.0586 41.8284 27.2689 42.0388 27.2689 42.2984V43.1578ZM40.1599 46.2062C40.4197 46.2062 40.6299 45.9957 40.6299 45.7362V44.8767C40.6299 44.6172 40.4197 44.4067 40.1599 44.4067C39.9001 44.4067 39.6899 44.6172 39.6899 44.8767V45.7362C39.6899 45.9957 39.9001 46.2062 40.1599 46.2062ZM40.6299 43.1578C40.6299 43.4174 40.4197 43.6278 40.1599 43.6278C39.9001 43.6278 39.6899 43.4174 39.6899 43.1578V42.2984C39.6899 42.0388 39.9001 41.8284 40.1599 41.8284C40.4197 41.8284 40.6299 42.0388 40.6299 42.2984V43.1578ZM40.1599 38.4711C40.4197 38.4711 40.6299 38.2606 40.6299 38.0011V37.1416C40.6299 36.8821 40.4197 36.6716 40.1599 36.6716C39.9001 36.6716 39.6899 36.8821 39.6899 37.1416V38.0011C39.6899 38.2606 39.9001 38.4711 40.1599 38.4711ZM40.6299 40.5794C40.6299 40.839 40.4197 41.0494 40.1599 41.0494C39.9001 41.0494 39.6899 40.839 39.6899 40.5794V39.72C39.6899 39.4604 39.9001 39.25 40.1599 39.25C40.4197 39.25 40.6299 39.4604 40.6299 39.72V40.5794ZM43.8327 46.2062C44.0925 46.2062 44.3027 45.9957 44.3027 45.7362V44.8767C44.3027 44.6172 44.0925 44.4067 43.8327 44.4067C43.5729 44.4067 43.3627 44.6172 43.3627 44.8767V45.7362C43.3627 45.9957 43.5729 46.2062 43.8327 46.2062ZM44.3027 38.0011C44.3027 38.2606 44.0925 38.4711 43.8327 38.4711C43.5729 38.4711 43.3627 38.2606 43.3627 38.0011V37.1416C43.3627 36.8821 43.5729 36.6716 43.8327 36.6716C44.0925 36.6716 44.3027 36.8821 44.3027 37.1416V38.0011ZM43.8327 43.6278C44.0925 43.6278 44.3027 43.4174 44.3027 43.1578V42.2984C44.3027 42.0388 44.0925 41.8284 43.8327 41.8284C43.5729 41.8284 43.3627 42.0388 43.3627 42.2984V43.1578C43.3627 43.4174 43.5729 43.6278 43.8327 43.6278ZM44.3027 40.5794C44.3027 40.839 44.0925 41.0494 43.8327 41.0494C43.5729 41.0494 43.3627 40.839 43.3627 40.5794V39.72C43.3627 39.4604 43.5729 39.25 43.8327 39.25C44.0925 39.25 44.3027 39.4604 44.3027 39.72V40.5794Z"/>
</mask>
<path fill-rule="evenodd" clip-rule="evenodd" d="M17.878 52.2999H49.1215C50.8739 52.2999 52.3 50.8741 52.3 49.1217V17.8782C52.3 16.1258 50.8739 14.7 49.1215 14.7H17.878C16.1256 14.7 14.7 16.1258 14.7 17.8782V49.1217C14.7 50.8741 16.1256 52.2999 17.878 52.2999ZM15.64 17.8782C15.64 16.644 16.6438 15.64 17.878 15.64H49.1215C50.3558 15.64 51.36 16.644 51.36 17.8782V49.1217C51.36 50.3559 50.3558 51.3599 49.1215 51.3599H17.878C16.6438 51.3599 15.64 50.3559 15.64 49.1217V17.8782ZM24.9624 32.1212C29.04 32.1212 32.3571 28.8041 32.3571 24.7267C32.3571 20.6493 29.04 17.332 24.9624 17.332C20.8853 17.332 17.5682 20.6493 17.5682 24.7267C17.5682 28.8041 20.8853 32.1212 24.9624 32.1212ZM22.6566 18.7052C22.6584 18.9633 22.8673 19.1721 23.126 19.1721C23.3858 19.1721 23.596 18.9617 23.596 18.7021V18.4207C24.0369 18.3252 24.4933 18.272 24.9624 18.272C25.4315 18.272 25.8879 18.3252 26.3288 18.4207V18.7021C26.3288 18.9617 26.539 19.1721 26.7988 19.1721C27.0575 19.1721 27.2664 18.9632 27.2682 18.7052C29.6903 19.6361 31.4171 21.9807 31.4171 24.7267C31.4171 27.4723 29.6906 29.8168 27.2688 30.7478V30.7346C27.2688 30.475 27.0586 30.2646 26.7988 30.2646C26.539 30.2646 26.3288 30.475 26.3288 30.7346V31.0325C25.8879 31.128 25.4315 31.1812 24.9624 31.1812C24.4933 31.1812 24.0369 31.128 23.596 31.0325V30.7346C23.596 30.475 23.3858 30.2646 23.126 30.2646C22.8662 30.2646 22.656 30.475 22.656 30.7346V30.7478C20.2344 29.8167 18.5082 27.4723 18.5082 24.7267C18.5082 21.9807 20.2347 19.6361 22.6566 18.7052ZM32.3571 41.4389C32.3571 45.5163 29.04 48.8334 24.9624 48.8334C20.8853 48.8334 17.5682 45.5163 17.5682 41.4389C17.5682 37.3615 20.8853 34.0442 24.9624 34.0442C29.04 34.0442 32.3571 37.3615 32.3571 41.4389ZM22.656 35.4225V35.4176C20.2344 36.3487 18.5082 38.6931 18.5082 41.4389C18.5082 44.1845 20.2344 46.5289 22.656 47.46V47.455C22.656 47.1955 22.8662 46.985 23.126 46.985C23.3858 46.985 23.596 47.1955 23.596 47.455V47.7447C24.0369 47.8402 24.4933 47.8934 24.9624 47.8934C25.4315 47.8934 25.8879 47.8402 26.3288 47.7447V47.455C26.3288 47.1955 26.539 46.985 26.7988 46.985C27.0586 46.985 27.2688 47.1955 27.2688 47.455V47.46C29.6906 46.5289 31.4171 44.1845 31.4171 41.4389C31.4171 38.6931 29.6906 36.3486 27.2688 35.4176V35.4225C27.2688 35.6821 27.0586 35.8925 26.7988 35.8925C26.539 35.8925 26.3288 35.6821 26.3288 35.4225V35.1329C25.8879 35.0374 25.4315 34.9842 24.9624 34.9842C24.4933 34.9842 24.0369 35.0374 23.596 35.1329V35.4225C23.596 35.6821 23.3858 35.8925 23.126 35.8925C22.8662 35.8925 22.656 35.6821 22.656 35.4225ZM41.9963 32.1212C46.0739 32.1212 49.391 28.8041 49.391 24.7267C49.391 20.6493 46.0739 17.332 41.9963 17.332C37.9186 17.332 34.6016 20.6493 34.6016 24.7267C34.6016 28.8041 37.9186 32.1212 41.9963 32.1212ZM39.6905 18.7052C39.6923 18.9632 39.9012 19.1721 40.1599 19.1721C40.4196 19.1721 40.6299 18.9617 40.6299 18.7021V18.4207C41.0708 18.3252 41.5272 18.272 41.9963 18.272C42.4653 18.272 42.9217 18.3252 43.3627 18.4207V18.7021C43.3627 18.9617 43.5729 19.1721 43.8327 19.1721C44.0914 19.1721 44.3002 18.9632 44.302 18.7052C46.7241 19.6361 48.451 21.9807 48.451 24.7267C48.451 27.4723 46.7245 29.8168 44.3027 30.7478V30.7346C44.3027 30.475 44.0924 30.2646 43.8327 30.2646C43.5729 30.2646 43.3627 30.475 43.3627 30.7346V31.0325C42.9217 31.128 42.4653 31.1812 41.9963 31.1812C41.5272 31.1812 41.0708 31.128 40.6299 31.0325V30.7346C40.6299 30.475 40.4196 30.2646 40.1599 30.2646C39.9001 30.2646 39.6899 30.475 39.6899 30.7346V30.7478C37.2681 29.8168 35.5416 27.4723 35.5416 24.7267C35.5416 21.9807 37.2684 19.6361 39.6905 18.7052ZM49.391 41.4389C49.391 45.5163 46.0739 48.8334 41.9963 48.8334C37.9186 48.8334 34.6016 45.5163 34.6016 41.4389C34.6016 37.3615 37.9186 34.0442 41.9963 34.0442C46.0739 34.0442 49.391 37.3615 49.391 41.4389ZM39.6899 35.4225V35.4176C37.2681 36.3486 35.5416 38.6931 35.5416 41.4389C35.5416 44.1845 37.2681 46.5289 39.6899 47.46V47.455C39.6899 47.1955 39.9001 46.985 40.1599 46.985C40.4196 46.985 40.6299 47.1955 40.6299 47.455V47.7447C41.0708 47.8402 41.5272 47.8934 41.9963 47.8934C42.4653 47.8934 42.9217 47.8402 43.3627 47.7447V47.455C43.3627 47.1955 43.5729 46.985 43.8327 46.985C44.0924 46.985 44.3027 47.1955 44.3027 47.455V47.46C46.7245 46.5289 48.451 44.1845 48.451 41.4389C48.451 38.6931 46.7245 36.3486 44.3027 35.4176V35.4225C44.3027 35.6821 44.0924 35.8925 43.8327 35.8925C43.5729 35.8925 43.3627 35.6821 43.3627 35.4225V35.1329C42.9217 35.0374 42.4653 34.9842 41.9963 34.9842C41.5272 34.9842 41.0708 35.0374 40.6299 35.1329V35.4225C40.6299 35.6821 40.4196 35.8925 40.1599 35.8925C39.9001 35.8925 39.6899 35.6821 39.6899 35.4225ZM23.126 21.7504C23.3858 21.7504 23.596 21.5399 23.596 21.2804V20.4209C23.596 20.1614 23.3858 19.9509 23.126 19.9509C22.8662 19.9509 22.656 20.1614 22.656 20.4209V21.2804C22.656 21.5399 22.8662 21.7504 23.126 21.7504ZM23.596 26.4371C23.596 26.6967 23.3858 26.9071 23.126 26.9071C22.8662 26.9071 22.656 26.6967 22.656 26.4371V25.5777C22.656 25.3181 22.8662 25.1077 23.126 25.1077C23.3858 25.1077 23.596 25.3181 23.596 25.5777V26.4371ZM23.126 29.4855C23.3858 29.4855 23.596 29.275 23.596 29.0155V28.156C23.596 27.8965 23.3858 27.686 23.126 27.686C22.8662 27.686 22.656 27.8965 22.656 28.156V29.0155C22.656 29.275 22.8662 29.4855 23.126 29.4855ZM23.596 23.8587C23.596 24.1183 23.3858 24.3287 23.126 24.3287C22.8662 24.3287 22.656 24.1183 22.656 23.8587V22.9993C22.656 22.7397 22.8662 22.5293 23.126 22.5293C23.3858 22.5293 23.596 22.7397 23.596 22.9993V23.8587ZM26.7989 21.7504C27.0586 21.7504 27.2689 21.5399 27.2689 21.2804V20.4209C27.2689 20.1614 27.0586 19.9509 26.7989 19.9509C26.5391 19.9509 26.3289 20.1614 26.3289 20.4209V21.2804C26.3289 21.5399 26.5391 21.7504 26.7989 21.7504ZM27.2689 29.0155C27.2689 29.275 27.0586 29.4855 26.7989 29.4855C26.5391 29.4855 26.3289 29.275 26.3289 29.0155V28.156C26.3289 27.8965 26.5391 27.686 26.7989 27.686C27.0586 27.686 27.2689 27.8965 27.2689 28.156V29.0155ZM26.7989 24.3287C27.0586 24.3287 27.2689 24.1183 27.2689 23.8587V22.9993C27.2689 22.7397 27.0586 22.5293 26.7989 22.5293C26.5391 22.5293 26.3289 22.7397 26.3289 22.9993V23.8587C26.3289 24.1183 26.5391 24.3287 26.7989 24.3287ZM27.2689 26.4371C27.2689 26.6967 27.0586 26.9071 26.7989 26.9071C26.5391 26.9071 26.3289 26.6967 26.3289 26.4371V25.5777C26.3289 25.3181 26.5391 25.1077 26.7989 25.1077C27.0586 25.1077 27.2689 25.3181 27.2689 25.5777V26.4371ZM40.1599 26.9071C40.4197 26.9071 40.6299 26.6967 40.6299 26.4371V25.5777C40.6299 25.3181 40.4197 25.1077 40.1599 25.1077C39.9001 25.1077 39.6899 25.3181 39.6899 25.5777V26.4371C39.6899 26.6967 39.9001 26.9071 40.1599 26.9071ZM40.6299 23.8587C40.6299 24.1183 40.4197 24.3287 40.1599 24.3287C39.9001 24.3287 39.6899 24.1183 39.6899 23.8587V22.9993C39.6899 22.7397 39.9001 22.5293 40.1599 22.5293C40.4197 22.5293 40.6299 22.7397 40.6299 22.9993V23.8587ZM40.1599 21.7504C40.4197 21.7504 40.6299 21.5399 40.6299 21.2804V20.4209C40.6299 20.1614 40.4197 19.9509 40.1599 19.9509C39.9001 19.9509 39.6899 20.1614 39.6899 20.4209V21.2804C39.6899 21.5399 39.9001 21.7504 40.1599 21.7504ZM40.6299 29.0155C40.6299 29.275 40.4197 29.4855 40.1599 29.4855C39.9001 29.4855 39.6899 29.275 39.6899 29.0155V28.156C39.6899 27.8965 39.9001 27.686 40.1599 27.686C40.4197 27.686 40.6299 27.8965 40.6299 28.156V29.0155ZM43.8327 24.3287C44.0925 24.3287 44.3027 24.1183 44.3027 23.8587V22.9993C44.3027 22.7397 44.0925 22.5293 43.8327 22.5293C43.5729 22.5293 43.3627 22.7397 43.3627 22.9993V23.8587C43.3627 24.1183 43.5729 24.3287 43.8327 24.3287ZM44.3027 21.2804C44.3027 21.5399 44.0925 21.7504 43.8327 21.7504C43.5729 21.7504 43.3627 21.5399 43.3627 21.2804V20.4209C43.3627 20.1614 43.5729 19.9509 43.8327 19.9509C44.0925 19.9509 44.3027 20.1614 44.3027 20.4209V21.2804ZM43.8327 29.4855C44.0925 29.4855 44.3027 29.275 44.3027 29.0155V28.156C44.3027 27.8965 44.0925 27.686 43.8327 27.686C43.5729 27.686 43.3627 27.8965 43.3627 28.156V29.0155C43.3627 29.275 43.5729 29.4855 43.8327 29.4855ZM44.3027 26.4371C44.3027 26.6967 44.0925 26.9071 43.8327 26.9071C43.5729 26.9071 43.3627 26.6967 43.3627 26.4371V25.5777C43.3627 25.3181 43.5729 25.1077 43.8327 25.1077C44.0925 25.1077 44.3027 25.3181 44.3027 25.5777V26.4371ZM23.126 46.2062C23.3858 46.2062 23.596 45.9957 23.596 45.7362V44.8767C23.596 44.6172 23.3858 44.4067 23.126 44.4067C22.8662 44.4067 22.656 44.6172 22.656 44.8767V45.7362C22.656 45.9957 22.8662 46.2062 23.126 46.2062ZM23.596 38.0011C23.596 38.2606 23.3858 38.4711 23.126 38.4711C22.8662 38.4711 22.656 38.2606 22.656 38.0011V37.1416C22.656 36.8821 22.8662 36.6716 23.126 36.6716C23.3858 36.6716 23.596 36.8821 23.596 37.1416V38.0011ZM23.126 43.6278C23.3858 43.6278 23.596 43.4174 23.596 43.1578V42.2984C23.596 42.0388 23.3858 41.8284 23.126 41.8284C22.8662 41.8284 22.656 42.0388 22.656 42.2984V43.1578C22.656 43.4174 22.8662 43.6278 23.126 43.6278ZM23.596 40.5794C23.596 40.839 23.3858 41.0494 23.126 41.0494C22.8662 41.0494 22.656 40.839 22.656 40.5794V39.72C22.656 39.4604 22.8662 39.25 23.126 39.25C23.3858 39.25 23.596 39.4604 23.596 39.72V40.5794ZM26.7989 41.0494C27.0586 41.0494 27.2689 40.839 27.2689 40.5794V39.72C27.2689 39.4604 27.0586 39.25 26.7989 39.25C26.5391 39.25 26.3289 39.4604 26.3289 39.72V40.5794C26.3289 40.839 26.5391 41.0494 26.7989 41.0494ZM27.2689 38.0011C27.2689 38.2606 27.0586 38.4711 26.7989 38.4711C26.5391 38.4711 26.3289 38.2606 26.3289 38.0011V37.1416C26.3289 36.8821 26.5391 36.6716 26.7989 36.6716C27.0586 36.6716 27.2689 36.8821 27.2689 37.1416V38.0011ZM26.7989 46.2062C27.0586 46.2062 27.2689 45.9957 27.2689 45.7362V44.8767C27.2689 44.6172 27.0586 44.4067 26.7989 44.4067C26.5391 44.4067 26.3289 44.6172 26.3289 44.8767V45.7362C26.3289 45.9957 26.5391 46.2062 26.7989 46.2062ZM27.2689 43.1578C27.2689 43.4174 27.0586 43.6278 26.7989 43.6278C26.5391 43.6278 26.3289 43.4174 26.3289 43.1578V42.2984C26.3289 42.0388 26.5391 41.8284 26.7989 41.8284C27.0586 41.8284 27.2689 42.0388 27.2689 42.2984V43.1578ZM40.1599 46.2062C40.4197 46.2062 40.6299 45.9957 40.6299 45.7362V44.8767C40.6299 44.6172 40.4197 44.4067 40.1599 44.4067C39.9001 44.4067 39.6899 44.6172 39.6899 44.8767V45.7362C39.6899 45.9957 39.9001 46.2062 40.1599 46.2062ZM40.6299 43.1578C40.6299 43.4174 40.4197 43.6278 40.1599 43.6278C39.9001 43.6278 39.6899 43.4174 39.6899 43.1578V42.2984C39.6899 42.0388 39.9001 41.8284 40.1599 41.8284C40.4197 41.8284 40.6299 42.0388 40.6299 42.2984V43.1578ZM40.1599 38.4711C40.4197 38.4711 40.6299 38.2606 40.6299 38.0011V37.1416C40.6299 36.8821 40.4197 36.6716 40.1599 36.6716C39.9001 36.6716 39.6899 36.8821 39.6899 37.1416V38.0011C39.6899 38.2606 39.9001 38.4711 40.1599 38.4711ZM40.6299 40.5794C40.6299 40.839 40.4197 41.0494 40.1599 41.0494C39.9001 41.0494 39.6899 40.839 39.6899 40.5794V39.72C39.6899 39.4604 39.9001 39.25 40.1599 39.25C40.4197 39.25 40.6299 39.4604 40.6299 39.72V40.5794ZM43.8327 46.2062C44.0925 46.2062 44.3027 45.9957 44.3027 45.7362V44.8767C44.3027 44.6172 44.0925 44.4067 43.8327 44.4067C43.5729 44.4067 43.3627 44.6172 43.3627 44.8767V45.7362C43.3627 45.9957 43.5729 46.2062 43.8327 46.2062ZM44.3027 38.0011C44.3027 38.2606 44.0925 38.4711 43.8327 38.4711C43.5729 38.4711 43.3627 38.2606 43.3627 38.0011V37.1416C43.3627 36.8821 43.5729 36.6716 43.8327 36.6716C44.0925 36.6716 44.3027 36.8821 44.3027 37.1416V38.0011ZM43.8327 43.6278C44.0925 43.6278 44.3027 43.4174 44.3027 43.1578V42.2984C44.3027 42.0388 44.0925 41.8284 43.8327 41.8284C43.5729 41.8284 43.3627 42.0388 43.3627 42.2984V43.1578C43.3627 43.4174 43.5729 43.6278 43.8327 43.6278ZM44.3027 40.5794C44.3027 40.839 44.0925 41.0494 43.8327 41.0494C43.5729 41.0494 43.3627 40.839 43.3627 40.5794V39.72C43.3627 39.4604 43.5729 39.25 43.8327 39.25C44.0925 39.25 44.3027 39.4604 44.3027 39.72V40.5794Z" fill="black"/>
<path d="M22.6566 18.7052L22.9566 18.7031L22.9537 18.2696L22.549 18.4252L22.6566 18.7052ZM23.596 18.4207L23.5325 18.1275L23.296 18.1787V18.4207H23.596ZM26.3288 18.4207H26.6288V18.1787L26.3923 18.1275L26.3288 18.4207ZM27.2682 18.7052L27.3758 18.4251L26.9712 18.2696L26.9682 18.7031L27.2682 18.7052ZM27.2688 30.7478H26.9688V31.1846L27.3765 31.0278L27.2688 30.7478ZM26.3288 31.0325L26.3923 31.3257L26.6288 31.2745V31.0325H26.3288ZM23.596 31.0325H23.296V31.2745L23.5325 31.3257L23.596 31.0325ZM22.656 30.7478L22.5484 31.0278L22.956 31.1846V30.7478H22.656ZM22.656 35.4176H22.956V34.9808L22.5484 35.1376L22.656 35.4176ZM22.656 47.46L22.5484 47.74L22.956 47.8967V47.46H22.656ZM23.596 47.7447H23.296V47.9867L23.5325 48.0379L23.596 47.7447ZM26.3288 47.7447L26.3923 48.0379L26.6288 47.9867V47.7447H26.3288ZM27.2688 47.46H26.9688V47.8967L27.3765 47.74L27.2688 47.46ZM27.2688 35.4176L27.3765 35.1375L26.9688 34.9808V35.4176H27.2688ZM26.3288 35.1329H26.6288V34.8909L26.3923 34.8397L26.3288 35.1329ZM23.596 35.1329L23.5325 34.8397L23.296 34.8909V35.1329H23.596ZM39.6905 18.7052L39.9905 18.7031L39.9875 18.2696L39.5829 18.4251L39.6905 18.7052ZM40.6299 18.4207L40.5664 18.1275L40.3299 18.1787V18.4207H40.6299ZM43.3627 18.4207H43.6627V18.1787L43.4262 18.1275L43.3627 18.4207ZM44.302 18.7052L44.4097 18.4251L44.005 18.2696L44.002 18.7031L44.302 18.7052ZM44.3027 30.7478H44.0027V31.1846L44.4103 31.0278L44.3027 30.7478ZM43.3627 31.0325L43.4262 31.3257L43.6627 31.2745V31.0325H43.3627ZM40.6299 31.0325H40.3299V31.2745L40.5664 31.3257L40.6299 31.0325ZM39.6899 30.7478L39.5822 31.0278L39.9899 31.1846V30.7478H39.6899ZM39.6899 35.4176H39.9899V34.9808L39.5822 35.1375L39.6899 35.4176ZM39.6899 47.46L39.5822 47.74L39.9899 47.8967V47.46H39.6899ZM40.6299 47.7447H40.3299V47.9867L40.5664 48.0379L40.6299 47.7447ZM43.3627 47.7447L43.4262 48.0379L43.6627 47.9867V47.7447H43.3627ZM44.3027 47.46H44.0027V47.8967L44.4103 47.74L44.3027 47.46ZM44.3027 35.4176L44.4103 35.1375L44.0027 34.9808V35.4176H44.3027ZM43.3627 35.1329H43.6627V34.8909L43.4262 34.8397L43.3627 35.1329ZM40.6299 35.1329L40.5664 34.8397L40.3299 34.8909V35.1329H40.6299ZM49.1215 51.9999H17.878V52.5999H49.1215V51.9999ZM52 49.1217C52 50.7084 50.7083 51.9999 49.1215 51.9999V52.5999C51.0396 52.5999 52.6 51.0398 52.6 49.1217H52ZM52 17.8782V49.1217H52.6V17.8782H52ZM49.1215 15C50.7083 15 52 16.2915 52 17.8782H52.6C52.6 15.9601 51.0396 14.4 49.1215 14.4V15ZM17.878 15H49.1215V14.4H17.878V15ZM15 17.8782C15 16.2914 16.2913 15 17.878 15V14.4C15.9599 14.4 14.4 15.9601 14.4 17.8782H15ZM15 49.1217V17.8782H14.4V49.1217H15ZM17.878 51.9999C16.2913 51.9999 15 50.7085 15 49.1217H14.4C14.4 51.0398 15.9599 52.5999 17.878 52.5999V51.9999ZM17.878 15.34C16.4781 15.34 15.34 16.4783 15.34 17.8782H15.94C15.94 16.8096 16.8095 15.94 17.878 15.94V15.34ZM49.1215 15.34H17.878V15.94H49.1215V15.34ZM51.66 17.8782C51.66 16.4783 50.5214 15.34 49.1215 15.34V15.94C50.1901 15.94 51.06 16.8097 51.06 17.8782H51.66ZM51.66 49.1217V17.8782H51.06V49.1217H51.66ZM49.1215 51.6599C50.5214 51.6599 51.66 50.5216 51.66 49.1217H51.06C51.06 50.1902 50.1901 51.0599 49.1215 51.0599V51.6599ZM17.878 51.6599H49.1215V51.0599H17.878V51.6599ZM15.34 49.1217C15.34 50.5216 16.4781 51.6599 17.878 51.6599V51.0599C16.8095 51.0599 15.94 50.1903 15.94 49.1217H15.34ZM15.34 17.8782V49.1217H15.94V17.8782H15.34ZM32.0571 24.7267C32.0571 28.6384 28.8744 31.8212 24.9624 31.8212V32.4212C29.2057 32.4212 32.6571 28.9698 32.6571 24.7267H32.0571ZM24.9624 17.632C28.8743 17.632 32.0571 20.815 32.0571 24.7267H32.6571C32.6571 20.4837 29.2057 17.032 24.9624 17.032V17.632ZM17.8682 24.7267C17.8682 20.815 21.051 17.632 24.9624 17.632V17.032C20.7196 17.032 17.2682 20.4837 17.2682 24.7267H17.8682ZM24.9624 31.8212C21.0509 31.8212 17.8682 28.6384 17.8682 24.7267H17.2682C17.2682 28.9698 20.7196 32.4212 24.9624 32.4212V31.8212ZM23.126 18.8721C23.0331 18.8721 22.9573 18.7972 22.9566 18.7031L22.3567 18.7073C22.3596 19.1293 22.7016 19.4721 23.126 19.4721V18.8721ZM23.296 18.7021C23.296 18.7961 23.22 18.8721 23.126 18.8721V19.4721C23.5516 19.4721 23.896 19.1272 23.896 18.7021H23.296ZM23.296 18.4207V18.7021H23.896V18.4207H23.296ZM24.9624 17.972C24.4705 17.972 23.9928 18.0278 23.5325 18.1275L23.6595 18.7139C24.081 18.6226 24.5161 18.572 24.9624 18.572V17.972ZM26.3923 18.1275C25.932 18.0278 25.4543 17.972 24.9624 17.972V18.572C25.4087 18.572 25.8438 18.6226 26.2653 18.7139L26.3923 18.1275ZM26.6288 18.7021V18.4207H26.0288V18.7021H26.6288ZM26.7988 18.8721C26.7048 18.8721 26.6288 18.7961 26.6288 18.7021H26.0288C26.0288 19.1272 26.3732 19.4721 26.7988 19.4721V18.8721ZM26.9682 18.7031C26.9675 18.7972 26.8917 18.8721 26.7988 18.8721V19.4721C27.2233 19.4721 27.5653 19.1293 27.5682 18.7072L26.9682 18.7031ZM31.7171 24.7267C31.7171 21.8515 29.9091 19.3988 27.3758 18.4251L27.1606 18.9852C29.4715 19.8734 31.1171 22.1098 31.1171 24.7267H31.7171ZM27.3765 31.0278C29.9094 30.0541 31.7171 27.6015 31.7171 24.7267H31.1171C31.1171 27.3432 29.4718 29.5795 27.1612 30.4678L27.3765 31.0278ZM26.9688 30.7346V30.7478H27.5688V30.7346H26.9688ZM26.7988 30.5646C26.8928 30.5646 26.9688 30.6406 26.9688 30.7346H27.5688C27.5688 30.3095 27.2244 29.9646 26.7988 29.9646V30.5646ZM26.6288 30.7346C26.6288 30.6406 26.7048 30.5646 26.7988 30.5646V29.9646C26.3732 29.9646 26.0288 30.3095 26.0288 30.7346H26.6288ZM26.6288 31.0325V30.7346H26.0288V31.0325H26.6288ZM24.9624 31.4812C25.4543 31.4812 25.932 31.4254 26.3923 31.3257L26.2653 30.7393C25.8438 30.8306 25.4087 30.8812 24.9624 30.8812V31.4812ZM23.5325 31.3257C23.9928 31.4254 24.4705 31.4812 24.9624 31.4812V30.8812C24.5161 30.8812 24.081 30.8306 23.6595 30.7393L23.5325 31.3257ZM23.296 30.7346V31.0325H23.896V30.7346H23.296ZM23.126 30.5646C23.22 30.5646 23.296 30.6406 23.296 30.7346H23.896C23.896 30.3095 23.5516 29.9646 23.126 29.9646V30.5646ZM22.956 30.7346C22.956 30.6406 23.032 30.5646 23.126 30.5646V29.9646C22.7005 29.9646 22.356 30.3095 22.356 30.7346H22.956ZM22.956 30.7478V30.7346H22.356V30.7478H22.956ZM18.2082 24.7267C18.2082 27.6014 20.0155 30.054 22.5484 31.0278L22.7637 30.4678C20.4532 29.5794 18.8082 27.3432 18.8082 24.7267H18.2082ZM22.549 18.4252C20.0159 19.3988 18.2082 21.8516 18.2082 24.7267H18.8082C18.8082 22.1098 20.4535 19.8734 22.7643 18.9852L22.549 18.4252ZM24.9624 49.1334C29.2057 49.1334 32.6571 45.682 32.6571 41.4389H32.0571C32.0571 45.3506 28.8744 48.5334 24.9624 48.5334V49.1334ZM17.2682 41.4389C17.2682 45.682 20.7196 49.1334 24.9624 49.1334V48.5334C21.0509 48.5334 17.8682 45.3506 17.8682 41.4389H17.2682ZM24.9624 33.7442C20.7196 33.7442 17.2682 37.1958 17.2682 41.4389H17.8682C17.8682 37.5272 21.051 34.3442 24.9624 34.3442V33.7442ZM32.6571 41.4389C32.6571 37.1958 29.2057 33.7442 24.9624 33.7442V34.3442C28.8743 34.3442 32.0571 37.5272 32.0571 41.4389H32.6571ZM22.356 35.4176V35.4225H22.956V35.4176H22.356ZM18.8082 41.4389C18.8082 38.8222 20.4532 36.5859 22.7637 35.6976L22.5484 35.1376C20.0155 36.1114 18.2082 38.564 18.2082 41.4389H18.8082ZM22.7637 47.1799C20.4532 46.2916 18.8082 44.0554 18.8082 41.4389H18.2082C18.2082 44.3136 20.0155 46.7662 22.5484 47.74L22.7637 47.1799ZM22.356 47.455V47.46H22.956V47.455H22.356ZM23.126 46.685C22.7005 46.685 22.356 47.0299 22.356 47.455H22.956C22.956 47.3611 23.032 47.285 23.126 47.285V46.685ZM23.896 47.455C23.896 47.0299 23.5516 46.685 23.126 46.685V47.285C23.22 47.285 23.296 47.3611 23.296 47.455H23.896ZM23.896 47.7447V47.455H23.296V47.7447H23.896ZM24.9624 47.5934C24.5161 47.5934 24.081 47.5428 23.6595 47.4515L23.5325 48.0379C23.9928 48.1376 24.4705 48.1934 24.9624 48.1934V47.5934ZM26.2653 47.4515C25.8438 47.5428 25.4087 47.5934 24.9624 47.5934V48.1934C25.4543 48.1934 25.932 48.1376 26.3923 48.0379L26.2653 47.4515ZM26.0288 47.455V47.7447H26.6288V47.455H26.0288ZM26.7988 46.685C26.3732 46.685 26.0288 47.0299 26.0288 47.455H26.6288C26.6288 47.3611 26.7048 47.285 26.7988 47.285V46.685ZM27.5688 47.455C27.5688 47.0299 27.2244 46.685 26.7988 46.685V47.285C26.8928 47.285 26.9688 47.3611 26.9688 47.455H27.5688ZM27.5688 47.46V47.455H26.9688V47.46H27.5688ZM31.1171 41.4389C31.1171 44.0554 29.4718 46.2917 27.1612 47.18L27.3765 47.74C29.9094 46.7662 31.7171 44.3136 31.7171 41.4389H31.1171ZM27.1612 35.6976C29.4718 36.5859 31.1171 38.8222 31.1171 41.4389H31.7171C31.7171 38.5639 29.9094 36.1113 27.3765 35.1375L27.1612 35.6976ZM27.5688 35.4225V35.4176H26.9688V35.4225H27.5688ZM26.7988 36.1925C27.2244 36.1925 27.5688 35.8477 27.5688 35.4225H26.9688C26.9688 35.5165 26.8928 35.5925 26.7988 35.5925V36.1925ZM26.0288 35.4225C26.0288 35.8477 26.3732 36.1925 26.7988 36.1925V35.5925C26.7048 35.5925 26.6288 35.5165 26.6288 35.4225H26.0288ZM26.0288 35.1329V35.4225H26.6288V35.1329H26.0288ZM24.9624 35.2842C25.4087 35.2842 25.8438 35.3348 26.2653 35.4261L26.3923 34.8397C25.932 34.74 25.4543 34.6842 24.9624 34.6842V35.2842ZM23.6595 35.4261C24.081 35.3348 24.5161 35.2842 24.9624 35.2842V34.6842C24.4705 34.6842 23.9928 34.74 23.5325 34.8397L23.6595 35.4261ZM23.896 35.4225V35.1329H23.296V35.4225H23.896ZM23.126 36.1925C23.5516 36.1925 23.896 35.8477 23.896 35.4225H23.296C23.296 35.5165 23.22 35.5925 23.126 35.5925V36.1925ZM22.356 35.4225C22.356 35.8477 22.7005 36.1925 23.126 36.1925V35.5925C23.032 35.5925 22.956 35.5165 22.956 35.4225H22.356ZM49.091 24.7267C49.091 28.6384 45.9082 31.8212 41.9963 31.8212V32.4212C46.2396 32.4212 49.691 28.9698 49.691 24.7267H49.091ZM41.9963 17.632C45.9082 17.632 49.091 20.815 49.091 24.7267H49.691C49.691 20.4837 46.2396 17.032 41.9963 17.032V17.632ZM34.9016 24.7267C34.9016 20.815 38.0843 17.632 41.9963 17.632V17.032C37.753 17.032 34.3016 20.4837 34.3016 24.7267H34.9016ZM41.9963 31.8212C38.0843 31.8212 34.9016 28.6384 34.9016 24.7267H34.3016C34.3016 28.9698 37.753 32.4212 41.9963 32.4212V31.8212ZM40.1599 18.8721C40.067 18.8721 39.9911 18.7972 39.9905 18.7031L39.3905 18.7072C39.3934 19.1293 39.7354 19.4721 40.1599 19.4721V18.8721ZM40.3299 18.7021C40.3299 18.7961 40.2539 18.8721 40.1599 18.8721V19.4721C40.5854 19.4721 40.9299 19.1272 40.9299 18.7021H40.3299ZM40.3299 18.4207V18.7021H40.9299V18.4207H40.3299ZM41.9963 17.972C41.5044 17.972 41.0267 18.0278 40.5664 18.1275L40.6934 18.7139C41.1149 18.6226 41.55 18.572 41.9963 18.572V17.972ZM43.4262 18.1275C42.9658 18.0278 42.4881 17.972 41.9963 17.972V18.572C42.4425 18.572 42.8776 18.6226 43.2992 18.7139L43.4262 18.1275ZM43.6627 18.7021V18.4207H43.0627V18.7021H43.6627ZM43.8327 18.8721C43.7387 18.8721 43.6627 18.7961 43.6627 18.7021H43.0627C43.0627 19.1272 43.4071 19.4721 43.8327 19.4721V18.8721ZM44.002 18.7031C44.0014 18.7972 43.9256 18.8721 43.8327 18.8721V19.4721C44.2571 19.4721 44.5991 19.1293 44.602 18.7072L44.002 18.7031ZM48.751 24.7267C48.751 21.8515 46.9429 19.3988 44.4097 18.4251L44.1944 18.9852C46.5053 19.8734 48.151 22.1098 48.151 24.7267H48.751ZM44.4103 31.0278C46.9433 30.0541 48.751 27.6015 48.751 24.7267H48.151C48.151 27.3432 46.5057 29.5795 44.195 30.4678L44.4103 31.0278ZM44.0027 30.7346V30.7478H44.6027V30.7346H44.0027ZM43.8327 30.5646C43.9267 30.5646 44.0027 30.6406 44.0027 30.7346H44.6027C44.6027 30.3095 44.2582 29.9646 43.8327 29.9646V30.5646ZM43.6627 30.7346C43.6627 30.6406 43.7387 30.5646 43.8327 30.5646V29.9646C43.4071 29.9646 43.0627 30.3095 43.0627 30.7346H43.6627ZM43.6627 31.0325V30.7346H43.0627V31.0325H43.6627ZM41.9963 31.4812C42.4881 31.4812 42.9658 31.4254 43.4262 31.3257L43.2991 30.7393C42.8776 30.8306 42.4425 30.8812 41.9963 30.8812V31.4812ZM40.5664 31.3257C41.0267 31.4254 41.5044 31.4812 41.9963 31.4812V30.8812C41.55 30.8812 41.1149 30.8306 40.6934 30.7393L40.5664 31.3257ZM40.3299 30.7346V31.0325H40.9299V30.7346H40.3299ZM40.1599 30.5646C40.2539 30.5646 40.3299 30.6406 40.3299 30.7346H40.9299C40.9299 30.3095 40.5854 29.9646 40.1599 29.9646V30.5646ZM39.9899 30.7346C39.9899 30.6406 40.0659 30.5646 40.1599 30.5646V29.9646C39.7343 29.9646 39.3899 30.3095 39.3899 30.7346H39.9899ZM39.9899 30.7478V30.7346H39.3899V30.7478H39.9899ZM35.2416 24.7267C35.2416 27.6015 37.0493 30.0541 39.5822 31.0278L39.7975 30.4678C37.4869 29.5795 35.8416 27.3432 35.8416 24.7267H35.2416ZM39.5829 18.4251C37.0496 19.3988 35.2416 21.8515 35.2416 24.7267H35.8416C35.8416 22.1098 37.4872 19.8734 39.7981 18.9852L39.5829 18.4251ZM41.9963 49.1334C46.2396 49.1334 49.691 45.682 49.691 41.4389H49.091C49.091 45.3506 45.9082 48.5334 41.9963 48.5334V49.1334ZM34.3016 41.4389C34.3016 45.682 37.753 49.1334 41.9963 49.1334V48.5334C38.0843 48.5334 34.9016 45.3506 34.9016 41.4389H34.3016ZM41.9963 33.7442C37.753 33.7442 34.3016 37.1958 34.3016 41.4389H34.9016C34.9016 37.5272 38.0843 34.3442 41.9963 34.3442V33.7442ZM49.691 41.4389C49.691 37.1958 46.2396 33.7442 41.9963 33.7442V34.3442C45.9082 34.3442 49.091 37.5272 49.091 41.4389H49.691ZM39.3899 35.4176V35.4225H39.9899V35.4176H39.3899ZM35.8416 41.4389C35.8416 38.8222 37.4869 36.5859 39.7975 35.6976L39.5822 35.1375C37.0492 36.1113 35.2416 38.5639 35.2416 41.4389H35.8416ZM39.7975 47.18C37.4869 46.2917 35.8416 44.0554 35.8416 41.4389H35.2416C35.2416 44.3136 37.0493 46.7662 39.5822 47.74L39.7975 47.18ZM39.3899 47.455V47.46H39.9899V47.455H39.3899ZM40.1599 46.685C39.7343 46.685 39.3899 47.0299 39.3899 47.455H39.9899C39.9899 47.3611 40.0659 47.285 40.1599 47.285V46.685ZM40.9299 47.455C40.9299 47.0299 40.5854 46.685 40.1599 46.685V47.285C40.2539 47.285 40.3299 47.3611 40.3299 47.455H40.9299ZM40.9299 47.7447V47.455H40.3299V47.7447H40.9299ZM41.9963 47.5934C41.55 47.5934 41.1149 47.5428 40.6934 47.4515L40.5664 48.0379C41.0267 48.1376 41.5044 48.1934 41.9963 48.1934V47.5934ZM43.2992 47.4515C42.8776 47.5428 42.4425 47.5934 41.9963 47.5934V48.1934C42.4881 48.1934 42.9658 48.1376 43.4262 48.0379L43.2992 47.4515ZM43.0627 47.455V47.7447H43.6627V47.455H43.0627ZM43.8327 46.685C43.4071 46.685 43.0627 47.0299 43.0627 47.455H43.6627C43.6627 47.3611 43.7387 47.285 43.8327 47.285V46.685ZM44.6027 47.455C44.6027 47.0299 44.2582 46.685 43.8327 46.685V47.285C43.9267 47.285 44.0027 47.3611 44.0027 47.455H44.6027ZM44.6027 47.46V47.455H44.0027V47.46H44.6027ZM48.151 41.4389C48.151 44.0554 46.5057 46.2917 44.195 47.18L44.4103 47.74C46.9433 46.7662 48.751 44.3136 48.751 41.4389H48.151ZM44.195 35.6976C46.5056 36.5859 48.151 38.8222 48.151 41.4389H48.751C48.751 38.5639 46.9433 36.1113 44.4103 35.1375L44.195 35.6976ZM44.6027 35.4225V35.4176H44.0027V35.4225H44.6027ZM43.8327 36.1925C44.2582 36.1925 44.6027 35.8477 44.6027 35.4225H44.0027C44.0027 35.5165 43.9267 35.5925 43.8327 35.5925V36.1925ZM43.0627 35.4225C43.0627 35.8477 43.4071 36.1925 43.8327 36.1925V35.5925C43.7387 35.5925 43.6627 35.5165 43.6627 35.4225H43.0627ZM43.0627 35.1329V35.4225H43.6627V35.1329H43.0627ZM41.9963 35.2842C42.4425 35.2842 42.8776 35.3348 43.2992 35.4261L43.4262 34.8397C42.9658 34.74 42.4881 34.6842 41.9963 34.6842V35.2842ZM40.6934 35.4261C41.1149 35.3348 41.55 35.2842 41.9963 35.2842V34.6842C41.5044 34.6842 41.0267 34.74 40.5664 34.8397L40.6934 35.4261ZM40.9299 35.4225V35.1329H40.3299V35.4225H40.9299ZM40.1599 36.1925C40.5854 36.1925 40.9299 35.8477 40.9299 35.4225H40.3299C40.3299 35.5165 40.2539 35.5925 40.1599 35.5925V36.1925ZM39.3899 35.4225C39.3899 35.8477 39.7343 36.1925 40.1599 36.1925V35.5925C40.0659 35.5925 39.9899 35.5165 39.9899 35.4225H39.3899ZM23.296 21.2804C23.296 21.3743 23.22 21.4504 23.126 21.4504V22.0504C23.5516 22.0504 23.896 21.7055 23.896 21.2804H23.296ZM23.296 20.4209V21.2804H23.896V20.4209H23.296ZM23.126 20.2509C23.22 20.2509 23.296 20.327 23.296 20.4209H23.896C23.896 19.9958 23.5516 19.6509 23.126 19.6509V20.2509ZM22.956 20.4209C22.956 20.327 23.032 20.2509 23.126 20.2509V19.6509C22.7004 19.6509 22.356 19.9958 22.356 20.4209H22.956ZM22.956 21.2804V20.4209H22.356V21.2804H22.956ZM23.126 21.4504C23.032 21.4504 22.956 21.3743 22.956 21.2804H22.356C22.356 21.7055 22.7004 22.0504 23.126 22.0504V21.4504ZM23.126 27.2071C23.5516 27.2071 23.896 26.8623 23.896 26.4371H23.296C23.296 26.5311 23.22 26.6071 23.126 26.6071V27.2071ZM22.356 26.4371C22.356 26.8623 22.7004 27.2071 23.126 27.2071V26.6071C23.032 26.6071 22.956 26.5311 22.956 26.4371H22.356ZM22.356 25.5777V26.4371H22.956V25.5777H22.356ZM23.126 24.8077C22.7004 24.8077 22.356 25.1525 22.356 25.5777H22.956C22.956 25.4837 23.032 25.4077 23.126 25.4077V24.8077ZM23.896 25.5777C23.896 25.1525 23.5516 24.8077 23.126 24.8077V25.4077C23.22 25.4077 23.296 25.4837 23.296 25.5777H23.896ZM23.896 26.4371V25.5777H23.296V26.4371H23.896ZM23.296 29.0155C23.296 29.1094 23.22 29.1855 23.126 29.1855V29.7855C23.5516 29.7855 23.896 29.4406 23.896 29.0155H23.296ZM23.296 28.156V29.0155H23.896V28.156H23.296ZM23.126 27.986C23.22 27.986 23.296 28.0621 23.296 28.156H23.896C23.896 27.7309 23.5516 27.386 23.126 27.386V27.986ZM22.956 28.156C22.956 28.0621 23.032 27.986 23.126 27.986V27.386C22.7004 27.386 22.356 27.7309 22.356 28.156H22.956ZM22.956 29.0155V28.156H22.356V29.0155H22.956ZM23.126 29.1855C23.032 29.1855 22.956 29.1094 22.956 29.0155H22.356C22.356 29.4406 22.7004 29.7855 23.126 29.7855V29.1855ZM23.126 24.6287C23.5516 24.6287 23.896 24.2839 23.896 23.8587H23.296C23.296 23.9527 23.22 24.0287 23.126 24.0287V24.6287ZM22.356 23.8587C22.356 24.2839 22.7004 24.6287 23.126 24.6287V24.0287C23.032 24.0287 22.956 23.9527 22.956 23.8587H22.356ZM22.356 22.9993V23.8587H22.956V22.9993H22.356ZM23.126 22.2293C22.7004 22.2293 22.356 22.5742 22.356 22.9993H22.956C22.956 22.9053 23.032 22.8293 23.126 22.8293V22.2293ZM23.896 22.9993C23.896 22.5742 23.5516 22.2293 23.126 22.2293V22.8293C23.22 22.8293 23.296 22.9053 23.296 22.9993H23.896ZM23.896 23.8587V22.9993H23.296V23.8587H23.896ZM26.9689 21.2804C26.9689 21.3743 26.8929 21.4504 26.7989 21.4504V22.0504C27.2244 22.0504 27.5689 21.7055 27.5689 21.2804H26.9689ZM26.9689 20.4209V21.2804H27.5689V20.4209H26.9689ZM26.7989 20.2509C26.8929 20.2509 26.9689 20.327 26.9689 20.4209H27.5689C27.5689 19.9958 27.2244 19.6509 26.7989 19.6509V20.2509ZM26.6289 20.4209C26.6289 20.327 26.7049 20.2509 26.7989 20.2509V19.6509C26.3733 19.6509 26.0289 19.9958 26.0289 20.4209H26.6289ZM26.6289 21.2804V20.4209H26.0289V21.2804H26.6289ZM26.7989 21.4504C26.7049 21.4504 26.6289 21.3743 26.6289 21.2804H26.0289C26.0289 21.7055 26.3733 22.0504 26.7989 22.0504V21.4504ZM26.7989 29.7855C27.2244 29.7855 27.5689 29.4406 27.5689 29.0155H26.9689C26.9689 29.1094 26.8929 29.1855 26.7989 29.1855V29.7855ZM26.0289 29.0155C26.0289 29.4406 26.3733 29.7855 26.7989 29.7855V29.1855C26.7049 29.1855 26.6289 29.1094 26.6289 29.0155H26.0289ZM26.0289 28.156V29.0155H26.6289V28.156H26.0289ZM26.7989 27.386C26.3733 27.386 26.0289 27.7309 26.0289 28.156H26.6289C26.6289 28.0621 26.7049 27.986 26.7989 27.986V27.386ZM27.5689 28.156C27.5689 27.7309 27.2244 27.386 26.7989 27.386V27.986C26.8929 27.986 26.9689 28.0621 26.9689 28.156H27.5689ZM27.5689 29.0155V28.156H26.9689V29.0155H27.5689ZM26.9689 23.8587C26.9689 23.9527 26.8929 24.0287 26.7989 24.0287V24.6287C27.2244 24.6287 27.5689 24.2839 27.5689 23.8587H26.9689ZM26.9689 22.9993V23.8587H27.5689V22.9993H26.9689ZM26.7989 22.8293C26.8929 22.8293 26.9689 22.9053 26.9689 22.9993H27.5689C27.5689 22.5742 27.2244 22.2293 26.7989 22.2293V22.8293ZM26.6289 22.9993C26.6289 22.9053 26.7049 22.8293 26.7989 22.8293V22.2293C26.3733 22.2293 26.0289 22.5742 26.0289 22.9993H26.6289ZM26.6289 23.8587V22.9993H26.0289V23.8587H26.6289ZM26.7989 24.0287C26.7049 24.0287 26.6289 23.9527 26.6289 23.8587H26.0289C26.0289 24.2839 26.3733 24.6287 26.7989 24.6287V24.0287ZM26.7989 27.2071C27.2244 27.2071 27.5689 26.8623 27.5689 26.4371H26.9689C26.9689 26.5311 26.8929 26.6071 26.7989 26.6071V27.2071ZM26.0289 26.4371C26.0289 26.8623 26.3733 27.2071 26.7989 27.2071V26.6071C26.7049 26.6071 26.6289 26.5311 26.6289 26.4371H26.0289ZM26.0289 25.5777V26.4371H26.6289V25.5777H26.0289ZM26.7989 24.8077C26.3733 24.8077 26.0289 25.1525 26.0289 25.5777H26.6289C26.6289 25.4837 26.7049 25.4077 26.7989 25.4077V24.8077ZM27.5689 25.5777C27.5689 25.1525 27.2244 24.8077 26.7989 24.8077V25.4077C26.8929 25.4077 26.9689 25.4837 26.9689 25.5777H27.5689ZM27.5689 26.4371V25.5777H26.9689V26.4371H27.5689ZM40.3299 26.4371C40.3299 26.5311 40.2539 26.6071 40.1599 26.6071V27.2071C40.5854 27.2071 40.9299 26.8623 40.9299 26.4371H40.3299ZM40.3299 25.5777V26.4371H40.9299V25.5777H40.3299ZM40.1599 25.4077C40.2539 25.4077 40.3299 25.4837 40.3299 25.5777H40.9299C40.9299 25.1525 40.5854 24.8077 40.1599 24.8077V25.4077ZM39.9899 25.5777C39.9899 25.4837 40.0659 25.4077 40.1599 25.4077V24.8077C39.7343 24.8077 39.3899 25.1525 39.3899 25.5777H39.9899ZM39.9899 26.4371V25.5777H39.3899V26.4371H39.9899ZM40.1599 26.6071C40.0659 26.6071 39.9899 26.5311 39.9899 26.4371H39.3899C39.3899 26.8623 39.7343 27.2071 40.1599 27.2071V26.6071ZM40.1599 24.6287C40.5854 24.6287 40.9299 24.2839 40.9299 23.8587H40.3299C40.3299 23.9527 40.2539 24.0287 40.1599 24.0287V24.6287ZM39.3899 23.8587C39.3899 24.2839 39.7343 24.6287 40.1599 24.6287V24.0287C40.0659 24.0287 39.9899 23.9527 39.9899 23.8587H39.3899ZM39.3899 22.9993V23.8587H39.9899V22.9993H39.3899ZM40.1599 22.2293C39.7343 22.2293 39.3899 22.5742 39.3899 22.9993H39.9899C39.9899 22.9053 40.0659 22.8293 40.1599 22.8293V22.2293ZM40.9299 22.9993C40.9299 22.5742 40.5854 22.2293 40.1599 22.2293V22.8293C40.2539 22.8293 40.3299 22.9053 40.3299 22.9993H40.9299ZM40.9299 23.8587V22.9993H40.3299V23.8587H40.9299ZM40.3299 21.2804C40.3299 21.3743 40.2539 21.4504 40.1599 21.4504V22.0504C40.5854 22.0504 40.9299 21.7055 40.9299 21.2804H40.3299ZM40.3299 20.4209V21.2804H40.9299V20.4209H40.3299ZM40.1599 20.2509C40.2539 20.2509 40.3299 20.327 40.3299 20.4209H40.9299C40.9299 19.9958 40.5854 19.6509 40.1599 19.6509V20.2509ZM39.9899 20.4209C39.9899 20.327 40.0659 20.2509 40.1599 20.2509V19.6509C39.7343 19.6509 39.3899 19.9958 39.3899 20.4209H39.9899ZM39.9899 21.2804V20.4209H39.3899V21.2804H39.9899ZM40.1599 21.4504C40.0659 21.4504 39.9899 21.3743 39.9899 21.2804H39.3899C39.3899 21.7055 39.7343 22.0504 40.1599 22.0504V21.4504ZM40.1599 29.7855C40.5854 29.7855 40.9299 29.4406 40.9299 29.0155H40.3299C40.3299 29.1094 40.2539 29.1855 40.1599 29.1855V29.7855ZM39.3899 29.0155C39.3899 29.4406 39.7343 29.7855 40.1599 29.7855V29.1855C40.0659 29.1855 39.9899 29.1094 39.9899 29.0155H39.3899ZM39.3899 28.156V29.0155H39.9899V28.156H39.3899ZM40.1599 27.386C39.7343 27.386 39.3899 27.7309 39.3899 28.156H39.9899C39.9899 28.0621 40.0659 27.986 40.1599 27.986V27.386ZM40.9299 28.156C40.9299 27.7309 40.5854 27.386 40.1599 27.386V27.986C40.2539 27.986 40.3299 28.0621 40.3299 28.156H40.9299ZM40.9299 29.0155V28.156H40.3299V29.0155H40.9299ZM44.0027 23.8587C44.0027 23.9527 43.9267 24.0287 43.8327 24.0287V24.6287C44.2582 24.6287 44.6027 24.2839 44.6027 23.8587H44.0027ZM44.0027 22.9993V23.8587H44.6027V22.9993H44.0027ZM43.8327 22.8293C43.9267 22.8293 44.0027 22.9053 44.0027 22.9993H44.6027C44.6027 22.5742 44.2582 22.2293 43.8327 22.2293V22.8293ZM43.6627 22.9993C43.6627 22.9053 43.7387 22.8293 43.8327 22.8293V22.2293C43.4071 22.2293 43.0627 22.5742 43.0627 22.9993H43.6627ZM43.6627 23.8587V22.9993H43.0627V23.8587H43.6627ZM43.8327 24.0287C43.7387 24.0287 43.6627 23.9527 43.6627 23.8587H43.0627C43.0627 24.2839 43.4071 24.6287 43.8327 24.6287V24.0287ZM43.8327 22.0504C44.2582 22.0504 44.6027 21.7055 44.6027 21.2804H44.0027C44.0027 21.3743 43.9267 21.4504 43.8327 21.4504V22.0504ZM43.0627 21.2804C43.0627 21.7055 43.4071 22.0504 43.8327 22.0504V21.4504C43.7387 21.4504 43.6627 21.3743 43.6627 21.2804H43.0627ZM43.0627 20.4209V21.2804H43.6627V20.4209H43.0627ZM43.8327 19.6509C43.4071 19.6509 43.0627 19.9958 43.0627 20.4209H43.6627C43.6627 20.327 43.7387 20.2509 43.8327 20.2509V19.6509ZM44.6027 20.4209C44.6027 19.9958 44.2582 19.6509 43.8327 19.6509V20.2509C43.9267 20.2509 44.0027 20.327 44.0027 20.4209H44.6027ZM44.6027 21.2804V20.4209H44.0027V21.2804H44.6027ZM44.0027 29.0155C44.0027 29.1094 43.9267 29.1855 43.8327 29.1855V29.7855C44.2582 29.7855 44.6027 29.4406 44.6027 29.0155H44.0027ZM44.0027 28.156V29.0155H44.6027V28.156H44.0027ZM43.8327 27.986C43.9267 27.986 44.0027 28.0621 44.0027 28.156H44.6027C44.6027 27.7309 44.2582 27.386 43.8327 27.386V27.986ZM43.6627 28.156C43.6627 28.0621 43.7387 27.986 43.8327 27.986V27.386C43.4071 27.386 43.0627 27.7309 43.0627 28.156H43.6627ZM43.6627 29.0155V28.156H43.0627V29.0155H43.6627ZM43.8327 29.1855C43.7387 29.1855 43.6627 29.1094 43.6627 29.0155H43.0627C43.0627 29.4406 43.4071 29.7855 43.8327 29.7855V29.1855ZM43.8327 27.2071C44.2582 27.2071 44.6027 26.8623 44.6027 26.4371H44.0027C44.0027 26.5311 43.9267 26.6071 43.8327 26.6071V27.2071ZM43.0627 26.4371C43.0627 26.8623 43.4071 27.2071 43.8327 27.2071V26.6071C43.7387 26.6071 43.6627 26.5311 43.6627 26.4371H43.0627ZM43.0627 25.5777V26.4371H43.6627V25.5777H43.0627ZM43.8327 24.8077C43.4071 24.8077 43.0627 25.1525 43.0627 25.5777H43.6627C43.6627 25.4837 43.7387 25.4077 43.8327 25.4077V24.8077ZM44.6027 25.5777C44.6027 25.1525 44.2582 24.8077 43.8327 24.8077V25.4077C43.9267 25.4077 44.0027 25.4837 44.0027 25.5777H44.6027ZM44.6027 26.4371V25.5777H44.0027V26.4371H44.6027ZM23.296 45.7362C23.296 45.8302 23.22 45.9062 23.126 45.9062V46.5062C23.5516 46.5062 23.896 46.1613 23.896 45.7362H23.296ZM23.296 44.8767V45.7362H23.896V44.8767H23.296ZM23.126 44.7067C23.22 44.7067 23.296 44.7828 23.296 44.8767H23.896C23.896 44.4516 23.5516 44.1067 23.126 44.1067V44.7067ZM22.956 44.8767C22.956 44.7828 23.032 44.7067 23.126 44.7067V44.1067C22.7004 44.1067 22.356 44.4516 22.356 44.8767H22.956ZM22.956 45.7362V44.8767H22.356V45.7362H22.956ZM23.126 45.9062C23.032 45.9062 22.956 45.8302 22.956 45.7362H22.356C22.356 46.1613 22.7004 46.5062 23.126 46.5062V45.9062ZM23.126 38.7711C23.5516 38.7711 23.896 38.4262 23.896 38.0011H23.296C23.296 38.095 23.22 38.1711 23.126 38.1711V38.7711ZM22.356 38.0011C22.356 38.4262 22.7004 38.7711 23.126 38.7711V38.1711C23.032 38.1711 22.956 38.095 22.956 38.0011H22.356ZM22.356 37.1416V38.0011H22.956V37.1416H22.356ZM23.126 36.3716C22.7004 36.3716 22.356 36.7165 22.356 37.1416H22.956C22.956 37.0477 23.032 36.9716 23.126 36.9716V36.3716ZM23.896 37.1416C23.896 36.7165 23.5516 36.3716 23.126 36.3716V36.9716C23.22 36.9716 23.296 37.0477 23.296 37.1416H23.896ZM23.896 38.0011V37.1416H23.296V38.0011H23.896ZM23.296 43.1578C23.296 43.2518 23.22 43.3278 23.126 43.3278V43.9278C23.5516 43.9278 23.896 43.583 23.896 43.1578H23.296ZM23.296 42.2984V43.1578H23.896V42.2984H23.296ZM23.126 42.1284C23.22 42.1284 23.296 42.2044 23.296 42.2984H23.896C23.896 41.8732 23.5516 41.5284 23.126 41.5284V42.1284ZM22.956 42.2984C22.956 42.2044 23.032 42.1284 23.126 42.1284V41.5284C22.7004 41.5284 22.356 41.8732 22.356 42.2984H22.956ZM22.956 43.1578V42.2984H22.356V43.1578H22.956ZM23.126 43.3278C23.032 43.3278 22.956 43.2518 22.956 43.1578H22.356C22.356 43.583 22.7004 43.9278 23.126 43.9278V43.3278ZM23.126 41.3494C23.5516 41.3494 23.896 41.0046 23.896 40.5794H23.296C23.296 40.6734 23.22 40.7494 23.126 40.7494V41.3494ZM22.356 40.5794C22.356 41.0046 22.7004 41.3494 23.126 41.3494V40.7494C23.032 40.7494 22.956 40.6734 22.956 40.5794H22.356ZM22.356 39.72V40.5794H22.956V39.72H22.356ZM23.126 38.95C22.7004 38.95 22.356 39.2949 22.356 39.72H22.956C22.956 39.626 23.032 39.55 23.126 39.55V38.95ZM23.896 39.72C23.896 39.2949 23.5516 38.95 23.126 38.95V39.55C23.22 39.55 23.296 39.626 23.296 39.72H23.896ZM23.896 40.5794V39.72H23.296V40.5794H23.896ZM26.9689 40.5794C26.9689 40.6734 26.8929 40.7494 26.7989 40.7494V41.3494C27.2244 41.3494 27.5689 41.0046 27.5689 40.5794H26.9689ZM26.9689 39.72V40.5794H27.5689V39.72H26.9689ZM26.7989 39.55C26.8929 39.55 26.9689 39.626 26.9689 39.72H27.5689C27.5689 39.2949 27.2244 38.95 26.7989 38.95V39.55ZM26.6289 39.72C26.6289 39.626 26.7049 39.55 26.7989 39.55V38.95C26.3733 38.95 26.0289 39.2949 26.0289 39.72H26.6289ZM26.6289 40.5794V39.72H26.0289V40.5794H26.6289ZM26.7989 40.7494C26.7049 40.7494 26.6289 40.6734 26.6289 40.5794H26.0289C26.0289 41.0046 26.3733 41.3494 26.7989 41.3494V40.7494ZM26.7989 38.7711C27.2244 38.7711 27.5689 38.4262 27.5689 38.0011H26.9689C26.9689 38.095 26.8929 38.1711 26.7989 38.1711V38.7711ZM26.0289 38.0011C26.0289 38.4262 26.3733 38.7711 26.7989 38.7711V38.1711C26.7049 38.1711 26.6289 38.095 26.6289 38.0011H26.0289ZM26.0289 37.1416V38.0011H26.6289V37.1416H26.0289ZM26.7989 36.3716C26.3733 36.3716 26.0289 36.7165 26.0289 37.1416H26.6289C26.6289 37.0477 26.7049 36.9716 26.7989 36.9716V36.3716ZM27.5689 37.1416C27.5689 36.7165 27.2244 36.3716 26.7989 36.3716V36.9716C26.8929 36.9716 26.9689 37.0477 26.9689 37.1416H27.5689ZM27.5689 38.0011V37.1416H26.9689V38.0011H27.5689ZM26.9689 45.7362C26.9689 45.8302 26.8929 45.9062 26.7989 45.9062V46.5062C27.2244 46.5062 27.5689 46.1613 27.5689 45.7362H26.9689ZM26.9689 44.8767V45.7362H27.5689V44.8767H26.9689ZM26.7989 44.7067C26.8929 44.7067 26.9689 44.7828 26.9689 44.8767H27.5689C27.5689 44.4516 27.2244 44.1067 26.7989 44.1067V44.7067ZM26.6289 44.8767C26.6289 44.7828 26.7049 44.7067 26.7989 44.7067V44.1067C26.3733 44.1067 26.0289 44.4516 26.0289 44.8767H26.6289ZM26.6289 45.7362V44.8767H26.0289V45.7362H26.6289ZM26.7989 45.9062C26.7049 45.9062 26.6289 45.8302 26.6289 45.7362H26.0289C26.0289 46.1613 26.3733 46.5062 26.7989 46.5062V45.9062ZM26.7989 43.9278C27.2244 43.9278 27.5689 43.583 27.5689 43.1578H26.9689C26.9689 43.2518 26.8929 43.3278 26.7989 43.3278V43.9278ZM26.0289 43.1578C26.0289 43.583 26.3733 43.9278 26.7989 43.9278V43.3278C26.7049 43.3278 26.6289 43.2518 26.6289 43.1578H26.0289ZM26.0289 42.2984V43.1578H26.6289V42.2984H26.0289ZM26.7989 41.5284C26.3733 41.5284 26.0289 41.8732 26.0289 42.2984H26.6289C26.6289 42.2044 26.7049 42.1284 26.7989 42.1284V41.5284ZM27.5689 42.2984C27.5689 41.8732 27.2244 41.5284 26.7989 41.5284V42.1284C26.8929 42.1284 26.9689 42.2044 26.9689 42.2984H27.5689ZM27.5689 43.1578V42.2984H26.9689V43.1578H27.5689ZM40.3299 45.7362C40.3299 45.8302 40.2539 45.9062 40.1599 45.9062V46.5062C40.5854 46.5062 40.9299 46.1613 40.9299 45.7362H40.3299ZM40.3299 44.8767V45.7362H40.9299V44.8767H40.3299ZM40.1599 44.7067C40.2539 44.7067 40.3299 44.7828 40.3299 44.8767H40.9299C40.9299 44.4516 40.5854 44.1067 40.1599 44.1067V44.7067ZM39.9899 44.8767C39.9899 44.7828 40.0659 44.7067 40.1599 44.7067V44.1067C39.7343 44.1067 39.3899 44.4516 39.3899 44.8767H39.9899ZM39.9899 45.7362V44.8767H39.3899V45.7362H39.9899ZM40.1599 45.9062C40.0659 45.9062 39.9899 45.8302 39.9899 45.7362H39.3899C39.3899 46.1613 39.7343 46.5062 40.1599 46.5062V45.9062ZM40.1599 43.9278C40.5854 43.9278 40.9299 43.583 40.9299 43.1578H40.3299C40.3299 43.2518 40.2539 43.3278 40.1599 43.3278V43.9278ZM39.3899 43.1578C39.3899 43.583 39.7343 43.9278 40.1599 43.9278V43.3278C40.0659 43.3278 39.9899 43.2518 39.9899 43.1578H39.3899ZM39.3899 42.2984V43.1578H39.9899V42.2984H39.3899ZM40.1599 41.5284C39.7343 41.5284 39.3899 41.8732 39.3899 42.2984H39.9899C39.9899 42.2044 40.0659 42.1284 40.1599 42.1284V41.5284ZM40.9299 42.2984C40.9299 41.8732 40.5854 41.5284 40.1599 41.5284V42.1284C40.2539 42.1284 40.3299 42.2044 40.3299 42.2984H40.9299ZM40.9299 43.1578V42.2984H40.3299V43.1578H40.9299ZM40.3299 38.0011C40.3299 38.095 40.2539 38.1711 40.1599 38.1711V38.7711C40.5854 38.7711 40.9299 38.4262 40.9299 38.0011H40.3299ZM40.3299 37.1416V38.0011H40.9299V37.1416H40.3299ZM40.1599 36.9716C40.2539 36.9716 40.3299 37.0477 40.3299 37.1416H40.9299C40.9299 36.7165 40.5854 36.3716 40.1599 36.3716V36.9716ZM39.9899 37.1416C39.9899 37.0477 40.0659 36.9716 40.1599 36.9716V36.3716C39.7343 36.3716 39.3899 36.7165 39.3899 37.1416H39.9899ZM39.9899 38.0011V37.1416H39.3899V38.0011H39.9899ZM40.1599 38.1711C40.0659 38.1711 39.9899 38.095 39.9899 38.0011H39.3899C39.3899 38.4262 39.7343 38.7711 40.1599 38.7711V38.1711ZM40.1599 41.3494C40.5854 41.3494 40.9299 41.0046 40.9299 40.5794H40.3299C40.3299 40.6734 40.2539 40.7494 40.1599 40.7494V41.3494ZM39.3899 40.5794C39.3899 41.0046 39.7343 41.3494 40.1599 41.3494V40.7494C40.0659 40.7494 39.9899 40.6734 39.9899 40.5794H39.3899ZM39.3899 39.72V40.5794H39.9899V39.72H39.3899ZM40.1599 38.95C39.7343 38.95 39.3899 39.2949 39.3899 39.72H39.9899C39.9899 39.626 40.0659 39.55 40.1599 39.55V38.95ZM40.9299 39.72C40.9299 39.2949 40.5854 38.95 40.1599 38.95V39.55C40.2539 39.55 40.3299 39.626 40.3299 39.72H40.9299ZM40.9299 40.5794V39.72H40.3299V40.5794H40.9299ZM44.0027 45.7362C44.0027 45.8302 43.9267 45.9062 43.8327 45.9062V46.5062C44.2582 46.5062 44.6027 46.1613 44.6027 45.7362H44.0027ZM44.0027 44.8767V45.7362H44.6027V44.8767H44.0027ZM43.8327 44.7067C43.9267 44.7067 44.0027 44.7828 44.0027 44.8767H44.6027C44.6027 44.4516 44.2582 44.1067 43.8327 44.1067V44.7067ZM43.6627 44.8767C43.6627 44.7828 43.7387 44.7067 43.8327 44.7067V44.1067C43.4071 44.1067 43.0627 44.4516 43.0627 44.8767H43.6627ZM43.6627 45.7362V44.8767H43.0627V45.7362H43.6627ZM43.8327 45.9062C43.7387 45.9062 43.6627 45.8302 43.6627 45.7362H43.0627C43.0627 46.1613 43.4071 46.5062 43.8327 46.5062V45.9062ZM43.8327 38.7711C44.2582 38.7711 44.6027 38.4262 44.6027 38.0011H44.0027C44.0027 38.095 43.9267 38.1711 43.8327 38.1711V38.7711ZM43.0627 38.0011C43.0627 38.4262 43.4071 38.7711 43.8327 38.7711V38.1711C43.7387 38.1711 43.6627 38.095 43.6627 38.0011H43.0627ZM43.0627 37.1416V38.0011H43.6627V37.1416H43.0627ZM43.8327 36.3716C43.4071 36.3716 43.0627 36.7165 43.0627 37.1416H43.6627C43.6627 37.0477 43.7387 36.9716 43.8327 36.9716V36.3716ZM44.6027 37.1416C44.6027 36.7165 44.2582 36.3716 43.8327 36.3716V36.9716C43.9267 36.9716 44.0027 37.0477 44.0027 37.1416H44.6027ZM44.6027 38.0011V37.1416H44.0027V38.0011H44.6027ZM44.0027 43.1578C44.0027 43.2518 43.9267 43.3278 43.8327 43.3278V43.9278C44.2582 43.9278 44.6027 43.583 44.6027 43.1578H44.0027ZM44.0027 42.2984V43.1578H44.6027V42.2984H44.0027ZM43.8327 42.1284C43.9267 42.1284 44.0027 42.2044 44.0027 42.2984H44.6027C44.6027 41.8732 44.2582 41.5284 43.8327 41.5284V42.1284ZM43.6627 42.2984C43.6627 42.2044 43.7387 42.1284 43.8327 42.1284V41.5284C43.4071 41.5284 43.0627 41.8732 43.0627 42.2984H43.6627ZM43.6627 43.1578V42.2984H43.0627V43.1578H43.6627ZM43.8327 43.3278C43.7387 43.3278 43.6627 43.2518 43.6627 43.1578H43.0627C43.0627 43.583 43.4071 43.9278 43.8327 43.9278V43.3278ZM43.8327 41.3494C44.2582 41.3494 44.6027 41.0046 44.6027 40.5794H44.0027C44.0027 40.6734 43.9267 40.7494 43.8327 40.7494V41.3494ZM43.0627 40.5794C43.0627 41.0046 43.4071 41.3494 43.8327 41.3494V40.7494C43.7387 40.7494 43.6627 40.6734 43.6627 40.5794H43.0627ZM43.0627 39.72V40.5794H43.6627V39.72H43.0627ZM43.8327 38.95C43.4071 38.95 43.0627 39.2949 43.0627 39.72H43.6627C43.6627 39.626 43.7387 39.55 43.8327 39.55V38.95ZM44.6027 39.72C44.6027 39.2949 44.2582 38.95 43.8327 38.95V39.55C43.9267 39.55 44.0027 39.626 44.0027 39.72H44.6027ZM44.6027 40.5794V39.72H44.0027V40.5794H44.6027Z" fill="black" mask="url(#path-1-outside-1)"/>
</svg>
