<svg width="68" height="68" viewBox="0 0 68 68" fill="none" xmlns="http://www.w3.org/2000/svg">
<path d="M21.1988 17.8098C19.3181 19.6886 17.421 22.245 17 24.6641C17.0634 29.7352 21.4724 35.2426 26.57 40.3356C29.0947 42.8579 31.8274 45.3931 34.524 47.2374C37.2205 49.0816 39.902 50.3169 42.462 49.9285C44.7214 49.6834 47.5066 47.3083 49.1959 45.7177C50.3101 44.5995 50.2252 42.524 49.1959 41.4595L44.902 37.1696C43.5756 36.0748 41.8556 36.1258 40.4656 36.8214L37.5819 38.9426C36.8577 39.2018 36.0344 38.5506 35.538 38.1988C34.3728 37.3656 33.0333 36.0606 31.9571 34.9854C30.8622 33.8914 29.5371 32.6334 28.709 31.5186C28.1648 30.821 27.8243 30.0719 28.0119 29.35C28.7336 28.3521 29.4996 27.3407 30.1984 26.3423C30.8296 24.932 30.809 23.1105 29.8181 22.0841L25.5401 17.8259C24.0694 16.6532 22.6236 16.8037 21.1988 17.8097V17.8098ZM24.1142 19.2502L28.3764 23.5244C28.757 24.1357 28.6103 24.7267 28.408 25.3764L26.38 28.1467C25.4367 29.8102 26.1145 31.4298 27.0771 32.7373C28.0808 34.0885 29.4765 35.356 30.5312 36.4098C31.6097 37.4873 32.9682 38.8729 34.3497 39.8607C35.6309 40.7679 37.4383 41.4655 38.7861 40.573C39.7039 39.8959 40.6239 39.2218 41.543 38.5465C42.255 38.2651 42.8323 38.2768 43.4761 38.6099L47.7541 42.8839C48.0643 43.3727 48.005 43.7434 47.7858 44.2453C46.0026 45.5723 44.1746 47.5346 42.1452 47.9335C40.4885 48.1777 38.1678 47.271 35.6649 45.5592C33.1546 43.8423 30.4958 41.3921 28.012 38.9106C23.0792 33.9824 19.1529 28.5432 19.044 24.7271C19.3454 23.1877 20.6716 21.3212 22.5932 19.2817C23.1542 18.8591 23.5507 18.9769 24.1142 19.2502L24.1142 19.2502Z" fill="black"/>
</svg>
