<svg width="68" height="68" viewBox="0 0 68 68" fill="none" xmlns="http://www.w3.org/2000/svg">
<mask id="path-1-inside-1" fill="white">
<path fill-rule="evenodd" clip-rule="evenodd" d="M17.7943 43.1249L16.3496 44.152C16.2938 44.1916 16.2305 44.2194 16.1636 44.2336L13.7468 44.7467C13.6313 44.7712 13.5109 44.7542 13.4068 44.6985L11.4103 43.631C11.2475 43.5439 11.1458 43.3743 11.1458 43.1896V42.1168C11.1458 41.9301 11.2497 41.7589 11.4154 41.6728L11.9113 41.4148V39.7204L10.064 34.6509L9.60522 33.0016C9.55777 32.831 9.60398 32.648 9.72675 32.5204L10.2479 31.9788L9.09788 30.4215C9.00307 30.2931 8.97518 30.1272 9.0228 29.9748L9.95783 26.9836C9.99241 26.873 10.0643 26.7778 10.1612 26.7143L13.3685 24.6126C13.3928 24.5967 14.4033 24.257 16.4 23.5935C16.4281 23.5842 17.0056 23.5475 18.1325 23.4833L19.4285 21.4291V20.4639C19.4285 20.3213 19.4894 20.1854 19.5958 20.0904L20.2991 19.4631C20.3808 19.3902 20.4841 19.3461 20.5933 19.3376L21.6381 19.256L23.3986 16.8533C23.4602 16.7694 23.5463 16.7067 23.6451 16.674L25.3692 16.1036C25.5335 16.0492 25.7142 16.0836 25.8471 16.1945L27.1593 17.2896H28.0379L29.1508 14.7011C29.191 14.6077 29.2587 14.5288 29.3448 14.4747L31.4742 13.1402C31.6138 13.0527 31.7876 13.0395 31.9389 13.105L34.8744 14.376L36.9794 13.9285C37.3687 13.8457 37.6941 14.2283 37.5501 14.5992L36.3274 17.7472L38.2076 19.4245L40.8926 20.8831L41.6544 19.6778L41.8455 16.5482L42.7118 12.3979C42.8049 11.9547 43.3918 11.8531 43.6284 12.2393L45.0673 14.5876C45.0905 14.6255 45.1085 14.6663 45.121 14.7089L45.7291 16.7937L46.8728 17.3382C47.0029 17.4002 47.1 17.5152 47.1392 17.6538L47.8961 20.3278L48.4496 22.286L51.2539 24.1677C51.3563 24.2365 51.4298 24.3406 51.4601 24.4602L51.7329 25.5345L53.4127 26.923C53.4698 26.9703 53.5158 27.0297 53.5472 27.0969L54.4525 29.0342L56.2685 30.8192C56.3464 30.8957 56.3971 30.9956 56.4129 31.1036L56.9947 35.0745C57.0021 35.125 57.0017 35.1762 56.9937 35.2266L56.3124 39.4627C56.3003 39.538 56.2711 39.6095 56.2271 39.6719L54.3366 42.3493L53.0478 45.9753L52.8551 47.7892C52.8318 48.0085 52.6676 48.1868 52.4509 48.228L49.9211 48.7088L48.3575 50.1516C48.1885 50.3076 47.9349 50.3283 47.7428 50.2018L46.4239 49.3335L45.5651 50.1883C45.4134 50.3393 45.1824 50.3771 44.9905 50.2823L43.048 49.3234L40.9369 48.9869C40.7497 48.9571 40.5955 48.8242 40.5384 48.6434L39.5417 45.4882H38.891C38.6359 45.4882 38.4216 45.2963 38.3935 45.0428L38.2952 44.1537L37.6851 44.6465C37.3148 44.9457 36.7752 44.6074 36.8832 44.1437L37.1582 42.9619L36.0996 44.087C35.8695 44.3316 35.4685 44.2846 35.3012 43.9934L33.9047 41.5631L32.7301 40.2818H31.74C31.6864 40.2818 31.6332 40.2732 31.5824 40.2564L30.4593 39.8837H28.4595L26.3028 40.7042C26.2459 40.7259 26.1856 40.7369 26.1248 40.7369H24.3664L22.6016 41.6038L22.3983 42.7145C22.3548 42.9522 22.1477 43.1249 21.906 43.1249H17.7943ZM50.4138 52.0099C50.7533 51.9396 51.0597 52.2273 51.0109 52.5705L50.4948 56.1973C50.4759 56.3301 50.4044 56.4498 50.2965 56.5294L49.1221 57.3964C49.036 57.4599 48.9319 57.4942 48.8249 57.4942H47.6C47.4114 57.4942 47.2389 57.3882 47.1536 57.2201L46.326 55.5882C46.3055 55.5478 46.2906 55.5048 46.2817 55.4605L45.7023 52.579C45.6312 52.2253 45.9463 51.9148 46.2989 51.9911L48.3564 52.4364L50.4138 52.0099Z"/>
</mask>
<path fill-rule="evenodd" clip-rule="evenodd" d="M17.7943 43.1249L16.3496 44.152C16.2938 44.1916 16.2305 44.2194 16.1636 44.2336L13.7468 44.7467C13.6313 44.7712 13.5109 44.7542 13.4068 44.6985L11.4103 43.631C11.2475 43.5439 11.1458 43.3743 11.1458 43.1896V42.1168C11.1458 41.9301 11.2497 41.7589 11.4154 41.6728L11.9113 41.4148V39.7204L10.064 34.6509L9.60522 33.0016C9.55777 32.831 9.60398 32.648 9.72675 32.5204L10.2479 31.9788L9.09788 30.4215C9.00307 30.2931 8.97518 30.1272 9.0228 29.9748L9.95783 26.9836C9.99241 26.873 10.0643 26.7778 10.1612 26.7143L13.3685 24.6126C13.3928 24.5967 14.4033 24.257 16.4 23.5935C16.4281 23.5842 17.0056 23.5475 18.1325 23.4833L19.4285 21.4291V20.4639C19.4285 20.3213 19.4894 20.1854 19.5958 20.0904L20.2991 19.4631C20.3808 19.3902 20.4841 19.3461 20.5933 19.3376L21.6381 19.256L23.3986 16.8533C23.4602 16.7694 23.5463 16.7067 23.6451 16.674L25.3692 16.1036C25.5335 16.0492 25.7142 16.0836 25.8471 16.1945L27.1593 17.2896H28.0379L29.1508 14.7011C29.191 14.6077 29.2587 14.5288 29.3448 14.4747L31.4742 13.1402C31.6138 13.0527 31.7876 13.0395 31.9389 13.105L34.8744 14.376L36.9794 13.9285C37.3687 13.8457 37.6941 14.2283 37.5501 14.5992L36.3274 17.7472L38.2076 19.4245L40.8926 20.8831L41.6544 19.6778L41.8455 16.5482L42.7118 12.3979C42.8049 11.9547 43.3918 11.8531 43.6284 12.2393L45.0673 14.5876C45.0905 14.6255 45.1085 14.6663 45.121 14.7089L45.7291 16.7937L46.8728 17.3382C47.0029 17.4002 47.1 17.5152 47.1392 17.6538L47.8961 20.3278L48.4496 22.286L51.2539 24.1677C51.3563 24.2365 51.4298 24.3406 51.4601 24.4602L51.7329 25.5345L53.4127 26.923C53.4698 26.9703 53.5158 27.0297 53.5472 27.0969L54.4525 29.0342L56.2685 30.8192C56.3464 30.8957 56.3971 30.9956 56.4129 31.1036L56.9947 35.0745C57.0021 35.125 57.0017 35.1762 56.9937 35.2266L56.3124 39.4627C56.3003 39.538 56.2711 39.6095 56.2271 39.6719L54.3366 42.3493L53.0478 45.9753L52.8551 47.7892C52.8318 48.0085 52.6676 48.1868 52.4509 48.228L49.9211 48.7088L48.3575 50.1516C48.1885 50.3076 47.9349 50.3283 47.7428 50.2018L46.4239 49.3335L45.5651 50.1883C45.4134 50.3393 45.1824 50.3771 44.9905 50.2823L43.048 49.3234L40.9369 48.9869C40.7497 48.9571 40.5955 48.8242 40.5384 48.6434L39.5417 45.4882H38.891C38.6359 45.4882 38.4216 45.2963 38.3935 45.0428L38.2952 44.1537L37.6851 44.6465C37.3148 44.9457 36.7752 44.6074 36.8832 44.1437L37.1582 42.9619L36.0996 44.087C35.8695 44.3316 35.4685 44.2846 35.3012 43.9934L33.9047 41.5631L32.7301 40.2818H31.74C31.6864 40.2818 31.6332 40.2732 31.5824 40.2564L30.4593 39.8837H28.4595L26.3028 40.7042C26.2459 40.7259 26.1856 40.7369 26.1248 40.7369H24.3664L22.6016 41.6038L22.3983 42.7145C22.3548 42.9522 22.1477 43.1249 21.906 43.1249H17.7943ZM50.4138 52.0099C50.7533 51.9396 51.0597 52.2273 51.0109 52.5705L50.4948 56.1973C50.4759 56.3301 50.4044 56.4498 50.2965 56.5294L49.1221 57.3964C49.036 57.4599 48.9319 57.4942 48.8249 57.4942H47.6C47.4114 57.4942 47.2389 57.3882 47.1536 57.2201L46.326 55.5882C46.3055 55.5478 46.2906 55.5048 46.2817 55.4605L45.7023 52.579C45.6312 52.2253 45.9463 51.9148 46.2989 51.9911L48.3564 52.4364L50.4138 52.0099Z" stroke="black" stroke-width="4" stroke-linejoin="bevel" mask="url(#path-1-inside-1)"/>
</svg>
