<svg width="68" height="68" viewBox="0 0 68 68" fill="none" xmlns="http://www.w3.org/2000/svg">
<path d="M19.8649 58.0142L30.9199 41.5281L36.7728 44.0012L29.8967 50.1008C29.2135 50.7111 29.0815 51.7503 29.628 52.5016C30.2134 53.306 31.3471 53.483 32.1603 52.8977L42.8984 45.1657C43.1752 44.9643 43.4226 44.6952 43.5989 44.3779C44.241 43.2205 43.8193 41.7698 42.6575 41.1389L42.4402 41.0211L35.0883 37.0303L40.7113 29.0735C40.7727 28.9851 40.8353 28.888 40.8951 28.7884L45.7822 33.2992C46.3188 33.7948 47.0912 33.9481 47.7821 33.6976L56.8155 30.4221C57.8334 30.053 58.3621 28.9361 57.9964 27.9274C57.6306 26.9187 56.509 26.4003 55.491 26.7693L47.584 29.6364L42.9357 25.3455C42.8228 25.2412 42.6984 25.1511 42.5639 25.0758L40.8175 24.1031C40.7817 24.047 40.7471 23.9911 40.7083 23.9366C41.0485 23.9036 41.3904 23.8328 41.7269 23.7108C43.8702 22.9336 44.9831 20.5817 44.2132 18.4584C43.4431 16.3345 41.0814 15.2424 38.9381 16.0196C36.7948 16.7967 35.6818 19.1482 36.452 21.2725C36.5198 21.4593 36.6039 21.6355 36.6957 21.8065L35.1651 20.9539C34.9597 20.8394 34.7347 20.7628 34.5004 20.7279L27.5458 19.691C26.9965 19.6091 26.4347 19.7638 26.0046 20.1158L18.2144 26.4831C17.377 27.1676 17.253 28.3934 17.9374 29.221C18.6218 30.0486 19.855 30.1647 20.693 29.4801L27.8061 23.6659L33.0847 24.4531C33.0696 24.4822 33.0511 24.5084 33.0362 24.538L27.3988 35.6346C27.3326 35.7643 27.2882 35.8997 27.2391 36.0338C27.219 36.0689 27.1921 36.0981 27.1731 36.1345L16.7449 56.2028C16.3247 57.0094 16.5714 58.0152 17.3483 58.5259C18.1811 59.0741 19.3081 58.8449 19.8649 58.0142Z" fill="black"/>
</svg>
