<svg width="68" height="68" viewBox="0 0 68 68" fill="none" xmlns="http://www.w3.org/2000/svg">
<path fill-rule="evenodd" clip-rule="evenodd" d="M20.8062 21.6147C23.9589 21.6147 26.5145 19.0586 26.5145 15.9062C26.5145 12.7534 23.9589 10.1978 20.8062 10.1978C17.6536 10.1978 15.0978 12.7534 15.0978 15.9062C15.0978 19.0586 17.6536 21.6147 20.8062 21.6147ZM36.4496 23.6875C32.7317 22.6016 28.8191 24.7349 27.7345 28.4517C26.6456 32.1738 28.7898 36.0767 32.5176 37.1641C36.2385 38.2568 39.4996 35.7705 40.5884 32.0591C41.6797 28.3413 40.176 24.7695 36.4496 23.6875ZM11.522 52.6636C10.7302 53.5474 9.24487 54.751 7.05066 54.7935V52.4214C9.51624 52.3511 10.8253 50.1899 10.84 50.1675C10.8618 50.1289 10.8871 50.0938 10.9152 50.0615C10.9985 49.9663 11.1068 49.8979 11.2262 49.856C11.3146 49.8252 11.4089 49.8086 11.5037 49.8062L11.522 49.7739L11.5403 49.8076C11.8063 49.8125 12.0697 49.9302 12.2076 50.1675C12.2205 50.1899 13.5782 52.4287 16.1128 52.4287C18.6443 52.4287 20.0065 50.1875 20.0193 50.165C20.1498 49.9409 20.4115 49.8271 20.6781 49.8208L20.7025 49.7808L20.7262 49.8208C20.9928 49.8262 21.2551 49.9409 21.3868 50.1675C21.399 50.1875 22.7612 52.4287 25.2921 52.4287C27.8364 52.4287 29.1857 50.1899 29.1979 50.1675C29.2457 50.084 29.3096 50.0151 29.3837 49.9609C29.5193 49.8613 29.6897 49.8105 29.8616 49.8076L29.8799 49.7739L29.8982 49.8076C29.994 49.8096 30.0894 49.8257 30.1787 49.8569C30.338 49.9126 30.4779 50.0156 30.5662 50.1675C30.5778 50.1875 31.9404 52.4287 34.472 52.4287C37.0193 52.4287 38.3625 50.1924 38.3754 50.1699C38.5114 49.9326 38.7743 49.8125 39.0415 49.8062L39.0592 49.7739L39.0769 49.8062C39.3428 49.811 39.6057 49.9287 39.7443 50.1675C39.7979 50.2559 41.1307 52.4287 43.6506 52.4287C46.1962 52.4287 47.5413 50.1914 47.5535 50.1685C47.6919 49.9312 47.9536 49.8125 48.2208 49.8062L48.2373 49.7739L48.2549 49.8062C48.5221 49.811 48.785 49.9312 48.9235 50.1699C48.9351 50.1875 50.2948 52.4287 52.8275 52.4287C55.373 52.4287 56.7186 50.1914 56.7327 50.1685C56.8712 49.9326 57.1329 49.8125 57.3988 49.8062L57.4165 49.7739L57.433 49.8062C57.7002 49.811 57.9619 49.9287 58.1016 50.1675C58.1541 50.2539 59.4697 52.3892 61.9476 52.4248V54.7983C59.7205 54.7773 58.2174 53.5562 57.4177 52.6636C56.6113 53.5635 55.09 54.8022 52.8275 54.8022C50.5651 54.8022 49.0449 53.5645 48.2397 52.6636C47.4332 53.5645 45.9106 54.8022 43.6494 54.8022C41.387 54.8022 39.8656 53.5645 39.0592 52.6636C38.254 53.5645 36.7327 54.8022 34.4708 54.8022C32.2076 54.8022 30.6869 53.5635 29.8805 52.6636C29.0735 53.5635 27.5527 54.8022 25.2909 54.8022C23.0291 54.8022 21.5083 53.5635 20.7013 52.6636C19.8942 53.5635 18.3735 54.8022 16.1116 54.8022C13.8491 54.8022 12.3284 53.5635 11.522 52.6636ZM32.8738 38.7109C35.8225 39.1602 39.2715 39.7417 40.1688 40.2119C41.0375 40.6685 47.4004 46.9502 47.7609 47.4746C47.052 48.2559 45.7284 49.3286 43.7819 49.3286C40.7227 49.3286 39.1917 46.6724 39.1917 46.6724C39.1917 46.6724 37.6642 49.3286 34.6031 49.3286C31.5428 49.3286 30.0129 46.6724 30.0129 46.6724C30.0129 46.6724 28.4836 49.3286 25.4233 49.3286C24.0197 49.3286 22.9418 48.7686 22.1824 48.1646L21.5919 46.0645C20.6755 44.0815 18.1891 41.3379 16.0269 38.9521C14.1948 36.9307 12.5955 35.166 12.3809 34.3384C11.816 32.1597 13.5101 26.7202 14.6479 23.0669C14.8274 22.4907 14.993 21.959 15.1338 21.4917C16.2227 22.6011 17.6989 23.3262 19.3434 23.4561L19.5714 23.499C19.6548 23.5142 19.7396 23.5278 19.8284 23.5381C19.7765 26.917 19.0908 32.4512 19.0908 32.4512C19.0908 32.4512 25.3062 37.4238 28.4611 38.042C28.7788 38.105 29.5681 38.2207 30.5983 38.3721C31.2748 38.4712 32.0551 38.5859 32.8738 38.7109Z" fill="black"/>
</svg>
