<svg width="68" height="68" viewBox="0 0 68 68" fill="none" xmlns="http://www.w3.org/2000/svg">
<path fill-rule="evenodd" clip-rule="evenodd" d="M34.5 15C45.2786 15 54 23.7226 54 34.5C54 45.231 45.3069 54 34.5 54C23.6485 54 15 45.1819 15 34.5C15 23.7214 23.7226 15 34.5 15ZM51.7148 34.5C51.7148 25.0077 43.9923 17.2852 34.5 17.2852C25.0077 17.2852 17.2852 25.0077 17.2852 34.5C17.2852 37.9724 18.3179 41.3099 20.2332 44.1369C27.9382 35.8491 41.0758 35.864 48.7668 44.1369C50.6821 41.3099 51.7148 37.9724 51.7148 34.5ZM21.6585 45.9639C28.4967 38.2937 40.5051 38.2955 47.3412 45.9639C40.4801 53.64 28.5226 53.6423 21.6585 45.9639ZM41.3555 29.7871C41.3555 33.5671 38.28 36.6426 34.5 36.6426C30.72 36.6426 27.6445 33.5671 27.6445 29.7871V27.502C27.6445 23.7219 30.72 20.6465 34.5 20.6465C38.28 20.6465 41.3555 23.7219 41.3555 27.502V29.7871ZM34.5 22.9316C31.9798 22.9316 29.9297 24.9817 29.9297 27.502V29.7871C29.9297 32.3073 31.9798 34.3574 34.5 34.3574C37.0202 34.3574 39.0703 32.3073 39.0703 29.7871V27.502C39.0703 24.9817 37.0202 22.9316 34.5 22.9316Z" fill="black"/>
</svg>
