<svg width="68" height="68" viewBox="0 0 68 68" fill="none" xmlns="http://www.w3.org/2000/svg">
<path fill-rule="evenodd" clip-rule="evenodd" d="M53 22C54.6568 22 56 23.3431 56 25C56 26.6569 54.6568 28 53 28L16 28C14.3431 28 13 26.6569 13 25C13 23.3431 14.3431 22 16 22L53 22ZM53 32C54.6568 32 56 33.3431 56 35C56 36.6569 54.6568 38 53 38H16C14.3431 38 13 36.6569 13 35C13 33.3431 14.3431 32 16 32L53 32ZM56 45C56 43.3431 54.6568 42 53 42H16C14.3431 42 13 43.3431 13 45C13 46.6569 14.3431 48 16 48H53C54.6568 48 56 46.6569 56 45Z" fill="black"/>
</svg>
