<svg width="68" height="68" viewBox="0 0 68 68" fill="none" xmlns="http://www.w3.org/2000/svg">
<path fill-rule="evenodd" clip-rule="evenodd" d="M10 17.2812C10 15.4705 11.4705 14 13.2812 14C15.092 14 16.5625 15.4705 16.5625 17.2812C16.5625 19.092 15.092 20.5625 13.2812 20.5625C11.4705 20.5625 10 19.092 10 17.2812ZM15.625 17.2812C15.625 16.6308 15.3596 16.042 14.9313 15.6173C14.8165 15.9922 14.6875 16.5713 14.6875 17.2812C14.6875 17.9912 14.8165 18.5703 14.9313 18.9452C15.3596 18.5204 15.625 17.9316 15.625 17.2812ZM13.75 17.2812C13.75 16.2931 13.9654 15.5178 14.1186 15.0917C13.8585 14.9921 13.5762 14.9375 13.2812 14.9375C12.9863 14.9375 12.704 14.9921 12.4439 15.0917C12.597 15.5179 12.8125 16.2931 12.8125 17.2812C12.8125 18.2694 12.597 19.0447 12.4439 19.4708C12.704 19.5704 12.9863 19.625 13.2812 19.625C13.5762 19.625 13.8585 19.5704 14.1186 19.4708C13.9655 19.0447 13.75 18.2694 13.75 17.2812ZM11.6311 18.9452C11.2029 18.5204 10.9375 17.9316 10.9375 17.2812C10.9375 16.6308 11.2029 16.042 11.6312 15.6173C11.746 15.9922 11.875 16.5713 11.875 17.2812C11.875 17.9912 11.746 18.5703 11.6311 18.9452ZM30.7802 15.7198C28.2822 13.2214 23.9298 13.4698 21.0709 16.3288C19.5395 17.8599 18.7571 19.8194 18.7444 21.6931C18.7421 21.7146 18.7414 21.7366 18.7422 21.7589L18.7448 21.8302C18.7462 21.937 18.7502 22.0436 18.7566 22.1497L18.7886 23.0123C18.8589 24.9178 18.1328 26.767 16.7842 28.1151L16.0937 28.806L15.9564 28.6687C15.7736 28.4854 15.4764 28.4854 15.2936 28.6687L10.6061 33.3562C10.2695 33.6928 10.0802 34.1493 10.0802 34.6251C10.0802 35.1009 10.2695 35.5575 10.6061 35.894C10.9427 36.2306 11.3992 36.42 11.875 36.42C12.3508 36.42 12.8074 36.2306 13.1439 35.894L16.419 32.6189L16.4251 32.6129L16.4311 32.6068L17.8314 31.2065C18.0147 31.0237 18.0147 30.7265 17.8314 30.5437L17.694 30.4063L18.385 29.7157C19.7331 28.3671 21.5823 27.641 23.4878 27.7114L24.3472 27.7432C24.4554 27.7498 24.564 27.7538 24.673 27.7552L24.7412 27.7578C24.7632 27.7586 24.785 27.7578 24.8063 27.7556C26.6802 27.7431 28.6399 26.9606 30.1712 25.4291C33.0302 22.5702 33.2786 18.2178 30.7802 15.7198ZM16.8372 30.8751L16.0937 31.6186L14.8815 30.4065L15.625 29.6629L15.7582 29.7961L15.7623 29.8003L15.7665 29.8044L16.8372 30.8751ZM15.4309 32.2815L14.2187 31.0693L11.2689 34.019C11.1081 34.1798 11.0177 34.3978 11.0177 34.6251C11.0177 34.8525 11.1081 35.0704 11.2689 35.2312C11.4297 35.392 11.6477 35.4825 11.875 35.4825C12.1024 35.4825 12.3203 35.392 12.4811 35.2312L15.4309 32.2815ZM24.8092 26.8232C25.2709 26.819 25.7392 26.7603 26.2038 26.6481L25.4687 25.9131L24.5687 26.8131L24.7759 26.8207C24.7871 26.8212 24.7982 26.822 24.8092 26.8232ZM29.253 25.0099C28.6266 25.5795 27.9288 26.0179 27.2022 26.3209L26.1315 25.2503L27.8125 23.5693L29.253 25.0099ZM29.9054 24.3367C30.4594 23.6875 30.8776 22.9688 31.1557 22.225L30.1562 21.2256L28.4753 22.9065L29.9054 24.3367ZM31.5619 19.8199C31.5771 20.2726 31.5391 20.7334 31.4489 21.1926L30.819 20.5628L31.5619 19.8199ZM31.2311 18.8251L30.1562 19.8999L28.7097 18.4534L30.4328 16.7302C30.9132 17.3143 31.2384 17.9904 31.4128 18.7124C31.3464 18.7347 31.2839 18.7722 31.2311 18.8251ZM27.8125 22.2437L29.4934 20.5628L28.0469 19.1162L26.3659 20.7971L27.8125 22.2437ZM25.7031 20.1343L27.384 18.4534L25.9375 17.0068L24.2565 18.6878L25.7031 20.1343ZM29.77 16.0674L28.0469 17.7906L26.6003 16.344L27.6751 15.2692C27.7281 15.2162 27.7656 15.1538 27.7879 15.0872C28.5099 15.2617 29.186 15.5869 29.77 16.0674ZM26.6806 14.9381L25.9375 15.6812L25.3074 15.0511C25.7667 14.9609 26.2277 14.9229 26.6806 14.9381ZM22.1633 16.5946C22.8125 16.0406 23.5312 15.6224 24.275 15.3443L25.2747 16.344L23.5937 18.0249L22.1633 16.5946ZM27.1497 22.9065L25.4687 24.5874L24.0222 23.1409L25.7031 21.4599L27.1497 22.9065ZM21.4901 17.247L22.9309 18.6878L21.25 20.3687L20.1791 19.2978C20.4821 18.5712 20.9205 17.8734 21.4901 17.247ZM23.5937 19.3506L25.0403 20.7971L23.3594 22.4781L21.9128 21.0315L23.5937 19.3506ZM24.8059 25.2503L23.3594 23.8037L21.472 25.6911C22.0411 26.1592 22.6976 26.4799 23.3988 26.6574L24.8059 25.2503ZM22.6965 23.1409L21.25 21.6943L19.8427 23.1016C20.0202 23.8027 20.341 24.4592 20.8091 25.0283L22.6965 23.1409ZM20.5872 21.0315L19.8519 20.2963C19.7396 20.761 19.6809 21.2296 19.6768 21.6915C19.678 21.7023 19.6788 21.7132 19.6792 21.7242L19.6869 21.9318L20.5872 21.0315ZM20.4517 26.0285L20.4615 26.0387L20.4717 26.0486C20.8236 26.3987 21.2121 26.6946 21.6278 26.9366C20.1612 27.2456 18.8005 27.974 17.7217 29.0524L17.0311 29.7434L16.7566 29.4689L17.4475 28.7784C18.526 27.6996 19.2543 26.3388 19.5634 24.8722C19.8054 25.288 20.1014 25.6765 20.4517 26.0285ZM44.3167 34.2662C48.9496 38.9906 55.3997 40.5003 58.3895 37.5683C61.3793 34.6364 59.9731 28.1805 55.363 23.4337C53.3263 21.3568 50.4707 19.8144 47.5833 19.1985C44.8312 18.6291 42.477 18.9678 41.2902 20.1316C40.1035 21.2954 39.7188 23.6425 40.2343 26.4053C40.7933 29.3493 42.28 32.1893 44.3167 34.2662ZM44.7732 33.8186C40.3865 29.3453 39.7751 22.5128 41.7379 20.5881C42.7421 19.6033 44.9374 19.3309 47.4415 19.83C50.2161 20.4223 52.9366 21.9181 54.8837 23.9037C59.2033 28.3086 60.6121 34.4933 57.919 37.1343C55.2259 39.7752 49.0927 38.2234 44.7732 33.8186ZM20.0906 41.5523C18.5319 47.3694 22.0074 53.3506 27.8245 54.9093C33.6416 56.468 39.6157 53.0188 41.1744 47.2017C42.7331 41.3846 39.2911 35.3841 33.4739 33.8254C27.6568 32.2667 21.6563 35.7088 20.0906 41.5523ZM34.3491 34.4549C33.8278 34.3999 33.2854 34.4238 32.7866 34.6005C31.3441 34.2986 29.84 34.1212 28.3584 34.1756C28.3189 34.1651 28.2878 34.1497 28.2566 34.1343C28.2255 34.1189 28.1943 34.1035 28.1548 34.0929C30.2057 33.5986 32.3717 33.7276 34.3491 34.4549ZM37.8524 39.174C38.2426 38.7707 38.7014 38.2166 38.7968 37.6497C40.4357 39.6405 41.2929 42.1271 41.2038 44.6705C40.9857 45.0634 40.6956 45.4089 40.3478 45.6542C39.9873 44.6831 39.3721 43.9258 38.59 43.2648C38.5368 43.0047 38.3419 41.9141 38.0089 40.0497L38.0085 40.048L38.0083 40.0468L37.8524 39.174ZM38.0813 42.3565C38.1627 42.8291 38.2164 43.1409 38.2459 43.2855C37.8948 43.5746 37.5407 43.8586 37.1876 44.142L37.1875 44.142L37.1875 44.142L37.1874 44.1421L37.1873 44.1422L37.1872 44.1423L37.1871 44.1423L37.187 44.1424L37.1869 44.1425L37.1865 44.1428C36.63 44.5893 36.0756 45.0341 35.5383 45.494C34.2471 44.8377 32.9419 44.2341 31.6295 43.6567C31.4731 42.3453 31.2641 41.0197 30.9619 39.7257C31.8687 38.8684 32.8333 38.1112 33.8557 37.4542C35.1032 37.9577 36.3224 38.5665 37.5276 39.228C37.7803 40.6082 37.9611 41.658 38.0813 42.3565ZM33.6419 37.1994C32.5932 37.8494 31.6215 38.6329 30.7218 39.4639C29.3845 39.1902 27.9401 39.0006 26.5689 39.1692C26.3646 38.3528 26.0568 37.3957 25.5398 36.693C26.3676 35.8145 27.3444 35.1171 28.379 34.5197C29.808 34.4512 31.2595 34.6144 32.6757 34.9093L33.6419 37.1994ZM25.2657 36.8734C25.7634 37.5428 26.0834 38.5596 26.2686 39.3427C25.602 40.4618 25.0702 41.8145 24.6527 43.0568C23.6552 43.4102 22.6507 43.7899 21.6918 44.2101C21.2397 43.5811 20.9281 42.8487 20.7289 42.1183C20.9499 40.7669 21.5747 39.3827 22.6103 37.9393C23.4254 37.4242 24.3106 37.0689 25.2657 36.8734ZM31.5186 43.9655C32.8046 44.5358 34.1098 45.1395 35.401 45.7958C35.4136 47.0122 35.4596 48.2095 35.5318 49.4137C34.3073 50.2987 32.9986 51.0765 31.6585 51.7613C30.4514 51.2121 29.2181 50.656 27.9847 50.0998C28.0074 48.7517 28.0301 47.4036 28.0123 46.1011C29.2839 45.5673 30.459 44.8665 31.5186 43.9655ZM40.3947 46.0054C40.6951 45.8319 40.957 45.5918 41.1661 45.3375C40.9704 47.542 40.0692 49.6421 38.6067 51.3097C38.7337 50.8359 38.8343 50.355 38.856 49.853C39.7247 48.5059 40.1366 47.6007 40.3947 46.0054ZM38.5029 50.0123C38.4723 50.653 38.3031 51.2847 38.0882 51.876C36.8984 53.0525 35.4492 53.9337 33.8477 54.4355C33.0613 54.4223 32.2293 54.3686 31.466 54.1641C31.6686 53.5131 31.9066 52.7305 31.8653 52.0424C33.1791 51.3506 34.4878 50.5728 35.7123 49.6878C36.5772 50.1452 37.5548 50.1815 38.5029 50.0123ZM27.6824 46.0691C27.6931 47.398 27.6704 48.746 27.6477 50.0941C26.7818 50.4828 25.8704 50.831 24.9731 51.1266C23.8417 50.4003 22.865 49.5179 21.9904 48.4654C21.6286 47.1836 21.5915 45.8477 21.7792 44.5156C22.7381 44.0955 23.7093 43.735 24.7067 43.3816C25.3356 44.5093 26.5896 45.4096 27.6824 46.0691ZM21.2287 39.5157C20.7976 40.3876 20.5122 41.2421 20.3989 42.0863C20.3397 42.2318 20.2426 42.6266 20.1688 42.9265C20.1394 43.0461 20.1137 43.1506 20.0956 43.2181C20.1794 42.1685 20.7168 40.4788 21.2287 39.5157ZM21.8197 48.7864C22.7014 49.8126 23.7044 50.702 24.8095 51.4213C25.1577 52.3327 25.6728 53.1478 26.4022 53.7947C26.1776 53.7909 25.9336 53.7538 25.6441 53.6762C23.6389 52.6311 22.0611 50.9388 21.0841 48.8997C21.3473 48.9702 21.6054 48.9547 21.8197 48.7864ZM26.774 54.0918C28.1775 54.75 29.8838 54.6994 31.3024 54.4588C31.8025 54.5928 32.2904 54.6671 32.8117 54.7222C30.7223 55.1497 28.5178 54.954 26.5686 54.1214C26.6546 54.1162 26.7143 54.104 26.774 54.0918L26.774 54.0918ZM57.0915 36.2448C56.9546 36.3791 56.7737 36.3773 56.6395 36.2404L52.5437 32.0638L51.5395 33.0486C51.4026 33.1829 51.2217 33.1811 51.0875 33.0441C50.9532 32.9072 50.9549 32.7264 51.0919 32.5921L52.0961 31.6073L51.1782 30.6714L50.1742 31.656C50.0372 31.7903 49.8564 31.7885 49.7221 31.6516C49.5878 31.5146 49.5896 31.3338 49.7266 31.1995L50.7306 30.2149L49.8355 29.3021L48.8314 30.2868C48.6944 30.4211 48.5136 30.4194 48.3793 30.2824C48.245 30.1455 48.2468 29.9647 48.3837 29.8304L49.3879 28.8457L48.4925 27.9326L47.4884 28.9172C47.3515 29.0515 47.1707 29.0497 47.0364 28.9128C46.9021 28.7759 46.9039 28.595 47.0408 28.4608L48.0449 27.4761L47.1497 26.5633L46.1455 27.5481C46.0086 27.6824 45.8278 27.6806 45.6935 27.5437C45.5592 27.4067 45.561 27.2259 45.6979 27.0916L46.7021 26.1069L42.6064 21.9304C42.4722 21.7934 42.4739 21.6126 42.6109 21.4783C42.7478 21.344 42.9286 21.3458 43.0629 21.4828L47.1586 25.6593L48.14 24.6968C48.2769 24.5625 48.4577 24.5643 48.592 24.7012C48.7263 24.8382 48.7245 25.019 48.5876 25.1533L47.6062 26.1157L48.5013 27.0285L49.4829 26.066C49.6198 25.9317 49.8006 25.9334 49.9349 26.0704C50.0692 26.2073 50.0674 26.3881 49.9305 26.5224L48.9489 27.485L49.8443 28.3981L50.8258 27.4356C50.9627 27.3013 51.1436 27.3031 51.2778 27.44C51.4121 27.577 51.4104 27.7578 51.2734 27.8921L50.292 28.8545L51.1871 29.7673L52.1686 28.8047C52.3055 28.6705 52.4864 28.6722 52.6206 28.8092C52.7549 28.9461 52.7532 29.1269 52.6162 29.2612L51.6347 30.2237L52.5525 31.1597L53.5339 30.1973C53.6709 30.063 53.8517 30.0648 53.986 30.2017C54.1203 30.3387 54.1185 30.5195 53.9816 30.6538L53.0002 31.6162L57.1183 35.8156C57.2302 35.9297 57.2056 36.1329 57.0915 36.2448Z" fill="black"/>
</svg>
