<svg width="68" height="68" viewBox="0 0 68 68" fill="none" xmlns="http://www.w3.org/2000/svg">
<path d="M12.0724 31.4128C13.2993 28.1136 17.389 25.9311 23.5747 25.9311C25.5174 25.9311 26.0286 26.0834 28.9425 26.6924C31.8565 27.3015 35.3839 26.6924 37.4799 25.0175C38.2978 24.4084 42.4387 19.6373 43.5122 18.6729C45.097 17.1502 46.9885 16.2873 48.6755 16.1858C48.7266 16.1858 49.8513 13.9018 50.0558 14.0033C50.2092 14.1048 50.158 15.2214 50.2603 16.1351C50.2603 16.1351 51.1294 14.5109 51.2827 14.6124C51.385 14.6631 51.2827 15.729 51.4361 16.5411C52.9186 17.0994 53.1231 18.1146 53.2765 18.5206C53.6343 19.4342 55.5258 21.1092 56.2415 21.363C56.9572 21.6168 57.3662 23.3933 56.5483 23.9516C55.7303 24.5099 55.1169 24.4084 54.4523 23.9516C52.8675 23.038 51.1805 23.5963 49.0845 22.2259C48.3177 23.444 48.1643 24.9159 47.6531 27.7076C47.4486 28.7734 47.6531 31.159 46.6818 34.4582C45.7105 37.7574 45.7105 36.8945 44.3813 40.0922C43.7678 41.5641 42.1831 50.0405 42.7454 51.1571C43.3077 52.2737 43.6656 52.1215 44.279 53.2889C43.819 54.0502 42.6432 54.101 42.0808 53.898C42.0297 53.898 41.8763 53.898 41.7741 53.4411C41.6718 52.9843 41.7741 53.1874 41.723 52.629C41.6718 52.0707 41.6207 52.02 41.314 51.6647C41.0073 51.3094 40.7516 51.2586 40.7516 50.0912C40.8028 48.5685 41.1095 44.6603 40.905 41.9702C40.1893 44.7618 39.7292 47.3504 39.7803 48.9746C39.7803 50.4465 40.496 50.9541 41.0073 52.2737C40.5983 52.8828 39.4225 52.7306 38.9624 52.4768C38.9113 52.4768 38.809 52.426 38.7068 52.02C38.6045 51.6139 38.7579 51.5631 38.7579 51.2586C38.7579 50.9541 38.7068 50.751 38.3489 50.4465C37.8377 49.9389 37.8888 49.7359 38.0933 48.9238C38.4512 47.1473 38.2978 38.2142 38.2978 38.2142C32.6233 38.3157 27.46 37.9096 25.2618 36.793C25.2618 36.793 22.0411 41.9702 22.399 45.0663C22.6034 46.589 22.9102 49.0761 23.5236 49.8374C24.1371 50.5988 24.6994 50.2942 25.1595 51.9692C24.6483 52.3753 23.3703 52.6798 22.6546 52.426C22.399 51.6139 22.4501 51.5632 22.4501 51.1571C22.4501 50.751 22.6546 50.751 22.1945 50.4973C21.7344 50.2435 21.4788 49.8882 21.2743 48.8731C21.0698 47.8579 19.894 42.5792 20.0985 41.4626C19.3316 42.63 18.207 45.5739 18.2581 48.0609C18.3092 50.4973 18.2581 50.6495 18.8716 51.7154C19.1783 52.2737 19.4339 52.4768 19.8429 53.2381C19.7917 53.8472 18.0025 53.9995 17.4913 53.7964C16.98 52.5275 16.8267 52.9336 17.0312 52.1722C17.2357 51.3601 17.0823 51.2586 16.6733 51.0556C16.2643 50.8526 16.4688 45.1678 16.4688 44.2542C16.4688 43.7974 16.4688 43.1376 17.389 40.5997C18.3092 38.0619 16.3155 36.996 15.5998 31.362C15.5998 31.362 15.6509 32.6817 15.6509 33.5446C15.5998 36.3362 15.5998 37.9604 15.1397 41.2596C14.6796 44.8125 14.7307 49.8374 13.7594 48.9238C12.7881 48.0102 11.919 47.6041 12.0724 45.3708C12.2257 43.1376 11.7656 41.2596 11.3055 39.2293C10.7943 37.2498 10.8454 34.712 12.0724 31.4128ZM51.0782 20.1448C51.4872 20.1448 51.7939 19.8403 51.7939 19.4342C51.7939 19.0282 51.4872 18.7236 51.0782 18.7236C50.6693 18.7236 50.3625 19.0282 50.3625 19.4342C50.3114 19.8403 50.6693 20.1448 51.0782 20.1448Z" fill="black"/>
</svg>
