<svg width="68" height="68" viewBox="0 0 68 68" fill="none" xmlns="http://www.w3.org/2000/svg">
<path fill-rule="evenodd" clip-rule="evenodd" d="M50.8125 17.0312C50.8125 16.1695 50.1117 15.4688 49.25 15.4688H45.3438V14.0961C45.3438 11.8375 43.5063 10 41.2484 10C40.1539 10 39.125 10.4258 38.3523 11.2L34.4062 15.1453L30.4609 11.2C29.6875 10.4258 28.6594 10 27.5641 10C25.3063 10 23.4688 11.8375 23.4688 14.0961V15.4688H19.5625C18.7008 15.4688 18 16.1695 18 17.0312V20.1562C18 21.018 18.7008 21.7188 19.5625 21.7188H49.25C50.1117 21.7188 50.8125 21.018 50.8125 20.1562V17.0312ZM39.4578 12.3039C39.9352 11.8258 40.5711 11.5625 41.2484 11.5625C42.6453 11.5625 43.7812 12.6992 43.7812 14.0961V15.4688H36.2922L39.4578 12.3039ZM35.1875 17.0312V20.1562H33.625V17.0312H35.1875ZM25.0312 14.0961C25.0312 12.6992 26.1672 11.5625 27.5641 11.5625C28.2414 11.5625 28.8773 11.8258 29.3555 12.3047L32.5203 15.4688H25.0312V14.0961ZM19.5625 17.0312H32.0625V20.1562H19.5625V17.0312ZM36.75 20.1562V17.0312H49.25L49.2508 20.1562H36.75ZM49.25 58.4375V42.0312H19.5625V58.4375H49.25ZM33.625 56.875V43.5938H35.1875V56.875H33.625ZM47.6875 56.875H36.75V43.5938H47.6875V56.875ZM21.125 43.5938H32.0625V56.875H21.125V43.5938ZM25.8125 31.875C25.8125 29.8977 26.5023 27.9665 27.7539 26.4368L28.9625 27.4266C27.9391 28.6774 27.375 30.2579 27.375 31.875C27.375 35.7516 30.5289 38.9063 34.4062 38.9063C36.0234 38.9063 37.6039 38.3422 38.8539 37.3188L39.8445 38.5282C38.3148 39.7797 36.3836 40.4688 34.4062 40.4688C29.668 40.4688 25.8125 36.6133 25.8125 31.875ZM37.4062 32.834C37.4062 33.5028 37.1345 34.0504 36.5909 34.4767C36.0552 34.8957 35.3253 35.1346 34.4013 35.1934V36.2188H33.6325V35.1934C32.8716 35.1493 32.2116 34.9802 31.6525 34.6862C31.0934 34.3922 30.678 33.9953 30.4062 33.4955L31.8156 32.5804C32.2349 33.3228 32.8405 33.7491 33.6325 33.8593V31.6873L33.1899 31.5881C31.637 31.2573 30.8605 30.515 30.8605 29.361C30.8605 28.7436 31.1051 28.2474 31.5943 27.8726C32.0912 27.4903 32.7706 27.2735 33.6325 27.2221V26.2188H34.4013V27.2221C35.6203 27.3103 36.5599 27.7844 37.2199 28.6443L35.962 29.6146C35.597 29.0045 35.0768 28.6333 34.4013 28.501V30.3533L34.9021 30.4635C35.7795 30.6546 36.4162 30.9376 36.8122 31.3125C37.2083 31.68 37.4062 32.1871 37.4062 32.834ZM32.5261 29.2838C32.5261 29.5043 32.6076 29.6844 32.7706 29.824C32.9337 29.9637 33.221 30.085 33.6325 30.1879V28.4679C33.2831 28.49 33.0114 28.5708 32.8172 28.7105C32.6231 28.8501 32.5261 29.0412 32.5261 29.2838ZM34.4013 33.8814C34.805 33.8446 35.1195 33.7454 35.3447 33.5837C35.5699 33.422 35.6825 33.2015 35.6825 32.9222C35.6825 32.6355 35.5854 32.415 35.3913 32.2606C35.1972 32.0989 34.8671 31.963 34.4013 31.8527V33.8814ZM43 31.875C43 33.8523 42.3101 35.7836 41.0586 37.3133L39.85 36.3234C40.8734 35.0727 41.4375 33.4922 41.4375 31.875C41.4375 27.9984 38.2836 24.8438 34.4062 24.8438C32.7891 24.8438 31.2086 25.4078 29.9586 26.4312L28.968 25.2219C30.4976 23.9703 32.4289 23.2812 34.4062 23.2812C39.1445 23.2812 43 27.1367 43 31.875Z" fill="black"/>
</svg>
