<svg width="68" height="68" viewBox="0 0 68 68" fill="none" xmlns="http://www.w3.org/2000/svg">
<path fill-rule="evenodd" clip-rule="evenodd" d="M34.4376 45.2514C36.1459 43.8445 37 42.0375 37 39.8302C37 37.6957 36.3777 36.022 35.1331 34.8093C33.8885 33.5722 31.8874 32.6384 29.1298 32.0077L27.5557 31.6439V25.5314C29.6789 25.968 31.3139 27.1929 32.4609 29.2062L36.4143 26.0044C34.34 23.1665 31.3871 21.602 27.5557 21.3109V18H25.1398V21.3109C22.4309 21.4807 20.2956 22.1963 18.7338 23.4576C17.1963 24.6946 16.4276 26.3319 16.4276 28.3693C16.4276 32.1775 18.868 34.6273 23.7488 35.7189L25.1398 36.0463V43.2139C22.6506 42.8501 20.7471 41.4432 19.4293 38.9934L15 42.0132C15.8541 43.6626 17.1597 44.9724 18.9168 45.9427C20.6739 46.9129 22.7482 47.4708 25.1398 47.6163V51H27.5557V47.6163C30.4598 47.4223 32.7537 46.634 34.4376 45.2514ZM22.431 29.8975C21.9185 29.4366 21.6622 28.8423 21.6622 28.1147C21.6622 27.3142 21.9673 26.6836 22.5774 26.2227C23.1875 25.7619 24.0416 25.495 25.1398 25.4223V31.0981C23.8464 30.7585 22.9434 30.3583 22.431 29.8975ZM30.5208 42.3043C29.8131 42.8379 28.8247 43.1654 27.5557 43.2867V36.5921C29.02 36.9559 30.0571 37.4046 30.6672 37.9383C31.2773 38.4476 31.5824 39.1753 31.5824 40.1213C31.5824 41.043 31.2285 41.7707 30.5208 42.3043ZM49.3038 35.9746H55V32.6765H49.3038V27H45.6646V32.6765H40V35.9746H45.6646V42H49.3038V35.9746Z" fill="black"/>
</svg>
