<svg width="68" height="68" viewBox="0 0 68 68" fill="none" xmlns="http://www.w3.org/2000/svg">
<path d="M52.9526 34.8902C52.9526 24.3839 44.3957 15.875 33.8902 15.875C23.3843 15.875 14.875 24.3843 14.875 34.8902C14.875 45.3957 23.3839 53.9526 33.8902 53.9526C44.3959 53.9526 52.9526 45.4435 52.9526 34.8902ZM34.7347 52.3448C37.2285 52.2042 39.7694 51.8378 42.1809 51.1126C39.3609 52.5499 36.201 53.2336 33.0446 53.1011C33.6402 52.9367 34.2181 52.6944 34.7347 52.3448ZM23.3824 48.232C23.2326 48.6665 23.13 49.1204 23.1283 49.5604C19.6356 46.992 17.1851 43.3141 16.2148 39.1418C16.3869 38.4675 16.6738 37.8362 17.0729 37.3161C18.1064 38.717 19.4458 39.679 20.9994 40.4156C21.2326 40.888 22.0409 42.6111 23.3967 45.5017C23.5935 45.9211 23.8018 46.3652 24.0215 46.8336C23.793 47.2492 23.5551 47.7313 23.3824 48.232ZM24.7687 46.4948C23.7417 44.3291 22.9766 42.671 22.4655 41.5631C22.1472 40.8733 21.9273 40.3968 21.804 40.144C22.2461 39.5261 22.6958 38.913 23.145 38.3006C23.8614 37.3239 24.5763 36.3492 25.2565 35.3603C27.6644 35.8676 30.0718 36.2847 32.4784 36.6558C33.3138 38.7396 34.2411 40.824 35.3045 42.8196C34.1962 44.6127 32.9528 46.2702 31.5743 47.7925C29.3074 47.5114 27.0391 47.0493 24.7687 46.4948ZM32.2598 48.2625C33.6854 46.7323 34.9307 45.0259 36.0396 43.2756C38.3507 43.1337 40.8039 42.808 42.9963 41.942C43.6838 43.1678 44.5932 44.5632 45.7262 45.5002C44.7525 47.2812 43.4663 48.8418 42.0405 50.2703C39.7208 51.0092 37.262 51.3832 34.7986 51.5267L32.2598 48.2625ZM50.1219 42.0016C49.0204 43.1906 47.7397 44.1552 46.2789 44.8959C45.2057 44.019 44.2583 42.5406 43.611 41.3452C44.2135 39.1911 44.4948 36.7236 44.6369 34.4865C46.1045 33.4765 47.5725 32.421 48.9537 31.3205C49.9363 32.1433 50.7468 33.1818 51.3836 34.2685C51.6108 36.5923 51.1927 39.1537 50.1219 42.0016ZM32.557 35.8407C30.1989 35.47 27.797 35.0536 25.3951 34.5474C24.8397 32.5622 24.2392 30.6218 23.5937 28.6821C25.218 26.693 27.0243 24.8398 28.9233 23.1226C31.1448 23.4927 33.4112 23.8628 35.6779 24.2329C36.2309 26.4447 36.7849 28.6575 37.3834 30.7818C35.5333 32.2253 33.9095 33.8968 32.557 35.8407ZM16.7115 36.4972C16.3896 36.8284 16.1229 37.2108 15.9107 37.6039C15.3829 34.1468 15.8829 30.5881 17.3379 27.4015C17.3567 28.067 17.4164 28.7357 17.5625 29.406C16.7224 32.0264 16.4371 33.7359 16.7115 36.4972ZM27.9986 19.0066C27.9547 20.1306 27.9228 21.4718 28.2686 22.5741C26.4154 24.292 24.6079 26.1473 22.9802 28.1399C21.3692 27.7937 19.7666 28.1454 18.3019 28.8077C18.103 27.7942 18.1047 26.7397 18.1918 25.7201C19.6414 23.2503 21.647 21.1526 24.07 19.6111C25.3417 19.2938 26.6918 19.0237 27.9986 19.0066ZM38.1952 30.6338C37.5958 28.4625 37.0411 26.2463 36.4865 24.0279C37.7249 23.0227 39.0511 22.0624 40.3788 21.1904C42.5549 21.8915 44.5492 22.9132 46.4528 24.2567C47.6026 26.1969 48.2539 28.3666 48.5391 30.6331C47.1698 31.7253 45.7557 32.7309 44.2953 33.7361C42.7249 32.1677 40.2746 31.2391 38.1952 30.6338ZM47.6077 22.9264C47.2477 22.9689 46.9157 23.1065 46.6641 23.3885C44.7571 22.0983 42.714 21.0806 40.5791 20.3802C39.6512 19.1072 38.5174 18.0351 37.1396 17.2799C37.4169 17.2349 37.7248 17.2118 38.0796 17.2112C41.7889 18.0386 45.0964 20.0743 47.6077 22.9264ZM33.1058 16.7244C31.38 16.9385 29.6932 17.5265 28.2431 18.1891C27.6246 18.1904 27.0286 18.236 26.4255 18.3104C28.5355 17.3698 30.8131 16.8257 33.1058 16.7244Z" fill="black" stroke="black" stroke-width="0.25"/>
</svg>
