<svg width="68" height="68" viewBox="0 0 68 68" fill="none" xmlns="http://www.w3.org/2000/svg">
<path fill-rule="evenodd" clip-rule="evenodd" d="M34.66 21.25H36.7225V19.5312H38.785V14.7188H28.4725V19.5312H30.535V21.25H32.5975V17.4688H30.535V16.7812H36.7225V17.4688H34.66V21.25ZM33.6267 55.2812C29.3484 55.2698 25.249 53.5633 22.2263 50.5355C19.2031 47.5072 17.5036 43.404 17.5 39.125C17.4909 36.9217 17.9369 34.7403 18.8099 32.7174C19.4799 31.165 20.3903 29.7316 21.5049 28.4688H17.1287V26.4062H25.035V34.3125H22.9862V29.8643C22.0302 30.9581 21.2488 32.1965 20.6724 33.5361C19.9129 35.301 19.5257 37.2036 19.535 39.125C19.535 41.9125 20.3615 44.6374 21.9102 46.9551C23.4588 49.2728 25.66 51.0792 28.2353 52.1459C30.8106 53.2126 33.6443 53.4918 36.3783 52.9479C39.1122 52.4041 41.6234 51.0618 43.5945 49.0908C45.5655 47.1197 46.9078 44.6085 47.4516 41.8746C47.9955 39.1406 47.7163 36.3069 46.6496 33.7316C45.5829 31.1563 43.7765 28.9551 41.4588 27.4065C39.1411 25.8578 36.4162 25.0312 33.6287 25.0312C31.5974 25.0246 29.5891 25.461 27.7437 26.31L26.8774 24.44C29.0719 23.4334 31.4641 22.9314 33.8781 22.9709C36.2921 23.0105 38.6666 23.5905 40.8269 24.6685C42.9873 25.7464 44.8786 27.2948 46.3617 29.1999C47.8449 31.1049 48.8823 33.3182 49.3976 35.6769C49.9128 38.0356 49.8929 40.4798 49.3393 42.8298C48.7857 45.1798 47.7124 47.3758 46.1984 49.2565C44.6844 51.1371 42.7681 52.6545 40.5905 53.6971C38.4164 54.738 36.037 55.2793 33.6267 55.2812ZM33.6562 51.1561C33.2302 51.1782 32.8034 51.1782 32.3775 51.1561C30.7973 50.995 29.2647 50.5229 27.8677 49.767C26.4708 49.0112 25.2371 47.9865 24.2377 46.752C23.2383 45.5175 22.493 44.0975 22.0446 42.5738C21.5962 41.05 21.4536 39.4527 21.6249 37.8736L23.6737 38.0936C23.4505 40.2331 23.9263 42.3873 25.0298 44.2337C26.1333 46.0802 27.8053 47.5195 29.7953 48.3362C31.7853 49.1529 33.9863 49.3031 36.0688 48.7642C38.1512 48.2254 40.0032 47.0265 41.3473 45.347C42.6914 43.6676 43.4553 41.598 43.5248 39.448C43.5942 37.2981 42.9654 35.1835 41.7325 33.4208C40.4996 31.6581 38.7289 30.3422 36.6855 29.6701C34.6421 28.998 32.436 29.0058 30.3975 29.6924L29.7375 27.7399C31.3951 27.1545 33.1609 26.9394 34.9107 27.1099C36.6604 27.2804 38.3515 27.8323 39.8649 28.7267C41.3784 29.6211 42.6775 30.8363 43.6707 32.2869C44.664 33.7374 45.3273 35.3879 45.614 37.1224C45.9007 38.8569 45.8038 40.6331 45.3302 42.3261C44.8565 44.0191 44.0176 45.5877 42.8724 46.9216C41.7273 48.2554 40.3037 49.3221 38.7019 50.0466C37.1002 50.7711 35.3591 51.1357 33.6012 51.1149L33.6562 51.1561ZM46.9675 19.1851L45.5091 20.6436L46.7305 21.865L44.5515 24.0439L46.0099 25.5024L48.1889 23.3234L49.3982 24.5326L50.8566 23.0742L46.9675 19.1851ZM35.0871 40.5834C34.7003 40.9702 34.1757 41.1875 33.6287 41.1875C33.0817 41.1875 32.5571 40.9702 32.1703 40.5834C31.7835 40.1966 31.5662 39.672 31.5662 39.125C31.5662 38.578 31.7835 38.0534 32.1703 37.6666C32.5571 37.2798 33.0817 37.0625 33.6287 37.0625C34.1757 37.0625 34.7003 37.2798 35.0871 37.6666C35.4739 38.0534 35.6912 38.578 35.6912 39.125C35.6912 39.672 35.4739 40.1966 35.0871 40.5834ZM39.1287 41.1875C39.6757 41.1875 40.2003 40.9702 40.5871 40.5834C40.9739 40.1966 41.1912 39.672 41.1912 39.125C41.1912 38.578 40.9739 38.0534 40.5871 37.6666C40.2003 37.2798 39.6757 37.0625 39.1287 37.0625C38.5817 37.0625 38.0571 37.2798 37.6703 37.6666C37.2835 38.0534 37.0662 38.578 37.0662 39.125C37.0662 39.672 37.2835 40.1966 37.6703 40.5834C38.0571 40.9702 38.5817 41.1875 39.1287 41.1875ZM29.5871 40.5834C29.2003 40.9702 28.6757 41.1875 28.1287 41.1875C27.5817 41.1875 27.0571 40.9702 26.6703 40.5834C26.2835 40.1966 26.0662 39.672 26.0662 39.125C26.0662 38.578 26.2835 38.0534 26.6703 37.6666C27.0571 37.2798 27.5817 37.0625 28.1287 37.0625C28.6757 37.0625 29.2003 37.2798 29.5871 37.6666C29.9739 38.0534 30.1912 38.578 30.1912 39.125C30.1912 39.672 29.9739 40.1966 29.5871 40.5834Z" fill="black"/>
</svg>
