<svg width="68" height="68" viewBox="0 0 68 68" fill="none" xmlns="http://www.w3.org/2000/svg">
<path d="M55.0674 46.3273L55.068 46.3268C55.2747 46.1188 55.3907 45.8375 55.3907 45.5443C55.3907 45.251 55.2747 44.9697 55.068 44.7617L55.0674 44.7612L48.1874 37.8812L48.1806 37.8744L48.1733 37.8681C47.9609 37.6862 47.6878 37.5912 47.4084 37.602C47.1291 37.6128 46.8641 37.7286 46.6664 37.9263C46.4687 38.124 46.3529 38.389 46.3421 38.6683C46.3313 38.9477 46.4263 39.2208 46.6082 39.4332L46.6145 39.4405L46.6213 39.4473L51.6039 44.43H22.4601C21.1578 44.43 19.909 43.9127 18.9882 42.9919C18.0674 42.0711 17.5501 40.8222 17.5501 39.52C17.5501 38.2178 18.0674 36.9689 18.9882 36.0481C19.909 35.1273 21.1578 34.61 22.4601 34.61H47.4001C49.291 34.61 51.1046 33.8588 52.4417 32.5216C53.7789 31.1845 54.5301 29.371 54.5301 27.48C54.5301 25.589 53.7789 23.7754 52.4417 22.4383C51.1046 21.1012 49.291 20.35 47.4001 20.35H17.3955L22.379 15.3586L22.3857 15.3518L22.3919 15.3446C22.5738 15.1322 22.6688 14.8591 22.658 14.5797C22.6472 14.3004 22.5314 14.0354 22.3337 13.8377C22.1361 13.64 21.8711 13.5242 21.5917 13.5134C21.3123 13.5026 21.0392 13.5976 20.8268 13.7795L20.8195 13.7858L20.8127 13.7926L13.9327 20.6726L13.9322 20.6731C13.7254 20.8811 13.6094 21.1624 13.6094 21.4557C13.6094 21.7489 13.7254 22.0302 13.9322 22.2382L13.9327 22.2387L20.8063 29.1124C20.9046 29.225 21.0246 29.3166 21.1592 29.3818C21.297 29.4484 21.447 29.4858 21.5998 29.4917C21.7527 29.4977 21.9051 29.4719 22.0476 29.4161C22.19 29.3603 22.3194 29.2756 22.4276 29.1675C22.5357 29.0593 22.6204 28.9299 22.6762 28.7875C22.732 28.645 22.7577 28.4926 22.7518 28.3397C22.7459 28.1869 22.7085 28.0369 22.6419 27.8992C22.5767 27.7645 22.4851 27.6445 22.3724 27.5462L17.3962 22.57H47.4001C48.7023 22.57 49.9511 23.0873 50.872 24.0081C51.7928 24.9289 52.3101 26.1778 52.3101 27.48C52.3101 28.7822 51.7928 30.0311 50.872 30.9519C49.9511 31.8727 48.7023 32.39 47.4001 32.39H22.4601C20.5691 32.39 18.7555 33.1412 17.4184 34.4783C16.0813 35.8154 15.3301 37.629 15.3301 39.52C15.3301 41.411 16.0813 43.2245 17.4184 44.5616C18.7555 45.8988 20.5691 46.65 22.4601 46.65H51.6046L46.6211 51.6413L46.6144 51.6481L46.6082 51.6554C46.4263 51.8677 46.3313 52.1408 46.3421 52.4202C46.3529 52.6996 46.4687 52.9646 46.6664 53.1622L46.8432 52.9855L46.6664 53.1623C46.8641 53.3599 47.1291 53.4757 47.4084 53.4865C47.6878 53.4973 47.9609 53.4023 48.1733 53.2205L48.1806 53.2142L48.1874 53.2073L55.0674 46.3273Z" fill="black" stroke="black" stroke-width="0.5"/>
</svg>
