<svg width="68" height="68" viewBox="0 0 68 68" fill="none" xmlns="http://www.w3.org/2000/svg">
<path fill-rule="evenodd" clip-rule="evenodd" d="M22.5406 44.0778C20.0854 42.8912 17.9543 41.1272 16.3298 38.9369C14.7054 36.7467 13.6359 34.1953 13.213 31.5014C12.7901 28.8074 13.0264 26.0511 13.9016 23.4685C14.7767 20.8858 16.2648 18.5537 18.2383 16.6718C20.2118 14.7899 22.612 13.4143 25.2333 12.6628C27.8546 11.9113 30.6191 11.8062 33.2899 12.3566C35.9607 12.907 38.4583 14.0965 40.569 15.8232C42.6796 17.5498 44.3403 19.7623 45.409 22.2711L44.1153 22.8217C43.1356 20.5219 41.6132 18.4938 39.6785 16.9111C37.7437 15.3283 35.4541 14.238 33.0059 13.7335C30.5576 13.229 28.0236 13.3254 25.6207 14.0143C23.2178 14.7032 21.0176 15.9642 19.2086 17.6893C17.3996 19.4144 16.0356 21.5522 15.2334 23.9197C14.4312 26.2872 14.2147 28.8138 14.6024 31.2833C14.9901 33.7527 15.9705 36.0914 17.4597 38.0991C18.9488 40.1069 20.9024 41.7238 23.153 42.8115L22.5406 44.0778ZM29.1926 28.1926C28.5602 28.8249 27.9819 29.5037 27.4616 30.2216C26.984 29.7207 26.4558 29.2688 25.8848 28.8736C27.6904 27.686 29.1016 25.4944 29.875 24.1001C30.3071 24.8942 30.7976 25.6546 31.342 26.3751C30.5795 26.9176 29.8602 27.525 29.1926 28.1926ZM37.8329 23.5743C35.9528 23.9482 34.1606 24.6376 32.5285 25.6038C31.7429 24.5643 31.0687 23.444 30.5177 22.2614C30.4624 22.1371 30.3723 22.0314 30.2583 21.9573C30.1442 21.8832 30.0111 21.8437 29.875 21.8438C29.739 21.8437 29.6058 21.8832 29.4918 21.9573C29.3777 22.0314 29.2876 22.1371 29.2324 22.2614C28.5995 23.6859 26.4353 27.5299 24.0595 28.1979C23.9117 28.2392 23.7815 28.3278 23.6888 28.4501C23.596 28.5723 23.5458 28.7216 23.5458 28.875C23.5458 29.0285 23.596 29.1777 23.6888 29.2999C23.7815 29.4222 23.9117 29.5108 24.0595 29.5521C25.0728 29.9516 25.9695 30.5898 26.6764 31.4071C25.672 33.0716 24.9575 34.9061 24.5743 36.8329C23.9231 40.1063 24.2573 43.4993 25.5345 46.5828C26.8118 49.6663 28.9747 52.3018 31.7498 54.1561C34.5248 56.0103 37.7874 57 41.125 57C45.5989 56.9948 49.8881 55.2152 53.0517 52.0517C56.2152 48.8881 57.9948 44.5989 58 40.125C58 36.7874 57.0103 33.5248 55.1561 30.7498C53.3018 27.9747 50.6663 25.8118 47.5828 24.5345C44.4993 23.2573 41.1063 22.9231 37.8329 23.5743ZM19.6211 33.5018C20.2669 34.9338 21.2054 36.2146 22.3762 37.2618L23.3142 36.2142C22.2897 35.2979 21.4684 34.1772 20.9033 32.9243C20.3382 31.6714 20.0417 30.314 20.033 28.9395C20.0242 27.5651 20.3034 26.204 20.8526 24.944C21.4017 23.684 22.2087 22.553 23.2214 21.6237C24.2342 20.6945 25.4303 19.9876 26.7328 19.5487C28.0353 19.1097 29.4153 18.9484 30.7839 19.0751C32.1525 19.2018 33.4795 19.6137 34.6792 20.2843C35.879 20.9549 36.9251 21.8694 37.75 22.9687L38.875 22.125C37.9323 20.8685 36.7369 19.8234 35.3657 19.0569C33.9946 18.2904 32.4781 17.8195 30.914 17.6747C29.3498 17.5298 27.7727 17.7141 26.2841 18.2157C24.7955 18.7172 23.4284 19.525 22.2709 20.587C21.1134 21.6489 20.1911 22.9415 19.5635 24.3815C18.9358 25.8215 18.6166 27.3769 18.6266 28.9478C18.6365 30.5186 18.9753 32.0699 19.6211 33.5018ZM17.2188 28.1719H15.8125V29.5781H17.2188V28.1719ZM22.1406 39.4219H23.5469V40.8281H22.1406V39.4219ZM37.6094 16.9219H36.2031V18.3281H37.6094V16.9219ZM22.1406 16.9219H23.5469V18.3281H22.1406V16.9219ZM40.4219 24.6722C37.6091 24.8002 34.8796 25.694 32.531 27.2632C31.8812 27.6974 31.2679 28.1784 30.6955 28.701L33.1849 31.1902C34.77 29.7815 36.7049 28.8169 38.7931 28.4016C39.3327 28.2942 39.8769 28.2247 40.4219 28.1926V24.6722ZM26.8337 34.2054C27.5243 32.5383 28.4972 31.0141 29.7011 29.6954L32.1905 32.1845C30.7816 33.7697 29.8169 35.7048 29.4016 37.7931C29.2942 38.3327 29.2247 38.8769 29.1926 39.4219H25.6722C25.7534 37.6381 26.1432 35.8724 26.8337 34.2054ZM25.9535 43.1428C25.801 42.3762 25.7075 41.6025 25.6722 40.8281H29.1926C29.2706 42.1521 29.5688 43.4609 30.0818 44.6993C30.5948 45.9378 31.3095 47.0743 32.1907 48.0657L29.7014 50.5549C27.8028 48.4754 26.5046 45.9133 25.9535 43.1428ZM30.6958 51.5493C32.7752 53.4476 35.337 54.7455 38.1072 55.2965C38.8738 55.449 39.6475 55.5425 40.4219 55.5778V52.0574C38.3049 51.9327 36.2545 51.2465 34.4842 50.0637C34.0269 49.7581 33.593 49.4225 33.1851 49.06L30.6958 51.5493ZM41.8281 24.673V28.1926C43.152 28.2706 44.4609 28.5688 45.6993 29.0818C46.9375 29.5946 48.0737 30.3091 49.0649 31.19L51.5491 28.7058C48.8793 26.2682 45.4394 24.8411 41.8281 24.673ZM51.0637 33.4842C50.7579 33.0266 50.4221 32.5925 50.0593 32.1843L52.5435 29.7002C54.9816 32.37 56.4089 35.8102 56.577 39.4219H53.0574C52.9327 37.3049 52.2465 35.2545 51.0637 33.4842ZM56.5778 40.8281H53.0567C52.8961 43.5072 51.8388 46.0556 50.0557 48.0616L52.549 50.5546C53.0716 49.9821 53.5526 49.3689 53.9868 48.719C55.5561 46.3704 56.4498 43.6409 56.5778 40.8281ZM51.5546 51.5489L49.0613 49.0559C47.0554 50.8389 44.5071 51.8961 41.8281 52.0567V55.5778C43.6119 55.4966 45.3776 55.1068 47.0446 54.4163C48.7117 53.7257 50.2359 52.7528 51.5546 51.5489ZM35.2655 31.3556C36.9999 30.1967 39.039 29.5781 41.125 29.5781C43.9212 29.5813 46.602 30.6935 48.5793 32.6707C50.5565 34.648 51.6687 37.3288 51.6719 40.125C51.6719 42.211 51.0533 44.2501 49.8944 45.9845C48.7355 47.719 47.0883 49.0708 45.1611 49.869C43.2339 50.6673 41.1133 50.8762 39.0674 50.4692C37.0215 50.0623 35.1422 49.0578 33.6672 47.5828C32.1922 46.1078 31.1877 44.2285 30.7808 42.1826C30.3738 40.1367 30.5827 38.0161 31.381 36.0889C32.1792 34.1617 33.531 32.5145 35.2655 31.3556ZM50.9688 22.5469C50.8376 22.5476 50.7087 22.5115 50.5969 22.4428C50.4851 22.3741 50.3947 22.2754 50.336 22.158L49.2694 20.024L47.1389 18.9567C47.0221 18.8983 46.9238 18.8085 46.8552 18.6975C46.7865 18.5864 46.7501 18.4584 46.7501 18.3278C46.7501 18.1972 46.7865 18.0691 46.8552 17.958C46.9238 17.847 47.0221 17.7572 47.1389 17.6988L49.2729 16.6315L50.3395 14.4975C50.4046 14.3887 50.4968 14.2986 50.6071 14.2361C50.7174 14.1736 50.842 14.1407 50.9688 14.1407C51.0956 14.1407 51.2202 14.1736 51.3305 14.2361C51.4408 14.2986 51.533 14.3887 51.5981 14.4975L52.6648 16.6315L54.7987 17.6988C54.9156 17.7572 55.0138 17.847 55.0825 17.958C55.1512 18.0691 55.1875 18.1972 55.1875 18.3278C55.1875 18.4584 55.1512 18.5864 55.0825 18.6975C55.0138 18.8085 54.9156 18.8983 54.7987 18.9567L52.6648 20.024L51.6016 22.158C51.543 22.2754 51.4526 22.3741 51.3408 22.4428C51.2289 22.5115 51.1001 22.5476 50.9688 22.5469ZM49.0247 18.3281L50.111 18.8709C50.2473 18.9388 50.3578 19.0491 50.426 19.1852L50.9688 20.2715L51.5116 19.1852C51.5798 19.0491 51.6904 18.9388 51.8266 18.8709L52.913 18.3281L51.8266 17.7853C51.6903 17.7172 51.5797 17.6067 51.5116 17.4703L50.9688 16.384L50.426 17.4703C50.3579 17.6067 50.2474 17.7172 50.111 17.7853L49.0247 18.3281ZM19.6614 54.7856C19.7726 54.8543 19.9007 54.8906 20.0313 54.8905C20.1626 54.8913 20.2914 54.8552 20.4033 54.7865C20.5151 54.7178 20.6055 54.6191 20.6641 54.5017L21.7273 52.3677L23.8612 51.3004C23.9781 51.242 24.0763 51.1522 24.145 51.0411C24.2137 50.9301 24.25 50.802 24.25 50.6714C24.25 50.5408 24.2137 50.4128 24.145 50.3017C24.0763 50.1907 23.9781 50.1009 23.8612 50.0425L21.7273 48.9752L20.6606 46.8412C20.5955 46.7324 20.5033 46.6423 20.393 46.5798C20.2827 46.5172 20.1581 46.4844 20.0313 46.4844C19.9045 46.4844 19.7799 46.5172 19.6696 46.5798C19.5593 46.6423 19.4671 46.7324 19.402 46.8412L18.3354 48.9752L16.2014 50.0425C16.0846 50.1009 15.9863 50.1907 15.9177 50.3017C15.849 50.4128 15.8126 50.5408 15.8126 50.6714C15.8126 50.802 15.849 50.9301 15.9177 51.0411C15.9863 51.1522 16.0846 51.242 16.2014 51.3004L18.3354 52.3677L19.402 54.5017C19.4604 54.6186 19.5503 54.7169 19.6614 54.7856ZM19.1735 51.2146L18.0872 50.6718L19.1735 50.129C19.3099 50.0609 19.4204 49.9503 19.4885 49.814L20.0313 48.7277L20.5741 49.814C20.6422 49.9503 20.7528 50.0609 20.8891 50.129L21.9755 50.6718L20.8891 51.2146C20.7529 51.2825 20.6423 51.3928 20.5741 51.5289L20.0313 52.6152L19.4885 51.5289C19.4203 51.3928 19.3098 51.2825 19.1735 51.2146ZM42.649 38.5183H42.649L43.8734 34.7959C43.9306 34.6244 43.9428 34.4408 43.9143 34.2632C43.9428 34.4408 43.9306 34.6245 43.8735 34.7959L42.649 38.5183ZM37.0326 41.9632C37.0326 41.9632 37.0326 41.9632 37.0327 41.9633C37.2449 42.2571 37.5878 42.4367 37.9633 42.4367H40.0041L40.0041 42.4367H37.9632C37.5877 42.4367 37.2449 42.2571 37.0326 41.9632ZM39.8352 48.6279C39.8762 48.6546 39.9219 48.6756 39.9714 48.6898C40.0204 48.7061 40.0694 48.7061 40.102 48.7061C40.2816 48.7061 40.4449 48.6082 40.5265 48.4449L45.0653 40.2C45.1214 40.0928 45.16 39.9777 45.18 39.8591C45.16 39.9777 45.1214 40.0928 45.0653 40.1999L40.5265 48.4448C40.4449 48.6081 40.2816 48.7061 40.102 48.7061C40.0694 48.7061 40.0204 48.7061 39.9714 48.6897C39.9219 48.6756 39.8762 48.6545 39.8352 48.6279ZM40.7225 46.0448L40.8532 44.1298L41 41.9796C41.0061 41.9306 41.0031 41.8816 40.9917 41.8343C41.003 41.8816 41.0061 41.9306 41 41.9795L40.8532 44.1299L40.7224 46.0448L40.7225 46.0448ZM44.206 39.6089C44.2041 39.6043 44.202 39.6 44.2 39.5959ZM44.053 39.5142C44.1245 39.5142 44.1709 39.5517 44.1923 39.583C44.1709 39.5517 44.1245 39.5143 44.0531 39.5143M44.053 39.5142H42.4989ZM41.9632 39.5142C41.8163 39.5142 41.653 39.4489 41.5714 39.3183ZM42.9381 34.3776C42.9359 34.3732 42.9337 34.3689 42.9316 34.3649ZM42.9265 34.355L42.9265 34.3551C42.9102 34.3388 42.8612 34.2898 42.7959 34.2898H40.2163C40.151 34.2898 40.0857 34.3388 40.0694 34.4041L37.8 41.2612C37.7864 41.2884 37.7841 41.3127 37.7873 41.3342C37.7841 41.3127 37.7864 41.2883 37.8 41.2612L40.0694 34.404C40.0857 34.3387 40.151 34.2897 40.2163 34.2897H42.7959C42.8612 34.2897 42.9102 34.3387 42.9265 34.355ZM44.0531 38.3184H42.9253L44.0632 34.8592C44.1984 34.4532 44.1208 33.9943 43.8723 33.6502C43.6227 33.3046 43.2197 33.0939 42.7796 33.0939H40.2163C39.6431 33.0939 39.1229 33.457 38.9483 34.0164L36.6797 40.8714C36.5444 41.2775 36.622 41.7362 36.8705 42.0804C37.1202 42.426 37.5232 42.6367 37.9633 42.6367H39.79L39.4127 48.1698C39.3899 48.4924 39.5964 48.7887 39.9126 48.881C39.9912 48.9063 40.0655 48.9062 40.0982 48.9061L40.102 48.9061C40.3544 48.9061 40.5866 48.7683 40.7035 48.5382L45.2406 40.2965L45.2425 40.2928C45.4535 39.8898 45.453 39.3917 45.2048 38.9717C44.9555 38.5497 44.5297 38.3184 44.0531 38.3184ZM41.9633 39.5143C41.8163 39.5143 41.6531 39.449 41.5714 39.3184ZM41.5714 39.3184C41.5714 39.3183 41.5714 39.3183 41.5714 39.3183ZM41.3164 38.8143L42.7364 34.4898H40.2517L38.0066 41.2735H40.5102C40.6903 41.2735 40.8729 41.3411 41.0108 41.479C41.1465 41.6147 41.2216 41.8026 41.1992 41.9983L41.1011 43.4345L40.9835 45.1579L43.9873 39.7143H42.4276H41.9633C41.7688 39.7143 41.5301 39.6295 41.4018 39.4244C41.2956 39.2543 41.245 39.029 41.3164 38.8143Z" fill="black"/>
</svg>
