<svg width="68" height="68" viewBox="0 0 68 68" fill="none" xmlns="http://www.w3.org/2000/svg">
<path fill-rule="evenodd" clip-rule="evenodd" d="M45.616 17.7983H55.262C56.0039 17.7983 56.5869 18.3809 56.5869 19.123C56.5869 19.8652 56.0039 20.4482 55.262 20.4482H52.3999L50.121 54.7393C50.015 56.5942 48.4249 58.0249 46.464 58.0249H26.536C24.6279 58.0249 22.985 56.5942 22.8789 54.7393L20.6 20.4482H17.7379C16.996 20.4482 16.413 19.8652 16.413 19.123C16.413 18.3809 16.996 17.7983 17.7379 17.7983H27.5959L28.073 14.8833C28.2319 13.77 29.1859 12.9751 30.299 12.9751H42.86C43.973 12.9751 44.927 13.77 45.1389 14.8833L45.616 17.7983ZM42.542 15.625H30.6699L30.299 17.7983H42.913L42.542 15.625ZM46.411 55.375C46.994 55.375 47.418 55.0039 47.4709 54.5801L49.75 20.501H23.25L25.476 54.5801C25.5289 55.0039 26.006 55.375 26.536 55.375H46.411ZM31.5179 44.7749C30.9879 44.7749 30.458 44.563 30.0869 44.1919C29.292 43.397 29.292 42.125 30.0869 41.3296L33.6379 37.7788L30.0869 34.2275C29.292 33.4326 29.292 32.1606 30.0869 31.3657C30.882 30.5708 32.1539 30.5708 32.949 31.3657L36.5 34.917L40.051 31.3657C40.8459 30.5708 42.1179 30.5708 42.913 31.3657C43.708 32.1606 43.708 33.4326 42.913 34.2275L39.3619 37.7788L42.913 41.3296C43.708 42.125 43.708 43.397 42.913 44.1919C42.542 44.563 42.012 44.7749 41.4819 44.7749C40.952 44.7749 40.422 44.563 40.051 44.1919L36.5 40.6406L32.949 44.1919C32.578 44.563 32.048 44.7749 31.5179 44.7749Z" fill="black"/>
</svg>
