<svg width="68" height="68" viewBox="0 0 68 68" fill="none" xmlns="http://www.w3.org/2000/svg">
<path fill-rule="evenodd" clip-rule="evenodd" d="M34.1615 52.3289C24.6832 52.3289 17 44.6452 17 35.1669C17 30.0668 19.2338 25.4993 22.7666 22.3587H19.7469C18.8977 22.3587 18.2097 21.6702 18.2097 20.8216V20.2096C18.2097 19.3604 18.8982 18.6724 19.7469 18.6724H28.2991C28.3052 18.6724 28.3103 18.6709 28.3164 18.6709H28.9284C29.3532 18.6709 29.7383 18.8438 30.0162 19.1222C30.2947 19.4007 30.4671 19.7847 30.4671 20.2096V20.8216C30.4671 20.8267 30.4655 20.8313 30.4655 20.8358V29.3911C30.4655 30.2402 29.777 30.9282 28.9284 30.9282H28.3164C27.4672 30.9282 26.7793 30.2397 26.7793 29.3911V23.9912C23.1292 26.4025 20.7143 30.5304 20.7143 35.2326C20.7143 42.6812 26.7527 48.7196 34.2013 48.7196C41.6498 48.7196 47.6882 42.6812 47.6882 35.2326C47.6882 29.4237 44.0091 24.4874 38.8591 22.5887C38.8953 22.5561 38.9264 22.5173 38.9616 22.4826C38.6138 22.219 38.3858 21.8054 38.3858 21.3356V20.7609C38.3858 19.9632 39.0325 19.3166 39.8301 19.3166H40.3835C40.3911 19.2763 40.4008 19.236 40.4085 19.1957C40.5712 19.2594 40.7277 19.3359 40.8879 19.4043C40.9501 19.4262 41.0093 19.4522 41.0669 19.4823C47.0997 22.142 51.3235 28.1508 51.3235 35.1674C51.3235 44.6452 43.6393 52.3289 34.1615 52.3289Z" fill="black"/>
</svg>
