<svg width="68" height="68" viewBox="0 0 68 68" fill="none" xmlns="http://www.w3.org/2000/svg">
<path fill-rule="evenodd" clip-rule="evenodd" d="M52.5429 46.9374C51.1169 44.4164 36.3612 18.3476 35.6422 17.1738C35.2096 16.4648 34.3562 16.2111 33.7026 16.2095C32.9357 16.2061 32.2688 16.5127 31.9605 17.0091C31.0865 18.4171 17.4699 43.2585 15.5709 46.7229L15.4567 46.9312C15.5641 48.5246 17.0109 49.791 18.7733 49.791H49.225C50.9868 49.791 52.4322 48.5279 52.5429 46.9374ZM13.9677 46.3621C14.6078 45.1937 29.6606 17.7189 30.6182 16.1767C31.2204 15.2031 32.3763 14.6252 33.7068 14.6294C35.1063 14.6336 36.3335 15.2762 36.9904 16.3481C37.7469 17.5838 53.0105 44.5561 53.9989 46.3027L54.0273 46.3529L54.1298 46.5351V46.7418C54.1298 49.2945 51.9298 51.3719 49.225 51.3719H18.7733C16.0702 51.3719 13.8702 49.2945 13.8702 46.7418V46.5393L13.9677 46.3621ZM36.2075 20.4876C36.2075 21.8135 35.1327 22.8884 33.8068 22.8884C32.4809 22.8884 31.4061 21.8135 31.4061 20.4876C31.4061 19.1618 32.4809 18.0869 33.8068 18.0869C35.1327 18.0869 36.2075 19.1618 36.2075 20.4876ZM33.4078 25.8718C33.4078 27.1982 32.3343 28.2742 31.0104 28.2742C29.6832 28.2742 28.6089 27.1982 28.6089 25.8718C28.6089 24.5472 29.6832 23.4736 31.0104 23.4736C32.3343 23.4736 33.4078 24.5472 33.4078 25.8718ZM36.9652 28.2742C38.2907 28.2742 39.3668 27.1982 39.3668 25.8718C39.3668 24.5472 38.2899 23.4736 36.9652 23.4736C35.6414 23.4736 34.567 24.5472 34.567 25.8718C34.567 27.1982 35.6414 28.2742 36.9652 28.2742ZM28.1267 33.5276C29.4517 33.5276 30.5258 32.4535 30.5258 31.1285C30.5258 29.8036 29.4517 28.7295 28.1267 28.7295C26.8018 28.7295 25.7277 29.8036 25.7277 31.1285C25.7277 32.4535 26.8018 33.5276 28.1267 33.5276ZM36.3049 31.1289C36.3049 32.4543 35.2305 33.5288 33.9051 33.5288C32.5796 33.5288 31.5052 32.4543 31.5052 31.1289C31.5052 29.8035 32.5796 28.729 33.9051 28.729C35.2305 28.729 36.3049 29.8035 36.3049 31.1289ZM39.6826 33.5288C41.008 33.5288 42.0825 32.4543 42.0825 31.1289C42.0825 29.8035 41.008 28.729 39.6826 28.729C38.3572 28.729 37.2827 29.8035 37.2827 31.1289C37.2827 32.4543 38.3572 33.5288 39.6826 33.5288ZM27.5942 36.3753C27.5942 37.7012 26.5193 38.7761 25.1934 38.7761C23.8676 38.7761 22.7927 37.7012 22.7927 36.3753C22.7927 35.0494 23.8676 33.9746 25.1934 33.9746C26.5193 33.9746 27.5942 35.0494 27.5942 36.3753ZM31.2062 38.7753C32.5316 38.7753 33.606 37.7009 33.606 36.3755C33.606 35.05 32.5316 33.9756 31.2062 33.9756C29.8807 33.9756 28.8063 35.05 28.8063 36.3755C28.8063 37.7009 29.8807 38.7753 31.2062 38.7753ZM37.2214 38.7762C38.5478 38.7762 39.6238 37.701 39.6238 36.3755C39.6238 35.0491 38.5478 33.9747 37.2214 33.9756C35.8967 33.9756 34.824 35.0499 34.824 36.3755C34.824 37.701 35.8967 38.7762 37.2214 38.7762ZM43.2375 38.7753C44.5629 38.7753 45.6373 37.7009 45.6373 36.3755C45.6373 35.05 44.5629 33.9756 43.2375 33.9756C41.9121 33.9756 40.8376 35.05 40.8376 36.3755C40.8376 37.7009 41.9121 38.7753 43.2375 38.7753ZM22.6155 43.6629C23.9419 43.6629 25.0137 42.5869 25.0137 41.2605C25.0137 39.9375 23.9419 38.8623 22.6155 38.8623C21.29 38.8623 20.2165 39.9375 20.2165 41.2605C20.2165 42.5869 21.29 43.6629 22.6155 43.6629ZM30.8181 41.2605C30.8181 42.5869 29.7412 43.6629 28.4149 43.6629C27.0885 43.6629 26.015 42.5869 26.015 41.2605C26.015 39.9375 27.0885 38.8623 28.4149 38.8623C29.7412 38.8623 30.8181 39.9375 30.8181 41.2605ZM34.2159 43.6629C35.5406 43.6629 36.6158 42.5869 36.6158 41.2605C36.6158 39.9375 35.5406 38.8623 34.2159 38.8623C32.8895 38.8623 31.8135 39.9375 31.8135 41.2605C31.8135 42.5869 32.8895 43.6629 34.2159 43.6629ZM42.416 41.2605C42.416 42.5869 41.3416 43.6629 40.0153 43.6629C38.6906 43.6629 37.6162 42.5869 37.6162 41.2605C37.6162 39.9375 38.6906 38.8623 40.0153 38.8623C41.3408 38.8623 42.416 39.9375 42.416 41.2605ZM45.8146 43.6629C47.141 43.6629 48.2162 42.5869 48.2162 41.2605C48.2162 39.9375 47.141 38.8623 45.8146 38.8623C44.4882 38.8623 43.4156 39.9375 43.4156 41.2605C43.4156 42.5869 44.4882 43.6629 45.8146 43.6629ZM21.8746 46.1737C21.8746 47.4983 20.8011 48.5735 19.4764 48.5735C18.1475 48.5735 17.0748 47.4983 17.0748 46.1737C17.0748 44.8481 18.1475 43.7729 19.4764 43.7729C20.8011 43.7721 21.8746 44.8473 21.8746 46.1737ZM27.758 46.1739C27.758 47.4989 26.6839 48.573 25.3589 48.573C24.034 48.573 22.9599 47.4989 22.9599 46.1739C22.9599 44.849 24.034 43.7749 25.3589 43.7749C26.6839 43.7749 27.758 44.849 27.758 46.1739ZM31.2448 48.5744C32.5707 48.5744 33.6455 47.4995 33.6455 46.1737C33.6455 44.8478 32.5707 43.7729 31.2448 43.7729C29.9189 43.7729 28.8441 44.8478 28.8441 46.1737C28.8441 47.4995 29.9189 48.5744 31.2448 48.5744ZM39.5289 46.1738C39.5289 47.4992 38.4544 48.5737 37.129 48.5737C35.8036 48.5737 34.7291 47.4992 34.7291 46.1738C34.7291 44.8484 35.8036 43.7739 37.129 43.7739C38.4544 43.7739 39.5289 44.8484 39.5289 46.1738ZM43.0132 48.5737C44.3386 48.5737 45.4131 47.4992 45.4131 46.1738C45.4131 44.8484 44.3386 43.7739 43.0132 43.7739C41.6878 43.7739 40.6133 44.8484 40.6133 46.1738C40.6133 47.4992 41.6878 48.5737 43.0132 48.5737ZM51.2964 46.1739C51.2964 47.4989 50.2223 48.573 48.8974 48.573C47.5724 48.573 46.4984 47.4989 46.4984 46.1739C46.4984 44.849 47.5724 43.7749 48.8974 43.7749C50.2223 43.7749 51.2964 44.849 51.2964 46.1739Z" fill="black"/>
</svg>
