<svg width="68" height="68" viewBox="0 0 68 68" fill="none" xmlns="http://www.w3.org/2000/svg">
<path fill-rule="evenodd" clip-rule="evenodd" d="M23 53.5156H27.5133V49.4418L29.5214 51.1858C29.6991 51.3401 29.8985 51.4646 30.1117 51.5564V53.5156H34.625V48.7917L37.2233 45.8038V53.5156H41.7366V40.6136L48.5455 32.7835C49.3701 31.8343 49.27 30.391 48.3214 29.5671L47.533 28.8825L54.9428 20.36L52.0026 17.8073L44.5914 26.3281L43.8036 25.644C43.3901 25.2856 42.8594 25.088 42.3097 25.088C42.1143 25.088 41.9219 25.1128 41.7366 25.1605V15H37.2233V29.737L34.625 32.7249V15H30.1117V37.915L27.5133 40.9031V15H23V53.5156ZM46.5773 28.0523L46.0413 27.5872L45.5478 27.1586L52.1279 19.5931L53.1558 20.4854L46.5773 28.0523ZM26.2468 42.3596L24.7795 44.0469C24.5177 44.3473 24.3435 44.7036 24.2665 45.0852V16.2665H26.2468V42.3596ZM24.2665 45.9939C24.365 46.4866 24.621 46.9298 25.0049 47.2633L26.2468 48.3419V52.2491H24.2665V45.9939ZM31.3782 36.4586L33.3585 34.1813V16.2665H31.3782V36.4586ZM38.4898 28.2805L40.4701 26.0033V16.2665H38.4898V28.2805ZM40.4701 42.0701L38.4898 44.3474V52.249H40.4701V42.0701ZM33.3585 50.2482L32.7403 50.9591C32.3876 51.365 31.9044 51.6298 31.3782 51.7137V52.2491H33.3585V50.2482ZM41.5403 26.7022C41.7328 26.4812 42.0127 26.3546 42.3091 26.3546C42.5542 26.3546 42.7904 26.4419 42.9727 26.6009L47.4899 30.5234C47.911 30.8894 47.9553 31.5309 47.5887 31.9533L31.7841 50.1282C31.4333 50.5329 30.7569 50.5823 30.3516 50.2302L25.8351 46.3077C25.6319 46.131 25.5096 45.8847 25.4906 45.6136C25.4716 45.342 25.5584 45.0811 25.7351 44.8784L41.5403 26.7022ZM43.2419 46.6301C43.2419 49.9984 45.9827 52.7392 49.3511 52.7392C52.7201 52.7392 55.4597 49.9984 55.4597 46.6301C55.4597 43.2617 52.7195 40.5209 49.3511 40.5209C45.9827 40.5209 43.2419 43.2617 43.2419 46.6301ZM44.5085 46.6294C44.5085 43.9595 46.6806 41.7868 49.3511 41.7868C52.021 41.7868 54.1931 43.9595 54.1931 46.6294C54.1931 49.2993 52.021 51.4721 49.3511 51.4721C46.6812 51.4721 44.5085 49.2993 44.5085 46.6294Z" fill="black"/>
</svg>
