<svg width="68" height="68" viewBox="0 0 68 68" fill="none" xmlns="http://www.w3.org/2000/svg">
<path fill-rule="evenodd" clip-rule="evenodd" d="M15.6 32.0093C15.6 21.8572 23.857 13.6001 34.0092 13.6001C44.1476 13.6001 52.4 21.8572 52.4 32.0093C52.4 36.2322 51.02 40.1926 48.4072 43.4495C47.0962 45.0918 45.546 46.4763 43.798 47.5757C43.798 47.5803 43.7934 47.5803 43.7934 47.5803C42.4548 48.4314 41.0058 49.1028 39.4832 49.5674C39.4602 49.5767 39.4326 49.5859 39.405 49.5906C38.1308 49.9907 36.7968 50.2437 35.4398 50.345C34.9752 50.3772 34.4922 50.3955 34.0092 50.3955C33.287 50.3955 32.5142 50.3496 31.7046 50.2576H31.7H31.6908C30.5178 50.1011 29.3724 49.8435 28.2868 49.48C27.1966 49.1443 26.1202 48.675 25.1036 48.0955C24.0962 47.5435 23.1164 46.8672 22.201 46.0945C21.2856 45.3584 20.4024 44.4568 19.5928 43.4312C18.6866 42.2996 17.9046 41.0391 17.279 39.6821C17.2767 39.6775 17.2755 39.6741 17.2744 39.6707C17.2733 39.6672 17.2721 39.6638 17.2698 39.6592C17.2698 39.6572 17.269 39.6562 17.2681 39.6553C17.2668 39.6538 17.2652 39.6526 17.2652 39.6499L17.2375 39.5808C16.1658 37.2349 15.6 34.6174 15.6 32.0093ZM49.594 32.4739C49.6031 34.6589 49.456 36.8669 49.1891 39.0796C50.2104 36.8945 50.7486 34.5071 50.7532 32.0322C50.7532 22.791 43.2414 15.2744 34.0092 15.2744C24.7678 15.2744 17.2514 22.791 17.2514 32.0322C17.2514 33.532 17.4814 35.0269 17.877 36.4712C18.107 35.2063 18.2312 33.9414 18.222 32.6809C18.2036 27.9246 20.2736 23.4946 23.903 20.5139C24.2572 20.2241 24.777 20.2747 25.0668 20.6289C25.3566 20.9832 25.3014 21.5029 24.9518 21.7927C21.7088 24.4561 19.8596 28.4214 19.8734 32.6763C19.8871 34.8706 19.556 37.0876 18.9028 39.2681C19.2294 39.949 19.6066 40.5884 20.016 41.2092C20.7474 39.1624 21.2303 37.0601 21.4282 34.9302C21.4926 34.2632 21.5248 33.6101 21.5248 32.9431V32.6626C21.511 28.6743 23.4246 24.9023 26.6537 22.5654C26.8506 22.4116 27.0577 22.2703 27.2723 22.1384C27.3787 22.0732 27.487 22.0103 27.5968 21.9492C29.2666 20.937 31.1664 20.3528 33.2134 20.2288C33.7194 20.2058 34.0598 20.5461 34.0874 21.0015C34.115 21.4568 33.77 21.8479 33.3146 21.8755C31.539 21.9812 29.8922 22.4873 28.4294 23.375C28.2542 23.4724 28.0941 23.5696 27.94 23.6731C27.8392 23.7407 27.741 23.811 27.6428 23.8857C24.8276 25.9236 23.167 29.1941 23.1808 32.6533V32.9385C23.1808 33.6606 23.1486 34.3645 23.0796 35.082C22.8358 37.7041 22.2056 40.2939 21.2028 42.7871C21.3822 42.9988 21.5616 43.2058 21.7456 43.4036C21.7921 43.4536 21.838 43.5049 21.884 43.5562C21.9607 43.6418 22.0377 43.7278 22.1182 43.8083C22.1845 43.8745 22.2529 43.9351 22.3218 43.9961C22.3581 44.0281 22.3945 44.0603 22.431 44.0935C23.5901 41.384 24.3584 38.5964 24.6712 35.7859C24.7218 35.3306 25.1358 34.9993 25.582 35.0544C26.0374 35.105 26.364 35.5144 26.3134 35.9653C25.9684 39.1025 25.0898 42.2075 23.7466 45.2158C24.1974 45.5654 24.6573 45.8921 25.1266 46.1865C26.7411 42.6675 27.7302 39.0105 28.0246 35.3306C28.0568 34.9856 28.0706 34.6497 28.089 34.3186C28.1111 33.926 28.1268 33.5442 28.1344 33.1614C28.1378 32.988 28.1396 32.8145 28.1396 32.6394C28.1396 30.1555 29.699 27.9475 32.0266 27.1379C32.4636 26.9861 32.9282 27.2161 33.08 27.6484C33.2272 28.0764 33.0018 28.5454 32.5694 28.6973C30.9088 29.2769 29.791 30.8594 29.791 32.6394C29.791 32.8909 29.7885 33.1399 29.7828 33.3884C29.7751 33.7266 29.7616 34.064 29.7404 34.406L29.7387 34.4375C29.7209 34.7771 29.7026 35.125 29.6714 35.4778C29.3586 39.3784 28.3098 43.2563 26.571 47.0054C26.805 47.1223 27.04 47.2332 27.277 47.3374C27.5432 47.4546 27.8118 47.5635 28.0844 47.6631C29.2527 45.1331 30.1406 42.4834 30.6833 39.834C30.8398 39.1853 30.941 38.6194 31.0008 38.0767C31.2998 36.3196 31.4424 34.5576 31.4424 32.635C31.4424 31.4526 32.2244 30.45 33.3422 30.1968C33.4448 30.1589 33.6407 30.1265 33.8539 30.1245C33.9753 30.1233 34.1023 30.1321 34.2208 30.1555C35.4673 30.2888 36.3965 31.3147 36.3965 32.5706C36.4104 34.3323 36.2862 36.1907 36.024 38.0813C35.9642 38.532 35.5456 38.8496 35.0948 38.7852C34.644 38.7253 34.3266 38.3066 34.391 37.856C34.6394 36.0435 34.759 34.2678 34.7452 32.5752C34.7452 32.1565 34.4324 31.8208 34.0184 31.7886C33.9494 31.7839 33.8849 31.77 33.8206 31.7471C33.3514 31.8806 33.0938 32.23 33.0938 32.6304C33.0938 34.6497 32.942 36.5034 32.6338 38.302C32.574 38.8679 32.459 39.5027 32.2934 40.188C31.746 42.8516 30.8628 45.5425 29.6714 48.1646C29.7035 48.1729 29.7356 48.1816 29.7677 48.1907C29.8414 48.2112 29.9151 48.2327 29.9888 48.252C30.1905 48.303 30.3944 48.3477 30.599 48.3904C30.6884 48.4089 30.7779 48.427 30.8674 48.4451C31.0146 48.4773 31.1664 48.5049 31.3182 48.5278C32.4037 46.0898 33.2364 43.6289 33.793 41.1956C33.8942 40.7539 34.3312 40.4641 34.782 40.5745C35.2281 40.6758 35.5042 41.1172 35.403 41.5635C34.8602 43.937 34.0552 46.3384 33.0294 48.7119C33.6504 48.7488 34.2484 48.7534 34.8234 48.7256C35.8722 46.2002 36.6772 43.606 37.2062 41.0022C37.289 40.6436 37.3488 40.3215 37.3948 39.9812C37.8456 37.5432 38.0663 35.0544 38.048 32.552C38.0342 31.1077 37.2844 29.8059 36.0378 29.0608C35.6468 28.8262 35.5179 28.3201 35.7526 27.9292C35.9825 27.5381 36.4886 27.4092 36.8842 27.6438C38.6276 28.6836 39.6764 30.5144 39.6948 32.5383C39.7086 35.1465 39.4832 37.7363 39.0186 40.2388C38.968 40.5884 38.899 40.9609 38.8116 41.3474C38.324 43.7532 37.5972 46.1682 36.6725 48.5278C37.335 48.4221 37.979 48.2795 38.6138 48.0955C39.3682 46.0164 39.98 43.8958 40.4032 41.7751C40.4906 41.3242 40.9322 41.0391 41.3738 41.1265C41.8246 41.2139 42.1144 41.6509 42.0224 42.0972C41.6682 43.8728 41.1622 45.6438 40.578 47.3962C40.6442 47.3674 40.7115 47.343 40.7784 47.3188C40.8508 47.2925 40.9226 47.2664 40.9919 47.2354C41.0974 47.1851 41.2 47.1282 41.3029 47.0708C41.3886 47.0232 41.4745 46.9756 41.5624 46.9316C41.9396 46.7385 42.3122 46.5454 42.671 46.3245C43.1172 44.8433 43.499 43.2839 43.8256 41.5635C44.0602 40.3398 44.2258 39.2451 44.327 38.2192C44.5432 36.416 44.6536 34.4934 44.6536 32.4922C44.6536 31.2778 44.4236 30.0681 43.9774 28.886C43.8164 28.458 44.028 27.9797 44.4557 27.8186C44.879 27.6531 45.3574 27.8694 45.5184 28.2971C46.0381 29.668 46.3004 31.0754 46.3004 32.4878C46.3004 34.5576 46.19 36.5449 45.9646 38.3987C45.8588 39.4568 45.6886 40.5974 45.4448 41.8716C45.2469 42.9021 45.0308 43.8682 44.7962 44.802C45.592 44.135 46.328 43.3943 46.995 42.5754C47.6436 39.2083 47.9656 35.8135 47.9518 32.4785C47.9518 30.7397 47.6205 29.0562 46.972 27.4736C46.696 26.7332 46.351 26.0476 45.914 25.353C43.9911 22.1836 40.8172 19.8652 37.2016 18.9775C36.7922 18.8672 36.3965 18.7888 36.001 18.729C35.2374 18.614 34.4784 18.5542 33.7469 18.5542L33.2088 18.5728C31.3458 18.6602 29.5242 19.1201 27.8083 19.9297C27.399 20.1228 26.9022 19.948 26.709 19.5342C26.5157 19.1201 26.6952 18.6279 27.1046 18.4348C29.0182 17.5332 31.0514 17.0225 33.1443 16.9214L33.7194 16.9028H33.724C34.5566 16.9028 35.3938 16.9673 36.2402 17.0962C36.7048 17.1697 37.1648 17.2571 37.611 17.3813C41.6268 18.3657 45.1688 20.9556 47.3078 24.4836C47.8 25.261 48.191 26.0476 48.4991 26.8665C49.2214 28.6284 49.594 30.5188 49.594 32.4739ZM37.1096 22.363C39.1842 23.0208 40.992 24.2629 42.3214 25.9509C42.4824 26.158 42.7262 26.2639 42.97 26.2639C43.1494 26.2639 43.3288 26.2041 43.4806 26.0845C43.8394 25.804 43.8992 25.2839 43.6186 24.9253C42.0776 22.9749 39.9984 21.5442 37.6064 20.7852C37.174 20.6426 36.7094 20.8911 36.5714 21.3235C36.4334 21.7605 36.6772 22.2251 37.1096 22.363ZM33.4709 23.5083C28.733 23.7429 24.9333 27.6528 24.8276 32.4048C24.8184 32.8601 25.1772 33.2373 25.6326 33.2466C26.0834 33.2788 26.4698 32.897 26.4789 32.4414C26.5663 28.5498 29.676 25.3484 33.5124 25.1597H33.8252C33.872 25.1597 33.9212 25.1597 33.9873 25.1621C34.0511 25.1643 34.1307 25.1689 34.2391 25.178C34.3726 25.178 34.5013 25.1919 34.7498 25.2288L34.8133 25.2346C34.8966 25.2422 34.9856 25.25 35.0853 25.2661C35.1361 25.2742 35.1896 25.2844 35.2466 25.2976C35.6882 25.376 36.0792 25.4817 36.4426 25.6243C38.1537 26.2544 39.5613 27.4504 40.4124 29.0007C40.4168 29.0142 40.4224 29.0276 40.4285 29.041L40.4388 29.0623L40.4492 29.0835L40.6378 29.447C41.084 30.3853 41.3185 31.4204 41.3324 32.5151C41.3462 34.4194 41.2311 36.3516 40.9781 38.417C40.923 38.8677 41.245 39.2817 41.6957 39.3369C41.7091 39.3386 41.7219 39.3396 41.7343 39.3403C41.756 39.3416 41.7765 39.3416 41.797 39.3416C42.2064 39.3416 42.5605 39.0332 42.6158 38.6194C42.878 36.4802 43.0022 34.4792 42.9838 32.4966C42.9654 31.1582 42.6755 29.8931 42.119 28.7202L41.9579 28.4165C41.9442 28.3796 41.9304 28.343 41.9073 28.3062C40.8678 26.3557 39.1244 24.8516 37.0176 24.0786C36.5622 23.9038 36.0746 23.7705 35.587 23.6877C35.3616 23.6279 35.1132 23.605 34.92 23.5911C34.6899 23.5498 34.4554 23.5312 34.3174 23.5359C34.1518 23.5129 33.9861 23.5129 33.816 23.5129L33.4709 23.5083Z" fill="black"/>
</svg>
