<svg width="68" height="68" viewBox="0 0 68 68" fill="none" xmlns="http://www.w3.org/2000/svg">
<mask id="path-1-inside-1" fill="white">
<path fill-rule="evenodd" clip-rule="evenodd" d="M62.1458 18.0312C62.1458 16.2205 60.6754 14.75 58.8646 14.75C57.0538 14.75 55.5833 16.2205 55.5833 18.0312C55.5833 19.842 57.0538 21.3125 58.8646 21.3125C60.6754 21.3125 62.1458 19.842 62.1458 18.0312ZM56.5208 18.0312C56.5208 17.3808 56.7862 16.792 57.2145 16.3673C57.3294 16.7422 57.4583 17.3213 57.4583 18.0312C57.4583 18.7412 57.3293 19.3203 57.2145 19.6952C56.7862 19.2704 56.5208 18.6816 56.5208 18.0312ZM58.3958 18.0312C58.3958 17.0431 58.1804 16.2678 58.0273 15.8417C58.2873 15.7421 58.5696 15.6875 58.8646 15.6875C59.1595 15.6875 59.4418 15.7421 59.7019 15.8417C59.5488 16.2679 59.3333 17.0431 59.3333 18.0312C59.3333 19.0194 59.5488 19.7947 59.7019 20.2208C59.4419 20.3204 59.1596 20.375 58.8646 20.375C58.5696 20.375 58.2873 20.3204 58.0272 20.2208C58.1803 19.7947 58.3958 19.0194 58.3958 18.0312ZM60.5147 19.6952C60.943 19.2704 61.2083 18.6816 61.2083 18.0312C61.2083 17.3808 60.943 16.792 60.5146 16.3673C60.3998 16.7422 60.2708 17.3213 60.2708 18.0312C60.2708 18.7412 60.3998 19.3203 60.5147 19.6952ZM41.3657 16.4698C43.8636 13.9714 48.216 14.2198 51.0749 17.0788C52.6063 18.6099 53.3888 20.5694 53.4015 22.4431C53.4037 22.4647 53.4045 22.4866 53.4037 22.5089L53.401 22.5801C53.3996 22.687 53.3957 22.7936 53.3892 22.8998L53.3573 23.7623C53.2869 25.6678 54.013 27.517 55.3616 28.8651L56.0521 29.556L56.1894 29.4187C56.3722 29.2354 56.6694 29.2354 56.8522 29.4187L61.5397 34.1062C61.8763 34.4428 62.0657 34.8993 62.0657 35.3751C62.0657 35.8509 61.8763 36.3075 61.5397 36.644C61.2032 36.9806 60.7466 37.17 60.2708 37.17C59.795 37.17 59.3385 36.9806 59.0019 36.644L55.7267 33.3689L55.7207 33.3629L55.7147 33.3569L54.3144 31.9565C54.1311 31.7737 54.1311 31.4765 54.3144 31.2937L54.4518 31.1563L53.7608 30.4657C52.4127 29.1171 50.5635 28.391 48.658 28.4614L47.7987 28.4932C47.6905 28.4998 47.5818 28.5038 47.4728 28.5052L47.4046 28.5078C47.3826 28.5086 47.3609 28.5078 47.3395 28.5056C45.4657 28.4931 43.5059 27.7106 41.9746 26.1791C39.1157 23.3202 38.8672 18.9678 41.3657 16.4698ZM59.6647 35.9812L56.715 33.0315L57.9272 31.8193L60.8769 34.769C61.0377 34.9298 61.1282 35.1478 61.1282 35.3751C61.1282 35.6025 61.0377 35.8204 60.8769 35.9812C60.7161 36.142 60.4982 36.2325 60.2708 36.2325C60.0435 36.2325 59.8255 36.142 59.6647 35.9812ZM56.5208 30.4129L57.2643 31.1565L56.0522 32.3686L55.3086 31.6251L56.3793 30.5544L56.3835 30.5503L56.3876 30.5461L56.5208 30.4129ZM44.9962 23.6565L46.6771 25.3374L48.1237 23.8909L46.4427 22.2099L44.9962 23.6565ZM44.3333 22.9937L45.7799 21.5471L44.099 19.8662L42.6524 21.3128L44.3333 22.9937ZM42.3758 16.8174L44.099 18.5406L45.5455 17.094L44.4707 16.0192C44.4178 15.9662 44.3802 15.9038 44.3579 15.8372C43.636 16.0117 42.9599 16.3369 42.3758 16.8174ZM46.2083 17.7568L44.7618 19.2034L46.4427 20.8843L47.8893 19.4378L46.2083 17.7568ZM48.5521 18.7749L46.8712 17.094L47.8708 16.0943C48.6146 16.3724 49.3334 16.7906 49.9825 17.3446L48.5521 18.7749ZM45.4653 15.6881C45.9181 15.6729 46.3791 15.7109 46.8384 15.8011L46.2083 16.4312L45.4653 15.6881ZM41.9896 20.6499L43.4362 19.2034L41.713 17.4802C41.2326 18.0643 40.9074 18.7404 40.733 19.4624C40.7995 19.4847 40.8619 19.5222 40.9148 19.5751L41.9896 20.6499ZM40.5839 20.5699L41.3268 21.3128L40.697 21.9426C40.6067 21.4834 40.5687 21.0226 40.5839 20.5699ZM42.2404 25.0867C41.6864 24.4375 41.2682 23.7188 40.9902 22.975L41.9896 21.9756L43.6705 23.6565L42.2404 25.0867ZM42.8928 25.7599L44.3333 24.3193L46.0143 26.0003L44.9437 27.0709C44.217 26.7679 43.5192 26.3295 42.8928 25.7599ZM47.1055 21.5471L48.7865 23.2281L50.233 21.7815L48.5521 20.1006L47.1055 21.5471ZM49.2149 19.4378L50.8958 21.1187L51.9667 20.0478C51.6637 19.3212 51.2253 18.6234 50.6557 17.997L49.2149 19.4378ZM46.6771 26.6631L45.9421 27.3981C46.4066 27.5103 46.8749 27.569 47.3367 27.5732C47.3476 27.572 47.3587 27.5712 47.3699 27.5707L47.5771 27.5631L46.6771 26.6631ZM48.7865 24.5537L47.3399 26.0003L48.7471 27.4074C49.4482 27.2299 50.1047 26.9092 50.6739 26.4411L48.7865 24.5537ZM51.3367 25.7783L49.4493 23.8909L50.8958 22.4443L52.3031 23.8516C52.1256 24.5527 51.8049 25.2092 51.3367 25.7783ZM52.4589 22.6818L51.5587 21.7815L52.2939 21.0463C52.4062 21.511 52.4649 21.9795 52.469 22.4415C52.4684 22.4476 52.4678 22.4537 52.4674 22.4598L52.4666 22.4742L52.4589 22.6818ZM51.6741 26.7986L51.6843 26.7887L51.6942 26.7785C52.0444 26.4265 52.3404 26.038 52.5825 25.6222C52.8915 27.0888 53.6198 28.4496 54.6983 29.5284L55.3892 30.2189L55.1147 30.4934L54.4241 29.8024C53.3453 28.724 51.9846 27.9956 50.5181 27.6866C50.9337 27.4446 51.3222 27.1487 51.6741 26.7986ZM16.5148 20.2085C22.2126 16.8442 28.8336 17.0553 30.9627 20.6612C33.0918 24.2671 30.0626 30.1391 24.3811 33.5309C21.8762 35.0099 18.7187 35.7606 15.7703 35.6083C12.9646 35.4459 10.7783 34.5095 9.93314 33.0782C9.08801 31.6469 9.32398 29.2802 10.537 26.745C11.8388 24.046 14.01 21.6875 16.5148 20.2085ZM16.8398 20.759C11.4448 23.9445 9.08593 30.3859 10.4837 32.7531C11.1988 33.9643 13.2487 34.7956 15.7968 34.9615C18.6301 35.1076 21.645 34.3668 24.0397 32.9528C29.3522 29.8161 32.3137 24.2067 30.3959 20.9587C28.4781 17.7107 22.1523 17.6223 16.8398 20.759ZM30.0682 45.9002C30.0682 39.8778 34.9733 35 40.9956 35C47.018 35 51.8958 39.8778 51.8958 45.9002C51.8958 51.9225 47.018 56.8276 40.9956 56.8276C34.9733 56.8276 30.0682 51.9498 30.0682 45.9002ZM42.0039 56.4461C41.4861 56.3644 40.9684 56.2009 40.5324 55.9011C39.0609 55.8194 37.5621 55.6014 36.1451 55.1653C36.1042 55.1653 36.0701 55.1722 36.0361 55.179C36.002 55.1858 35.9679 55.1926 35.9271 55.1926C37.7801 56.2009 39.9056 56.6369 42.0039 56.4461ZM46.6092 52.7946C46.8817 53.2851 47.1815 53.9391 47.127 54.5113C49.2253 53.0126 50.6968 50.8325 51.2691 48.3527C51.1601 47.9167 50.9693 47.508 50.6968 47.181C50.0973 48.0257 49.307 48.598 48.3805 49.034C48.2617 49.2715 47.791 50.2752 46.9863 51.9908L46.6092 52.7946ZM47.6541 49.7797C47.855 49.3442 47.9875 49.0569 48.0535 48.925C47.7891 48.5549 47.5207 48.1889 47.2529 47.8238C46.8306 47.248 46.4099 46.6746 46.0097 46.0909C44.5927 46.3907 43.1757 46.636 41.7587 46.854C41.2681 48.0802 40.7231 49.3065 40.0964 50.4783C40.7504 51.541 41.4861 52.522 42.3037 53.4213C43.6389 53.2578 44.9742 52.9853 46.3095 52.6583C46.9109 51.3905 47.3571 50.4233 47.6541 49.7797ZM42.0312 53.6121C41.1864 52.7128 40.4506 51.7045 39.7966 50.669C38.4341 50.5873 36.9898 50.3965 35.709 49.8788C35.3003 50.6145 34.7553 51.4593 34.074 52.0043C34.6463 53.0671 35.4093 53.9936 36.2541 54.8383C37.6166 55.2743 39.0609 55.4924 40.5051 55.5741L42.0312 53.6121ZM33.856 51.759C34.51 51.2413 35.0823 50.342 35.4638 49.6335C35.1095 48.38 34.946 46.9357 34.8643 45.6277C33.9923 45.0282 33.1203 44.4014 32.3027 43.7474C31.7032 44.2379 31.2127 44.8647 30.8312 45.5187C30.695 46.8812 30.9402 48.38 31.567 50.0423C32.221 50.7508 32.984 51.323 33.856 51.759ZM41.7314 46.5269C43.1212 46.3089 44.5382 46.0637 45.9552 45.7639C46.2822 44.5922 46.6365 43.4476 47.018 42.3031C46.0642 41.1314 45.0015 40.0413 43.8842 39.0331C42.5762 39.2511 41.2409 39.4691 39.9056 39.6871C39.5786 40.9951 39.2516 42.3031 38.8974 43.5566C39.9874 44.4014 40.9411 45.3824 41.7314 46.5269ZM50.8331 46.854C51.0783 47.0992 51.2691 47.399 51.4053 47.6987C51.7868 45.5187 51.4598 43.2569 50.4788 41.2676C50.4788 41.7581 50.4516 42.2486 50.3426 42.7391C50.8331 44.2652 50.9966 45.2462 50.8331 46.854ZM50.0428 42.4939C50.179 41.8671 50.179 41.2131 50.1245 40.5863C49.2798 39.1421 48.108 37.9158 46.691 37.0165C45.928 36.8258 45.1105 36.6623 44.3202 36.6623C44.3474 37.3435 44.3747 38.1611 44.1567 38.8151C45.2467 39.8233 46.3095 40.9134 47.2632 42.0851C48.217 41.8671 49.1708 42.0851 50.0428 42.4939ZM39.5785 39.6058L39.5786 39.6053C38.8429 39.0058 38.0526 38.4336 37.2623 37.9158C35.9816 38.3246 34.8098 38.9241 33.6925 39.7143C33.0113 40.8589 32.6297 42.1396 32.4662 43.4749C33.2838 44.1289 34.1285 44.7284 35.0005 45.3279C35.8998 44.4014 37.3441 43.8564 38.5703 43.5021C38.9242 42.223 39.2508 40.9166 39.5773 39.6102L39.5774 39.61L39.5775 39.6097L39.5775 39.6095L39.5776 39.6093L39.5776 39.6091L39.5777 39.6089L39.5777 39.6086L39.5778 39.6084L39.5779 39.6082L39.5779 39.608L39.578 39.6078L39.578 39.6076L39.5781 39.6073L39.5781 39.6071L39.5782 39.6069L39.5783 39.6067L39.5783 39.6065L39.5784 39.6063L39.5784 39.606L39.5785 39.6058ZM30.6405 48.162C30.4497 47.2082 30.3952 46.3089 30.5042 45.4642C30.4847 45.3083 30.4931 44.9018 30.4995 44.5931C30.502 44.4699 30.5042 44.3623 30.5042 44.2924C30.3135 45.3279 30.3952 47.0992 30.6405 48.162ZM33.6108 39.3601C34.728 38.5971 35.9271 37.9976 37.1806 37.5888C37.7528 36.7985 38.4613 36.1445 39.3334 35.7085C39.1154 35.654 38.8701 35.6268 38.5703 35.6268C36.3631 36.1173 34.401 37.3435 32.9295 39.0603C33.202 39.0603 33.4473 39.1421 33.6108 39.3601ZM39.7694 35.5178C41.2954 35.2453 42.9304 35.7358 44.2384 36.3353C44.7562 36.3353 45.2467 36.3898 45.7645 36.4715C43.8569 35.5178 41.6769 35.1363 39.5786 35.436C39.6604 35.4633 39.7149 35.4905 39.7694 35.5178ZM29.3663 21.6041C29.2688 21.4389 29.0937 21.3938 28.9285 21.4913L23.8914 24.4655L23.1762 23.2544C23.0787 23.0892 22.9036 23.0442 22.7385 23.1417C22.5733 23.2392 22.5282 23.4143 22.6257 23.5795L23.3409 24.7906L22.2123 25.4569L21.4971 24.2456C21.3996 24.0805 21.2245 24.0354 21.0593 24.1329C20.8942 24.2304 20.8491 24.4055 20.9466 24.5707L21.6618 25.782L20.5609 26.432L19.8457 25.2207C19.7481 25.0556 19.573 25.0105 19.4079 25.108C19.2427 25.2055 19.1976 25.3806 19.2951 25.5458L20.0104 26.7571L18.9093 27.4072L18.1941 26.1958C18.0966 26.0307 17.9214 25.9856 17.7563 26.0831C17.5911 26.1806 17.546 26.3557 17.6436 26.5209L18.3588 27.7323L17.2578 28.3824L16.5425 27.1709C16.445 27.0058 16.2699 26.9607 16.1047 27.0582C15.9396 27.1557 15.8945 27.3308 15.992 27.496L16.7073 28.7074L11.67 31.6817C11.5048 31.7792 11.4597 31.9543 11.5573 32.1195C11.6548 32.2846 11.8299 32.3297 11.995 32.2322L17.0323 29.2579L17.731 30.4412C17.8285 30.6064 18.0036 30.6514 18.1688 30.5539C18.3339 30.4564 18.379 30.2813 18.2815 30.1161L17.5829 28.9329L18.6839 28.2828L19.3826 29.4661C19.4801 29.6313 19.6552 29.6763 19.8204 29.5788C19.9855 29.4813 20.0306 29.3062 19.9331 29.141L19.2344 27.9577L20.3354 27.3076L21.0342 28.491C21.1317 28.6562 21.3068 28.7012 21.4719 28.6037C21.6371 28.5062 21.6822 28.3311 21.5847 28.1659L20.8859 26.9826L21.9869 26.3325L22.6856 27.5159C22.7831 27.6811 22.9583 27.7262 23.1234 27.6286C23.2886 27.5311 23.3337 27.356 23.2361 27.1909L22.5374 26.0074L23.6659 25.3411L24.3648 26.5247C24.4623 26.6898 24.6374 26.7349 24.8025 26.6374C24.9677 26.5399 25.0128 26.3648 24.9153 26.1996L24.2164 25.0161L29.2811 22.0256C29.4187 21.9443 29.4476 21.7417 29.3663 21.6041Z"/>
</mask>
<path fill-rule="evenodd" clip-rule="evenodd" d="M62.1458 18.0312C62.1458 16.2205 60.6754 14.75 58.8646 14.75C57.0538 14.75 55.5833 16.2205 55.5833 18.0312C55.5833 19.842 57.0538 21.3125 58.8646 21.3125C60.6754 21.3125 62.1458 19.842 62.1458 18.0312ZM56.5208 18.0312C56.5208 17.3808 56.7862 16.792 57.2145 16.3673C57.3294 16.7422 57.4583 17.3213 57.4583 18.0312C57.4583 18.7412 57.3293 19.3203 57.2145 19.6952C56.7862 19.2704 56.5208 18.6816 56.5208 18.0312ZM58.3958 18.0312C58.3958 17.0431 58.1804 16.2678 58.0273 15.8417C58.2873 15.7421 58.5696 15.6875 58.8646 15.6875C59.1595 15.6875 59.4418 15.7421 59.7019 15.8417C59.5488 16.2679 59.3333 17.0431 59.3333 18.0312C59.3333 19.0194 59.5488 19.7947 59.7019 20.2208C59.4419 20.3204 59.1596 20.375 58.8646 20.375C58.5696 20.375 58.2873 20.3204 58.0272 20.2208C58.1803 19.7947 58.3958 19.0194 58.3958 18.0312ZM60.5147 19.6952C60.943 19.2704 61.2083 18.6816 61.2083 18.0312C61.2083 17.3808 60.943 16.792 60.5146 16.3673C60.3998 16.7422 60.2708 17.3213 60.2708 18.0312C60.2708 18.7412 60.3998 19.3203 60.5147 19.6952ZM41.3657 16.4698C43.8636 13.9714 48.216 14.2198 51.0749 17.0788C52.6063 18.6099 53.3888 20.5694 53.4015 22.4431C53.4037 22.4647 53.4045 22.4866 53.4037 22.5089L53.401 22.5801C53.3996 22.687 53.3957 22.7936 53.3892 22.8998L53.3573 23.7623C53.2869 25.6678 54.013 27.517 55.3616 28.8651L56.0521 29.556L56.1894 29.4187C56.3722 29.2354 56.6694 29.2354 56.8522 29.4187L61.5397 34.1062C61.8763 34.4428 62.0657 34.8993 62.0657 35.3751C62.0657 35.8509 61.8763 36.3075 61.5397 36.644C61.2032 36.9806 60.7466 37.17 60.2708 37.17C59.795 37.17 59.3385 36.9806 59.0019 36.644L55.7267 33.3689L55.7207 33.3629L55.7147 33.3569L54.3144 31.9565C54.1311 31.7737 54.1311 31.4765 54.3144 31.2937L54.4518 31.1563L53.7608 30.4657C52.4127 29.1171 50.5635 28.391 48.658 28.4614L47.7987 28.4932C47.6905 28.4998 47.5818 28.5038 47.4728 28.5052L47.4046 28.5078C47.3826 28.5086 47.3609 28.5078 47.3395 28.5056C45.4657 28.4931 43.5059 27.7106 41.9746 26.1791C39.1157 23.3202 38.8672 18.9678 41.3657 16.4698ZM59.6647 35.9812L56.715 33.0315L57.9272 31.8193L60.8769 34.769C61.0377 34.9298 61.1282 35.1478 61.1282 35.3751C61.1282 35.6025 61.0377 35.8204 60.8769 35.9812C60.7161 36.142 60.4982 36.2325 60.2708 36.2325C60.0435 36.2325 59.8255 36.142 59.6647 35.9812ZM56.5208 30.4129L57.2643 31.1565L56.0522 32.3686L55.3086 31.6251L56.3793 30.5544L56.3835 30.5503L56.3876 30.5461L56.5208 30.4129ZM44.9962 23.6565L46.6771 25.3374L48.1237 23.8909L46.4427 22.2099L44.9962 23.6565ZM44.3333 22.9937L45.7799 21.5471L44.099 19.8662L42.6524 21.3128L44.3333 22.9937ZM42.3758 16.8174L44.099 18.5406L45.5455 17.094L44.4707 16.0192C44.4178 15.9662 44.3802 15.9038 44.3579 15.8372C43.636 16.0117 42.9599 16.3369 42.3758 16.8174ZM46.2083 17.7568L44.7618 19.2034L46.4427 20.8843L47.8893 19.4378L46.2083 17.7568ZM48.5521 18.7749L46.8712 17.094L47.8708 16.0943C48.6146 16.3724 49.3334 16.7906 49.9825 17.3446L48.5521 18.7749ZM45.4653 15.6881C45.9181 15.6729 46.3791 15.7109 46.8384 15.8011L46.2083 16.4312L45.4653 15.6881ZM41.9896 20.6499L43.4362 19.2034L41.713 17.4802C41.2326 18.0643 40.9074 18.7404 40.733 19.4624C40.7995 19.4847 40.8619 19.5222 40.9148 19.5751L41.9896 20.6499ZM40.5839 20.5699L41.3268 21.3128L40.697 21.9426C40.6067 21.4834 40.5687 21.0226 40.5839 20.5699ZM42.2404 25.0867C41.6864 24.4375 41.2682 23.7188 40.9902 22.975L41.9896 21.9756L43.6705 23.6565L42.2404 25.0867ZM42.8928 25.7599L44.3333 24.3193L46.0143 26.0003L44.9437 27.0709C44.217 26.7679 43.5192 26.3295 42.8928 25.7599ZM47.1055 21.5471L48.7865 23.2281L50.233 21.7815L48.5521 20.1006L47.1055 21.5471ZM49.2149 19.4378L50.8958 21.1187L51.9667 20.0478C51.6637 19.3212 51.2253 18.6234 50.6557 17.997L49.2149 19.4378ZM46.6771 26.6631L45.9421 27.3981C46.4066 27.5103 46.8749 27.569 47.3367 27.5732C47.3476 27.572 47.3587 27.5712 47.3699 27.5707L47.5771 27.5631L46.6771 26.6631ZM48.7865 24.5537L47.3399 26.0003L48.7471 27.4074C49.4482 27.2299 50.1047 26.9092 50.6739 26.4411L48.7865 24.5537ZM51.3367 25.7783L49.4493 23.8909L50.8958 22.4443L52.3031 23.8516C52.1256 24.5527 51.8049 25.2092 51.3367 25.7783ZM52.4589 22.6818L51.5587 21.7815L52.2939 21.0463C52.4062 21.511 52.4649 21.9795 52.469 22.4415C52.4684 22.4476 52.4678 22.4537 52.4674 22.4598L52.4666 22.4742L52.4589 22.6818ZM51.6741 26.7986L51.6843 26.7887L51.6942 26.7785C52.0444 26.4265 52.3404 26.038 52.5825 25.6222C52.8915 27.0888 53.6198 28.4496 54.6983 29.5284L55.3892 30.2189L55.1147 30.4934L54.4241 29.8024C53.3453 28.724 51.9846 27.9956 50.5181 27.6866C50.9337 27.4446 51.3222 27.1487 51.6741 26.7986ZM16.5148 20.2085C22.2126 16.8442 28.8336 17.0553 30.9627 20.6612C33.0918 24.2671 30.0626 30.1391 24.3811 33.5309C21.8762 35.0099 18.7187 35.7606 15.7703 35.6083C12.9646 35.4459 10.7783 34.5095 9.93314 33.0782C9.08801 31.6469 9.32398 29.2802 10.537 26.745C11.8388 24.046 14.01 21.6875 16.5148 20.2085ZM16.8398 20.759C11.4448 23.9445 9.08593 30.3859 10.4837 32.7531C11.1988 33.9643 13.2487 34.7956 15.7968 34.9615C18.6301 35.1076 21.645 34.3668 24.0397 32.9528C29.3522 29.8161 32.3137 24.2067 30.3959 20.9587C28.4781 17.7107 22.1523 17.6223 16.8398 20.759ZM30.0682 45.9002C30.0682 39.8778 34.9733 35 40.9956 35C47.018 35 51.8958 39.8778 51.8958 45.9002C51.8958 51.9225 47.018 56.8276 40.9956 56.8276C34.9733 56.8276 30.0682 51.9498 30.0682 45.9002ZM42.0039 56.4461C41.4861 56.3644 40.9684 56.2009 40.5324 55.9011C39.0609 55.8194 37.5621 55.6014 36.1451 55.1653C36.1042 55.1653 36.0701 55.1722 36.0361 55.179C36.002 55.1858 35.9679 55.1926 35.9271 55.1926C37.7801 56.2009 39.9056 56.6369 42.0039 56.4461ZM46.6092 52.7946C46.8817 53.2851 47.1815 53.9391 47.127 54.5113C49.2253 53.0126 50.6968 50.8325 51.2691 48.3527C51.1601 47.9167 50.9693 47.508 50.6968 47.181C50.0973 48.0257 49.307 48.598 48.3805 49.034C48.2617 49.2715 47.791 50.2752 46.9863 51.9908L46.6092 52.7946ZM47.6541 49.7797C47.855 49.3442 47.9875 49.0569 48.0535 48.925C47.7891 48.5549 47.5207 48.1889 47.2529 47.8238C46.8306 47.248 46.4099 46.6746 46.0097 46.0909C44.5927 46.3907 43.1757 46.636 41.7587 46.854C41.2681 48.0802 40.7231 49.3065 40.0964 50.4783C40.7504 51.541 41.4861 52.522 42.3037 53.4213C43.6389 53.2578 44.9742 52.9853 46.3095 52.6583C46.9109 51.3905 47.3571 50.4233 47.6541 49.7797ZM42.0312 53.6121C41.1864 52.7128 40.4506 51.7045 39.7966 50.669C38.4341 50.5873 36.9898 50.3965 35.709 49.8788C35.3003 50.6145 34.7553 51.4593 34.074 52.0043C34.6463 53.0671 35.4093 53.9936 36.2541 54.8383C37.6166 55.2743 39.0609 55.4924 40.5051 55.5741L42.0312 53.6121ZM33.856 51.759C34.51 51.2413 35.0823 50.342 35.4638 49.6335C35.1095 48.38 34.946 46.9357 34.8643 45.6277C33.9923 45.0282 33.1203 44.4014 32.3027 43.7474C31.7032 44.2379 31.2127 44.8647 30.8312 45.5187C30.695 46.8812 30.9402 48.38 31.567 50.0423C32.221 50.7508 32.984 51.323 33.856 51.759ZM41.7314 46.5269C43.1212 46.3089 44.5382 46.0637 45.9552 45.7639C46.2822 44.5922 46.6365 43.4476 47.018 42.3031C46.0642 41.1314 45.0015 40.0413 43.8842 39.0331C42.5762 39.2511 41.2409 39.4691 39.9056 39.6871C39.5786 40.9951 39.2516 42.3031 38.8974 43.5566C39.9874 44.4014 40.9411 45.3824 41.7314 46.5269ZM50.8331 46.854C51.0783 47.0992 51.2691 47.399 51.4053 47.6987C51.7868 45.5187 51.4598 43.2569 50.4788 41.2676C50.4788 41.7581 50.4516 42.2486 50.3426 42.7391C50.8331 44.2652 50.9966 45.2462 50.8331 46.854ZM50.0428 42.4939C50.179 41.8671 50.179 41.2131 50.1245 40.5863C49.2798 39.1421 48.108 37.9158 46.691 37.0165C45.928 36.8258 45.1105 36.6623 44.3202 36.6623C44.3474 37.3435 44.3747 38.1611 44.1567 38.8151C45.2467 39.8233 46.3095 40.9134 47.2632 42.0851C48.217 41.8671 49.1708 42.0851 50.0428 42.4939ZM39.5785 39.6058L39.5786 39.6053C38.8429 39.0058 38.0526 38.4336 37.2623 37.9158C35.9816 38.3246 34.8098 38.9241 33.6925 39.7143C33.0113 40.8589 32.6297 42.1396 32.4662 43.4749C33.2838 44.1289 34.1285 44.7284 35.0005 45.3279C35.8998 44.4014 37.3441 43.8564 38.5703 43.5021C38.9242 42.223 39.2508 40.9166 39.5773 39.6102L39.5774 39.61L39.5775 39.6097L39.5775 39.6095L39.5776 39.6093L39.5776 39.6091L39.5777 39.6089L39.5777 39.6086L39.5778 39.6084L39.5779 39.6082L39.5779 39.608L39.578 39.6078L39.578 39.6076L39.5781 39.6073L39.5781 39.6071L39.5782 39.6069L39.5783 39.6067L39.5783 39.6065L39.5784 39.6063L39.5784 39.606L39.5785 39.6058ZM30.6405 48.162C30.4497 47.2082 30.3952 46.3089 30.5042 45.4642C30.4847 45.3083 30.4931 44.9018 30.4995 44.5931C30.502 44.4699 30.5042 44.3623 30.5042 44.2924C30.3135 45.3279 30.3952 47.0992 30.6405 48.162ZM33.6108 39.3601C34.728 38.5971 35.9271 37.9976 37.1806 37.5888C37.7528 36.7985 38.4613 36.1445 39.3334 35.7085C39.1154 35.654 38.8701 35.6268 38.5703 35.6268C36.3631 36.1173 34.401 37.3435 32.9295 39.0603C33.202 39.0603 33.4473 39.1421 33.6108 39.3601ZM39.7694 35.5178C41.2954 35.2453 42.9304 35.7358 44.2384 36.3353C44.7562 36.3353 45.2467 36.3898 45.7645 36.4715C43.8569 35.5178 41.6769 35.1363 39.5786 35.436C39.6604 35.4633 39.7149 35.4905 39.7694 35.5178ZM29.3663 21.6041C29.2688 21.4389 29.0937 21.3938 28.9285 21.4913L23.8914 24.4655L23.1762 23.2544C23.0787 23.0892 22.9036 23.0442 22.7385 23.1417C22.5733 23.2392 22.5282 23.4143 22.6257 23.5795L23.3409 24.7906L22.2123 25.4569L21.4971 24.2456C21.3996 24.0805 21.2245 24.0354 21.0593 24.1329C20.8942 24.2304 20.8491 24.4055 20.9466 24.5707L21.6618 25.782L20.5609 26.432L19.8457 25.2207C19.7481 25.0556 19.573 25.0105 19.4079 25.108C19.2427 25.2055 19.1976 25.3806 19.2951 25.5458L20.0104 26.7571L18.9093 27.4072L18.1941 26.1958C18.0966 26.0307 17.9214 25.9856 17.7563 26.0831C17.5911 26.1806 17.546 26.3557 17.6436 26.5209L18.3588 27.7323L17.2578 28.3824L16.5425 27.1709C16.445 27.0058 16.2699 26.9607 16.1047 27.0582C15.9396 27.1557 15.8945 27.3308 15.992 27.496L16.7073 28.7074L11.67 31.6817C11.5048 31.7792 11.4597 31.9543 11.5573 32.1195C11.6548 32.2846 11.8299 32.3297 11.995 32.2322L17.0323 29.2579L17.731 30.4412C17.8285 30.6064 18.0036 30.6514 18.1688 30.5539C18.3339 30.4564 18.379 30.2813 18.2815 30.1161L17.5829 28.9329L18.6839 28.2828L19.3826 29.4661C19.4801 29.6313 19.6552 29.6763 19.8204 29.5788C19.9855 29.4813 20.0306 29.3062 19.9331 29.141L19.2344 27.9577L20.3354 27.3076L21.0342 28.491C21.1317 28.6562 21.3068 28.7012 21.4719 28.6037C21.6371 28.5062 21.6822 28.3311 21.5847 28.1659L20.8859 26.9826L21.9869 26.3325L22.6856 27.5159C22.7831 27.6811 22.9583 27.7262 23.1234 27.6286C23.2886 27.5311 23.3337 27.356 23.2361 27.1909L22.5374 26.0074L23.6659 25.3411L24.3648 26.5247C24.4623 26.6898 24.6374 26.7349 24.8025 26.6374C24.9677 26.5399 25.0128 26.3648 24.9153 26.1996L24.2164 25.0161L29.2811 22.0256C29.4187 21.9443 29.4476 21.7417 29.3663 21.6041Z" fill="black"/>
<path d="M57.2145 16.3673L57.6926 16.2208L57.4502 15.4294L56.8624 16.0123L57.2145 16.3673ZM57.2145 19.6952L56.8624 20.0502L57.4501 20.6331L57.6926 19.8416L57.2145 19.6952ZM58.0273 15.8417L57.8484 15.3747L57.3911 15.5499L57.5567 16.0107L58.0273 15.8417ZM59.7019 15.8417L60.1725 16.0107L60.338 15.5499L59.8807 15.3748L59.7019 15.8417ZM59.7019 20.2208L59.8808 20.6877L60.3381 20.5126L60.1725 20.0517L59.7019 20.2208ZM58.0272 20.2208L57.5567 20.0517L57.3911 20.5126L57.8484 20.6877L58.0272 20.2208ZM60.5147 19.6952L60.0366 19.8416L60.2791 20.6331L60.8668 20.0502L60.5147 19.6952ZM60.5146 16.3673L60.8667 16.0123L60.279 15.4294L60.0366 16.2208L60.5146 16.3673ZM51.0749 17.0788L50.7213 17.4323L50.7214 17.4323L51.0749 17.0788ZM41.3657 16.4698L41.7192 16.8234L41.7193 16.8234L41.3657 16.4698ZM53.4015 22.4431L52.9015 22.4465L52.9016 22.4706L52.9041 22.4947L53.4015 22.4431ZM53.4037 22.5089L53.9033 22.5274L53.9033 22.527L53.4037 22.5089ZM53.401 22.5801L52.9012 22.5616L52.9011 22.5734L53.401 22.5801ZM53.3892 22.8998L52.89 22.8694L52.8895 22.8813L53.3892 22.8998ZM53.3573 23.7623L52.8576 23.7438L52.8576 23.7439L53.3573 23.7623ZM55.3616 28.8651L55.7153 28.5117L55.7151 28.5115L55.3616 28.8651ZM56.0521 29.556L55.6985 29.9095L56.052 30.2632L56.4057 29.9096L56.0521 29.556ZM56.1894 29.4187L56.543 29.7723L56.5434 29.7718L56.1894 29.4187ZM56.8522 29.4187L56.4982 29.7718L56.4987 29.7723L56.8522 29.4187ZM61.5397 34.1062L61.8933 33.7527L61.8933 33.7527L61.5397 34.1062ZM61.5397 36.644L61.8933 36.9976L61.8933 36.9976L61.5397 36.644ZM55.7267 33.3689L56.0803 33.0153L56.0771 33.0122L55.7267 33.3689ZM55.7207 33.3629L55.364 33.7134L55.3703 33.7196L55.7207 33.3629ZM55.7147 33.3569L56.0714 33.0064L56.0683 33.0033L55.7147 33.3569ZM54.3144 31.9565L54.668 31.603L54.6675 31.6025L54.3144 31.9565ZM54.3144 31.2937L54.6675 31.6477L54.668 31.6473L54.3144 31.2937ZM54.4518 31.1563L54.8054 31.5099L55.159 31.1562L54.8053 30.8026L54.4518 31.1563ZM53.7608 30.4657L53.4072 30.8192L53.4074 30.8194L53.7608 30.4657ZM48.658 28.4614L48.6396 27.9617L48.6395 27.9617L48.658 28.4614ZM47.7987 28.4932L47.7802 27.9934L47.768 27.9941L47.7987 28.4932ZM47.4728 28.5052L47.4664 28.0051L47.4543 28.0056L47.4728 28.5052ZM47.4046 28.5078L47.4227 29.0074L47.4231 29.0074L47.4046 28.5078ZM47.3395 28.5056L47.3903 28.0082L47.3667 28.0058L47.3429 28.0057L47.3395 28.5056ZM41.9746 26.1791L42.3282 25.8255L42.3281 25.8255L41.9746 26.1791ZM56.715 33.0315L56.3614 32.6779L56.0079 33.0315L56.3614 33.385L56.715 33.0315ZM59.6647 35.9812L60.0183 35.6277L60.0183 35.6277L59.6647 35.9812ZM57.9272 31.8193L58.2807 31.4657L57.9271 31.1122L57.5736 31.4657L57.9272 31.8193ZM60.8769 35.9812L60.5234 35.6277L60.5234 35.6277L60.8769 35.9812ZM57.2643 31.1565L57.6179 31.51L57.9714 31.1565L57.6179 30.8029L57.2643 31.1565ZM56.5208 30.4129L56.8744 30.0594L56.5208 29.7058L56.1673 30.0594L56.5208 30.4129ZM56.0522 32.3686L55.6986 32.7222L56.0522 33.0757L56.4057 32.7222L56.0522 32.3686ZM55.3086 31.6251L54.9551 31.2716L54.6015 31.6251L54.9551 31.9787L55.3086 31.6251ZM56.3793 30.5544L56.0279 30.1987L56.0258 30.2009L56.3793 30.5544ZM56.3835 30.5503L56.7349 30.906L56.7393 30.9016L56.3835 30.5503ZM56.3876 30.5461L56.0341 30.1925L56.0319 30.1948L56.3876 30.5461ZM46.6771 25.3374L46.3235 25.691L46.6771 26.0445L47.0307 25.691L46.6771 25.3374ZM44.9962 23.6565L44.6426 23.3029L44.2891 23.6565L44.6426 24.0101L44.9962 23.6565ZM48.1237 23.8909L48.4772 24.2444L48.8308 23.8909L48.4772 23.5373L48.1237 23.8909ZM46.4427 22.2099L46.7963 21.8564L46.4427 21.5028L46.0892 21.8564L46.4427 22.2099ZM45.7799 21.5471L46.1335 21.9007L46.487 21.5471L46.1335 21.1936L45.7799 21.5471ZM44.3333 22.9937L43.9798 23.3472L44.3333 23.7008L44.6869 23.3472L44.3333 22.9937ZM44.099 19.8662L44.4525 19.5126L44.099 19.1591L43.7454 19.5126L44.099 19.8662ZM42.6524 21.3128L42.2989 20.9592L41.9453 21.3128L42.2989 21.6663L42.6524 21.3128ZM44.099 18.5406L43.7454 18.8941L44.099 19.2477L44.4525 18.8941L44.099 18.5406ZM42.3758 16.8174L42.0582 16.4313L41.6326 16.7813L42.0223 17.171L42.3758 16.8174ZM45.5455 17.094L45.8991 17.4476L46.2526 17.094L45.8991 16.7405L45.5455 17.094ZM44.4707 16.0192L44.1171 16.3727L44.1171 16.3727L44.4707 16.0192ZM44.3579 15.8372L44.832 15.6784L44.6863 15.2435L44.2404 15.3512L44.3579 15.8372ZM44.7618 19.2034L44.4082 18.8498L44.0547 19.2034L44.4082 19.5569L44.7618 19.2034ZM46.2083 17.7568L46.5619 17.4033L46.2083 17.0497L45.8548 17.4033L46.2083 17.7568ZM46.4427 20.8843L46.0892 21.2379L46.4427 21.5914L46.7963 21.2379L46.4427 20.8843ZM47.8893 19.4378L48.2428 19.7913L48.5964 19.4378L48.2428 19.0842L47.8893 19.4378ZM46.8712 17.094L46.5176 16.7405L46.1641 17.094L46.5176 17.4476L46.8712 17.094ZM48.5521 18.7749L48.1985 19.1285L48.5521 19.482L48.9057 19.1285L48.5521 18.7749ZM47.8708 16.0943L48.0459 15.626L47.7447 15.5134L47.5173 15.7408L47.8708 16.0943ZM49.9825 17.3446L50.336 17.6981L50.7187 17.3155L50.3071 16.9642L49.9825 17.3446ZM46.8384 15.8011L47.1919 16.1547L47.8552 15.4914L46.9348 15.3105L46.8384 15.8011ZM45.4653 15.6881L45.4484 15.1884L44.2972 15.2271L45.1117 16.0417L45.4653 15.6881ZM46.2083 16.4312L45.8548 16.7847L46.2083 17.1383L46.5619 16.7847L46.2083 16.4312ZM43.4362 19.2034L43.7897 19.5569L44.1433 19.2034L43.7897 18.8498L43.4362 19.2034ZM41.9896 20.6499L41.636 21.0035L41.9896 21.357L42.3432 21.0035L41.9896 20.6499ZM41.713 17.4802L42.0666 17.1267L41.6769 16.737L41.3269 17.1626L41.713 17.4802ZM40.733 19.4624L40.247 19.3449L40.1393 19.7906L40.574 19.9364L40.733 19.4624ZM41.3268 21.3128L41.6803 21.6663L42.0339 21.3128L41.6803 20.9592L41.3268 21.3128ZM40.5839 20.5699L40.9375 20.2163L40.1229 19.4017L40.0842 20.5531L40.5839 20.5699ZM40.697 21.9426L40.2064 22.039L40.3873 22.9594L41.0505 22.2961L40.697 21.9426ZM40.9902 22.975L40.6366 22.6214L40.4092 22.8488L40.5218 23.1501L40.9902 22.975ZM42.2404 25.0867L41.8601 25.4112L42.2113 25.8228L42.5939 25.4402L42.2404 25.0867ZM41.9896 21.9756L42.3432 21.622L41.9896 21.2685L41.636 21.622L41.9896 21.9756ZM43.6705 23.6565L44.0241 24.0101L44.3776 23.6565L44.0241 23.3029L43.6705 23.6565ZM44.3333 24.3193L44.6869 23.9658L44.3333 23.6122L43.9798 23.9658L44.3333 24.3193ZM42.8928 25.7599L42.5392 25.4063L42.1685 25.777L42.5564 26.1298L42.8928 25.7599ZM46.0143 26.0003L46.3678 26.3538L46.7214 26.0003L46.3678 25.6467L46.0143 26.0003ZM44.9437 27.0709L44.7513 27.5324L45.0604 27.6612L45.2972 27.4244L44.9437 27.0709ZM48.7865 23.2281L48.4329 23.5816L48.7865 23.9352L49.14 23.5816L48.7865 23.2281ZM47.1055 21.5471L46.752 21.1936L46.3984 21.5471L46.752 21.9007L47.1055 21.5471ZM50.233 21.7815L50.5866 22.1351L50.9401 21.7815L50.5866 21.428L50.233 21.7815ZM48.5521 20.1006L48.9057 19.747L48.5521 19.3935L48.1985 19.747L48.5521 20.1006ZM50.8958 21.1187L50.5423 21.4722L50.8958 21.8258L51.2494 21.4722L50.8958 21.1187ZM49.2149 19.4378L48.8614 19.0842L48.5078 19.4378L48.8614 19.7913L49.2149 19.4378ZM51.9667 20.0478L52.3202 20.4014L52.5571 20.1646L52.4282 19.8554L51.9667 20.0478ZM50.6557 17.997L51.0256 17.6606L50.6729 17.2727L50.3021 17.6434L50.6557 17.997ZM45.9421 27.3981L45.5885 27.0445L44.9583 27.6748L45.8247 27.8841L45.9421 27.3981ZM46.6771 26.6631L47.0306 26.3095L46.6771 25.956L46.3235 26.3095L46.6771 26.6631ZM47.3367 27.5732L47.3321 28.0731L47.3615 28.0734L47.3907 28.0702L47.3367 27.5732ZM47.3699 27.5707L47.3514 27.0711L47.3509 27.0711L47.3699 27.5707ZM47.5771 27.5631L47.5956 28.0627L48.7414 28.0203L47.9306 27.2095L47.5771 27.5631ZM47.3399 26.0003L46.9864 25.6467L46.6328 26.0003L46.9864 26.3538L47.3399 26.0003ZM48.7865 24.5537L49.14 24.2001L48.7865 23.8466L48.4329 24.2001L48.7865 24.5537ZM48.7471 27.4074L48.3935 27.761L48.5944 27.9618L48.8698 27.8921L48.7471 27.4074ZM50.6739 26.4411L50.9915 26.8272L51.4171 26.4772L51.0274 26.0875L50.6739 26.4411ZM49.4493 23.8909L49.0957 23.5373L48.7422 23.8909L49.0957 24.2444L49.4493 23.8909ZM51.3367 25.7783L50.9831 26.1318L51.3728 26.5215L51.7228 26.0959L51.3367 25.7783ZM50.8958 22.4443L51.2494 22.0908L50.8958 21.7372L50.5423 22.0908L50.8958 22.4443ZM52.3031 23.8516L52.7878 23.9743L52.8576 23.6989L52.6567 23.4981L52.3031 23.8516ZM51.5587 21.7815L51.2051 21.428L50.8516 21.7815L51.2051 22.1351L51.5587 21.7815ZM52.4589 22.6818L52.1054 23.0353L52.9162 23.8461L52.9586 22.7003L52.4589 22.6818ZM52.2939 21.0463L52.7799 20.9288L52.5706 20.0624L51.9404 20.6927L52.2939 21.0463ZM52.469 22.4415L52.9661 22.4949L52.9692 22.4661L52.969 22.4371L52.469 22.4415ZM52.4674 22.4598L51.9685 22.4258L51.9681 22.4332L52.4674 22.4598ZM52.4666 22.4742L51.9673 22.4475L51.967 22.4557L52.4666 22.4742ZM51.6843 26.7887L52.0325 27.1475L52.0379 27.1423L52.0431 27.1369L51.6843 26.7887ZM51.6741 26.7986L51.3258 26.4398L51.3214 26.4442L51.6741 26.7986ZM51.6942 26.7785L51.3397 26.4258L51.3354 26.4303L51.6942 26.7785ZM52.5825 25.6222L53.0717 25.5191L52.8039 24.2479L52.1503 25.3706L52.5825 25.6222ZM54.6983 29.5284L54.3447 29.8819L54.3449 29.8821L54.6983 29.5284ZM55.3892 30.2189L55.7428 30.5724L56.0964 30.2188L55.7427 29.8652L55.3892 30.2189ZM55.1147 30.4934L54.761 30.8469L55.1146 31.2006L55.4683 30.847L55.1147 30.4934ZM54.4241 29.8024L54.7778 29.449L54.7776 29.4488L54.4241 29.8024ZM50.5181 27.6866L50.2665 27.2545L49.1439 27.908L50.415 28.1758L50.5181 27.6866ZM30.9627 20.6612L31.3932 20.407L31.3932 20.407L30.9627 20.6612ZM16.5148 20.2085L16.769 20.639L16.5148 20.2085ZM24.3811 33.5309L24.6353 33.9614L24.6373 33.9602L24.3811 33.5309ZM15.7703 35.6083L15.7414 36.1074L15.7445 36.1076L15.7703 35.6083ZM9.93314 33.0782L10.3637 32.824L9.93314 33.0782ZM10.537 26.745L10.0866 26.5278L10.0859 26.5292L10.537 26.745ZM10.4837 32.7531L10.0531 33.0074L10.0531 33.0074L10.4837 32.7531ZM16.8398 20.759L16.5856 20.3285L16.8398 20.759ZM15.7968 34.9615L15.7643 35.4605L15.7711 35.4609L15.7968 34.9615ZM24.0397 32.9528L23.7855 32.5223L23.7855 32.5223L24.0397 32.9528ZM30.3959 20.9587L30.8265 20.7045L30.8265 20.7045L30.3959 20.9587ZM40.5324 55.9011L40.8156 55.4891L40.7001 55.4097L40.5601 55.4019L40.5324 55.9011ZM42.0039 56.4461L42.0492 56.9441L42.0819 55.9522L42.0039 56.4461ZM36.1451 55.1653L36.2921 54.6875L36.2202 54.6653H36.1451V55.1653ZM35.9271 55.1926V54.6926L35.6881 55.6318L35.9271 55.1926ZM47.127 54.5113L46.6292 54.4639L46.5253 55.5556L47.4176 54.9182L47.127 54.5113ZM46.6092 52.7946L46.1566 52.5822L46.0479 52.8138L46.1722 53.0374L46.6092 52.7946ZM51.2691 48.3527L51.7563 48.4652L51.7833 48.3481L51.7541 48.2315L51.2691 48.3527ZM50.6968 47.181L51.0809 46.8609L50.665 46.3618L50.2891 46.8916L50.6968 47.181ZM48.3805 49.034L48.1676 48.5816L48.0108 48.6554L47.9333 48.8104L48.3805 49.034ZM46.9863 51.9908L47.4389 52.2031L47.439 52.2031L46.9863 51.9908ZM48.0535 48.925L48.5007 49.1486L48.6354 48.8793L48.4604 48.6344L48.0535 48.925ZM47.6541 49.7797L47.2001 49.5702L47.2001 49.5702L47.6541 49.7797ZM47.2529 47.8238L46.8497 48.1195L46.8497 48.1195L47.2529 47.8238ZM46.0097 46.0909L46.4221 45.8082L46.2331 45.5326L45.9062 45.6018L46.0097 46.0909ZM41.7587 46.854L41.6826 46.3598L41.4004 46.4032L41.2944 46.6683L41.7587 46.854ZM40.0964 50.4783L39.6555 50.2424L39.52 50.4957L39.6705 50.7403L40.0964 50.4783ZM42.3037 53.4213L41.9337 53.7577L42.1077 53.949L42.3644 53.9176L42.3037 53.4213ZM46.3095 52.6583L46.4284 53.144L46.6593 53.0874L46.7612 52.8726L46.3095 52.6583ZM39.7966 50.669L40.2194 50.402L40.0825 50.1853L39.8266 50.1699L39.7966 50.669ZM42.0312 53.6121L42.4258 53.919L42.6884 53.5814L42.3956 53.2697L42.0312 53.6121ZM35.709 49.8788L35.8964 49.4152L35.4866 49.2495L35.272 49.6359L35.709 49.8788ZM34.074 52.0043L33.7617 51.6139L33.4361 51.8743L33.6338 52.2413L34.074 52.0043ZM36.2541 54.8383L35.9005 55.1919L35.9862 55.2776L36.1017 55.3146L36.2541 54.8383ZM40.5051 55.5741L40.4769 56.0733L40.7388 56.0881L40.8998 55.8811L40.5051 55.5741ZM35.4638 49.6335L35.904 49.8706L36 49.6923L35.9449 49.4975L35.4638 49.6335ZM33.856 51.759L33.6324 52.2063L33.9169 52.3485L34.1664 52.1511L33.856 51.759ZM34.8643 45.6277L35.3633 45.5965L35.3481 45.3536L35.1475 45.2157L34.8643 45.6277ZM32.3027 43.7474L32.6151 43.357L32.2992 43.1043L31.9861 43.3604L32.3027 43.7474ZM30.8312 45.5187L30.3993 45.2667L30.3445 45.3607L30.3337 45.4689L30.8312 45.5187ZM31.567 50.0423L31.0991 50.2187L31.1335 50.3098L31.1996 50.3814L31.567 50.0423ZM45.9552 45.7639L46.0587 46.2531L46.3553 46.1904L46.4368 45.8983L45.9552 45.7639ZM41.7314 46.5269L41.32 46.811L41.4985 47.0696L41.8089 47.0209L41.7314 46.5269ZM47.018 42.3031L47.4923 42.4612L47.5792 42.2006L47.4058 41.9875L47.018 42.3031ZM43.8842 39.0331L44.2192 38.6619L44.04 38.5002L43.802 38.5399L43.8842 39.0331ZM39.9056 39.6871L39.8251 39.1936L39.5003 39.2466L39.4206 39.5658L39.9056 39.6871ZM38.8974 43.5566L38.4162 43.4207L38.3245 43.7452L38.5911 43.9519L38.8974 43.5566ZM51.4053 47.6987L50.9501 47.9056L51.6191 49.3774L51.8978 47.7849L51.4053 47.6987ZM50.8331 46.854L50.3356 46.8034L50.3116 47.0396L50.4795 47.2075L50.8331 46.854ZM50.4788 41.2676L50.9272 41.0465L49.9788 41.2676H50.4788ZM50.3426 42.7391L49.8545 42.6307L49.825 42.763L49.8665 42.8921L50.3426 42.7391ZM50.1245 40.5863L50.6227 40.543L50.6129 40.431L50.5561 40.3339L50.1245 40.5863ZM50.0428 42.4939L49.8306 42.9466L50.3982 43.2127L50.5314 42.6001L50.0428 42.4939ZM46.691 37.0165L46.9589 36.5944L46.8907 36.5511L46.8123 36.5315L46.691 37.0165ZM44.3202 36.6623V36.1623H43.7998L43.8206 36.6823L44.3202 36.6623ZM44.1567 38.8151L43.6824 38.657L43.5803 38.963L43.8172 39.1821L44.1567 38.8151ZM47.2632 42.0851L46.8755 42.4008L47.0717 42.6418L47.3747 42.5726L47.2632 42.0851ZM39.5786 39.6053L40.063 39.7292L40.1422 39.4196L39.8945 39.2177L39.5786 39.6053ZM39.5785 39.6058L40.062 39.7331L40.0629 39.7297L39.5785 39.6058ZM37.2623 37.9158L37.5363 37.4976L37.3372 37.3671L37.1103 37.4395L37.2623 37.9158ZM33.6925 39.7143L33.4038 39.3061L33.3171 39.3674L33.2629 39.4586L33.6925 39.7143ZM32.4662 43.4749L31.9699 43.4141L31.936 43.691L32.1539 43.8653L32.4662 43.4749ZM35.0005 45.3279L34.7173 45.7399L35.0652 45.9792L35.3593 45.6762L35.0005 45.3279ZM38.5703 43.5021L38.7091 43.9825L38.9777 43.9049L39.0523 43.6354L38.5703 43.5021ZM39.5773 39.6102L39.0938 39.4829L39.0923 39.4889L39.5773 39.6102ZM30.5042 45.4642L31.0001 45.5282L31.0082 45.4652L31.0003 45.4022L30.5042 45.4642ZM30.6405 48.162L30.1533 48.2744L31.1308 48.0639L30.6405 48.162ZM30.4995 44.5931L29.9996 44.5828L29.9996 44.5828L30.4995 44.5931ZM30.5042 44.2924H31.0042L30.0125 44.2018L30.5042 44.2924ZM37.1806 37.5888L37.3356 38.0642L37.4902 38.0137L37.5855 37.882L37.1806 37.5888ZM33.6108 39.3601L33.2108 39.6601L33.4977 40.0427L33.8927 39.773L33.6108 39.3601ZM39.3334 35.7085L39.557 36.1557L40.7659 35.5513L39.4546 35.2234L39.3334 35.7085ZM38.5703 35.6268V35.1268H38.5155L38.4619 35.1387L38.5703 35.6268ZM32.9295 39.0603L32.5499 38.7349L31.8424 39.5603H32.9295V39.0603ZM44.2384 36.3353L44.0301 36.7898L44.1293 36.8353H44.2384V36.3353ZM39.7694 35.5178L39.5458 35.965L39.6941 36.0391L39.8573 36.01L39.7694 35.5178ZM45.7645 36.4715L45.6865 36.9654L45.9881 36.0243L45.7645 36.4715ZM39.5786 35.436L39.5079 34.941L39.4205 35.9104L39.5786 35.436ZM28.9285 21.4913L28.6743 21.0608L28.6743 21.0608L28.9285 21.4913ZM29.3663 21.6041L29.7969 21.3498L29.7969 21.3498L29.3663 21.6041ZM23.8914 24.4655L23.4608 24.7198L23.715 25.1503L24.1456 24.8961L23.8914 24.4655ZM23.1762 23.2544L22.7457 23.5086L22.7457 23.5086L23.1762 23.2544ZM22.7385 23.1417L22.4842 22.7111L22.4842 22.7111L22.7385 23.1417ZM22.6257 23.5795L23.0563 23.3252L23.0563 23.3252L22.6257 23.5795ZM23.3409 24.7906L23.5951 25.2211L24.0256 24.9669L23.7714 24.5364L23.3409 24.7906ZM22.2123 25.4569L21.7818 25.7112L22.036 26.1417L22.4666 25.8875L22.2123 25.4569ZM21.4971 24.2456L21.0666 24.4998L21.0666 24.4998L21.4971 24.2456ZM21.0593 24.1329L20.8051 23.7023L20.8051 23.7023L21.0593 24.1329ZM20.9466 24.5707L21.3771 24.3164L21.3771 24.3164L20.9466 24.5707ZM21.6618 25.782L21.916 26.2125L22.3466 25.9583L22.0924 25.5278L21.6618 25.782ZM20.5609 26.432L20.1303 26.6863L20.3846 27.1168L20.8151 26.8626L20.5609 26.432ZM19.8457 25.2207L19.4151 25.4749L19.4151 25.4749L19.8457 25.2207ZM19.4079 25.108L19.1537 24.6774L19.1536 24.6774L19.4079 25.108ZM19.2951 25.5458L19.7257 25.2915L19.7257 25.2915L19.2951 25.5458ZM20.0104 26.7571L20.2646 27.1876L20.6951 26.9334L20.4409 26.5029L20.0104 26.7571ZM18.9093 27.4072L18.4788 27.6614L18.733 28.092L19.1636 27.8378L18.9093 27.4072ZM18.1941 26.1958L17.7635 26.45L17.7635 26.45L18.1941 26.1958ZM17.7563 26.0831L17.5021 25.6525L17.5021 25.6525L17.7563 26.0831ZM17.6436 26.5209L18.0741 26.2666L18.0741 26.2666L17.6436 26.5209ZM18.3588 27.7323L18.6131 28.1628L19.0436 27.9086L18.7894 27.478L18.3588 27.7323ZM17.2578 28.3824L16.8273 28.6366L17.0815 29.0671L17.512 28.8129L17.2578 28.3824ZM16.5425 27.1709L16.1119 27.4251L16.1119 27.4251L16.5425 27.1709ZM16.1047 27.0582L15.8505 26.6276L15.8505 26.6276L16.1047 27.0582ZM15.992 27.496L15.5614 27.7502L15.5614 27.7502L15.992 27.496ZM16.7073 28.7074L16.9615 29.138L17.3921 28.8837L17.1378 28.4532L16.7073 28.7074ZM11.67 31.6817L11.9242 32.1123L11.9242 32.1123L11.67 31.6817ZM11.995 32.2322L11.7408 31.8017L11.7408 31.8017L11.995 32.2322ZM17.0323 29.2579L17.4629 29.0037L17.2087 28.5732L16.7781 28.8274L17.0323 29.2579ZM17.731 30.4412L17.3005 30.6954L17.3005 30.6954L17.731 30.4412ZM18.1688 30.5539L17.9146 30.1234L17.9146 30.1234L18.1688 30.5539ZM18.2815 30.1161L18.7121 29.8619L18.7121 29.8619L18.2815 30.1161ZM17.5829 28.9329L17.3286 28.5023L16.8981 28.7565L17.1523 29.1871L17.5829 28.9329ZM18.6839 28.2828L19.1144 28.0285L18.8602 27.598L18.4297 27.8522L18.6839 28.2828ZM19.3826 29.4661L18.952 29.7203L18.952 29.7203L19.3826 29.4661ZM19.8204 29.5788L19.5662 29.1483L19.5661 29.1483L19.8204 29.5788ZM19.9331 29.141L20.3636 28.8868L20.3636 28.8868L19.9331 29.141ZM19.2344 27.9577L18.9802 27.5272L18.5496 27.7814L18.8038 28.2119L19.2344 27.9577ZM20.3354 27.3076L20.766 27.0534L20.5118 26.6228L20.0812 26.8771L20.3354 27.3076ZM21.0342 28.491L20.6036 28.7452L20.6036 28.7452L21.0342 28.491ZM21.4719 28.6037L21.2177 28.1732L21.2177 28.1732L21.4719 28.6037ZM21.5847 28.1659L22.0152 27.9117L22.0152 27.9117L21.5847 28.1659ZM20.8859 26.9826L20.6317 26.552L20.2012 26.8062L20.4554 27.2368L20.8859 26.9826ZM21.9869 26.3325L22.4174 26.0783L22.1632 25.6477L21.7327 25.9019L21.9869 26.3325ZM22.6856 27.5159L22.2551 27.7701L22.2551 27.7701L22.6856 27.5159ZM23.1234 27.6286L22.8692 27.1981L22.8692 27.1981L23.1234 27.6286ZM23.2361 27.1909L23.6667 26.9366L23.6667 26.9366L23.2361 27.1909ZM22.5374 26.0074L22.2832 25.5769L21.8526 25.8311L22.1068 26.2617L22.5374 26.0074ZM23.6659 25.3411L24.0965 25.0869L23.8422 24.6563L23.4117 24.9106L23.6659 25.3411ZM24.3648 26.5247L23.9342 26.7789L23.9342 26.7789L24.3648 26.5247ZM24.8025 26.6374L24.5483 26.2069L24.5483 26.2069L24.8025 26.6374ZM24.9153 26.1996L25.3458 25.9454L25.3458 25.9454L24.9153 26.1996ZM24.2164 25.0161L23.9622 24.5855L23.5317 24.8397L23.7859 25.2703L24.2164 25.0161ZM29.2811 22.0256L29.0269 21.595L29.0269 21.595L29.2811 22.0256ZM58.8646 15.25C60.3992 15.25 61.6458 16.4966 61.6458 18.0312H62.6458C62.6458 15.9443 60.9515 14.25 58.8646 14.25V15.25ZM56.0833 18.0312C56.0833 16.4966 57.3299 15.25 58.8646 15.25V14.25C56.7777 14.25 55.0833 15.9443 55.0833 18.0312H56.0833ZM58.8646 20.8125C57.3299 20.8125 56.0833 19.5659 56.0833 18.0312H55.0833C55.0833 20.1182 56.7777 21.8125 58.8646 21.8125V20.8125ZM61.6458 18.0312C61.6458 19.5659 60.3992 20.8125 58.8646 20.8125V21.8125C60.9515 21.8125 62.6458 20.1182 62.6458 18.0312H61.6458ZM56.8624 16.0123C56.3434 16.5269 56.0208 17.242 56.0208 18.0312H57.0208C57.0208 17.5197 57.229 17.0571 57.5666 16.7223L56.8624 16.0123ZM57.9583 18.0312C57.9583 17.2614 57.8186 16.6323 57.6926 16.2208L56.7364 16.5137C56.8401 16.8521 56.9583 17.3812 56.9583 18.0312H57.9583ZM57.6926 19.8416C57.8186 19.4302 57.9583 18.801 57.9583 18.0312H56.9583C56.9583 18.6813 56.8401 19.2104 56.7364 19.5487L57.6926 19.8416ZM56.0208 18.0312C56.0208 18.8205 56.3434 19.5355 56.8624 20.0502L57.5666 19.3402C57.229 19.0053 57.0208 18.5428 57.0208 18.0312H56.0208ZM57.5567 16.0107C57.6957 16.3976 57.8958 17.1147 57.8958 18.0312H58.8958C58.8958 16.9715 58.6651 16.1381 58.4978 15.6726L57.5567 16.0107ZM58.8646 15.1875C58.5075 15.1875 58.1647 15.2536 57.8484 15.3747L58.2061 16.3086C58.41 16.2305 58.6317 16.1875 58.8646 16.1875V15.1875ZM59.8807 15.3748C59.5645 15.2536 59.2217 15.1875 58.8646 15.1875V16.1875C59.0974 16.1875 59.3192 16.2305 59.5231 16.3086L59.8807 15.3748ZM59.8333 18.0312C59.8333 17.1147 60.0335 16.3976 60.1725 16.0107L59.2314 15.6726C59.0641 16.1381 58.8333 16.9715 58.8333 18.0312H59.8333ZM60.1725 20.0517C60.0335 19.6649 59.8333 18.9478 59.8333 18.0312H58.8333C58.8333 19.091 59.0642 19.9244 59.2314 20.3899L60.1725 20.0517ZM58.8646 20.875C59.2217 20.875 59.5645 20.8088 59.8808 20.6877L59.5231 19.7539C59.3192 19.832 59.0974 19.875 58.8646 19.875V20.875ZM57.8484 20.6877C58.1646 20.8088 58.5075 20.875 58.8646 20.875V19.875C58.6317 19.875 58.41 19.832 58.2061 19.7539L57.8484 20.6877ZM57.8958 18.0312C57.8958 18.9478 57.6957 19.6649 57.5567 20.0517L58.4978 20.3899C58.665 19.9244 58.8958 19.091 58.8958 18.0312H57.8958ZM60.8668 20.0502C61.3857 19.5355 61.7083 18.8205 61.7083 18.0312H60.7083C60.7083 18.5428 60.5002 19.0053 60.1626 19.3402L60.8668 20.0502ZM61.7083 18.0312C61.7083 17.242 61.3857 16.527 60.8667 16.0123L60.1626 16.7223C60.5002 17.0571 60.7083 17.5197 60.7083 18.0312H61.7083ZM60.0366 16.2208C59.9105 16.6323 59.7708 17.2614 59.7708 18.0312H60.7708C60.7708 17.3812 60.8891 16.8521 60.9927 16.5137L60.0366 16.2208ZM59.7708 18.0312C59.7708 18.801 59.9106 19.4302 60.0366 19.8416L60.9928 19.5487C60.8891 19.2104 60.7708 18.6813 60.7708 18.0312H59.7708ZM51.4284 16.7252C48.4161 13.7129 43.7447 13.3832 41.0121 16.1163L41.7193 16.8234C43.9826 14.5596 48.0159 14.7268 50.7213 17.4323L51.4284 16.7252ZM53.9015 22.4397C53.8879 20.4308 53.05 18.3465 51.4284 16.7252L50.7214 17.4323C52.1625 18.8733 52.8897 20.7081 52.9015 22.4465L53.9015 22.4397ZM53.9033 22.527C53.905 22.4814 53.9034 22.4362 53.8988 22.3915L52.9041 22.4947C52.904 22.4932 52.9039 22.4918 52.904 22.4907L53.9033 22.527ZM53.9007 22.5986L53.9033 22.5274L52.904 22.4904L52.9014 22.5616L53.9007 22.5986ZM53.8883 22.9302C53.8952 22.816 53.8995 22.7015 53.901 22.5867L52.9011 22.5734C52.8997 22.6725 52.8961 22.7712 52.8901 22.8694L53.8883 22.9302ZM53.8569 23.7808L53.8888 22.9183L52.8895 22.8813L52.8576 23.7438L53.8569 23.7808ZM55.7151 28.5115C54.4649 27.2617 53.7917 25.5474 53.8569 23.7808L52.8576 23.7439C52.7822 25.7882 53.5612 27.7723 55.0081 29.2188L55.7151 28.5115ZM56.4058 29.2026L55.7153 28.5117L55.008 29.2186L55.6985 29.9095L56.4058 29.2026ZM55.8359 29.0652L55.6986 29.2025L56.4057 29.9096L56.543 29.7723L55.8359 29.0652ZM57.2062 29.0656C56.828 28.6865 56.2136 28.6865 55.8354 29.0656L56.5434 29.7718C56.5309 29.7844 56.5108 29.7844 56.4982 29.7718L57.2062 29.0656ZM61.8933 33.7527L57.2058 29.0652L56.4987 29.7723L61.1862 34.4598L61.8933 33.7527ZM62.5657 35.3751C62.5657 34.7665 62.3235 34.1828 61.8933 33.7527L61.1862 34.4598C61.4291 34.7027 61.5657 35.0322 61.5657 35.3751H62.5657ZM61.8933 36.9976C62.3235 36.5674 62.5657 35.9837 62.5657 35.3751H61.5657C61.5657 35.7181 61.4291 36.0475 61.1862 36.2905L61.8933 36.9976ZM60.2708 37.67C60.8794 37.67 61.4631 37.4278 61.8933 36.9976L61.1862 36.2905C60.9432 36.5334 60.6138 36.67 60.2708 36.67V37.67ZM58.6484 36.9976C59.0785 37.4278 59.6622 37.67 60.2708 37.67V36.67C59.9279 36.67 59.5984 36.5334 59.3555 36.2905L58.6484 36.9976ZM55.3732 33.7224L58.6484 36.9976L59.3555 36.2905L56.0803 33.0153L55.3732 33.7224ZM55.3703 33.7196L55.3764 33.7255L56.0771 33.0122L56.0711 33.0062L55.3703 33.7196ZM55.3581 33.7073L55.3641 33.7134L56.0773 33.0125L56.0714 33.0064L55.3581 33.7073ZM53.9609 32.3101L55.3612 33.7104L56.0683 33.0033L54.668 31.603L53.9609 32.3101ZM53.9613 30.9397C53.5822 31.3179 53.5822 31.9324 53.9613 32.3105L54.6675 31.6025C54.6801 31.6151 54.6801 31.6352 54.6675 31.6477L53.9613 30.9397ZM54.0983 30.8027L53.9609 30.9402L54.668 31.6473L54.8054 31.5099L54.0983 30.8027ZM53.4074 30.8194L54.0984 31.51L54.8053 30.8026L54.1143 30.1121L53.4074 30.8194ZM48.6765 28.961C50.4431 28.8958 52.1575 29.569 53.4072 30.8192L54.1145 30.1122C52.668 28.6653 50.6839 27.8863 48.6396 27.9617L48.6765 28.961ZM47.8172 28.9928L48.6765 28.961L48.6395 27.9617L47.7802 27.9935L47.8172 28.9928ZM47.4793 29.0052C47.5963 29.0037 47.713 28.9994 47.8293 28.9922L47.768 27.9941C47.6679 28.0003 47.5674 28.004 47.4664 28.0053L47.4793 29.0052ZM47.4231 29.0074L47.4913 29.0049L47.4543 28.0056L47.3861 28.0081L47.4231 29.0074ZM47.2887 29.0031C47.3329 29.0076 47.3776 29.0091 47.4227 29.0074L47.3865 28.0081C47.3875 28.008 47.3888 28.0081 47.3903 28.0082L47.2887 29.0031ZM41.621 26.5326C43.2425 28.1544 45.327 28.9922 47.3362 29.0056L47.3429 28.0057C45.6043 27.994 43.7693 27.2669 42.3282 25.8255L41.621 26.5326ZM41.0122 16.1163C38.2791 18.8488 38.6087 23.5203 41.621 26.5326L42.3281 25.8255C39.6227 23.12 39.4554 19.0868 41.7192 16.8234L41.0122 16.1163ZM56.3614 33.385L59.3112 36.3348L60.0183 35.6277L57.0685 32.6779L56.3614 33.385ZM57.5736 31.4657L56.3614 32.6779L57.0685 33.385L58.2807 32.1728L57.5736 31.4657ZM61.2305 34.4155L58.2807 31.4657L57.5736 32.1728L60.5234 35.1226L61.2305 34.4155ZM61.6282 35.3751C61.6282 35.0149 61.4848 34.6698 61.2305 34.4155L60.5234 35.1226C60.5906 35.1898 60.6282 35.2807 60.6282 35.3751H61.6282ZM61.2305 36.3348C61.4848 36.0804 61.6282 35.7354 61.6282 35.3751H60.6282C60.6282 35.4696 60.5906 35.5604 60.5234 35.6277L61.2305 36.3348ZM60.2708 36.7325C60.631 36.7325 60.9761 36.5891 61.2305 36.3348L60.5234 35.6277C60.4561 35.6949 60.3653 35.7325 60.2708 35.7325V36.7325ZM59.3112 36.3348C59.5655 36.5891 59.9106 36.7325 60.2708 36.7325V35.7325C60.1764 35.7325 60.0855 35.6949 60.0183 35.6277L59.3112 36.3348ZM57.6179 30.8029L56.8744 30.0594L56.1673 30.7665L56.9108 31.51L57.6179 30.8029ZM56.4057 32.7222L57.6179 31.51L56.9108 30.8029L55.6986 32.0151L56.4057 32.7222ZM54.9551 31.9787L55.6986 32.7222L56.4057 32.0151L55.6622 31.2716L54.9551 31.9787ZM56.0258 30.2009L54.9551 31.2716L55.6622 31.9787L56.7329 30.908L56.0258 30.2009ZM56.0321 30.1946L56.0279 30.1987L56.7307 30.9101L56.7349 30.906L56.0321 30.1946ZM56.0319 30.1948L56.0277 30.199L56.7393 30.9016L56.7434 30.8974L56.0319 30.1948ZM56.1673 30.0594L56.0341 30.1925L56.7412 30.8997L56.8744 30.7665L56.1673 30.0594ZM47.0307 24.9839L45.3497 23.3029L44.6426 24.0101L46.3235 25.691L47.0307 24.9839ZM47.7701 23.5373L46.3235 24.9839L47.0307 25.691L48.4772 24.2444L47.7701 23.5373ZM46.0892 22.5635L47.7701 24.2444L48.4772 23.5373L46.7963 21.8564L46.0892 22.5635ZM45.3497 24.0101L46.7963 22.5635L46.0892 21.8564L44.6426 23.3029L45.3497 24.0101ZM45.4264 21.1936L43.9798 22.6401L44.6869 23.3472L46.1335 21.9007L45.4264 21.1936ZM43.7454 20.2197L45.4264 21.9007L46.1335 21.1936L44.4525 19.5126L43.7454 20.2197ZM43.006 21.6663L44.4525 20.2197L43.7454 19.5126L42.2989 20.9592L43.006 21.6663ZM44.6869 22.6401L43.006 20.9592L42.2989 21.6663L43.9798 23.3472L44.6869 22.6401ZM44.4525 18.187L42.7294 16.4639L42.0223 17.171L43.7454 18.8941L44.4525 18.187ZM45.192 16.7405L43.7454 18.187L44.4525 18.8941L45.8991 17.4476L45.192 16.7405ZM44.1171 16.3727L45.192 17.4476L45.8991 16.7405L44.8242 15.6656L44.1171 16.3727ZM43.8838 15.996C43.93 16.1341 44.0082 16.2638 44.1171 16.3727L44.8242 15.6656C44.8274 15.6687 44.8303 15.6734 44.832 15.6784L43.8838 15.996ZM42.6935 17.2035C43.2159 16.7737 43.8226 16.481 44.4754 16.3232L44.2404 15.3512C43.4493 15.5424 42.7038 15.9001 42.0582 16.4313L42.6935 17.2035ZM45.1153 19.5569L46.5619 18.1104L45.8548 17.4033L44.4082 18.8498L45.1153 19.5569ZM46.7963 20.5308L45.1153 18.8498L44.4082 19.5569L46.0892 21.2379L46.7963 20.5308ZM47.5357 19.0842L46.0892 20.5308L46.7963 21.2379L48.2428 19.7913L47.5357 19.0842ZM45.8548 18.1104L47.5357 19.7913L48.2428 19.0842L46.5619 17.4033L45.8548 18.1104ZM46.5176 17.4476L48.1985 19.1285L48.9057 18.4214L47.2247 16.7405L46.5176 17.4476ZM47.5173 15.7408L46.5176 16.7405L47.2247 17.4476L48.2244 16.4479L47.5173 15.7408ZM50.3071 16.9642C49.6139 16.3727 48.8446 15.9246 48.0459 15.626L47.6958 16.5627C48.3846 16.8202 49.0528 17.2085 49.6579 17.7249L50.3071 16.9642ZM48.9057 19.1285L50.336 17.6981L49.6289 16.991L48.1985 18.4214L48.9057 19.1285ZM46.9348 15.3105C46.4396 15.2132 45.9405 15.1718 45.4484 15.1884L45.4821 16.1878C45.8956 16.1739 46.3187 16.2086 46.742 16.2918L46.9348 15.3105ZM46.5619 16.7847L47.1919 16.1547L46.4848 15.4476L45.8548 16.0776L46.5619 16.7847ZM45.1117 16.0417L45.8548 16.7847L46.5619 16.0776L45.8188 15.3346L45.1117 16.0417ZM43.0826 18.8498L41.636 20.2964L42.3432 21.0035L43.7897 19.5569L43.0826 18.8498ZM41.3595 17.8338L43.0826 19.5569L43.7897 18.8498L42.0666 17.1267L41.3595 17.8338ZM41.219 19.5798C41.3767 18.927 41.6694 18.3203 42.0992 17.7979L41.3269 17.1626C40.7958 17.8083 40.4381 18.5538 40.247 19.3449L41.219 19.5798ZM41.2683 19.2215C41.1595 19.1127 41.03 19.0346 40.892 18.9883L40.574 19.9364C40.569 19.9347 40.5643 19.9318 40.5612 19.9287L41.2683 19.2215ZM42.3432 20.2964L41.2683 19.2215L40.5612 19.9287L41.636 21.0035L42.3432 20.2964ZM41.6803 20.9592L40.9375 20.2163L40.2304 20.9234L40.9732 21.6663L41.6803 20.9592ZM41.0505 22.2961L41.6803 21.6663L40.9732 20.9592L40.3434 21.589L41.0505 22.2961ZM40.0842 20.5531C40.0677 21.0451 40.109 21.5439 40.2064 22.039L41.1876 21.8461C41.1044 21.423 41.0698 21.0001 41.0836 20.5867L40.0842 20.5531ZM40.5218 23.1501C40.8204 23.9488 41.2685 24.7181 41.8601 25.4112L42.6207 24.7621C42.1043 24.157 41.716 23.4888 41.4585 22.7999L40.5218 23.1501ZM41.636 21.622L40.6366 22.6214L41.3437 23.3285L42.3432 22.3291L41.636 21.622ZM44.0241 23.3029L42.3432 21.622L41.636 22.3291L43.317 24.0101L44.0241 23.3029ZM42.5939 25.4402L44.0241 24.0101L43.317 23.3029L41.8868 24.7331L42.5939 25.4402ZM43.9798 23.9658L42.5392 25.4063L43.2464 26.1134L44.6869 24.6729L43.9798 23.9658ZM46.3678 25.6467L44.6869 23.9658L43.9798 24.6729L45.6607 26.3538L46.3678 25.6467ZM45.2972 27.4244L46.3678 26.3538L45.6607 25.6467L44.5901 26.7173L45.2972 27.4244ZM42.5564 26.1298C43.225 26.7378 43.9715 27.2073 44.7513 27.5324L45.1361 26.6094C44.4625 26.3285 43.8133 25.9212 43.2292 25.3899L42.5564 26.1298ZM49.14 22.8745L47.4591 21.1936L46.752 21.9007L48.4329 23.5816L49.14 22.8745ZM49.8795 21.428L48.4329 22.8745L49.14 23.5816L50.5866 22.1351L49.8795 21.428ZM48.1985 20.4541L49.8795 22.1351L50.5866 21.428L48.9057 19.747L48.1985 20.4541ZM47.4591 21.9007L48.9056 20.4541L48.1985 19.747L46.752 21.1936L47.4591 21.9007ZM51.2494 20.7651L49.5685 19.0842L48.8614 19.7913L50.5423 21.4722L51.2494 20.7651ZM51.6131 19.6943L50.5423 20.7651L51.2494 21.4722L52.3202 20.4014L51.6131 19.6943ZM50.2858 18.3334C50.817 18.9175 51.2244 19.5666 51.5052 20.2402L52.4282 19.8554C52.1031 19.0757 51.6337 18.3292 51.0256 17.6606L50.2858 18.3334ZM49.5685 19.7913L51.0092 18.3505L50.3021 17.6434L48.8614 19.0842L49.5685 19.7913ZM46.2956 27.7516L47.0306 27.0166L46.3235 26.3095L45.5885 27.0445L46.2956 27.7516ZM47.3412 27.0732C46.9187 27.0694 46.4882 27.0156 46.0595 26.9121L45.8247 27.8841C46.325 28.005 46.8311 28.0686 47.3321 28.0731L47.3412 27.0732ZM47.3509 27.0711C47.328 27.072 47.3052 27.0736 47.2826 27.0761L47.3907 28.0702C47.3901 28.0703 47.3895 28.0703 47.3889 28.0704L47.3509 27.0711ZM47.5586 27.0634L47.3514 27.0711L47.3884 28.0704L47.5956 28.0627L47.5586 27.0634ZM46.3235 27.0166L47.2235 27.9166L47.9306 27.2095L47.0306 26.3095L46.3235 27.0166ZM47.6935 26.3538L49.14 24.9072L48.4329 24.2001L46.9864 25.6467L47.6935 26.3538ZM49.1006 27.0539L47.6935 25.6467L46.9864 26.3538L48.3935 27.761L49.1006 27.0539ZM50.3562 26.0549C49.8471 26.4737 49.2581 26.7623 48.6244 26.9227L48.8698 27.8921C49.6384 27.6975 50.3624 27.3447 50.9915 26.8272L50.3562 26.0549ZM48.4329 24.9072L50.3203 26.7946L51.0274 26.0875L49.14 24.2001L48.4329 24.9072ZM49.0957 24.2444L50.9831 26.1318L51.6903 25.4247L49.8028 23.5373L49.0957 24.2444ZM50.5423 22.0908L49.0957 23.5373L49.8028 24.2444L51.2494 22.7979L50.5423 22.0908ZM52.6567 23.4981L51.2494 22.0908L50.5423 22.7979L51.9496 24.2052L52.6567 23.4981ZM51.7228 26.0959C52.2403 25.4669 52.5932 24.7429 52.7878 23.9743L51.8184 23.7289C51.658 24.3625 51.3694 24.9516 50.9506 25.4606L51.7228 26.0959ZM51.2051 22.1351L52.1054 23.0353L52.8125 22.3282L51.9122 21.428L51.2051 22.1351ZM51.9404 20.6927L51.2051 21.428L51.9122 22.1351L52.6475 21.3998L51.9404 20.6927ZM52.969 22.4371C52.9645 21.9358 52.9009 21.4294 52.7799 20.9288L51.8079 21.1637C51.9115 21.5926 51.9653 22.0233 51.969 22.446L52.969 22.4371ZM52.9662 22.4939L52.9661 22.4949L51.9719 22.3881C51.9705 22.4006 51.9694 22.4131 51.9686 22.4258L52.9662 22.4939ZM52.9659 22.5009L52.9667 22.4865L51.9681 22.4332L51.9673 22.4475L52.9659 22.5009ZM52.9586 22.7003L52.9663 22.4927L51.967 22.4557L51.9593 22.6633L52.9586 22.7003ZM51.336 26.4299L51.3258 26.4398L52.0223 27.1574L52.0325 27.1475L51.336 26.4299ZM51.3354 26.4303L51.3255 26.4405L52.0431 27.1369L52.053 27.1267L51.3354 26.4303ZM52.1503 25.3706C51.9294 25.7502 51.6594 26.1046 51.3398 26.4258L52.0486 27.1312C52.4295 26.7485 52.7514 26.3258 53.0146 25.8737L52.1503 25.3706ZM55.052 29.1749C54.0426 28.1653 53.3609 26.8918 53.0717 25.5191L52.0932 25.7253C52.422 27.2859 53.197 28.7339 54.3447 29.8819L55.052 29.1749ZM55.7427 29.8652L55.0518 29.1748L54.3449 29.8821L55.0358 30.5725L55.7427 29.8652ZM55.4683 30.847L55.7428 30.5724L55.0357 29.8653L54.7611 30.1399L55.4683 30.847ZM54.0705 30.1559L54.761 30.8469L55.4684 30.14L54.7778 29.449L54.0705 30.1559ZM50.415 28.1758C51.7876 28.4651 53.061 29.1468 54.0706 30.1561L54.7776 29.4488C53.6296 28.3012 52.1817 27.5262 50.6212 27.1973L50.415 28.1758ZM51.3214 26.4442C51.0003 26.7637 50.6459 27.0336 50.2665 27.2545L50.7696 28.1187C51.2216 27.8556 51.6441 27.5338 52.0268 27.153L51.3214 26.4442ZM31.3932 20.407C30.2081 18.3997 27.8191 17.4072 25.0928 17.3213C22.354 17.235 19.1817 18.0532 16.2606 19.7779L16.769 20.639C19.5457 18.9995 22.5328 18.2411 25.0613 18.3208C27.6021 18.4009 29.5882 19.3168 30.5321 20.9154L31.3932 20.407ZM24.6373 33.9602C27.5487 32.2222 29.7967 29.8403 31.0458 27.4045C32.2893 24.9795 32.5788 22.4148 31.3932 20.407L30.5321 20.9154C31.4757 22.5135 31.3151 24.6877 30.156 26.9482C29.0023 29.1978 26.895 31.4478 24.1248 33.1016L24.6373 33.9602ZM15.7445 36.1076C18.7874 36.2648 22.0429 35.4921 24.6353 33.9614L24.1268 33.1003C21.7096 34.5276 18.6499 35.2564 15.7961 35.1089L15.7445 36.1076ZM9.50259 33.3324C9.99603 34.1681 10.8543 34.8184 11.9182 35.2781C12.986 35.7395 14.2938 36.0237 15.7414 36.1074L15.7992 35.1091C14.4411 35.0305 13.2528 34.7654 12.3148 34.3601C11.3728 33.9531 10.7154 33.4196 10.3637 32.824L9.50259 33.3324ZM10.0859 26.5292C9.46008 27.8373 9.07734 29.1196 8.96557 30.2775C8.85422 31.4311 9.00916 32.4967 9.50259 33.3324L10.3637 32.824C10.012 32.2283 9.86235 31.395 9.96095 30.3736C10.0591 29.3565 10.4009 28.1879 10.988 26.9608L10.0859 26.5292ZM16.2606 19.7779C13.6697 21.3078 11.4308 23.741 10.0866 26.5278L10.9873 26.9622C12.2468 24.351 14.3502 22.0672 16.769 20.639L16.2606 19.7779ZM10.9142 32.4989C10.6419 32.0377 10.5226 31.3155 10.6255 30.3832C10.7271 29.4619 11.0407 28.3889 11.5665 27.2766C12.6186 25.051 14.4932 22.7253 17.0941 21.1896L16.5856 20.3285C13.7915 21.9783 11.7891 24.466 10.6624 26.8492C10.0989 28.0414 9.74758 29.2217 9.63149 30.2735C9.51661 31.3143 9.62659 32.285 10.0531 33.0074L10.9142 32.4989ZM15.8293 34.4626C14.5973 34.3823 13.5033 34.142 12.6437 33.7871C11.7748 33.4284 11.1947 32.9739 10.9142 32.4989L10.0531 33.0074C10.4878 33.7435 11.2901 34.3102 12.2621 34.7114C13.2432 35.1165 14.4482 35.3748 15.7643 35.4605L15.8293 34.4626ZM23.7855 32.5223C21.4762 33.8859 18.5587 34.6033 15.8225 34.4622L15.7711 35.4609C18.7014 35.6119 21.8139 34.8478 24.294 33.3834L23.7855 32.5223ZM29.9654 21.2129C30.7971 22.6215 30.6143 24.6344 29.4873 26.7636C28.3695 28.8753 26.3694 30.9966 23.7855 32.5223L24.294 33.3834C27.0225 31.7723 29.1594 29.5206 30.3711 27.2314C31.5735 24.9598 31.9126 22.5439 30.8265 20.7045L29.9654 21.2129ZM17.0941 21.1896C19.6788 19.6634 22.4987 18.93 24.8836 18.9645C27.2881 18.9994 29.1341 19.805 29.9654 21.2129L30.8265 20.7045C29.74 18.8644 27.4641 18.0018 24.8981 17.9646C22.3125 17.9272 19.3133 18.7179 16.5856 20.3285L17.0941 21.1896ZM40.9956 34.5C34.6988 34.5 29.5682 39.6001 29.5682 45.9002H30.5682C30.5682 40.1556 35.2478 35.5 40.9956 35.5V34.5ZM52.3958 45.9002C52.3958 39.6017 47.2941 34.5 40.9956 34.5V35.5C46.7419 35.5 51.3958 40.154 51.3958 45.9002H52.3958ZM40.9956 57.3276C47.2958 57.3276 52.3958 52.1971 52.3958 45.9002H51.3958C51.3958 51.648 46.7402 56.3276 40.9956 56.3276V57.3276ZM29.5682 45.9002C29.5682 52.2267 34.698 57.3276 40.9956 57.3276V56.3276C35.2486 56.3276 30.5682 51.6728 30.5682 45.9002H29.5682ZM40.2491 56.3131C40.7659 56.6684 41.3617 56.8509 41.9259 56.94L42.0819 55.9522C41.6106 55.8778 41.1709 55.7333 40.8156 55.4891L40.2491 56.3131ZM35.998 55.6432C37.4636 56.0942 39.0043 56.317 40.5046 56.4003L40.5601 55.4019C39.1174 55.3217 37.6606 55.1085 36.2921 54.6875L35.998 55.6432ZM36.1341 55.6693C36.1432 55.6674 36.1482 55.6664 36.1528 55.6656C36.1568 55.6649 36.1585 55.6646 36.1587 55.6646C36.1588 55.6646 36.1574 55.6648 36.1548 55.665C36.1521 55.6652 36.1488 55.6653 36.1451 55.6653V54.6653C36.0486 54.6653 35.9698 54.6823 35.938 54.6887L36.1341 55.6693ZM35.9271 55.6926C36.0235 55.6926 36.1023 55.6756 36.1341 55.6693L35.938 54.6887C35.9289 54.6905 35.9239 54.6915 35.9194 54.6923C35.9153 54.6931 35.9136 54.6933 35.9134 54.6934C35.9133 54.6934 35.9147 54.6932 35.9173 54.693C35.92 54.6928 35.9233 54.6926 35.9271 54.6926V55.6926ZM41.9586 55.9482C39.9583 56.13 37.9318 55.7142 36.166 54.7534L35.6881 55.6318C37.6284 56.6875 39.8529 57.1437 42.0492 56.9441L41.9586 55.9482ZM47.6247 54.5587C47.6614 54.174 47.5778 53.791 47.4634 53.4593C47.3478 53.1239 47.1893 52.8091 47.0463 52.5517L46.1722 53.0374C46.3017 53.2705 46.4293 53.528 46.5181 53.7853C46.6081 54.0463 46.6471 54.2764 46.6292 54.4639L47.6247 54.5587ZM50.7819 48.2403C50.2376 50.5986 48.8377 52.675 46.8364 54.1045L47.4176 54.9182C49.6129 53.3501 51.156 51.0664 51.7563 48.4652L50.7819 48.2403ZM50.3127 47.5011C50.5286 47.7601 50.6898 48.0971 50.784 48.474L51.7541 48.2315C51.6304 47.7363 51.41 47.2558 51.0809 46.8609L50.3127 47.5011ZM48.5934 49.4864C49.5754 49.0243 50.4426 48.4031 51.1046 47.4703L50.2891 46.8916C49.752 47.6483 49.0387 48.1717 48.1676 48.5816L48.5934 49.4864ZM47.439 52.2031C48.2464 50.4817 48.7127 49.4877 48.8277 49.2576L47.9333 48.8104C47.8108 49.0553 47.3356 50.0686 46.5336 51.7785L47.439 52.2031ZM47.0619 53.0069L47.4389 52.2031L46.5336 51.7784L46.1566 52.5822L47.0619 53.0069ZM47.6063 48.7014C47.5358 48.8424 47.3985 49.1401 47.2001 49.5702L48.1081 49.9891C48.3114 49.5484 48.4393 49.2715 48.5007 49.1486L47.6063 48.7014ZM46.8497 48.1195C47.1178 48.485 47.3844 48.8485 47.6466 49.2156L48.4604 48.6344C48.1939 48.2613 47.9235 47.8927 47.656 47.528L46.8497 48.1195ZM45.5974 46.3737C46.0028 46.965 46.4282 47.5449 46.8497 48.1195L47.656 47.528C47.2329 46.9512 46.8171 46.3842 46.4221 45.8082L45.5974 46.3737ZM41.8347 47.3481C43.2577 47.1292 44.6844 46.8824 46.1132 46.5801L45.9062 45.6018C44.501 45.899 43.0937 46.1427 41.6826 46.3598L41.8347 47.3481ZM40.5373 50.7141C41.1753 49.5213 41.7279 48.2772 42.2229 47.0396L41.2944 46.6683C40.8084 47.8833 40.271 49.0917 39.6555 50.2424L40.5373 50.7141ZM42.6736 53.085C41.8776 52.2093 41.1604 51.2533 40.5222 50.2162L39.6705 50.7403C40.3404 51.8288 41.0947 52.8348 41.9337 53.7577L42.6736 53.085ZM46.1905 52.1727C44.867 52.4968 43.5522 52.7647 42.2429 52.925L42.3644 53.9176C43.7256 53.7509 45.0814 53.4738 46.4284 53.144L46.1905 52.1727ZM47.2001 49.5702C46.9033 50.2134 46.4579 51.1787 45.8577 52.444L46.7612 52.8726C47.3638 51.6023 47.811 50.6331 48.1081 49.9891L47.2001 49.5702ZM39.3739 50.936C40.0395 51.9899 40.7942 53.0256 41.6667 53.9544L42.3956 53.2697C41.5786 52.4001 40.8618 51.4192 40.2194 50.402L39.3739 50.936ZM35.5217 50.3423C36.8776 50.8905 38.3859 51.0853 39.7667 51.1681L39.8266 50.1699C38.4823 50.0893 37.102 49.9026 35.8964 49.4152L35.5217 50.3423ZM34.3864 52.3947C35.1484 51.7851 35.7323 50.8665 36.1461 50.1216L35.272 49.6359C34.8683 50.3625 34.3622 51.1335 33.7617 51.6139L34.3864 52.3947ZM36.6076 54.4848C35.7847 53.6619 35.0563 52.7739 34.5143 51.7672L33.6338 52.2413C34.2363 53.3602 35.0339 54.3253 35.9005 55.1919L36.6076 54.4848ZM40.5334 55.0749C39.119 54.9948 37.7185 54.782 36.4064 54.3621L36.1017 55.3146C37.5147 55.7667 39.0027 55.9899 40.4769 56.0733L40.5334 55.0749ZM41.6365 53.3051L40.1105 55.2671L40.8998 55.8811L42.4258 53.919L41.6365 53.3051ZM35.0236 49.3965C34.6466 50.0965 34.1142 50.9169 33.5457 51.367L34.1664 52.1511C34.9058 51.5656 35.518 50.5875 35.904 49.8706L35.0236 49.3965ZM34.3653 45.6589C34.4478 46.9796 34.614 48.4652 34.9826 49.7695L35.9449 49.4975C35.605 48.2948 35.4443 46.8918 35.3633 45.5965L34.3653 45.6589ZM31.9904 44.1378C32.821 44.8023 33.7038 45.4366 34.581 46.0397L35.1475 45.2157C34.2807 44.6197 33.4195 44.0005 32.6151 43.357L31.9904 44.1378ZM31.2631 45.7706C31.6221 45.1552 32.0763 44.5787 32.6194 44.1344L31.9861 43.3604C31.3301 43.8971 30.8034 44.5741 30.3993 45.2667L31.2631 45.7706ZM32.0348 49.8659C31.4273 48.2545 31.2021 46.8346 31.3287 45.5684L30.3337 45.4689C30.1878 46.9279 30.4532 48.5055 31.0991 50.2187L32.0348 49.8659ZM34.0796 51.3118C33.2611 50.9025 32.5469 50.3667 31.9344 49.7031L31.1996 50.3814C31.8951 51.1348 32.7069 51.7435 33.6324 52.2063L34.0796 51.3118ZM45.8517 45.2748C44.4464 45.572 43.0387 45.8158 41.6539 46.033L41.8089 47.0209C43.2036 46.8021 44.63 46.5553 46.0587 46.2531L45.8517 45.2748ZM46.5437 42.145C46.1599 43.2964 45.8031 44.4488 45.4736 45.6295L46.4368 45.8983C46.7613 44.7355 47.1131 43.5989 47.4923 42.4612L46.5437 42.145ZM43.5492 39.4043C44.6508 40.3984 45.6952 41.47 46.6302 42.6188L47.4058 41.9875C46.4333 40.7927 45.3521 39.6843 44.2192 38.6619L43.5492 39.4043ZM39.9862 40.1805C41.3213 39.9626 42.6574 39.7444 43.9664 39.5263L43.802 38.5399C42.4949 38.7577 41.1605 38.9756 39.8251 39.1936L39.9862 40.1805ZM39.3785 43.6926C39.7352 42.4305 40.064 41.1149 40.3907 39.8083L39.4206 39.5658C39.0932 40.8753 38.768 42.1758 38.4162 43.4207L39.3785 43.6926ZM42.1429 46.2429C41.321 45.0527 40.3307 44.0349 39.2036 43.1614L38.5911 43.9519C39.644 44.7679 40.5612 45.7122 41.32 46.811L42.1429 46.2429ZM51.8605 47.4918C51.7047 47.1491 51.4825 46.7963 51.1866 46.5004L50.4795 47.2075C50.6742 47.4022 50.8334 47.6488 50.9501 47.9056L51.8605 47.4918ZM50.0304 41.4888C50.9647 43.3833 51.2759 45.5375 50.9128 47.6125L51.8978 47.7849C52.2977 45.4998 51.955 43.1304 50.9272 41.0465L50.0304 41.4888ZM50.8306 42.8476C50.9509 42.3064 50.9788 41.7749 50.9788 41.2676H49.9788C49.9788 41.7413 49.9522 42.1909 49.8545 42.6307L50.8306 42.8476ZM51.3305 46.9045C51.5025 45.2135 51.3252 44.1622 50.8186 42.5861L49.8665 42.8921C50.341 44.3681 50.4907 45.2788 50.3356 46.8034L51.3305 46.9045ZM49.6264 40.6297C49.6786 41.2299 49.6757 41.8287 49.5542 42.3877L50.5314 42.6001C50.6824 41.9055 50.6795 41.1963 50.6227 40.543L49.6264 40.6297ZM46.4231 37.4387C47.7715 38.2945 48.8877 39.462 49.693 40.8388L50.5561 40.3339C49.6719 38.8221 48.4445 37.5371 46.9589 36.5944L46.4231 37.4387ZM44.3202 37.1623C45.0478 37.1623 45.8174 37.3135 46.5697 37.5016L46.8123 36.5315C46.0386 36.338 45.1732 36.1623 44.3202 36.1623V37.1623ZM44.631 38.9732C44.8832 38.2167 44.8462 37.303 44.8198 36.6423L43.8206 36.6823C43.8487 37.3841 43.8662 38.1054 43.6824 38.657L44.631 38.9732ZM47.651 41.7695C46.6788 40.575 45.5987 39.4678 44.4962 38.448L43.8172 39.1821C44.8948 40.1789 45.9402 41.2517 46.8755 42.4008L47.651 41.7695ZM50.255 42.0411C49.3233 41.6044 48.2517 41.3463 47.1518 41.5977L47.3747 42.5726C48.1823 42.3879 49.0183 42.5658 49.8306 42.9466L50.255 42.0411ZM39.0942 39.4814L39.0941 39.4819L40.0629 39.7297L40.063 39.7292L39.0942 39.4814ZM36.9883 38.334C37.7656 38.8433 38.5417 39.4054 39.2628 39.9929L39.8945 39.2177C39.144 38.6062 38.3396 38.0239 37.5363 37.4976L36.9883 38.334ZM33.9812 40.1225C35.06 39.3595 36.1861 38.7841 37.4143 38.3921L37.1103 37.4395C35.777 37.865 34.5595 38.4887 33.4038 39.3061L33.9812 40.1225ZM32.9625 43.5357C33.1194 42.2547 33.4833 41.0434 34.1222 39.9701L33.2629 39.4586C32.5393 40.6743 32.1401 42.0246 31.9699 43.4141L32.9625 43.5357ZM35.2838 44.9159C34.415 44.3186 33.5819 43.7271 32.7786 43.0845L32.1539 43.8653C32.9856 44.5307 33.842 45.1382 34.7173 45.7399L35.2838 44.9159ZM38.4316 43.0218C37.1995 43.3777 35.6403 43.9509 34.6417 44.9797L35.3593 45.6762C36.1593 44.8519 37.4886 44.3351 38.7091 43.9825L38.4316 43.0218ZM39.0923 39.4889C38.7654 40.7964 38.4403 42.0967 38.0884 43.3688L39.0523 43.6354C39.408 42.3493 39.7361 41.0368 40.0624 39.7314L39.0923 39.4889ZM39.0939 39.4827L39.0938 39.4829L40.0609 39.7374L40.0609 39.7372L39.0939 39.4827ZM39.0939 39.4825L39.0939 39.4827L40.0609 39.7372L40.061 39.737L39.0939 39.4825ZM39.094 39.4823L39.0939 39.4825L40.061 39.737L40.0611 39.7368L39.094 39.4823ZM39.094 39.4821L39.094 39.4823L40.0611 39.7368L40.0611 39.7365L39.094 39.4821ZM39.0941 39.4818L39.094 39.4821L40.0611 39.7365L40.0612 39.7363L39.0941 39.4818ZM39.0942 39.4816L39.0941 39.4818L40.0612 39.7363L40.0612 39.7361L39.0942 39.4816ZM39.0942 39.4814L39.0942 39.4816L40.0612 39.7361L40.0613 39.7359L39.0942 39.4814ZM39.0943 39.4812L39.0942 39.4814L40.0613 39.7359L40.0613 39.7357L39.0943 39.4812ZM39.0943 39.481L39.0943 39.4812L40.0613 39.7357L40.0614 39.7355L39.0943 39.481ZM39.0944 39.4807L39.0943 39.481L40.0614 39.7355L40.0615 39.7352L39.0944 39.4807ZM39.0944 39.4805L39.0944 39.4807L40.0615 39.7352L40.0615 39.735L39.0944 39.4805ZM39.0945 39.4803L39.0944 39.4805L40.0615 39.735L40.0616 39.7348L39.0945 39.4803ZM39.0946 39.4801L39.0945 39.4803L40.0616 39.7348L40.0616 39.7346L39.0946 39.4801ZM39.0946 39.4799L39.0946 39.4801L40.0616 39.7346L40.0617 39.7344L39.0946 39.4799ZM39.0947 39.4797L39.0946 39.4799L40.0617 39.7344L40.0617 39.7342L39.0947 39.4797ZM39.0947 39.4794L39.0947 39.4797L40.0617 39.7342L40.0618 39.7339L39.0947 39.4794ZM39.0948 39.4792L39.0947 39.4794L40.0618 39.7339L40.0619 39.7337L39.0948 39.4792ZM39.0948 39.479L39.0948 39.4792L40.0619 39.7337L40.0619 39.7335L39.0948 39.479ZM39.0949 39.4788L39.0948 39.479L40.0619 39.7335L40.062 39.7333L39.0949 39.4788ZM39.095 39.4786L39.0949 39.4788L40.062 39.7333L40.062 39.7331L39.095 39.4786ZM30.0083 45.4002C29.8909 46.3106 29.9513 47.2658 30.1502 48.26L31.1308 48.0639C30.9481 47.1506 30.8996 46.3073 31.0001 45.5282L30.0083 45.4002ZM29.9996 44.5828C29.9937 44.8654 29.9828 45.3238 30.0081 45.5262L31.0003 45.4022C30.9867 45.2929 30.9925 44.9383 30.9993 44.6034L29.9996 44.5828ZM30.0042 44.2924C30.0042 44.3559 30.0022 44.4571 29.9996 44.5828L30.9993 44.6034C31.0018 44.4828 31.0042 44.3688 31.0042 44.2924H30.0042ZM31.1277 48.0495C30.8952 47.0422 30.8195 45.3407 30.9959 44.383L30.0125 44.2018C29.8074 45.3151 29.8952 47.1562 30.1533 48.2744L31.1277 48.0495ZM37.0256 37.1134C35.7243 37.5377 34.4829 38.159 33.3288 38.9472L33.8927 39.773C34.9732 39.0351 36.1298 38.4574 37.3356 38.0642L37.0256 37.1134ZM39.1098 35.2613C38.1534 35.7395 37.3862 36.4523 36.7756 37.2955L37.5855 37.882C38.1194 37.1448 38.7693 36.5496 39.557 36.1557L39.1098 35.2613ZM38.5703 36.1268C38.8398 36.1268 39.0428 36.1513 39.2121 36.1936L39.4546 35.2234C39.1879 35.1568 38.9004 35.1268 38.5703 35.1268V36.1268ZM33.3091 39.3857C34.7146 37.746 36.5835 36.5805 38.6788 36.1149L38.4619 35.1387C36.1426 35.6541 34.0874 36.9411 32.5499 38.7349L33.3091 39.3857ZM34.0108 39.0601C33.7226 38.6758 33.301 38.5603 32.9295 38.5603V39.5603C33.103 39.5603 33.1719 39.6083 33.2108 39.6601L34.0108 39.0601ZM44.4468 35.8807C43.107 35.2667 41.358 34.7262 39.6815 35.0255L39.8573 36.01C41.2328 35.7643 42.7538 36.2048 44.0301 36.7898L44.4468 35.8807ZM45.8425 35.9776C45.3106 35.8937 44.7919 35.8353 44.2384 35.8353V36.8353C44.7205 36.8353 45.1829 36.8859 45.6865 36.9654L45.8425 35.9776ZM39.6493 35.931C41.6422 35.6463 43.7199 36.0083 45.5409 36.9187L45.9881 36.0243C43.9939 35.0272 41.7116 34.6262 39.5079 34.941L39.6493 35.931ZM39.993 35.0705C39.9353 35.0417 39.8542 35.0008 39.7367 34.9617L39.4205 35.9104C39.4665 35.9257 39.4944 35.9393 39.5458 35.965L39.993 35.0705ZM29.1827 21.9219C29.1675 21.9309 29.1172 21.9512 29.0481 21.9334C28.979 21.9156 28.9448 21.8735 28.9358 21.8583L29.7969 21.3498C29.6903 21.1694 29.5198 21.0222 29.2975 20.965C29.0752 20.9077 28.8547 20.9543 28.6743 21.0608L29.1827 21.9219ZM24.1456 24.8961L29.1828 21.9219L28.6743 21.0608L23.6372 24.035L24.1456 24.8961ZM22.7457 23.5086L23.4608 24.7198L24.3219 24.2113L23.6068 23.0002L22.7457 23.5086ZM22.9927 23.5722C22.9774 23.5812 22.9271 23.6015 22.858 23.5837C22.7889 23.566 22.7547 23.5239 22.7457 23.5086L23.6068 23.0002C23.5003 22.8198 23.3297 22.6726 23.1074 22.6153C22.8851 22.5581 22.6647 22.6046 22.4842 22.7111L22.9927 23.5722ZM23.0563 23.3252C23.0653 23.3405 23.0856 23.3908 23.0678 23.4599C23.05 23.529 23.008 23.5632 22.9927 23.5722L22.4842 22.7111C22.3038 22.8177 22.1566 22.9882 22.0994 23.2105C22.0421 23.4328 22.0887 23.6533 22.1952 23.8337L23.0563 23.3252ZM23.7714 24.5364L23.0563 23.3252L22.1952 23.8337L22.9103 25.0448L23.7714 24.5364ZM22.4666 25.8875L23.5951 25.2211L23.0866 24.36L21.9581 25.0264L22.4666 25.8875ZM21.0666 24.4998L21.7818 25.7112L22.6429 25.2027L21.9277 23.9914L21.0666 24.4998ZM21.3135 24.5634C21.2983 24.5724 21.248 24.5927 21.1789 24.575C21.1098 24.5572 21.0756 24.5151 21.0666 24.4998L21.9277 23.9914C21.8211 23.811 21.6506 23.6638 21.4283 23.6065C21.206 23.5493 20.9855 23.5958 20.8051 23.7023L21.3135 24.5634ZM21.3771 24.3164C21.3862 24.3317 21.4065 24.382 21.3887 24.4511C21.3709 24.5202 21.3288 24.5544 21.3135 24.5634L20.8051 23.7023C20.6247 23.8089 20.4775 23.9794 20.4203 24.2017C20.363 24.424 20.4095 24.6445 20.516 24.8249L21.3771 24.3164ZM22.0924 25.5278L21.3771 24.3164L20.516 24.8249L21.2313 26.0362L22.0924 25.5278ZM20.8151 26.8626L21.916 26.2125L21.4076 25.3514L20.3067 26.0015L20.8151 26.8626ZM19.4151 25.4749L20.1303 26.6863L20.9914 26.1778L20.2762 24.9665L19.4151 25.4749ZM19.6621 25.5385C19.6468 25.5475 19.5965 25.5678 19.5274 25.5501C19.4583 25.5323 19.4241 25.4902 19.4151 25.4749L20.2762 24.9665C20.1697 24.7861 19.9991 24.6389 19.7768 24.5816C19.5545 24.5244 19.3341 24.5709 19.1537 24.6774L19.6621 25.5385ZM19.7257 25.2915C19.7347 25.3068 19.755 25.3571 19.7372 25.4262C19.7194 25.4953 19.6774 25.5295 19.6621 25.5385L19.1536 24.6774C18.9732 24.784 18.826 24.9545 18.7688 25.1768C18.7116 25.3991 18.7581 25.6196 18.8646 25.8L19.7257 25.2915ZM20.4409 26.5029L19.7257 25.2915L18.8646 25.8L19.5798 27.0113L20.4409 26.5029ZM19.1636 27.8378L20.2646 27.1876L19.7562 26.3265L18.6551 26.9767L19.1636 27.8378ZM17.7635 26.45L18.4788 27.6614L19.3399 27.153L18.6246 25.9416L17.7635 26.45ZM18.0105 26.5136C17.9952 26.5226 17.945 26.5429 17.8759 26.5251C17.8068 26.5074 17.7725 26.4653 17.7635 26.45L18.6246 25.9416C18.5181 25.7612 18.3475 25.614 18.1252 25.5567C17.9029 25.4995 17.6825 25.546 17.5021 25.6525L18.0105 26.5136ZM18.0741 26.2666C18.0831 26.2819 18.1034 26.3322 18.0856 26.4013C18.0678 26.4704 18.0258 26.5046 18.0105 26.5136L17.5021 25.6525C17.3217 25.7591 17.1745 25.9296 17.1172 26.1519C17.06 26.3742 17.1065 26.5947 17.213 26.7751L18.0741 26.2666ZM18.7894 27.478L18.0741 26.2666L17.213 26.7751L17.9283 27.9865L18.7894 27.478ZM17.512 28.8129L18.6131 28.1628L18.1046 27.3017L17.0036 27.9518L17.512 28.8129ZM16.1119 27.4251L16.8273 28.6366L17.6883 28.1281L16.973 26.9167L16.1119 27.4251ZM16.3589 27.4887C16.3437 27.4977 16.2934 27.518 16.2243 27.5002C16.1552 27.4825 16.121 27.4404 16.1119 27.4251L16.973 26.9167C16.8665 26.7363 16.696 26.5891 16.4736 26.5318C16.2513 26.4746 16.0309 26.5211 15.8505 26.6276L16.3589 27.4887ZM16.4225 27.2417C16.4315 27.257 16.4518 27.3073 16.434 27.3764C16.4163 27.4455 16.3742 27.4797 16.3589 27.4887L15.8505 26.6276C15.6701 26.7342 15.5229 26.9047 15.4656 27.127C15.4084 27.3493 15.4549 27.5698 15.5614 27.7502L16.4225 27.2417ZM17.1378 28.4532L16.4225 27.2417L15.5614 27.7502L16.2767 28.9616L17.1378 28.4532ZM11.9242 32.1123L16.9615 29.138L16.4531 28.2769L11.4158 31.2512L11.9242 32.1123ZM11.9878 31.8653C11.9968 31.8805 12.0171 31.9308 11.9993 31.9999C11.9815 32.069 11.9395 32.1032 11.9242 32.1123L11.4158 31.2512C11.2353 31.3577 11.0882 31.5282 11.0309 31.7506C10.9737 31.9729 11.0202 32.1933 11.1267 32.3737L11.9878 31.8653ZM11.7408 31.8017C11.7561 31.7927 11.8064 31.7724 11.8755 31.7902C11.9446 31.8079 11.9788 31.85 11.9878 31.8653L11.1267 32.3737C11.2332 32.5541 11.4038 32.7013 11.6261 32.7586C11.8484 32.8158 12.0688 32.7693 12.2493 32.6628L11.7408 31.8017ZM16.7781 28.8274L11.7408 31.8017L12.2493 32.6628L17.2866 29.6885L16.7781 28.8274ZM18.1616 30.187L17.4629 29.0037L16.6018 29.5121L17.3005 30.6954L18.1616 30.187ZM17.9146 30.1234C17.9298 30.1144 17.9801 30.0941 18.0492 30.1119C18.1183 30.1297 18.1525 30.1717 18.1616 30.187L17.3005 30.6954C17.407 30.8758 17.5775 31.023 17.7998 31.0803C18.0222 31.1375 18.2426 31.091 18.423 30.9845L17.9146 30.1234ZM17.851 30.3704C17.842 30.3551 17.8217 30.3048 17.8394 30.2357C17.8572 30.1666 17.8993 30.1324 17.9146 30.1234L18.423 30.9845C18.6034 30.8779 18.7506 30.7074 18.8079 30.4851C18.8651 30.2628 18.8186 30.0423 18.7121 29.8619L17.851 30.3704ZM17.1523 29.1871L17.851 30.3704L18.7121 29.8619L18.0134 28.6787L17.1523 29.1871ZM18.4297 27.8522L17.3286 28.5023L17.8371 29.3634L18.9381 28.7133L18.4297 27.8522ZM19.8131 29.2119L19.1144 28.0285L18.2533 28.537L18.952 29.7203L19.8131 29.2119ZM19.5661 29.1483C19.5814 29.1393 19.6317 29.119 19.7008 29.1368C19.7699 29.1546 19.8041 29.1966 19.8131 29.2119L18.952 29.7203C19.0586 29.9007 19.2291 30.0479 19.4514 30.1052C19.6737 30.1624 19.8942 30.1159 20.0746 30.0094L19.5661 29.1483ZM19.5025 29.3953C19.4935 29.38 19.4732 29.3297 19.491 29.2606C19.5088 29.1915 19.5509 29.1573 19.5662 29.1483L20.0746 30.0094C20.255 29.9029 20.4022 29.7323 20.4594 29.51C20.5167 29.2877 20.4702 29.0672 20.3636 28.8868L19.5025 29.3953ZM18.8038 28.2119L19.5026 29.3953L20.3636 28.8868L19.6649 27.7035L18.8038 28.2119ZM20.0812 26.8771L18.9802 27.5272L19.4886 28.3883L20.5896 27.7382L20.0812 26.8771ZM21.4647 28.2368L20.766 27.0534L19.9049 27.5618L20.6036 28.7452L21.4647 28.2368ZM21.2177 28.1732C21.233 28.1642 21.2833 28.1439 21.3524 28.1617C21.4215 28.1795 21.4557 28.2215 21.4647 28.2368L20.6036 28.7452C20.7101 28.9256 20.8807 29.0728 21.103 29.1301C21.3253 29.1873 21.5458 29.1408 21.7262 29.0343L21.2177 28.1732ZM21.1541 28.4202C21.1451 28.4049 21.1248 28.3546 21.1426 28.2855C21.1604 28.2164 21.2025 28.1822 21.2177 28.1732L21.7262 29.0343C21.9066 28.9278 22.0538 28.7572 22.111 28.5349C22.1683 28.3126 22.1218 28.0921 22.0152 27.9117L21.1541 28.4202ZM20.4554 27.2368L21.1541 28.4202L22.0152 27.9117L21.3165 26.7283L20.4554 27.2368ZM21.7327 25.9019L20.6317 26.552L21.1402 27.4131L22.2411 26.763L21.7327 25.9019ZM23.1162 27.2617L22.4174 26.0783L21.5563 26.5867L22.2551 27.7701L23.1162 27.2617ZM22.8692 27.1981C22.8845 27.1891 22.9347 27.1688 23.0038 27.1866C23.0729 27.2044 23.1072 27.2464 23.1162 27.2617L22.2551 27.7701C22.3616 27.9505 22.5322 28.0977 22.7545 28.155C22.9768 28.2122 23.1972 28.1657 23.3776 28.0592L22.8692 27.1981ZM22.8056 27.4451C22.7966 27.4298 22.7763 27.3795 22.7941 27.3104C22.8119 27.2413 22.8539 27.2071 22.8692 27.1981L23.3776 28.0592C23.558 27.9527 23.7052 27.7821 23.7625 27.5598C23.8197 27.3375 23.7732 27.1171 23.6667 26.9366L22.8056 27.4451ZM22.1068 26.2617L22.8056 27.4451L23.6667 26.9366L22.9679 25.7532L22.1068 26.2617ZM23.4117 24.9106L22.2832 25.5769L22.7916 26.438L23.9201 25.7717L23.4117 24.9106ZM24.7953 26.2705L24.0965 25.0869L23.2354 25.5953L23.9342 26.7789L24.7953 26.2705ZM24.5483 26.2069C24.5636 26.1979 24.6139 26.1776 24.683 26.1954C24.7521 26.2131 24.7863 26.2552 24.7953 26.2705L23.9342 26.7789C24.0407 26.9593 24.2113 27.1065 24.4336 27.1638C24.6559 27.221 24.8763 27.1745 25.0568 27.068L24.5483 26.2069ZM24.4847 26.4539C24.4757 26.4386 24.4554 26.3883 24.4732 26.3192C24.491 26.2501 24.5331 26.2159 24.5483 26.2069L25.0568 27.068C25.2372 26.9614 25.3844 26.7909 25.4416 26.5686C25.4989 26.3463 25.4524 26.1258 25.3458 25.9454L24.4847 26.4539ZM23.7859 25.2703L24.4847 26.4539L25.3458 25.9454L24.647 24.7618L23.7859 25.2703ZM29.0269 21.595L23.9622 24.5855L24.4706 25.4466L29.5353 22.4561L29.0269 21.595ZM28.9358 21.8583C28.911 21.8163 28.9081 21.7779 28.9139 21.7461C28.9201 21.7124 28.9461 21.6428 29.0269 21.595L29.5353 22.4561C29.7538 22.3272 29.863 22.1156 29.8977 21.9258C29.932 21.7379 29.9029 21.5294 29.7969 21.3498L28.9358 21.8583Z" fill="black" mask="url(#path-1-inside-1)"/>
</svg>
