<svg width="68" height="68" viewBox="0 0 68 68" fill="none" xmlns="http://www.w3.org/2000/svg">
<path d="M50.6667 46.5002H32.9583V12.1252C32.9583 11.8489 32.8486 11.5839 32.6532 11.3886C32.4579 11.1932 32.1929 11.0835 31.9167 11.0835C31.6404 11.0835 31.3754 11.1932 31.1801 11.3886C30.9847 11.5839 30.875 11.8489 30.875 12.1252V16.0835L20.8021 40.2502H17.3333C17.0571 40.2502 16.7921 40.3599 16.5968 40.5553C16.4014 40.7506 16.2917 41.0156 16.2917 41.2918C16.2917 41.5681 16.4014 41.833 16.5968 42.0284C16.7921 42.2237 17.0571 42.3335 17.3333 42.3335H30.875V46.5002H17.3333C17.0571 46.5002 16.7921 46.6099 16.5968 46.8053C16.4014 47.0006 16.2917 47.2656 16.2917 47.5418V51.7085C16.2917 53.0898 16.8404 54.4146 17.8171 55.3913C18.7939 56.3681 20.1187 56.9168 21.5 56.9168H40.25C41.7047 56.9128 43.1387 56.5722 44.4399 55.9216C45.741 55.2711 46.8739 54.3282 47.75 53.1668L51.5 48.1668C51.6159 48.0113 51.6861 47.8265 51.7026 47.6333C51.7192 47.4401 51.6815 47.246 51.5937 47.0731C51.5072 46.9013 51.3747 46.7568 51.2111 46.6557C51.0475 46.5546 50.859 46.5007 50.6667 46.5002ZM32.9583 52.7502H21.5V50.6668H32.9583V52.7502ZM38.1667 52.7502H35.0417V50.6668H38.1667V52.7502ZM50.6667 40.2502H35.0417V12.5002C44.7396 17.9585 51.7083 30.4377 51.7083 39.2085C51.7083 39.4848 51.5986 39.7497 51.4032 39.9451C51.2079 40.1404 50.9429 40.2502 50.6667 40.2502Z" fill="black"/>
</svg>
