<svg width="68" height="68" viewBox="0 0 68 68" fill="none" xmlns="http://www.w3.org/2000/svg">
<path d="M29.5432 38.8999C29.5432 37.8666 29.7765 36.8832 30.2432 35.9499C30.7432 34.9832 31.5765 34.0499 32.7432 33.1499L35.2932 31.1999C36.2932 30.4332 37.0432 29.6332 37.5432 28.7999C38.0432 27.9332 38.2932 26.9166 38.2932 25.7499C38.2932 24.4832 37.8932 23.4832 37.0932 22.7499C36.3265 22.0166 35.2598 21.6499 33.8932 21.6499C32.3598 21.6499 31.1598 22.0666 30.2932 22.8999C29.4265 23.7332 28.9932 24.8999 28.9932 26.3999C28.9932 27.3999 29.0932 28.2332 29.2932 28.8999L21.5932 28.2499C21.3598 27.1832 21.2432 26.2166 21.2432 25.3499C21.2432 23.4166 21.7432 21.7166 22.7432 20.2499C23.7765 18.7832 25.2432 17.6499 27.1432 16.8499C29.0765 16.0499 31.3432 15.6499 33.9432 15.6499C37.9098 15.6499 40.9932 16.4666 43.1932 18.0999C45.3932 19.6999 46.4932 21.9666 46.4932 24.8999C46.4932 26.6666 46.0765 28.3166 45.2432 29.8499C44.4098 31.3499 43.2598 32.6832 41.7932 33.8499L39.4932 35.7499C38.6932 36.4166 38.1265 37.0499 37.7932 37.6499C37.4932 38.2166 37.3432 38.9499 37.3432 39.8499V41.2999H29.5432V38.8999ZM29.1932 44.3499H37.7932V51.9999H29.1932V44.3499Z" fill="black"/>
</svg>
