<svg width="68" height="68" viewBox="0 0 68 68" fill="none" xmlns="http://www.w3.org/2000/svg">
<path fill-rule="evenodd" clip-rule="evenodd" d="M53.5541 13.9636C54.1105 14.1943 54.616 14.5323 55.0416 14.9585C55.4678 15.3842 55.8059 15.8896 56.0365 16.4461C56.2672 17.0025 56.3859 17.5989 56.3859 18.2012C56.3859 18.8035 56.2672 19.3999 56.0365 19.9563C55.8059 20.5127 55.4678 21.0182 55.0416 21.4439L40.4208 35.996L17.7333 55.4752C18.1276 55.9118 18.3388 56.4833 18.3233 57.0714C18.3078 57.6594 18.0667 58.219 17.65 58.6343C17.2333 59.0495 16.6728 59.2886 16.0847 59.302C15.4966 59.3154 14.9258 59.1022 14.4906 58.7064L11.2594 55.4752C11.0289 55.2671 10.8432 55.0144 10.7134 54.7324C10.5836 54.4504 10.5125 54.145 10.5043 53.8347C10.4961 53.5243 10.551 53.2156 10.6658 52.9271C10.7805 52.6387 10.9527 52.3766 11.1718 52.1567C11.3909 51.9368 11.6525 51.7637 11.9405 51.6479C12.2285 51.5321 12.5371 51.4761 12.8475 51.4832C13.1578 51.4903 13.4635 51.5603 13.746 51.6891C14.0284 51.8179 14.2817 52.0028 14.4906 52.2324L33.9698 29.5449L48.5562 14.9585C48.9819 14.5323 49.4874 14.1943 50.0438 13.9636C50.6002 13.733 51.1966 13.6143 51.7989 13.6143C52.4013 13.6143 52.9977 13.733 53.5541 13.9636ZM26 21.5C26 25.6421 22.6421 29 18.5 29C14.3579 29 11 25.6421 11 21.5C11 17.3579 14.3579 14 18.5 14C22.6421 14 26 17.3579 26 21.5Z" fill="black"/>
</svg>
