<svg width="68" height="68" viewBox="0 0 68 68" fill="none" xmlns="http://www.w3.org/2000/svg">
<path d="M46.6887 48.3437H23.25C22.8273 48.3437 22.4219 48.1758 22.123 47.8769C21.8242 47.578 21.6562 47.1727 21.6562 46.75V23.375C21.6562 22.9523 21.8242 22.5469 22.123 22.248C22.4219 21.9491 22.8273 21.7812 23.25 21.7812H34.9375C35.3602 21.7812 35.7656 21.9491 36.0645 22.248C36.3633 22.5469 36.5312 22.9523 36.5312 23.375C36.5312 23.7977 36.3633 24.203 36.0645 24.5019C35.7656 24.8008 35.3602 24.9687 34.9375 24.9687H24.8438V45.1562H45.095V35.0625C45.095 34.6398 45.2629 34.2344 45.5618 33.9355C45.8607 33.6366 46.2661 33.4687 46.6887 33.4687C47.1114 33.4687 47.5168 33.6366 47.8157 33.9355C48.1146 34.2344 48.2825 34.6398 48.2825 35.0625V46.75C48.2825 47.1727 48.1146 47.578 47.8157 47.8769C47.5168 48.1758 47.1114 48.3437 46.6887 48.3437ZM31.8988 39.8437L36.2444 39.3125C36.5953 39.2692 36.9212 39.1081 37.1688 38.8556L49.9188 26.1906C50.2158 25.8907 50.3836 25.4864 50.3863 25.0643C50.3841 24.639 50.2164 24.2313 49.9188 23.9275L46.0831 20.1237C45.9368 19.975 45.7623 19.8568 45.5699 19.7762C45.3774 19.6956 45.1708 19.6541 44.9622 19.6541C44.7535 19.6541 44.547 19.6956 44.3545 19.7762C44.1621 19.8568 43.9876 19.975 43.8412 20.1237L31.0913 32.7887C30.8386 33.0405 30.6778 33.3697 30.6344 33.7237L30.0819 38.0481C30.0517 38.2888 30.0762 38.5331 30.1535 38.7631C30.2307 38.993 30.3588 39.2026 30.5281 39.3762C30.6883 39.5345 30.8796 39.6578 31.09 39.7383C31.3003 39.8188 31.5251 39.8547 31.75 39.8437H31.8988ZM44.9569 23.5025L46.4975 25.0325L35.2987 36.1887L33.5456 36.4118L33.7687 34.6693L44.9569 23.5025Z" fill="black"/>
</svg>
