<svg width="68" height="68" viewBox="0 0 68 68" fill="none" xmlns="http://www.w3.org/2000/svg">
<path d="M54.3056 13.4422C54.3045 13.4277 54.3062 13.4126 54.3039 13.3974L54.2087 12.6958C54.207 12.6834 54.202 12.6717 54.1998 12.6594C54.1942 12.6308 54.188 12.6028 54.1796 12.5748C54.1712 12.5457 54.1617 12.5177 54.1505 12.4908C54.1454 12.479 54.1438 12.4673 54.1387 12.4561L53.843 11.8166C53.8072 11.7387 53.7585 11.6726 53.7042 11.6122C53.6997 11.6071 53.6986 11.6004 53.6935 11.5954L53.222 11.0925C53.222 11.0919 53.2214 11.0914 53.2209 11.0908L53.2074 11.0768C53.2046 11.0734 53.2002 11.0723 53.1968 11.0695C53.1654 11.0365 53.1335 11.0051 53.096 10.9771L50.9198 9.35592C50.8986 9.34024 50.8756 9.3296 50.8532 9.31616C50.8336 9.3044 50.8162 9.28928 50.795 9.2792L50.0457 8.90288C50.0289 8.89448 50.011 8.89056 49.9942 8.88328C49.9684 8.87208 49.9426 8.862 49.9158 8.8536C49.885 8.84352 49.8542 8.83736 49.8228 8.83176C49.8071 8.8284 49.7926 8.8228 49.7763 8.82056L48.9789 8.71696C48.9783 8.71696 48.9778 8.71696 48.9772 8.71696L48.9402 8.71192C48.9206 8.70912 48.9016 8.71136 48.882 8.70968C48.854 8.708 48.8266 8.7052 48.7986 8.70688C48.7515 8.70856 48.7067 8.71528 48.6619 8.72424C48.6558 8.72536 48.6496 8.7248 48.6434 8.72648L48.6311 8.72928C48.6205 8.73208 48.6098 8.73376 48.5992 8.73712L47.827 8.91576C47.8102 8.91968 47.795 8.92752 47.7782 8.932C47.7508 8.9404 47.7239 8.9488 47.697 8.96C47.6679 8.97176 47.6416 8.98576 47.6153 8.99976C47.6013 9.0076 47.5856 9.01208 47.5722 9.02104L46.8576 9.4668C46.8414 9.47744 46.8274 9.49032 46.8122 9.50152C46.7876 9.51888 46.763 9.53624 46.7406 9.55696C46.717 9.57824 46.6969 9.6012 46.6762 9.62472C46.6644 9.63872 46.6493 9.64992 46.6381 9.66504L46.1251 10.3264C46.1234 10.3286 46.1223 10.3314 46.1201 10.3342C46.119 10.3359 46.1167 10.3376 46.1156 10.3393L39.0159 19.8789C39.012 19.8845 39.0098 19.8901 39.0058 19.8951C39.0008 19.9018 38.9946 19.9069 38.9907 19.9136L36.0793 24.2771C36.0759 24.2816 36.0742 24.2872 36.0714 24.2911C36.0686 24.2962 36.0642 24.2995 36.0614 24.304L31.3478 31.9962C31.345 32.0006 31.3439 32.0051 31.3411 32.009C31.3389 32.013 31.3361 32.0158 31.3338 32.0197L27.1938 39.2918L21.689 47.4936L16.5291 54.8632L16.183 55.2317L15.7832 55.5738L15.3464 55.869L14.8855 56.1243L14.5002 56.2789L14.3406 56.2862C14.339 56.2862 14.3373 56.2867 14.335 56.2867C14.3154 56.2878 14.2953 56.2934 14.2757 56.2957C14.1827 56.3074 14.0942 56.3304 14.0136 56.369C14.0125 56.369 14.0119 56.369 14.0114 56.3696L13.737 56.504C13.7308 56.5068 13.7258 56.5118 13.7202 56.5146C13.6944 56.5275 13.6703 56.5443 13.6457 56.5606C13.6233 56.5751 13.5998 56.5891 13.579 56.6054C13.56 56.6205 13.5426 56.6395 13.5242 56.6563C13.5018 56.6782 13.4788 56.6994 13.4592 56.7235C13.4553 56.728 13.4502 56.7314 13.4469 56.7358L13.2509 56.9811C13.2464 56.9867 13.2436 56.9929 13.2391 56.9985C13.2201 57.0237 13.2044 57.0506 13.1876 57.078C13.1753 57.0998 13.1613 57.1211 13.1506 57.1435C13.1394 57.167 13.1316 57.1917 13.1221 57.2158C13.1114 57.2449 13.1008 57.274 13.093 57.3031C13.0913 57.3104 13.0879 57.3166 13.0862 57.3238L13.019 57.6274C13.0179 57.6324 13.0185 57.6374 13.0174 57.6425C13.0112 57.6716 13.0095 57.7013 13.0067 57.7315C13.0039 57.7578 13 57.7842 13 57.8105C13 57.8334 13.0039 57.857 13.0056 57.8799C13.009 57.9135 13.0112 57.946 13.0174 57.9785C13.0185 57.983 13.0179 57.988 13.019 57.9919L13.0862 58.2932C13.0879 58.301 13.0935 58.3066 13.0952 58.3145C13.1137 58.3873 13.1383 58.459 13.177 58.5273L13.565 59.2054C13.5656 59.2066 13.5662 59.2071 13.5662 59.2077L13.5678 59.2105C13.569 59.2127 13.5712 59.2144 13.5723 59.2166C13.5986 59.2614 13.6289 59.3051 13.6642 59.3454L14.1782 59.9346C14.1794 59.9357 14.1805 59.9374 14.1816 59.9385L14.1827 59.9396C14.1861 59.943 14.19 59.9458 14.1928 59.9491C14.227 59.9861 14.2628 60.0219 14.3037 60.0538L14.9236 60.5304C14.9292 60.5349 14.9359 60.536 14.9415 60.5405C14.9746 60.5646 15.007 60.5886 15.0446 60.6082L15.7395 60.9734C15.7401 60.9739 15.7412 60.9739 15.7418 60.9745C15.7916 61.0002 15.8448 61.0215 15.9002 61.0372L16.6557 61.2528C16.663 61.255 16.6702 61.2539 16.6775 61.2562C16.7447 61.273 16.8136 61.2853 16.8858 61.2853H17.1759C17.1759 61.2853 17.1759 61.2853 17.1765 61.2853C17.1798 61.2853 17.1832 61.2842 17.1866 61.2842C17.2426 61.2836 17.2969 61.278 17.3501 61.2668C17.363 61.264 17.3758 61.2578 17.3887 61.255C17.433 61.2433 17.4761 61.2304 17.517 61.2119C17.5209 61.2102 17.5248 61.2097 17.5287 61.208L17.7746 61.0943C17.7751 61.0938 17.7757 61.0938 17.7762 61.0932L17.7919 61.0859C17.8182 61.0742 17.8406 61.0574 17.8647 61.0428C17.8877 61.0299 17.9112 61.0187 17.9325 61.003C17.9806 60.9683 18.0243 60.9291 18.063 60.886L18.2511 60.6771C18.2562 60.6715 18.2573 60.6654 18.2618 60.6598C18.3234 60.5875 18.3771 60.5069 18.413 60.4128L18.5149 60.1446C18.5166 60.1406 18.5166 60.1367 18.5177 60.1334C18.5294 60.1009 18.5367 60.0678 18.5446 60.0342C18.5496 60.0124 18.5563 59.9906 18.5597 59.9687C18.5636 59.9435 18.563 59.9178 18.5642 59.892C18.5664 59.8606 18.5686 59.8304 18.567 59.7996C18.567 59.7951 18.5681 59.7906 18.5675 59.7867L18.5474 59.505C18.5462 59.4894 18.5412 59.4748 18.539 59.4591C18.5373 59.4446 18.5384 59.43 18.5356 59.4154L18.4421 58.9014L18.4471 58.441L18.5289 57.9902L18.6879 57.554L18.9293 57.1413L25.7904 47.9864L32.2959 40.614L37.2586 35.4973L37.1438 35.6446C37.1343 35.6563 37.1287 35.6703 37.1203 35.6821C37.1018 35.709 37.0845 35.7358 37.0688 35.7638C37.057 35.7868 37.047 35.8098 37.0369 35.8333C37.0251 35.8596 37.015 35.8859 37.0066 35.9139C36.9977 35.9419 36.9926 35.9699 36.987 35.9974C36.9837 36.0142 36.977 36.0304 36.9753 36.0478L36.7395 37.8336C36.7373 37.8493 36.739 37.8655 36.7378 37.8812C36.7356 37.9109 36.7345 37.9394 36.735 37.9697C36.7362 37.9977 36.739 38.0251 36.7429 38.0526C36.7462 38.0783 36.7502 38.1041 36.7558 38.1298C36.763 38.1606 36.772 38.1898 36.7826 38.2194C36.7877 38.2334 36.7894 38.248 36.795 38.262L37.4759 39.9218C37.4798 39.9314 37.4866 39.937 37.4905 39.9459C37.5185 40.0086 37.5532 40.0691 37.5969 40.124C37.6025 40.1302 37.6058 40.1374 37.6109 40.1442C37.649 40.189 37.6915 40.231 37.7397 40.2685L39.1694 41.3694C39.1766 41.375 39.1845 41.3762 39.1918 41.3812C39.259 41.4299 39.3312 41.4714 39.4124 41.4988C39.418 41.5005 39.4236 41.501 39.4281 41.5027C39.4751 41.5173 39.5227 41.5302 39.5731 41.5369L41.3534 41.7693C41.3898 41.7743 41.4267 41.7766 41.462 41.7766H41.4626C41.4631 41.7766 41.4631 41.7766 41.4631 41.7766H41.4637C41.5566 41.7766 41.6507 41.7581 41.7426 41.725C41.751 41.7222 41.7594 41.7206 41.7678 41.7172C41.7717 41.7161 41.7756 41.7155 41.7795 41.7138L43.4444 41.0351C43.4534 41.0318 43.4601 41.0256 43.469 41.0222C43.492 41.0122 43.5133 40.9993 43.5357 40.9875C43.5682 40.9696 43.5984 40.9506 43.6275 40.9293C43.646 40.9153 43.6634 40.9002 43.6813 40.885C43.7126 40.8576 43.7406 40.8279 43.767 40.7971C43.7759 40.7865 43.786 40.7798 43.7944 40.7686L44.8881 39.3372C44.9088 39.3103 44.9234 39.2806 44.9402 39.2526C44.9474 39.2409 44.9553 39.2302 44.962 39.2179C45.0051 39.1362 45.0326 39.0494 45.0466 38.9614C45.0477 38.9536 45.0522 38.9486 45.0533 38.9407L45.2958 37.1633C45.298 37.1465 45.2963 37.1302 45.2974 37.1134C45.2997 37.0838 45.3019 37.0546 45.3008 37.0244C45.2997 36.997 45.2969 36.9701 45.293 36.9432C45.2896 36.9158 45.2857 36.8894 45.2801 36.862C45.2734 36.8329 45.2644 36.8049 45.2543 36.7774C45.2487 36.7618 45.2465 36.745 45.2403 36.7293L44.5521 35.0616C44.5459 35.047 44.537 35.0347 44.5297 35.0207C44.5168 34.9927 44.5028 34.9653 44.4866 34.939C44.4726 34.916 44.4569 34.8953 44.4412 34.8746C44.4244 34.8527 44.407 34.8309 44.3874 34.8107C44.3673 34.7889 44.3454 34.7693 44.323 34.7497C44.3107 34.739 44.3006 34.7267 44.2878 34.7161L42.8659 33.623C42.8536 33.6129 42.839 33.6073 42.8262 33.5983C42.8015 33.5815 42.7758 33.5647 42.7489 33.5507C42.7248 33.5378 42.7007 33.5272 42.6761 33.5166C42.6509 33.5059 42.6257 33.4964 42.5994 33.488C42.5697 33.479 42.5411 33.4729 42.5109 33.4673C42.4958 33.4639 42.4818 33.4583 42.4661 33.4561L40.6791 33.2153C40.6634 33.213 40.6483 33.2147 40.6326 33.2136C40.6035 33.2108 40.5744 33.2091 40.5458 33.2097C40.51 33.2102 40.4747 33.2147 40.44 33.2198C40.4249 33.222 40.4086 33.2242 40.3935 33.2276C40.3487 33.2371 40.3056 33.25 40.263 33.2668C40.2574 33.269 40.2513 33.2696 40.2462 33.2718L40.2065 33.2881C40.2014 33.2903 40.1964 33.292 40.1919 33.2942L38.8496 33.8503C38.8496 33.8498 38.8496 33.8498 38.8502 33.8492C38.8608 33.8374 38.8737 33.8296 38.8838 33.8167L50.165 20.067C50.1689 20.062 50.1717 20.0564 50.1756 20.0514C50.1801 20.0458 50.1862 20.0418 50.1902 20.0362L53.6896 15.3311C53.7098 15.3037 53.7243 15.2734 53.7411 15.2449C53.7467 15.2359 53.7534 15.2298 53.7585 15.2208L54.0883 14.5942C54.1253 14.5242 54.1471 14.4508 54.1634 14.3769C54.165 14.369 54.1695 14.364 54.1712 14.3562L54.2994 13.6623C54.3022 13.6478 54.3011 13.6332 54.3034 13.6186C54.3073 13.589 54.3101 13.5598 54.3106 13.529C54.3095 13.4999 54.3078 13.4719 54.3056 13.4422ZM48.8434 19.0288L37.6081 32.723L31.0768 39.4565C31.074 39.4593 31.0734 39.4632 31.0706 39.466C31.0639 39.4733 31.0561 39.4778 31.0494 39.4856L24.5102 46.8972C24.5024 46.9062 24.4979 46.9162 24.4901 46.9252C24.4828 46.9342 24.475 46.9403 24.4682 46.9493L19.2166 53.9566L23.0688 48.454C23.0705 48.4512 23.0716 48.4484 23.0738 48.4456C23.075 48.4434 23.0772 48.4422 23.0783 48.44L28.6089 40.2007C28.6162 40.1901 28.6201 40.1794 28.6257 40.1688C28.6307 40.161 28.6374 40.1559 28.6414 40.1481L32.7848 32.8686L37.4866 25.1966L40.3812 20.8583L47.454 11.3551C47.4546 11.3546 47.4546 11.3546 47.4546 11.3546L47.8746 10.8119L48.3427 10.5202L48.8753 10.397L49.4196 10.467L49.9751 10.7464L52.0337 12.2797L52.3753 12.6437L52.5612 13.0463L52.6211 13.4893L52.5399 13.9255L52.3019 14.3786L48.8434 19.0288ZM40.6797 34.9115L42.0198 35.0918L43.0854 35.9117L43.6012 37.161L43.4198 38.4938L42.5994 39.5674L41.3522 40.0753L40.0161 39.9011L38.9448 39.0757L38.4346 37.8319L38.6116 36.4907L39.4354 35.4256L40.6797 34.9115ZM16.4468 59.4457L15.8896 59.1528L15.3934 58.7714L14.9852 58.3038L14.7791 57.9443C14.806 57.941 14.8329 57.9382 14.8598 57.9326C14.8889 57.9258 14.9163 57.9174 14.9438 57.9079C14.96 57.9023 14.9774 57.8995 14.9936 57.8934L15.562 57.6649C15.5822 57.6565 15.599 57.6447 15.6186 57.6352C15.6303 57.629 15.6438 57.6268 15.6555 57.6206L16.1937 57.3227C16.2077 57.3143 16.22 57.3037 16.2334 57.2953C16.2413 57.2902 16.2491 57.2886 16.257 57.2835L16.7638 56.9414C16.7839 56.9279 16.8002 56.91 16.8192 56.8954C16.8259 56.8898 16.8338 56.8882 16.8405 56.8831L17.3114 56.4794C17.3238 56.4682 17.3333 56.4553 17.345 56.4446C17.3557 56.4346 17.3674 56.4273 17.3775 56.4166L17.4559 56.3338L17.2006 56.77C17.1882 56.7918 17.1804 56.8154 17.1692 56.8378C17.1586 56.8607 17.1451 56.882 17.1362 56.9061L16.9267 57.4801C16.9178 57.5036 16.915 57.5271 16.9088 57.5506C16.9026 57.573 16.8942 57.5943 16.8898 57.6173L16.7822 58.2103C16.7783 58.2322 16.7794 58.2534 16.7772 58.2747C16.7744 58.301 16.7682 58.3257 16.7682 58.3526L16.7621 58.9618C16.7615 58.9938 16.7677 59.024 16.771 59.0554C16.7733 59.0766 16.7722 59.0979 16.7761 59.1198L16.7778 59.1282C16.7778 59.1298 16.7783 59.1321 16.7789 59.1338L16.8567 59.5633L16.4468 59.4457Z" fill="black"/>
</svg>
