<svg width="68" height="68" viewBox="0 0 68 68" fill="none" xmlns="http://www.w3.org/2000/svg">
<path fill-rule="evenodd" clip-rule="evenodd" d="M49.86 28.2941L53.934 42.4061C53.976 42.5321 53.976 42.6161 53.976 42.7421V52.7801C53.976 53.4101 53.472 53.9141 52.842 53.9141H16.134C15.504 53.9141 15 53.4101 15 52.7801V42.7421C15 42.6161 15 42.4901 15.042 42.4061L19.116 28.2521C19.242 27.7481 19.704 27.4121 20.208 27.4121H29.154L35.034 14.6441C35.286 14.0981 35.958 13.8461 36.546 14.0981L46.962 18.9281C47.214 19.0541 47.466 19.2641 47.55 19.5581C47.634 19.8521 47.634 20.1461 47.508 20.4401L44.274 27.4541H48.768C49.272 27.4541 49.734 27.7901 49.86 28.2941ZM44.946 20.4821L36.63 16.6601L29.616 31.8641L35.328 34.5101H38.478L44.946 20.4821ZM28.104 29.7221H21.09L17.646 41.5661H51.33L47.928 29.7221H43.224L40.998 34.5101H44.862C45.492 34.5101 45.996 35.0141 45.996 35.6441C45.996 36.2741 45.492 36.7781 44.862 36.7781H24.114C23.484 36.7781 22.98 36.2741 22.98 35.6441C22.98 35.0141 23.484 34.5101 24.114 34.5101H29.91L27.642 33.4601C27.39 33.3341 27.138 33.1241 27.054 32.8301C26.97 32.5361 26.97 32.2421 27.096 31.9481L28.104 29.7221ZM17.268 43.8761V51.6461H51.708V43.8761H17.268ZM36.5207 29.6522L42.2134 23.6522L40.7626 22.2756L35.8341 27.47L34.2482 25.6142L32.7278 26.9135L35.0351 29.6135L35.7564 30.4577L36.5207 29.6522Z" fill="black"/>
</svg>
