<svg width="68" height="68" viewBox="0 0 68 68" fill="none" xmlns="http://www.w3.org/2000/svg">
<path fill-rule="evenodd" clip-rule="evenodd" d="M8.24995 18.25H59.75V50.75H8.24995V19.5123L6.77869 18.5988H8.24995V18.25ZM8.99995 19V50H59V19H8.99995ZM12.448 19.3488H9.40865L17.7151 24.5058H15.6716L9.30504 20.6221V21.4651L14.3937 24.5058H9.30504V25.1163H19.9256V19.3488H18.5613V22.9942L12.448 19.3488ZM19.1756 24.2337L12.2414 20.0988H12.0386L18.9123 24.3663H19.1756V24.2337ZM34.2647 21.5174V19.3488H34.1726L25.7971 24.5581H24.9854V23.75L32.1234 19.3488H31.1505L24.9739 23.0233V19.3488H23.6384V25.1512H34.2647V24.5698H29.1531L34.2647 21.5174ZM27.9725 24.4012H27.4695L33.5147 20.6413V21.0918L27.9725 24.4012ZM9.30504 28.7616V29.343H14.3937L9.30504 32.3837V34.593L17.7497 29.3605H18.5613V30.1686L11.3313 34.6279H12.2984L18.5613 30.8953V34.6279H19.9256V28.7616H9.30504ZM15.5737 29.5116H16.0818L10.055 33.246V32.8093L15.5737 29.5116ZM23.1261 44.5116L22.4872 41.8837L25.1869 41.9186L22.7923 40.7907L24.4674 38.7209L22.0957 39.8837L21.5201 37.2674L20.9445 39.8837L18.5728 38.7209L20.2767 40.7907L17.8821 41.9186L20.4955 41.8837L19.8738 44.4826L21.5028 42.3721L23.1261 44.5116ZM21.4167 41.2562L21.508 41.138L21.5463 41.1886L21.5299 41.1213L21.7398 41.124L21.6079 41.0619L21.7471 40.89L21.5685 40.9775L21.5201 40.7577L21.4717 40.9775L21.3548 40.9202L21.4685 41.0584L21.3324 41.1225L21.4491 41.1209L21.4167 41.2562ZM34.2647 29.3953V28.7616H23.6384V34.6279H25.0142V30.8953L31.2714 34.593H34.2647L25.8662 29.3605H27.9327L34.2647 33.2442V32.4302L29.1819 29.3953H34.2647ZM24.6905 29.5116L31.6426 33.843H31.4765L24.3884 29.6544V29.5116H24.6905ZM40.994 34.9826L40.2169 33.9767L39.4455 34.9826L39.7563 33.7442H38.4899L39.6412 33.2093L38.8353 32.2209L39.9866 32.8023L40.2169 31.5581L40.4874 32.8023L41.6387 32.2209L40.8385 33.2093L41.9898 33.7442H40.7292L40.994 34.9826ZM44.9889 25.1628L45.8696 26.2442L44.6147 26.8256H45.9963L45.6739 28.186L46.5201 27.0814L47.372 28.186L47.0439 26.8256H48.4312L47.1763 26.2442L48.0513 25.1628L46.8137 25.7849L46.5201 24.4186L46.2323 25.7849L44.9889 25.1628ZM47.2051 44.7151L46.428 43.7093L45.6509 44.7151L45.9502 43.4767H44.6838L45.8351 42.9419L45.0349 41.9535L46.1862 42.5349L46.451 41.2907L46.7158 42.5349L47.8671 41.9535L47.067 42.9419L48.2182 43.4767H46.9518L47.2051 44.7151ZM48.46 36.5756L49.0356 36.2035L49.6113 36.5756L49.4271 35.9128L49.9509 35.4767L49.2717 35.4419L49.0299 34.8023L48.7881 35.4419L48.1089 35.4767L48.6327 35.9128L48.46 36.5756ZM52.8924 33.1628L52.1153 32.1512L51.3439 33.1628L51.6375 31.9186H50.3769L51.5282 31.3779L50.728 30.3895L51.8793 30.9709L52.1441 29.7209L52.3859 30.9767L53.5371 30.3953L52.737 31.3837L53.8883 31.9244H52.6276L52.8924 33.1628Z" fill="black"/>
</svg>
