<svg width="68" height="68" viewBox="0 0 68 68" fill="none" xmlns="http://www.w3.org/2000/svg">
<path fill-rule="evenodd" clip-rule="evenodd" d="M27.0865 54.2677C26.9226 54.3456 26.745 54.3908 26.5638 54.4001C26.5159 54.4027 26.4679 54.4027 26.42 54.4001H15.38C15.014 54.4001 14.663 54.2548 14.4042 53.996C14.1454 53.7372 14 53.3861 14 53.0202V14.38C14.0001 14.0141 14.1454 13.6632 14.4042 13.4044C14.663 13.1457 15.014 13.0001 15.38 13.0001H26.42C26.6029 12.9975 26.7844 13.0314 26.9541 13.0995C27.1238 13.1676 27.2783 13.2689 27.4085 13.3974C27.5387 13.5258 27.6422 13.6789 27.7127 13.8476C27.7833 14.0163 27.8197 14.1972 27.8197 14.38C27.8197 14.5629 27.7833 14.744 27.7127 14.9127C27.6422 15.0814 27.5387 15.2345 27.4085 15.3629C27.2783 15.4914 27.1238 15.5924 26.9541 15.6608C26.7844 15.7289 26.6029 15.7626 26.42 15.7602H16.76V51.64H26.42C26.6013 51.6308 26.7826 51.6569 26.9536 51.7177C27.1247 51.7782 27.2822 51.872 27.417 51.9933C27.5518 52.1149 27.6615 52.2616 27.7395 52.4254C27.8176 52.5895 27.8627 52.767 27.8721 52.9481C27.8816 53.1295 27.8552 53.3107 27.7946 53.4818C27.7339 53.653 27.6402 53.8105 27.5187 53.9452C27.3972 54.08 27.2503 54.1896 27.0865 54.2677ZM38.384 22.162C38.1112 22.175 37.8483 22.2685 37.6287 22.4308C37.409 22.5932 37.2425 22.817 37.1501 23.0741C37.0578 23.3312 37.0438 23.6098 37.1099 23.8747C37.176 24.1398 37.3192 24.3793 37.5215 24.5626L45.9452 32.2965H24.6559C24.608 32.2941 24.56 32.2941 24.5121 32.2965C23.7895 32.3339 23.1664 33.0258 23.204 33.7484C23.2416 34.4711 23.9332 35.0941 24.6559 35.0565H45.9452L37.5215 42.7758C37.3779 42.8957 37.2602 43.0434 37.1754 43.2101C37.0906 43.3769 37.0406 43.559 37.0284 43.7455C37.0162 43.932 37.0421 44.1193 37.1044 44.2956C37.1667 44.4718 37.2642 44.6337 37.3909 44.7711C37.5177 44.9086 37.6711 45.0189 37.8417 45.0954C38.0124 45.1718 38.1968 45.2126 38.3838 45.2155C38.5708 45.2187 38.7564 45.1835 38.9294 45.1125C39.1024 45.0414 39.2592 44.9362 39.3902 44.8026L50.4302 34.6828C50.57 34.5536 50.6815 34.3969 50.7578 34.2223C50.8341 34.048 50.8735 33.8598 50.8735 33.6693C50.8735 33.4789 50.8341 33.2907 50.7578 33.1161C50.6815 32.9418 50.57 32.7851 50.4302 32.6559L39.3902 22.5358C39.3339 22.4828 39.2733 22.4347 39.2091 22.392C39.1205 22.3332 39.0252 22.2846 38.9249 22.2472C38.7521 22.183 38.5682 22.154 38.384 22.162Z" fill="black"/>
</svg>
