<svg width="68" height="68" viewBox="0 0 68 68" fill="none" xmlns="http://www.w3.org/2000/svg">
<path d="M34.5424 26.0894L34.5423 26.0894C34.7282 26.093 34.9056 26.1672 35.0387 26.2962C35.172 26.4253 35.2515 26.6001 35.261 26.7855L35.2616 26.7983H35.2613V29.7618L48.2268 32.806C48.9405 32.2334 49.7943 31.8633 50.6988 31.7332V27.333V27.083H50.9488H58.5001H58.7501V27.333V35.8242V35.935L58.6679 36.0095L56.3776 38.0853C56.1608 38.9146 55.7388 39.6766 55.15 40.3008C54.5435 40.9437 53.7808 41.4186 52.9361 41.679C52.0914 41.9393 51.1937 41.9763 50.3305 41.7863C49.4988 41.6033 48.7266 41.2157 48.0833 40.6592H18.0576C17.1283 41.4654 15.9385 41.9104 14.7061 41.9104C13.4736 41.9104 12.2838 41.4654 11.3545 40.6592H4.67431C4.37044 40.6592 4.07461 40.5619 3.83001 40.3819C3.58537 40.2018 3.40467 39.9483 3.31436 39.6582C3.22407 39.3682 3.22889 39.0568 3.32812 38.7697C3.42732 38.4827 3.61568 38.2347 3.86576 38.0623L34.5424 26.0894ZM34.5424 26.0894L34.5374 26.0894C34.5127 26.0894 34.4889 26.0907 34.4661 26.093M34.5424 26.0894L3.86591 38.0622L11.8004 32.5838L11.8004 32.5838C12.7963 31.8967 14.0035 31.5848 15.2076 31.7037C16.358 31.8173 17.4344 32.3171 18.2626 33.1191L22.9429 31.4674C22.9429 31.4674 22.9429 31.4674 22.9429 31.4674C23.11 31.4082 23.2904 31.3974 23.4633 31.4362C23.6363 31.475 23.7948 31.562 23.9204 31.6869L23.921 31.6875L25.3711 33.1376H30.5264H30.5265C30.7166 33.1377 30.9036 33.09 31.0702 32.9988C31.2368 32.9076 31.3778 32.7759 31.4802 32.6158C31.4803 32.6158 31.4803 32.6157 31.4803 32.6157L32.9353 30.3357L32.9356 30.3353C33.0545 30.1497 33.2099 29.9901 33.3923 29.8662C33.5168 29.7816 33.6522 29.7148 33.7944 29.6675V26.7983V26.785L33.7948 26.785C33.8042 26.6075 33.8777 26.4395 34.0017 26.3122C34.1251 26.1854 34.2901 26.1077 34.4661 26.093M34.4661 26.093C34.4671 26.0929 34.468 26.0928 34.4689 26.0927L34.4888 26.342L34.4634 26.0932C34.4643 26.0932 34.4652 26.0931 34.4661 26.093ZM24.6953 34.5315L24.7685 34.6045H24.8718H30.531C30.531 34.6045 30.531 34.6045 30.5311 34.6045C30.9675 34.6046 31.397 34.4949 31.7799 34.2853C32.1628 34.0756 32.4867 33.773 32.7217 33.4052L32.7218 33.405L34.2379 31.0276L47.1129 34.0529C46.6237 34.8238 46.3485 35.7139 46.3194 36.631C46.2911 37.5237 46.4971 38.4055 46.9133 39.1899H19.2229C19.6082 38.4658 19.8147 37.6575 19.822 36.8329C19.8297 35.962 19.6149 35.1052 19.2002 34.3431L23.1197 32.9604L24.6953 34.5315ZM18.3524 36.7932V36.7935C18.3523 37.7608 17.9679 38.6884 17.2838 39.3724C16.5998 40.0563 15.6721 40.4405 14.7047 40.4405C13.7374 40.4405 12.8097 40.0563 12.1256 39.3724C11.4416 38.6884 11.0572 37.7608 11.0571 36.7935V36.7932C11.0558 35.8421 11.426 34.9281 12.0889 34.2461C12.7517 33.5641 13.6547 33.1679 14.6054 33.142L14.5986 32.8921L14.6054 33.142C15.093 33.1287 15.5783 33.2134 16.0326 33.3909C16.4869 33.5685 16.901 33.8354 17.2504 34.1758C17.5998 34.5162 17.8773 34.9232 18.0666 35.3728C18.2559 35.8223 18.3531 36.3054 18.3524 36.7932ZM55.0786 36.7932V36.7935C55.0786 37.761 54.6942 38.6888 54.0102 39.3728C53.3261 40.0569 52.3983 40.4412 51.4308 40.4412C50.4634 40.4412 49.5355 40.0569 48.8515 39.3728C48.1674 38.6888 47.7831 37.761 47.7831 36.7935V36.7932C47.7818 35.8425 48.1517 34.9289 48.8141 34.2469C49.4764 33.5649 50.3788 33.1684 51.3291 33.142L51.3222 32.8921L51.3292 33.142C51.8169 33.1284 52.3025 33.2128 52.7571 33.3903C53.2118 33.5677 53.6261 33.8344 53.9757 34.1749C54.3253 34.5153 54.6031 34.9225 54.7925 35.3722C54.9819 35.822 55.0792 36.3052 55.0786 36.7932ZM52.1654 28.5523H57.2831V35.2839L56.4847 36.0087C56.3245 34.9789 55.8526 34.0181 55.1266 33.2592C54.336 32.4328 53.2929 31.897 52.1654 31.7335V28.5523ZM4.8143 39.1899L9.68158 35.8294C9.5806 36.3563 9.56286 36.8972 9.63037 37.4322C9.70808 38.0482 9.89714 38.6437 10.1871 39.1899H4.8143Z" fill="black" stroke="black" stroke-width="0.5"/>
</svg>
