<svg width="68" height="68" viewBox="0 0 68 68" fill="none" xmlns="http://www.w3.org/2000/svg">
<mask id="path-1-outside-1" maskUnits="userSpaceOnUse" x="6.99978" y="13.2695" width="56" height="39" fill="black">
<rect fill="white" x="6.99978" y="13.2695" width="56" height="39"/>
<path fill-rule="evenodd" clip-rule="evenodd" d="M35.6479 49.4701L39.8121 51.6103C40.3471 51.881 41.0047 51.6941 41.2818 51.1591L41.9909 49.6313L43.119 50.1406C43.6927 50.392 44.3502 50.1019 44.5759 49.5411L46.297 45.2285C46.5162 44.6806 46.2583 44.036 45.704 43.8168L44.8337 43.5074L45.4783 42.1215C45.4935 42.0889 45.5065 42.0584 45.5185 42.0304C45.5727 41.9035 45.6048 41.8284 45.7104 41.8443C49.3719 42.476 51.2735 41.8185 53.9938 40.2907C59.8599 36.9967 63.1539 29.6996 61.6261 23.2018C59.9308 16.0014 52.9624 12.4173 46.1165 15.2278C39.941 17.7612 35.925 24.678 36.6535 31.3692C36.9951 34.4698 37.5817 36.4166 40.2053 39.0144C40.2836 39.0874 40.2436 39.1563 40.1742 39.2756C40.1579 39.3037 40.1399 39.3346 40.1215 39.3689L38.9483 41.4253L36.3118 40.4906C36.2776 40.4783 36.2454 40.4682 36.2158 40.4589C36.0895 40.419 36.0101 40.394 36.0153 40.2843C36.4859 34.0508 32.4247 28.9647 26.5974 26.6376C20.1189 24.0463 11.5841 25.7481 8.79289 32.7358C5.99523 39.7235 11.0039 46.8401 17.4824 49.4315C23.3098 51.7586 29.756 50.8754 33.7204 46.0343C33.7841 45.9516 33.8351 45.9756 33.9418 46.0259L33.946 46.0279L35.8606 46.8852L35.2288 47.994C34.9259 48.5226 35.1515 49.1994 35.6479 49.4701ZM38.2328 42.6887L36.5632 45.6347L34.6616 44.7837C34.6062 44.759 34.5527 44.7347 34.501 44.7112C33.7585 44.3735 33.371 44.1973 32.6117 45.1254C31.8059 46.1117 30.8132 46.9303 29.6915 47.575L34.1588 36.3908C34.5327 37.6349 34.6809 38.9112 34.5907 40.1811C34.5007 41.3827 34.8847 41.5147 35.7043 41.7964L35.7123 41.7991L38.2328 42.6887ZM42.5904 48.3356L44.2278 44.8095L44.8402 45.0223L43.3769 48.6837L42.5904 48.3356ZM26.0688 27.9591C29.3177 29.2612 31.9284 31.5948 33.3852 34.4698L27.8028 48.4323C18.3978 51.765 6.31109 42.7919 10.1144 33.2643C12.6091 27.0309 20.3316 25.6707 26.0688 27.9591ZM51.7441 39.7815L38.3746 32.9034C36.7502 26.4056 40.5212 19.0633 46.6644 16.5428C52.6917 14.0675 58.7382 17.181 60.2337 23.5241C61.755 29.9897 57.9776 37.3255 51.7441 39.7815ZM39.0515 34.8566L49.7586 40.3681C48.4887 40.6195 47.1995 40.6517 45.9489 40.439C44.7617 40.2341 44.5886 40.6151 44.2498 41.3609C44.2262 41.4128 44.2018 41.4665 44.1762 41.522L40.1602 50.1857L36.6535 48.3807L41.3592 40.0716C41.3854 40.026 41.411 39.982 41.4358 39.9392C41.8583 39.2118 42.0693 38.8485 41.2109 38.0023C40.3085 37.1063 39.5865 36.0427 39.0515 34.8566ZM35.0225 23.5949C35.0225 21.9641 33.7011 20.6426 32.0637 20.6426C30.4328 20.6426 29.1114 21.9641 29.1114 23.5949C29.1114 25.2258 30.4328 26.5473 32.0637 26.5473C33.7011 26.5473 35.0225 25.2258 35.0225 23.5949ZM30.1879 23.5949C30.1879 21.9254 32.2184 21.0809 33.3981 22.267C34.133 23.0019 34.133 24.188 33.3981 24.9229C32.2184 26.1025 30.1879 25.2645 30.1879 23.5949Z"/>
</mask>
<path fill-rule="evenodd" clip-rule="evenodd" d="M35.6479 49.4701L39.8121 51.6103C40.3471 51.881 41.0047 51.6941 41.2818 51.1591L41.9909 49.6313L43.119 50.1406C43.6927 50.392 44.3502 50.1019 44.5759 49.5411L46.297 45.2285C46.5162 44.6806 46.2583 44.036 45.704 43.8168L44.8337 43.5074L45.4783 42.1215C45.4935 42.0889 45.5065 42.0584 45.5185 42.0304C45.5727 41.9035 45.6048 41.8284 45.7104 41.8443C49.3719 42.476 51.2735 41.8185 53.9938 40.2907C59.8599 36.9967 63.1539 29.6996 61.6261 23.2018C59.9308 16.0014 52.9624 12.4173 46.1165 15.2278C39.941 17.7612 35.925 24.678 36.6535 31.3692C36.9951 34.4698 37.5817 36.4166 40.2053 39.0144C40.2836 39.0874 40.2436 39.1563 40.1742 39.2756C40.1579 39.3037 40.1399 39.3346 40.1215 39.3689L38.9483 41.4253L36.3118 40.4906C36.2776 40.4783 36.2454 40.4682 36.2158 40.4589C36.0895 40.419 36.0101 40.394 36.0153 40.2843C36.4859 34.0508 32.4247 28.9647 26.5974 26.6376C20.1189 24.0463 11.5841 25.7481 8.79289 32.7358C5.99523 39.7235 11.0039 46.8401 17.4824 49.4315C23.3098 51.7586 29.756 50.8754 33.7204 46.0343C33.7841 45.9516 33.8351 45.9756 33.9418 46.0259L33.946 46.0279L35.8606 46.8852L35.2288 47.994C34.9259 48.5226 35.1515 49.1994 35.6479 49.4701ZM38.2328 42.6887L36.5632 45.6347L34.6616 44.7837C34.6062 44.759 34.5527 44.7347 34.501 44.7112C33.7585 44.3735 33.371 44.1973 32.6117 45.1254C31.8059 46.1117 30.8132 46.9303 29.6915 47.575L34.1588 36.3908C34.5327 37.6349 34.6809 38.9112 34.5907 40.1811C34.5007 41.3827 34.8847 41.5147 35.7043 41.7964L35.7123 41.7991L38.2328 42.6887ZM42.5904 48.3356L44.2278 44.8095L44.8402 45.0223L43.3769 48.6837L42.5904 48.3356ZM26.0688 27.9591C29.3177 29.2612 31.9284 31.5948 33.3852 34.4698L27.8028 48.4323C18.3978 51.765 6.31109 42.7919 10.1144 33.2643C12.6091 27.0309 20.3316 25.6707 26.0688 27.9591ZM51.7441 39.7815L38.3746 32.9034C36.7502 26.4056 40.5212 19.0633 46.6644 16.5428C52.6917 14.0675 58.7382 17.181 60.2337 23.5241C61.755 29.9897 57.9776 37.3255 51.7441 39.7815ZM39.0515 34.8566L49.7586 40.3681C48.4887 40.6195 47.1995 40.6517 45.9489 40.439C44.7617 40.2341 44.5886 40.6151 44.2498 41.3609C44.2262 41.4128 44.2018 41.4665 44.1762 41.522L40.1602 50.1857L36.6535 48.3807L41.3592 40.0716C41.3854 40.026 41.411 39.982 41.4358 39.9392C41.8583 39.2118 42.0693 38.8485 41.2109 38.0023C40.3085 37.1063 39.5865 36.0427 39.0515 34.8566ZM35.0225 23.5949C35.0225 21.9641 33.7011 20.6426 32.0637 20.6426C30.4328 20.6426 29.1114 21.9641 29.1114 23.5949C29.1114 25.2258 30.4328 26.5473 32.0637 26.5473C33.7011 26.5473 35.0225 25.2258 35.0225 23.5949ZM30.1879 23.5949C30.1879 21.9254 32.2184 21.0809 33.3981 22.267C34.133 23.0019 34.133 24.188 33.3981 24.9229C32.2184 26.1025 30.1879 25.2645 30.1879 23.5949Z" fill="black"/>
<path d="M39.8121 51.6103L39.675 51.8771L39.6767 51.878L39.8121 51.6103ZM35.6479 49.4701L35.5042 49.7336L35.5107 49.737L35.6479 49.4701ZM41.2818 51.1591L41.5485 51.2972L41.554 51.2854L41.2818 51.1591ZM41.9909 49.6313L42.1144 49.3579L41.8438 49.2357L41.7188 49.505L41.9909 49.6313ZM43.119 50.1406L42.9956 50.414L42.9986 50.4153L43.119 50.1406ZM44.5759 49.5411L44.8542 49.653L44.8545 49.6523L44.5759 49.5411ZM46.297 45.2285L46.0185 45.1171L46.0184 45.1173L46.297 45.2285ZM45.704 43.8168L45.8143 43.5377L45.8045 43.5342L45.704 43.8168ZM44.8337 43.5074L44.5617 43.3809L44.4227 43.6797L44.7332 43.7901L44.8337 43.5074ZM45.4783 42.1215L45.7504 42.248L45.7504 42.2478L45.4783 42.1215ZM45.5185 42.0304L45.7943 42.1483L45.7943 42.1483L45.5185 42.0304ZM45.7104 41.8443L45.7614 41.5486L45.7549 41.5476L45.7104 41.8443ZM53.9938 40.2907L53.8469 40.0292L53.8469 40.0292L53.9938 40.2907ZM61.6261 23.2018L61.9182 23.1331L61.9181 23.133L61.6261 23.2018ZM46.1165 15.2278L46.2304 15.5054L46.2305 15.5053L46.1165 15.2278ZM36.6535 31.3692L36.3552 31.4016L36.3553 31.402L36.6535 31.3692ZM40.2053 39.0144L39.9942 39.2276L40.0006 39.2337L40.2053 39.0144ZM40.1742 39.2756L40.4335 39.4264L40.4336 39.4264L40.1742 39.2756ZM40.1215 39.3689L40.3822 39.5176L40.386 39.5106L40.1215 39.3689ZM38.9483 41.4253L38.8481 41.708L39.0846 41.7919L39.2089 41.5739L38.9483 41.4253ZM36.3118 40.4906L36.2109 40.7731L36.2116 40.7733L36.3118 40.4906ZM36.2158 40.4589L36.3061 40.1727L36.306 40.1727L36.2158 40.4589ZM36.0153 40.2843L35.716 40.2617L35.7156 40.27L36.0153 40.2843ZM26.5974 26.6376L26.4859 26.9162L26.4861 26.9162L26.5974 26.6376ZM8.79289 32.7358L9.07139 32.8473L9.07148 32.847L8.79289 32.7358ZM17.4824 49.4315L17.371 49.71L17.3711 49.7101L17.4824 49.4315ZM33.7204 46.0343L33.9526 46.2245L33.9582 46.2172L33.7204 46.0343ZM33.9418 46.0259L33.814 46.2973L33.8141 46.2973L33.9418 46.0259ZM33.946 46.0279L33.8183 46.2994L33.8234 46.3017L33.946 46.0279ZM35.8606 46.8852L36.1212 47.0337L36.2849 46.7465L35.9832 46.6114L35.8606 46.8852ZM35.2288 47.994L35.4891 48.1431L35.4895 48.1425L35.2288 47.994ZM36.5632 45.6347L36.4407 45.9085L36.6897 46.0199L36.8242 45.7826L36.5632 45.6347ZM38.2328 42.6887L38.4938 42.8366L38.6704 42.525L38.3326 42.4058L38.2328 42.6887ZM34.6616 44.7837L34.7841 44.5099L34.784 44.5099L34.6616 44.7837ZM34.501 44.7112L34.6252 44.4381L34.6252 44.4381L34.501 44.7112ZM32.6117 45.1254L32.3795 44.9354L32.3794 44.9356L32.6117 45.1254ZM29.6915 47.575L29.4129 47.4637L29.0929 48.265L29.841 47.8351L29.6915 47.575ZM34.1588 36.3908L34.4461 36.3044L34.1988 35.4817L33.8802 36.2795L34.1588 36.3908ZM34.5907 40.1811L34.8898 40.2035L34.8899 40.2024L34.5907 40.1811ZM35.7043 41.7964L35.8018 41.5127L35.8018 41.5127L35.7043 41.7964ZM35.7123 41.7991L35.8122 41.5162L35.8099 41.5154L35.7123 41.7991ZM44.2278 44.8095L44.3262 44.5261L44.0699 44.4371L43.9557 44.6832L44.2278 44.8095ZM42.5904 48.3356L42.3183 48.2093L42.1897 48.4863L42.469 48.6099L42.5904 48.3356ZM44.8402 45.0223L45.1187 45.1336L45.2353 44.8419L44.9386 44.7389L44.8402 45.0223ZM43.3769 48.6837L43.2554 48.958L43.54 49.084L43.6554 48.795L43.3769 48.6837ZM33.3852 34.4698L33.6638 34.5812L33.7141 34.4552L33.6528 34.3342L33.3852 34.4698ZM26.0688 27.9591L26.1804 27.6806L26.1799 27.6805L26.0688 27.9591ZM27.8028 48.4323L27.903 48.7151L28.031 48.6697L28.0814 48.5437L27.8028 48.4323ZM10.1144 33.2643L9.83584 33.1529L9.83574 33.1531L10.1144 33.2643ZM38.3746 32.9034L38.0836 32.9761L38.1165 33.108L38.2374 33.1701L38.3746 32.9034ZM51.7441 39.7815L51.6068 40.0482L51.7276 40.1104L51.854 40.0606L51.7441 39.7815ZM46.6644 16.5428L46.7783 16.8204L46.7784 16.8204L46.6644 16.5428ZM60.2337 23.5241L60.5258 23.4554L60.5257 23.4553L60.2337 23.5241ZM49.7586 40.3681L49.8169 40.6624L50.6611 40.4952L49.8959 40.1014L49.7586 40.3681ZM39.0515 34.8566L39.1888 34.5898L38.4246 34.1965L38.778 34.9799L39.0515 34.8566ZM45.9489 40.439L45.8979 40.7346L45.8986 40.7347L45.9489 40.439ZM44.2498 41.3609L44.523 41.485L44.523 41.4849L44.2498 41.3609ZM44.1762 41.522L44.4484 41.6481L44.4485 41.6478L44.1762 41.522ZM40.1602 50.1857L40.0229 50.4524L40.3009 50.5955L40.4324 50.3118L40.1602 50.1857ZM36.6535 48.3807L36.3924 48.2329L36.2386 48.5046L36.5162 48.6475L36.6535 48.3807ZM41.3592 40.0716L41.0991 39.9221L41.0982 39.9237L41.3592 40.0716ZM41.4358 39.9392L41.6953 40.0898L41.6953 40.0898L41.4358 39.9392ZM41.2109 38.0023L40.9996 38.2152L41.0003 38.216L41.2109 38.0023ZM33.3981 22.267L33.1854 22.4786L33.186 22.4792L33.3981 22.267ZM33.3981 24.9229L33.6102 25.135L33.6102 25.135L33.3981 24.9229ZM39.9492 51.3435L35.785 49.2033L35.5107 49.737L39.675 51.8771L39.9492 51.3435ZM41.0155 51.0211C40.8193 51.3997 40.3463 51.5444 39.9476 51.3426L39.6767 51.878C40.348 52.2177 41.19 51.9885 41.5482 51.2971L41.0155 51.0211ZM41.7188 49.505L41.0097 51.0328L41.554 51.2854L42.263 49.7576L41.7188 49.505ZM43.2425 49.8671L42.1144 49.3579L41.8675 49.9047L42.9956 50.414L43.2425 49.8671ZM44.2975 49.4291C44.1328 49.8385 43.6526 50.0468 43.2394 49.8658L42.9986 50.4153C43.7329 50.7371 44.5677 50.3652 44.8542 49.653L44.2975 49.4291ZM46.0184 45.1173L44.2972 49.4299L44.8545 49.6523L46.5756 45.3397L46.0184 45.1173ZM45.5937 44.0958C45.9859 44.2509 46.179 44.7157 46.0185 45.1171L46.5756 45.34C46.8533 44.6455 46.5308 43.8211 45.8143 43.5378L45.5937 44.0958ZM44.7332 43.7901L45.6035 44.0995L45.8045 43.5342L44.9342 43.2247L44.7332 43.7901ZM45.2063 41.9949L44.5617 43.3809L45.1057 43.6339L45.7504 42.248L45.2063 41.9949ZM45.2426 41.9125C45.2305 41.9408 45.2192 41.9673 45.2062 41.9951L45.7504 42.2478C45.7678 42.2104 45.7825 42.1759 45.7943 42.1483L45.2426 41.9125ZM45.7549 41.5476C45.6917 41.5381 45.6175 41.5391 45.5411 41.5668C45.4638 41.5949 45.4073 41.642 45.3675 41.6885C45.3024 41.7643 45.2623 41.8665 45.2426 41.9125L45.7943 42.1483C45.8089 42.1142 45.8174 42.0945 45.825 42.0794C45.8326 42.064 45.8322 42.0683 45.8229 42.0791C45.811 42.093 45.7857 42.1163 45.7458 42.1308C45.7069 42.1449 45.6763 42.1425 45.6659 42.141L45.7549 41.5476ZM53.8469 40.0292C52.4947 40.7885 51.3704 41.3173 50.1414 41.5841C48.9156 41.8502 47.5652 41.8599 45.7614 41.5486L45.6594 42.1399C47.517 42.4604 48.9482 42.4571 50.2687 42.1705C51.586 41.8845 52.7725 41.3207 54.1407 40.5523L53.8469 40.0292ZM61.3341 23.2705C62.8304 29.6347 59.5995 36.7988 53.8469 40.0292L54.1407 40.5523C60.1202 37.1946 63.4773 29.7645 61.9182 23.1331L61.3341 23.2705ZM46.2305 15.5053C52.9056 12.7649 59.6811 16.2498 61.3341 23.2706L61.9181 23.133C60.1805 15.7529 53.0192 12.0697 46.0026 14.9503L46.2305 15.5053ZM36.9517 31.3367C36.2373 24.7746 40.182 17.9866 46.2304 15.5054L46.0027 14.9503C39.7 17.5358 35.6127 24.5813 36.3552 31.4016L36.9517 31.3367ZM40.4164 38.8012C39.1242 37.5216 38.3474 36.4164 37.8491 35.2615C37.3496 34.1036 37.1214 32.877 36.9517 31.3363L36.3553 31.402C36.5272 32.962 36.7631 34.259 37.2982 35.4992C37.8345 36.7422 38.6629 37.9093 39.9942 39.2276L40.4164 38.8012ZM40.4336 39.4264C40.4582 39.384 40.5171 39.2896 40.5384 39.1909C40.5516 39.1296 40.5544 39.0545 40.528 38.9747C40.5021 38.8967 40.456 38.838 40.41 38.7951L40.0006 39.2337C39.9938 39.2273 39.9721 39.2046 39.9585 39.1638C39.9444 39.1212 39.9476 39.0845 39.9519 39.0644C39.9552 39.0488 39.959 39.0446 39.9514 39.0597C39.944 39.0745 39.9335 39.0928 39.9148 39.1248L40.4336 39.4264ZM40.386 39.5106C40.4016 39.4815 40.417 39.4548 40.4335 39.4264L39.9149 39.1248C39.8987 39.1526 39.8783 39.1877 39.8571 39.2273L40.386 39.5106ZM39.2089 41.5739L40.3821 39.5176L39.861 39.2203L38.6877 41.2766L39.2089 41.5739ZM36.2116 40.7733L38.8481 41.708L39.0486 41.1425L36.4121 40.2078L36.2116 40.7733ZM36.1256 40.745C36.1556 40.7544 36.1827 40.763 36.2109 40.7731L36.4127 40.208C36.3724 40.1937 36.3352 40.1819 36.3061 40.1727L36.1256 40.745ZM35.7156 40.27C35.7126 40.3343 35.7211 40.4077 35.7554 40.4803C35.7902 40.5541 35.8417 40.6061 35.892 40.642C35.9746 40.7009 36.0802 40.7307 36.1256 40.745L36.306 40.1727C36.2721 40.162 36.2529 40.1559 36.2381 40.1502C36.2233 40.1445 36.2283 40.1449 36.2404 40.1535C36.2557 40.1644 36.2805 40.1872 36.2979 40.2241C36.3149 40.26 36.3154 40.2891 36.3149 40.2986L35.7156 40.27ZM26.4861 26.9162C32.2235 29.2074 36.1745 34.19 35.7161 40.2617L36.3144 40.3069C36.7972 33.9116 32.6259 28.722 26.7086 26.359L26.4861 26.9162ZM9.07148 32.847C10.4276 29.452 13.1783 27.3355 16.3976 26.3822C19.622 25.4273 23.3061 25.6442 26.4859 26.9162L26.7088 26.3591C23.4102 25.0396 19.5876 24.8118 16.2272 25.8069C12.8617 26.8035 9.94938 29.0318 8.51429 32.6245L9.07148 32.847ZM17.5938 49.1529C14.4139 47.881 11.5961 45.4977 9.91914 42.5826C8.24488 39.6722 7.71212 36.2423 9.07139 32.8473L8.51438 32.6243C7.076 36.2169 7.64876 39.8392 9.39906 42.8818C11.1467 45.9198 14.0724 48.3906 17.371 49.71L17.5938 49.1529ZM33.4883 45.8442C29.6265 50.56 23.3312 51.4441 17.5937 49.1529L17.3711 49.7101C23.2884 52.073 29.8855 51.1908 33.9525 46.2244L33.4883 45.8442ZM34.0696 45.7544C34.0459 45.7433 34.0121 45.7272 33.9792 45.7145C33.9463 45.7018 33.8944 45.6843 33.8321 45.6807C33.7625 45.6767 33.6895 45.6907 33.6207 45.7291C33.5575 45.7643 33.5132 45.8117 33.4826 45.8514L33.9582 46.2172C33.9582 46.2173 33.9574 46.2183 33.9558 46.22C33.9543 46.2218 33.9517 46.2245 33.9482 46.2278C33.9411 46.2343 33.9295 46.2438 33.913 46.253C33.875 46.2742 33.8334 46.2818 33.7978 46.2798C33.7696 46.2781 33.7544 46.2709 33.7631 46.2742C33.7718 46.2776 33.7844 46.2833 33.814 46.2973L34.0696 45.7544ZM34.0738 45.7564L34.0695 45.7544L33.8141 46.2973L33.8183 46.2993L34.0738 45.7564ZM35.9832 46.6114L34.0687 45.7541L33.8234 46.3017L35.738 47.159L35.9832 46.6114ZM35.4895 48.1425L36.1212 47.0337L35.5999 46.7367L34.9682 47.8454L35.4895 48.1425ZM35.7915 49.2068C35.435 49.0123 35.2741 48.5183 35.4891 48.1431L34.9686 47.8448C34.5776 48.5269 34.868 49.3865 35.5042 49.7335L35.7915 49.2068ZM36.8242 45.7826L38.4938 42.8366L37.9718 42.5408L36.3022 45.4867L36.8242 45.7826ZM34.539 45.0576L36.4407 45.9085L36.6857 45.3608L34.7841 44.5099L34.539 45.0576ZM34.3768 44.9843C34.4284 45.0077 34.4827 45.0324 34.5392 45.0576L34.784 44.5099C34.7296 44.4856 34.677 44.4617 34.6252 44.4381L34.3768 44.9843ZM32.8439 45.3154C33.2103 44.8675 33.4313 44.759 33.5939 44.742C33.7803 44.7225 33.9809 44.8042 34.3768 44.9843L34.6252 44.4381C34.2787 44.2805 33.9142 44.1053 33.5315 44.1453C33.1248 44.1878 32.7724 44.4552 32.3795 44.9354L32.8439 45.3154ZM29.841 47.8351C30.9915 47.1739 32.0131 46.3322 32.844 45.3152L32.3794 44.9356C31.5987 45.8912 30.6349 46.6868 29.5421 47.3149L29.841 47.8351ZM33.8802 36.2795L29.4129 47.4637L29.9701 47.6862L34.4374 36.502L33.8802 36.2795ZM34.8899 40.2024C34.9828 38.8948 34.83 37.582 34.4461 36.3044L33.8715 36.4771C34.2353 37.6878 34.379 38.9277 34.2914 40.1599L34.8899 40.2024ZM35.8018 41.5127C35.5923 41.4407 35.4318 41.3851 35.3 41.3228C35.1715 41.2622 35.0903 41.204 35.0342 41.1385C34.9284 41.015 34.8462 40.787 34.8898 40.2035L34.2915 40.1587C34.2452 40.7769 34.31 41.2156 34.5786 41.5289C34.7097 41.6818 34.8725 41.7845 35.0438 41.8654C35.2116 41.9447 35.4065 42.0113 35.6068 42.0801L35.8018 41.5127ZM35.8099 41.5154L35.8018 41.5127L35.6068 42.0801L35.6148 42.0828L35.8099 41.5154ZM38.3326 42.4058L35.8122 41.5163L35.6125 42.082L38.1329 42.9716L38.3326 42.4058ZM43.9557 44.6832L42.3183 48.2093L42.8625 48.462L44.4999 44.9359L43.9557 44.6832ZM44.9386 44.7389L44.3262 44.5261L44.1293 45.0929L44.7417 45.3056L44.9386 44.7389ZM43.6554 48.795L45.1187 45.1336L44.5616 44.9109L43.0983 48.5724L43.6554 48.795ZM42.469 48.6099L43.2554 48.958L43.4983 48.4094L42.7119 48.0613L42.469 48.6099ZM33.6528 34.3342C32.1605 31.3891 29.4913 29.0077 26.1804 27.6806L25.9572 28.2376C29.144 29.5148 31.6963 31.8005 33.1176 34.6054L33.6528 34.3342ZM28.0814 48.5437L33.6638 34.5812L33.1067 34.3584L27.5242 48.3209L28.0814 48.5437ZM9.83574 33.1531C7.87118 38.0745 10.0259 42.8306 13.8165 45.9039C17.6033 48.9742 23.0838 50.4228 27.903 48.7151L27.7026 48.1495C23.1168 49.7745 17.8514 48.4029 14.1944 45.4379C10.5413 42.476 8.55427 37.9817 10.393 33.3756L9.83574 33.1531ZM26.1799 27.6805C23.2537 26.5132 19.8211 26.2752 16.7944 27.1272C13.7622 27.9808 11.124 29.9343 9.83584 33.1529L10.3929 33.3758C11.5995 30.3609 14.0698 28.5175 16.9569 27.7048C19.8494 26.8905 23.1467 27.1166 25.9576 28.2378L26.1799 27.6805ZM38.2374 33.1701L51.6068 40.0482L51.8813 39.5147L38.5118 32.6366L38.2374 33.1701ZM46.5506 16.2653C40.2707 18.8418 36.4227 26.3325 38.0836 32.9761L38.6656 32.8306C37.0777 26.4786 40.7717 19.2848 46.7783 16.8204L46.5506 16.2653ZM60.5257 23.4553C59.7592 20.204 57.8208 17.7644 55.2858 16.4598C52.7506 15.1552 49.64 14.9965 46.5505 16.2653L46.7784 16.8204C49.7161 15.6139 52.6424 15.7743 55.0112 16.9933C57.3801 18.2124 59.2128 20.5011 59.9417 23.593L60.5257 23.4553ZM51.854 40.0606C58.2275 37.5494 62.0809 30.0646 60.5258 23.4554L59.9417 23.5928C61.4292 29.9147 57.7276 37.1015 51.6341 39.5024L51.854 40.0606ZM49.8959 40.1014L39.1888 34.5898L38.9142 35.1233L49.6213 40.6348L49.8959 40.1014ZM45.8986 40.7347C47.1878 40.954 48.5139 40.9203 49.8169 40.6624L49.7004 40.0738C48.4635 40.3187 47.2112 40.3494 45.9992 40.1432L45.8986 40.7347ZM44.523 41.4849C44.7038 41.0869 44.8005 40.8955 44.9526 40.7897C45.0855 40.6972 45.3234 40.6355 45.8979 40.7346L45.9999 40.1434C45.3873 40.0376 44.945 40.064 44.6099 40.2972C44.2939 40.5171 44.1346 40.8891 43.9767 41.2368L44.523 41.4849ZM44.4485 41.6478C44.4746 41.5914 44.4994 41.5368 44.523 41.485L43.9767 41.2368C43.953 41.2888 43.929 41.3417 43.9039 41.3961L44.4485 41.6478ZM40.4324 50.3118L44.4484 41.6481L43.904 41.3958L39.888 50.0595L40.4324 50.3118ZM36.5162 48.6475L40.0229 50.4524L40.2975 49.9189L36.7908 48.114L36.5162 48.6475ZM41.0982 39.9237L36.3924 48.2329L36.9145 48.5286L41.6202 40.2194L41.0982 39.9237ZM41.1764 39.7885C41.1516 39.8312 41.1257 39.8759 41.0991 39.9221L41.6193 40.2211C41.6451 40.1762 41.6703 40.1327 41.6953 40.0898L41.1764 39.7885ZM41.0003 38.216C41.4157 38.6254 41.5027 38.8541 41.5037 39.0171C41.5049 39.2054 41.4018 39.4004 41.1764 39.7885L41.6953 40.0898C41.8923 39.7506 42.106 39.4002 42.1037 39.0135C42.1012 38.6015 41.8646 38.2254 41.4216 37.7887L41.0003 38.216ZM38.778 34.9799C39.327 36.1971 40.0694 37.2917 40.9996 38.2152L41.4223 37.7894C40.5476 36.9209 39.8459 35.8882 39.3249 34.7332L38.778 34.9799ZM32.0637 20.9426C33.5358 20.9426 34.7225 22.1302 34.7225 23.5949H35.3225C35.3225 21.7979 33.8663 20.3426 32.0637 20.3426V20.9426ZM29.4114 23.5949C29.4114 22.1297 30.5985 20.9426 32.0637 20.9426V20.3426C30.2671 20.3426 28.8114 21.7984 28.8114 23.5949H29.4114ZM32.0637 26.2473C30.5985 26.2473 29.4114 25.0602 29.4114 23.5949H28.8114C28.8114 25.3915 30.2671 26.8473 32.0637 26.8473V26.2473ZM34.7225 23.5949C34.7225 25.0597 33.5358 26.2473 32.0637 26.2473V26.8473C33.8663 26.8473 35.3225 25.392 35.3225 23.5949H34.7225ZM33.6108 22.0555C32.2412 20.6784 29.8879 21.6594 29.8879 23.5949H30.4879C30.4879 22.1913 32.1957 21.4835 33.1854 22.4786L33.6108 22.0555ZM33.6102 25.135C34.4622 24.283 34.4622 22.9069 33.6102 22.0549L33.186 22.4792C33.8037 23.0969 33.8037 24.093 33.186 24.7107L33.6102 25.135ZM29.8879 23.5949C29.8879 25.5326 32.2422 26.5031 33.6102 25.135L33.186 24.7107C32.1947 25.702 30.4879 24.9964 30.4879 23.5949H29.8879Z" fill="black" mask="url(#path-1-outside-1)"/>
</svg>
