<svg width="68" height="68" viewBox="0 0 68 68" fill="none" xmlns="http://www.w3.org/2000/svg">
<mask id="path-1-outside-1" maskUnits="userSpaceOnUse" x="14.1605" y="13.0934" width="41" height="42" fill="black">
<rect fill="white" x="14.1605" y="13.0934" width="41" height="42"/>
<path fill-rule="evenodd" clip-rule="evenodd" d="M54.4628 14.1836C54.5731 14.2465 54.6639 14.3387 54.725 14.45L44.375 32.5625C46.0191 34.4468 47.0797 36.7686 47.4278 39.245C47.7758 41.7214 47.3961 44.2456 46.3351 46.5101C45.274 48.7746 43.5774 50.6817 41.4517 51.999C39.3261 53.3164 36.8632 53.9872 34.3631 53.9297C31.8631 53.8722 29.4336 53.089 27.3708 51.6753C25.3079 50.2617 23.7007 48.2787 22.7448 45.9678C21.7889 43.6569 21.5257 41.118 21.9871 38.6602C22.4486 36.2024 23.6148 33.9318 25.3438 32.125L15.2563 15.15C15.1936 15.044 15.1605 14.9231 15.1605 14.8C15.1605 14.6769 15.1936 14.556 15.2563 14.45C15.3174 14.3387 15.4081 14.2465 15.5184 14.1836C15.6288 14.1207 15.7543 14.0896 15.8813 14.0937H26.1688C26.2947 14.0911 26.419 14.1221 26.5289 14.1836C26.6388 14.2452 26.7302 14.335 26.7938 14.4437L34.6875 28.1375H35.3125L43.1875 14.4437C43.251 14.335 43.3424 14.2452 43.4523 14.1836C43.5622 14.1221 43.6866 14.0911 43.8125 14.0937H54.1C54.2269 14.0896 54.3525 14.1207 54.4628 14.1836ZM25.7875 15.4937H17.1063L26.3875 31.125C28.3016 29.5185 30.6434 28.5062 33.125 28.2125L25.7875 15.4937ZM44.8359 46.3674C45.6997 44.715 46.1486 42.8771 46.1438 41.0125C46.1419 38.4121 45.2534 35.89 43.625 33.8625C43.319 33.4816 42.9892 33.1205 42.6375 32.7812C40.849 31.0522 38.5446 29.9549 36.075 29.6562C36.0468 29.6525 36.0184 29.6486 35.9899 29.6446C35.8293 29.6225 35.6655 29.6 35.5063 29.6C35.225 29.5687 34.9375 29.5687 34.65 29.5687H34.65H34.5125H33.8875C31.3842 29.7331 29.004 30.7146 27.1125 32.3625C26.7525 32.6809 26.4103 33.0189 26.0875 33.375C24.8436 34.7641 23.9564 36.435 23.5023 38.2435C23.0482 40.052 23.041 41.9438 23.4812 43.7558C23.9214 45.5677 24.7958 47.2453 26.029 48.644C27.2622 50.0426 28.8171 51.1201 30.5597 51.7837C32.3023 52.4473 34.1801 52.6769 36.0313 52.4529C37.8824 52.2288 39.6512 51.5577 41.1851 50.4975C42.719 49.4373 43.972 48.0199 44.8359 46.3674ZM36.825 28.2812C39.2713 28.6997 41.5441 29.8177 43.3688 31.5L52.8938 15.4937H44.2125L36.825 28.2812ZM37.0563 37.9926L41.0313 38.5739C41.1604 38.5916 41.2819 38.6457 41.3815 38.7298C41.481 38.8139 41.5547 38.9245 41.5938 39.0489C41.6364 39.1719 41.6426 39.3046 41.6115 39.431C41.5805 39.5574 41.5135 39.6721 41.4188 39.7614L38.5438 42.5676L39.2188 46.5301C39.242 46.6581 39.2286 46.79 39.1799 46.9106C39.1312 47.0312 39.0493 47.1355 38.9438 47.2114C38.8236 47.2983 38.6796 47.3463 38.5313 47.3489C38.4183 47.3456 38.3074 47.3179 38.2063 47.2676L34.65 45.3926L31.0938 47.2676C30.9783 47.3275 30.8484 47.354 30.7187 47.3442C30.589 47.3344 30.4646 47.2886 30.3594 47.212C30.2543 47.1354 30.1726 47.0311 30.1234 46.9106C30.0743 46.7902 30.0597 46.6584 30.0813 46.5301L30.7625 42.5676L27.8813 39.7614C27.789 39.6705 27.7238 39.5557 27.6929 39.4299C27.662 39.3041 27.6667 39.1722 27.7063 39.0489C27.7453 38.9245 27.819 38.8139 27.9186 38.7298C28.0182 38.6457 28.1396 38.5916 28.2688 38.5739L32.2438 37.9926L34.025 34.3926C34.0817 34.275 34.1704 34.1758 34.281 34.1063C34.3915 34.0368 34.5194 34 34.65 34C34.7806 34 34.9085 34.0368 35.0191 34.1063C35.1296 34.1758 35.2183 34.275 35.275 34.3926L37.0563 37.9926ZM37.1002 42.1105C37.1352 42.0011 37.1975 41.9025 37.2813 41.8239L39.4813 39.7426L36.5438 39.3176C36.4315 39.3028 36.3246 39.2601 36.233 39.1935C36.1413 39.127 36.0677 39.0386 36.0188 38.9364L34.7 36.2676L33.3875 38.9364C33.3368 39.0373 33.2627 39.1245 33.1714 39.1909C33.08 39.2572 32.9741 39.3007 32.8625 39.3176L29.9188 39.7426L32.0438 41.8176C32.1267 41.8969 32.189 41.9954 32.2249 42.1044C32.2609 42.2134 32.2695 42.3295 32.25 42.4426L31.7438 45.3739L34.375 43.9926C34.4718 43.9433 34.5789 43.9175 34.6875 43.9175C34.7962 43.9175 34.9032 43.9433 35 43.9926L37.5813 45.3801L37.0813 42.4489C37.0587 42.3363 37.0652 42.2198 37.1002 42.1105Z"/>
</mask>
<path fill-rule="evenodd" clip-rule="evenodd" d="M54.4628 14.1836C54.5731 14.2465 54.6639 14.3387 54.725 14.45L44.375 32.5625C46.0191 34.4468 47.0797 36.7686 47.4278 39.245C47.7758 41.7214 47.3961 44.2456 46.3351 46.5101C45.274 48.7746 43.5774 50.6817 41.4517 51.999C39.3261 53.3164 36.8632 53.9872 34.3631 53.9297C31.8631 53.8722 29.4336 53.089 27.3708 51.6753C25.3079 50.2617 23.7007 48.2787 22.7448 45.9678C21.7889 43.6569 21.5257 41.118 21.9871 38.6602C22.4486 36.2024 23.6148 33.9318 25.3438 32.125L15.2563 15.15C15.1936 15.044 15.1605 14.9231 15.1605 14.8C15.1605 14.6769 15.1936 14.556 15.2563 14.45C15.3174 14.3387 15.4081 14.2465 15.5184 14.1836C15.6288 14.1207 15.7543 14.0896 15.8813 14.0937H26.1688C26.2947 14.0911 26.419 14.1221 26.5289 14.1836C26.6388 14.2452 26.7302 14.335 26.7938 14.4437L34.6875 28.1375H35.3125L43.1875 14.4437C43.251 14.335 43.3424 14.2452 43.4523 14.1836C43.5622 14.1221 43.6866 14.0911 43.8125 14.0937H54.1C54.2269 14.0896 54.3525 14.1207 54.4628 14.1836ZM25.7875 15.4937H17.1063L26.3875 31.125C28.3016 29.5185 30.6434 28.5062 33.125 28.2125L25.7875 15.4937ZM44.8359 46.3674C45.6997 44.715 46.1486 42.8771 46.1438 41.0125C46.1419 38.4121 45.2534 35.89 43.625 33.8625C43.319 33.4816 42.9892 33.1205 42.6375 32.7812C40.849 31.0522 38.5446 29.9549 36.075 29.6562C36.0468 29.6525 36.0184 29.6486 35.9899 29.6446C35.8293 29.6225 35.6655 29.6 35.5063 29.6C35.225 29.5687 34.9375 29.5687 34.65 29.5687H34.65H34.5125H33.8875C31.3842 29.7331 29.004 30.7146 27.1125 32.3625C26.7525 32.6809 26.4103 33.0189 26.0875 33.375C24.8436 34.7641 23.9564 36.435 23.5023 38.2435C23.0482 40.052 23.041 41.9438 23.4812 43.7558C23.9214 45.5677 24.7958 47.2453 26.029 48.644C27.2622 50.0426 28.8171 51.1201 30.5597 51.7837C32.3023 52.4473 34.1801 52.6769 36.0313 52.4529C37.8824 52.2288 39.6512 51.5577 41.1851 50.4975C42.719 49.4373 43.972 48.0199 44.8359 46.3674ZM36.825 28.2812C39.2713 28.6997 41.5441 29.8177 43.3688 31.5L52.8938 15.4937H44.2125L36.825 28.2812ZM37.0563 37.9926L41.0313 38.5739C41.1604 38.5916 41.2819 38.6457 41.3815 38.7298C41.481 38.8139 41.5547 38.9245 41.5938 39.0489C41.6364 39.1719 41.6426 39.3046 41.6115 39.431C41.5805 39.5574 41.5135 39.6721 41.4188 39.7614L38.5438 42.5676L39.2188 46.5301C39.242 46.6581 39.2286 46.79 39.1799 46.9106C39.1312 47.0312 39.0493 47.1355 38.9438 47.2114C38.8236 47.2983 38.6796 47.3463 38.5313 47.3489C38.4183 47.3456 38.3074 47.3179 38.2063 47.2676L34.65 45.3926L31.0938 47.2676C30.9783 47.3275 30.8484 47.354 30.7187 47.3442C30.589 47.3344 30.4646 47.2886 30.3594 47.212C30.2543 47.1354 30.1726 47.0311 30.1234 46.9106C30.0743 46.7902 30.0597 46.6584 30.0813 46.5301L30.7625 42.5676L27.8813 39.7614C27.789 39.6705 27.7238 39.5557 27.6929 39.4299C27.662 39.3041 27.6667 39.1722 27.7063 39.0489C27.7453 38.9245 27.819 38.8139 27.9186 38.7298C28.0182 38.6457 28.1396 38.5916 28.2688 38.5739L32.2438 37.9926L34.025 34.3926C34.0817 34.275 34.1704 34.1758 34.281 34.1063C34.3915 34.0368 34.5194 34 34.65 34C34.7806 34 34.9085 34.0368 35.0191 34.1063C35.1296 34.1758 35.2183 34.275 35.275 34.3926L37.0563 37.9926ZM37.1002 42.1105C37.1352 42.0011 37.1975 41.9025 37.2813 41.8239L39.4813 39.7426L36.5438 39.3176C36.4315 39.3028 36.3246 39.2601 36.233 39.1935C36.1413 39.127 36.0677 39.0386 36.0188 38.9364L34.7 36.2676L33.3875 38.9364C33.3368 39.0373 33.2627 39.1245 33.1714 39.1909C33.08 39.2572 32.9741 39.3007 32.8625 39.3176L29.9188 39.7426L32.0438 41.8176C32.1267 41.8969 32.189 41.9954 32.2249 42.1044C32.2609 42.2134 32.2695 42.3295 32.25 42.4426L31.7438 45.3739L34.375 43.9926C34.4718 43.9433 34.5789 43.9175 34.6875 43.9175C34.7962 43.9175 34.9032 43.9433 35 43.9926L37.5813 45.3801L37.0813 42.4489C37.0587 42.3363 37.0652 42.2198 37.1002 42.1105Z" fill="black"/>
<path d="M54.725 14.45L54.9855 14.5988L55.0689 14.4529L54.988 14.3056L54.725 14.45ZM54.4628 14.1836L54.3143 14.4442L54.3143 14.4442L54.4628 14.1836ZM44.375 32.5625L44.1145 32.4137L44.0087 32.5989L44.149 32.7597L44.375 32.5625ZM47.4278 39.245L47.7248 39.2033L47.7248 39.2033L47.4278 39.245ZM46.3351 46.5101L46.6067 46.6374L46.6067 46.6374L46.3351 46.5101ZM27.3708 51.6753L27.5404 51.4279L27.5404 51.4279L27.3708 51.6753ZM22.7448 45.9678L23.022 45.8531L23.022 45.8531L22.7448 45.9678ZM25.3438 32.125L25.5605 32.3324L25.7181 32.1677L25.6017 31.9717L25.3438 32.125ZM15.2563 15.15L14.998 15.3027L14.9984 15.3033L15.2563 15.15ZM15.2563 14.45L15.5146 14.6028L15.5192 14.5944L15.2563 14.45ZM15.5184 14.1836L15.3699 13.923L15.3699 13.923L15.5184 14.1836ZM15.8813 14.0937L15.8715 14.3937H15.8813V14.0937ZM26.1688 14.0937V14.3938L26.1752 14.3937L26.1688 14.0937ZM26.7938 14.4437L27.0537 14.2939L27.0528 14.2925L26.7938 14.4437ZM34.6875 28.1375L34.4276 28.2873L34.5142 28.4375H34.6875V28.1375ZM35.3125 28.1375V28.4375H35.486L35.5726 28.2871L35.3125 28.1375ZM43.1875 14.4437L42.9284 14.2925L42.9274 14.2942L43.1875 14.4437ZM43.8125 14.0937L43.8061 14.3937H43.8125V14.0937ZM54.1 14.0937V14.3939L54.1098 14.3936L54.1 14.0937ZM17.1063 15.4937V15.1937H16.5792L16.8483 15.6469L17.1063 15.4937ZM25.7875 15.4937L26.0474 15.3438L25.9608 15.1937H25.7875V15.4937ZM26.3875 31.125L26.1295 31.2782L26.3099 31.5818L26.5804 31.3548L26.3875 31.125ZM33.125 28.2125L33.1603 28.5104L33.6123 28.4569L33.3849 28.0626L33.125 28.2125ZM46.1438 41.0125L45.8438 41.0127L45.8438 41.0133L46.1438 41.0125ZM44.8359 46.3674L44.57 46.2284L44.57 46.2284L44.8359 46.3674ZM43.625 33.8625L43.8589 33.6746L43.8589 33.6746L43.625 33.8625ZM42.6375 32.7812L42.429 32.9969L42.4292 32.9972L42.6375 32.7812ZM36.075 29.6562L36.0354 29.9536L36.039 29.9541L36.075 29.6562ZM35.9899 29.6446L36.0308 29.3475L36.0308 29.3475L35.9899 29.6446ZM35.5063 29.6L35.4731 29.8982L35.4896 29.9H35.5063V29.6ZM33.8875 29.5687V29.2687H33.8777L33.8678 29.2694L33.8875 29.5687ZM27.1125 32.3625L26.9154 32.1363L26.9138 32.1378L27.1125 32.3625ZM26.0875 33.375L25.8652 33.1735L25.864 33.1749L26.0875 33.375ZM23.5023 38.2435L23.7933 38.3166L23.7933 38.3166L23.5023 38.2435ZM23.4812 43.7558L23.1896 43.8266L23.1896 43.8266L23.4812 43.7558ZM26.029 48.644L26.254 48.4455L26.254 48.4455L26.029 48.644ZM30.5597 51.7837L30.6665 51.5033L30.6665 51.5033L30.5597 51.7837ZM36.0313 52.4529L35.9952 52.155L35.9952 52.155L36.0313 52.4529ZM41.1851 50.4975L41.0145 50.2507L41.0145 50.2507L41.1851 50.4975ZM43.3688 31.5L43.1654 31.7206L43.4374 31.9713L43.6266 31.6534L43.3688 31.5ZM36.825 28.2812L36.5652 28.1312L36.3497 28.5043L36.7744 28.577L36.825 28.2812ZM52.8938 15.4937L53.1516 15.6472L53.4214 15.1937H52.8938V15.4937ZM44.2125 15.4937V15.1937H44.0394L43.9527 15.3437L44.2125 15.4937ZM41.0313 38.5739L40.9879 38.8707L40.9905 38.8711L41.0313 38.5739ZM37.0563 37.9926L36.7874 38.1257L36.8572 38.2667L37.0129 38.2895L37.0563 37.9926ZM41.5938 39.0489L41.3074 39.1389L41.3103 39.1472L41.5938 39.0489ZM41.6115 39.431L41.9029 39.5026L41.9029 39.5026L41.6115 39.431ZM41.4188 39.7614L41.2131 39.543L41.2092 39.5467L41.4188 39.7614ZM38.5438 42.5676L38.3342 42.353L38.2216 42.4629L38.248 42.618L38.5438 42.5676ZM39.2188 46.5301L38.923 46.5805L38.9236 46.5839L39.2188 46.5301ZM39.1799 46.9106L39.4581 47.0229L39.4581 47.0229L39.1799 46.9106ZM38.9438 47.2114L38.7686 46.9678L38.7679 46.9683L38.9438 47.2114ZM38.5313 47.3489L38.5226 47.6491L38.5364 47.6488L38.5313 47.3489ZM38.2063 47.2676L38.0663 47.5331L38.0728 47.5363L38.2063 47.2676ZM34.65 45.3926L34.7899 45.1273L34.65 45.0535L34.5101 45.1273L34.65 45.3926ZM31.0938 47.2676L31.2318 47.534L31.2337 47.533L31.0938 47.2676ZM30.3594 47.212L30.5361 46.9695L30.5361 46.9695L30.3594 47.212ZM30.1234 46.9106L29.8457 47.0239L29.8457 47.0239L30.1234 46.9106ZM30.0813 46.5301L29.7856 46.4793L29.7854 46.4804L30.0813 46.5301ZM30.7625 42.5676L31.0582 42.6185L31.0849 42.4629L30.9718 42.3527L30.7625 42.5676ZM27.8813 39.7614L27.6706 39.975L27.6719 39.9763L27.8813 39.7614ZM27.6929 39.4299L27.4016 39.5015L27.4016 39.5015L27.6929 39.4299ZM27.7063 39.0489L27.9919 39.1406L27.9925 39.1388L27.7063 39.0489ZM28.2688 38.5739L28.3095 38.8711L28.3122 38.8707L28.2688 38.5739ZM32.2438 37.9926L32.2872 38.2895L32.4429 38.2667L32.5126 38.1257L32.2438 37.9926ZM34.025 34.3926L34.2939 34.5257L34.2953 34.5228L34.025 34.3926ZM34.281 34.1063L34.1214 33.8523L34.1214 33.8523L34.281 34.1063ZM35.275 34.3926L35.0047 34.5229L35.0061 34.5257L35.275 34.3926ZM37.2813 41.8239L37.4865 42.0427L37.4874 42.0418L37.2813 41.8239ZM37.1002 42.1105L37.3859 42.2019L37.3859 42.2019L37.1002 42.1105ZM39.4813 39.7426L39.6874 39.9606L40.1378 39.5345L39.5242 39.4457L39.4813 39.7426ZM36.5438 39.3176L36.5867 39.0207L36.5832 39.0202L36.5438 39.3176ZM36.233 39.1935L36.4092 38.9508L36.4092 38.9508L36.233 39.1935ZM36.0188 38.9364L36.2894 38.8069L36.2877 38.8035L36.0188 38.9364ZM34.7 36.2676L34.969 36.1347L34.6994 35.5892L34.4308 36.1352L34.7 36.2676ZM33.3875 38.9364L33.6556 39.071L33.6567 39.0688L33.3875 38.9364ZM33.1714 39.1909L32.9951 38.9481L32.9951 38.9481L33.1714 39.1909ZM32.8625 39.3176L32.9054 39.6146L32.9076 39.6142L32.8625 39.3176ZM29.9188 39.7426L29.8759 39.4457L29.2742 39.5326L29.7092 39.9573L29.9188 39.7426ZM32.0438 41.8176L31.8342 42.0323L31.8365 42.0345L32.0438 41.8176ZM32.2249 42.1044L32.5098 42.0104L32.5098 42.0104L32.2249 42.1044ZM32.25 42.4426L32.5456 42.4937L32.5457 42.4936L32.25 42.4426ZM31.7438 45.3739L31.4481 45.3228L31.3446 45.9222L31.8832 45.6395L31.7438 45.3739ZM34.375 43.9926L34.2386 43.7254L34.2356 43.727L34.375 43.9926ZM35 43.9926L35.1421 43.7283L35.1364 43.7254L35 43.9926ZM37.5813 45.3801L37.4392 45.6444L37.9803 45.9352L37.877 45.3297L37.5813 45.3801ZM37.0813 42.4489L37.3771 42.3984L37.3754 42.3899L37.0813 42.4489ZM54.988 14.3056C54.9002 14.1457 54.7698 14.0133 54.6114 13.923L54.3143 14.4442C54.3764 14.4797 54.4276 14.5316 54.462 14.5944L54.988 14.3056ZM44.6355 32.7113L54.9855 14.5988L54.4645 14.3012L44.1145 32.4137L44.6355 32.7113ZM47.7248 39.2033C47.3687 36.6692 46.2834 34.2934 44.6011 32.3653L44.149 32.7597C45.7548 34.6002 46.7908 36.868 47.1307 39.2868L47.7248 39.2033ZM46.6067 46.6374C47.6925 44.3202 48.081 41.7373 47.7248 39.2033L47.1307 39.2868C47.4706 41.7056 47.0998 44.171 46.0634 46.3828L46.6067 46.6374ZM41.6098 52.254C43.7849 50.906 45.521 48.9546 46.6067 46.6374L46.0634 46.3828C45.0271 48.5946 43.3699 50.4573 41.2937 51.744L41.6098 52.254ZM34.3563 54.2296C36.9145 54.2884 39.4347 53.602 41.6098 52.254L41.2937 51.744C39.2175 53.0307 36.812 53.6859 34.37 53.6298L34.3563 54.2296ZM27.2012 51.9228C29.312 53.3693 31.798 54.1708 34.3563 54.2296L34.37 53.6298C31.9281 53.5737 29.5552 52.8086 27.5404 51.4279L27.2012 51.9228ZM22.4676 46.0825C23.4457 48.4471 25.0903 50.4763 27.2012 51.9228L27.5404 51.4279C25.5255 50.0471 23.9557 48.1102 23.022 45.8531L22.4676 46.0825ZM21.6923 38.6048C21.2201 41.1198 21.4895 43.7178 22.4676 46.0825L23.022 45.8531C22.0884 43.596 21.8313 41.1162 22.282 38.7155L21.6923 38.6048ZM25.127 31.9176C23.3578 33.7664 22.1645 36.0898 21.6923 38.6048L22.282 38.7155C22.7327 36.3149 23.8718 34.0972 25.5605 32.3324L25.127 31.9176ZM14.9984 15.3033L25.0859 32.2783L25.6017 31.9717L15.5142 14.9967L14.9984 15.3033ZM14.8605 14.8C14.8605 14.9769 14.908 15.1505 14.998 15.3027L15.5145 14.9973C15.4791 14.9375 15.4605 14.8694 15.4605 14.8H14.8605ZM14.998 14.2973C14.908 14.4495 14.8605 14.6231 14.8605 14.8H15.4605C15.4605 14.7306 15.4791 14.6625 15.5145 14.6027L14.998 14.2973ZM15.3699 13.923C15.2114 14.0133 15.0811 14.1457 14.9933 14.3056L15.5192 14.5944C15.5537 14.5316 15.6048 14.4797 15.667 14.4442L15.3699 13.923ZM15.891 13.7939C15.7087 13.788 15.5283 13.8326 15.3699 13.923L15.667 14.4442C15.7292 14.4088 15.8 14.3913 15.8715 14.3936L15.891 13.7939ZM26.1688 13.7937H15.8813V14.3937H26.1688V13.7937ZM26.6755 13.9219C26.5189 13.8342 26.3418 13.79 26.1623 13.7938L26.1752 14.3937C26.2476 14.3921 26.3191 14.41 26.3823 14.4454L26.6755 13.9219ZM27.0528 14.2925C26.9623 14.1375 26.8321 14.0096 26.6755 13.9219L26.3823 14.4454C26.4456 14.4808 26.4981 14.5324 26.5347 14.595L27.0528 14.2925ZM34.9474 27.9877L27.0537 14.2939L26.5338 14.5936L34.4276 28.2873L34.9474 27.9877ZM35.3125 27.8375H34.6875V28.4375H35.3125V27.8375ZM42.9274 14.2942L35.0524 27.9879L35.5726 28.2871L43.4476 14.5933L42.9274 14.2942ZM43.3058 13.9219C43.1492 14.0096 43.0189 14.1375 42.9284 14.2925L43.4466 14.595C43.4831 14.5324 43.5357 14.4808 43.5989 14.4454L43.3058 13.9219ZM43.8189 13.7938C43.6395 13.79 43.4623 13.8342 43.3058 13.9219L43.5989 14.4454C43.6621 14.41 43.7337 14.3921 43.8061 14.3937L43.8189 13.7938ZM54.1 13.7937H43.8125V14.3937H54.1V13.7937ZM54.6114 13.923C54.4529 13.8326 54.2725 13.788 54.0902 13.7939L54.1098 14.3936C54.1813 14.3913 54.2521 14.4088 54.3143 14.4442L54.6114 13.923ZM17.1063 15.7937H25.7875V15.1937H17.1063V15.7937ZM26.6455 30.9718L17.3642 15.3406L16.8483 15.6469L26.1295 31.2782L26.6455 30.9718ZM33.0897 27.9146C30.5501 28.2151 28.1535 29.2511 26.1946 30.8952L26.5804 31.3548C28.4497 29.7859 30.7367 28.7973 33.1603 28.5104L33.0897 27.9146ZM25.5276 15.6437L32.8651 28.3624L33.3849 28.0626L26.0474 15.3438L25.5276 15.6437ZM45.8438 41.0133C45.8485 42.8292 45.4113 44.6191 44.57 46.2284L45.1017 46.5064C45.9881 44.8108 46.4487 42.925 46.4438 41.0117L45.8438 41.0133ZM43.3911 34.0504C44.9768 36.0246 45.8419 38.4805 45.8438 41.0127L46.4438 41.0123C46.4418 38.3436 45.53 35.7553 43.8589 33.6746L43.3911 34.0504ZM42.4292 32.9972C42.7718 33.3276 43.093 33.6794 43.3911 34.0504L43.8589 33.6746C43.5449 33.2838 43.2066 32.9133 42.8458 32.5653L42.4292 32.9972ZM36.039 29.9541C38.4437 30.2448 40.6875 31.3133 42.429 32.9969L42.846 32.5656C41.0106 30.7911 38.6456 29.6649 36.111 29.3584L36.039 29.9541ZM35.949 29.9418C35.9773 29.9458 36.0064 29.9498 36.0354 29.9536L36.1147 29.3589C36.0871 29.3552 36.0594 29.3514 36.0308 29.3475L35.949 29.9418ZM35.5063 29.9C35.6414 29.9 35.7844 29.9192 35.949 29.9418L36.0308 29.3475C35.8741 29.3259 35.6896 29.3 35.5063 29.3V29.9ZM34.65 29.8687C34.9405 29.8687 35.2112 29.8691 35.4731 29.8982L35.5394 29.3018C35.2388 29.2684 34.9345 29.2687 34.65 29.2687V29.8687ZM34.65 29.8687H34.65V29.2687H34.65V29.8687ZM34.5125 29.8687H34.65V29.2687H34.5125V29.8687ZM33.8875 29.8687H34.5125V29.2687H33.8875V29.8687ZM27.3096 32.5887C29.1516 30.9839 31.4694 30.0281 33.9072 29.8681L33.8678 29.2694C31.299 29.438 28.8565 30.4452 26.9154 32.1363L27.3096 32.5887ZM26.3098 33.5765C26.6251 33.2285 26.9595 32.8983 27.3112 32.5872L26.9138 32.1378C26.5455 32.4635 26.1954 32.8092 25.8652 33.1735L26.3098 33.5765ZM23.7933 38.3166C24.2355 36.5552 25.0996 34.928 26.311 33.5751L25.864 33.1749C24.5877 34.6002 23.6772 36.3147 23.2113 38.1704L23.7933 38.3166ZM23.7727 43.685C23.344 41.9203 23.351 40.0779 23.7933 38.3166L23.2113 38.1704C22.7454 40.0262 22.738 41.9674 23.1896 43.8266L23.7727 43.685ZM26.254 48.4455C25.053 47.0834 24.2014 45.4496 23.7727 43.685L23.1896 43.8266C23.6413 45.6858 24.5386 47.4073 25.804 48.8424L26.254 48.4455ZM30.6665 51.5033C28.9694 50.8571 27.455 49.8076 26.254 48.4455L25.804 48.8424C27.0693 50.2775 28.6649 51.3832 30.4529 52.0641L30.6665 51.5033ZM35.9952 52.155C34.1924 52.3733 32.3636 52.1496 30.6665 51.5033L30.4529 52.0641C32.241 52.745 34.1679 52.9806 36.0673 52.7507L35.9952 52.155ZM41.0145 50.2507C39.5207 51.2832 37.798 51.9368 35.9952 52.155L36.0673 52.7507C37.9668 52.5208 39.7817 51.8322 41.3557 50.7443L41.0145 50.2507ZM44.57 46.2284C43.7287 47.8377 42.5084 49.2182 41.0145 50.2507L41.3557 50.7443C42.9296 49.6564 44.2153 48.202 45.1017 46.5064L44.57 46.2284ZM43.5721 31.2794C41.7049 29.5578 39.379 28.4138 36.8756 27.9855L36.7744 28.577C39.1636 28.9857 41.3833 30.0775 43.1654 31.7206L43.5721 31.2794ZM52.6359 15.3403L43.1109 31.3466L43.6266 31.6534L53.1516 15.6472L52.6359 15.3403ZM44.2125 15.7937H52.8938V15.1937H44.2125V15.7937ZM37.0848 28.4313L44.4723 15.6438L43.9527 15.3437L36.5652 28.1312L37.0848 28.4313ZM41.0747 38.2771L37.0997 37.6958L37.0129 38.2895L40.9879 38.8707L41.0747 38.2771ZM41.575 38.5005C41.432 38.3797 41.2575 38.3021 41.072 38.2767L40.9905 38.8711C41.0633 38.8811 41.1318 38.9116 41.1879 38.959L41.575 38.5005ZM41.88 38.9589C41.8238 38.7803 41.7181 38.6213 41.575 38.5005L41.1879 38.959C41.244 39.0064 41.2855 39.0688 41.3076 39.1388L41.88 38.9589ZM41.9029 39.5026C41.9477 39.32 41.9388 39.1283 41.8772 38.9506L41.3103 39.1472C41.334 39.2155 41.3374 39.2892 41.3202 39.3594L41.9029 39.5026ZM41.6244 39.9798C41.7613 39.8509 41.858 39.6852 41.9029 39.5026L41.3202 39.3594C41.3029 39.4297 41.2657 39.4934 41.2131 39.543L41.6244 39.9798ZM38.7533 42.7823L41.6283 39.9761L41.2092 39.5467L38.3342 42.353L38.7533 42.7823ZM39.5145 46.4798L38.8395 42.5173L38.248 42.618L38.923 46.5805L39.5145 46.4798ZM39.4581 47.0229C39.528 46.8497 39.5474 46.6602 39.5139 46.4764L38.9236 46.5839C38.9367 46.656 38.9291 46.7303 38.9017 46.7983L39.4581 47.0229ZM39.1189 47.455C39.2706 47.3459 39.3882 47.1961 39.4581 47.0229L38.9017 46.7983C38.8743 46.8663 38.8281 46.925 38.7686 46.9678L39.1189 47.455ZM38.5364 47.6488C38.7461 47.6452 38.9497 47.5774 39.1196 47.4545L38.7679 46.9683C38.6975 47.0193 38.6131 47.0474 38.5261 47.0489L38.5364 47.6488ZM38.0728 47.5363C38.2128 47.6059 38.3663 47.6442 38.5226 47.6488L38.5399 47.049C38.4704 47.047 38.4021 47.0299 38.3397 46.999L38.0728 47.5363ZM34.5101 45.658L38.0663 47.533L38.3462 47.0023L34.7899 45.1273L34.5101 45.658ZM31.2337 47.533L34.7899 45.658L34.5101 45.1273L30.9538 47.0023L31.2337 47.533ZM30.696 47.6433C30.8813 47.6574 31.0669 47.6195 31.2318 47.534L30.9557 47.0013C30.8897 47.0355 30.8155 47.0507 30.7414 47.0451L30.696 47.6433ZM30.1828 47.4545C30.333 47.5639 30.5107 47.6293 30.696 47.6433L30.7414 47.0451C30.6672 47.0394 30.5961 47.0133 30.5361 46.9695L30.1828 47.4545ZM29.8457 47.0239C29.9159 47.196 30.0326 47.3451 30.1828 47.4545L30.5361 46.9695C30.476 46.9258 30.4293 46.8661 30.4012 46.7973L29.8457 47.0239ZM29.7854 46.4804C29.7546 46.6637 29.7755 46.8519 29.8457 47.0239L30.4012 46.7973C30.3731 46.7285 30.3648 46.6532 30.3771 46.5799L29.7854 46.4804ZM30.4668 42.5168L29.7856 46.4793L30.3769 46.581L31.0582 42.6185L30.4668 42.5168ZM27.6719 39.9763L30.5532 42.7826L30.9718 42.3527L28.0906 39.5465L27.6719 39.9763ZM27.4016 39.5015C27.4457 39.6812 27.5389 39.8451 27.6706 39.975L28.0919 39.5478C28.0392 39.4958 28.0019 39.4302 27.9843 39.3584L27.4016 39.5015ZM27.4206 38.9572C27.364 39.1333 27.3575 39.3218 27.4016 39.5015L27.9843 39.3584C27.9666 39.2865 27.9693 39.2111 27.9919 39.1406L27.4206 38.9572ZM27.725 38.5005C27.582 38.6213 27.4762 38.7803 27.4201 38.9589L27.9925 39.1388C28.0145 39.0688 28.056 39.0064 28.1121 38.959L27.725 38.5005ZM28.228 38.2767C28.0425 38.3021 27.8681 38.3797 27.725 38.5005L28.1121 38.959C28.1683 38.9116 28.2367 38.8811 28.3095 38.8711L28.228 38.2767ZM32.2004 37.6958L28.2254 38.2771L28.3122 38.8707L32.2872 38.2895L32.2004 37.6958ZM33.7561 34.2596L31.9749 37.8596L32.5126 38.1257L34.2939 34.5257L33.7561 34.2596ZM34.1214 33.8523C33.963 33.9518 33.8359 34.0939 33.7547 34.2624L34.2953 34.5228C34.3274 34.4561 34.3778 34.3998 34.4405 34.3603L34.1214 33.8523ZM34.65 33.7C34.463 33.7 34.2797 33.7528 34.1214 33.8523L34.4405 34.3603C34.5033 34.3209 34.5759 34.3 34.65 34.3V33.7ZM35.1787 33.8523C35.0203 33.7528 34.837 33.7 34.65 33.7V34.3C34.7241 34.3 34.7967 34.3209 34.8595 34.3603L35.1787 33.8523ZM35.5453 34.2624C35.4641 34.0939 35.337 33.9518 35.1787 33.8523L34.8595 34.3603C34.9222 34.3998 34.9726 34.4561 35.0047 34.5229L35.5453 34.2624ZM37.3251 37.8596L35.5439 34.2596L35.0061 34.5257L36.7874 38.1257L37.3251 37.8596ZM37.076 41.6051C36.955 41.7186 36.865 41.861 36.8145 42.019L37.3859 42.2019C37.4054 42.1411 37.44 42.0863 37.4865 42.0427L37.076 41.6051ZM39.2751 39.5247L37.0751 41.606L37.4874 42.0418L39.6874 39.9606L39.2751 39.5247ZM36.5008 39.6146L39.4383 40.0396L39.5242 39.4457L36.5867 39.0207L36.5008 39.6146ZM36.0567 39.4363C36.1887 39.5322 36.3426 39.5936 36.5044 39.615L36.5832 39.0202C36.5203 39.0119 36.4605 38.988 36.4092 38.9508L36.0567 39.4363ZM35.7482 39.0659C35.8186 39.2131 35.9246 39.3404 36.0567 39.4363L36.4092 38.9508C36.3579 38.9135 36.3167 38.8641 36.2894 38.8069L35.7482 39.0659ZM34.4311 36.4005L35.7498 39.0693L36.2877 38.8035L34.969 36.1347L34.4311 36.4005ZM33.6567 39.0688L34.9692 36.4L34.4308 36.1352L33.1183 38.804L33.6567 39.0688ZM33.3477 39.4336C33.4778 39.3391 33.5834 39.2148 33.6556 39.071L33.1194 38.8017C33.0903 38.8598 33.0476 38.91 32.9951 38.9481L33.3477 39.4336ZM32.9076 39.6142C33.0666 39.5901 33.2175 39.5281 33.3477 39.4336L32.9951 38.9481C32.9426 38.9863 32.8816 39.0113 32.8174 39.0211L32.9076 39.6142ZM29.9616 40.0396L32.9054 39.6146L32.8196 39.0207L29.8759 39.4457L29.9616 40.0396ZM32.2534 41.603L30.1284 39.528L29.7092 39.9573L31.8342 42.0323L32.2534 41.603ZM32.5098 42.0104C32.4584 41.8547 32.3696 41.714 32.251 41.6007L31.8365 42.0345C31.8839 42.0799 31.9195 42.1361 31.94 42.1984L32.5098 42.0104ZM32.5457 42.4936C32.5735 42.332 32.5612 42.1661 32.5098 42.0104L31.94 42.1984C31.9606 42.2607 31.9655 42.3271 31.9544 42.3917L32.5457 42.4936ZM32.0394 45.425L32.5456 42.4937L31.9544 42.3916L31.4481 45.3228L32.0394 45.425ZM34.2356 43.727L31.6043 45.1083L31.8832 45.6395L34.5144 44.2583L34.2356 43.727ZM34.6875 43.6175C34.5315 43.6175 34.3776 43.6545 34.2386 43.7254L34.5114 44.2599C34.5659 44.232 34.6263 44.2175 34.6875 44.2175V43.6175ZM35.1364 43.7254C34.9974 43.6545 34.8436 43.6175 34.6875 43.6175V44.2175C34.7487 44.2175 34.8091 44.232 34.8637 44.2599L35.1364 43.7254ZM37.7233 45.1159L35.1421 43.7284L34.858 44.2569L37.4392 45.6444L37.7233 45.1159ZM36.7855 42.4993L37.2855 45.4306L37.877 45.3297L37.377 42.3985L36.7855 42.4993ZM36.8145 42.019C36.7639 42.177 36.7545 42.3453 36.7871 42.5079L37.3754 42.3899C37.3629 42.3274 37.3665 42.2626 37.3859 42.2019L36.8145 42.019Z" fill="black" mask="url(#path-1-outside-1)"/>
</svg>
