<svg width="68" height="68" viewBox="0 0 68 68" fill="none" xmlns="http://www.w3.org/2000/svg">
<path d="M22.8868 50.1519H15.7365C15.3294 50.1519 15.0005 49.8225 15.0005 49.4159V43.334C15.0005 42.9275 15.3299 42.598 15.7365 42.598H22.8862C23.2933 42.598 23.6222 42.9275 23.6222 43.334V49.4159C23.6228 49.8231 23.2939 50.1519 22.8868 50.1519ZM32.7717 50.1519H25.6232C25.2166 50.1519 24.8872 49.8225 24.8872 49.4159V39.0722C24.8872 38.665 25.2166 38.3362 25.6232 38.3362H32.7717C33.1789 38.3362 33.5077 38.6656 33.5077 39.0722V49.4159C33.5077 49.8231 33.1783 50.1519 32.7717 50.1519ZM42.6578 50.1519H35.5093C35.1027 50.1519 34.7733 49.8225 34.7733 49.4159V34.7471C34.7733 34.34 35.1027 34.0111 35.5093 34.0111H42.6584C43.065 34.0111 43.3944 34.3406 43.3944 34.7471V49.4165C43.3938 49.8231 43.065 50.1519 42.6578 50.1519ZM52.5445 50.1519H45.3954C44.9888 50.1519 44.6594 49.8225 44.6594 49.4159V30.4209C44.6594 30.0138 44.9888 29.6849 45.3954 29.6849H52.5439C52.9511 29.6849 53.2799 30.0143 53.2799 30.4209V49.4159C53.2805 49.8231 52.9511 50.1519 52.5445 50.1519ZM52.9731 17.2723C53.2347 17.5211 53.3391 17.8906 53.2469 18.2392L52.2452 21.9935C52.153 22.3346 51.8868 22.6002 51.5457 22.6924C51.4634 22.7139 51.3764 22.7255 51.2911 22.7255C51.033 22.7255 50.7807 22.6234 50.5916 22.4366L49.9751 21.8184L41.949 29.6025C41.5738 29.9703 40.9741 29.9766 40.5872 29.6124L37.5799 26.7866L29.3103 34.8057C28.935 35.1717 28.3341 35.1792 27.9484 34.815L24.9417 31.9892L16.6721 40.0089C16.4812 40.1939 16.2324 40.2861 15.9859 40.2861C15.7278 40.2861 15.4715 40.1858 15.2772 39.9857C14.899 39.5948 14.9089 38.9707 15.3004 38.5908L24.244 29.9169C24.6215 29.5509 25.2207 29.5451 25.6058 29.9076L28.6131 32.7334L36.8833 24.7137C37.2609 24.3495 37.8595 24.3419 38.2452 24.7039L41.2525 27.5302L48.5825 20.4211L47.9897 19.8266C47.7473 19.5825 47.6487 19.2298 47.7316 18.8946C47.8128 18.5611 48.0628 18.2931 48.3905 18.1893L51.9946 17.0455C52.3374 16.9388 52.715 17.0218 52.9731 17.2723Z" fill="black"/>
</svg>
