<svg width="68" height="68" viewBox="0 0 68 68" fill="none" xmlns="http://www.w3.org/2000/svg">
<path fill-rule="evenodd" clip-rule="evenodd" d="M47.2921 17.2039C46.9559 17.4542 46.5551 17.6033 46.1372 17.6336C46.2586 17.4019 46.3327 17.1497 46.4017 16.9146C46.521 16.5084 46.6253 16.1534 46.9333 16.0433C47.0216 16.0135 47.1142 15.9988 47.2074 16.0001C47.4955 16.0162 47.7771 16.0911 48.0349 16.2208C47.886 16.6126 47.6283 16.9537 47.2921 17.2039ZM54.6313 19.7401C54.6853 19.4881 54.8305 19.2652 55.0392 19.1143C54.5373 18.9239 53.9704 18.7462 53.5694 18.6341C53.1231 18.5091 52.8116 18.2134 52.4631 17.8826C52.1187 17.556 51.7384 17.1951 51.1563 16.9307C50.3011 16.5972 49.4017 16.3909 48.4868 16.3179C48.0735 17.6136 46.8017 18.1011 45.7717 18.1221C44.8723 18.9786 44.0608 19.9229 43.3492 20.9407C43.2068 21.1639 43.065 21.4049 42.9174 21.6556C41.9615 23.2791 40.7618 25.3175 37.5648 25.6251C36.3075 25.7459 34.9671 25.7762 33.653 25.7762C32.8883 25.7762 32.1322 25.7659 31.4062 25.7574C30.8808 25.751 30.3711 25.7457 29.885 25.7457C29.3807 25.7371 28.8764 25.7457 28.373 25.7716C27.9466 25.7933 27.5208 25.8272 27.0962 25.8734C24.7186 26.1927 21.0988 27.4349 19.431 29.0318C18.6728 29.7488 18.0681 30.6124 17.6533 31.5701C17.2386 32.5277 17.0224 33.5596 17.0179 34.6031L17.0305 34.8988C17.1071 36.6563 17.2241 39.3336 15.8823 40.7423C14.4629 42.2327 13.753 42.6942 12.9369 43.0491C12.1207 43.4039 11.9432 43.546 12.0142 44.7879C12.0532 45.4696 12.0921 47.1031 12.1252 48.4908L12.1256 48.5098C12.1527 49.6419 12.1757 50.6065 12.1916 50.7498C12.2132 50.9444 12.6961 51.0325 13.1344 51.0404L13.1338 51.0377C13.1501 50.7528 13.1019 50.4678 12.9928 50.2044C12.9887 50.1954 12.9853 50.1861 12.9825 50.1768C12.9785 50.1636 12.9758 50.1502 12.9743 50.1365C12.9736 50.13 12.9731 50.1234 12.973 50.1168C12.9723 50.0865 12.9774 50.0565 12.9882 50.0284C12.9991 50.0001 13.0153 49.9742 13.0362 49.9525C13.057 49.9305 13.082 49.9129 13.1096 49.9007C13.1372 49.8883 13.167 49.8817 13.1971 49.8809C13.2274 49.8802 13.2574 49.8853 13.2856 49.8961C13.3138 49.9071 13.3396 49.9232 13.3614 49.9442C13.3763 49.9583 13.3891 49.9742 13.3997 49.9915C13.4048 49.9998 13.4093 50.0084 13.4132 50.0174C13.4884 50.1971 13.5406 50.3851 13.5692 50.5767C13.5908 50.721 13.599 50.8673 13.5934 51.014C13.6605 51.0059 13.7262 50.9886 13.7885 50.9627C14.0522 50.8795 14.3286 50.8433 14.6048 50.8563C14.8177 50.8206 14.5693 49.6495 14.0725 49.5787L14.0289 49.5726C13.5653 49.5069 13.3982 49.4832 13.3982 48.6915C13.3921 47.5794 13.6218 46.4788 14.0725 45.4622C14.6048 44.3621 16.1307 43.2974 17.3372 42.5523C18.5438 41.807 19.9633 40.9197 20.9215 39.4293C21.1911 39.0098 21.5396 38.2728 21.9392 37.4278C22.5334 36.1707 23.2406 34.6751 23.9696 33.6302C24.6143 32.5894 24.5807 31.1488 24.5018 30.3785C24.5003 30.3651 24.5002 30.3516 24.5012 30.3384C24.5024 30.3218 24.5053 30.3052 24.5101 30.2891C24.515 30.2728 24.5217 30.2569 24.53 30.242C24.5365 30.2308 24.5438 30.22 24.5521 30.2098C24.5711 30.1866 24.5947 30.1671 24.6213 30.1527C24.6479 30.1385 24.677 30.1295 24.707 30.1265C24.7675 30.1212 24.8276 30.1397 24.8747 30.178C24.9217 30.2164 24.952 30.2716 24.9591 30.3319C25.0431 31.1024 25.0047 31.8817 24.8454 32.6402C25.0389 32.4705 25.2791 32.3629 25.5348 32.3319C25.5616 32.3304 25.5896 32.3294 25.6184 32.3294C26.9176 32.3294 30.0116 34.0255 32.2888 35.2738C33.1444 35.7427 33.8846 36.1485 34.3711 36.3775C36.0847 37.199 37.9539 37.6451 39.8538 37.6861C39.894 37.6861 39.9339 37.6846 39.9737 37.6827C40.0341 37.6798 40.0943 37.6759 40.1549 37.6739C40.0771 37.3548 40.0018 37.0836 39.9294 36.8431C39.8748 36.6614 39.8219 36.4974 39.7708 36.3436C39.7408 36.253 39.7114 36.1658 39.6827 36.0809C39.4211 35.3651 39.2425 34.6217 39.1504 33.8653C39.1424 33.8048 39.1589 33.7437 39.1961 33.6954C39.2335 33.6468 39.2883 33.6153 39.3488 33.6075C39.3772 33.6038 39.4055 33.6055 39.4327 33.6121C39.4637 33.6195 39.4931 33.6334 39.5189 33.6534C39.5479 33.6756 39.571 33.7044 39.5864 33.7369C39.5966 33.7586 39.6036 33.7818 39.6068 33.806C39.6947 34.5325 39.8663 35.2464 40.1184 35.9334C40.3217 36.5167 40.4944 37.1099 40.6358 37.7108C40.7475 38.044 41.3587 40.0294 41.3265 43.546C41.2973 46.7181 41.4115 46.9307 41.6493 47.3741C41.7014 47.4715 41.7595 47.5799 41.8233 47.7332C42.1782 48.585 42.8524 50.3594 42.9944 50.8206C43.0633 51.0447 43.434 51.1214 43.8293 51.1324C43.8291 51.0599 43.8235 50.9879 43.8125 50.9168C43.7851 50.7398 43.7252 50.5689 43.6349 50.4127C43.6139 50.38 43.6018 50.3426 43.5993 50.3043C43.5979 50.2828 43.5995 50.2611 43.6041 50.2396C43.6172 50.1802 43.6533 50.1282 43.7044 50.0953C43.7557 50.0626 43.818 50.0511 43.8774 50.064C43.937 50.077 43.989 50.1129 44.0221 50.1639C44.1938 50.4532 44.2859 50.783 44.2885 51.1195C44.4741 51.1082 44.6583 51.0823 44.8397 51.0421C45.1235 50.9627 45.2655 50.6077 44.9461 50.182C44.8347 50.0335 44.6759 49.9368 44.5057 49.8333C44.1878 49.6397 43.8303 49.4219 43.6685 48.7979C43.4201 47.8399 43.4201 42.0909 43.4201 40.21V36.8743C43.4201 36.8743 45.0526 34.1773 45.443 33.0418C45.7773 32.0692 45.8363 31.4398 45.9028 30.7288C45.9458 30.2703 45.9919 29.7781 46.1172 29.1383C46.1831 28.8011 46.2369 28.4988 46.2874 28.2154C46.4815 27.1263 46.6258 26.316 47.2173 24.8797C47.9625 23.0699 48.7433 21.3311 48.7433 21.3311C48.7433 21.3311 51.7589 21.5902 53.5287 21.5902C53.8504 21.5958 54.1723 21.5804 54.4922 21.544C54.7906 21.4993 55.0726 21.379 55.3112 21.1942C55.0682 21.0447 54.8744 20.8272 54.7536 20.5689C54.6328 20.3106 54.5903 20.0223 54.6313 19.7401ZM50.8922 18.598C50.7979 18.598 50.7058 18.5699 50.6274 18.5176C50.549 18.4652 50.488 18.3909 50.452 18.3038C50.4355 18.264 50.4247 18.2225 50.4194 18.1802C50.4131 18.13 50.4148 18.0787 50.4248 18.0284C50.4432 17.9361 50.4886 17.8511 50.5553 17.7845C50.5783 17.7615 50.6035 17.741 50.6303 17.7232C50.6814 17.6898 50.7386 17.6661 50.7992 17.6541C50.8916 17.6358 50.9874 17.6451 51.0746 17.6812C51.1616 17.7174 51.2359 17.7784 51.2883 17.8568C51.3407 17.9351 51.3686 18.0272 51.3686 18.1214C51.3686 18.1839 51.3563 18.2459 51.3324 18.3038C51.3084 18.3616 51.2733 18.4141 51.2291 18.4583C51.1849 18.5025 51.1323 18.5377 51.0746 18.5616C51.0167 18.5855 50.9547 18.598 50.8922 18.598ZM55.2673 19.5113C55.3606 19.4246 55.4778 19.3685 55.6036 19.3497C55.9332 19.5042 56.16 19.6534 56.16 19.7696C56.0969 20.18 55.9174 20.5638 55.6429 20.8753C55.6355 20.8668 55.6274 20.8587 55.6186 20.8514C55.4382 20.7545 55.2907 20.606 55.1952 20.4251C55.0995 20.244 55.0598 20.0384 55.0814 19.8348C55.093 19.7835 55.1108 19.7342 55.1344 19.6878C55.1678 19.6219 55.2127 19.5621 55.2673 19.5113ZM45.8779 33.1912C45.3031 34.5074 44.6355 35.7808 43.8801 37.002V40.21C43.8801 45.234 43.9587 48.0843 44.1137 48.6824C44.1539 48.8487 44.2317 49.0035 44.341 49.1348C44.4504 49.2662 44.5886 49.3707 44.7448 49.4403C44.9632 49.5565 45.1567 49.7149 45.3141 49.9058L45.3226 49.918L45.3311 49.9312L45.3388 49.9434L45.3447 49.9522C45.4809 49.8948 45.5901 49.7872 45.6493 49.6517C45.6633 49.6197 45.6743 49.5865 45.6822 49.5528C45.6867 49.5335 45.6903 49.514 45.6928 49.4942C45.7044 49.4036 45.6945 49.3109 45.6629 49.2237C45.6268 49.1009 45.5671 49.0223 45.4934 48.9652C45.4172 48.9061 45.3261 48.8704 45.2307 48.8328C44.9654 48.7286 44.6668 48.6114 44.5628 47.9464C44.3855 46.8106 44.4564 44.6815 44.5628 42.3038C44.5843 41.825 44.6043 41.345 44.6237 40.8785C44.7008 39.0279 44.7689 37.3917 44.8823 36.9097C44.9043 36.8162 44.9509 36.6844 45.0135 36.5181L45.0464 36.4317L45.098 36.2969C45.3966 35.5196 45.8977 34.2147 46.0477 32.6417C45.9994 32.815 45.9453 32.9952 45.8779 33.1912ZM18.5038 44.056C17.9687 44.7889 17.2745 45.3909 16.4732 45.817C17.3286 45.0469 18.0498 43.4859 18.3646 42.4476C18.5315 42.3404 18.696 42.2298 18.8581 42.1158C19.0985 41.9466 19.3335 41.7698 19.5627 41.5858C19.401 42.4786 19.0389 43.3233 18.5038 44.056ZM14.4427 45.762L14.4579 45.7254C14.4669 45.7042 14.4763 45.6832 14.4864 45.6624C14.8521 45.0286 15.3518 44.4822 15.9505 44.0616C15.5145 45.3326 15.3265 46.6754 15.3969 48.0172L15.7048 48.088C16.237 48.2301 16.8048 49.2237 16.237 49.3301C16.1838 49.3389 16.1303 49.345 16.0765 49.3487C16.0351 49.3514 15.9936 49.3524 15.9521 49.3519C15.9236 49.3519 15.8943 49.3514 15.8643 49.3504C15.8321 49.3492 15.7993 49.3475 15.766 49.3453C15.718 49.3424 15.669 49.3384 15.6196 49.3341C15.6236 49.315 15.6252 49.2955 15.6242 49.2759C15.615 49.0423 15.5521 48.814 15.4404 48.6085C15.409 48.5565 15.3582 48.5189 15.2992 48.5042C15.2888 48.5015 15.2784 48.4998 15.2679 48.4986L15.2529 48.4974C15.2337 48.4967 15.2144 48.4984 15.1958 48.5025C15.1712 48.5076 15.1476 48.5169 15.1256 48.5301C15.098 48.5467 15.0744 48.5687 15.0561 48.5943C15.0399 48.6173 15.0278 48.6431 15.0208 48.671C15.0059 48.7301 15.015 48.7926 15.046 48.8448C15.1163 48.9788 15.1556 49.127 15.161 49.2784C14.9561 49.2469 14.7634 49.2108 14.6143 49.1805C14.4365 49.1446 14.3208 49.1173 14.3208 49.1173C14.3208 49.1173 14.321 47.2335 14.3966 45.8748C14.4072 45.8499 14.4173 45.8248 14.4275 45.7996L14.4427 45.762Z" fill="black"/>
</svg>
