<svg width="68" height="68" viewBox="0 0 68 68" fill="none" xmlns="http://www.w3.org/2000/svg">
<path d="M12.615 43.795C12.6136 45.7128 13.1019 47.5991 14.0335 49.2754C14.9652 50.9517 16.3093 52.3623 17.9387 53.3738C19.568 54.3852 21.4286 54.964 23.3442 55.0552C25.2598 55.1464 27.1669 54.7471 28.885 53.895C30.4583 54.6765 32.1929 55.0782 33.9496 55.0678C35.7063 55.0573 37.4361 54.6351 39 53.835C40.4122 54.5555 41.9606 54.9698 43.5439 55.051C45.1272 55.1322 46.7098 54.8785 48.1884 54.3063C49.6669 53.7342 51.0081 52.8565 52.1244 51.7307C53.2406 50.6049 54.1067 49.2562 54.6662 47.7728C55.2257 46.2894 55.4658 44.7047 55.3711 43.1221C55.2763 41.5396 54.8487 39.9948 54.1162 38.5888C53.3837 37.1828 52.3628 35.9471 51.1202 34.9625C49.8776 33.978 48.4413 33.2666 46.905 32.875L52.845 13.58C52.8682 13.5036 52.8728 13.4226 52.8584 13.344C52.8439 13.2654 52.8108 13.1914 52.7618 13.1282C52.7128 13.0651 52.6494 13.0146 52.5769 12.9809C52.5044 12.9473 52.4249 12.9316 52.345 12.935H15.635C15.5551 12.9316 15.4756 12.9473 15.4031 12.9809C15.3306 13.0146 15.2672 13.0651 15.2182 13.1282C15.1692 13.1914 15.1361 13.2654 15.1216 13.344C15.1072 13.4226 15.1117 13.5036 15.135 13.58L21.075 32.88C18.6557 33.5065 16.5125 34.9179 14.9815 36.8932C13.4506 38.8685 12.6182 41.2959 12.615 43.795ZM23.615 43.795C23.615 41.7638 24.2173 39.7782 25.3458 38.0893C26.4743 36.4004 28.0782 35.0841 29.9548 34.3068C31.8314 33.5295 33.8964 33.3261 35.8886 33.7224C37.8808 34.1186 39.7107 35.0968 41.147 36.5331C42.5833 37.9693 43.5614 39.7993 43.9577 41.7915C44.3539 43.7836 44.1505 45.8486 43.3732 47.7252C42.5959 49.6018 41.2796 51.2057 39.5907 52.3342C37.9018 53.4627 35.9162 54.065 33.885 54.065C31.162 54.0624 28.5514 52.9795 26.6259 51.0541C24.7005 49.1287 23.6176 46.518 23.615 43.795ZM31.115 32.875C30.3513 33.0713 29.6105 33.3479 28.905 33.7C28.1992 33.3499 27.4584 33.075 26.695 32.88L28.905 25.695L31.115 32.875ZM39 25.32L41.325 32.88C40.5198 33.0863 39.74 33.3815 39 33.76C38.2617 33.3816 37.4836 33.0864 36.68 32.88L39 25.32ZM54.385 43.82C54.3823 45.5202 53.9573 47.1931 53.1482 48.6884C52.3391 50.1837 51.1713 51.4547 49.7496 52.3871C48.3279 53.3195 46.6969 53.8842 45.003 54.0305C43.3091 54.1768 41.6055 53.9 40.045 53.225C41.6143 52.2026 42.9035 50.8047 43.796 49.158C44.6885 47.5114 45.1559 45.668 45.1559 43.795C45.1559 41.9221 44.6885 40.0787 43.796 38.4321C42.9035 36.7854 41.6143 35.3875 40.045 34.365C41.6074 33.6893 43.3133 33.4127 45.0092 33.5601C46.7051 33.7076 48.3377 34.2745 49.7601 35.2098C51.1824 36.1451 52.3498 37.4195 53.1571 38.9182C53.9644 40.4168 54.3864 42.0927 54.385 43.795V43.82ZM45.92 32.675C44.7248 32.4772 43.5052 32.4772 42.31 32.675L39.595 23.85C39.5757 23.7898 39.5452 23.7339 39.505 23.685L42.505 13.935H51.69L45.92 32.675ZM26.36 13.93H41.46L35.69 32.675C34.4929 32.4793 33.272 32.4793 32.075 32.675L26.31 13.93H26.36ZM16.31 13.93H25.265L28.36 24L25.69 32.68C24.4948 32.4822 23.2752 32.4822 22.08 32.68L16.31 13.93ZM23.885 33.525C25.232 33.5279 26.5655 33.7946 27.81 34.31C26.216 35.3273 24.904 36.7298 23.9952 38.388C23.0864 40.0462 22.6099 41.9066 22.6099 43.7975C22.6099 45.6885 23.0864 47.5489 23.9952 49.2071C24.904 50.8653 26.216 52.2678 27.81 53.285C26.4067 53.8677 24.8915 54.1316 23.3739 54.0579C21.8562 53.9842 20.3738 53.5747 19.0335 52.8588C17.6933 52.143 16.5285 51.1386 15.6233 49.9182C14.7181 48.6978 14.095 47.2917 13.7989 45.8014C13.5028 44.3111 13.5411 42.7736 13.911 41.2998C14.2809 39.8261 14.9732 38.4528 15.938 37.2789C16.9029 36.1051 18.1161 35.1599 19.4903 34.5117C20.8646 33.8634 22.3655 33.5281 23.885 33.53V33.525Z" fill="black"/>
<path fill-rule="evenodd" clip-rule="evenodd" d="M23.615 43.795C23.615 41.7638 24.2173 39.7782 25.3458 38.0893C26.4743 36.4004 28.0782 35.0841 29.9548 34.3068C31.8314 33.5295 33.8964 33.3261 35.8886 33.7224C37.8808 34.1186 39.7107 35.0968 41.147 36.5331C42.5833 37.9693 43.5614 39.7993 43.9577 41.7915C44.3539 43.7836 44.1505 45.8486 43.3732 47.7252C42.5959 49.6018 41.2796 51.2057 39.5907 52.3342C37.9018 53.4627 35.9162 54.065 33.885 54.065C31.162 54.0624 28.5514 52.9795 26.6259 51.0541C24.7005 49.1287 23.6176 46.518 23.615 43.795ZM52.845 13.58L46.905 32.875C47.0667 32.9163 47.2274 32.961 47.3868 33.0093C48.7416 33.4195 50.0084 34.0816 51.1202 34.9625C52.3628 35.9471 53.3837 37.1828 54.1162 38.5888C54.8487 39.9948 55.2763 41.5396 55.3711 43.1221C55.4658 44.7047 55.2257 46.2894 54.6662 47.7728C54.1067 49.2562 53.2406 50.6049 52.1244 51.7307C51.0081 52.8565 49.6669 53.7342 48.1884 54.3063C46.7098 54.8785 45.1272 55.1322 43.5439 55.051C41.9606 54.9698 40.4122 54.5555 39 53.835C37.4361 54.6351 35.7063 55.0573 33.9496 55.0678C32.1929 55.0782 30.4583 54.6765 28.885 53.895C27.1669 54.7471 25.2598 55.1464 23.3442 55.0552C21.4286 54.964 19.568 54.3852 17.9387 53.3738C16.3093 52.3623 14.9652 50.9517 14.0335 49.2754C13.1019 47.5991 12.6136 45.7128 12.615 43.795C12.6182 41.2959 13.4506 38.8685 14.9815 36.8932C16.4102 35.05 18.3719 33.6977 20.5937 33.0161C20.7528 32.9673 20.9133 32.9219 21.075 32.88L15.135 13.58C15.1117 13.5036 15.1072 13.4226 15.1216 13.344C15.1361 13.2654 15.1692 13.1914 15.2182 13.1282C15.2672 13.0651 15.3306 13.0146 15.4031 12.9809C15.4756 12.9473 15.5551 12.9316 15.635 12.935H52.345C52.4249 12.9316 52.5044 12.9473 52.5769 12.9809C52.6494 13.0146 52.7128 13.0651 52.7618 13.1282C52.8108 13.1914 52.8439 13.2654 52.8584 13.344C52.8728 13.4226 52.8682 13.5036 52.845 13.58ZM52.336 12.435H15.644C15.4885 12.4303 15.334 12.4618 15.1928 12.5273C15.0478 12.5945 14.921 12.6956 14.823 12.8219C14.7251 12.9483 14.6589 13.0962 14.6299 13.2535C14.6009 13.4107 14.6101 13.5726 14.6566 13.7255L20.4466 32.5382C18.1266 33.25 16.0782 34.6621 14.5864 36.5869C12.9876 38.6497 12.1184 41.1846 12.115 43.7944C12.1136 45.7973 12.6235 47.7676 13.5965 49.5183C14.5695 51.269 15.9733 52.7422 17.675 53.7986C19.3766 54.8549 21.3198 55.4594 23.3204 55.5546C25.2387 55.646 27.149 55.2663 28.8848 54.4503C30.4686 55.1959 32.2001 55.5782 33.9526 55.5678C35.7027 55.5574 37.4273 55.1557 39.0003 54.3934C40.4133 55.0762 41.9494 55.4699 43.5183 55.5504C45.1718 55.6352 46.8247 55.3702 48.3688 54.7727C49.913 54.1751 51.3137 53.2585 52.4794 52.0828C53.6452 50.907 54.5498 49.4985 55.134 47.9493C55.7183 46.4001 55.9692 44.745 55.8702 43.0922C55.7712 41.4395 55.3246 39.8262 54.5597 38.3578C53.7947 36.8894 52.7285 35.5989 51.4307 34.5706C50.2702 33.6511 48.9479 32.9598 47.5339 32.5314L53.3229 13.7272L53.3234 13.7255C53.3699 13.5726 53.379 13.4107 53.3501 13.2535C53.3211 13.0962 53.2549 12.9483 53.157 12.8219C53.059 12.6956 52.9322 12.5945 52.7872 12.5273C52.646 12.4618 52.4915 12.4303 52.336 12.435ZM23.8591 33.53C22.3485 33.5319 20.8568 33.8671 19.4903 34.5117C18.1161 35.1599 16.9029 36.1051 15.938 37.2789C14.9732 38.4528 14.2809 39.8261 13.911 41.2998C13.5411 42.7736 13.5028 44.3111 13.7989 45.8014C14.095 47.2917 14.7181 48.6978 15.6233 49.9182C16.5285 51.1386 17.6933 52.143 19.0335 52.8588C20.3738 53.5747 21.8562 53.9842 23.3739 54.0579C24.6862 54.1217 25.9965 53.9329 27.2344 53.504C27.4281 53.4369 27.6201 53.3639 27.81 53.285C27.6396 53.1763 27.4724 53.0631 27.3086 52.9457C25.9401 51.9649 24.8069 50.688 23.9952 49.2071C23.0864 47.5489 22.6099 45.6885 22.6099 43.7975C22.6099 41.9066 23.0864 40.0462 23.9952 38.388C24.8068 36.9072 25.9399 35.6303 27.3083 34.6496C27.4722 34.5321 27.6395 34.4189 27.81 34.31C27.62 34.2313 27.4278 34.1584 27.2339 34.0914C26.3153 33.7737 25.3561 33.5874 24.385 33.5382C24.3184 33.5349 24.2517 33.5321 24.1849 33.53C24.085 33.5269 23.9851 33.5253 23.885 33.525V33.53C23.8764 33.53 23.8677 33.53 23.8591 33.53ZM24.1888 34.0304L23.8844 34.03C22.4389 34.0282 21.011 34.3472 19.7037 34.9639C18.3963 35.5806 17.2422 36.4797 16.3243 37.5964C15.4065 38.7131 14.7479 40.0196 14.396 41.4216C14.0441 42.8236 14.0077 44.2862 14.2893 45.704C14.571 47.1217 15.1638 48.4593 16.0249 49.6203C16.8861 50.7813 17.9941 51.7368 19.2691 52.4178C20.5441 53.0988 21.9543 53.4884 23.3981 53.5585C24.5278 53.6134 25.656 53.4716 26.7329 53.1418C25.4307 52.1479 24.3476 50.8903 23.5567 49.4474C22.6075 47.7156 22.1099 45.7725 22.1099 43.7975C22.1099 41.8226 22.6075 39.8795 23.5567 38.1477C24.3475 36.705 25.4304 35.4476 26.7323 34.4538C25.9077 34.2017 25.0525 34.0591 24.1888 34.0304ZM39.595 23.85L42.31 32.675C43.5052 32.4772 44.7248 32.4772 45.92 32.675L51.69 13.935H42.505L39.505 23.685C39.5452 23.7339 39.5757 23.7898 39.595 23.85ZM40.0458 23.6275C40.0551 23.6505 40.0635 23.6738 40.0711 23.6974L40.0729 23.703L42.6619 32.1184C43.6268 31.9961 44.6033 31.9961 45.5682 32.1184L51.0129 14.435H42.8743L40.0458 23.6275ZM24.115 43.7945C24.1151 41.8624 24.6881 39.9737 25.7615 38.3671C26.8351 36.7604 28.3609 35.5082 30.1462 34.7687C31.9314 34.0293 33.8958 33.8358 35.791 34.2128C37.6862 34.5897 39.4271 35.5202 40.7934 36.8866C42.1598 38.253 43.0903 39.9938 43.4673 41.889C43.8442 43.7842 43.6508 45.7486 42.9113 47.5339C42.1718 49.3191 40.9196 50.845 39.3129 51.9185C37.7064 52.992 35.8176 53.5649 33.8855 53.565C31.295 53.5625 28.8113 52.5323 26.9795 50.7005C25.1477 48.8688 24.1175 46.3851 24.115 43.7945ZM31.115 32.875L28.905 25.695L26.695 32.88C26.8566 32.9213 27.0172 32.9662 27.1767 33.0146C27.7705 33.1948 28.3486 33.424 28.905 33.7C29.4613 33.4224 30.0394 33.1917 30.6335 33.0103C30.7929 32.9617 30.9534 32.9166 31.115 32.875ZM30.4864 32.5325C29.945 32.6978 29.4163 32.9023 28.9043 33.1445C28.3927 32.904 27.8644 32.7009 27.3237 32.5367L28.9052 27.3952L30.4864 32.5325ZM39 25.32L36.68 32.88C36.8416 32.9215 37.0021 32.9666 37.1615 33.0152C37.7949 33.2085 38.4101 33.4577 39 33.76C39.5915 33.4574 40.2084 33.2081 40.8434 33.0149C41.0028 32.9664 41.1634 32.9214 41.325 32.88L39 25.32ZM39.0005 27.0227L37.3082 32.5373C37.8885 32.7143 38.4542 32.9364 39.0002 33.2014C39.5476 32.9362 40.1147 32.7141 40.6964 32.537L39.0005 27.0227ZM53.885 43.7946C53.8863 42.1752 53.4849 40.581 52.7169 39.1553C51.9489 37.7296 50.8384 36.5173 49.4853 35.6276C48.1323 34.7378 46.5792 34.1985 44.9659 34.0582C43.6569 33.9444 42.3416 34.0962 41.098 34.5009C42.3863 35.4985 43.4559 36.7552 44.2356 38.1938C45.1677 39.9136 45.6559 41.8389 45.6559 43.795C45.6559 45.7512 45.1677 47.6764 44.2356 49.3963C43.4559 50.8348 42.3862 52.0916 41.098 53.0892C42.3397 53.4933 43.6529 53.6452 44.96 53.5324C46.5714 53.3932 48.123 52.856 49.4754 51.969C50.8278 51.082 51.9388 49.873 52.7084 48.4505C53.4781 47.028 53.8824 45.4366 53.885 43.8192V43.7946ZM54.385 43.82C54.3823 45.5202 53.9573 47.1931 53.1482 48.6884C52.3391 50.1837 51.1713 51.4547 49.7496 52.3871C48.3279 53.3195 46.6969 53.8842 45.003 54.0305C43.5107 54.1594 42.0107 53.9598 40.6077 53.449C40.4183 53.38 40.2306 53.3053 40.045 53.225C40.2116 53.1165 40.3751 53.0037 40.5353 52.8868C41.8836 51.9029 42.9983 50.6298 43.796 49.158C44.6885 47.5114 45.1559 45.668 45.1559 43.795C45.1559 41.9221 44.6885 40.0787 43.796 38.4321C42.9983 36.9603 41.8836 35.6872 40.5353 34.7033C40.3751 34.5864 40.2116 34.4736 40.045 34.365C40.2306 34.2847 40.4183 34.2101 40.6077 34.1411C42.0126 33.6295 43.5148 33.4302 45.0092 33.5601C46.7051 33.7076 48.3377 34.2745 49.7601 35.2098C51.1824 36.1451 52.3498 37.4195 53.1571 38.9182C53.9644 40.4168 54.3864 42.0927 54.385 43.795V43.82ZM26.31 13.93L32.075 32.675C33.272 32.4793 34.4929 32.4793 35.69 32.675L41.46 13.93H26.31ZM26.9869 14.43H40.7829L35.338 32.1191C34.3715 31.9979 33.3936 31.9979 32.4271 32.1191L26.9869 14.43ZM16.31 13.93L22.08 32.68C23.2752 32.4822 24.4948 32.4822 25.69 32.68L28.36 24L25.265 13.93H16.31ZM16.987 14.43L22.4318 32.1234C23.3967 32.0011 24.3732 32.0011 25.3381 32.1234L27.8369 24L24.8956 14.43H16.987Z" fill="black"/>
</svg>
