<svg width="68" height="68" viewBox="0 0 68 68" fill="none" xmlns="http://www.w3.org/2000/svg">
<path fill-rule="evenodd" clip-rule="evenodd" d="M18.4138 18.0239C18.4138 19.1401 17.5079 20.0457 16.3898 20.0457C15.2737 20.0457 14.3682 19.1401 14.3682 18.0239C14.3682 16.9055 15.2737 16 16.3898 16C17.5083 15.9995 18.4138 16.905 18.4138 18.0239ZM55.8105 33.4163H50.4774L51.4969 30.199L45.9915 31.3108V35.9089L47.181 35.9099V45.1208C47.181 45.8123 47.7409 46.3723 48.4325 46.3723C49.124 46.3723 49.684 45.8123 49.684 45.1208V35.9189H54.106L52.9794 39.5063C52.7721 40.1653 53.139 40.8682 53.7988 41.0754C53.8487 41.0908 53.899 41.103 53.9492 41.1121C54.0244 41.1255 54.0995 41.1323 54.1732 41.1323C54.7053 41.1323 55.1999 40.79 55.3675 40.2556L57.0052 35.0417C57.1241 34.6621 57.0549 34.248 56.8202 33.927C56.5835 33.6067 56.2091 33.4163 55.8105 33.4163ZM54.3871 20.3567L57.7266 23.4001C58.2307 23.7297 58.4835 24.186 58.484 24.7664C58.484 25.2227 58.3022 25.5962 57.9335 25.8872C57.5652 26.1772 57.1558 26.2844 56.7018 26.2085L53.0353 25.3494L51.8069 29.2224L45.9919 30.3896V25.8877H21.5663V25.8757C21.5416 25.8774 21.5209 25.8833 21.498 25.8875C21.4864 25.8894 21.4741 25.8909 21.4603 25.8909H17.8912L17.9225 27.3669H22.8718C23.2874 27.3669 23.9378 27.6826 24.1801 28.1853L26.8063 33.7168C26.8157 33.7327 26.822 33.749 26.8282 33.7654C26.8328 33.7776 26.8375 33.7898 26.8436 33.802L28.134 33.5444V30.2146C28.134 29.2869 28.4578 28.4897 29.1072 27.8252C29.7566 27.1628 30.5461 26.8311 31.4772 26.8311H44.3177V30.7268L31.7418 33.2515L31.7607 34.1826L44.3182 31.6482V35.908L39.5189 35.9009L37.6459 38.4275L40.1404 44.7856C40.3908 45.4302 40.0718 46.1558 39.4257 46.4048C38.7823 46.6538 38.0577 46.3335 37.8077 45.6912L34.9336 38.3645L34.9137 35.9448L33.0359 38.8374L33.0431 38.8433L33.0336 45.1221C33.0336 45.8137 32.4736 46.3735 31.782 46.3735C31.0905 46.3735 30.5305 45.8137 30.5305 45.1221L30.5201 37.3733L31.7565 35.4236V34.5693L30.5201 34.8159V36.3064H28.134V35.2925L26.757 35.5686C27.2053 36.5459 27.4647 37.6294 27.4647 38.7764C27.4647 43.0403 23.996 46.509 19.7326 46.509C15.4687 46.509 12 43.0403 12 38.7764C12 34.5125 15.4687 31.0425 19.7326 31.0425C21.0026 31.0425 22.1978 31.3557 23.2548 31.9026L22.5798 30.3997H16.1834C15.6561 30.3997 15.1951 30.2307 14.8121 29.885C14.4316 29.5396 14.2186 29.1135 14.1802 28.6047L13.8276 22.6201C13.8077 22.0881 13.9739 21.6274 14.3279 21.2351C14.6805 20.8408 15.1136 20.625 15.6235 20.5857C16.1517 20.5674 16.6161 20.7324 17.0085 21.0874C17.4056 21.4402 17.6186 21.8713 17.657 22.3845L17.7734 24.0942H21.4598C22.0491 24.0942 22.3436 24.3867 22.3436 24.9788C22.3436 24.9929 22.3414 25.0044 22.3389 25.0159C22.3364 25.0283 22.3336 25.0403 22.3331 25.0547H46.7919L54.4501 17.1707L54.3871 20.3567ZM31.757 28.3823L30.5206 30.2935V33.0693L31.757 32.8228V28.3823ZM23.9099 34.3862C22.8207 33.3481 21.3538 32.6997 19.7326 32.6997C17.2556 32.6997 15.1288 34.1938 14.184 36.3245L23.9099 34.3862ZM13.6577 38.7754C13.6577 42.1252 16.3823 44.8503 19.7326 44.8503C23.0829 44.8503 25.8075 42.1257 25.807 38.7759C25.807 37.7332 25.5183 36.7666 25.0525 35.9089L13.9947 38.1194C13.9374 38.1309 13.8806 38.1365 13.8248 38.1365C13.8096 38.1365 13.7968 38.1294 13.7817 38.1294L13.7216 38.1406C13.7144 38.2085 13.7053 38.2756 13.6962 38.3428C13.6769 38.4854 13.6577 38.6274 13.6577 38.7754Z" fill="black"/>
</svg>
