<svg width="68" height="68" viewBox="0 0 68 68" fill="none" xmlns="http://www.w3.org/2000/svg">
<path fill-rule="evenodd" clip-rule="evenodd" d="M19.2755 49.4172C19.4229 49.4225 19.5686 49.3837 19.6939 49.3057C19.8191 49.2278 19.9183 49.1141 19.9786 48.9794C20.0389 48.8447 20.0577 48.6953 20.0325 48.5499C20.0074 48.4045 19.9394 48.2698 19.8373 48.1633C19.3193 47.6085 18.8372 47.0293 18.3916 46.429L20.1654 41.3998L25.8151 42.3409L31.0784 47.8881L29.5901 51.1136L22.8103 50.7734C22.478 50.5351 22.1529 50.2867 21.8355 50.0285C21.7605 49.9635 21.6731 49.9142 21.5787 49.8835C21.4842 49.8529 21.3845 49.8416 21.2856 49.8502C21.1867 49.8588 21.0905 49.8871 21.0027 49.9337C20.915 49.9802 20.8374 50.0438 20.7748 50.1208C20.7121 50.1978 20.6655 50.2868 20.6378 50.3822C20.6102 50.4776 20.6019 50.5775 20.6136 50.6761C20.6253 50.7747 20.6567 50.8701 20.7059 50.9563C20.7551 51.0426 20.8212 51.118 20.9001 51.1782C21.8097 51.9181 22.7783 52.5829 23.7962 53.1649C23.9033 53.2287 24.0249 53.2643 24.1495 53.2686V53.2692C24.3158 53.2745 24.4792 53.2237 24.6132 53.1249C24.7472 53.0261 24.844 52.8852 24.8882 52.7247C24.9207 52.6063 24.9232 52.4822 24.8963 52.3637L29.6823 52.6019L33.2618 54.482C31.1883 54.3571 29.1208 53.9083 27.1353 53.1266C27.0441 53.0871 26.9459 53.0665 26.8465 53.0658C26.7472 53.065 26.6487 53.0842 26.5569 53.1222C26.4651 53.1603 26.3819 53.2165 26.3122 53.2873C26.2425 53.3582 26.1878 53.4423 26.1513 53.5348C26.1148 53.6272 26.0973 53.7261 26.0997 53.8254C26.1022 53.9248 26.1245 54.0225 26.1655 54.1131C26.2065 54.2036 26.2653 54.285 26.3384 54.3523C26.4114 54.4197 26.4973 54.4716 26.5909 54.5051C29.9586 55.8311 33.5476 56.2651 37.034 55.846V55.8463C40.5203 55.4271 43.9056 54.1565 46.8631 52.0699C52.778 47.8971 56.1961 41.0249 55.9566 33.7901C55.9538 33.6925 55.9317 33.5964 55.8916 33.5074C55.8515 33.4184 55.7942 33.3381 55.7231 33.2712C55.6519 33.2043 55.5683 33.1523 55.4769 33.1179C55.3856 33.0834 55.2883 33.0672 55.1907 33.0705C55.0931 33.0737 54.9971 33.0961 54.9082 33.1365C54.8193 33.1769 54.7393 33.2346 54.6727 33.306C54.6061 33.3774 54.5543 33.4612 54.5201 33.5527C54.486 33.6441 54.4703 33.7414 54.4739 33.839C54.5245 35.3699 54.3995 36.883 54.1115 38.353L49.8012 34.3196L48.4899 26.7861L50.8898 23.0524C51.1889 23.4816 51.4726 23.9246 51.74 24.381C51.7873 24.4684 51.8517 24.5455 51.9294 24.6075C52.007 24.6695 52.0964 24.7151 52.192 24.7419C52.2877 24.7687 52.3878 24.7761 52.4864 24.7635C52.585 24.7508 52.68 24.7184 52.7658 24.6683C52.8516 24.6182 52.9265 24.5515 52.986 24.4719C53.0455 24.3923 53.0883 24.3014 53.1121 24.2049C53.1358 24.1084 53.1398 24.0082 53.124 23.9101C53.1082 23.812 53.0729 23.718 53.02 23.6338C48.8502 16.5167 40.97 12.4091 32.7478 13.0691C24.5256 13.7291 17.403 19.0386 14.4217 26.7297C11.4404 34.4208 13.1249 43.1447 18.7542 49.174C18.8205 49.2472 18.9007 49.3065 18.9903 49.3483C19.0798 49.3901 19.1767 49.4135 19.2755 49.4172ZM40.3187 53.6441C39.0232 54.0399 37.6929 54.3026 36.349 54.4295L30.9928 51.6152L32.4711 48.4083L39.6927 47.1517L42.5614 49.4989L40.3187 53.6441ZM46.0088 50.8563C44.8741 51.6567 43.6723 52.3286 42.4242 52.8692L44.0047 49.9502L49.0477 48.2178C48.1352 49.1874 47.1193 50.0728 46.0088 50.8563ZM53.7124 40.0112C53.0947 42.1689 52.1184 44.2069 50.8264 46.0389L43.6752 48.4958L40.9759 46.2871L43.3149 38.6008L49.11 35.7045L53.7124 40.0112ZM18.9738 40.3278L17.3603 44.8964C14.961 40.9488 14.0029 36.288 14.6427 31.723L17.3567 33.2027L18.9738 40.3278ZM15.8031 27.2655C15.4315 28.2241 15.1378 29.1998 14.9202 30.1843L17.9409 31.8324L23.1268 27.9441L26.0611 21.0949L22.8654 18.1884C19.7339 20.4151 17.2475 23.5392 15.8031 27.2655ZM27.1672 20.0948L24.1463 17.3494C26.7489 15.7834 29.7208 14.8014 32.8665 14.5489C34.6534 14.4055 36.4225 14.5034 38.1341 14.822L34.7989 18.436L27.1672 20.0948ZM36.1662 19.1393L39.7965 15.2055C43.7454 16.2957 47.3004 18.5828 49.9373 21.7941L47.3642 25.7936L40.4036 24.2831L36.1662 19.1393ZM40.7239 25.8686L38.2046 32.2007L42.8617 37.1694L48.3169 34.4418L47.0658 27.2451L40.7239 25.8686ZM29.0126 32.9893L24.6029 28.2647L27.4828 21.543L34.8996 19.9328L39.345 25.3281L36.812 31.689L29.0126 32.9893ZM27.0636 41.5021L32.2265 46.944L39.6172 45.6611L41.8645 38.2733L37.0629 33.1502L29.3103 34.4427L27.0636 41.5021ZM27.9028 33.9727L23.6427 29.4086L18.8324 33.017L20.4078 39.9357L25.7249 40.8219L27.9028 33.9727ZM55.1875 31.3316C55.0885 31.3788 54.9803 31.4036 54.8706 31.404C54.6957 31.4045 54.5262 31.3431 54.3922 31.2308C54.2581 31.1184 54.168 30.9623 54.1379 30.79C53.8979 29.5177 53.5355 28.2708 53.0548 27.0686C53.0138 26.9774 52.9916 26.8788 52.9896 26.7788C52.9877 26.6788 53.006 26.5794 53.0434 26.4867C53.0809 26.394 53.1367 26.3099 53.2075 26.2393C53.2783 26.1687 53.3627 26.113 53.4556 26.0758C53.5484 26.0387 53.6479 26.0209 53.7478 26.0231C53.8478 26.0254 53.9463 26.0479 54.0374 26.0892C54.1285 26.1305 54.2102 26.1898 54.2778 26.2635C54.3453 26.3373 54.3972 26.424 54.4304 26.5184C54.9467 27.8097 55.3368 29.1484 55.5946 30.5149C55.6165 30.6224 55.6142 30.7333 55.588 30.8398C55.5617 30.9463 55.5122 31.0456 55.443 31.1307C55.3737 31.2157 55.2864 31.2843 55.1875 31.3316Z" fill="black"/>
</svg>
