<svg width="68" height="68" viewBox="0 0 68 68" fill="none" xmlns="http://www.w3.org/2000/svg">
<path fill-rule="evenodd" clip-rule="evenodd" d="M9 25.9002C9 19.8778 13.9051 15 19.9274 15C25.9498 15 30.8276 19.8778 30.8276 25.9002C30.8276 31.9225 25.9498 36.8276 19.9274 36.8276C13.9051 36.8276 9 31.9498 9 25.9002ZM20.9357 36.4461C20.4179 36.3644 19.9002 36.2009 19.4642 35.9011C17.9927 35.8194 16.4939 35.6014 15.0769 35.1653C15.036 35.1653 15.0019 35.1722 14.9679 35.179C14.9338 35.1858 14.8997 35.1926 14.8589 35.1926C16.7119 36.2009 18.8374 36.6369 20.9357 36.4461ZM25.541 32.7946C25.8135 33.2851 26.1133 33.9391 26.0588 34.5113C28.1571 33.0126 29.6286 30.8325 30.2009 28.3527C30.0919 27.9167 29.9011 27.508 29.6286 27.181C29.0291 28.0257 28.2388 28.598 27.3123 29.034C27.1935 29.2715 26.7227 30.2753 25.9179 31.9912L25.541 32.7946ZM26.5858 29.7798L26.5859 29.7797C26.7868 29.3442 26.9193 29.057 26.9853 28.925C26.721 28.555 26.4527 28.1891 26.185 27.8242L26.185 27.8242L26.1849 27.8241L26.1849 27.8241L26.1848 27.824L26.1848 27.824L26.1848 27.8239L26.1848 27.8239L26.1848 27.8239L26.1847 27.8238C25.7624 27.248 25.3417 26.6746 24.9415 26.0909C23.5245 26.3907 22.1075 26.636 20.6905 26.854C20.1999 28.0802 19.6549 29.3065 19.0282 30.4783C19.6822 31.541 20.4179 32.5221 21.2355 33.4213C22.5707 33.2578 23.906 32.9853 25.2413 32.6583C25.8426 31.3906 26.2889 30.4234 26.5858 29.7798ZM20.963 33.6121C20.1182 32.7128 19.3824 31.7045 18.7284 30.669C17.3659 30.5873 15.9216 30.3965 14.6408 29.8788C14.2321 30.6145 13.6871 31.4593 13.0058 32.0043C13.5781 33.0671 14.3411 33.9936 15.1859 34.8383C16.5484 35.2743 17.9927 35.4924 19.4369 35.5741L20.963 33.6121ZM12.7878 31.759C13.4418 31.2413 14.0141 30.342 14.3956 29.6335C14.0413 28.38 13.8778 26.9357 13.7961 25.6277C12.9241 25.0282 12.0521 24.4014 11.2345 23.7474C10.635 24.2379 10.1445 24.8647 9.76301 25.5187C9.62676 26.8812 9.87201 28.38 10.4988 30.0423C11.1528 30.7508 11.9158 31.323 12.7878 31.759ZM20.6632 26.5269C22.053 26.3089 23.47 26.0637 24.887 25.7639C25.214 24.5922 25.5683 23.4476 25.9498 22.3031C24.996 21.1314 23.9333 20.0413 22.816 19.0331C21.508 19.2511 20.1727 19.4691 18.8374 19.6871L18.8374 19.6872C18.5104 20.9952 18.1834 22.3032 17.8292 23.5566C18.9192 24.4014 19.8729 25.3824 20.6632 26.5269ZM29.7649 26.854C30.0101 27.0992 30.2009 27.399 30.3371 27.6987C30.7186 25.5187 30.3916 23.2569 29.4106 21.2676C29.4106 21.7581 29.3834 22.2486 29.2743 22.7391C29.7649 24.2652 29.9284 25.2462 29.7649 26.854ZM28.9746 22.4939C29.1108 21.8671 29.1108 21.2131 29.0563 20.5863C28.2116 19.1421 27.0398 17.9158 25.6228 17.0165C24.8598 16.8258 24.0423 16.6623 23.252 16.6623C23.2792 17.3435 23.3065 18.1611 23.0885 18.8151C24.1785 19.8233 25.2413 20.9134 26.195 22.0851C27.1488 21.8671 28.1026 22.0851 28.9746 22.4939ZM17.5021 23.5021C17.8564 22.2214 18.1834 20.9134 18.5104 19.6053C17.7747 19.0058 16.9844 18.4336 16.1941 17.9158C14.9134 18.3246 13.7416 18.9241 12.6243 19.7143C11.9431 20.8589 11.5615 22.1396 11.398 23.4749C12.2156 24.1289 13.0603 24.7284 13.9323 25.3279C14.8316 24.4014 16.2759 23.8564 17.5021 23.5021ZM9.57226 28.162C9.38151 27.2082 9.32701 26.3089 9.43601 25.4642C9.41653 25.3083 9.4249 24.9018 9.43125 24.5931C9.43379 24.4699 9.43601 24.3623 9.43601 24.2924C9.24525 25.3279 9.32701 27.0992 9.57226 28.162ZM12.5426 19.3601C13.6598 18.5971 14.8589 17.9976 16.1124 17.5888C16.6846 16.7985 17.3931 16.1445 18.2652 15.7085C18.0472 15.654 17.8019 15.6268 17.5021 15.6268C15.2949 16.1173 13.3328 17.3435 11.8613 19.0603C12.1338 19.0603 12.3791 19.1421 12.5426 19.3601ZM18.7012 15.5178C20.2272 15.2453 21.8622 15.7358 23.1702 16.3353C23.688 16.3353 24.1785 16.3898 24.6963 16.4715C22.7887 15.5178 20.6087 15.1363 18.5104 15.436C18.5922 15.4633 18.6467 15.4905 18.7012 15.5178ZM30.5148 39.2085C36.2126 35.8442 42.8336 36.0553 44.9627 39.6612C47.0918 43.2671 44.0626 49.1391 38.381 52.5309C35.8762 54.0099 32.7186 54.7606 29.7703 54.6083C26.9645 54.4459 24.7783 53.5095 23.9331 52.0782C23.088 50.6469 23.324 48.2802 24.5369 45.745C25.8388 43.046 28.0099 40.6875 30.5148 39.2085ZM30.8398 39.759C25.4448 42.9445 23.0859 49.3859 24.4836 51.7531C25.1987 52.9643 27.2487 53.7956 29.7968 53.9615C32.63 54.1076 35.645 53.3668 38.0397 51.9529C43.3522 48.8161 46.3137 43.2067 44.3959 39.9587C42.4781 36.7107 36.1523 36.6223 30.8398 39.759ZM43.3663 40.6041C43.2688 40.4389 43.0937 40.3938 42.9285 40.4913L37.8913 43.4655L37.1762 42.2544C37.0787 42.0892 36.9036 42.0442 36.7384 42.1417C36.5733 42.2392 36.5282 42.4143 36.6257 42.5795L37.3408 43.7906L36.2123 44.4569L35.4971 43.2456C35.3996 43.0805 35.2245 43.0354 35.0593 43.1329C34.8941 43.2304 34.8491 43.4055 34.9466 43.5707L35.6618 44.782L34.5608 45.4321L33.8456 44.2207C33.7481 44.0556 33.573 44.0105 33.4078 44.108C33.2427 44.2055 33.1976 44.3806 33.2951 44.5458L34.0103 45.7571L32.9093 46.4072L32.194 45.1958C32.0965 45.0307 31.9214 44.9856 31.7563 45.0831C31.5911 45.1806 31.546 45.3557 31.6435 45.5209L32.3588 46.7323L31.2578 47.3824L30.5425 46.1709C30.445 46.0058 30.2699 45.9607 30.1047 46.0582C29.9396 46.1557 29.8945 46.3308 29.992 46.496L30.7073 47.7074L25.67 50.6817C25.5048 50.7792 25.4597 50.9543 25.5572 51.1195C25.6547 51.2846 25.8299 51.3297 25.995 51.2322L31.0323 48.2579L31.731 49.4412C31.8285 49.6063 32.0036 49.6514 32.1688 49.5539C32.3339 49.4564 32.379 49.2813 32.2815 49.1161L31.5828 47.9329L32.6839 47.2828L33.3826 48.4661C33.4801 48.6313 33.6552 48.6763 33.8203 48.5788C33.9855 48.4813 34.0306 48.3062 33.9331 48.141L33.2344 46.9577L34.3354 46.3076L35.0341 47.491C35.1316 47.6562 35.3067 47.7012 35.4719 47.6037C35.637 47.5062 35.6821 47.3311 35.5846 47.166L34.8859 45.9826L35.9869 45.3325L36.6856 46.5159C36.7831 46.6811 36.9582 46.7262 37.1234 46.6286C37.2885 46.5311 37.3336 46.356 37.2361 46.1909L36.5374 45.0074L37.6659 44.3411L38.3647 45.5247C38.4623 45.6898 38.6374 45.7349 38.8025 45.6374C38.9677 45.5399 39.0128 45.3648 38.9153 45.1996L38.2164 44.0161L43.2811 41.0256C43.4187 40.9443 43.4476 40.7417 43.3663 40.6041ZM37.3656 18.4698C39.8636 15.9714 44.216 16.2198 47.0749 19.0788C48.6064 20.61 49.3888 22.5697 49.4014 24.4434C49.4037 24.4649 49.4044 24.4867 49.4036 24.5089L49.401 24.5788C49.3996 24.6866 49.3956 24.794 49.3891 24.9011L49.3572 25.7623C49.2869 27.6678 50.013 29.517 51.3616 30.8651L52.0521 31.556L52.1894 31.4187C52.3722 31.2354 52.6694 31.2354 52.8522 31.4187L57.5397 36.1062C57.8763 36.4428 58.0657 36.8993 58.0657 37.3751C58.0657 37.8509 57.8763 38.3075 57.5397 38.644C57.2032 38.9806 56.7466 39.17 56.2708 39.17C55.795 39.17 55.3385 38.9806 55.0019 38.644L51.7282 35.3704L51.7206 35.3629L51.7132 35.3553L50.3144 33.9565C50.1311 33.7737 50.1311 33.4765 50.3144 33.2937L50.4518 33.1563L49.7608 32.4657C48.4127 31.1171 46.5634 30.391 44.658 30.4614L43.7987 30.4932C43.6904 30.4998 43.5818 30.5038 43.4727 30.5052L43.4045 30.5078C43.3825 30.5086 43.3608 30.5078 43.3395 30.5056C41.4656 30.4931 39.5059 29.7106 37.9746 28.1791C35.1156 25.3202 34.8672 20.9678 37.3656 18.4698ZM55.6647 37.9812L52.7149 35.0314L53.9271 33.8192L56.8769 36.769C57.0377 36.9298 57.1282 37.1478 57.1282 37.3751C57.1282 37.6025 57.0377 37.8204 56.8769 37.9812C56.7161 38.142 56.4982 38.2325 56.2708 38.2325C56.0435 38.2325 55.8255 38.142 55.6647 37.9812ZM52.5208 32.4129L53.2643 33.1564L52.0521 34.3686L51.3086 33.6251L52.3834 32.5503L52.5208 32.4129ZM46.518 29.6866C47.9846 29.9957 49.3453 30.724 50.4241 31.8024L51.1147 32.4934L51.3892 32.2189L50.6983 31.5284C49.6198 30.4496 48.8914 29.0888 48.5824 27.6222C48.3402 28.0382 48.0441 28.427 47.6936 28.7791L47.6842 28.7887L47.6746 28.798C47.3226 29.1484 46.9339 29.4445 46.518 29.6866ZM46.6738 28.4411C46.1047 28.9092 45.4482 29.2299 44.747 29.4074L43.3399 28.0003L44.7864 26.5537L46.6738 28.4411ZM42.677 27.3374L44.1236 25.8909L42.4427 24.2099L40.9961 25.6565L42.677 27.3374ZM40.3333 26.3193L42.0142 28.0003L40.9436 29.0709C40.2169 28.7679 39.5191 28.3295 38.8928 27.7598L40.3333 26.3193ZM39.6705 25.6565L38.2403 27.0866C37.6864 26.4375 37.2682 25.7188 36.9901 24.975L37.9895 23.9756L39.6705 25.6565ZM37.3267 23.3128L36.6969 23.9425C36.6067 23.4834 36.5687 23.0226 36.5839 22.5699L37.3267 23.3128ZM36.9147 21.5751L37.9895 22.6499L39.4361 21.2034L37.713 19.4803C37.2326 20.0643 36.9074 20.7404 36.733 21.4624C36.7994 21.4847 36.8618 21.5222 36.9147 21.5751ZM40.0989 21.8662L38.6524 23.3128L40.3333 24.9937L41.7799 23.5471L40.0989 21.8662ZM42.4427 22.8843L40.7617 21.2034L42.2083 19.7568L43.8892 21.4378L42.4427 22.8843ZM38.3758 18.8174L40.0989 20.5406L41.5455 19.094L40.4706 18.0192C40.4177 17.9663 40.3801 17.9038 40.3578 17.8372C39.6359 18.0117 38.9598 18.3369 38.3758 18.8174ZM43.8708 18.0943L42.8711 19.094L44.552 20.7749L45.9824 19.3445C45.3333 18.7906 44.6146 18.3724 43.8708 18.0943ZM41.4652 17.6881L42.2083 18.4312L42.8383 17.8011C42.3791 17.7109 41.918 17.6729 41.4652 17.6881ZM43.1055 23.5471L44.552 22.1006L46.233 23.7815L44.7864 25.2281L43.1055 23.5471ZM45.2149 21.4378L46.8958 23.1187L47.9667 22.0478C47.6637 21.3211 47.2253 20.6233 46.6556 19.997L45.2149 21.4378ZM46.8958 24.4443L45.4492 25.8909L47.3367 27.7783C47.8048 27.2092 48.1256 26.5528 48.3031 25.8516L46.8958 24.4443ZM48.4589 24.6818L47.5586 23.7815L48.2939 23.0462C48.4061 23.5109 48.4648 23.9794 48.469 24.4413C48.4678 24.4521 48.467 24.4631 48.4666 24.4742L48.4589 24.6818ZM43.577 29.5631L42.677 28.6631L41.942 29.3981C42.4065 29.5103 42.8749 29.569 43.3366 29.5732C43.3476 29.572 43.3587 29.5712 43.3699 29.5707L43.577 29.5631ZM58.1458 20.0312C58.1458 18.2205 56.6753 16.75 54.8646 16.75C53.0538 16.75 51.5833 18.2205 51.5833 20.0312C51.5833 21.842 53.0538 23.3125 54.8646 23.3125C56.6753 23.3125 58.1458 21.842 58.1458 20.0312ZM52.5208 20.0312C52.5208 19.3808 52.7862 18.792 53.2145 18.3673C53.3293 18.7422 53.4583 19.3213 53.4583 20.0312C53.4583 20.7412 53.3293 21.3203 53.2145 21.6952C52.7862 21.2704 52.5208 20.6816 52.5208 20.0312ZM54.8646 17.6875C54.5696 17.6875 54.2873 17.7421 54.0272 17.8417C54.1804 18.2678 54.3958 19.0431 54.3958 20.0312C54.3958 21.0194 54.1803 21.7947 54.0272 22.2208C54.2873 22.3204 54.5696 22.375 54.8646 22.375C55.1595 22.375 55.4418 22.3204 55.7019 22.2208C55.5488 21.7947 55.3333 21.0194 55.3333 20.0312C55.3333 19.0431 55.5488 18.2679 55.7019 17.8417C55.4418 17.7421 55.1595 17.6875 54.8646 17.6875ZM56.5146 18.3673C56.3998 18.7422 56.2708 19.3213 56.2708 20.0312C56.2708 20.7412 56.3998 21.3203 56.5147 21.6952C56.9429 21.2704 57.2083 20.6816 57.2083 20.0312C57.2083 19.3808 56.9429 18.792 56.5146 18.3673Z" fill="black"/>
</svg>
