<svg width="68" height="68" viewBox="0 0 68 68" fill="none" xmlns="http://www.w3.org/2000/svg">
<path d="M56.009 46.7639C56.0088 47.0281 55.9262 47.2857 55.7727 47.5007C55.6193 47.7157 55.4025 47.8775 55.1527 47.9635C54.9029 48.0495 54.6325 48.0554 54.3792 47.9804C54.1259 47.9054 53.9022 47.7533 53.7395 47.5452L34.0188 22.3303L14.2922 47.5471C14.1916 47.6839 14.0646 47.7992 13.9186 47.886C13.7727 47.9728 13.6108 48.0295 13.4426 48.0526C13.2743 48.0758 13.1031 48.0649 12.9392 48.0207C12.7752 47.9765 12.6218 47.8999 12.488 47.7953C12.3541 47.6908 12.2426 47.5605 12.1601 47.4121C12.0775 47.2637 12.0256 47.1002 12.0074 46.9314C11.9891 46.7625 12.0049 46.5917 12.0538 46.4291C12.1028 46.2665 12.1838 46.1154 12.2922 45.9846L33.0188 19.4885C33.1373 19.3364 33.289 19.2133 33.4623 19.1286C33.6356 19.0439 33.8259 18.9999 34.0188 18.9999C34.2117 18.9999 34.402 19.0439 34.5753 19.1286C34.7486 19.2133 34.9003 19.3364 35.0188 19.4885L55.7395 45.9827C55.9143 46.2055 56.0093 46.4807 56.009 46.7639Z" fill="black"/>
</svg>
