<svg width="68" height="68" viewBox="0 0 68 68" fill="none" xmlns="http://www.w3.org/2000/svg">
<path d="M53.0388 33.9764C53.0388 23.4701 44.4818 14.9612 33.9764 14.9612C23.4705 14.9612 14.9612 23.4705 14.9612 33.9764C14.9612 44.4818 23.4701 53.0388 33.9764 53.0388C44.482 53.0388 53.0388 44.5297 53.0388 33.9764ZM34.8209 51.431C37.3146 51.2904 39.8556 50.924 42.2671 50.1988C39.4471 51.6361 36.2872 52.3198 33.1308 52.1873C33.7264 52.0229 34.3042 51.7806 34.8209 51.431ZM23.4686 47.3182C23.3188 47.7527 23.2162 48.2066 23.2144 48.6466C19.7218 46.0782 17.2713 42.4003 16.301 38.2279C16.4731 37.5537 16.7599 36.9224 17.1591 36.4023C18.1925 37.8032 19.532 38.7652 21.0856 39.5018C21.3188 39.9742 22.127 41.6972 23.4829 44.5878C23.6796 45.0073 23.8879 45.4514 24.1077 45.9198C23.8792 46.3354 23.6412 46.8175 23.4686 47.3182ZM24.8549 45.581C23.8279 43.4153 23.0628 41.7572 22.5516 40.6493C22.2333 39.9594 22.0135 39.483 21.8902 39.2302C22.3323 38.6123 22.782 37.9992 23.2312 37.3868C23.9476 36.4101 24.6625 35.4354 25.3427 34.4465C27.7506 34.9538 30.158 35.3708 32.5645 35.742C33.4 37.8258 34.3272 39.9102 35.3907 41.9058C34.2823 43.6989 33.0389 45.3564 31.6605 46.8786C29.3936 46.5976 27.1253 46.1355 24.8549 45.581ZM32.346 47.3487C33.7716 45.8185 35.0169 44.1121 36.1257 42.3617C38.4369 42.2199 40.8901 41.8941 43.0825 41.0281C43.77 42.254 44.6794 43.6494 45.8123 44.5864C44.8387 46.3674 43.5525 47.928 42.1267 49.3565C39.807 50.0954 37.3482 50.4694 34.8848 50.6129L32.346 47.3487ZM50.208 41.0877C49.1066 42.2768 47.8259 43.2414 46.3651 43.982C45.2919 43.1052 44.3445 41.6268 43.6972 40.4314C44.2997 38.2773 44.581 35.8098 44.723 33.5727C46.1907 32.5626 47.6586 31.5072 49.0399 30.4067C50.0225 31.2295 50.833 32.268 51.4698 33.3547C51.697 35.6785 51.2789 38.2399 50.208 41.0877ZM32.6432 34.9269C30.2851 34.5562 27.8831 34.1398 25.4813 33.6336C24.9259 31.6484 24.3254 29.708 23.6799 27.7683C25.3042 25.7792 27.1105 23.926 29.0095 22.2088C31.231 22.5789 33.4974 22.949 35.7641 23.3191C36.317 25.5309 36.871 27.7437 37.4696 29.868C35.6195 31.3115 33.9956 32.983 32.6432 34.9269ZM16.7977 35.5833C16.4758 35.9146 16.209 36.297 15.9969 36.6901C15.4691 33.233 15.9691 29.6742 17.4241 26.4876C17.4429 27.1532 17.5026 27.8219 17.6487 28.4921C16.8086 31.1125 16.5233 32.8221 16.7977 35.5833ZM28.0848 18.0928C28.0409 19.2168 28.009 20.558 28.3547 21.6603C26.5016 23.3782 24.6941 25.2334 23.0663 27.2261C21.4553 26.8799 19.8528 27.2316 18.3881 27.8939C18.1892 26.8804 18.1909 25.8258 18.278 24.8063C19.7276 22.3365 21.7332 20.2388 24.1562 18.6972C25.4279 18.38 26.7779 18.1098 28.0848 18.0928ZM38.2813 29.7199C37.682 27.5487 37.1273 25.3325 36.5727 23.1141C37.8111 22.1089 39.1373 21.1486 40.4649 20.2766C42.6411 20.9776 44.6354 21.9994 46.5389 23.3429C47.6888 25.2831 48.3401 27.4527 48.6253 29.7193C47.256 30.8115 45.8418 31.817 44.3815 32.8223C42.8111 31.2539 40.3608 30.3253 38.2813 29.7199ZM47.6939 22.0126C47.3339 22.0551 47.0019 22.1927 46.7503 22.4746C44.8433 21.1844 42.8002 20.1667 40.6653 19.4664C39.7374 18.1933 38.6036 17.1213 37.2258 16.3661C37.5031 16.321 37.811 16.298 38.1658 16.2974C41.8751 17.1248 45.1826 19.1605 47.6939 22.0126ZM33.192 15.8106C31.4662 16.0247 29.7794 16.6127 28.3292 17.2753C27.7108 17.2766 27.1148 17.3222 26.5117 17.3966C28.6217 16.456 30.8993 15.9118 33.192 15.8106Z" fill="black" stroke="black" stroke-width="0.25"/>
</svg>
