<svg width="68" height="68" viewBox="0 0 68 68" fill="none" xmlns="http://www.w3.org/2000/svg">
<path d="M40.8362 13.3C40.655 13.3094 40.4774 13.3544 40.3135 13.4325C40.1497 13.5105 40.0028 13.6201 39.8813 13.7549C39.7598 13.8897 39.6661 14.0472 39.6054 14.2182C39.5448 14.3893 39.5184 14.5706 39.5279 14.7519C39.5373 14.9331 39.5824 15.1107 39.6604 15.2745C39.7385 15.4384 39.8481 15.5852 39.983 15.7067C40.1178 15.8282 40.2753 15.9219 40.4463 15.9825C40.6174 16.0431 40.7987 16.0694 40.98 16.06H50.64V51.94H40.98C40.7971 51.9374 40.6156 51.9712 40.4459 52.0394C40.2762 52.1075 40.1217 52.2088 39.9915 52.3372C39.8613 52.4656 39.7578 52.6186 39.6873 52.7873C39.6167 52.956 39.5803 53.1371 39.5803 53.32C39.5803 53.5029 39.6167 53.6839 39.6873 53.8526C39.7578 54.0213 39.8613 54.1743 39.9915 54.3027C40.1217 54.4312 40.2762 54.5324 40.4459 54.6006C40.6156 54.6688 40.7971 54.7026 40.98 54.7H52.02C52.386 54.6999 52.737 54.5545 52.9957 54.2957C53.2545 54.0369 53.3999 53.686 53.4 53.32V14.68C53.3999 14.314 53.2545 13.963 52.9957 13.7042C52.737 13.4454 52.386 13.3 52.02 13.3H40.98C40.9321 13.2975 40.8841 13.2975 40.8362 13.3ZM31.7081 22.4856C31.4353 22.4985 31.1724 22.592 30.9528 22.7543C30.7331 22.9167 30.5666 23.1405 30.4743 23.3975C30.3819 23.6546 30.3679 23.9332 30.434 24.1982C30.5001 24.4632 30.6434 24.7027 30.8456 24.8862L39.2694 32.62H17.98C17.9321 32.6177 17.8841 32.6177 17.8362 32.62C17.1136 32.6575 16.4905 33.3492 16.5281 34.0718C16.5657 34.7945 17.2573 35.4177 17.98 35.38H39.2694L30.8456 43.0993C30.702 43.2191 30.5843 43.3669 30.4995 43.5335C30.4148 43.7002 30.3648 43.8824 30.3526 44.069C30.3403 44.2556 30.3662 44.4427 30.4285 44.619C30.4908 44.7953 30.5883 44.9571 30.7151 45.0946C30.8418 45.2321 30.9952 45.3424 31.1659 45.4188C31.3365 45.4952 31.521 45.5361 31.7079 45.5391C31.8949 45.542 32.0805 45.5069 32.2535 45.436C32.4265 45.365 32.5833 45.2596 32.7144 45.1262L43.7544 35.0062C43.8941 34.877 44.0057 34.7203 44.082 34.5458C44.1582 34.3714 44.1976 34.1831 44.1976 33.9928C44.1976 33.8024 44.1582 33.6141 44.082 33.4397C44.0057 33.2653 43.8941 33.1086 43.7544 32.9793L32.7144 22.8593C32.5801 22.733 32.4219 22.6348 32.2491 22.5706C32.0762 22.5064 31.8923 22.4775 31.7081 22.4856Z" fill="black"/>
</svg>
