<svg width="68" height="68" viewBox="0 0 68 68" fill="none" xmlns="http://www.w3.org/2000/svg">
<mask id="path-1-outside-1" maskUnits="userSpaceOnUse" x="15.443" y="8.34424" width="39" height="47" fill="black">
<rect fill="white" x="15.443" y="8.34424" width="39" height="47"/>
<path fill-rule="evenodd" clip-rule="evenodd" d="M53.1165 40.6783C53.1732 41.0847 53.2375 41.545 53.3481 42.0979C53.9421 45.3979 53.3481 48.1699 52.5561 49.1599C52.2921 49.5559 51.8301 49.8199 51.3021 49.8199C50.4441 49.7539 49.6521 49.4239 48.9261 48.9619L48.7281 48.8299C47.8041 48.3019 46.8801 47.7079 46.0221 47.0479C45.5601 49.0279 45.4281 51.1399 45.4941 53.1859C45.4941 53.5819 45.2301 53.9779 44.8341 53.9779H44.7681C44.3721 53.9779 44.0421 53.7139 44.0421 53.3179C43.7121 50.6779 44.4381 46.9819 44.7021 45.7939C44.4381 45.53 44.1741 45.2 43.9102 44.87L43.9101 44.8699C42.3921 42.6259 40.7421 40.5139 38.9601 38.5339C38.2341 37.8079 38.1681 37.8079 37.8381 37.8079C36.9801 37.8079 36.0561 37.6759 35.1981 37.3459C34.3401 37.1479 33.5481 36.4879 33.1521 35.6959C32.0961 33.7159 32.9541 30.8119 33.0201 30.6799C33.0201 30.6799 33.0201 30.6139 33.2181 30.6139C33.2181 30.6139 34.8681 27.5119 38.4321 29.2279C40.3821 30.1379 40.7317 31.048 41.0571 31.8949C41.0621 31.9079 41.0671 31.9209 41.0721 31.9339C41.2701 32.5279 41.6661 33.0559 42.1941 33.3859C42.7881 33.7819 43.4481 34.1779 44.1081 34.5739C45.8241 35.5639 47.7381 36.6859 49.1241 38.4019C49.3881 38.6659 49.3221 39.1279 48.9921 39.3919C48.7281 39.6559 48.2661 39.5899 48.0021 39.2599C46.8141 37.7419 45.0981 36.7519 43.3821 35.7619C42.6561 35.3659 41.9961 34.9699 41.4021 34.5739C40.6101 34.0459 40.0161 33.2539 39.7521 32.3959C39.4881 31.6699 39.2901 31.1419 37.8381 30.4819C35.7261 29.4919 34.7361 30.8779 34.5381 31.2079C34.3401 31.9339 33.9441 33.9139 34.6041 35.1019C34.8681 35.6299 35.2641 35.9599 35.7921 36.0919C36.5181 36.3559 37.3101 36.4879 38.1021 36.4879C38.8941 36.4879 39.2241 36.6859 40.2141 37.6759C41.9961 39.7219 43.7121 41.8999 45.2301 44.2099C46.3521 45.7279 47.8041 46.8499 49.4541 47.6419L49.6521 47.7739C51.1701 48.5659 51.3021 48.5659 51.5001 48.3679C51.9621 47.8399 52.5561 45.5299 52.0281 42.4279C51.8961 41.7679 51.8301 41.2399 51.7641 40.7119C51.7457 40.6016 51.7281 40.4949 51.7111 40.3916C51.4226 38.6406 51.2908 37.8406 49.9821 36.1579C49.8501 36.0259 49.8501 35.8279 49.8501 35.6299C49.9821 33.9139 49.4541 32.1979 48.4641 30.7459C47.4081 29.2939 45.8241 28.3699 44.1081 28.0399C43.9101 28.0399 43.7781 27.9739 43.6461 27.8419C42.2601 26.5879 40.5441 25.6639 38.7621 25.1359C38.7291 25.1029 38.6961 25.0864 38.6631 25.0699C38.6301 25.0534 38.5971 25.0369 38.5641 25.0039C37.5741 24.2779 37.2441 22.9579 37.8381 21.8359C38.3661 20.7799 38.6301 18.0739 37.9701 14.7079C37.3761 11.6719 36.2541 10.6819 33.5481 10.8799C30.7101 11.0779 28.9941 11.9359 29.1921 15.6979C29.3901 19.7239 29.5881 20.1859 31.6341 22.1659C33.3501 23.8159 35.5281 22.2979 35.5941 22.2319C35.9241 21.9679 36.3201 22.0339 36.5841 22.3639C36.8481 22.6939 36.7821 23.0899 36.4521 23.3539C35.3961 24.1459 32.7561 25.1359 30.6441 23.1559C28.2681 20.9119 27.9381 20.0539 27.7401 15.6979C27.4761 10.4179 30.6441 9.55992 33.4161 9.36192C36.8481 9.16392 38.6301 10.6159 39.3561 14.3779C40.0161 17.6779 39.8841 20.8459 39.0921 22.4299C38.8281 22.8259 38.8941 23.3539 39.2901 23.6839C41.2041 24.2119 42.9861 25.2019 44.5041 26.5219C46.5501 26.9179 48.3981 28.1059 49.5861 29.8219C50.7081 31.4719 51.3021 33.4519 51.2361 35.4319C52.6221 37.4119 52.8201 38.4679 53.0841 40.4479C53.0948 40.5229 53.1055 40.5996 53.1165 40.6783ZM25.76 21.1761C26.618 20.9781 27.608 21.2421 28.268 21.8361C29.39 22.6281 29.984 23.9481 29.918 25.2021C29.918 26.1921 29.456 27.0501 28.73 27.6441C28.07 28.1721 27.278 28.5021 26.42 28.6341C25.892 29.9541 25.496 31.2741 25.298 32.5941C25.1 34.3101 24.836 36.0261 24.374 37.6761C24.308 38.0721 23.912 38.2701 23.516 38.2041C23.12 38.1381 22.922 37.7421 22.988 37.3461C23.45 35.7621 23.714 34.1781 23.912 32.5941C24.11 31.3401 24.44 30.0201 24.902 28.8321C24.77 28.8321 24.572 28.8321 24.374 28.7661C23.186 28.5681 22.328 27.4461 22.46 26.2581C22.526 25.8621 22.856 25.5981 23.252 25.5981C23.648 25.6641 23.912 25.9941 23.912 26.3901C23.846 26.9181 24.176 27.3141 24.638 27.3801C25.76 27.5781 26.948 27.3801 27.872 26.7201C28.268 26.3901 28.532 25.9281 28.532 25.4001C28.598 24.4761 28.136 23.6181 27.41 23.0901C27.08 22.8261 26.684 22.6941 26.222 22.6941C24.572 23.2221 22.856 24.1461 22.592 25.0041C22.5327 25.1821 22.4734 25.3734 22.408 25.5841C22.328 25.8421 22.239 26.1291 22.13 26.4561C21.602 27.9081 21.206 29.4261 20.942 31.0101C20.942 31.2081 20.876 31.3401 20.744 31.4721C18.83 33.8481 17.774 36.8181 17.84 39.8541C17.84 40.6461 18.038 41.6361 18.632 41.9001C19.622 42.3621 21.404 41.3061 21.932 40.9101C21.998 40.8441 22.13 40.7781 22.262 40.7781C23.516 40.5801 24.77 40.2501 25.958 39.7881C25.628 39.1941 25.364 38.4681 25.232 37.8081C25.1 37.4121 25.364 37.0161 25.76 36.9501C26.156 36.8181 26.552 37.0821 26.618 37.4781C26.882 38.5341 27.344 39.5241 28.07 40.3161L28.862 41.1081C29.126 41.2401 29.258 41.5701 29.126 41.9001C28.994 42.2961 28.598 42.4941 28.202 42.3621C28.202 43.8801 28.334 45.3981 28.598 46.8501V47.1801C27.938 49.4241 27.476 51.7341 27.146 54.1101C27.08 54.5061 26.816 54.7701 26.42 54.7701C26.09 54.7041 25.76 54.3741 25.826 53.9781C26.09 51.6021 26.618 49.2261 27.278 46.9161C26.948 44.9361 26.816 42.9561 26.882 40.9761C25.562 41.5701 24.176 41.9661 22.724 42.0981C21.734 42.8241 20.546 43.2201 19.292 43.3521C18.896 43.3521 18.5 43.2861 18.104 43.0881C17.114 42.5601 16.52 41.5041 16.454 39.7881C16.322 36.4881 17.378 33.1881 19.49 30.6141C19.82 29.0301 20.216 27.4461 20.744 25.9281C20.8308 25.6677 20.905 25.4199 20.972 25.196C21.0578 24.9092 21.1319 24.6614 21.206 24.4761C21.668 22.7601 24.242 21.6381 25.76 21.1761Z"/>
</mask>
<path fill-rule="evenodd" clip-rule="evenodd" d="M53.1165 40.6783C53.1732 41.0847 53.2375 41.545 53.3481 42.0979C53.9421 45.3979 53.3481 48.1699 52.5561 49.1599C52.2921 49.5559 51.8301 49.8199 51.3021 49.8199C50.4441 49.7539 49.6521 49.4239 48.9261 48.9619L48.7281 48.8299C47.8041 48.3019 46.8801 47.7079 46.0221 47.0479C45.5601 49.0279 45.4281 51.1399 45.4941 53.1859C45.4941 53.5819 45.2301 53.9779 44.8341 53.9779H44.7681C44.3721 53.9779 44.0421 53.7139 44.0421 53.3179C43.7121 50.6779 44.4381 46.9819 44.7021 45.7939C44.4381 45.53 44.1741 45.2 43.9102 44.87L43.9101 44.8699C42.3921 42.6259 40.7421 40.5139 38.9601 38.5339C38.2341 37.8079 38.1681 37.8079 37.8381 37.8079C36.9801 37.8079 36.0561 37.6759 35.1981 37.3459C34.3401 37.1479 33.5481 36.4879 33.1521 35.6959C32.0961 33.7159 32.9541 30.8119 33.0201 30.6799C33.0201 30.6799 33.0201 30.6139 33.2181 30.6139C33.2181 30.6139 34.8681 27.5119 38.4321 29.2279C40.3821 30.1379 40.7317 31.048 41.0571 31.8949C41.0621 31.9079 41.0671 31.9209 41.0721 31.9339C41.2701 32.5279 41.6661 33.0559 42.1941 33.3859C42.7881 33.7819 43.4481 34.1779 44.1081 34.5739C45.8241 35.5639 47.7381 36.6859 49.1241 38.4019C49.3881 38.6659 49.3221 39.1279 48.9921 39.3919C48.7281 39.6559 48.2661 39.5899 48.0021 39.2599C46.8141 37.7419 45.0981 36.7519 43.3821 35.7619C42.6561 35.3659 41.9961 34.9699 41.4021 34.5739C40.6101 34.0459 40.0161 33.2539 39.7521 32.3959C39.4881 31.6699 39.2901 31.1419 37.8381 30.4819C35.7261 29.4919 34.7361 30.8779 34.5381 31.2079C34.3401 31.9339 33.9441 33.9139 34.6041 35.1019C34.8681 35.6299 35.2641 35.9599 35.7921 36.0919C36.5181 36.3559 37.3101 36.4879 38.1021 36.4879C38.8941 36.4879 39.2241 36.6859 40.2141 37.6759C41.9961 39.7219 43.7121 41.8999 45.2301 44.2099C46.3521 45.7279 47.8041 46.8499 49.4541 47.6419L49.6521 47.7739C51.1701 48.5659 51.3021 48.5659 51.5001 48.3679C51.9621 47.8399 52.5561 45.5299 52.0281 42.4279C51.8961 41.7679 51.8301 41.2399 51.7641 40.7119C51.7457 40.6016 51.7281 40.4949 51.7111 40.3916C51.4226 38.6406 51.2908 37.8406 49.9821 36.1579C49.8501 36.0259 49.8501 35.8279 49.8501 35.6299C49.9821 33.9139 49.4541 32.1979 48.4641 30.7459C47.4081 29.2939 45.8241 28.3699 44.1081 28.0399C43.9101 28.0399 43.7781 27.9739 43.6461 27.8419C42.2601 26.5879 40.5441 25.6639 38.7621 25.1359C38.7291 25.1029 38.6961 25.0864 38.6631 25.0699C38.6301 25.0534 38.5971 25.0369 38.5641 25.0039C37.5741 24.2779 37.2441 22.9579 37.8381 21.8359C38.3661 20.7799 38.6301 18.0739 37.9701 14.7079C37.3761 11.6719 36.2541 10.6819 33.5481 10.8799C30.7101 11.0779 28.9941 11.9359 29.1921 15.6979C29.3901 19.7239 29.5881 20.1859 31.6341 22.1659C33.3501 23.8159 35.5281 22.2979 35.5941 22.2319C35.9241 21.9679 36.3201 22.0339 36.5841 22.3639C36.8481 22.6939 36.7821 23.0899 36.4521 23.3539C35.3961 24.1459 32.7561 25.1359 30.6441 23.1559C28.2681 20.9119 27.9381 20.0539 27.7401 15.6979C27.4761 10.4179 30.6441 9.55992 33.4161 9.36192C36.8481 9.16392 38.6301 10.6159 39.3561 14.3779C40.0161 17.6779 39.8841 20.8459 39.0921 22.4299C38.8281 22.8259 38.8941 23.3539 39.2901 23.6839C41.2041 24.2119 42.9861 25.2019 44.5041 26.5219C46.5501 26.9179 48.3981 28.1059 49.5861 29.8219C50.7081 31.4719 51.3021 33.4519 51.2361 35.4319C52.6221 37.4119 52.8201 38.4679 53.0841 40.4479C53.0948 40.5229 53.1055 40.5996 53.1165 40.6783ZM25.76 21.1761C26.618 20.9781 27.608 21.2421 28.268 21.8361C29.39 22.6281 29.984 23.9481 29.918 25.2021C29.918 26.1921 29.456 27.0501 28.73 27.6441C28.07 28.1721 27.278 28.5021 26.42 28.6341C25.892 29.9541 25.496 31.2741 25.298 32.5941C25.1 34.3101 24.836 36.0261 24.374 37.6761C24.308 38.0721 23.912 38.2701 23.516 38.2041C23.12 38.1381 22.922 37.7421 22.988 37.3461C23.45 35.7621 23.714 34.1781 23.912 32.5941C24.11 31.3401 24.44 30.0201 24.902 28.8321C24.77 28.8321 24.572 28.8321 24.374 28.7661C23.186 28.5681 22.328 27.4461 22.46 26.2581C22.526 25.8621 22.856 25.5981 23.252 25.5981C23.648 25.6641 23.912 25.9941 23.912 26.3901C23.846 26.9181 24.176 27.3141 24.638 27.3801C25.76 27.5781 26.948 27.3801 27.872 26.7201C28.268 26.3901 28.532 25.9281 28.532 25.4001C28.598 24.4761 28.136 23.6181 27.41 23.0901C27.08 22.8261 26.684 22.6941 26.222 22.6941C24.572 23.2221 22.856 24.1461 22.592 25.0041C22.5327 25.1821 22.4734 25.3734 22.408 25.5841C22.328 25.8421 22.239 26.1291 22.13 26.4561C21.602 27.9081 21.206 29.4261 20.942 31.0101C20.942 31.2081 20.876 31.3401 20.744 31.4721C18.83 33.8481 17.774 36.8181 17.84 39.8541C17.84 40.6461 18.038 41.6361 18.632 41.9001C19.622 42.3621 21.404 41.3061 21.932 40.9101C21.998 40.8441 22.13 40.7781 22.262 40.7781C23.516 40.5801 24.77 40.2501 25.958 39.7881C25.628 39.1941 25.364 38.4681 25.232 37.8081C25.1 37.4121 25.364 37.0161 25.76 36.9501C26.156 36.8181 26.552 37.0821 26.618 37.4781C26.882 38.5341 27.344 39.5241 28.07 40.3161L28.862 41.1081C29.126 41.2401 29.258 41.5701 29.126 41.9001C28.994 42.2961 28.598 42.4941 28.202 42.3621C28.202 43.8801 28.334 45.3981 28.598 46.8501V47.1801C27.938 49.4241 27.476 51.7341 27.146 54.1101C27.08 54.5061 26.816 54.7701 26.42 54.7701C26.09 54.7041 25.76 54.3741 25.826 53.9781C26.09 51.6021 26.618 49.2261 27.278 46.9161C26.948 44.9361 26.816 42.9561 26.882 40.9761C25.562 41.5701 24.176 41.9661 22.724 42.0981C21.734 42.8241 20.546 43.2201 19.292 43.3521C18.896 43.3521 18.5 43.2861 18.104 43.0881C17.114 42.5601 16.52 41.5041 16.454 39.7881C16.322 36.4881 17.378 33.1881 19.49 30.6141C19.82 29.0301 20.216 27.4461 20.744 25.9281C20.8308 25.6677 20.905 25.4199 20.972 25.196C21.0578 24.9092 21.1319 24.6614 21.206 24.4761C21.668 22.7601 24.242 21.6381 25.76 21.1761Z" fill="black"/>
<path d="M53.3481 42.0979L53.6434 42.0448L53.6422 42.0391L53.3481 42.0979ZM53.1165 40.6783L53.4136 40.6368L53.4136 40.6368L53.1165 40.6783ZM52.5561 49.1599L52.3218 48.9725L52.3137 48.9827L52.3064 48.9935L52.5561 49.1599ZM51.3021 49.8199L51.2791 50.119L51.2905 50.1199H51.3021V49.8199ZM48.9261 48.9619L48.7596 49.2116L48.765 49.215L48.9261 48.9619ZM48.7281 48.8299L48.8945 48.5803L48.8859 48.5746L48.8769 48.5694L48.7281 48.8299ZM46.0221 47.0479L46.205 46.8101L45.8358 46.5261L45.7299 46.9798L46.0221 47.0479ZM45.4941 53.1859H45.7942L45.7939 53.1762L45.4941 53.1859ZM44.0421 53.3179H44.3421V53.2992L44.3397 53.2807L44.0421 53.3179ZM44.7021 45.7939L44.9949 45.859L45.0306 45.6982L44.9142 45.5818L44.7021 45.7939ZM43.9102 44.87L44.1444 44.6826L44.1424 44.6801L43.9102 44.87ZM43.9101 44.8699L43.6616 45.038L43.6692 45.0493L43.6779 45.0599L43.9101 44.8699ZM38.9601 38.5339L39.1831 38.3332L39.1778 38.3274L39.1722 38.3218L38.9601 38.5339ZM35.1981 37.3459L35.3058 37.0659L35.2861 37.0583L35.2655 37.0536L35.1981 37.3459ZM33.1521 35.6959L33.4205 35.5617L33.4168 35.5547L33.1521 35.6959ZM33.0201 30.6799L33.2884 30.8141L33.3201 30.7507L33.3201 30.6799L33.0201 30.6799ZM33.2181 30.6139V30.9139H33.3983L33.4829 30.7548L33.2181 30.6139ZM38.4321 29.2279L38.3019 29.4982L38.3052 29.4998L38.4321 29.2279ZM41.0571 31.8949L41.3371 31.7873L41.3371 31.7873L41.0571 31.8949ZM41.0721 31.9339L41.357 31.839L41.3521 31.8262L41.0721 31.9339ZM42.1941 33.3859L42.3605 33.1362L42.3531 33.1315L42.1941 33.3859ZM44.1081 34.5739L43.9537 34.8312L43.9581 34.8338L44.1081 34.5739ZM49.1241 38.4019L48.8907 38.5904L48.9007 38.6028L48.9119 38.614L49.1241 38.4019ZM48.9921 39.3919L48.8047 39.1577L48.7917 39.168L48.7799 39.1798L48.9921 39.3919ZM48.0021 39.2599L47.7658 39.4448L47.7678 39.4473L48.0021 39.2599ZM43.3821 35.7619L43.532 35.502L43.5257 35.4985L43.3821 35.7619ZM41.4021 34.5739L41.5685 34.3243L41.5685 34.3243L41.4021 34.5739ZM39.7521 32.3959L40.0388 32.3077L40.0366 32.3005L40.034 32.2934L39.7521 32.3959ZM37.8381 30.4819L37.7107 30.7536L37.7139 30.755L37.8381 30.4819ZM34.5381 31.2079L34.2808 31.0536L34.2595 31.0891L34.2486 31.129L34.5381 31.2079ZM34.6041 35.1019L34.8726 34.9676L34.8663 34.9562L34.6041 35.1019ZM35.7921 36.0919L35.8946 35.81L35.8799 35.8047L35.8648 35.8009L35.7921 36.0919ZM40.2141 37.6759L40.4403 37.4789L40.4335 37.4711L40.4262 37.4638L40.2141 37.6759ZM45.2301 44.2099L44.9794 44.3747L44.9839 44.3816L44.9888 44.3882L45.2301 44.2099ZM49.4541 47.6419L49.6205 47.3923L49.6029 47.3806L49.5839 47.3715L49.4541 47.6419ZM49.6521 47.7739L49.4856 48.0235L49.499 48.0325L49.5133 48.0399L49.6521 47.7739ZM51.5001 48.3679L51.7122 48.5801L51.7193 48.573L51.7258 48.5655L51.5001 48.3679ZM52.0281 42.4279L52.3239 42.3776L52.3222 42.3691L52.0281 42.4279ZM51.7641 40.7119L52.062 40.6747L52.06 40.6626L51.7641 40.7119ZM51.7111 40.3916L52.0071 40.3428L52.0071 40.3428L51.7111 40.3916ZM49.9821 36.1579L50.2189 35.9737L50.2074 35.959L50.1942 35.9458L49.9821 36.1579ZM49.8501 35.6299L49.5509 35.6069L49.5501 35.6184V35.6299H49.8501ZM48.4641 30.7459L48.712 30.5768L48.7067 30.5695L48.4641 30.7459ZM44.1081 28.0399L44.1647 27.7453L44.1366 27.7399H44.1081V28.0399ZM43.6461 27.8419L43.8582 27.6298L43.8529 27.6245L43.8473 27.6195L43.6461 27.8419ZM38.7621 25.1359L38.5499 25.3481L38.6038 25.4019L38.6768 25.4236L38.7621 25.1359ZM38.5641 25.0039L38.7762 24.7918L38.76 24.7756L38.7415 24.762L38.5641 25.0039ZM37.8381 21.8359L38.1033 21.9763L38.1064 21.9701L37.8381 21.8359ZM37.9701 14.7079L37.6756 14.7655L37.6757 14.7656L37.9701 14.7079ZM33.5481 10.8799L33.5689 11.1792L33.57 11.1791L33.5481 10.8799ZM29.1921 15.6979L29.4917 15.6832L29.4917 15.6821L29.1921 15.6979ZM31.6341 22.1659L31.4254 22.3815L31.4261 22.3822L31.6341 22.1659ZM35.5941 22.2319L35.4067 21.9977L35.3937 22.008L35.3819 22.0198L35.5941 22.2319ZM36.4521 23.3539L36.6322 23.594L36.6395 23.5882L36.4521 23.3539ZM30.6441 23.1559L30.4381 23.374L30.4389 23.3748L30.6441 23.1559ZM27.7401 15.6979L28.0398 15.6843L28.0397 15.6829L27.7401 15.6979ZM33.4161 9.36192L33.3988 9.06239L33.3947 9.06268L33.4161 9.36192ZM39.3561 14.3779L39.0615 14.4348L39.0619 14.4368L39.3561 14.3779ZM39.0921 22.4299L39.3417 22.5963L39.352 22.5808L39.3604 22.5641L39.0921 22.4299ZM39.2901 23.6839L39.098 23.9144L39.1478 23.9559L39.2103 23.9731L39.2901 23.6839ZM44.5041 26.5219L44.3072 26.7483L44.368 26.8011L44.4471 26.8165L44.5041 26.5219ZM49.5861 29.8219L49.8342 29.6532L49.8327 29.6512L49.5861 29.8219ZM51.2361 35.4319L50.9362 35.4219L50.9329 35.522L50.9903 35.604L51.2361 35.4319ZM53.0841 40.4479L52.7867 40.4876L52.7871 40.4903L53.0841 40.4479ZM28.268 21.8361L28.0673 22.0591L28.0805 22.0709L28.095 22.0812L28.268 21.8361ZM25.76 21.1761L25.6926 20.8838L25.6825 20.8861L25.6727 20.8891L25.76 21.1761ZM29.918 25.2021L29.6184 25.1863L29.618 25.1942V25.2021H29.918ZM28.73 27.6441L28.9174 27.8784L28.92 27.8763L28.73 27.6441ZM26.42 28.6341L26.3744 28.3376L26.2051 28.3636L26.1415 28.5227L26.42 28.6341ZM25.298 32.5941L25.0012 32.5496L25 32.5597L25.298 32.5941ZM24.374 37.6761L24.0851 37.5952L24.0808 37.6108L24.0781 37.6268L24.374 37.6761ZM23.516 38.2041L23.4667 38.5L23.4667 38.5L23.516 38.2041ZM22.988 37.3461L22.7 37.2621L22.695 37.2792L22.6921 37.2968L22.988 37.3461ZM23.912 32.5941L23.6155 32.5473L23.6143 32.5569L23.912 32.5941ZM24.902 28.8321L25.1816 28.9408L25.3406 28.5321H24.902V28.8321ZM24.374 28.7661L24.4689 28.4815L24.4466 28.474L24.4233 28.4702L24.374 28.7661ZM22.46 26.2581L22.1641 26.2088L22.1628 26.2168L22.1619 26.225L22.46 26.2581ZM23.252 25.5981L23.3013 25.3022L23.2768 25.2981H23.252V25.5981ZM23.912 26.3901L24.2097 26.4273L24.212 26.4088V26.3901H23.912ZM24.638 27.3801L24.6902 27.0845L24.6804 27.0831L24.638 27.3801ZM27.872 26.7201L28.0464 26.9642L28.0555 26.9577L28.0641 26.9506L27.872 26.7201ZM28.532 25.4001L28.2328 25.3787L28.232 25.3894V25.4001H28.532ZM27.41 23.0901L27.2224 23.3246L27.2336 23.3327L27.41 23.0901ZM26.222 22.6941V22.3941H26.1752L26.1306 22.4084L26.222 22.6941ZM22.592 25.0041L22.8767 25.099L22.8787 25.0923L22.592 25.0041ZM22.408 25.5841L22.6946 25.6729L22.6946 25.6729L22.408 25.5841ZM22.13 26.4561L22.4121 26.5587L22.4146 26.551L22.13 26.4561ZM20.942 31.0101L20.6461 30.9608L20.642 30.9853V31.0101H20.942ZM20.744 31.4721L20.5319 31.26L20.5205 31.2713L20.5104 31.2839L20.744 31.4721ZM17.84 39.8541H18.1401L18.1399 39.8476L17.84 39.8541ZM18.632 41.9001L18.7589 41.6282L18.7539 41.6259L18.632 41.9001ZM21.932 40.9101L22.112 41.1501L22.1291 41.1373L22.1441 41.1222L21.932 40.9101ZM22.262 40.7781V41.0781H22.2856L22.3088 41.0744L22.262 40.7781ZM25.958 39.7881L26.0667 40.0677L26.3873 39.943L26.2203 39.6424L25.958 39.7881ZM25.232 37.8081L25.5262 37.7493L25.5225 37.7309L25.5166 37.7132L25.232 37.8081ZM25.76 36.9501L25.8093 37.246L25.8326 37.2421L25.8549 37.2347L25.76 36.9501ZM26.618 37.4781L26.3221 37.5274L26.3241 37.5392L26.327 37.5509L26.618 37.4781ZM28.07 40.3161L27.8487 40.519L27.8579 40.5282L28.07 40.3161ZM28.862 41.1081L28.6499 41.3202L28.6843 41.3546L28.7279 41.3764L28.862 41.1081ZM29.126 41.9001L28.8475 41.7887L28.8442 41.7969L28.8414 41.8052L29.126 41.9001ZM28.202 42.3621L28.2969 42.0775L27.902 41.9459V42.3621H28.202ZM28.598 46.8501H28.898V46.823L28.8932 46.7964L28.598 46.8501ZM28.598 47.1801L28.8858 47.2647L28.898 47.2233V47.1801H28.598ZM27.146 54.1101L27.442 54.1594L27.4432 54.1514L27.146 54.1101ZM26.42 54.7701L26.3612 55.0643L26.3903 55.0701H26.42V54.7701ZM25.826 53.9781L26.1219 54.0274L26.1233 54.0193L26.1242 54.0112L25.826 53.9781ZM27.278 46.9161L27.5665 46.9985L27.5851 46.9335L27.5739 46.8668L27.278 46.9161ZM26.882 40.9761L27.1818 40.9861L27.1979 40.505L26.7589 40.7025L26.882 40.9761ZM22.724 42.0981L22.6969 41.7993L22.6138 41.8069L22.5466 41.8562L22.724 42.0981ZM19.292 43.3521V43.6521H19.3078L19.3234 43.6504L19.292 43.3521ZM18.104 43.0881L17.9628 43.3529L17.9699 43.3564L18.104 43.0881ZM16.454 39.7881L16.7538 39.7766L16.7538 39.7761L16.454 39.7881ZM19.49 30.6141L19.7219 30.8044L19.7687 30.7474L19.7837 30.6753L19.49 30.6141ZM20.744 25.9281L21.0274 26.0267L21.0286 26.023L20.744 25.9281ZM20.972 25.196L21.2594 25.282L21.2594 25.282L20.972 25.196ZM21.206 24.4761L21.4846 24.5875L21.4911 24.5711L21.4957 24.5541L21.206 24.4761ZM53.6422 42.0391C53.5336 41.4956 53.4703 41.0431 53.4136 40.6368L52.8194 40.7197C52.8761 41.1263 52.9414 41.5943 53.0539 42.1568L53.6422 42.0391ZM52.7903 49.3473C53.2358 48.7904 53.5927 47.7868 53.7689 46.537C53.9467 45.2755 53.9458 43.7254 53.6433 42.0448L53.0528 42.1511C53.3443 43.7704 53.3434 45.2564 53.1748 46.4533C53.0044 47.662 52.6683 48.5394 52.3218 48.9725L52.7903 49.3473ZM51.3021 50.1199C51.9315 50.1199 52.4867 49.8048 52.8057 49.3263L52.3064 48.9935C52.0974 49.307 51.7286 49.5199 51.3021 49.5199V50.1199ZM48.765 49.215C49.5187 49.6947 50.3579 50.0482 51.2791 50.119L51.3251 49.5208C50.5303 49.4597 49.7854 49.1532 49.0871 48.7088L48.765 49.215ZM48.5617 49.0795L48.7597 49.2115L49.0925 48.7123L48.8945 48.5803L48.5617 49.0795ZM45.8391 47.2857C46.7103 47.9558 47.6463 48.5573 48.5792 49.0904L48.8769 48.5694C47.9619 48.0466 47.0498 47.46 46.205 46.8101L45.8391 47.2857ZM45.7939 53.1762C45.7285 51.1484 45.8598 49.0638 46.3142 47.1161L45.7299 46.9798C45.2604 48.9921 45.1276 51.1315 45.1942 53.1956L45.7939 53.1762ZM44.8341 54.2779C45.1413 54.2779 45.3881 54.1219 45.5494 53.9146C45.7081 53.7105 45.7941 53.4469 45.7941 53.1859H45.1941C45.1941 53.321 45.1481 53.4533 45.0758 53.5462C45.006 53.6359 44.9228 53.6779 44.8341 53.6779V54.2779ZM44.7681 54.2779H44.8341V53.6779H44.7681V54.2779ZM43.7421 53.3179C43.7421 53.916 44.2453 54.2779 44.7681 54.2779V53.6779C44.4989 53.6779 44.3421 53.5119 44.3421 53.3179H43.7421ZM44.4092 45.7288C44.1459 46.9139 43.4071 50.6572 43.7444 53.3551L44.3397 53.2807C44.017 50.6986 44.7303 47.05 44.9949 45.859L44.4092 45.7288ZM43.6759 45.0575C43.9372 45.384 44.2119 45.728 44.4899 46.006L44.9142 45.5818C44.6643 45.3319 44.4111 45.016 44.1444 44.6826L43.6759 45.0575ZM43.6779 45.0599L43.678 45.06L44.1424 44.6801L44.1423 44.6799L43.6779 45.0599ZM38.7371 38.7346C40.5097 40.7042 42.1512 42.8053 43.6616 45.038L44.1586 44.7018C42.6329 42.4466 40.9744 40.3237 39.1831 38.3332L38.7371 38.7346ZM37.8381 38.1079C37.9269 38.1079 37.9651 38.1088 37.9981 38.1146C38.0215 38.1188 38.0484 38.1267 38.0941 38.1547C38.206 38.223 38.3778 38.3759 38.7479 38.746L39.1722 38.3218C38.8164 37.9659 38.5921 37.7558 38.407 37.6427C38.3042 37.5799 38.2074 37.5424 38.1029 37.5239C38.008 37.507 37.9142 37.5079 37.8381 37.5079V38.1079ZM35.0904 37.6259C35.9894 37.9717 36.9511 38.1079 37.8381 38.1079V37.5079C37.009 37.5079 36.1227 37.3801 35.3058 37.0659L35.0904 37.6259ZM32.8837 35.8301C33.3165 36.6956 34.1785 37.4185 35.1306 37.6382L35.2655 37.0536C34.5016 36.8773 33.7796 36.2802 33.4204 35.5618L32.8837 35.8301ZM32.7517 30.5458C32.7287 30.5918 32.7007 30.6807 32.6753 30.7689C32.6459 30.8706 32.6096 31.0082 32.5718 31.1743C32.4962 31.5065 32.4134 31.957 32.3666 32.4675C32.2739 33.4789 32.3184 34.7703 32.8874 35.8371L33.4168 35.5547C32.9297 34.6415 32.8753 33.4909 32.9641 32.5223C33.008 32.0428 33.086 31.6189 33.1569 31.3075C33.1923 31.1519 33.2257 31.0255 33.2517 30.9354C33.2816 30.8317 33.2949 30.801 33.2884 30.8141L32.7517 30.5458ZM33.2181 30.3139C33.0952 30.3139 32.9754 30.3327 32.8784 30.3973C32.826 30.4323 32.783 30.4791 32.7548 30.5354C32.7412 30.5626 32.7324 30.5893 32.7271 30.6142C32.7245 30.6266 32.7227 30.6383 32.7216 30.6493C32.7211 30.6548 32.7207 30.6601 32.7204 30.6652C32.7203 30.6678 32.7202 30.6703 32.7202 30.6727C32.7201 30.674 32.7201 30.6752 32.7201 30.6764C32.7201 30.677 32.7201 30.6776 32.7201 30.6782C32.7201 30.6785 32.7201 30.6789 32.7201 30.679C32.7201 30.6795 32.7201 30.6799 33.0201 30.6799C33.3201 30.6799 33.3201 30.6803 33.3201 30.6808C33.3201 30.6809 33.3201 30.6814 33.3201 30.6817C33.3201 30.6823 33.3201 30.6828 33.32 30.6834C33.32 30.6846 33.32 30.6858 33.32 30.687C33.3199 30.6894 33.3198 30.6918 33.3197 30.6942C33.3195 30.6991 33.3191 30.704 33.3186 30.709C33.3176 30.719 33.3161 30.7294 33.3138 30.7399C33.3092 30.7612 33.302 30.7828 33.2915 30.8038C33.2695 30.8478 33.2389 30.8781 33.2112 30.8965C33.1638 30.9282 33.1429 30.9139 33.2181 30.9139V30.3139ZM38.5622 28.9576C36.6813 28.052 35.2664 28.4104 34.3244 29.0263C33.8617 29.3289 33.5213 29.6875 33.2969 29.9691C33.1844 30.1103 33.1001 30.2334 33.0432 30.3224C33.0147 30.3669 32.993 30.4031 32.9781 30.4288C32.9706 30.4417 32.9648 30.452 32.9606 30.4594C32.9586 30.4631 32.9569 30.4662 32.9557 30.4684C32.9551 30.4696 32.9545 30.4705 32.9541 30.4713C32.9539 30.4717 32.9537 30.472 32.9536 30.4723C32.9535 30.4725 32.9534 30.4726 32.9534 30.4727C32.9533 30.4729 32.9532 30.473 33.2181 30.6139C33.4829 30.7548 33.4829 30.7549 33.4828 30.7551C33.4828 30.7551 33.4827 30.7552 33.4827 30.7552C33.4826 30.7553 33.4826 30.7554 33.4826 30.7554C33.4826 30.7554 33.4827 30.7553 33.4829 30.7549C33.4832 30.7542 33.484 30.7528 33.4852 30.7507C33.4875 30.7466 33.4914 30.7396 33.4969 30.7302C33.5078 30.7113 33.5251 30.6825 33.5487 30.6456C33.596 30.5716 33.6683 30.4658 33.7662 30.343C33.9626 30.0965 34.2574 29.787 34.6527 29.5285C35.4267 29.0225 36.6188 28.6878 38.3019 29.4982L38.5622 28.9576ZM41.3371 31.7873C41.1746 31.3642 40.9912 30.8823 40.5845 30.3932C40.1773 29.9036 39.5626 29.4244 38.5589 28.9561L38.3052 29.4998C39.2516 29.9414 39.7867 30.3723 40.1232 30.7769C40.4601 31.182 40.6142 31.5787 40.777 32.0025L41.3371 31.7873ZM41.3521 31.8262C41.3471 31.8133 41.3421 31.8004 41.3371 31.7873L40.777 32.0025C40.782 32.0155 40.787 32.0286 40.7921 32.0416L41.3521 31.8262ZM42.3531 33.1315C41.8888 32.8413 41.5344 32.3722 41.3567 31.839L40.7875 32.0288C41.0058 32.6837 41.4434 33.2705 42.0351 33.6403L42.3531 33.1315ZM44.2624 34.3167C43.601 33.9199 42.9474 33.5276 42.3605 33.1363L42.0277 33.6355C42.6287 34.0362 43.2951 34.436 43.9537 34.8312L44.2624 34.3167ZM49.3574 38.2134C47.9312 36.4476 45.9681 35.3007 44.258 34.3141L43.9581 34.8338C45.68 35.8271 47.5449 36.9242 48.8907 38.5904L49.3574 38.2134ZM49.1795 39.6262C49.6102 39.2816 49.7594 38.613 49.3362 38.1898L48.9119 38.614C49.0167 38.7189 49.0339 38.9743 48.8047 39.1577L49.1795 39.6262ZM47.7678 39.4473C48.1124 39.8781 48.781 40.0272 49.2042 39.604L48.7799 39.1798C48.6751 39.2846 48.4197 39.3018 48.2363 39.0725L47.7678 39.4473ZM43.2321 36.0218C44.9585 37.0177 46.62 37.9807 47.7658 39.4448L48.2383 39.075C47.0082 37.5032 45.2377 36.4861 43.532 35.5021L43.2321 36.0218ZM41.2357 34.8235C41.8381 35.2251 42.5058 35.6257 43.2384 36.0253L43.5257 35.4985C42.8063 35.1061 42.1541 34.7147 41.5685 34.3243L41.2357 34.8235ZM39.4653 32.4841C39.7504 33.4108 40.3884 34.2587 41.2357 34.8235L41.5685 34.3243C40.8317 33.8331 40.2817 33.0971 40.0388 32.3077L39.4653 32.4841ZM37.7139 30.755C38.4199 31.0759 38.7892 31.3509 39.0137 31.6104C39.2371 31.8688 39.3371 32.1325 39.4701 32.4984L40.034 32.2934C39.9031 31.9333 39.772 31.5701 39.4675 31.2179C39.164 30.867 38.7083 30.5479 37.9622 30.2088L37.7139 30.755ZM34.7953 31.3623C34.88 31.2212 35.1398 30.847 35.6028 30.6191C36.0495 30.3992 36.729 30.2934 37.7107 30.7536L37.9654 30.2103C36.8351 29.6805 35.9636 29.7727 35.3378 30.0808C34.7284 30.3808 34.3942 30.8646 34.2808 31.0536L34.7953 31.3623ZM34.8663 34.9562C34.5781 34.4374 34.5086 33.715 34.5488 32.9985C34.5886 32.291 34.7323 31.636 34.8275 31.2869L34.2486 31.129C34.1459 31.5059 33.9925 32.2039 33.9498 32.9648C33.9075 33.7168 33.9701 34.5785 34.3418 35.2476L34.8663 34.9562ZM35.8648 35.8009C35.4296 35.6921 35.101 35.4249 34.8724 34.9678L34.3357 35.2361C34.6352 35.8349 35.0985 36.2278 35.7193 36.383L35.8648 35.8009ZM38.1021 36.1879C37.3426 36.1879 36.5856 36.0612 35.8946 35.81L35.6895 36.3739C36.4506 36.6506 37.2775 36.7879 38.1021 36.7879V36.1879ZM40.4262 37.4638C39.9339 36.9715 39.5774 36.6458 39.2319 36.4498C38.8665 36.2424 38.5294 36.1879 38.1021 36.1879V36.7879C38.4667 36.7879 38.6906 36.8325 38.9357 36.9716C39.2008 37.122 39.5043 37.3904 40.0019 37.888L40.4262 37.4638ZM45.4808 44.0452C43.9535 41.7211 42.2287 39.5322 40.4403 37.4789L39.9878 37.873C41.7635 39.9116 43.4706 42.0788 44.9794 44.3747L45.4808 44.0452ZM49.5839 47.3715C47.9723 46.5979 46.5607 45.5055 45.4713 44.0316L44.9888 44.3882C46.1434 45.9503 47.6358 47.1019 49.3242 47.9124L49.5839 47.3715ZM49.8185 47.5243L49.6205 47.3923L49.2876 47.8915L49.4856 48.0235L49.8185 47.5243ZM51.2879 48.1558C51.2479 48.1958 51.2514 48.1831 51.2707 48.1784C51.2827 48.1755 51.261 48.1859 51.1573 48.1548C50.9431 48.0906 50.5586 47.9085 49.7908 47.5079L49.5133 48.0399C50.2635 48.4313 50.7041 48.6453 50.9849 48.7295C51.1286 48.7726 51.2719 48.7954 51.4118 48.7616C51.559 48.726 51.6532 48.6391 51.7122 48.5801L51.2879 48.1558ZM51.7323 42.4783C51.9912 43.9994 51.9742 45.3218 51.8381 46.3227C51.77 46.8234 51.6725 47.2402 51.5669 47.5589C51.4585 47.8863 51.35 48.0839 51.2743 48.1704L51.7258 48.5655C51.8812 48.3879 52.0201 48.0988 52.1365 47.7476C52.2557 47.3878 52.3604 46.9341 52.4326 46.4036C52.577 45.342 52.5929 43.9584 52.3238 42.3776L51.7323 42.4783ZM51.4664 40.7491C51.5324 41.2773 51.5995 41.8149 51.7339 42.4868L52.3222 42.3691C52.1926 41.7209 52.1277 41.2026 52.0617 40.6747L51.4664 40.7491ZM51.4151 40.4403C51.4321 40.5436 51.4497 40.6506 51.4681 40.7612L52.06 40.6626C52.0416 40.5526 52.0241 40.4462 52.0071 40.3428L51.4151 40.4403ZM49.7453 36.3421C50.3882 37.1687 50.7294 37.7623 50.9478 38.3531C51.1686 38.9504 51.2698 39.5583 51.4151 40.4403L52.0071 40.3428C51.8639 39.4738 51.755 38.8062 51.5106 38.1451C51.2638 37.4776 50.8847 36.8298 50.2189 35.9737L49.7453 36.3421ZM49.5501 35.6299C49.5501 35.7229 49.5492 35.8501 49.5714 35.9723C49.5948 36.1008 49.6471 36.2472 49.7699 36.37L50.1942 35.9458C50.185 35.9366 50.1714 35.9181 50.1617 35.865C50.151 35.8058 50.1501 35.735 50.1501 35.6299H49.5501ZM48.2162 30.9149C49.1731 32.3183 49.677 33.9677 49.5509 35.6069L50.1492 35.6529C50.2871 33.8602 49.7351 32.0775 48.7119 30.5769L48.2162 30.9149ZM44.0514 28.3345C45.7002 28.6516 47.2145 29.5378 48.2214 30.9224L48.7067 30.5695C47.6016 29.05 45.9479 28.0882 44.1647 27.7453L44.0514 28.3345ZM43.4339 28.054C43.5176 28.1378 43.6133 28.2125 43.7305 28.2646C43.849 28.3172 43.9741 28.3399 44.1081 28.3399V27.7399C44.0441 27.7399 44.0042 27.7296 43.9742 27.7163C43.9429 27.7024 43.9065 27.6781 43.8582 27.6298L43.4339 28.054ZM38.6768 25.4236C40.4193 25.9398 42.0948 26.8429 43.4448 28.0644L43.8473 27.6195C42.4254 26.3329 40.6688 25.388 38.8473 24.8483L38.6768 25.4236ZM38.5289 25.3382C38.5377 25.3426 38.5426 25.3451 38.5471 25.3475C38.5511 25.3496 38.5529 25.3507 38.5536 25.3511C38.5541 25.3515 38.5536 25.3512 38.5526 25.3504C38.5516 25.3496 38.5506 25.3487 38.5499 25.3481L38.9742 24.9238C38.9034 24.8529 38.8303 24.8181 38.7972 24.8016L38.5289 25.3382ZM38.3519 25.2161C38.4228 25.2869 38.4958 25.3217 38.5289 25.3382L38.7972 24.8016C38.7885 24.7972 38.7835 24.7947 38.7791 24.7923C38.7751 24.7902 38.7732 24.7891 38.7726 24.7887C38.772 24.7884 38.7725 24.7886 38.7735 24.7894C38.7745 24.7902 38.7755 24.7911 38.7762 24.7918L38.3519 25.2161ZM37.5729 21.6956C36.9079 22.9517 37.279 24.4335 38.3867 25.2458L38.7415 24.762C37.8691 24.1223 37.5802 22.9642 38.1032 21.9763L37.5729 21.6956ZM37.6757 14.7656C38.0014 16.4271 38.0983 17.9217 38.0498 19.1261C38.0009 20.3405 37.8054 21.2305 37.5697 21.7018L38.1064 21.9701C38.3988 21.3854 38.5992 20.3944 38.6493 19.1502C38.6998 17.8962 38.5987 16.3547 38.2645 14.6502L37.6757 14.7656ZM33.57 11.1791C34.8905 11.0825 35.7498 11.2823 36.3543 11.8076C36.9688 12.3416 37.3818 13.2636 37.6756 14.7655L38.2645 14.6503C37.9643 13.1163 37.5194 12.0252 36.7479 11.3547C35.9664 10.6756 34.9116 10.4793 33.5262 10.5807L33.57 11.1791ZM29.4917 15.6821C29.3947 13.8401 29.7712 12.7934 30.4364 12.1716C31.1144 11.5378 32.1598 11.2775 33.5689 11.1792L33.5272 10.5806C32.0983 10.6803 30.8667 10.9481 30.0267 11.7333C29.1739 12.5304 28.7914 13.7937 28.8925 15.7137L29.4917 15.6821ZM31.8427 21.9503C30.8176 20.9583 30.3039 20.3891 30.0004 19.5924C29.6906 18.7791 29.5913 17.7081 29.4917 15.6832L28.8924 15.7127C28.9908 17.7138 29.0895 18.8867 29.4397 19.806C29.7962 20.7417 30.4045 21.3935 31.4254 22.3815L31.8427 21.9503ZM35.3819 22.0198C35.3982 22.0035 35.4067 21.9992 35.3827 22.0164C35.3674 22.0274 35.3439 22.0435 35.3129 22.0635C35.2508 22.1035 35.1614 22.1572 35.0496 22.2157C34.8252 22.3332 34.517 22.4669 34.1638 22.5505C33.4624 22.7164 32.6048 22.6832 31.842 21.9497L31.4261 22.3822C32.3793 23.2987 33.4688 23.3314 34.3019 23.1344C34.7159 23.0364 35.0718 22.8814 35.3279 22.7473C35.4564 22.68 35.5614 22.6171 35.6378 22.5679C35.676 22.5433 35.7078 22.5216 35.7324 22.504C35.7484 22.4925 35.7817 22.4686 35.8062 22.4441L35.3819 22.0198ZM36.8183 22.1765C36.6467 21.962 36.417 21.8154 36.1562 21.7782C35.8927 21.7405 35.6295 21.8194 35.4067 21.9977L35.7815 22.4662C35.8886 22.3804 35.9884 22.3603 36.0714 22.3722C36.1572 22.3844 36.2574 22.4358 36.3498 22.5513L36.8183 22.1765ZM36.6395 23.5882C36.854 23.4166 37.0006 23.1868 37.0378 22.9261C37.0754 22.6626 36.9966 22.3993 36.8183 22.1765L36.3498 22.5513C36.4355 22.6585 36.4557 22.7583 36.4438 22.8412C36.4316 22.927 36.3802 23.0272 36.2647 23.1197L36.6395 23.5882ZM30.4389 23.3748C31.567 24.4323 32.8442 24.6988 33.9721 24.5931C35.0893 24.4884 36.065 24.0192 36.6321 23.5939L36.2721 23.1139C35.7831 23.4806 34.9108 23.9025 33.9161 23.9957C32.932 24.088 31.8332 23.8595 30.8492 22.9371L30.4389 23.3748ZM27.4404 15.7115C27.5391 17.8836 27.671 19.2355 28.0957 20.3277C28.5257 21.4333 29.2451 22.2473 30.4381 23.374L30.8501 22.9378C29.6671 21.8205 29.0334 21.0835 28.6549 20.1102C28.2712 19.1234 28.139 17.8683 28.0398 15.6843L27.4404 15.7115ZM33.3947 9.06268C31.9981 9.16243 30.4319 9.43024 29.2503 10.3914C28.0488 11.3687 27.3053 13.0095 27.4404 15.7129L28.0397 15.6829C27.9109 13.1063 28.6193 11.6781 29.6289 10.8569C30.6582 10.0196 32.062 9.7594 33.4374 9.66116L33.3947 9.06268ZM39.6506 14.3211C39.2816 12.4086 38.6343 11.0267 37.5934 10.1549C36.548 9.27925 35.1572 8.96097 33.3988 9.06242L33.4333 9.66142C35.1069 9.56487 36.3231 9.87359 37.2082 10.6149C38.0979 11.3601 38.7046 12.5852 39.0615 14.4348L39.6506 14.3211ZM39.3604 22.5641C39.7842 21.7165 40.0182 20.4789 40.0684 19.058C40.1188 17.6301 39.9844 15.9898 39.6502 14.3191L39.0619 14.4368C39.3878 16.0661 39.5174 17.6597 39.4688 19.0368C39.4199 20.4209 39.1919 21.5594 38.8237 22.2958L39.3604 22.5641ZM39.4821 23.4535C39.2026 23.2206 39.1636 22.8634 39.3417 22.5963L38.8424 22.2635C38.4925 22.7884 38.5855 23.4873 39.098 23.9144L39.4821 23.4535ZM44.7009 26.2955C43.1517 24.9484 41.3303 23.9355 39.3698 23.3947L39.2103 23.9731C41.0779 24.4883 42.8205 25.4555 44.3072 26.7483L44.7009 26.2955ZM49.8327 29.6512C48.5992 27.8695 46.6825 26.638 44.5611 26.2274L44.4471 26.8165C46.4176 27.1978 48.1969 28.3424 49.3394 29.9927L49.8327 29.6512ZM51.5359 35.4419C51.6041 33.3961 50.9906 31.3539 49.8341 29.6532L49.338 29.9906C50.4256 31.59 51 33.5078 50.9362 35.4219L51.5359 35.4419ZM53.3814 40.4083C53.2496 39.4193 53.1312 38.6338 52.8651 37.8441C52.5976 37.0503 52.1858 36.2656 51.4818 35.2599L50.9903 35.604C51.6723 36.5782 52.0525 37.3115 52.2965 38.0357C52.5419 38.764 52.6546 39.4965 52.7867 40.4876L53.3814 40.4083ZM53.4136 40.6368C53.4026 40.5582 53.3918 40.481 53.381 40.4055L52.7871 40.4903C52.7977 40.5647 52.8084 40.641 52.8194 40.7197L53.4136 40.6368ZM28.4687 21.6131C27.7377 20.9552 26.6482 20.6632 25.6926 20.8838L25.8275 21.4684C26.5878 21.2929 27.4783 21.5289 28.0673 22.0591L28.4687 21.6131ZM30.2176 25.2179C30.2889 23.8633 29.6491 22.4438 28.441 21.591L28.095 22.0812C29.1309 22.8124 29.6791 24.0329 29.6184 25.1863L30.2176 25.2179ZM28.92 27.8763C29.7082 27.2313 30.218 26.2912 30.218 25.2021H29.618C29.618 26.093 29.2038 26.8688 28.54 27.4119L28.92 27.8763ZM26.4656 28.9306C27.3708 28.7914 28.2128 28.442 28.9174 27.8784L28.5426 27.4098C27.9272 27.9022 27.1853 28.2128 26.3744 28.3376L26.4656 28.9306ZM25.5947 32.6386C25.7884 31.3472 26.1767 30.0501 26.6986 28.7455L26.1415 28.5227C25.6073 29.8581 25.2036 31.201 25.0013 32.5496L25.5947 32.6386ZM24.6629 37.757C25.1311 36.0847 25.3973 34.3508 25.596 32.6285L25 32.5597C24.8027 34.2694 24.5409 35.9675 24.0851 37.5952L24.6629 37.757ZM23.4667 38.5C23.9704 38.584 24.5683 38.3355 24.6699 37.7254L24.0781 37.6268C24.0478 37.8087 23.8536 37.9562 23.5653 37.9082L23.4667 38.5ZM22.6921 37.2968C22.6081 37.8005 22.8566 38.3983 23.4667 38.5L23.5653 37.9082C23.3834 37.8779 23.2359 37.6837 23.2839 37.3954L22.6921 37.2968ZM23.6143 32.5569C23.4173 34.1334 23.1557 35.6998 22.7 37.2621L23.276 37.4301C23.7443 35.8244 24.0108 34.2228 24.2097 32.6313L23.6143 32.5569ZM24.6224 28.7234C24.1513 29.9348 23.8164 31.2761 23.6157 32.5473L24.2083 32.6409C24.4036 31.4041 24.7287 30.1054 25.1816 28.9408L24.6224 28.7234ZM24.2791 29.0507C24.5289 29.1339 24.7724 29.1321 24.902 29.1321V28.5321C24.7677 28.5321 24.6152 28.5302 24.4689 28.4815L24.2791 29.0507ZM22.1619 26.225C22.012 27.5739 22.9821 28.8382 24.3247 29.062L24.4233 28.4702C23.39 28.2979 22.6441 27.3183 22.7582 26.2912L22.1619 26.225ZM23.252 25.2981C22.7167 25.2981 22.2554 25.661 22.1641 26.2088L22.7559 26.3074C22.7966 26.0632 22.9953 25.8981 23.252 25.8981V25.2981ZM24.212 26.3901C24.212 25.8548 23.8491 25.3935 23.3013 25.3022L23.2027 25.894C23.4469 25.9347 23.612 26.1334 23.612 26.3901H24.212ZM24.6804 27.0831C24.3811 27.0403 24.1639 26.7936 24.2097 26.4273L23.6143 26.3529C23.5281 27.0426 23.9709 27.5878 24.5956 27.6771L24.6804 27.0831ZM27.6976 26.476C26.8498 27.0816 25.7466 27.2711 24.6902 27.0847L24.5859 27.6755C25.7734 27.8851 27.0463 27.6786 28.0464 26.9642L27.6976 26.476ZM28.232 25.4001C28.232 25.822 28.0218 26.2047 27.68 26.4896L28.0641 26.9506C28.5142 26.5754 28.832 26.0342 28.832 25.4001H28.232ZM27.2336 23.3327C27.8866 23.8076 28.2905 24.5706 28.2328 25.3787L28.8313 25.4215C28.9055 24.3816 28.3855 23.4286 27.5865 22.8475L27.2336 23.3327ZM26.222 22.9941C26.6227 22.9941 26.9509 23.107 27.2226 23.3244L27.5974 22.8558C27.2092 22.5452 26.7454 22.3941 26.222 22.3941V22.9941ZM22.8787 25.0923C22.9237 24.9462 23.0409 24.7697 23.2467 24.5715C23.4494 24.3762 23.7205 24.1768 24.0425 23.982C24.6864 23.5925 25.5054 23.2384 26.3134 22.9798L26.1306 22.4084C25.2886 22.6778 24.4246 23.0497 23.732 23.4687C23.3858 23.6781 23.0752 23.9036 22.8304 24.1394C22.5887 24.3722 22.3923 24.6329 22.3053 24.9159L22.8787 25.0923ZM22.6946 25.6729C22.7601 25.4616 22.8185 25.2734 22.8766 25.099L22.3074 24.9092C22.2469 25.0908 22.1866 25.2853 22.1215 25.4952L22.6946 25.6729ZM22.4146 26.551C22.5247 26.2206 22.6146 25.9308 22.6946 25.6729L22.1215 25.4952C22.0414 25.7533 21.9533 26.0376 21.8454 26.3612L22.4146 26.551ZM21.2379 31.0594C21.499 29.4928 21.8905 27.9927 22.412 26.5586L21.8481 26.3536C21.3136 27.8235 20.913 29.3594 20.6461 30.9608L21.2379 31.0594ZM20.9561 31.6842C21.0399 31.6005 21.1146 31.5049 21.1667 31.3877C21.2193 31.2692 21.242 31.1441 21.242 31.0101H20.642C20.642 31.0741 20.6317 31.114 20.6184 31.144C20.6045 31.1753 20.5802 31.2117 20.5319 31.26L20.9561 31.6842ZM18.1399 39.8476C18.0756 36.8854 19.106 33.9837 20.9776 31.6603L20.5104 31.2839C18.554 33.7125 17.4725 36.7508 17.5401 39.8606L18.1399 39.8476ZM18.7539 41.6259C18.5735 41.5458 18.4129 41.333 18.2985 40.9821C18.1874 40.6414 18.14 40.2293 18.14 39.8541H17.54C17.54 40.2709 17.5916 40.7498 17.728 41.1681C17.8611 41.5762 18.0966 41.9904 18.5102 42.1742L18.7539 41.6259ZM21.752 40.6701C21.5062 40.8545 20.9513 41.2037 20.3432 41.4485C20.0399 41.5707 19.7337 41.6625 19.453 41.6984C19.1703 41.7346 18.9364 41.7111 18.7589 41.6282L18.5052 42.1719C18.8226 42.3201 19.1828 42.3379 19.5291 42.2936C19.8775 42.249 20.2354 42.1388 20.5673 42.0051C21.2297 41.7384 21.8298 41.3617 22.112 41.1501L21.752 40.6701ZM22.262 40.4781C22.0452 40.4781 21.8384 40.5795 21.7199 40.698L22.1441 41.1222C22.1437 41.1227 22.1475 41.119 22.1567 41.1129C22.1656 41.1071 22.1771 41.1008 22.1904 41.0951C22.2186 41.083 22.2443 41.0781 22.262 41.0781V40.4781ZM25.8493 39.5085C24.6824 39.9623 23.4493 40.2869 22.2152 40.4818L22.3088 41.0744C23.5827 40.8733 24.8576 40.5379 26.0667 40.0677L25.8493 39.5085ZM24.9378 37.8669C25.0758 38.5567 25.3504 39.3121 25.6958 39.9338L26.2203 39.6424C25.9056 39.0761 25.6522 38.3794 25.5262 37.7493L24.9378 37.8669ZM25.7107 36.6542C25.146 36.7483 24.753 37.3197 24.9474 37.903L25.5166 37.7132C25.447 37.5045 25.5821 37.2839 25.8093 37.246L25.7107 36.6542ZM26.9139 37.4288C26.8198 36.864 26.2484 36.4711 25.6651 36.6655L25.8549 37.2347C26.0636 37.1651 26.2842 37.3002 26.3221 37.5274L26.9139 37.4288ZM28.2912 40.1134C27.6067 39.3667 27.1641 38.4255 26.9091 37.4053L26.327 37.5509C26.5999 38.6427 27.0813 39.6814 27.8489 40.5188L28.2912 40.1134ZM29.0741 40.896L28.2821 40.104L27.8579 40.5282L28.6499 41.3202L29.0741 40.896ZM29.4046 42.0115C29.5896 41.5489 29.4113 41.0473 28.9962 40.8398L28.7279 41.3764C28.8408 41.4329 28.9264 41.5913 28.8475 41.7887L29.4046 42.0115ZM28.1071 42.6467C28.6603 42.8311 29.2262 42.5481 29.4106 41.995L28.8414 41.8052C28.7618 42.044 28.5357 42.1571 28.2969 42.0775L28.1071 42.6467ZM28.8932 46.7964C28.6326 45.363 28.502 43.863 28.502 42.3621H27.902C27.902 43.8972 28.0355 45.4332 28.3029 46.9038L28.8932 46.7964ZM28.898 47.1801V46.8501H28.298V47.1801H28.898ZM27.4432 54.1514C27.7716 51.7868 28.2308 49.4917 28.8858 47.2647L28.3102 47.0954C27.6452 49.3565 27.1805 51.6814 26.8489 54.0688L27.4432 54.1514ZM26.42 55.0701C26.6885 55.0701 26.9283 54.9789 27.1115 54.8079C27.292 54.6394 27.4002 54.41 27.4419 54.1594L26.8501 54.0608C26.8259 54.2061 26.769 54.3068 26.7021 54.3693C26.6377 54.4293 26.5475 54.4701 26.42 54.4701V55.0701ZM25.5301 53.9288C25.4804 54.2269 25.5824 54.4937 25.7429 54.6886C25.9005 54.8799 26.1256 55.0172 26.3612 55.0643L26.4789 54.4759C26.3844 54.457 26.2795 54.3962 26.2061 54.3071C26.1356 54.2215 26.1056 54.1253 26.1219 54.0274L25.5301 53.9288ZM26.9896 46.8337C26.3264 49.1547 25.7942 51.5477 25.5278 53.945L26.1242 54.0112C26.3858 51.6564 26.9096 49.2975 27.5665 46.9985L26.9896 46.8337ZM26.5822 40.9661C26.5155 42.9662 26.6489 44.9661 26.9821 46.9654L27.5739 46.8668C27.2472 44.9061 27.1165 42.946 27.1818 40.9861L26.5822 40.9661ZM22.7512 42.3969C24.2404 42.2615 25.6588 41.8555 27.0051 41.2497L26.7589 40.7025C25.4653 41.2847 24.1116 41.6707 22.6969 41.7993L22.7512 42.3969ZM19.3234 43.6504C20.6191 43.5141 21.8604 43.1034 22.9014 42.34L22.5466 41.8562C21.6076 42.5448 20.4729 42.9261 19.2606 43.0537L19.3234 43.6504ZM17.9699 43.3564C18.4167 43.5798 18.8609 43.6521 19.292 43.6521V43.0521C18.9311 43.0521 18.5834 42.9924 18.2382 42.8198L17.9699 43.3564ZM16.1542 39.7996C16.2227 41.5807 16.8471 42.7577 17.9628 43.3528L18.2452 42.8234C17.3809 42.3624 16.8173 41.4274 16.7538 39.7766L16.1542 39.7996ZM19.2581 30.4238C17.0977 33.0568 16.0194 36.4295 16.1543 39.8001L16.7538 39.7761C16.6246 36.5467 17.6583 33.3194 19.7219 30.8044L19.2581 30.4238ZM20.4607 25.8295C19.9269 27.3641 19.5278 28.9617 19.1963 30.5529L19.7837 30.6753C20.1122 29.0985 20.5051 27.5281 21.0274 26.0266L20.4607 25.8295ZM20.6845 25.11C20.6174 25.3343 20.5445 25.5778 20.4594 25.8332L21.0286 26.023C21.1171 25.7575 21.1925 25.5055 21.2594 25.282L20.6845 25.11ZM20.9275 24.3647C20.8472 24.5654 20.7688 24.8282 20.6845 25.11L21.2594 25.282C21.3467 24.9901 21.4166 24.7574 21.4846 24.5875L20.9275 24.3647ZM25.6727 20.8891C24.8981 21.1248 23.849 21.5301 22.9289 22.1009C22.0195 22.665 21.1778 23.4269 20.9163 24.3981L21.4957 24.5541C21.6962 23.8093 22.3725 23.1522 23.2452 22.6108C24.1071 22.0761 25.1039 21.6894 25.8474 21.4631L25.6727 20.8891Z" fill="black" mask="url(#path-1-outside-1)"/>
</svg>
