<svg width="68" height="68" viewBox="0 0 68 68" fill="none" xmlns="http://www.w3.org/2000/svg">
<path fill-rule="evenodd" clip-rule="evenodd" d="M24.9642 19.7527C25.7331 20.9479 25.3881 22.5398 24.192 23.3092C22.9958 24.0786 21.4067 23.7336 20.6359 22.537C19.867 21.3413 20.2129 19.749 21.4081 18.98C22.6029 18.2111 24.1957 18.5575 24.9642 19.7527ZM49.8154 46.2924C50.4979 46.7229 50.9086 46.9819 51.9314 46.9819C52.9559 46.9819 53.3667 46.7225 54.0476 46.2925L54.0478 46.2924C54.8679 45.7754 55.8831 45.1357 57.78 45.1357V46.5457C56.2903 46.5457 55.535 47.0217 54.8042 47.4823L54.804 47.4825L54.8036 47.4827C54.0621 47.9512 53.3646 48.3919 51.9323 48.3919C50.5021 48.3919 49.8041 47.952 49.0662 47.4862L49.064 47.4848C48.3306 47.0223 47.5749 46.5457 46.085 46.5457C44.5934 46.5457 43.8376 47.0232 43.1063 47.4852L43.1062 47.4853L43.1043 47.4864C42.3643 47.9527 41.6673 48.3919 40.2382 48.3919C38.8066 48.3919 38.1087 47.9515 37.3698 47.4853C36.6357 47.0223 35.8799 46.5457 34.3905 46.5457C32.8996 46.5457 32.1443 47.0227 31.4138 47.484L31.4126 47.4848L31.4106 47.486C30.6683 47.9532 29.9712 48.3919 28.5427 48.3919C27.1116 48.3919 26.4141 47.952 25.6767 47.4862L25.6753 47.4853C24.9407 47.0222 24.1849 46.5457 22.695 46.5457C21.2058 46.5457 20.451 47.0219 19.7211 47.4824L19.718 47.4843L19.7179 47.4844C18.9749 47.9525 18.2774 48.3919 16.8482 48.3919C15.4171 48.3919 14.7186 47.9515 13.9803 47.4857L13.9798 47.4855C13.2477 47.0231 12.4919 46.5457 11 46.5457V45.1357C12.9 45.1357 13.9157 45.7772 14.7321 46.2927L14.7323 46.2929L14.7324 46.2929C15.4133 46.7225 15.8246 46.9819 16.8482 46.9819C17.8705 46.9819 18.2817 46.7229 18.9623 46.2943C19.781 45.7768 20.7957 45.1357 22.695 45.1357C24.5938 45.1357 25.6095 45.7764 26.4254 46.2915C27.1088 46.7229 27.5191 46.9819 28.5427 46.9819C29.5655 46.9819 29.9762 46.7234 30.6563 46.2948C31.4755 45.7773 32.4912 45.1357 34.3905 45.1357C36.2874 45.1357 37.3031 45.7759 38.119 46.2905L38.1195 46.2909C38.8035 46.7226 39.2144 46.9819 40.2382 46.9819C41.2609 46.9819 41.6717 46.7229 42.3513 46.2943C43.1691 45.7773 44.1848 45.1357 46.0846 45.1357C47.9834 45.1357 48.9995 45.7768 49.8154 46.2924ZM57.7791 39.6363V38.2263H50.5096C50.5594 37.8324 50.4588 37.4202 50.1924 37.0846L49.5329 36.2532L53.1548 31.3332L53.8715 31.4507C53.9486 31.463 54.0252 31.4691 54.1009 31.4691C54.7791 31.4691 55.3774 30.9779 55.4907 30.2865C55.6166 29.5181 55.0949 28.7929 54.3265 28.6674L46.0921 27.3204L38.4005 22.713C37.7312 22.3116 36.866 22.5297 36.4665 23.1975C36.4148 23.2845 36.3744 23.3743 36.3424 23.4654C36.3242 23.4942 36.3025 23.528 36.2785 23.5655C36.2066 23.6775 36.1133 23.8228 36.0284 23.9679C35.9918 24.0327 35.9507 24.1025 35.9071 24.1767L35.9071 24.1768C35.8192 24.3262 35.7209 24.4933 35.6271 24.6738C35.5911 24.7418 35.5533 24.8118 35.5145 24.8839L35.5144 24.8841L35.5143 24.8842C35.398 25.1 35.2719 25.3341 35.1528 25.587C34.8215 26.2596 34.46 27.0482 34.1353 27.9248C34.0772 28.0754 34.0204 28.2306 33.9636 28.3856L33.9548 28.4098L27.293 27.3204L19.6015 22.713C18.9327 22.3116 18.0669 22.5297 17.6674 23.1975C17.6157 23.2845 17.5753 23.3743 17.5433 23.4654C17.5252 23.4942 17.5035 23.528 17.4794 23.5655L17.4794 23.5655C17.4075 23.6775 17.3142 23.8228 17.2294 23.9679C17.1927 24.0328 17.1517 24.1026 17.108 24.1767L17.108 24.1768C17.0202 24.3261 16.9219 24.4932 16.828 24.6738C16.792 24.7419 16.7542 24.812 16.7153 24.8841L16.7153 24.8841L16.7153 24.8841C16.599 25.0999 16.4728 25.3341 16.3538 25.587C16.0224 26.2596 15.661 27.0482 15.3362 27.9248C15.1684 28.3595 15.002 28.8117 14.862 29.2864C14.7891 29.5209 14.7153 29.7578 14.6411 29.9956L14.6143 30.0854L14.58 30.1944L14.5748 30.2142L14.5649 30.2532L14.5259 30.4097L14.4479 30.7232L14.3581 31.1184L14.2656 31.5532C14.2237 31.7519 14.198 31.9209 14.1724 32.0903C14.16 32.1717 14.1477 32.2531 14.1335 32.3381C14.0606 32.8429 14.008 33.3331 13.9742 33.8021C13.9055 34.7398 13.9008 35.5952 13.9206 36.3246C13.9408 37.0541 13.9864 37.6576 14.0268 38.0895L14.0418 38.2263H11V39.6363H26.4921L25.4614 41.0369C24.7856 40.7064 23.9283 40.4353 22.695 40.4353C20.7957 40.4353 19.781 41.0763 18.9623 41.5938C18.2817 42.0224 17.8705 42.2814 16.8482 42.2814C15.8246 42.2814 15.4133 42.022 14.7324 41.5925L14.7323 41.5924L14.7321 41.5923C13.9157 41.0767 12.9 40.4353 11 40.4353V41.8453C12.4919 41.8453 13.2477 42.3226 13.9798 42.785L13.9803 42.7853C14.7186 43.251 15.4171 43.6914 16.8482 43.6914C18.2774 43.6914 18.9749 43.252 19.7179 42.7839L19.718 42.7838L19.7211 42.7819C20.451 42.3214 21.2058 41.8453 22.695 41.8453C24.1849 41.8453 24.9407 42.3217 25.6753 42.7849L25.6767 42.7857C26.4141 43.2515 27.1116 43.6914 28.5427 43.6914C29.9712 43.6914 30.6683 43.2527 31.4106 42.7855L31.4126 42.7843L31.4138 42.7835C32.1443 42.3222 32.8996 41.8453 34.3905 41.8453C35.8799 41.8453 36.6357 42.3218 37.3698 42.7848C38.1087 43.251 38.8066 43.6914 40.2382 43.6914C41.6673 43.6914 42.3643 43.2522 43.1043 42.786L43.1062 42.7848L43.1063 42.7847C43.8376 42.3227 44.5934 41.8453 46.085 41.8453C47.5749 41.8453 48.3306 42.3218 49.064 42.7843L49.0662 42.7857C49.8041 43.2515 50.5021 43.6914 51.9323 43.6914C53.3646 43.6914 54.0621 43.2507 54.8036 42.7823L54.804 42.782L54.8042 42.7818C55.535 42.3213 56.2903 41.8453 57.78 41.8453V40.4353C55.8831 40.4353 54.8679 41.0749 54.0478 41.5919C53.3677 42.022 52.9569 42.2814 51.9323 42.2814C50.9096 42.2814 50.4988 42.0224 49.8164 41.5919C49.055 41.1111 48.1093 40.5274 46.4446 40.4503L47.0438 39.6363H57.7791ZM31.3928 37.0846L30.7339 36.2532L32.8075 33.436C32.8036 33.4799 32.7994 33.524 32.7952 33.568C32.7876 33.6467 32.7801 33.7251 32.7746 33.8017C32.706 34.7393 32.7013 35.5947 32.721 36.3242C32.7413 37.0536 32.7868 37.6571 32.8273 38.089L32.8423 38.2258H31.7105C31.7599 37.8324 31.6588 37.4202 31.3928 37.0846ZM44.0889 35.6131L46.5776 37.8897L46.3299 38.2263H40.5649L44.0889 35.6131ZM45.372 30.0605L51.592 31.078L48.6254 35.1083L45.756 31.4916C45.1986 30.788 44.2013 30.5624 43.3839 31.0033L43.1062 31.1523L39.5375 33.0741L39.6676 32.684L39.7776 32.3804L39.8326 32.2286L39.8458 32.191L39.8528 32.1722L39.8566 32.1623C39.8603 32.1513 39.8457 32.1969 39.8347 32.2316C39.8246 32.2633 39.8175 32.2858 39.8298 32.2474L39.8317 32.2432L39.8599 32.1816L39.8739 32.1508L39.8748 32.1487C39.9445 31.9953 40.0138 31.8427 40.0831 31.6914C40.2208 31.3652 40.3839 31.0512 40.5451 30.7495C40.8558 30.1437 41.1933 29.5956 41.4903 29.1416C41.5908 28.9791 41.6931 28.8351 41.7879 28.7018L41.7879 28.7018L41.788 28.7017C41.8287 28.6443 41.8681 28.5889 41.9053 28.5349C41.9862 28.4155 42.059 28.3205 42.1276 28.2322L44.8752 29.8776C45.0275 29.9698 45.1963 30.0313 45.372 30.0605ZM26.572 30.0605L32.792 31.078L29.8254 35.1087L26.956 31.4916C26.3986 30.788 25.4013 30.5624 24.5839 31.0033L24.3062 31.1523L20.7375 33.0741L20.8677 32.684L20.9776 32.3804L21.0326 32.2286L21.0458 32.191L21.0528 32.1722L21.0566 32.1623C21.0603 32.1513 21.0458 32.1966 21.0348 32.2313L21.0347 32.2316L21.0347 32.2317C21.0246 32.2633 21.0175 32.2857 21.0298 32.2474L21.0317 32.2432L21.0599 32.1816L21.0741 32.1503L21.0745 32.1493C21.1443 31.9957 21.2137 31.8429 21.2831 31.6914C21.4208 31.3652 21.5839 31.0512 21.7451 30.7495C22.0558 30.1437 22.3933 29.5956 22.6903 29.1416C22.7908 28.979 22.8932 28.8351 22.9879 28.7018C23.0287 28.6444 23.0681 28.5889 23.1053 28.5349C23.1862 28.4155 23.259 28.3205 23.3276 28.2322L26.0752 29.8776C26.2275 29.9698 26.3963 30.0313 26.572 30.0605ZM21.7649 38.2263L25.2889 35.6131L27.7776 37.8897L27.5304 38.2263H21.7649ZM44.5853 40.5965C43.5931 40.8188 42.92 41.2338 42.3509 41.5938C41.6713 42.0224 41.2605 42.2814 40.2378 42.2814C39.2139 42.2814 38.8031 42.0221 38.119 41.5904L38.1185 41.59C37.3026 41.0754 36.2869 40.4353 34.39 40.4353C32.4907 40.4353 31.4751 41.0768 30.6559 41.5943C29.9758 42.0229 29.565 42.2814 28.5423 42.2814C27.6549 42.2814 27.2282 42.0864 26.6848 41.7536L28.2434 39.6363H45.2917L44.5853 40.5965ZM43.7642 19.7527C44.5331 20.9479 44.1881 22.5398 42.9919 23.3092C41.7958 24.0786 40.2067 23.7336 39.4359 22.537C38.667 21.3413 39.0129 19.749 40.2081 18.98C41.4029 18.2111 42.9957 18.5575 43.7642 19.7527Z" fill="black"/>
</svg>
