<svg xmlns="http://www.w3.org/2000/svg" width="1311" height="1711.18" viewBox="0 0 1311 1711.18"><path d="M1336,520.93v16a21.13,21.13,0,0,0-1,2.73c-3.06,14.57-9.64,27.27-20.5,37.51q-47.62,44.93-95.45,89.66-160.33,150.55-320.75,301c-3.3,3.09-3.51,5.32-1.6,9.25,11,22.76,22.08,45.52,32.47,68.57,23.36,51.87-4,112.65-58.41,129.09-11.27,3.41-23.38,4-35.23,5.94.13.38.6,1.94,1.13,3.49,25.63,75.23,29.92,151.67,10.65,228.77-26.81,107.26-88.17,190.16-181,249.58-53.69,34.36-112.67,54.56-176.07,61.63-9.07,1-18.16,1.89-27.24,2.83H421c-1.45-.28-2.89-.65-4.35-.84-19.46-2.48-39.22-3.53-58.34-7.61-120.77-25.76-213.84-91.21-277.68-197.13-29.15-48.37-46.37-101.09-52.78-157.26-1-9.05-1.91-18.12-2.85-27.18v-40c.29-1.77.66-3.53.87-5.31,1.81-15.37,2.74-30.9,5.53-46.09,16.55-90,58.29-166.62,126-227.95C252,932,363.71,896.8,490.43,909.89c64.85,6.71,124.61,28.58,179.5,63.73,7,4.46,13.75,9.21,21.58,14.47-1.11-2.59-1.74-4.22-2.49-5.8q-28-59.1-55.93-118.24c-1.81-3.86-3.75-5.22-8.1-5.22q-181.5.23-363,0a151.49,151.49,0,0,1-24.34-2c-47.78-7.86-87.76-50.68-92.79-98.62-2.1-20-4.77-40-7.32-60q-7.19-56.49-14.53-113c-4.53-35.18-8.89-70.38-13.63-105.53-2.65-19.61-3.66-39,.43-58.63a139.91,139.91,0,0,1,265.81-25.47c1.87,4.43,4.05,5.36,8.39,5.36q120.75-.18,241.49-.06c31,0,57.7,19.28,67,48.34,2,6.25,2.85,12.86,4.29,19.63H1061q107.25,0,214.49,0c27.22,0,50.41,17.31,58,42.94C1334.42,514.88,1335.18,517.91,1336,520.93Zm-672.9,668c-2,1.87-3.6,3.3-5.15,4.76Q568.1,1278,478.22,1362.34c-14.74,13.8-32.5,18.92-52.19,15-23.77-4.78-39.73-19.28-46.25-42.64s-.33-43.88,17.35-60.53q82.08-77.28,164.37-154.37c5.33-5,10.64-10,16.88-15.93-15.4-7.26-29.93-14.62-44.89-21-10.82-4.61-21.94-9.55-33.4-11.46-28.84-4.8-58-5.28-87.22-3.29-18.32,1.24-36.5,3-53.49,10.93-11.45,5.35-23.4,9.72-34.57,15.6-13.51,7.12-27.37,14.15-39.36,23.44-13.75,10.66-26.14,23.26-38.14,35.94a178.27,178.27,0,0,0-23.18,29.86c-8.5,14.05-15.72,29-22.53,43.94-5,11-10.2,22.41-12.29,34.18-5,28-5.26,56.37-3,84.71.8,10.09,1.18,20.53,4.09,30.1,7.19,23.62,17.77,45.93,30,67.36,3.88,6.78,7.6,13.86,12.67,19.69,10.7,12.31,21.9,24.23,33.55,35.64,8.05,7.9,16.41,16,26,21.67,18.17,10.7,37.09,20.24,56.19,29.22,11.07,5.21,22.81,10.09,34.75,12.13,29.15,5,58.7,5.49,88.21,3.25,11.28-.85,23.15-.66,33.61-4.25,38.19-13.1,75.64-28.25,105.89-56.3,19.9-18.45,39.93-37,52.63-61.6,6.32-12.28,12.8-24.51,18.35-37.15,4.86-11.09,10.71-22.42,12.26-34.15,2.88-21.88,3.82-44.13,3.92-66.24.07-15.74-.55-32-4.46-47.12C687.67,1234.44,676,1211.75,663.1,1188.9Zm177.27-331,286.1-268.62H405.82c1.74,13.38,3.43,26.37,5.15,39.64h6.37c46.82,0,93.64-.22,140.46.07,39.3.25,78.62.4,117.87,1.9,38.5,1.48,66.47,20.67,83.18,55.31,22.69,47.06,44.82,94.38,67.2,141.59C830.75,837.7,835.47,847.6,840.37,857.91Z" transform="translate(-25 -15.82)"/><path d="M145.84,147.8c0-73.33,59.12-132.06,132.77-132C351.1,15.9,410.12,75.39,410,148.27,409.88,220.78,350.7,280,278.39,280,204.73,280,145.81,221.19,145.84,147.8Z" transform="translate(-25 -15.82)"/></svg>