<svg width="68" height="68" viewBox="0 0 68 68" fill="none" xmlns="http://www.w3.org/2000/svg">
<path d="M50.4573 18.8999C49.4685 17.9111 44.6827 17.7133 40.0155 18.4253C35.4275 19.1372 28.9409 21.0753 23.9968 26.0193C19.0924 30.9634 17.1938 37.4499 16.4424 41.9985C15.6909 46.6656 15.9282 51.4515 16.917 52.4403C17.5103 53.0335 19.4483 53.35 21.9006 53.35C23.5618 53.35 25.4603 53.1918 27.3192 52.9149C31.9073 52.2029 38.3939 50.2649 43.3379 45.3208C48.282 40.3768 50.1805 33.8902 50.932 29.3417C51.6835 24.6745 51.4462 19.8887 50.4573 18.8999ZM40.2528 20.0074L49.3499 29.1044C49.1917 29.9746 49.0335 30.9238 48.7961 31.8335L37.5237 20.5611C38.4334 20.3633 39.3827 20.1656 40.2528 20.0074ZM49.3499 20.0074C49.7058 20.6402 50.0223 23.4484 49.6267 27.1268L42.2305 19.7701C45.9088 19.3745 48.717 19.6514 49.3499 20.0074ZM27.1215 51.3328L18.0244 42.2358C18.1827 41.3656 18.3409 40.4164 18.5782 39.5067L29.8506 50.7791C28.9409 51.0164 28.0312 51.1746 27.1215 51.3328ZM18.0244 51.3328C17.6685 50.7 17.3521 47.8917 17.7476 44.2134L25.1439 51.6097C21.4655 51.9656 18.6573 51.6888 18.0244 51.3328ZM42.2305 44.2134C39.1454 47.2589 35.3484 49.1574 31.6304 50.3044L19.0528 37.7268C20.1603 34.0089 22.0588 30.2119 25.1439 27.1268C28.1894 24.0813 32.026 22.1827 35.7439 21.0357L48.3215 33.6134C47.1745 37.3313 45.276 41.1283 42.2305 44.2134ZM40.9648 30.7656C41.2812 31.082 41.2812 31.5566 40.9648 31.8731C40.8066 32.0313 40.6088 32.1104 40.4111 32.1104C40.2133 32.1104 40.0155 32.0313 39.8573 31.8731L39.2245 31.2402L38.7499 31.7149L39.3827 32.3477C39.6991 32.6641 39.6991 33.1387 39.3827 33.4552C39.2245 33.6134 39.0267 33.6925 38.829 33.6925C38.6312 33.6925 38.4334 33.6134 38.2752 33.4552L37.6424 32.8223L37.1678 33.2969L37.8006 33.9298C38.117 34.2462 38.117 34.7208 37.8006 35.0372C37.6424 35.1955 37.4446 35.2746 37.2469 35.2746C37.0491 35.2746 36.8513 35.1955 36.6931 35.0372L36.0603 34.4044L35.5857 34.879L36.2185 35.5119C36.5349 35.8283 36.5349 36.3029 36.2185 36.6193C36.0603 36.7775 35.8625 36.8567 35.6648 36.8567C35.467 36.8567 35.2693 36.7775 35.111 36.6193L34.4782 35.9865L34.0036 36.4611L34.6364 37.094C34.9528 37.4104 34.9528 37.885 34.6364 38.2014C34.4782 38.3596 34.2804 38.4387 34.0827 38.4387C33.8849 38.4387 33.6872 38.3596 33.529 38.2014L32.8961 37.5686L32.4215 38.0432L33.0543 38.6761C33.3707 38.9925 33.3707 39.4671 33.0543 39.7835C32.8961 39.9417 32.6984 40.0208 32.5006 40.0208C32.3028 40.0208 32.1051 39.9417 31.9469 39.7835L31.314 39.1507L30.8394 39.6253L31.4722 40.2581C31.7887 40.5746 31.7887 41.0492 31.4722 41.3656C31.314 41.5238 31.1163 41.6029 30.9185 41.6029C30.7207 41.6029 30.523 41.5238 30.3648 41.3656L29.7319 40.7328L29.2573 41.2074L29.8901 41.8402C30.2066 42.1567 30.2066 42.6313 29.8901 42.9477C29.7319 43.1059 29.5342 43.185 29.3364 43.185C29.1386 43.185 28.9409 43.1059 28.7827 42.9477L28.1498 42.3149L27.9125 42.5522C27.7543 42.7104 27.5566 42.7895 27.3588 42.7895C27.161 42.7895 26.9633 42.7104 26.8051 42.5522C26.4886 42.2358 26.4886 41.7611 26.8051 41.4447L27.0424 41.2074L26.4095 40.5746C26.0931 40.2582 26.0931 39.7835 26.4095 39.4671C26.726 39.1507 27.2006 39.1507 27.517 39.4671L28.1498 40.0999L28.6245 39.6253L27.9916 38.9925C27.6752 38.6761 27.6752 38.2014 27.9916 37.885C28.308 37.5686 28.7827 37.5686 29.0991 37.885L29.7319 38.5178L30.2066 38.0432L29.5737 37.4104C29.2573 37.094 29.2573 36.6193 29.5737 36.3029C29.8901 35.9865 30.3648 35.9865 30.6812 36.3029L31.314 36.9358L31.7887 36.4611L31.1558 35.8283C30.8394 35.5119 30.8394 35.0372 31.1558 34.7208C31.4722 34.4044 31.9469 34.4044 32.2633 34.7208L32.8961 35.3537L33.3707 34.879L32.7379 34.2462C32.4215 33.9298 32.4215 33.4552 32.7379 33.1387C33.0543 32.8223 33.529 32.8223 33.8454 33.1387L34.4782 33.7716L34.9528 33.2969L34.32 32.6641C34.0036 32.3477 34.0036 31.8731 34.32 31.5566C34.6364 31.2402 35.111 31.2402 35.4275 31.5566L36.0603 32.1895L36.5349 31.7149L35.9021 31.082C35.5857 30.7656 35.5857 30.291 35.9021 29.9745C36.2185 29.6581 36.6931 29.6581 37.0096 29.9745L37.6424 30.6074L38.117 30.1328L37.4842 29.4999C37.1678 29.1835 37.1678 28.7089 37.4842 28.3925C37.8006 28.076 38.2752 28.076 38.5917 28.3925L39.2245 29.0253L39.4618 28.788C39.7782 28.4716 40.2528 28.4716 40.5693 28.788C40.8857 29.1044 40.8857 29.579 40.5693 29.8954L40.332 30.1328L40.9648 30.7656Z" fill="black"/>
</svg>
