<svg width="68" height="68" viewBox="0 0 68 68" fill="none" xmlns="http://www.w3.org/2000/svg">
<path fill-rule="evenodd" clip-rule="evenodd" d="M32.1863 14.586V11C32.1863 10.448 32.6343 10 33.1863 10C33.7383 10 34.1863 10.448 34.1863 11V14.586L36.4793 12.293C36.8693 11.903 37.5033 11.903 37.8933 12.293C38.2833 12.683 38.2833 13.317 37.8933 13.707L34.1863 17.414V22.586L37.4793 19.293C37.8693 18.903 38.5033 18.903 38.8933 19.293C39.2833 19.683 39.2833 20.317 38.8933 20.707L34.1863 25.414V29.423L36.6503 30.845L40.1223 28.841L41.8443 22.411C41.9873 21.878 42.5363 21.561 43.0693 21.704C43.6023 21.847 43.9193 22.396 43.7763 22.929L42.5713 27.427L47.0503 24.841L48.4073 19.777C48.5493 19.244 49.0983 18.927 49.6313 19.07C50.1643 19.213 50.4813 19.762 50.3383 20.295L49.4993 23.427L52.6053 21.634C53.0833 21.358 53.6953 21.522 53.9713 22C54.2473 22.478 54.0833 23.09 53.6053 23.366L50.4993 25.159L53.6313 25.998C54.1643 26.141 54.4813 26.69 54.3383 27.223C54.1963 27.756 53.6473 28.073 53.1143 27.93L48.0503 26.573L43.5713 29.159L48.0693 30.364C48.6023 30.507 48.9193 31.056 48.7763 31.589C48.6333 32.122 48.0853 32.439 47.5523 32.296L41.1223 30.573L37.6503 32.577V35.423L41.1223 37.427L47.5523 35.704C48.0853 35.561 48.6333 35.878 48.7763 36.411C48.9193 36.944 48.6023 37.493 48.0693 37.636L43.5713 38.841L48.0503 41.427L53.1143 40.07C53.6473 39.927 54.1963 40.244 54.3383 40.777C54.4813 41.31 54.1643 41.859 53.6313 42.002L50.4993 42.841L53.6053 44.634C54.0833 44.91 54.2473 45.522 53.9713 46C53.6953 46.478 53.0833 46.642 52.6053 46.366L49.4993 44.573L50.3383 47.705C50.4813 48.238 50.1643 48.787 49.6313 48.93C49.0983 49.073 48.5493 48.756 48.4073 48.223L47.0503 43.159L42.5713 40.573L43.7763 45.071C43.9193 45.604 43.6023 46.153 43.0693 46.296C42.5363 46.439 41.9873 46.122 41.8443 45.589L40.1223 39.159L36.6503 37.155L34.1863 38.577V42.586L38.8933 47.293C39.2833 47.683 39.2833 48.317 38.8933 48.707C38.5033 49.097 37.8693 49.097 37.4793 48.707L34.1863 45.414V50.586L37.8933 54.293C38.2833 54.683 38.2833 55.317 37.8933 55.707C37.5033 56.097 36.8693 56.097 36.4793 55.707L34.1863 53.414V57C34.1863 57.552 33.7383 58 33.1863 58C32.6343 58 32.1863 57.552 32.1863 57V53.414L29.8933 55.707C29.5033 56.097 28.8693 56.097 28.4793 55.707C28.0893 55.317 28.0893 54.683 28.4793 54.293L32.1863 50.586V45.414L28.8933 48.707C28.5033 49.097 27.8693 49.097 27.4793 48.707C27.0893 48.317 27.0893 47.683 27.4793 47.293L32.1863 42.586V38.577L29.7223 37.155L26.2503 39.159L24.5283 45.589C24.3853 46.122 23.8363 46.439 23.3033 46.296C22.7703 46.153 22.4533 45.604 22.5963 45.071L23.8013 40.573L19.3223 43.159L17.9653 48.223C17.8233 48.756 17.2743 49.073 16.7413 48.93C16.2083 48.787 15.8913 48.238 16.0343 47.705L16.8733 44.573L13.7673 46.366C13.2893 46.642 12.6773 46.478 12.4013 46C12.1253 45.522 12.2893 44.91 12.7673 44.634L15.8733 42.841L12.7413 42.002C12.2083 41.859 11.8913 41.31 12.0343 40.777C12.1763 40.244 12.7253 39.927 13.2583 40.07L18.3223 41.427L22.8013 38.841L18.3033 37.636C17.7703 37.493 17.4533 36.944 17.5963 36.411C17.7393 35.878 18.2873 35.561 18.8203 35.704L25.2503 37.427L28.7223 35.423V32.577L25.2503 30.573L18.8203 32.296C18.2873 32.439 17.7393 32.122 17.5963 31.589C17.4533 31.056 17.7703 30.507 18.3033 30.364L22.8013 29.159L18.3223 26.573L13.2583 27.93C12.7253 28.073 12.1763 27.756 12.0343 27.223C11.8913 26.69 12.2083 26.141 12.7413 25.998L15.8733 25.159L12.7673 23.366C12.2893 23.09 12.1253 22.478 12.4013 22C12.6773 21.522 13.2893 21.358 13.7673 21.634L16.8733 23.427L16.0343 20.295C15.8913 19.762 16.2083 19.213 16.7413 19.07C17.2743 18.927 17.8233 19.244 17.9653 19.777L19.3223 24.841L23.8013 27.427L22.5963 22.929C22.4533 22.396 22.7703 21.847 23.3033 21.704C23.8363 21.561 24.3853 21.878 24.5283 22.411L26.2503 28.841L29.7223 30.845L32.1863 29.423V25.414L27.4793 20.707C27.0893 20.317 27.0893 19.683 27.4793 19.293C27.8693 18.903 28.5033 18.903 28.8933 19.293L32.1863 22.586V17.414L28.4793 13.707C28.0893 13.317 28.0893 12.683 28.4793 12.293C28.8693 11.903 29.5033 11.903 29.8933 12.293L32.1863 14.586ZM30.7223 32.577V35.423L33.1863 36.845L35.6503 35.423V32.577L33.1863 31.155L30.7223 32.577Z" fill="black"/>
</svg>
