<svg width="68" height="68" viewBox="0 0 68 68" fill="none" xmlns="http://www.w3.org/2000/svg">
<path fill-rule="evenodd" clip-rule="evenodd" d="M34.8932 15.5059C36.4154 15.5059 37.6475 14.2737 37.6475 12.7546C37.6475 11.2324 36.4158 10.0005 34.8932 10C33.3741 10 32.1421 11.2324 32.1421 12.7546C32.1421 14.2732 33.3741 15.5059 34.8932 15.5059ZM53.1577 18.366L57.701 22.5078C58.3868 22.9565 58.7312 23.5771 58.7317 24.3677C58.7317 24.988 58.4844 25.4968 57.9822 25.8931C57.4813 26.2874 56.9243 26.4331 56.3059 26.3296L54.1934 25.8347C54.1697 26.0034 54.1475 26.1729 54.0984 26.3364C53.7196 27.6086 52.6315 28.5647 51.0319 29.0334C50.5519 29.1733 50.0372 29.2461 49.5078 29.2888L44.322 41.1204V51.771C44.322 52.7117 43.5601 53.4753 42.6194 53.4753C41.6787 53.4753 40.9167 52.7117 40.9167 51.771V39.239H40.9043V27.1648C40.9043 26.9197 40.7555 26.6978 40.5291 26.6028C40.2992 26.511 40.0416 26.5596 39.8651 26.7339L33.9178 32.6812C33.6816 32.9192 33.6816 33.3054 33.9178 33.5435C34.1553 33.7805 34.5421 33.7805 34.7795 33.5435L39.6882 28.6331V39.2373L30.4902 39.2249L27.9419 42.6633L31.3364 51.3152C31.6769 52.1926 31.2429 53.1772 30.3638 53.5168C29.4877 53.8555 28.5024 53.4219 28.162 52.5471L23.9979 41.9326L29.0568 35.8174L28.2997 35.2061L21.6697 43.22L21.6791 43.228L21.6666 51.771C21.6666 52.7117 20.9042 53.4753 19.9635 53.4753C19.0228 53.4753 18.2609 52.7117 18.2609 51.771L18.2471 41.2278L19.9292 38.5752V28.9956L18.2471 31.5962V39.1941H15V31.4883C15 30.2261 15.4403 29.1414 16.3239 28.2368C17.2079 27.3354 18.2819 26.8845 19.5487 26.8845H29.7439C29.0929 26.4089 28.6638 25.6458 28.6638 24.7795V17.9939C28.6638 16.5547 29.833 15.3853 31.2723 15.3853C32.712 15.3853 33.8809 16.5547 33.8809 17.9939V22.9216C35.4899 22.9216 38.2637 22.9199 38.4883 22.9187C39.649 22.8599 40.6899 23.8816 40.6899 25.0918C40.6899 25.269 40.6807 25.5334 40.6807 25.5334C41.8574 26.9971 43.8644 28.228 45.9961 28.9182C47.287 29.3367 49.5172 29.2856 49.5172 29.2856L50.0239 28.1196C49.9246 28.1208 49.8046 28.1252 49.6676 28.1301C48.887 28.158 47.5524 28.2058 46.3196 27.8286C44.3541 27.2266 42.5548 26.0735 41.5281 24.7559L53.2424 14.0308L53.1577 18.366ZM50.7114 27.9424C51.9297 27.5881 52.7456 26.9019 53.0121 26.0132C53.0372 25.9268 53.0564 25.8376 53.0704 25.7473C53.0792 25.6907 53.0859 25.6335 53.0909 25.5762L51.317 25.1614L50.0391 28.0774C50.0879 28.0688 50.137 28.0605 50.1859 28.0525C50.3654 28.0225 50.5437 27.9924 50.7114 27.9424Z" fill="black"/>
</svg>
