<svg width="68" height="68" viewBox="0 0 68 68" fill="none" xmlns="http://www.w3.org/2000/svg">
<path d="M28.3675 17.7998C28.101 17.8277 27.8544 17.9537 27.6756 18.1533C27.4968 18.3529 27.3986 18.6118 27.4 18.8798V21.4673L17.3987 24.1448C17.123 24.2188 16.8877 24.3988 16.7444 24.6454C16.6011 24.892 16.5613 25.1852 16.6337 25.4611L23.0687 49.4011C23.1053 49.5385 23.1686 49.6674 23.2552 49.7804C23.3418 49.8933 23.4499 49.988 23.5732 50.0591C23.6966 50.1302 23.8328 50.1763 23.9741 50.1946C24.1153 50.213 24.2588 50.2033 24.3962 50.1661L39.9212 46.0148C40.059 45.9782 40.1882 45.9148 40.3013 45.8282C40.4145 45.7416 40.5093 45.6334 40.5804 45.51C40.6515 45.3867 40.6975 45.2504 40.7156 45.1092C40.7338 44.968 40.7238 44.8246 40.6862 44.6873L40.6187 44.4398H44.32C44.6064 44.4398 44.8811 44.326 45.0836 44.1234C45.2862 43.9209 45.4 43.6462 45.4 43.3598V41.1661C45.4026 41.0122 45.3723 40.8597 45.3112 40.7185C45.25 40.5774 45.1595 40.4509 45.0455 40.3476C44.9315 40.2442 44.7968 40.1665 44.6503 40.1194C44.5039 40.0724 44.3491 40.0572 44.1962 40.0748C43.9298 40.1055 43.6844 40.2343 43.5076 40.436C43.3309 40.6377 43.2355 40.8979 43.24 41.1661V42.2798H40.0337L34.2512 20.7586C34.196 20.5481 34.0784 20.3592 33.9138 20.2167C33.7491 20.0741 33.5452 19.9846 33.3287 19.9598H43.24V36.7223C43.238 36.8654 43.2644 37.0075 43.3178 37.1403C43.3711 37.2731 43.4504 37.394 43.5509 37.4959C43.6514 37.5978 43.7711 37.6788 43.9031 37.734C44.0352 37.7892 44.1769 37.8177 44.32 37.8177C44.4631 37.8177 44.6048 37.7892 44.7369 37.734C44.8689 37.6788 44.9886 37.5978 45.0891 37.4959C45.1896 37.394 45.2688 37.2731 45.3222 37.1403C45.3756 37.0075 45.402 36.8654 45.4 36.7223V18.8798C45.4 18.5934 45.2862 18.3187 45.0836 18.1162C44.8811 17.9136 44.6064 17.7998 44.32 17.7998H28.48C28.4425 17.7979 28.405 17.7979 28.3675 17.7998ZM29.56 19.9598H33.115C33.0541 19.966 32.9939 19.9772 32.935 19.9936L29.56 20.8936V19.9598ZM32.4512 22.3561L38.3237 44.2036L24.88 47.7923L19.0075 25.9448L32.4512 22.3561ZM31.045 30.7598C30.1427 30.736 29.2572 31.186 28.7725 32.0086L28.2212 32.9423L27.265 32.4023C26.0439 31.7115 24.4938 32.1171 23.7887 33.3136C23.0837 34.5101 23.4901 36.0315 24.7112 36.7223L30.0775 39.7598L33.1712 34.5061C33.8763 33.3095 33.4699 31.7881 32.2487 31.0973C31.8671 30.8814 31.4551 30.7706 31.045 30.7598Z" fill="black"/>
</svg>
