<svg width="68" height="68" viewBox="0 0 68 68" fill="none" xmlns="http://www.w3.org/2000/svg">
<mask id="path-1-outside-1" maskUnits="userSpaceOnUse" x="13" y="12" width="43" height="43" fill="black">
<rect fill="white" x="13" y="12" width="43" height="43"/>
<path d="M34.7031 13C30.6084 13 26.6057 14.2142 23.2011 16.4891C19.7965 18.764 17.1429 21.9974 15.5759 25.7804C14.009 29.5634 13.599 33.7261 14.3978 37.7421C15.1966 41.7581 17.1684 45.4471 20.0638 48.3424C22.9592 51.2378 26.6481 53.2096 30.6642 54.0084C34.6802 54.8073 38.8429 54.3973 42.6259 52.8303C46.4089 51.2633 49.6423 48.6098 51.9171 45.2052C54.192 41.8005 55.4063 37.7978 55.4063 33.7031C55.4 28.2142 53.2168 22.9519 49.3356 19.0707C45.4543 15.1894 40.192 13.0062 34.7031 13ZM53.957 32.1083L51.4727 34.5927C51.3797 34.6853 51.3153 34.8027 51.287 34.9308L49.9455 40.9492L47.125 43.769V37.1536C47.125 37.0657 47.1083 36.9786 47.076 36.8969L45.6958 33.4464C45.6445 33.3184 45.556 33.2086 45.4417 33.1314C45.3274 33.0541 45.1926 33.0129 45.0547 33.013H39.7637L37.4173 31.2526L36.8169 27.0429L40.0231 23.836C40.1512 23.7072 40.2234 23.5332 40.224 23.3516V21.2812C40.2239 21.0982 40.1512 20.9227 40.0218 20.7933L38.9935 19.7651L40.0342 17.6837L43.2659 16.387C46.2501 17.8662 48.802 20.0904 50.6749 22.8445C52.5478 25.5986 53.6783 28.7894 53.957 32.1083ZM24.7291 17.1599L27.8021 18.309V21.5808L21.2358 25.5206C21.1535 25.5701 21.0824 25.6362 21.0272 25.7148C20.9719 25.7933 20.9337 25.8825 20.9149 25.9767L20.4014 28.5411L18.4491 27.5646C18.3605 27.5199 18.2633 27.4949 18.1642 27.4911C18.065 27.4874 17.9662 27.5051 17.8745 27.543C17.7828 27.581 17.7003 27.6382 17.6328 27.7109C17.5652 27.7836 17.5141 27.87 17.483 27.9642L16.7929 30.0345C16.7597 30.1343 16.7497 30.2402 16.7637 30.3444C16.7777 30.4486 16.8153 30.5482 16.8736 30.6356L19.634 34.7762C19.7249 34.9122 19.8611 35.0115 20.0184 35.0564L24.5876 36.3621L26.5199 39.5794C26.5738 39.669 26.6473 39.7451 26.7349 39.8022C26.8225 39.8592 26.922 39.8956 27.0257 39.9085L31.7736 40.5027L31.3092 42.3612L28.6426 45.6937C28.5735 45.7798 28.5261 45.8814 28.5046 45.9897L27.8145 49.4403C27.7926 49.5481 27.7971 49.6596 27.8276 49.7653L28.4625 51.9867C27.9518 51.8114 27.4508 51.6166 26.9595 51.4022L24.3053 44.497C24.2436 44.3362 24.124 44.2043 23.9699 44.1271L21.3551 42.8201L19.5208 40.3744V37.1536C19.5206 37.0174 19.4803 36.8842 19.4049 36.7706L16.6686 32.668L15.6335 30.5977C16.0872 27.8332 17.1354 25.2 18.7057 22.8801C20.2761 20.5601 22.3311 18.6085 24.7291 17.1599ZM15.3802 33.7031C15.3802 33.5347 15.3885 33.3691 15.3926 33.2014L18.1406 37.3607V40.6042C18.1406 40.7535 18.1891 40.8988 18.2787 41.0182L20.349 43.7786C20.413 43.8656 20.4964 43.9365 20.5926 43.9857L23.1135 45.2458L25.1266 50.4726C22.1686 48.7839 19.7094 46.3436 17.9979 43.3988C16.2864 40.4539 15.3833 37.1092 15.3802 33.7031ZM34.7031 53.026C33.1286 53.0261 31.5601 52.8333 30.0325 52.4519L29.2044 49.5465L29.8289 46.4252L32.4844 43.1058C32.5462 43.0282 32.5907 42.9383 32.6149 42.8422L33.305 40.0818C33.3287 39.987 33.332 39.8884 33.3148 39.7922C33.2975 39.6961 33.26 39.6048 33.2048 39.5242C33.1497 39.4437 33.078 39.3758 32.9946 39.3249C32.9113 39.2741 32.818 39.2416 32.7212 39.2295L27.5336 38.5808L25.6359 35.418C25.5461 35.268 25.4024 35.1579 25.2342 35.1102L20.6471 33.799L18.2096 30.1505L18.5409 29.1553L20.5926 30.1836C20.6875 30.2309 20.7921 30.2557 20.8983 30.2561C21.0044 30.2564 21.1091 30.2323 21.2044 30.1856C21.2997 30.1388 21.3829 30.0708 21.4476 29.9866C21.5123 29.9025 21.5567 29.8046 21.5774 29.7005L22.2081 26.5495L28.8476 22.5655C28.9501 22.504 29.0348 22.4168 29.0935 22.3127C29.1521 22.2085 29.1828 22.0909 29.1823 21.9714V17.8307C29.1824 17.6902 29.1395 17.5529 29.0595 17.4374C28.9795 17.3218 28.866 17.2334 28.7344 17.1841L26.3363 16.287C28.6855 15.1572 31.2392 14.515 33.8433 14.3993C36.4475 14.2835 39.0481 14.6965 41.4882 15.6134L39.2799 16.5002C39.123 16.5629 38.9946 16.681 38.919 16.8321L37.5388 19.5926C37.4741 19.7221 37.4518 19.8688 37.4751 20.0117C37.4984 20.1546 37.5661 20.2866 37.6685 20.3889L38.8438 21.567V23.0659L35.5954 26.3142C35.5196 26.39 35.4625 26.4824 35.4286 26.5841C35.3947 26.6858 35.3849 26.794 35.4001 26.9001L36.0902 31.7308C36.1162 31.9119 36.213 32.0752 36.3594 32.1849L39.1198 34.2552C39.2393 34.3448 39.3845 34.3932 39.5339 34.3932H44.5875L45.7448 37.2861V45.4349C45.7448 45.5714 45.7853 45.7048 45.8611 45.8182C45.937 45.9317 46.0447 46.0201 46.1708 46.0723C46.2969 46.1245 46.4356 46.1382 46.5695 46.1116C46.7033 46.085 46.8263 46.0193 46.9228 45.9228L51.0634 41.7822C51.1564 41.6895 51.2208 41.5722 51.2491 41.444L52.5858 35.4284L54.0185 33.9957C53.9368 39.0668 51.8667 43.9028 48.2539 47.4623C44.6411 51.0218 39.7748 53.0198 34.7031 53.026Z"/>
</mask>
<path d="M34.7031 13C30.6084 13 26.6057 14.2142 23.2011 16.4891C19.7965 18.764 17.1429 21.9974 15.5759 25.7804C14.009 29.5634 13.599 33.7261 14.3978 37.7421C15.1966 41.7581 17.1684 45.4471 20.0638 48.3424C22.9592 51.2378 26.6481 53.2096 30.6642 54.0084C34.6802 54.8073 38.8429 54.3973 42.6259 52.8303C46.4089 51.2633 49.6423 48.6098 51.9171 45.2052C54.192 41.8005 55.4063 37.7978 55.4063 33.7031C55.4 28.2142 53.2168 22.9519 49.3356 19.0707C45.4543 15.1894 40.192 13.0062 34.7031 13ZM53.957 32.1083L51.4727 34.5927C51.3797 34.6853 51.3153 34.8027 51.287 34.9308L49.9455 40.9492L47.125 43.769V37.1536C47.125 37.0657 47.1083 36.9786 47.076 36.8969L45.6958 33.4464C45.6445 33.3184 45.556 33.2086 45.4417 33.1314C45.3274 33.0541 45.1926 33.0129 45.0547 33.013H39.7637L37.4173 31.2526L36.8169 27.0429L40.0231 23.836C40.1512 23.7072 40.2234 23.5332 40.224 23.3516V21.2812C40.2239 21.0982 40.1512 20.9227 40.0218 20.7933L38.9935 19.7651L40.0342 17.6837L43.2659 16.387C46.2501 17.8662 48.802 20.0904 50.6749 22.8445C52.5478 25.5986 53.6783 28.7894 53.957 32.1083ZM24.7291 17.1599L27.8021 18.309V21.5808L21.2358 25.5206C21.1535 25.5701 21.0824 25.6362 21.0272 25.7148C20.9719 25.7933 20.9337 25.8825 20.9149 25.9767L20.4014 28.5411L18.4491 27.5646C18.3605 27.5199 18.2633 27.4949 18.1642 27.4911C18.065 27.4874 17.9662 27.5051 17.8745 27.543C17.7828 27.581 17.7003 27.6382 17.6328 27.7109C17.5652 27.7836 17.5141 27.87 17.483 27.9642L16.7929 30.0345C16.7597 30.1343 16.7497 30.2402 16.7637 30.3444C16.7777 30.4486 16.8153 30.5482 16.8736 30.6356L19.634 34.7762C19.7249 34.9122 19.8611 35.0115 20.0184 35.0564L24.5876 36.3621L26.5199 39.5794C26.5738 39.669 26.6473 39.7451 26.7349 39.8022C26.8225 39.8592 26.922 39.8956 27.0257 39.9085L31.7736 40.5027L31.3092 42.3612L28.6426 45.6937C28.5735 45.7798 28.5261 45.8814 28.5046 45.9897L27.8145 49.4403C27.7926 49.5481 27.7971 49.6596 27.8276 49.7653L28.4625 51.9867C27.9518 51.8114 27.4508 51.6166 26.9595 51.4022L24.3053 44.497C24.2436 44.3362 24.124 44.2043 23.9699 44.1271L21.3551 42.8201L19.5208 40.3744V37.1536C19.5206 37.0174 19.4803 36.8842 19.4049 36.7706L16.6686 32.668L15.6335 30.5977C16.0872 27.8332 17.1354 25.2 18.7057 22.8801C20.2761 20.5601 22.3311 18.6085 24.7291 17.1599ZM15.3802 33.7031C15.3802 33.5347 15.3885 33.3691 15.3926 33.2014L18.1406 37.3607V40.6042C18.1406 40.7535 18.1891 40.8988 18.2787 41.0182L20.349 43.7786C20.413 43.8656 20.4964 43.9365 20.5926 43.9857L23.1135 45.2458L25.1266 50.4726C22.1686 48.7839 19.7094 46.3436 17.9979 43.3988C16.2864 40.4539 15.3833 37.1092 15.3802 33.7031ZM34.7031 53.026C33.1286 53.0261 31.5601 52.8333 30.0325 52.4519L29.2044 49.5465L29.8289 46.4252L32.4844 43.1058C32.5462 43.0282 32.5907 42.9383 32.6149 42.8422L33.305 40.0818C33.3287 39.987 33.332 39.8884 33.3148 39.7922C33.2975 39.6961 33.26 39.6048 33.2048 39.5242C33.1497 39.4437 33.078 39.3758 32.9946 39.3249C32.9113 39.2741 32.818 39.2416 32.7212 39.2295L27.5336 38.5808L25.6359 35.418C25.5461 35.268 25.4024 35.1579 25.2342 35.1102L20.6471 33.799L18.2096 30.1505L18.5409 29.1553L20.5926 30.1836C20.6875 30.2309 20.7921 30.2557 20.8983 30.2561C21.0044 30.2564 21.1091 30.2323 21.2044 30.1856C21.2997 30.1388 21.3829 30.0708 21.4476 29.9866C21.5123 29.9025 21.5567 29.8046 21.5774 29.7005L22.2081 26.5495L28.8476 22.5655C28.9501 22.504 29.0348 22.4168 29.0935 22.3127C29.1521 22.2085 29.1828 22.0909 29.1823 21.9714V17.8307C29.1824 17.6902 29.1395 17.5529 29.0595 17.4374C28.9795 17.3218 28.866 17.2334 28.7344 17.1841L26.3363 16.287C28.6855 15.1572 31.2392 14.515 33.8433 14.3993C36.4475 14.2835 39.0481 14.6965 41.4882 15.6134L39.2799 16.5002C39.123 16.5629 38.9946 16.681 38.919 16.8321L37.5388 19.5926C37.4741 19.7221 37.4518 19.8688 37.4751 20.0117C37.4984 20.1546 37.5661 20.2866 37.6685 20.3889L38.8438 21.567V23.0659L35.5954 26.3142C35.5196 26.39 35.4625 26.4824 35.4286 26.5841C35.3947 26.6858 35.3849 26.794 35.4001 26.9001L36.0902 31.7308C36.1162 31.9119 36.213 32.0752 36.3594 32.1849L39.1198 34.2552C39.2393 34.3448 39.3845 34.3932 39.5339 34.3932H44.5875L45.7448 37.2861V45.4349C45.7448 45.5714 45.7853 45.7048 45.8611 45.8182C45.937 45.9317 46.0447 46.0201 46.1708 46.0723C46.2969 46.1245 46.4356 46.1382 46.5695 46.1116C46.7033 46.085 46.8263 46.0193 46.9228 45.9228L51.0634 41.7822C51.1564 41.6895 51.2208 41.5722 51.2491 41.444L52.5858 35.4284L54.0185 33.9957C53.9368 39.0668 51.8667 43.9028 48.2539 47.4623C44.6411 51.0218 39.7748 53.0198 34.7031 53.026Z" fill="black"/>
<path d="M34.7031 13C30.6084 13 26.6057 14.2142 23.2011 16.4891C19.7965 18.764 17.1429 21.9974 15.5759 25.7804C14.009 29.5634 13.599 33.7261 14.3978 37.7421C15.1966 41.7581 17.1684 45.4471 20.0638 48.3424C22.9592 51.2378 26.6481 53.2096 30.6642 54.0084C34.6802 54.8073 38.8429 54.3973 42.6259 52.8303C46.4089 51.2633 49.6423 48.6098 51.9171 45.2052C54.192 41.8005 55.4063 37.7978 55.4063 33.7031C55.4 28.2142 53.2168 22.9519 49.3356 19.0707C45.4543 15.1894 40.192 13.0062 34.7031 13ZM53.957 32.1083L51.4727 34.5927C51.3797 34.6853 51.3153 34.8027 51.287 34.9308L49.9455 40.9492L47.125 43.769V37.1536C47.125 37.0657 47.1083 36.9786 47.076 36.8969L45.6958 33.4464C45.6445 33.3184 45.556 33.2086 45.4417 33.1314C45.3274 33.0541 45.1926 33.0129 45.0547 33.013H39.7637L37.4173 31.2526L36.8169 27.0429L40.0231 23.836C40.1512 23.7072 40.2234 23.5332 40.224 23.3516V21.2812C40.2239 21.0982 40.1512 20.9227 40.0218 20.7933L38.9935 19.7651L40.0342 17.6837L43.2659 16.387C46.2501 17.8662 48.802 20.0904 50.6749 22.8445C52.5478 25.5986 53.6783 28.7894 53.957 32.1083ZM24.7291 17.1599L27.8021 18.309V21.5808L21.2358 25.5206C21.1535 25.5701 21.0824 25.6362 21.0272 25.7148C20.9719 25.7933 20.9337 25.8825 20.9149 25.9767L20.4014 28.5411L18.4491 27.5646C18.3605 27.5199 18.2633 27.4949 18.1642 27.4911C18.065 27.4874 17.9662 27.5051 17.8745 27.543C17.7828 27.581 17.7003 27.6382 17.6328 27.7109C17.5652 27.7836 17.5141 27.87 17.483 27.9642L16.7929 30.0345C16.7597 30.1343 16.7497 30.2402 16.7637 30.3444C16.7777 30.4486 16.8153 30.5482 16.8736 30.6356L19.634 34.7762C19.7249 34.9122 19.8611 35.0115 20.0184 35.0564L24.5876 36.3621L26.5199 39.5794C26.5738 39.669 26.6473 39.7451 26.7349 39.8022C26.8225 39.8592 26.922 39.8956 27.0257 39.9085L31.7736 40.5027L31.3092 42.3612L28.6426 45.6937C28.5735 45.7798 28.5261 45.8814 28.5046 45.9897L27.8145 49.4403C27.7926 49.5481 27.7971 49.6596 27.8276 49.7653L28.4625 51.9867C27.9518 51.8114 27.4508 51.6166 26.9595 51.4022L24.3053 44.497C24.2436 44.3362 24.124 44.2043 23.9699 44.1271L21.3551 42.8201L19.5208 40.3744V37.1536C19.5206 37.0174 19.4803 36.8842 19.4049 36.7706L16.6686 32.668L15.6335 30.5977C16.0872 27.8332 17.1354 25.2 18.7057 22.8801C20.2761 20.5601 22.3311 18.6085 24.7291 17.1599ZM15.3802 33.7031C15.3802 33.5347 15.3885 33.3691 15.3926 33.2014L18.1406 37.3607V40.6042C18.1406 40.7535 18.1891 40.8988 18.2787 41.0182L20.349 43.7786C20.413 43.8656 20.4964 43.9365 20.5926 43.9857L23.1135 45.2458L25.1266 50.4726C22.1686 48.7839 19.7094 46.3436 17.9979 43.3988C16.2864 40.4539 15.3833 37.1092 15.3802 33.7031ZM34.7031 53.026C33.1286 53.0261 31.5601 52.8333 30.0325 52.4519L29.2044 49.5465L29.8289 46.4252L32.4844 43.1058C32.5462 43.0282 32.5907 42.9383 32.6149 42.8422L33.305 40.0818C33.3287 39.987 33.332 39.8884 33.3148 39.7922C33.2975 39.6961 33.26 39.6048 33.2048 39.5242C33.1497 39.4437 33.078 39.3758 32.9946 39.3249C32.9113 39.2741 32.818 39.2416 32.7212 39.2295L27.5336 38.5808L25.6359 35.418C25.5461 35.268 25.4024 35.1579 25.2342 35.1102L20.6471 33.799L18.2096 30.1505L18.5409 29.1553L20.5926 30.1836C20.6875 30.2309 20.7921 30.2557 20.8983 30.2561C21.0044 30.2564 21.1091 30.2323 21.2044 30.1856C21.2997 30.1388 21.3829 30.0708 21.4476 29.9866C21.5123 29.9025 21.5567 29.8046 21.5774 29.7005L22.2081 26.5495L28.8476 22.5655C28.9501 22.504 29.0348 22.4168 29.0935 22.3127C29.1521 22.2085 29.1828 22.0909 29.1823 21.9714V17.8307C29.1824 17.6902 29.1395 17.5529 29.0595 17.4374C28.9795 17.3218 28.866 17.2334 28.7344 17.1841L26.3363 16.287C28.6855 15.1572 31.2392 14.515 33.8433 14.3993C36.4475 14.2835 39.0481 14.6965 41.4882 15.6134L39.2799 16.5002C39.123 16.5629 38.9946 16.681 38.919 16.8321L37.5388 19.5926C37.4741 19.7221 37.4518 19.8688 37.4751 20.0117C37.4984 20.1546 37.5661 20.2866 37.6685 20.3889L38.8438 21.567V23.0659L35.5954 26.3142C35.5196 26.39 35.4625 26.4824 35.4286 26.5841C35.3947 26.6858 35.3849 26.794 35.4001 26.9001L36.0902 31.7308C36.1162 31.9119 36.213 32.0752 36.3594 32.1849L39.1198 34.2552C39.2393 34.3448 39.3845 34.3932 39.5339 34.3932H44.5875L45.7448 37.2861V45.4349C45.7448 45.5714 45.7853 45.7048 45.8611 45.8182C45.937 45.9317 46.0447 46.0201 46.1708 46.0723C46.2969 46.1245 46.4356 46.1382 46.5695 46.1116C46.7033 46.085 46.8263 46.0193 46.9228 45.9228L51.0634 41.7822C51.1564 41.6895 51.2208 41.5722 51.2491 41.444L52.5858 35.4284L54.0185 33.9957C53.9368 39.0668 51.8667 43.9028 48.2539 47.4623C44.6411 51.0218 39.7748 53.0198 34.7031 53.026Z" stroke="black" stroke-width="0.6" mask="url(#path-1-outside-1)"/>
</svg>
