<svg width="68" height="68" viewBox="0 0 68 68" fill="none" xmlns="http://www.w3.org/2000/svg">
<path fill-rule="evenodd" clip-rule="evenodd" d="M48.2402 33.8978L39.4224 27.5908C40.3349 26.4193 41.4102 25.3842 42.6156 24.5168C43.0363 24.2211 43.5218 24.0306 44.0313 23.9615C44.5409 23.8923 45.0596 23.9464 45.5439 24.1193C46.0294 24.2804 46.5032 24.4752 46.9616 24.7023C47.3988 24.9507 47.8249 25.1992 48.2509 25.4476C48.393 25.5304 48.535 25.6132 48.6775 25.6961C49.4573 26.2143 50.4009 26.4266 51.3275 26.2923C51.6066 26.2633 51.8756 26.1714 52.114 26.0234C52.3525 25.8754 52.5542 25.6752 52.7041 25.438C52.854 25.2007 52.9481 24.9325 52.9793 24.6536C53.0105 24.3747 52.9781 24.0924 52.8844 23.8278C52.6658 23.0111 52.154 22.3035 51.4467 21.8403C50.0306 20.8114 48.4518 20.0276 46.7761 19.5216C45.6645 19.1826 44.4924 19.09 43.3414 19.2502C42.1904 19.4103 41.0881 19.8195 40.1114 20.4491C38.7747 21.2749 37.5894 22.3236 36.6067 23.5496C35.2674 25.1983 33.9942 26.8859 32.7186 28.5767L32.7181 28.5773L32.7176 28.5779C32.3277 29.0947 31.9376 29.6118 31.5452 30.1282C30.9286 31.0307 30.0177 31.6911 28.9681 31.9965C27.3293 32.4154 25.6311 32.552 23.9464 32.4006C23.3719 32.371 22.8151 32.1923 22.3307 31.8821C21.8463 31.572 21.451 31.141 21.1837 30.6317C20.9338 30.1846 20.7125 29.7222 20.5212 29.2471C20.3676 28.8494 20.2386 28.4394 20.109 28.0276L20.109 28.0275C20.0487 27.8356 19.9882 27.6433 19.925 27.4517C19.6842 26.528 19.1048 25.7287 18.3019 25.2125C18.0773 25.0602 17.822 24.959 17.5541 24.9161C17.2862 24.8732 17.0121 24.8896 16.7512 24.9641C16.4903 25.0387 16.2489 25.1696 16.0441 25.3475C15.8392 25.5255 15.676 25.7463 15.5657 25.9942C15.1727 26.7166 15.0573 27.5577 15.2411 28.3593C15.6047 30.1304 16.2774 31.8236 17.2286 33.3612C17.4465 33.7016 17.6985 34.0171 17.9528 34.3355C18.0697 34.4818 18.1871 34.6287 18.3019 34.779C18.4858 34.6946 18.656 34.6192 18.8173 34.5477L18.8176 34.5475L18.8177 34.5475C19.0745 34.4336 19.3089 34.3297 19.5407 34.2158C19.6943 34.1342 19.8374 34.0353 19.9802 33.9366L19.9802 33.9365L19.9803 33.9365L19.9803 33.9365C20.0346 33.899 20.0889 33.8615 20.1436 33.825C20.4261 33.6003 20.7764 33.478 21.1374 33.478C21.4983 33.478 21.8486 33.6003 22.1311 33.825C22.4003 34.0089 22.6814 34.1749 22.9725 34.3218C25.0982 35.3759 27.496 35.7528 29.8426 35.4017C31.4344 35.2302 32.9591 34.6681 34.2814 33.7653C34.9439 33.3016 35.5136 33.401 36.2689 33.8515C37.4399 34.6222 38.7597 35.1385 40.1429 35.3667C41.5261 35.595 42.9418 35.5302 44.2984 35.1765C45.259 34.9181 46.213 34.6465 47.1604 34.355C47.3721 34.2901 47.5753 34.1971 47.8161 34.087C47.9445 34.0283 48.0835 33.9646 48.2402 33.8978ZM12.7634 36.9851C12.869 38.3609 13.2189 39.707 13.7969 40.9601C13.9518 40.9528 14.1091 40.9474 14.268 40.9419H14.268C14.8292 40.9228 15.4115 40.9029 15.9897 40.7944C17.8145 40.531 19.5662 39.8975 21.1374 38.9328C23.2654 40.2344 25.7118 40.9222 28.2062 40.9203C30.6676 40.894 33.0767 40.2076 35.1824 38.9328C39.9325 41.5828 44.6031 41.5828 49.2804 38.9328C51.6934 40.4237 54.5244 41.0931 57.3496 40.8408C57.8262 39.5573 58.1552 38.2237 58.3301 36.8658C56.7564 37.0418 55.1656 36.9905 53.6065 36.7134C52.0788 36.3938 50.6176 35.8134 49.287 34.9976C47.1586 36.295 44.7141 36.9813 42.2214 36.9813C39.7288 36.9813 37.2843 36.295 35.1559 34.9976C33.0483 36.2987 30.6202 36.9878 28.1433 36.9878C25.6664 36.9878 23.2384 36.2987 21.1307 34.9976C18.6319 36.5521 15.6944 37.2499 12.7634 36.9851ZM49.2539 41.179C51.4074 42.4833 53.8779 43.1708 56.3956 43.1665C55.8044 44.5006 55.0667 45.7649 54.1961 46.9361C52.4523 46.6749 50.7785 46.0666 49.2737 45.1474C44.6362 47.7974 39.9325 47.7974 35.2022 45.1474C30.5647 47.7974 25.8411 47.7974 21.1241 45.1474C19.7756 45.9515 18.3023 46.5247 16.7649 46.8434C15.9228 45.695 15.2055 44.4602 14.625 43.1599C16.9324 43.0669 19.1772 42.3825 21.144 41.1724C25.8279 43.8224 30.5184 43.8687 35.2089 41.1724C39.8 43.8091 44.4905 43.8356 49.2539 41.179ZM23.9139 22.4535C23.6861 23.0116 23.571 23.6092 23.5754 24.212C23.5719 24.813 23.6877 25.4087 23.9163 25.9645C24.1449 26.5203 24.4815 27.0252 24.9068 27.4499C25.3321 27.8746 25.8375 28.2105 26.3936 28.4383C26.9498 28.666 27.5457 28.781 28.1466 28.7766C29.3315 28.7316 30.4528 28.2292 31.2751 27.375C32.0975 26.5208 32.5569 25.3812 32.5569 24.1955C32.5569 23.0097 32.0975 21.8701 31.2751 21.0159C30.4528 20.1617 29.3315 19.6593 28.1466 19.6143C27.5438 19.6134 26.9468 19.7319 26.3901 19.963C25.8334 20.194 25.3279 20.5331 24.9029 20.9605C24.4779 21.388 24.1418 21.8954 23.9139 22.4535Z" fill="black"/>
</svg>
