<svg width="68" height="68" viewBox="0 0 68 68" fill="none" xmlns="http://www.w3.org/2000/svg">
<path fill-rule="evenodd" clip-rule="evenodd" d="M38.11 29.7377C38.0785 29.7535 38.0469 29.7693 38.0154 29.7693C32.5908 32.5447 26.0939 28.6339 26.0939 22.5154V22.2C26.4093 17.4062 30.1939 14.3154 34.2939 14.3154C42.4308 14.3154 45.8369 25.5431 38.2046 29.7062C38.1731 29.7062 38.1416 29.722 38.11 29.7377ZM34.6723 25.7954C34.5462 24.5339 34.1677 23.5877 33.9154 23.1462C32.8431 23.0831 29.7523 22.7047 27.9231 19.9293C27.6077 20.56 27.4816 21.317 27.4185 22.0739C29.6893 24.9754 32.9062 25.6693 34.6723 25.7954ZM37.3846 28.697C38.7093 25.3539 37.8262 22.3262 36.9431 20.56C35.9339 21.2539 35.3031 22.0739 35.0508 22.4524C35.5554 23.4616 36.7539 26.237 35.24 29.3277C35.9969 29.2647 36.7539 29.0124 37.3846 28.697ZM34.6093 27.057C32.9062 26.9308 30.0046 26.3631 27.5446 24.0924C28.2385 26.9939 30.6985 29.1385 33.7262 29.4539C34.2308 28.6339 34.4831 27.8139 34.6093 27.057ZM38.0154 19.9924C38.7723 21.5062 39.7816 24.3447 39.0246 27.5616C40.3493 26.3 41.2323 24.4708 41.2323 22.5154C41.2323 21.4431 40.98 20.4339 40.5385 19.5508C39.5923 19.4877 38.7093 19.677 38.0154 19.9924ZM33.9154 21.8847C34.4831 20.9385 36.3123 18.5416 39.7185 18.2893C39.2769 17.6585 38.7723 17.1539 38.1416 16.7754C34.5462 17.28 32.4016 19.5508 31.2662 21.1908C32.3385 21.7585 33.4108 21.8847 33.9154 21.8847ZM30.2569 20.56C31.2031 19.1093 33.1585 16.9016 36.3123 15.8924C33.4108 15.0093 30.32 16.0816 28.6169 18.6047C29.0585 19.4877 29.6262 20.1185 30.2569 20.56ZM12.4062 32.7339H46.5939C46.9092 32.7339 47.2246 33.0493 47.2246 33.3647V36.5185C47.2246 36.897 46.9723 37.1493 46.5939 37.1493H46.0892C45.3323 38.2847 41.7369 43.8354 41.2323 54.0539C41.2323 54.4323 40.9169 54.6847 40.6015 54.6847C40.2231 54.6847 39.9708 54.4323 39.9708 54.0539C40.0339 52.6031 40.16 51.2154 40.3492 49.8908L38.3308 47.8723L35.8077 50.3954L37.9523 52.54C38.2046 52.7923 38.2046 53.1708 37.9523 53.4231C37.7 53.6754 37.3215 53.6754 37.0692 53.4231L34.9246 51.2785L32.9692 53.2339C32.7169 53.4862 32.3385 53.4862 32.0862 53.2339C31.8339 52.9816 31.8339 52.6031 32.0862 52.3508L34.0415 50.3954L31.4554 47.8093L30.0046 49.26C30.1939 50.7108 30.3831 52.3508 30.4462 54.0539C30.4462 54.3693 30.1939 54.6847 29.8154 54.6847C29.5 54.6847 29.1846 54.3693 29.1846 54.0539C28.9323 48.6923 27.4815 41.5016 24.3277 37.1493H12.4062C12.0277 37.1493 11.7754 36.897 11.7754 36.5185V33.3647C11.7754 32.9862 12.0277 32.7339 12.4062 32.7339ZM45.9 33.9954H13.0369V35.8877H45.9V33.9954ZM34.8615 37.5277L32.3385 40.0508L34.8615 42.5739L37.3846 40.0508L34.8615 37.5277ZM31.4554 45.98L33.9785 43.457L31.4554 40.9339L28.9323 43.457L31.4554 45.98ZM29.3739 37.1493L31.3923 39.1677L33.3477 37.1493H29.3739ZM39.2769 41.88L38.3308 40.9339L35.8708 43.52L38.3939 46.0431C38.6649 45.7721 38.9428 45.5011 39.2231 45.2278C39.7907 44.6742 40.368 44.1112 40.9169 43.52L39.2769 41.88ZM36.3123 37.1493L38.3308 39.1677L40.2862 37.1493H36.3123ZM30.5723 40.0508L27.6708 37.1493V37.2123H25.8415C26.4723 38.1585 27.4185 39.8616 28.3015 42.3216L30.5723 40.0508ZM29.3108 45.7277C29.5 46.3585 29.6262 47.0523 29.7523 47.7462L30.5723 46.9893L29.3108 45.7277ZM32.3385 46.9893L34.8615 49.5123L37.3846 46.9893L34.8615 44.4662L32.3385 46.9893ZM41.3585 44.7816L39.2139 46.9262L40.6015 48.3139C40.7908 47.0523 41.0431 45.8539 41.3585 44.7816ZM41.7369 42.637L42.1785 42.1954C43.0615 39.7985 43.9446 38.1585 44.5754 37.2123H42.1154L39.2139 40.1139L41.7369 42.637Z" fill="black"/>
</svg>
