<svg width="68" height="68" viewBox="0 0 68 68" fill="none" xmlns="http://www.w3.org/2000/svg">
<path fill-rule="evenodd" clip-rule="evenodd" d="M21.2412 34.4285C22.6684 34.8286 24.1528 35 25.6371 35C25.0663 27.457 28.8342 19.5715 35 15.0571C34.8002 15.0571 34.6146 15.043 34.4291 15.0286C34.2435 15.0142 34.058 15 33.8582 15C31.9171 15 29.976 15.2856 28.092 15.9143C23.4677 19.7429 20.0423 29.1143 21.2412 34.4285ZM20.7868 20.1902C21.5074 19.3992 22.2279 18.6692 23 18C20.4265 22.8062 18.8824 29.1938 19.2941 34C18.1103 33.3308 17.0294 32.479 16 31.4448C16.5147 27.1863 18.2132 23.2927 20.7868 20.1902ZM38 38.7439C36.9572 37.4451 35.6826 36.3154 34.1763 35.4119C31.5113 36.7107 28.6725 37.3884 25.7758 37.3884C21.9521 37.3884 18.1864 36.259 15 34V34.113C15 35.8071 15.2318 37.4451 15.6952 39.0264C22.2997 43.0925 31.6272 42.9795 38 38.7439ZM41.9533 47C38.3817 49.606 32.7861 51.1211 27.4882 51.1211C27.012 51.1211 26.4762 51.1211 26 51.0605C28.6192 52.3333 31.4765 53 34.5124 53C37.0125 53 39.4532 52.5151 41.7152 51.606C41.9533 50.0908 42.0724 48.5151 41.9533 47ZM21.2115 48.0483C26.9231 50.1572 36.9615 48.6033 41 44.9404C40.6538 43.553 40.0192 42.2209 39.2692 41C35.6346 43.3865 31.1346 44.552 26.6346 44.552C23.2885 44.552 20 43.886 17 42.554C17.9231 44.3855 19.1346 46.0503 20.6923 47.5488L21.2115 48.0483ZM42 21.0618C43.1907 20.2026 44.4948 19.5154 45.8557 19C46.4794 19.4583 47.0464 20.0308 47.6134 20.6035C50.6753 23.696 52.5464 27.7048 53 32C50.5052 27.304 46.1392 22.8943 42 21.0618ZM36.9269 28C36.3817 29.6685 36.0545 31.3965 36 33.1838C41.4526 37.1167 44.4516 43.969 43.7973 51C45.1604 50.1062 46.4691 49.0933 47.6141 47.7825C47.7232 47.6633 47.8867 47.4844 47.9958 47.3057C48.1594 39.3809 43.5246 31.2771 36.9269 28ZM37 26.4719C37.7085 25.1841 38.6531 24.0081 39.7159 23C45.0886 24.512 51.8192 31.96 53 37.6721C52.5277 39.9121 51.583 42.0959 50.2841 44C49.3395 36.6079 44.0849 29.552 37 26.4719ZM28.0629 35C27.4064 27.5356 31.9427 19.5625 39.0458 16C40.7768 16.4524 42.4481 17.0745 44 17.866C37.6133 20.6934 33.3753 26.6875 33.0768 33.4731C31.4652 34.2649 29.7939 34.7739 28.0629 35Z" fill="black"/>
</svg>
