<svg width="68" height="68" viewBox="0 0 68 68" fill="none" xmlns="http://www.w3.org/2000/svg">
<path fill-rule="evenodd" clip-rule="evenodd" d="M25.8611 17.1665C25.82 17.1667 25.779 17.169 25.7382 17.1735C25.13 17.2428 24.6741 17.7629 24.6852 18.3749V19.5578H18.7523C16.7992 19.5578 15.1829 21.1742 15.1829 23.1272V49.2499C15.1829 51.2029 16.7993 52.817 18.7523 52.817H47.25C49.203 52.817 50.8079 51.2029 50.8079 49.2499V23.1272C50.8079 21.1742 49.2031 19.5578 47.25 19.5578H41.3148V18.3749C41.328 17.6561 40.7046 17.0906 39.9905 17.1735C39.3833 17.2439 38.9287 17.7637 38.9398 18.3749V19.5578H34.1875V18.3749C34.2005 17.6572 33.5787 17.0921 32.8655 17.1735C32.2573 17.2428 31.8015 17.7629 31.8125 18.3749V19.5578H27.0602V18.3749C27.0719 17.7064 26.5297 17.16 25.8611 17.1665ZM18.7523 21.9328H24.6852V23.1272C24.7195 24.6758 27.0258 24.6758 27.0602 23.1272V21.9328H31.8125V23.1272C31.7766 24.7461 34.2234 24.7461 34.1875 23.1272V21.9328H38.9398V23.1272C38.9742 24.6758 41.2805 24.6758 41.3148 23.1272V21.9328H47.25C47.9284 21.9328 48.4421 22.4489 48.4421 23.1272V26.6874H30.625C29.0191 26.6647 29.0191 29.0851 30.625 29.0624H48.4421V49.2499C48.4421 49.9282 47.9284 50.442 47.25 50.442H18.7523C18.0739 50.442 17.5579 49.9282 17.5579 49.2499V29.0624H21.125C22.7309 29.0851 22.7309 26.6647 21.125 26.6874H17.5579V23.1272C17.5579 22.4489 18.074 21.9328 18.7523 21.9328ZM25.875 26.6874C25.2192 26.6874 24.6875 27.2191 24.6875 27.8749C24.6875 28.5307 25.2192 29.0624 25.875 29.0624C26.5308 29.0624 27.0625 28.5307 27.0625 27.8749C27.0625 27.2191 26.5308 26.6874 25.875 26.6874ZM25.875 33.8124C25.2192 33.8124 24.6875 34.3441 24.6875 34.9999C24.6875 35.6557 25.2192 36.1874 25.875 36.1874C26.5308 36.1874 27.0625 35.6557 27.0625 34.9999C27.0625 34.3441 26.5308 33.8124 25.875 33.8124ZM33 33.8124C32.3442 33.8124 31.8125 34.3441 31.8125 34.9999C31.8125 35.6557 32.3442 36.1874 33 36.1874C33.6558 36.1874 34.1875 35.6557 34.1875 34.9999C34.1875 34.3441 33.6558 33.8124 33 33.8124ZM40.125 33.8124C39.4692 33.8124 38.9375 34.3441 38.9375 34.9999C38.9375 35.6557 39.4692 36.1874 40.125 36.1874C40.7808 36.1874 41.3125 35.6557 41.3125 34.9999C41.3125 34.3441 40.7808 33.8124 40.125 33.8124ZM25.875 38.5624C25.2192 38.5624 24.6875 39.0941 24.6875 39.7499C24.6875 40.4057 25.2192 40.9374 25.875 40.9374C26.5308 40.9374 27.0625 40.4057 27.0625 39.7499C27.0625 39.0941 26.5308 38.5624 25.875 38.5624ZM33 38.5624C32.3442 38.5624 31.8125 39.0941 31.8125 39.7499C31.8125 40.4057 32.3442 40.9374 33 40.9374C33.6558 40.9374 34.1875 40.4057 34.1875 39.7499C34.1875 39.0941 33.6558 38.5624 33 38.5624ZM40.125 38.5624C39.4692 38.5624 38.9375 39.0941 38.9375 39.7499C38.9375 40.4057 39.4692 40.9374 40.125 40.9374C40.7808 40.9374 41.3125 40.4057 41.3125 39.7499C41.3125 39.0941 40.7808 38.5624 40.125 38.5624ZM25.875 43.3124C25.2192 43.3124 24.6875 43.8441 24.6875 44.4999C24.6875 45.1557 25.2192 45.6874 25.875 45.6874C26.5308 45.6874 27.0625 45.1557 27.0625 44.4999C27.0625 43.8441 26.5308 43.3124 25.875 43.3124ZM33 43.3124C32.3442 43.3124 31.8125 43.8441 31.8125 44.4999C31.8125 45.1557 32.3442 45.6874 33 45.6874C33.6558 45.6874 34.1875 45.1557 34.1875 44.4999C34.1875 43.8441 33.6558 43.3124 33 43.3124ZM40.125 43.3124C39.4692 43.3124 38.9375 43.8441 38.9375 44.4999C38.9375 45.1557 39.4692 45.6874 40.125 45.6874C40.7808 45.6874 41.3125 45.1557 41.3125 44.4999C41.3125 43.8441 40.7808 43.3124 40.125 43.3124Z" fill="black"/>
</svg>
