<svg width="68" height="68" viewBox="0 0 68 68" fill="none" xmlns="http://www.w3.org/2000/svg">
<path fill-rule="evenodd" clip-rule="evenodd" d="M18.1881 52.1124C19.9941 53.5513 22.59 54.0653 25.5421 53.8005C31.7205 53.2461 39.4555 49.2772 44.746 43.2325C49.8815 37.3651 52.8362 29.5261 52.2743 23.2633C52.0073 20.288 50.928 17.9684 49.1543 16.5545C43.5695 12.1023 30.4137 16.5003 22.5963 25.4337C17.4609 31.3019 14.5061 39.1408 15.068 45.4036C15.335 48.3789 16.4144 50.6985 18.1881 52.1124ZM17.5413 45.181C17.0448 39.6472 19.8276 32.3681 24.4651 27.0687C31.296 19.2633 41.4371 15.823 46.3272 17.7671L38.005 27.1989L34.6847 23.8786L32.5633 25.9999L36.0163 29.4528L33.7862 31.9802L28.6847 26.8786L26.5633 28.9999L31.7975 34.2341L29.5675 36.7614L25.6847 32.8786L23.5633 34.9999L27.5788 39.0153L18.7278 49.0464C18.087 48.0638 17.6825 46.7548 17.5413 45.181ZM21.0739 50.9218C25.986 52.8144 36.0736 49.3716 42.8772 41.5974C47.5146 36.298 50.2976 29.0197 49.801 23.4852C49.6622 21.9388 49.2693 20.6481 48.6478 19.6714L40.1305 29.3244L43.6847 32.8786L41.5633 34.9999L38.1417 31.5783L35.9117 34.1056L40.6847 38.8786L38.5633 40.9999L33.923 36.3595L31.693 38.8869L34.6847 41.8786L32.5633 43.9999L29.7042 41.1408L21.0739 50.9218Z" fill="black"/>
</svg>
