<svg width="68" height="68" viewBox="0 0 68 68" fill="none" xmlns="http://www.w3.org/2000/svg">
<path d="M14.0885 44.4078C12.2965 44.4078 10.7525 44.0558 9.45646 43.3518C8.16046 42.6478 7.20846 41.6798 6.60046 40.4478L9.60046 38.3358C10.0645 39.2638 10.6805 39.9838 11.4485 40.4958C12.2165 41.0078 13.1445 41.2638 14.2325 41.2638C15.0965 41.2638 15.8005 41.1038 16.3445 40.7838C16.8885 40.4478 17.1605 39.9598 17.1605 39.3198C17.1605 38.6958 16.9685 38.2398 16.5845 37.9518C16.2165 37.6478 15.5845 37.3998 14.6885 37.2078L12.4085 36.7278C9.27246 36.0398 7.70446 34.3358 7.70446 31.6158C7.70446 30.5758 7.96846 29.6798 8.49646 28.9278C9.04046 28.1598 9.80846 27.5758 10.8005 27.1758C11.8085 26.7598 12.9925 26.5518 14.3525 26.5518C15.9045 26.5518 17.2725 26.8398 18.4565 27.4158C19.6405 27.9758 20.5285 28.8158 21.1205 29.9358L18.4805 32.1678C18.0485 31.3358 17.4485 30.6958 16.6805 30.2478C15.9285 29.7838 15.0645 29.5518 14.0885 29.5518C13.2885 29.5518 12.6485 29.7118 12.1685 30.0318C11.6885 30.3358 11.4485 30.7598 11.4485 31.3038C11.4485 31.8478 11.6325 32.2798 12.0005 32.5998C12.3845 32.9038 13.0245 33.1598 13.9205 33.3678L16.3925 33.8958C17.9605 34.2478 19.1285 34.8238 19.8965 35.6238C20.6645 36.4078 21.0485 37.5118 21.0485 38.9358C21.0485 40.0238 20.7765 40.9838 20.2325 41.8158C19.6885 42.6318 18.8885 43.2718 17.8325 43.7358C16.7925 44.1838 15.5445 44.4078 14.0885 44.4078Z" fill="black"/>
<path d="M29.9279 44.4078C28.3759 44.4078 27.0319 44.0478 25.8959 43.3278C24.7599 42.5918 23.8879 41.5518 23.2799 40.2078C22.6719 38.8638 22.3679 37.2958 22.3679 35.5038C22.3679 33.7278 22.7039 32.1678 23.3759 30.8238C24.0639 29.4638 25.0479 28.4158 26.3279 27.6798C27.6079 26.9278 29.1039 26.5518 30.8159 26.5518C32.2399 26.5518 33.4799 26.7838 34.5359 27.2478C35.5919 27.7118 36.4239 28.3438 37.0319 29.1438C37.6559 29.9278 38.0559 30.8078 38.2319 31.7838L34.2239 32.5278C34.0639 31.6638 33.6959 30.9598 33.1199 30.4158C32.5599 29.8718 31.7839 29.5998 30.7919 29.5998C29.4479 29.5998 28.3999 30.1278 27.6479 31.1838C26.8959 32.2238 26.5199 33.6478 26.5199 35.4558C26.5199 37.2798 26.8879 38.7118 27.6239 39.7518C28.3599 40.7758 29.4319 41.2878 30.8399 41.2878C31.6559 41.2878 32.3439 41.1118 32.9039 40.7598C33.4799 40.3918 33.9039 39.9358 34.1759 39.3918C34.4639 38.8478 34.6079 38.3118 34.6079 37.7838V37.4238H30.4079V34.5198H38.3039V43.9998H35.4239L35.2559 41.5038C34.8239 42.4158 34.1439 43.1278 33.2159 43.6398C32.3039 44.1518 31.2079 44.4078 29.9279 44.4078Z" fill="black"/>
<path d="M41.3307 26.9598H46.8987L50.0427 37.3998C50.2187 38.0078 50.3547 38.6958 50.4507 39.4638H50.4987C50.5787 38.7758 50.7227 38.0718 50.9307 37.3518L53.9307 26.9598H59.5707V43.9998H55.8747V32.3838C55.8747 31.6798 55.9067 31.0398 55.9707 30.4638H55.8987C55.8507 30.9598 55.7307 31.5118 55.5387 32.1198L52.1067 43.9998H48.6987L45.1227 32.1198C44.9467 31.6398 44.8267 31.0958 44.7627 30.4878H44.6907C44.7547 31.2558 44.7867 31.8878 44.7867 32.3838V43.9998H41.3307V26.9598Z" fill="black"/>
</svg>
