<svg width="68" height="68" viewBox="0 0 68 68" fill="none" xmlns="http://www.w3.org/2000/svg">
<path d="M51.4844 39.6562C51.4844 38.0155 51.1069 36.4656 50.4511 35.0708C50.4516 35.0517 50.4531 35.0347 50.4531 35.0156H50.4248C50.1407 34.4201 49.8055 33.8544 49.4219 33.3249V18.5156H48.9062H46.3281H22.6094H21.5781H19.5156V50.4844H22.6094V33.9844H31.4498C30.4283 35.6364 29.8281 37.5752 29.8281 39.6562C29.8281 45.6272 34.6853 50.4844 40.6562 50.4844C42.7373 50.4844 44.6761 49.8842 46.3281 48.8627V50.4844H49.4219V45.9876C50.7135 44.2046 51.4844 42.0214 51.4844 39.6562ZM31.3554 36.5965C31.6617 35.6684 32.1025 34.8037 32.6558 34.021C40.9233 35.0352 44.1842 40.1064 45.0674 41.8435C43.7655 42.4344 42.5305 42.6479 41.9716 42.7185C41.2301 41.4723 38.1132 37.0095 31.3554 36.5965ZM26.7344 30.8906V29.8594H29.8281V30.8906H26.7344ZM29.8281 31.9219V32.9531H26.7344V31.9219H29.8281ZM48.9233 37.9403C48.5113 37.158 47.7992 36.019 46.672 34.831C45.0839 33.1573 42.3717 31.1118 38.1374 30.1997C38.9428 29.9847 39.7843 29.8594 40.6562 29.8594C44.4889 29.8594 47.8054 32.0771 49.4141 35.2915C49.3878 36.2609 49.2244 37.1446 48.9233 37.9403ZM22.6094 23.6719H25.7031V24.7031H22.6094V23.6719ZM39.1094 28.8281V27.7969H42.2031V28.8281H39.1094ZM39.1094 26.7656V25.7344H42.2031V26.7656H39.1094ZM30.8594 25.7344H33.9531V26.7656H30.8594V25.7344ZM29.8281 26.7656H26.7344V25.7344H29.8281V26.7656ZM34.9844 25.7344H38.0781V26.7656H34.9844V25.7344ZM39.1094 24.7031V23.6719H42.2031V24.7031H39.1094ZM38.0781 24.7031H34.9844V23.6719H38.0781V24.7031ZM34.9844 22.6406V21.6094H38.0781V22.6406H34.9844ZM33.9531 22.6406H30.8594V21.6094H33.9531V22.6406ZM33.9531 23.6719V24.7031H30.8594V23.6719H33.9531ZM29.8281 24.7031H26.7344V23.6719H29.8281V24.7031ZM22.6094 25.7344H25.7031V26.7656H22.6094V25.7344ZM22.6094 27.7969H25.7031V28.8281H22.6094V27.7969ZM26.7344 27.7969H29.8281V28.8281H26.7344V27.7969ZM30.8594 27.7969H33.9531V28.8281H30.8594V27.7969ZM34.9844 27.7969H38.0781V28.8281H34.9844V27.7969ZM36.0744 29.8594C35.6985 30.0357 35.335 30.2332 34.9844 30.4498V29.8594H36.0744ZM45.2381 29.8594H46.3281V30.4498C45.9775 30.2332 45.614 30.0357 45.2381 29.8594ZM43.2344 28.8281V27.7969H46.3281V28.8281H43.2344ZM43.2344 26.7656V25.7344H46.3281V26.7656H43.2344ZM43.2344 24.7031V23.6719H46.3281V24.7031H43.2344ZM43.2344 22.6406V21.6094H46.3281V22.6406H43.2344ZM42.2031 22.6406H39.1094V21.6094H42.2031V22.6406ZM39.1094 20.5781V19.5469H42.2031V20.5781H39.1094ZM38.0781 20.5781H34.9844V19.5469H38.0781V20.5781ZM33.9531 20.5781H30.8594V19.5469H33.9531V20.5781ZM29.8281 20.5781H26.7344V19.5469H29.8281V20.5781ZM29.8281 21.6094V22.6406H26.7344V21.6094H29.8281ZM25.7031 22.6406H22.6094V21.6094H25.7031V22.6406ZM22.6094 29.8594H25.7031V30.8906H22.6094V29.8594ZM30.8594 29.8594H33.9531V30.8906H30.8594V29.8594ZM36.2373 30.9247C44.9927 32.0198 47.8523 37.9232 48.3411 39.1097C47.775 40.0079 46.9881 40.7623 45.9801 41.3661C45.0164 39.4809 41.6679 34.3237 33.4158 33.0805C34.2151 32.2008 35.1679 31.4676 36.2373 30.9247ZM41.1115 43.2893C40.8398 43.9473 40.2077 45.8608 40.1478 49.4273C39.0594 49.3711 38.0173 49.1412 37.0505 48.7565C37.0794 44.2133 38.157 41.5481 38.702 40.4921C40.0751 41.6497 40.8367 42.8181 41.1115 43.2893ZM41.243 47.947C41.2827 47.9475 41.3152 47.9496 41.358 47.9496C42.7115 47.9496 45.6423 47.5752 48.9171 44.9007C47.265 47.4938 44.4322 49.2536 41.1791 49.4268C41.1884 48.8942 41.2105 48.4012 41.243 47.947ZM50.4531 39.6562C50.4531 40.6194 50.3077 41.5481 50.0473 42.4282C46.3152 46.445 42.7239 46.9023 41.3389 46.9111C41.5405 45.1889 41.8726 44.1731 42.0402 43.7467C43.4226 43.574 48.882 42.5628 50.1737 37.3736C50.35 38.1078 50.4531 38.8694 50.4531 39.6562ZM48.3906 19.5469V32.0925C48.0673 31.762 47.7219 31.4557 47.3594 31.1685V29.8594V28.8281V27.7969V26.7656V25.7344V24.7031V23.6719V22.6406V21.6094V20.5781V19.5469H48.3906ZM46.3281 20.5781H43.2344V19.5469H46.3281V20.5781ZM25.7031 19.5469V20.5781H22.6094V19.5469H25.7031ZM21.5781 49.4531H20.5469V19.5469H21.5781V32.9531V33.9844V49.4531ZM22.6094 31.9219H25.7031V32.9531H22.6094V31.9219ZM30.8594 32.9531V31.9219H33.0925C32.762 32.2452 32.4557 32.5906 32.1685 32.9531H30.8594ZM31.0775 37.6113C32.1495 37.6618 33.1209 37.8232 34.0031 38.0588C33.322 39.1061 32.2748 41.1619 31.9767 44.184C31.2667 42.8279 30.8594 41.2897 30.8594 39.6562C30.8594 38.9545 30.9367 38.2713 31.0775 37.6113ZM32.9275 45.6545C32.9734 41.8054 34.3775 39.3288 35.0339 38.3811C36.1425 38.7817 37.084 39.2989 37.8714 39.8527C37.3006 40.8876 36.1306 43.5807 36.0285 48.2868C34.8178 47.6355 33.766 46.7327 32.9275 45.6545ZM48.3906 49.4531H47.3594V48.144C47.7219 47.8567 48.0673 47.5505 48.3906 47.22V49.4531Z" fill="black"/>
</svg>
