<svg width="68" height="68" viewBox="0 0 68 68" fill="none" xmlns="http://www.w3.org/2000/svg">
<path fill-rule="evenodd" clip-rule="evenodd" d="M15 24C15 21.7909 16.7909 20 19 20H20C22.2091 20 24 21.7909 24 24V43C24 45.2091 22.2091 47 20 47H19C16.7909 47 15 45.2091 15 43V24ZM30 24C30 21.7909 31.7909 20 34 20H35C37.2091 20 39 21.7909 39 24V43C39 45.2091 37.2091 47 35 47H34C31.7909 47 30 45.2091 30 43V24ZM49 20C46.7909 20 45 21.7909 45 24V43C45 45.2091 46.7909 47 49 47H50C52.2091 47 54 45.2091 54 43V24C54 21.7909 52.2091 20 50 20H49Z" fill="black"/>
</svg>
