<svg width="68" height="68" viewBox="0 0 68 68" fill="none" xmlns="http://www.w3.org/2000/svg">
<path fill-rule="evenodd" clip-rule="evenodd" d="M29.6012 9.64014L26.4305 10.3835L27.5154 11.5606C28.0304 11.3635 28.5791 11.2471 29.1482 11.1913L29.6012 9.64014ZM34.8712 17.448C34.8712 20.2706 32.5831 22.5587 29.7605 22.5587C26.938 22.5587 24.6499 20.2706 24.6499 17.448C24.6499 14.6255 26.938 12.3374 29.7605 12.3374C32.5831 12.3374 34.8712 14.6255 34.8712 17.448ZM24.1754 52.9084C24.1932 52.9875 24.2026 53.0724 24.2026 53.1609C24.2026 53.8217 23.6645 54.3598 23.0037 54.3598H15.1212L17.8305 51.7638C18.3828 51.234 18.4972 50.4056 18.1102 49.746C15.4269 45.1852 14.5159 39.8126 15.5448 34.6194C15.7162 33.7576 16.186 33.0191 16.8311 32.4678C16.122 36.469 16.7802 40.7299 19.0306 44.4796C20.0006 46.0974 21.2195 47.5382 22.6509 48.7619C22.8774 48.9557 23.124 49.1145 23.3795 49.2544L24.1754 52.9084ZM28.7555 48.0837C32.4815 51.529 38.3087 51.5096 41.9997 47.9337C43.0104 46.9534 43.7816 45.7492 44.2819 44.4381C43.9499 44.2708 43.6311 44.0742 43.3472 43.819C42.2697 42.8511 41.8152 41.4511 41.9939 40.1133L28.8767 43.1905C29.8694 44.6552 29.8559 46.6217 28.7555 48.0837ZM48.9452 41.8575C48.8142 42.1643 48.6348 42.4452 48.4118 42.6942C47.8737 43.2924 47.135 43.6453 46.3303 43.6889C45.5149 43.7231 44.7538 43.4588 44.1543 42.9195C43.556 42.3815 43.202 41.6428 43.1596 40.838C43.1159 40.0332 43.3897 39.2603 43.9277 38.6609C44.0127 38.5665 44.0658 38.4485 44.0788 38.3222C44.3596 35.7002 43.6044 33.1254 41.9512 31.071C41.7412 30.8102 41.3624 30.7701 41.1016 30.979C40.842 31.1878 40.8007 31.569 41.0096 31.8286C42.4221 33.5845 43.0888 35.7722 42.8952 38.0095C42.6991 38.2499 42.5411 38.5087 42.4062 38.7761L27.9047 42.1781C27.531 41.9006 27.1208 41.669 26.6748 41.5271C25.6269 39.6651 25.3024 37.5021 25.7615 35.4064C25.8334 35.0807 25.6269 34.7574 25.3013 34.6866C24.9732 34.6182 24.6523 34.8211 24.5815 35.1468C24.0386 37.6213 24.4564 40.1796 25.7568 42.3508C25.8382 42.4877 25.9715 42.5868 26.1273 42.6257C26.5792 42.7402 27.004 42.9597 27.3557 43.2606C27.9681 43.7845 28.3398 44.5149 28.4023 45.3173C28.4661 46.1209 28.2112 46.8997 27.6884 47.5122C26.6075 48.776 24.6995 48.9246 23.4368 47.8437C22.1034 46.7038 20.9694 45.3634 20.0667 43.8588C15.5419 36.3186 17.8794 26.5564 25.2328 21.8394C26.3819 23.0239 27.9835 23.7668 29.7605 23.7668C32.5747 23.7668 34.9367 21.9057 35.7521 19.3589C37.3395 19.5321 38.8876 19.9243 40.3571 20.5489C48.5983 24.057 52.451 33.6163 48.9452 41.8575ZM56.0017 46.5046C56.0831 46.4751 56.1586 46.4373 56.2306 46.3913L62.8788 42.1503L59.1959 41.4187C58.4478 41.2712 57.9038 40.634 57.8755 39.8706C57.6867 34.5794 55.5651 29.5596 51.9035 25.7364C50.8159 24.5985 49.1953 24.2551 47.7714 24.7995C50.8941 28.835 52.1669 34.1396 51.0222 39.2828C51.1973 39.7956 51.4846 40.2698 51.8775 40.6494C52.5749 41.3208 53.1212 42.1574 53.4564 43.0684L54.4605 45.793C54.5715 46.0939 54.7933 46.3335 55.0836 46.468C55.3762 46.6002 55.7008 46.6143 56.0017 46.5046Z" fill="black"/>
</svg>
