<svg width="68" height="68" viewBox="0 0 68 68" fill="none" xmlns="http://www.w3.org/2000/svg">
<path fill-rule="evenodd" clip-rule="evenodd" d="M18.3792 54.2456C17.3466 54.2456 16.3054 53.9722 15.3479 53.4162C13.1767 52.1559 12.0742 49.7755 12.5167 47.3256C12.6177 46.5139 13.0576 45.7858 13.7374 45.3131C14.4533 44.8145 15.3548 44.6683 16.2122 44.912C17.0257 45.1436 17.7098 45.747 18.0436 46.5264C18.3473 47.2368 18.3662 48.0127 18.098 48.7222C18.0885 48.78 18.0842 48.8244 18.0833 48.8572C18.2006 48.8697 18.3266 48.8098 18.4197 48.7101L53.1121 11.1728C53.8169 10.4098 54.9711 10.3102 55.7975 10.9412C56.234 11.2754 56.5169 11.7805 56.573 12.3278C56.6291 12.8743 56.4548 13.426 56.0951 13.8413L22.9727 52.1029C22.7268 52.3621 22.5094 52.5682 22.2947 52.7554C21.1646 53.7414 19.7809 54.2456 18.3792 54.2456ZM14.2644 47.5956C14.2593 47.6556 14.2489 47.7134 14.2334 47.769C13.9271 49.766 15.0494 51.2005 16.2347 51.8885C17.8271 52.8141 19.7516 52.6299 21.1336 51.4244C21.3104 51.27 21.4881 51.1009 21.6667 50.9146L54.7597 12.685C54.8141 12.6216 54.8201 12.5534 54.8158 12.5077C54.8106 12.4616 54.7908 12.3956 54.7244 12.3447C54.6269 12.2696 54.4915 12.2834 54.4095 12.3718L19.7163 49.9096C19.1435 50.5277 18.2817 50.7774 17.5148 50.5393C16.7824 50.3146 16.101 49.6051 16.383 48.2883C16.3943 48.2357 16.4098 48.1844 16.4305 48.1348C16.5159 47.9295 16.5832 47.6047 16.4193 47.2212C16.2951 46.9305 16.0302 46.6972 15.7292 46.6114C15.3798 46.5117 15.0313 46.5665 14.7458 46.7636C14.5629 46.8908 14.4249 47.0642 14.3438 47.2622C14.3429 47.2654 14.3419 47.2687 14.3408 47.2719C14.3397 47.2752 14.3386 47.2784 14.3378 47.2816C14.3309 47.3032 14.3024 47.4002 14.2713 47.5542C14.2687 47.5646 14.267 47.5745 14.2653 47.5848C14.2653 47.5865 14.2651 47.5882 14.2649 47.5899C14.2647 47.5917 14.2644 47.5936 14.2644 47.5956ZM34.4241 45.571C36.8774 45.571 38.8735 47.5672 38.8735 50.0205C38.8735 52.4742 36.8774 54.4704 34.4241 54.4704C31.9708 54.4704 29.9746 52.4742 29.9746 50.0205C29.9746 47.5672 31.9708 45.571 34.4241 45.571ZM34.4241 47.3377C32.9447 47.3377 31.7413 48.5411 31.7413 50.0205C31.7413 51.4999 32.9447 52.7037 34.4241 52.7037C35.9035 52.7037 37.1069 51.4999 37.1069 50.0205C37.1069 48.5411 35.9035 47.3377 34.4241 47.3377Z" fill="black"/>
</svg>
