<svg width="68" height="68" viewBox="0 0 68 68" fill="none" xmlns="http://www.w3.org/2000/svg">
<path fill-rule="evenodd" clip-rule="evenodd" d="M13 46.9502V22.0493H54V46.9502H13ZM20.0335 31.6021L22.1679 39.6763H24.9945L29.2004 29.3501H26.3703L23.7579 36.3975L22.3699 29.3496H16.9874L20.0335 31.6021ZM28.6108 39.6846H31.2815L32.9522 29.3418H30.2817L28.6108 39.6846ZM32.9552 39.2871C33.5781 39.5752 34.7322 39.8252 35.9309 39.8384C38.7375 39.8384 40.561 38.4512 40.5822 36.3057C40.5916 35.1265 39.8801 34.2329 38.3388 33.4951C37.4056 33.0151 36.8325 32.6978 36.8391 32.2119C36.8398 31.7822 37.3231 31.3223 38.3691 31.3223C39.2433 31.3076 39.8748 31.5093 40.3683 31.7192L40.6082 31.8374L40.9694 29.5957C40.4414 29.3882 39.6103 29.1616 38.5763 29.1616C35.9359 29.1616 34.0771 30.5649 34.061 32.5752C34.0448 34.0615 35.3882 34.8916 36.4005 35.3853C37.4413 35.8916 37.791 36.2158 37.7865 36.6689C37.7796 37.3613 36.9562 37.6792 36.1881 37.6792C35.1189 37.6792 34.5508 37.5225 33.6725 37.1367L33.3287 36.9717L32.9552 39.2871ZM47.0735 38.1392C47.1531 38.499 47.3988 39.6885 47.3988 39.6885H49.8776L47.7163 29.3521H45.6527C45.0124 29.3521 44.5327 29.5352 44.2528 30.2095L40.2859 39.6885H43.0916C43.0916 39.6885 43.5493 38.4136 43.6531 38.1333L47.0735 38.1392ZM45.5862 32.8442C45.6625 32.6353 45.7662 32.3516 45.8399 32.1396L46.0202 33.0322C46.0202 33.0322 46.5325 35.5 46.6384 36.0176H44.4214C44.6429 35.4229 45.4855 33.127 45.4855 33.127C45.4786 33.1392 45.523 33.0171 45.5862 32.8442Z" fill="black"/>
</svg>
