<svg width="68" height="68" viewBox="0 0 68 68" fill="none" xmlns="http://www.w3.org/2000/svg">
<path fill-rule="evenodd" clip-rule="evenodd" d="M7.75 19.0312C7.75 17.2205 9.22047 15.75 11.0312 15.75C12.842 15.75 14.3125 17.2205 14.3125 19.0312C14.3125 20.842 12.842 22.3125 11.0312 22.3125C9.22047 22.3125 7.75 20.842 7.75 19.0312ZM13.375 19.0312C13.375 18.3808 13.1096 17.792 12.6813 17.3673C12.5665 17.7422 12.4375 18.3213 12.4375 19.0312C12.4375 19.7412 12.5665 20.3203 12.6813 20.6952C13.1096 20.2704 13.375 19.6816 13.375 19.0312ZM11.5 19.0312C11.5 18.0431 11.7154 17.2678 11.8686 16.8417C11.6085 16.7421 11.3262 16.6875 11.0312 16.6875C10.7363 16.6875 10.454 16.7421 10.1939 16.8417C10.347 17.2679 10.5625 18.0431 10.5625 19.0312C10.5625 20.0194 10.347 20.7947 10.1939 21.2208C10.454 21.3204 10.7363 21.375 11.0312 21.375C11.3262 21.375 11.6085 21.3204 11.8686 21.2208C11.7155 20.7947 11.5 20.0194 11.5 19.0312ZM9.38115 20.6952C8.95286 20.2704 8.6875 19.6816 8.6875 19.0312C8.6875 18.3808 8.95287 17.792 9.38118 17.3673C9.49602 17.7422 9.62499 18.3213 9.62499 19.0312C9.62499 19.7412 9.496 20.3203 9.38115 20.6952ZM28.5302 17.4698C26.0322 14.9714 21.6798 15.2198 18.8209 18.0788C17.2895 19.61 16.507 21.5696 16.4944 23.4434C16.4921 23.4649 16.4914 23.4867 16.4922 23.5089L16.4948 23.5789C16.4962 23.6866 16.5002 23.794 16.5067 23.901L16.5386 24.7623C16.6089 26.6678 15.8828 28.517 14.5342 29.8651L13.8437 30.556L13.7064 30.4187C13.5236 30.2354 13.2264 30.2354 13.0436 30.4187L11.6426 31.8197L11.6374 31.8249L11.6322 31.8301L8.35608 35.1062C8.01951 35.4428 7.83014 35.8993 7.83014 36.3751C7.83014 36.8509 8.01951 37.3075 8.35608 37.644C8.69264 37.9806 9.1492 38.17 9.62498 38.17C10.1008 38.17 10.5573 37.9806 10.8939 37.644L15.5814 32.9565C15.7647 32.7737 15.7647 32.4765 15.5814 32.2937L15.444 32.1563L16.135 31.4657C17.4831 30.1171 19.3324 29.391 21.2378 29.4614L22.0971 29.4932C22.2054 29.4998 22.314 29.5038 22.4231 29.5052L22.4913 29.5078C22.5133 29.5086 22.535 29.5078 22.5563 29.5056C24.4302 29.4931 26.3899 28.7106 27.9212 27.1791C30.7802 24.3202 31.0286 19.9678 28.5302 17.4698ZM9.01889 35.769L11.9688 32.8191L13.181 34.0313L10.2311 36.9812C10.0703 37.142 9.85233 37.2325 9.62498 37.2325C9.39764 37.2325 9.17967 37.142 9.01889 36.9812C8.85811 36.8204 8.76764 36.6025 8.76764 36.3751C8.76764 36.1478 8.85811 35.9298 9.01889 35.769ZM12.6316 32.1563L13.8438 33.3685L14.5872 32.6251L13.5124 31.5503L13.375 31.4129L12.6316 32.1563ZM22.5592 28.5732C23.021 28.569 23.4894 28.5103 23.954 28.398L23.2188 27.6628L22.3185 28.5631L22.5259 28.5707C22.5371 28.5712 22.5482 28.572 22.5592 28.5732ZM27.0032 26.7597C26.3768 27.3294 25.679 27.7678 24.9523 28.0708L23.8816 27L25.5625 25.3191L27.0032 26.7597ZM27.6556 26.0865C28.2095 25.4374 28.6277 24.7186 28.9057 23.9748L27.9063 22.9753L26.2253 24.6563L27.6556 26.0865ZM29.3119 21.5697C29.3271 22.0224 29.2891 22.4832 29.1989 22.9423L28.5691 22.3125L29.3119 21.5697ZM28.9811 20.5749L27.9063 21.6497L26.4597 20.2031L28.1827 18.4801C28.6631 19.0642 28.9883 19.7402 29.1628 20.4621C29.0964 20.4844 29.034 20.522 28.9811 20.5749ZM25.5625 23.9934L27.2434 22.3125L25.7969 20.8659L24.1159 22.5469L25.5625 23.9934ZM23.4531 21.8841L25.1341 20.2031L23.6875 18.7566L22.0066 20.4375L23.4531 21.8841ZM27.5199 17.8173L25.7969 19.5403L24.3503 18.0938L25.4252 17.0189C25.478 16.9661 25.5156 16.9037 25.5379 16.8372C26.2598 17.0117 26.9358 17.3369 27.5199 17.8173ZM24.4304 16.6881L23.6875 17.4309L23.0577 16.8011C23.5168 16.7109 23.9777 16.6729 24.4304 16.6881ZM19.9135 18.3444C20.5626 17.7905 21.2814 17.3723 22.0252 17.0943L23.0247 18.0938L21.3438 19.7747L19.9135 18.3444ZM24.8997 24.6563L23.2188 26.3372L21.7722 24.8906L23.4531 23.2097L24.8997 24.6563ZM19.2403 18.9968L20.6809 20.4375L19 22.1184L17.9292 21.0477C18.2322 20.321 18.6706 19.6232 19.2403 18.9968ZM21.3438 21.1003L22.7903 22.5469L21.1094 24.2278L19.6628 22.7813L21.3438 21.1003ZM22.5559 27L21.1094 25.5534L19.2218 27.441C19.7909 27.9091 20.4474 28.2298 21.1486 28.4074L22.5559 27ZM20.4466 24.8906L19 23.4441L17.5926 24.8514C17.7702 25.5526 18.0909 26.2091 18.559 26.7782L20.4466 24.8906ZM18.3372 22.7813L17.602 22.046C17.4897 22.5108 17.431 22.9793 17.4268 23.4413C17.428 23.4521 17.4288 23.4631 17.4292 23.4742L17.4369 23.6816L18.3372 22.7813ZM18.2116 27.7884L18.2116 27.7884C17.857 27.4338 17.5577 27.0419 17.3134 26.6222C17.0044 28.0888 16.276 29.4496 15.1975 30.5284L14.5066 31.2189L14.7811 31.4934L15.4717 30.8024C16.5505 29.724 17.9112 28.9957 19.3778 28.6866C18.9581 28.4423 18.5662 28.143 18.2116 27.7884ZM53.381 21.2085C47.6832 17.8442 41.0622 18.0553 38.9331 21.6612C36.804 25.2671 39.8332 31.1391 45.5148 34.5309C48.0196 36.0099 51.1772 36.7606 54.1255 36.6083C56.9313 36.4459 59.1175 35.5095 59.9627 34.0782C60.8078 32.6469 60.5718 30.2802 59.3589 27.745C58.057 25.046 55.8859 22.6875 53.381 21.2085ZM53.056 21.759C58.451 24.9445 60.8099 31.3859 59.4122 33.7531C58.6971 34.9643 56.6471 35.7956 54.099 35.9615C51.2658 36.1076 48.2508 35.3668 45.8561 33.9528C40.5436 30.8161 37.5821 25.2067 39.4999 21.9587C41.4177 18.7107 47.7435 18.6223 53.056 21.759ZM39.8276 46.9002C39.8276 40.8778 34.9225 36 28.9002 36C22.8778 36 18 40.8778 18 46.9002C18 52.9225 22.8778 57.8276 28.9002 57.8276C34.9225 57.8276 39.8276 52.9498 39.8276 46.9002ZM27.8919 57.4461C28.4097 57.3644 28.9274 57.2009 29.3634 56.9011C30.835 56.8194 32.3337 56.6014 33.7508 56.1653C33.7916 56.1653 33.8257 56.1722 33.8598 56.179C33.8938 56.1858 33.9279 56.1926 33.9688 56.1926C32.1157 57.2009 29.9902 57.6369 27.8919 57.4461ZM23.2866 53.7946C23.0141 54.2851 22.7143 54.9391 22.7688 55.5113C20.6705 54.0126 19.199 51.8325 18.6268 49.3527C18.7358 48.9167 18.9265 48.508 19.199 48.181C19.7985 49.0257 20.5888 49.598 21.5153 50.034C21.6341 50.2715 22.1049 51.2754 22.9098 52.9912L23.2866 53.7946ZM22.2418 50.7797C22.0409 50.3442 21.9083 50.057 21.8423 49.925C22.1065 49.5552 22.3747 49.1895 22.6423 48.8247L22.6424 48.8245L22.6425 48.8244L22.6426 48.8243L22.6427 48.8242L22.6428 48.824L22.643 48.8237L22.6431 48.8236L22.6431 48.8236L22.6431 48.8235L22.6432 48.8235L22.6432 48.8234L22.6433 48.8233L22.6433 48.8233L22.6435 48.8231C23.0656 48.2476 23.486 47.6744 23.8861 47.0909C25.3031 47.3907 26.7201 47.636 28.1372 47.854C28.6277 49.0802 29.1727 50.3065 29.7995 51.4783C29.1454 52.541 28.4097 53.522 27.5922 54.4213C26.2569 54.2578 24.9216 53.9853 23.5863 53.6583C22.985 52.3905 22.5387 51.4233 22.2418 50.7797ZM27.8647 54.6121C28.7094 53.7128 29.4452 52.7045 30.0992 51.669C31.4617 51.5873 32.906 51.3965 34.1868 50.8788C34.5955 51.6145 35.1405 52.4593 35.8218 53.0043C35.2495 54.0671 34.4865 54.9936 33.6418 55.8383C32.2792 56.2743 30.835 56.4924 29.3907 56.5741L27.8647 54.6121ZM36.0398 52.759C35.3858 52.2413 34.8135 51.342 34.432 50.6335C34.7863 49.38 34.9498 47.9357 35.0315 46.6277C35.9036 46.0282 36.7756 45.4014 37.5931 44.7474C38.1926 45.2379 38.6831 45.8647 39.0646 46.5187C39.2009 47.8812 38.9556 49.38 38.3288 51.0423C37.6748 51.7508 36.9118 52.323 36.0398 52.759ZM28.1644 47.5269C26.7747 47.3089 25.3576 47.0637 23.9406 46.7639C23.6136 45.5922 23.2593 44.4476 22.8778 43.3031C23.8316 42.1314 24.8944 41.0413 26.0116 40.0331C27.3197 40.2511 28.6549 40.4691 29.9902 40.6871C30.3172 41.9951 30.6442 43.3031 30.9985 44.5566C29.9085 45.4014 28.9547 46.3824 28.1644 47.5269ZM19.0628 47.854C18.8175 48.0992 18.6268 48.399 18.4905 48.6987C18.109 46.5187 18.436 44.2569 19.417 42.2676C19.417 42.7581 19.4443 43.2486 19.5533 43.7391C19.0628 45.2652 18.8993 46.2462 19.0628 47.854ZM19.853 43.4939C19.7168 42.8671 19.7168 42.2131 19.7713 41.5863C20.616 40.1421 21.7878 38.9158 23.2048 38.0165C23.9679 37.8258 24.7854 37.6623 25.5756 37.6623C25.5484 38.3435 25.5211 39.1611 25.7391 39.8151C24.6491 40.8233 23.5863 41.9134 22.6326 43.0851C21.6788 42.8671 20.725 43.0851 19.853 43.4939ZM30.3173 40.6058L30.3172 40.6053C31.053 40.0058 31.8432 39.4336 32.6335 38.9158C33.9143 39.3246 35.086 39.9241 36.2033 40.7143C36.8846 41.8589 37.2661 43.1396 37.4296 44.4749C36.6121 45.1289 35.7673 45.7284 34.8953 46.3279C33.996 45.4014 32.5518 44.8564 31.3255 44.5021C30.9716 43.223 30.6451 41.9166 30.3185 40.6102L30.3184 40.61L30.3184 40.6097L30.3183 40.6095L30.3183 40.6093L30.3182 40.6091L30.3181 40.6089L30.3181 40.6086L30.318 40.6084L30.318 40.6082L30.3179 40.608L30.3179 40.6078L30.3178 40.6076L30.3177 40.6073L30.3177 40.6071L30.3176 40.6069L30.3176 40.6067L30.3175 40.6065L30.3175 40.6063L30.3174 40.606L30.3173 40.6058ZM39.2554 49.162C39.4461 48.2082 39.5006 47.3089 39.3916 46.4642C39.4111 46.3083 39.4027 45.9018 39.3964 45.5931C39.3938 45.4699 39.3916 45.3623 39.3916 45.2924C39.5824 46.3279 39.5006 48.0992 39.2554 49.162ZM36.2851 40.3601C35.1678 39.5971 33.9688 38.9976 32.7153 38.5888C32.143 37.7985 31.4345 37.1445 30.5625 36.7085C30.7805 36.654 31.0257 36.6268 31.3255 36.6268C33.5328 37.1173 35.4948 38.3435 36.9663 40.0603C36.6938 40.0603 36.4486 40.1421 36.2851 40.3601ZM30.1265 36.5178C28.6004 36.2453 26.9654 36.7358 25.6574 37.3353C25.1396 37.3353 24.6491 37.3898 24.1314 37.4715C26.0389 36.5178 28.2189 36.1363 30.3172 36.436C30.2355 36.4633 30.181 36.4905 30.1265 36.5178ZM40.5295 22.6039C40.627 22.4388 40.8021 22.3937 40.9673 22.4912L46.0045 25.4654L46.7196 24.2543C46.8171 24.0891 46.9922 24.044 47.1574 24.1416C47.3225 24.2391 47.3676 24.4142 47.2701 24.5793L46.555 25.7904L47.6836 26.4568L48.3987 25.2457C48.4962 25.0805 48.6713 25.0354 48.8365 25.1329C49.0016 25.2305 49.0467 25.4056 48.9492 25.5707L48.2341 26.7819L49.3351 27.432L50.0502 26.2209C50.1477 26.0557 50.3228 26.0106 50.488 26.1081C50.6531 26.2056 50.6982 26.3808 50.6007 26.5459L49.8856 27.757L50.9866 28.4071L51.7018 27.196C51.7993 27.0308 51.9744 26.9858 52.1395 27.0833C52.3047 27.1808 52.3498 27.3559 52.2523 27.5211L51.5371 28.7322L52.6382 29.3823L53.3533 28.1711C53.4508 28.006 53.626 27.9609 53.7911 28.0584C53.9563 28.1559 54.0014 28.331 53.9038 28.4962L53.1887 29.7074L58.2258 32.6816C58.391 32.7791 58.4361 32.9542 58.3386 33.1193C58.2411 33.2845 58.0659 33.3296 57.9008 33.2321L52.8637 30.2579L52.1648 31.4414C52.0673 31.6066 51.8922 31.6517 51.727 31.5542C51.5619 31.4566 51.5168 31.2815 51.6143 31.1164L52.3131 29.9328L51.2121 29.2827L50.5132 30.4663C50.4157 30.6314 50.2406 30.6765 50.0755 30.579C49.9103 30.4815 49.8652 30.3064 49.9627 30.1412L50.6616 28.9576L49.5605 28.3075L48.8617 29.4911C48.7641 29.6563 48.589 29.7014 48.4239 29.6039C48.2587 29.5064 48.2136 29.3312 48.3112 29.1661L49.01 27.9825L47.909 27.3324L47.2102 28.516C47.1127 28.6811 46.9376 28.7262 46.7724 28.6287C46.6073 28.5312 46.5622 28.3561 46.6597 28.1909L47.3585 27.0073L46.2299 26.341L45.5311 27.5246C45.4335 27.6897 45.2584 27.7348 45.0933 27.6373C44.9281 27.5398 44.883 27.3647 44.9805 27.1995L45.6794 26.0159L40.6147 23.0254C40.4771 22.9442 40.4483 22.7415 40.5295 22.6039Z" fill="black"/>
</svg>
