<svg width="68" height="68" viewBox="0 0 68 68" fill="none" xmlns="http://www.w3.org/2000/svg">
<path d="M53.446 42.442L49.372 28.33C49.246 27.826 48.784 27.49 48.28 27.49H43.786L47.02 20.476C47.146 20.182 47.146 19.888 47.062 19.594C46.978 19.3 46.726 19.09 46.474 18.964L36.058 14.134C35.47 13.882 34.798 14.134 34.546 14.68L28.666 27.448H19.72C19.216 27.448 18.754 27.784 18.628 28.288L14.554 42.442C14.512 42.526 14.512 42.652 14.512 42.778V52.816C14.512 53.446 15.016 53.95 15.646 53.95H52.354C52.984 53.95 53.488 53.446 53.488 52.816V42.778C53.488 42.652 53.488 42.568 53.446 42.442ZM36.142 16.696L44.458 20.518L37.99 34.546H34.84L29.128 31.9L36.142 16.696ZM20.602 29.758H27.616L26.608 31.984C26.482 32.278 26.482 32.572 26.566 32.866C26.65 33.16 26.902 33.37 27.154 33.496L29.422 34.546H23.626C22.996 34.546 22.492 35.05 22.492 35.68C22.492 36.31 22.996 36.814 23.626 36.814H44.374C45.004 36.814 45.508 36.31 45.508 35.68C45.508 35.05 45.004 34.546 44.374 34.546H40.51L42.736 29.758H47.44L50.842 41.602H17.158L20.602 29.758ZM16.78 51.682V43.912H51.22V51.682H16.78Z" fill="black"/>
</svg>
