<svg width="68" height="68" viewBox="0 0 68 68" fill="none" xmlns="http://www.w3.org/2000/svg">
<path fill-rule="evenodd" clip-rule="evenodd" d="M26.7649 41.3766C26.675 41.3744 26.5857 41.3605 26.4994 41.3352L23.0951 45.2351L20.4283 51.2649C20.36 51.4221 20.2469 51.5558 20.1032 51.6492C20.0267 51.6989 19.9432 51.7361 19.8561 51.7596C19.7795 51.7804 19.7001 51.7908 19.62 51.79C19.4989 51.7917 19.3786 51.7697 19.266 51.7251C19.1579 51.6785 19.0602 51.6107 18.9786 51.5258C18.9279 51.4729 18.884 51.4142 18.8479 51.3508C18.826 51.3123 18.8069 51.2721 18.7909 51.2306C18.7486 51.1207 18.7286 51.0035 18.7322 50.8857C18.7358 50.7681 18.7628 50.6522 18.8117 50.5452L21.4962 44.5154L22.0862 39.3646C21.9136 39.2683 21.7785 39.1166 21.7027 38.934C21.6145 38.7164 21.6145 38.473 21.7027 38.2555L24.4285 32.0487C24.4678 31.9603 24.521 31.8795 24.5857 31.8091C24.6389 31.7512 24.6999 31.7004 24.7673 31.6582C24.8494 31.6068 24.9389 31.5695 25.0322 31.5472C25.1084 31.5291 25.1871 31.521 25.2663 31.5236L28.8063 23.5586L26.5879 19.8828C26.5144 19.7614 26.4712 19.6239 26.4619 19.4822C26.4527 19.3406 26.4777 19.1986 26.5348 19.0686L30.7769 9.47522C30.8426 9.328 30.9474 9.20141 31.0799 9.10937C31.2123 9.01733 31.3674 8.96313 31.5284 8.95288C31.6893 8.9425 31.8501 8.97644 31.9932 9.05078C32.1363 9.12512 32.2564 9.2373 32.3404 9.375L33.9334 12.0182C34.2657 11.4679 34.7872 11.0575 35.4002 10.864C36.0132 10.6704 36.6757 10.7069 37.2638 10.9666C37.8519 11.2262 38.3251 11.6913 38.595 12.2747C38.8649 12.8582 38.9129 13.5199 38.7301 14.1362L41.7627 13.5463C41.9216 13.5151 42.086 13.5281 42.238 13.5839C42.3133 13.6114 42.3841 13.649 42.4487 13.6953C42.5145 13.7426 42.5738 13.7987 42.6248 13.8627C42.6872 13.9409 42.7357 14.0288 42.7685 14.1226C42.7887 14.1804 42.803 14.2404 42.8108 14.3016C42.8315 14.4623 42.8077 14.6255 42.7421 14.7734L38.5 24.3668C38.4458 24.4933 38.3626 24.6052 38.2569 24.6934C38.1514 24.7815 38.0264 24.8435 37.8923 24.8743L33.6797 25.7062L30.1397 33.6711C30.2642 33.7965 30.3478 33.9565 30.3794 34.1304C30.411 34.3042 30.3891 34.4835 30.3167 34.6447L27.5732 40.8514C27.4781 41.0655 27.302 41.2332 27.0835 41.3175C26.982 41.3574 26.8739 41.3774 26.7649 41.3766ZM24.7058 40.5741L23.7618 40.1553L23.5435 42.0492L24.8002 40.6155L24.7058 40.5741ZM34.5352 23.7296L37.084 23.2281L40.4529 15.6112L37.91 16.1128L34.5352 23.7296ZM36.8537 12.771C36.7717 12.6862 36.6734 12.6188 36.5648 12.5728C36.4579 12.527 36.343 12.5027 36.2267 12.5013C36.1104 12.5 35.995 12.5216 35.8871 12.5649C35.8248 12.5898 35.7658 12.6217 35.711 12.6598C35.6708 12.6879 35.6328 12.7192 35.5976 12.7537C35.5145 12.835 35.4482 12.9319 35.4025 13.0388L34.8538 14.272L30.6117 23.8654L26.9301 32.1902L26.9891 32.2197L28.5467 32.91L32.2283 24.5675L36.4704 14.9858L37.0191 13.7528C37.0533 13.6792 37.0771 13.6014 37.0899 13.5216C37.0958 13.4853 37.0993 13.4487 37.1005 13.4119C37.1045 13.2939 37.0847 13.1765 37.0423 13.0664C36.9999 12.9563 36.9358 12.8558 36.8537 12.771ZM31.7091 11.7231L28.3402 19.3401L29.6795 21.582L33.0484 13.9415L31.7091 11.7231ZM26.5584 33.9543L25.7088 33.5768L23.6792 38.161L25.52 38.9635L26.3047 39.3292L28.3284 34.739L26.5584 33.9543ZM54.4831 29.7831L57.5334 30.3199C57.6931 30.3479 57.842 30.4192 57.964 30.5261C58.0391 30.5919 58.1022 30.6697 58.1509 30.7559C58.1813 30.8096 58.2062 30.8665 58.2248 30.9258C58.2735 31.0804 58.2788 31.2455 58.2401 31.403C58.2014 31.5603 58.1202 31.7041 58.0054 31.8186L50.5891 39.2172C50.4226 39.3821 50.1981 39.4752 49.9637 39.4768C49.9127 39.4825 49.8613 39.4825 49.8103 39.4768L45.58 38.7334L39.4204 44.9165C39.4897 45.0791 39.5088 45.2587 39.4751 45.4322C39.4537 45.5426 39.4116 45.6473 39.3515 45.7411C39.3172 45.7947 39.2771 45.8446 39.2316 45.89L34.4408 50.6691C34.2873 50.8246 34.0815 50.9174 33.8633 50.9293C33.7016 50.9382 33.5417 50.9023 33.4007 50.827C33.3515 50.8008 33.3047 50.7697 33.2608 50.734L28.6824 53.1411L24.0214 57.7963C23.8545 57.9624 23.6285 58.0555 23.3931 58.0555C23.1576 58.0555 22.9316 57.9624 22.7647 57.7963C22.6004 57.6295 22.5083 57.4049 22.5083 57.1709C22.5083 56.9368 22.6004 56.7122 22.7647 56.5454L27.4257 51.8844L29.8329 47.306C29.6952 47.1365 29.6255 46.9216 29.6375 46.7035C29.6495 46.4853 29.7423 46.2795 29.8978 46.1261L34.6945 41.3589C34.8194 41.2338 34.9788 41.1489 35.1523 41.1154C35.3259 41.0817 35.5054 41.1007 35.668 41.17L41.8276 34.9691L41.0783 30.7389C41.0559 30.5988 41.0666 30.4552 41.1097 30.3201C41.1528 30.1848 41.2269 30.0615 41.3261 29.9601L48.7424 22.5555C48.8569 22.4407 49.0006 22.3595 49.1581 22.3208C49.3155 22.2821 49.4805 22.2875 49.6351 22.3362C49.7898 22.3849 49.928 22.4751 50.0349 22.597C50.1417 22.7189 50.2131 22.8679 50.241 23.0276L50.7779 26.0719C51.2849 25.6644 51.9245 25.4587 52.574 25.4941C53.2235 25.5297 53.8369 25.8038 54.2965 26.2642C54.756 26.7245 55.0293 27.3384 55.0638 27.9879C55.0982 28.6374 54.8914 29.2767 54.4831 29.7831ZM48.8014 25.01L42.9014 30.9099L43.3557 33.4646L49.2557 27.5647L48.8014 25.01ZM52.3768 27.2952C52.1437 27.2952 51.9195 27.3854 51.7514 27.547L36.966 42.3501L38.2168 43.595L44.6537 37.1581L52.07 29.7417L53.0022 28.7977C53.0849 28.7159 53.1507 28.6186 53.1955 28.5112C53.2404 28.4039 53.2635 28.2887 53.2635 28.1724C53.2635 28.056 53.2404 27.9408 53.1955 27.8335C53.1507 27.7261 53.0849 27.6287 53.0022 27.547C52.8341 27.3854 52.61 27.2952 52.3768 27.2952ZM31.5026 49.0288L31.1014 48.6277L30.24 50.3092L31.9038 49.4301L31.5026 49.0288ZM32.7593 47.7781L33.7741 48.7987L37.3495 45.2469L35.314 43.2114L31.774 46.7515L32.7593 47.7781ZM47.1081 37.1816L49.6628 37.63L55.5628 31.7301L53.0081 31.2816L47.1081 37.1816Z" fill="black"/>
</svg>
