<svg width="68" height="68" viewBox="0 0 68 68" fill="none" xmlns="http://www.w3.org/2000/svg">
<path fill-rule="evenodd" clip-rule="evenodd" d="M40.2396 55.1501C38.1437 57.246 35.8219 58.5156 33.5134 58.5691C31.2457 58.6211 28.9303 57.5329 26.818 55.4206C22.3717 50.9743 19.614 43.0639 19.7932 35.268C20.0658 23.4003 27.343 11.5909 34.4834 11.4276C36.7511 11.3756 39.0665 12.4638 41.1788 14.5761C45.6251 19.0224 48.3828 26.9328 48.203 34.7282C48.0179 42.7589 44.6259 50.7637 40.2396 55.1501ZM22.2757 35.3248C22.1139 42.3649 24.6447 49.7354 28.5734 53.6641C29.7939 54.8847 31.0529 55.6612 32.2721 55.9549L32.4482 48.3187L34.9307 48.376L34.7578 55.8716C39.7935 54.3613 45.4796 45.1428 45.7205 34.6714C45.8823 27.6313 43.3521 20.2613 39.4229 16.3321C38.2014 15.1107 36.9415 14.3338 35.7215 14.0406L35.546 21.6498L33.0635 21.5926L33.2357 14.1251C28.1999 15.637 22.5166 24.8551 22.2757 35.3248ZM34.5632 42.8295L37.353 42.7653C37.7645 42.7558 38.1055 43.0819 38.115 43.4934C38.1193 43.7056 38.0355 43.8986 37.8965 44.0376C37.7655 44.1686 37.5863 44.2513 37.3869 44.2555L33.9628 44.3344C33.905 44.3473 33.8447 44.3535 33.7828 44.3521C33.7447 44.3512 33.7074 44.3475 33.671 44.3411L30.2486 44.4199C29.8371 44.4295 29.4961 44.1033 29.4866 43.6918C29.4775 43.2797 29.8032 42.9392 30.2147 42.9297L33.0714 42.8639L33.136 40.0585L30.3478 40.1227C29.9363 40.1322 29.5953 39.8061 29.5857 39.3945C29.5762 38.983 29.9023 38.642 30.3139 38.6324L33.1704 38.5666L33.235 35.7606L30.4465 35.8249C30.0349 35.8344 29.6939 35.5083 29.6844 35.0967C29.6748 34.6852 30.001 34.3442 30.4125 34.3346L33.2694 34.2688L33.334 31.4634L30.5456 31.5276C30.1341 31.5371 29.7931 31.211 29.7835 30.7995C29.774 30.3879 30.1002 30.0469 30.5117 30.0374L33.3683 29.9716L33.433 27.1656L30.6443 27.2298C30.2327 27.2394 29.8917 26.9132 29.8822 26.5017C29.8726 26.0901 30.1988 25.7491 30.6103 25.7396L33.7301 25.6677C33.8626 25.5602 34.0326 25.4972 34.2166 25.501C34.3763 25.5047 34.5231 25.5584 34.6424 25.6467L37.7486 25.5752C38.1601 25.5656 38.5011 25.8918 38.5106 26.3033C38.5149 26.5155 38.4306 26.709 38.2922 26.8474C38.1612 26.9784 37.9819 27.0612 37.7825 27.0654L34.9248 27.1312L34.8601 29.9372L37.6499 29.873C38.0615 29.8634 38.4025 30.1896 38.412 30.6011C38.4163 30.8132 38.3319 31.0068 38.1935 31.1452C38.0625 31.2762 37.8833 31.359 37.6839 31.3632L34.8258 31.429L34.7612 34.2345L37.5508 34.1702C37.9623 34.1607 38.3033 34.4868 38.3128 34.8984C38.3171 35.1105 38.2328 35.3041 38.0943 35.4425C37.9634 35.5735 37.7841 35.6562 37.5847 35.6605L34.7268 35.7263L34.6622 38.5323L37.4521 38.468C37.8637 38.4585 38.2047 38.7846 38.2142 39.1962C38.2184 39.4083 38.1341 39.6019 37.9957 39.7403C37.8647 39.8713 37.6855 39.954 37.4861 39.9583L34.6278 40.0241L34.5632 42.8295Z" fill="black"/>
</svg>
