<svg width="68" height="68" viewBox="0 0 68 68" fill="none" xmlns="http://www.w3.org/2000/svg">
<path d="M51.3138 52.4715L51.3251 52.4671L51.3138 52.4715ZM51.3138 52.4715L51.303 52.4769M51.3138 52.4715L51.303 52.4769M51.303 52.4769L51.3029 52.477L51.3026 52.4771L51.3016 52.4776L51.2977 52.4796L51.2828 52.4871L51.2296 52.5139L51.078 52.5901C50.9585 52.6366 50.7802 52.6762 50.5928 52.7041C50.403 52.7324 50.2248 52.7457 50.123 52.7457H50.0642H50.0625H50.0608H50.059H50.0573H50.0556H50.0538H50.0521H50.0504H50.0486H50.0469H50.0451H50.0434H50.0416H50.0399H50.0381H50.0363H50.0346H50.0328H50.031H50.0293H50.0275H50.0257H50.0239H50.0221H50.0204H50.0186H50.0168H50.015H50.0132H50.0114H50.0096H50.0078H50.006H50.0042H50.0024H50.0006H49.9988H49.9969H49.9951H49.9933H49.9915H49.9897H49.9878H49.986H49.9842H49.9823H49.9805H49.9786H49.9768H49.975H49.9731H49.9713H49.9694H49.9676H49.9657H49.9638H49.962H49.9601H49.9583H49.9564H49.9545H49.9527H49.9508H49.9489H49.947H49.9451H49.9433H49.9414H49.9395H49.9376H49.9357H49.9338H49.9319H49.93H49.9281H49.9262H49.9243H49.9224H49.9205H49.9186H49.9167H49.9148H49.9129H49.9109H49.909H49.9071H49.9052H49.9032H49.9013H49.8994H49.8975H49.8955H49.8936H49.8916H49.8897H49.8878H49.8858H49.8839H49.8819H49.88H49.878H49.8761H49.8741H49.8722H49.8702H49.8682H49.8663H49.8643H49.8623H49.8604H49.8584H49.8564H49.8545H49.8525H49.8505H49.8485H49.8465H49.8446H49.8426H49.8406H49.8386H49.8366H49.8346H49.8326H49.8306H49.8286H49.8266H49.8246H49.8226H49.8206H49.8186H49.8166H49.8146H49.8126H49.8106H49.8086H49.8066H49.8046H49.8025H49.8005H49.7985H49.7965H49.7945H49.7924H49.7904H49.7884H49.7863H49.7843H49.7823H49.7802H49.7782H49.7762H49.7741H49.7721H49.77H49.768H49.766H49.7639H49.7619H49.7598H49.7578H49.7557H49.7537H49.7516H49.7495H49.7475H49.7454H49.7434H49.7413H49.7392H49.7372H49.7351H49.733H49.731H49.7289H49.7268H49.7248H49.7227H49.7206H49.7185H49.7164H49.7144H49.7123H49.7102H49.7081H49.706H49.704H49.7019H49.6998H49.6977H49.6956H49.6935H49.6914H49.6893H49.6872H49.6851H49.683H49.6809H49.6788H49.6767H49.6746H49.6725H49.6704H49.6683H49.6662H49.6641H49.662H49.6599H49.6578H49.6557H49.6536H49.6514H49.6493H49.6472H49.6451H49.643H49.6409H49.6387H49.6366H49.6345H49.6324H49.6302H49.6281H49.626H49.6239H49.6217H49.6196H49.6175H49.6154H49.6132H49.6111H49.609H49.6068H49.6047H49.6026H49.6004H49.5983H49.5962H49.594H49.5919H49.5897H49.5876H49.5855H49.5833H49.5812H49.579H49.5769H49.5747H49.5726H49.5704H49.5683H49.5661H49.564H49.5619H49.5597H49.5575H49.5554H49.5532H49.5511H49.5489H49.5468H49.5446H49.5425H49.5403H49.5382H49.536H49.5338H49.5317H49.5295H49.5274H49.5252H49.523H49.5209H49.5187H49.5166H49.5144H49.5122H49.5101H49.5079H49.5057H49.5036H49.5014H49.4992H49.4971H49.4949H49.4927H49.4906H49.4884H49.4862H49.4841H49.4819H49.4797H49.4776H49.4754H49.4732H49.471H49.4689H49.4667H49.4645H49.4624H49.4602H49.458H49.4558H49.4537H49.4515H49.4493H49.4471H49.445H49.4428H49.4406H49.4384H49.4363H49.4341H49.4319H49.4297H49.4275H49.4254H49.4232H49.421H49.4188H49.4167H49.4145H49.4123H49.4101H49.4079H49.4058H49.4036H49.4014H49.3992H49.397H49.3949H49.3927H49.3905H49.3883H49.3862H49.384H49.3818H49.3796H49.3774H49.3753H49.3731H49.3709H49.3687H49.3665H49.3644H49.3622H49.36H49.3578H49.3556H49.3535H49.3513H49.3491H49.3469H49.3447H49.3426H49.3404H49.3382H49.336H49.3338H49.3317H49.3295H49.3273H49.3251H49.3229H49.3208H49.3186H49.3164H49.3142H49.3121H49.3099H49.3077H49.3055H49.3034H49.3012H49.299H49.2968H49.2947H49.2925H49.2903H49.2881H49.286H49.2838H49.2816H49.2794H49.2773H49.2751H49.2729H49.2707H49.2686H49.2664H49.2642H49.2621H49.2599H49.2577H49.2556H49.2534H49.2512H49.2491H49.2469H49.2447H49.2426H49.2404H49.2382H49.2361H49.2339H49.2317H49.2296H49.2274H49.2252H49.2231H49.2209H49.2188H49.2166H49.2144H49.2123H49.2101H49.208H49.2058H49.2037H49.2015H49.1993H49.1972H49.195H49.1929H49.1907H49.1886H49.1864H49.1843H49.1821H49.18H49.1778H49.1757H49.1735H49.1714H49.1692H49.1671H49.1649H49.1628H49.1607H49.1585H49.1564H49.1542H49.1521H49.15H49.1478H49.1457H49.1436H49.1414H49.1393H49.1371H49.135H49.1329H49.1307H49.1286H49.1265H49.1244H49.1222H49.1201H49.118H49.1159H49.1137H49.1116H49.1095H49.1074H49.1052H49.1031H49.101H49.0989H49.0968H49.0947H49.0925H49.0904H49.0883H49.0862H49.0841H49.082H49.0799H49.0778H49.0757H49.0736H49.0715H49.0694H49.0673H49.0652H49.0631H49.061H49.0589H49.0568H49.0547H49.0526H49.0505H49.0484H49.0463H49.0442H49.0421H49.04H49.038H49.0359H49.0338H49.0317H49.0296H49.0275H49.0255H49.0234H49.0213H49.0192H49.0172H49.0151H49.013H49.011H49.0089H49.0068C46.6058 52.7457 43.0777 52.4074 41.7692 52.282L41.6878 52.2742L41.6759 52.2731M51.303 52.4769L41.6759 52.2731M41.6759 52.2731H41.6639H41.6759ZM12.3646 15.0812L12.3752 15.0954L39.1016 50.8942C39.1019 50.8946 39.1021 50.895 39.1024 50.8953C39.6492 51.6096 40.415 52.0516 41.2991 52.2183L12.3646 15.0812ZM12.3646 15.0812L12.3521 15.0687M12.3646 15.0812L12.3521 15.0687M12.3521 15.0687C12.3392 15.0557 12.326 15.0332 12.3173 14.9894C12.3081 14.9432 12.3074 14.8931 12.3074 14.8314C12.3074 14.5546 12.5492 14.3134 12.821 14.3134C12.9826 14.3134 13.1344 14.3978 13.2001 14.4969L13.2044 14.5035M12.3521 15.0687L13.2044 14.5035M13.2044 14.5035L13.2092 14.5097M13.2044 14.5035L13.2092 14.5097M13.2092 14.5097L38.5259 47.9456C39.5132 49.3095 40.998 50.0555 42.6626 50.0555H42.6781M13.2092 14.5097L42.6781 50.0555M42.6781 50.0555L42.6935 50.0536M42.6781 50.0555L42.6935 50.0536M42.6935 50.0536L50.7259 49.0512M42.6935 50.0536L50.7259 49.0512M50.7259 49.0512H50.7691H50.7259ZM50.6516 47.4878H50.637L50.6225 47.4895L42.5894 48.433C41.4503 48.4284 40.4681 47.8833 39.7482 46.9366L14.4313 13.5595C14.4311 13.5592 14.4309 13.5589 14.4307 13.5586C14.0285 13.02 13.4241 12.75 12.821 12.75C11.683 12.75 10.75 13.6904 10.75 14.8314C10.75 15.2401 10.8852 15.6484 11.1544 15.9883L37.9391 51.8456L37.9389 51.8457L37.9449 51.8531C38.7437 52.8418 39.855 53.528 41.098 53.7155L41.1165 53.7183H41.1352C41.164 53.7183 41.2061 53.726 41.293 53.7419L41.3032 53.7438C41.3807 53.7579 41.4831 53.7758 41.5911 53.7773C42.7225 53.8968 46.4756 54.25 49.0068 54.25H49.0092H49.0117H49.0141H49.0165H49.0189H49.0213H49.0237H49.0261H49.0285H49.0309H49.0333H49.0356H49.038H49.0404H49.0428H49.0452H49.0476H49.05H49.0524H49.0548H49.0571H49.0595H49.0619H49.0643H49.0666H49.069H49.0714H49.0738H49.0761H49.0785H49.0809H49.0832H49.0856H49.088H49.0903H49.0927H49.0951H49.0974H49.0998H49.1021H49.1045H49.1068H49.1092H49.1115H49.1139H49.1162H49.1186H49.1209H49.1233H49.1256H49.128H49.1303H49.1326H49.135H49.1373H49.1396H49.142H49.1443H49.1466H49.149H49.1513H49.1536H49.156H49.1583H49.1606H49.1629H49.1652H49.1676H49.1699H49.1722H49.1745H49.1768H49.1791H49.1814H49.1838H49.1861H49.1884H49.1907H49.193H49.1953H49.1976H49.1999H49.2022H49.2045H49.2068H49.2091H49.2114H49.2137H49.2159H49.2182H49.2205H49.2228H49.2251H49.2274H49.2297H49.2319H49.2342H49.2365H49.2388H49.241H49.2433H49.2456H49.2479H49.2501H49.2524H49.2547H49.2569H49.2592H49.2615H49.2637H49.266H49.2682H49.2705H49.2728H49.275H49.2773H49.2795H49.2818H49.284H49.2863H49.2885H49.2908H49.293H49.2953H49.2975H49.2997H49.302H49.3042H49.3065H49.3087H49.3109H49.3132H49.3154H49.3176H49.3198H49.3221H49.3243H49.3265H49.3287H49.331H49.3332H49.3354H49.3376H49.3398H49.3421H49.3443H49.3465H49.3487H49.3509H49.3531H49.3553H49.3575H49.3597H49.3619H49.3641H49.3663H49.3685H49.3707H49.3729H49.3751H49.3773H49.3795H49.3817H49.3839H49.3861H49.3883H49.3904H49.3926H49.3948H49.397H49.3992H49.4014H49.4035H49.4057H49.4079H49.4101H49.4122H49.4144H49.4166H49.4187H49.4209H49.4231H49.4252H49.4274H49.4296H49.4317H49.4339H49.436H49.4382H49.4403H49.4425H49.4447H49.4468H49.449H49.4511H49.4532H49.4554H49.4575H49.4597H49.4618H49.464H49.4661H49.4682H49.4704H49.4725H49.4746H49.4768H49.4789H49.481H49.4832H49.4853H49.4874H49.4895H49.4917H49.4938H49.4959H49.498H49.5001H49.5022H49.5044H49.5065H49.5086H49.5107H49.5128H49.5149H49.517H49.5191H49.5212H49.5233H49.5254H49.5275H49.5296H49.5317H49.5338H49.5359H49.538H49.5401H49.5422H49.5443H49.5464H49.5484H49.5505H49.5526H49.5547H49.5568H49.5589H49.5609H49.563H49.5651H49.5672H49.5692H49.5713H49.5734H49.5754H49.5775H49.5796H49.5816H49.5837H49.5858H49.5878H49.5899H49.5919H49.594H49.5961H49.5981H49.6002H49.6022H49.6043H49.6063H49.6084H49.6104H49.6124H49.6145H49.6165H49.6186H49.6206H49.6227H49.6247H49.6267H49.6288H49.6308H49.6328H49.6348H49.6369H49.6389H49.6409H49.643H49.645H49.647H49.649H49.651H49.6531H49.6551H49.6571H49.6591H49.6611H49.6631H49.6651H49.6671H49.6691H49.6712H49.6732H49.6752H49.6772H49.6792H49.6812H49.6832H49.6852H49.6871H49.6891H49.6911H49.6931H49.6951H49.6971H49.6991H49.7011H49.7031H49.705H49.707H49.709H49.711H49.713H49.7149H49.7169H49.7189H49.7208H49.7228H49.7248H49.7268H49.7287H49.7307H49.7327H49.7346H49.7366H49.7385H49.7405H49.7424H49.7444H49.7464H49.7483H49.7503H49.7522H49.7542H49.7561H49.7581H49.76H49.7619H49.7639H49.7658H49.7678H49.7697H49.7716H49.7736H49.7755H49.7774H49.7794H49.7813H49.7832H49.7852H49.7871H49.789H49.7909H49.7929H49.7948H49.7967H49.7986H49.8005H49.8024H49.8044H49.8063H49.8082H49.8101H49.812H49.8139H49.8158H49.8177H49.8196H49.8215H49.8234H49.8253H49.8272H49.8291H49.831H49.8329H49.8348H49.8367H49.8386H49.8405H49.8424H49.8442H49.8461H49.848H49.8499H49.8518H49.8536H49.8555H49.8574H49.8593H49.8612H49.863H49.8649H49.8668H49.8686H49.8705H49.8724H49.8742H49.8761H49.878H49.8798H49.8817H49.8835H49.8854H49.8872H49.8891H49.8909H49.8928H49.8946H49.8965H49.8983H49.9002H49.902H49.9039H49.9057H49.9076H49.9094H49.9112H49.9131H49.9149H49.9167H49.9186H49.9204H49.9222H49.9241H49.9259H49.9277H49.9295H49.9314H49.9332H49.935H49.9368H49.9386H49.9404H49.9423H49.9441H49.9459H49.9477H49.9495H49.9513H49.9531H49.9549H49.9567H49.9585H49.9603H49.9621H49.9639H49.9657H49.9675H49.9693H49.9711H49.9729H49.9747H49.9765H49.9783H49.9801H49.9818H49.9836H49.9854H49.9872H49.989H49.9907H49.9925H49.9943H49.9961H49.9978H49.9996H50.0014H50.0032H50.0049H50.0067H50.0084H50.0102H50.012H50.0137H50.0155H50.0173H50.019H50.0208H50.0225H50.0243H50.026H50.0278H50.0295H50.0313H50.033H50.0348H50.0365H50.0382H50.04H50.0417H50.0435H50.0452H50.0469H50.0487H50.0504H50.0521H50.0539H50.0556H50.0573H50.059H50.0608H50.0625H50.0642H50.0642H50.0643H50.0643H50.0643H50.0644H50.0644H50.0644H50.0645H50.0645H50.0645H50.0646H50.0646H50.0646H50.0647H50.0647H50.0647H50.0648H50.0648H50.0648H50.0649H50.0649H50.0649H50.065H50.065H50.0651H50.0651H50.0651H50.0652H50.0652H50.0653H50.0653H50.0654H50.0654H50.0655H50.0655H50.0656H50.0656H50.0657H50.0657H50.0657H50.0658H50.0658H50.0658H50.0659H50.0659H50.0659H50.066H50.066H50.066H50.0661H50.0661H50.0661H50.0662H50.0662H50.0662H50.0663H50.0663H50.0664H50.0664H50.0664H50.0665H50.0665H50.0666H50.0666H50.0666H50.0667H50.0667H50.0668H50.0668H50.0668H50.0669H50.0669H50.067H50.067H50.0671H50.0671H50.0672H50.0672H50.0673H50.0673H50.0674H50.0674H50.0675H50.0675H50.0676H50.0676H50.0677H50.0677H50.0678H50.0678H50.0679H50.0679H50.068H50.068H50.0681H50.0681H50.0682H50.0683H50.0683H50.0684H50.0684H50.0685H50.0686H50.0686H50.0687H50.0687H50.0688H50.0689H50.0689H50.069H50.0691H50.0691H50.0692H50.0693H50.0693H50.0694H50.0695H50.0695H50.0696H50.0697H50.0697H50.0698H50.0699H50.07H50.07H50.0701H50.0702H50.0703H50.0703H50.0704H50.0705H50.0706H50.0706H50.0707H50.0708H50.0709H50.071H50.071H50.0711H50.0712H50.0713H50.0714H50.0715H50.0716H50.0716H50.0717H50.0718H50.0719H50.072H50.0721H50.0722H50.0723H50.0724H50.0724H50.0725H50.0726H50.0727H50.0728H50.0729H50.073H50.0731H50.0732H50.0733H50.0734H50.0735H50.0736H50.0737H50.0738H50.0739H50.074H50.0741H50.0742H50.0743H50.0744H50.0746H50.0747H50.0748H50.0749H50.075H50.0751H50.0752H50.0753H50.0754H50.0756H50.0757H50.0758H50.0759H50.076H50.0761H50.0763H50.0764H50.0765H50.0766H50.0767H50.0769H50.077H50.0771H50.0772H50.0774H50.0775H50.0776H50.0778H50.0779H50.078H50.0782H50.0783H50.0784H50.0786H50.0787H50.0788H50.079H50.0791H50.0792H50.0794H50.0795H50.0797H50.0798H50.0799H50.0801H50.0802H50.0804H50.0805H50.0807H50.0808H50.081H50.0811H50.0813H50.0814H50.0816H50.0817H50.0819H50.082H50.0822H50.0823H50.0825H50.0827H50.0828H50.083H50.0831H50.0833H50.0835H50.0836H50.0838H50.084H50.0841H50.0843H50.0845H50.0846H50.0848H50.085H50.0851H50.0853H50.0855H50.0857H50.0858H50.086H50.0862H50.0864H50.0866H50.0867H50.0869H50.0871H50.0873H50.0875H50.0877H50.0878H50.088H50.0882H50.0884H50.0886H50.0888H50.089H50.0892H50.0894H50.0896H50.0898H50.09H50.0902H50.0904H50.0906H50.0908H50.091H50.0912H50.0914H50.0916H50.0918H50.092H50.0922H50.0924H50.0926H50.0929H50.0931H50.0933H50.0935H50.0937H50.0939H50.0942H50.0944H50.0946H50.0948H50.095H50.0953H50.0955H50.0957H50.0959H50.0962H50.0964H50.0966H50.0969H50.0971H50.0973H50.0976H50.0978H50.098H50.0983H50.0985H50.0988H50.099H50.0993H50.0995H50.0997H50.1H50.1002H50.1005H50.1007H50.101H50.1012H50.1015H50.1017H50.102H50.1023H50.1025H50.1028H50.103H50.1033H50.1036H50.1038H50.1041H50.1044H50.1046H50.1049H50.1052H50.1054H50.1057H50.106H50.1063H50.1065H50.1068H50.1071H50.1074H50.1076H50.1079H50.1082H50.1085H50.1088H50.1091H50.1094H50.1096H50.1099H50.1102H50.1105H50.1108H50.1111H50.1114H50.1117H50.112H50.1123H50.1126H50.1129H50.1132H50.1135H50.1138H50.1141H50.1144H50.1148H50.1151H50.1154H50.1157H50.116H50.1163H50.1166H50.117H50.1173H50.1176H50.1179H50.1183H50.1186H50.1189H50.1192H50.1196H50.1199H50.1202H50.1206H50.1209H50.1212H50.1216H50.1219H50.1223H50.1226H50.123C50.3167 54.25 51.0424 54.1891 51.535 54.0652L51.5617 54.0585L51.5864 54.0461C51.6324 54.023 51.6944 53.9978 51.7518 53.9786C51.7801 53.9691 51.8042 53.9621 51.8222 53.9577C51.8289 53.9561 51.8334 53.9551 51.8362 53.9546H51.8798L51.9285 53.9328C53.0161 53.4467 54.25 52.4374 54.25 50.928C54.25 49.0282 52.7974 47.4878 50.9454 47.4878H50.9453H50.9453H50.9452H50.9452H50.9452H50.9451H50.9451H50.945H50.945H50.9449H50.9449H50.9449H50.9448H50.9448H50.9448H50.9447H50.9447H50.9446H50.9446H50.9446H50.9445H50.9445H50.9444H50.9444H50.9443H50.9443H50.9442H50.9441H50.9441H50.944H50.944H50.9439H50.9439H50.9438H50.9437H50.9437H50.9436H50.9435H50.9435H50.9434H50.9433H50.9433H50.9432H50.9431H50.943H50.943H50.9429H50.9428H50.9427H50.9426H50.9426H50.9425H50.9424H50.9423H50.9422H50.9421H50.942H50.9419H50.9419H50.9418H50.9417H50.9416H50.9415H50.9414H50.9413H50.9412H50.9411H50.941H50.9409H50.9408H50.9407H50.9406H50.9404H50.9403H50.9402H50.9401H50.94H50.9399H50.9398H50.9397H50.9395H50.9394H50.9393H50.9392H50.9391H50.9389H50.9388H50.9387H50.9386H50.9385H50.9383H50.9382H50.9381H50.9379H50.9378H50.9377H50.9375H50.9374H50.9373H50.9371H50.937H50.9369H50.9367H50.9366H50.9364H50.9363H50.9361H50.936H50.9359H50.9357H50.9356H50.9354H50.9353H50.9351H50.935H50.9348H50.9347H50.9345H50.9343H50.9342H50.934H50.9339H50.9337H50.9335H50.9334H50.9332H50.9331H50.9329H50.9327H50.9326H50.9324H50.9322H50.9321H50.9319H50.9317H50.9315H50.9314H50.9312H50.931H50.9308H50.9307H50.9305H50.9303H50.9301H50.9299H50.9298H50.9296H50.9294H50.9292H50.929H50.9288H50.9286H50.9285H50.9283H50.9281H50.9279H50.9277H50.9275H50.9273H50.9271H50.9269H50.9267H50.9265H50.9263H50.9261H50.9259H50.9257H50.9255H50.9253H50.9251H50.9249H50.9247H50.9245H50.9243H50.9241H50.9239H50.9237H50.9235H50.9233H50.923H50.9228H50.9226H50.9224H50.9222H50.922H50.9218H50.9215H50.9213H50.9211H50.9209H50.9207H50.9204H50.9202H50.92H50.9198H50.9195H50.9193H50.9191H50.9189H50.9186H50.9184H50.9182H50.9179H50.9177H50.9175H50.9172H50.917H50.9168H50.9165H50.9163H50.9161H50.9158H50.9156H50.9154H50.9151H50.9149H50.9146H50.9144H50.9142H50.9139H50.9137H50.9134H50.9132H50.9129H50.9127H50.9124H50.9122H50.9119H50.9117H50.9114H50.9112H50.9109H50.9107H50.9104H50.9102H50.9099H50.9097H50.9094H50.9092H50.9089H50.9086H50.9084H50.9081H50.9079H50.9076H50.9073H50.9071H50.9068H50.9066H50.9063H50.906H50.9058H50.9055H50.9052H50.905H50.9047H50.9044H50.9042H50.9039H50.9036H50.9033H50.9031H50.9028H50.9025H50.9023H50.902H50.9017H50.9014H50.9012H50.9009H50.9006H50.9003H50.9001H50.8998H50.8995H50.8992H50.8989H50.8987H50.8984H50.8981H50.8978H50.8975H50.8972H50.897H50.8967H50.8964H50.8961H50.8958H50.8955H50.8952H50.8949H50.8947H50.8944H50.8941H50.8938H50.8935H50.8932H50.8929H50.8926H50.8923H50.892H50.8917H50.8914H50.8912H50.8909H50.8906H50.8903H50.89H50.8897H50.8894H50.8891H50.8888H50.8885H50.8882H50.8879H50.8876H50.8873H50.887H50.8867H50.8864H50.8861H50.8858H50.8855H50.8852H50.8848H50.8845H50.8842H50.8839H50.8836H50.8833H50.883H50.8827H50.8824H50.8821H50.8818H50.8815H50.8811H50.8808H50.8805H50.8802H50.8799H50.8796H50.8793H50.879H50.8787H50.8783H50.878H50.8777H50.8774H50.8771H50.8768H50.8764H50.8761H50.8758H50.8755H50.8752H50.8749H50.8745H50.8742H50.8739H50.8736H50.8733H50.8729H50.8726H50.8723H50.872H50.8717H50.8713H50.871H50.8707H50.8704H50.87H50.8697H50.8694H50.8691H50.8687H50.8684H50.8681H50.8678H50.8674H50.8671H50.8668H50.8665H50.8661H50.8658H50.8655H50.8652H50.8648H50.8645H50.8642H50.8638H50.8635H50.8632H50.8628H50.8625H50.8622H50.8619H50.8615H50.8612H50.8609H50.8605H50.8602H50.8599H50.8595H50.8592H50.8589H50.8585H50.8582H50.8579H50.8575H50.8572H50.8569H50.8565H50.8562H50.8559H50.8555H50.8552H50.8548H50.8545H50.8542H50.8538H50.8535H50.8532H50.8528H50.8525H50.8521H50.8518H50.8515H50.8511H50.8508H50.8505H50.8501H50.8498H50.8494H50.8491H50.8488H50.8484H50.8481H50.8477H50.8474H50.8471H50.8467H50.8464H50.846H50.8457H50.8454H50.845H50.8447H50.8443H50.844H50.8437H50.8433H50.843H50.8426H50.8423H50.8419H50.8416H50.8413H50.8409H50.8406H50.8402H50.8399H50.8396H50.8392H50.8389H50.8385H50.8382H50.8378H50.8375H50.8372H50.8368H50.8365H50.8361H50.8358H50.8354H50.8351H50.8348H50.8344H50.8341H50.8337H50.8334H50.833H50.8327H50.8323H50.832H50.8317H50.8313H50.831H50.8306H50.8303H50.8299H50.8296H50.8292H50.8289H50.8286H50.8282H50.8279H50.7691H50.7104H50.6516Z" fill="black" stroke="black" stroke-width="0.5"/>
</svg>
