<svg width="78" height="68" viewBox="0 0 78 68" fill="none" xmlns="http://www.w3.org/2000/svg">
<path d="M14 19V50H64V19H14ZM14.3051 24.5058H19.3937L14.3051 21.4651V20.6221L20.6717 24.5058H22.7152L14.4087 19.3488H17.4481L23.5614 22.9942V19.3488H24.9256V25.1163H14.3051V24.5058ZM16.3313 34.6279L23.5614 30.1686V29.3605H22.7497L14.3051 34.593V32.3837L19.3937 29.343H14.3051V28.7616H24.9256V34.6279H23.5614V30.8953L17.2984 34.6279H16.3313ZM28.1262 44.5116L26.5029 42.3721L24.8738 44.4826L25.4955 41.8837L22.8821 41.9186L25.2768 40.7907L23.5729 38.7209L25.9445 39.8837L26.5201 37.2674L27.0958 39.8837L29.4674 38.7209L27.7923 40.7907L30.187 41.9186L27.4872 41.8837L28.1262 44.5116ZM39.2648 29.3953H34.1819L39.2648 32.4302V33.2442L32.9328 29.3605H30.8662L39.2648 34.593H36.2715L30.0143 30.8953V34.6279H28.6385V28.7616H39.2648V29.3953ZM39.2648 21.5174L34.1531 24.5698H39.2648V25.1512H28.6385V19.3488H29.974V23.0233L36.1506 19.3488H37.1234L29.9855 23.75V24.5581H30.7971L39.1727 19.3488H39.2648V21.5174ZM45.994 34.9826L45.2169 33.9767L44.4455 34.9826L44.7564 33.7442H43.49L44.6413 33.2093L43.8354 32.2209L44.9866 32.8023L45.2169 31.5581L45.4875 32.8023L46.6387 32.2209L45.8386 33.2093L46.9899 33.7442H45.7292L45.994 34.9826ZM49.9889 25.1628L51.2323 25.7849L51.5201 24.4186L51.8137 25.7849L53.0513 25.1628L52.1764 26.2442L53.4313 26.8256H52.044L52.3721 28.186L51.5201 27.0814L50.674 28.186L50.9963 26.8256H49.6148L50.8697 26.2442L49.9889 25.1628ZM52.2052 44.7151L51.428 43.7093L50.6509 44.7151L50.9503 43.4767H49.6839L50.8351 42.9419L50.035 41.9535L51.1863 42.5349L51.4511 41.2907L51.7159 42.5349L52.8671 41.9535L52.067 42.9419L53.2183 43.4767H51.9519L52.2052 44.7151ZM54.6113 36.5756L54.0357 36.2035L53.4601 36.5756L53.6327 35.9128L53.1089 35.4767L53.7882 35.4419L54.0299 34.8023L54.2717 35.4419L54.951 35.4767L54.4271 35.9128L54.6113 36.5756ZM57.8925 33.1628L57.1154 32.1512L56.344 33.1628L56.6376 31.9186H55.3769L56.5282 31.3779L55.7281 30.3895L56.8793 30.9709L57.1441 29.7209L57.3859 30.9767L58.5372 30.3953L57.737 31.3837L58.8883 31.9244H57.6277L57.8925 33.1628Z" fill="white"/>
</svg>
