<svg width="68" height="68" viewBox="0 0 68 68" fill="none" xmlns="http://www.w3.org/2000/svg">
<path d="M20.815 10.1951C18.5382 10.1951 16.685 12.0483 16.685 14.3251C16.685 16.6019 18.5382 18.4551 20.815 18.4551C23.0918 18.4551 24.945 16.6019 24.945 14.3251C24.945 12.0483 23.0918 10.1951 20.815 10.1951ZM33.795 10.1951C31.5182 10.1951 29.665 12.0483 29.665 14.3251C29.665 16.6019 31.5182 18.4551 33.795 18.4551C36.0718 18.4551 37.925 16.6019 37.925 14.3251C37.925 12.0483 36.0718 10.1951 33.795 10.1951ZM46.775 18.4551C49.0518 18.4551 50.905 16.6019 50.905 14.3251C50.905 12.0483 49.0518 10.1951 46.775 10.1951C44.4982 10.1951 42.645 12.0483 42.645 14.3251C42.645 16.6019 44.4982 18.4551 46.775 18.4551ZM20.815 23.1751C18.5382 23.1751 16.685 25.0283 16.685 27.3051C16.685 29.5819 18.5382 31.4351 20.815 31.4351C23.0918 31.4351 24.945 29.5819 24.945 27.3051C24.945 25.0283 23.0918 23.1751 20.815 23.1751ZM33.795 23.1751C31.5182 23.1751 29.665 25.0283 29.665 27.3051C29.665 29.5819 31.5182 31.4351 33.795 31.4351C36.0718 31.4351 37.925 29.5819 37.925 27.3051C37.925 25.0283 36.0718 23.1751 33.795 23.1751ZM46.775 23.1751C44.4982 23.1751 42.645 25.0283 42.645 27.3051C42.645 29.5819 44.4982 31.4351 46.775 31.4351C49.0518 31.4351 50.905 29.5819 50.905 27.3051C50.905 25.0283 49.0518 23.1751 46.775 23.1751ZM20.815 36.1551C18.5382 36.1551 16.685 38.0083 16.685 40.2851C16.685 42.5619 18.5382 44.4151 20.815 44.4151C23.0918 44.4151 24.945 42.5619 24.945 40.2851C24.945 38.0083 23.0918 36.1551 20.815 36.1551ZM33.795 36.1551C31.5182 36.1551 29.665 38.0083 29.665 40.2851C29.665 42.5619 31.5182 44.4151 33.795 44.4151C36.0718 44.4151 37.925 42.5619 37.925 40.2851C37.925 38.0083 36.0718 36.1551 33.795 36.1551ZM46.775 36.1551C44.4982 36.1551 42.645 38.0083 42.645 40.2851C42.645 42.5619 44.4982 44.4151 46.775 44.4151C49.0518 44.4151 50.905 42.5619 50.905 40.2851C50.905 38.0083 49.0518 36.1551 46.775 36.1551ZM33.795 49.1351C31.5182 49.1351 29.665 50.9883 29.665 53.2651C29.665 55.5419 31.5182 57.3951 33.795 57.3951C36.0718 57.3951 37.925 55.5419 37.925 53.2651C37.925 50.9883 36.0718 49.1351 33.795 49.1351Z" fill="black"/>
</svg>
