<svg width="68" height="68" viewBox="0 0 68 68" fill="none" xmlns="http://www.w3.org/2000/svg">
<path fill-rule="evenodd" clip-rule="evenodd" d="M46.631 16.6572C46.631 16.1309 47.0578 15.705 47.584 15.705C48.1103 15.705 48.5371 16.1318 48.5371 16.6572C48.5371 17.1834 48.1103 17.6093 47.584 17.6093C47.0578 17.6093 46.631 17.1834 46.631 16.6572ZM27.9917 21.1311C26.5828 20.3233 24.5474 20.4482 23.1737 21.2675C21.4524 20.8821 19.2058 21.6028 18.4789 23.3258C16.6995 23.8873 15.3778 26.0028 15.3558 27.7073C13.9715 28.9358 13.7542 31.4306 14.7565 32.9557C13.5958 34.6761 14.1731 37.9893 16.0967 38.9573C15.3223 40.8563 16.2683 43.9741 18.5035 44.3525V55.4546C18.5035 55.7556 18.7297 56.0002 19.0342 56.0002H22.4662C22.7663 56.0002 23.01 55.7741 23.01 55.4696V46.124C23.01 44.0393 24.6037 42.5353 26.5388 42.3303C28.5778 42.1367 31.5478 41.57 36.6896 42.3329C38.6459 42.6225 40.4059 43.8897 40.4235 46.124V55.4546C40.4235 55.7556 40.6496 56.0002 40.9541 56.0002H44.3861C44.6871 56.0002 44.9308 55.7741 44.9308 55.4696V44.3217C46.3846 44.0507 47.5119 42.7386 48.0319 41.3966C49.2138 40.785 50.0067 39.6032 50.173 38.2885C52.1028 37.8432 52.5613 34.9893 52.3105 33.3341C53.4994 32.1804 53.6771 29.4832 52.7602 28.1333C52.8526 26.9585 52.5111 25.5293 51.8115 24.5833C52.3008 24.5666 52.7496 24.5781 53.1623 24.5587C53.5715 24.5393 53.8725 24.5217 54.2095 24.3818C55.4864 23.8529 56.4333 21.616 55.4767 20.5081C54.9725 19.907 54.3002 19.2769 53.7255 18.7331L49.7321 14.6974C49.0246 13.8482 47.9994 13.571 46.8791 13.4575L43.4137 12.3962L43.2236 12.3126C41.8235 11.7186 40.3812 11.7837 40.9083 14.1905L41.285 15.9127C40.0169 16.4812 39.3076 17.6375 39.3155 19.1115C37.9938 19.1889 36.8031 20.3004 36.3438 21.4954C35.2983 21.2613 33.7469 21.4285 32.7419 21.7533C31.5205 20.7633 29.4314 20.5318 27.9917 21.1311Z" fill="black"/>
</svg>
