<svg width="68" height="68" viewBox="0 0 68 68" fill="none" xmlns="http://www.w3.org/2000/svg">
<path fill-rule="evenodd" clip-rule="evenodd" d="M33.8769 54.6817H33.8765C33.7126 54.6817 33.5398 54.6817 33.3626 54.6772L32.9635 54.6639C28.0947 54.4467 23.4921 52.4557 19.9979 49.0503L19.9447 48.9971L19.6343 48.6867C16.2333 45.2014 14.2424 40.6031 14.0251 35.7388C14.0193 35.6815 14.0173 35.626 14.0154 35.5736C14.0144 35.5449 14.0133 35.5172 14.0118 35.4905C14.0118 35.4595 14.0118 35.424 14.0073 35.393V35.3885C13.9985 35.1314 13.9985 34.852 14.0029 34.5328C14.0384 32.3378 14.433 30.1784 15.1735 28.1165C15.9362 25.997 17.0448 24.037 18.4726 22.2944L18.477 22.29C18.7164 22.0018 18.9382 21.7446 19.1599 21.5007C19.3594 21.279 19.5722 21.0573 19.8161 20.8134C23.4832 17.1463 28.3519 15.0844 33.531 15.0046C33.8636 14.9957 34.205 15.0002 34.5731 15.0135C34.6041 15.0135 34.6352 15.0135 34.6662 15.0179H34.6972H34.7371C39.7123 15.2396 44.3815 17.2927 47.8845 20.8001C51.3964 24.3164 53.4538 28.9812 53.6755 33.9386C53.68 34.0051 53.6844 34.0805 53.6844 34.1647C53.6977 34.5239 53.6977 34.9008 53.6888 35.3087C53.5691 40.4258 51.5072 45.2413 47.8801 48.8685C47.6894 49.0591 47.4721 49.2675 47.1972 49.5203L47.1928 49.5247C46.9001 49.7908 46.6385 50.0169 46.399 50.212C44.7008 51.6044 42.7985 52.6952 40.741 53.4534C38.7412 54.1939 36.6438 54.6019 34.5066 54.6728C34.3026 54.6817 34.0942 54.6817 33.8769 54.6817ZM33.4113 52.9036C33.7838 52.9124 34.1208 52.9124 34.4445 52.8991C35.0207 52.88 35.5914 52.8347 36.1555 52.7636C35.4736 52.1688 34.8585 51.5263 34.3159 50.8416C33.2605 49.5114 32.4535 47.9816 31.917 46.301C30.4406 41.6962 31.3492 37.1942 31.7522 35.6382C30.7732 34.7933 28.1147 32.6248 25.0918 31.233C24.8888 32.7452 24.6224 35.5348 24.8312 38.8162C25.1862 44.4268 26.7331 48.9807 29.4306 52.3542C30.6041 52.6493 31.8123 52.8274 33.0389 52.8814L33.4113 52.9036ZM20.7849 30.0117C21.5941 30.0689 22.467 30.2514 23.3937 30.5578C22.9492 33.5643 21.9161 43.639 26.6003 51.3866C24.6796 50.546 22.9047 49.3698 21.3619 47.8957C19.3103 44.1892 18.55 40.1678 19.1022 35.9384C19.4652 33.1593 20.3101 31.0351 20.7849 30.0117ZM18.7903 30.1592C17.7218 30.4186 16.8097 30.9818 16.0288 31.8606C15.8794 32.7484 15.7959 33.6492 15.781 34.5549C15.7766 34.8431 15.7766 35.0915 15.7855 35.322C15.7855 35.3426 15.7866 35.3631 15.7878 35.3831C15.7888 35.4018 15.7899 35.4201 15.7899 35.4373C15.7899 35.4994 15.7943 35.5615 15.7988 35.6058V35.6413C15.9069 38.0993 16.5124 40.4823 17.5578 42.659C17.5041 42.3915 17.4557 42.123 17.4128 41.8536C17.0935 39.8493 17.0714 37.783 17.3418 35.7078C17.6501 33.3584 18.2801 31.4281 18.7903 30.1592ZM16.7312 29.063C17.2253 27.5979 17.9051 26.1976 18.7556 24.9038C22.2562 22.9709 26.891 23.1947 32.5378 25.5624C36.1672 27.0904 39.2559 29.1248 40.8594 30.2683C37.8711 32.6214 34.2354 33.9394 32.9729 34.3511C31.8577 33.3762 28.4937 30.6108 24.7026 29.1453C23.1019 28.5289 21.5942 28.2185 20.233 28.2229C18.9392 28.2254 17.7691 28.507 16.7312 29.063ZM21.0754 22.0638C21.0332 22.106 20.992 22.1476 20.9516 22.1886C22.3592 21.8627 23.8796 21.7645 25.5008 21.8953C27.8686 22.086 30.4626 22.7733 33.2207 23.9306C37.2734 25.631 40.6738 27.9378 42.224 29.067C43.0302 28.2678 43.6807 27.4305 44.1675 26.5682C42.0851 24.1099 34.8529 16.6598 25.4447 18.8412C23.8539 19.6786 22.3814 20.7596 21.0754 22.0638ZM31.6704 16.9057C32.2974 16.8307 32.9316 16.7879 33.571 16.7783H33.5798C33.8769 16.7694 34.1873 16.7739 34.5243 16.7872H34.5598H34.5908C34.6219 16.7916 34.6485 16.7916 34.6795 16.7916C38.4987 16.9638 42.1219 18.3249 45.0739 20.6639C45.3632 22.0838 45.318 23.4553 44.9368 24.7594C42.7927 22.4021 38.0202 17.9711 31.6704 16.9057ZM36.6145 50.7655C37.1671 51.3243 37.7837 51.8448 38.4567 52.3211C40.9413 51.6733 43.2532 50.4986 45.2816 48.8374L45.2861 48.833C45.5033 48.6556 45.7384 48.4561 46.0044 48.2122C46.2572 47.9772 46.4567 47.7865 46.6341 47.6136C48.3577 45.8899 49.694 43.8697 50.5924 41.6686C50.2735 42.0872 49.9353 42.4964 49.5783 42.8956C48.0264 44.6338 46.1064 46.1946 43.876 47.5382C41.0405 49.2531 38.2991 50.2529 36.6145 50.7655ZM35.3607 49.2782C34.7498 48.4216 34.245 47.4806 33.8558 46.4678C35.5905 45.5719 39.6553 43.3425 43.4547 40.3105C46.0132 38.2708 48.0219 36.2089 49.4231 34.1825C50.3108 32.8998 50.9596 31.6238 51.367 30.3639C51.6707 31.5552 51.8544 32.7833 51.9107 34.0317V34.0627C51.9107 34.0899 51.9121 34.1156 51.9133 34.1385C51.9143 34.1567 51.9152 34.1731 51.9152 34.1869V34.2179C51.9285 34.5461 51.9285 34.8919 51.9196 35.2688L51.9192 35.2876C48.983 44.9316 38.1993 48.4972 35.3607 49.2782ZM42.3506 38.9226C46.0082 36.0018 50.2991 31.5628 50.1009 26.9141C49.3151 25.3032 48.2874 23.8062 47.04 22.4746C47.041 23.993 46.7009 25.4577 46.0221 26.8527C45.3304 28.2761 44.275 29.633 42.8827 30.8834C39.4595 33.9607 34.9544 35.5792 33.4778 36.0536C33.3403 36.5858 33.1186 37.5701 32.99 38.8161C32.8319 40.3209 32.7811 42.4905 33.3227 44.7463C35.1276 43.8001 38.856 41.7134 42.3506 38.9226Z" fill="black"/>
</svg>
