<svg width="68" height="68" viewBox="0 0 68 68" fill="none" xmlns="http://www.w3.org/2000/svg">
<path d="M33.9521 15.1301L33.9521 15.1301C33.7296 15.1394 33.5153 15.2167 33.338 15.3515C33.1607 15.4864 33.029 15.6723 32.9605 15.8842L32.9605 15.8843L29.0602 27.9723L16.3622 27.9472L16.3621 27.9472C16.1316 27.9468 15.9069 28.0195 15.7202 28.1549C15.5336 28.2902 15.3947 28.4813 15.3235 28.7006C15.2522 28.9198 15.2524 29.156 15.3238 29.3752C15.3953 29.5944 15.5344 29.7853 15.7211 29.9205L15.7211 29.9205L26.0103 37.3662L22.0597 49.4418L22.0596 49.4419C21.988 49.661 21.9877 49.8972 22.0587 50.1165C22.1298 50.3358 22.2685 50.527 22.455 50.6625C22.6414 50.798 22.8661 50.8709 23.0966 50.8707C23.3271 50.8706 23.5517 50.7973 23.7379 50.6614L23.738 50.6614L33.9979 43.1739L44.2622 50.6616L44.2623 50.6616C44.4486 50.7974 44.6731 50.8706 44.9036 50.8708C45.1341 50.871 45.3587 50.798 45.5452 50.6625C45.7316 50.527 45.8703 50.3358 45.9413 50.1165C46.0123 49.8972 46.012 49.661 45.9404 49.4419L45.9404 49.4418L41.9897 37.3662L52.2789 29.9205L52.1323 29.718L52.2789 29.9205C52.4657 29.7853 52.6048 29.5944 52.6762 29.3752C52.7477 29.156 52.7478 28.9198 52.6766 28.7006C52.6053 28.4813 52.4664 28.2902 52.2798 28.1549C52.0932 28.0195 51.8684 27.9468 51.6379 27.9472L51.6378 27.9472L38.9395 27.9723L35.0349 15.8839L35.0349 15.8839C34.9616 15.6571 34.816 15.4607 34.6205 15.3246C34.4249 15.1884 34.1902 15.1201 33.9521 15.1301ZM38.149 30.1542L48.2649 30.1341L40.0676 36.066L40.0676 36.066C39.8805 36.2014 39.7413 36.3927 39.67 36.6124C39.5986 36.8321 39.5989 37.0687 39.6707 37.2882L42.8185 46.9098L34.6401 40.9438L34.6401 40.9438C34.4535 40.8078 34.2286 40.7344 33.9977 40.7345C33.7668 40.7345 33.5418 40.8079 33.3553 40.944L33.5027 41.1459L33.3553 40.944L25.1818 46.9089L28.3293 37.2882C28.4011 37.0687 28.4014 36.8321 28.3301 36.6124C28.2587 36.3927 28.1195 36.2014 27.9324 36.066L27.9324 36.066L19.7351 30.1341L29.8511 30.1541L29.8511 30.1541C30.082 30.1545 30.3071 30.0816 30.4939 29.9459C30.6807 29.8101 30.8196 29.6185 30.8905 29.3987L33.9983 19.7668L37.1097 29.3991L37.3476 29.3223L37.1097 29.3991C37.1807 29.6188 37.3195 29.8103 37.5063 29.946C37.6931 30.0817 37.9181 30.1546 38.1489 30.1542L38.149 30.1542Z" fill="black" stroke="black" stroke-width="0.5"/>
</svg>
