<svg width="68" height="68" viewBox="0 0 68 68" fill="none" xmlns="http://www.w3.org/2000/svg">
<path d="M50.6273 46.765L41.2554 37.3931C45.1804 32.1229 44.7674 24.6198 39.9862 19.8386C34.7346 14.587 26.1903 14.587 20.9387 19.8386C15.6871 25.0902 15.6871 33.6345 20.9387 38.8861C25.7199 43.6673 33.223 44.0803 38.4932 40.1553L47.8655 49.5276C48.6285 50.2907 49.8651 50.2907 50.6281 49.5276C51.3911 48.7646 51.3904 47.5281 50.6273 46.765ZM22.7798 37.0446C18.5439 32.8088 18.5439 25.9163 22.7798 21.6805C27.0157 17.4446 33.9081 17.4446 38.144 21.6805C42.3798 25.9163 42.3798 32.8088 38.144 37.0446C33.9081 41.2805 27.0157 41.2805 22.7798 37.0446Z" fill="black"/>
</svg>
