<svg width="68" height="68" viewBox="0 0 68 68" fill="none" xmlns="http://www.w3.org/2000/svg">
<path d="M39.5853 18.9134L43.6851 21.8458C43.4756 21.9351 43.3339 22.0121 43.183 22.0583C42.7425 22.1938 42.299 22.3201 41.8524 22.4402C41.2216 22.6047 40.5634 22.6348 39.9203 22.5287C39.2772 22.4226 38.6636 22.1826 38.1191 21.8242C37.768 21.6147 37.5031 21.5685 37.1951 21.7841C36.5803 22.2039 35.8714 22.4652 35.1313 22.545C34.0403 22.7082 32.9255 22.533 31.9371 22.0429C31.8018 21.9746 31.6711 21.8974 31.5459 21.8119C31.4146 21.7074 31.2517 21.6506 31.0839 21.6506C30.9161 21.6506 30.7532 21.7074 30.6219 21.8119C30.5295 21.8735 30.4402 21.9412 30.3416 21.9936C30.166 22.0798 29.9874 22.1538 29.7656 22.2554C29.5962 22.0336 29.4144 21.8273 29.2666 21.5963C28.8244 20.8814 28.5115 20.0941 28.3425 19.2707C28.2571 18.898 28.3107 18.5069 28.4935 18.1711C28.5447 18.0558 28.6206 17.9531 28.7159 17.8704C28.8111 17.7876 28.9233 17.7268 29.0446 17.6921C29.1659 17.6575 29.2933 17.6499 29.4179 17.6698C29.5425 17.6897 29.6612 17.7368 29.7656 17.8076C30.1389 18.0476 30.4083 18.4192 30.5202 18.8487C30.6126 19.129 30.6927 19.4124 30.7975 19.6834C30.8864 19.9043 30.9893 20.1194 31.1055 20.3272C31.2297 20.564 31.4135 20.7644 31.6388 20.9086C31.864 21.0528 32.1229 21.1359 32.3899 21.1496C33.1732 21.22 33.9628 21.1565 34.7247 20.9617C35.2127 20.8198 35.6362 20.5127 35.9229 20.0931C36.7022 19.0674 37.463 18.0355 38.2762 17.0345C38.7331 16.4644 39.2842 15.9769 39.9057 15.5929C40.3598 15.3002 40.8723 15.11 41.4074 15.0355C41.9426 14.961 42.4875 15.0041 43.0044 15.1617C43.7835 15.3969 44.5175 15.7614 45.1759 16.2398C45.5047 16.4551 45.7427 16.7841 45.8443 17.1638C45.8879 17.2868 45.903 17.4181 45.8885 17.5478C45.874 17.6774 45.8302 17.8021 45.7605 17.9124C45.6908 18.0228 45.597 18.1158 45.4861 18.1846C45.3753 18.2534 45.2502 18.2962 45.1205 18.3097C44.6896 18.3721 44.2509 18.2734 43.8884 18.0324C43.6235 17.8784 43.3617 17.7244 43.0906 17.5704C42.8775 17.4648 42.6572 17.3743 42.4314 17.2994C42.2063 17.219 41.9651 17.1938 41.7282 17.226C41.4913 17.2581 41.2656 17.3467 41.07 17.4842C40.5095 17.8874 40.0096 18.3687 39.5853 18.9134Z" fill="black"/>
<path d="M27.671 25.1291C27.4023 24.5465 27.2396 23.9207 27.1905 23.281C28.5533 23.4041 29.919 23.0797 31.0808 22.3569C32.0607 22.9619 33.1896 23.2823 34.3412 23.2823C35.4928 23.2823 36.6217 22.9619 37.6017 22.3569C38.5912 22.9602 39.7278 23.2793 40.8867 23.2793C42.0456 23.2793 43.1822 22.9602 44.1718 22.3569C44.7904 22.7362 45.4698 23.0061 46.1801 23.1547C46.9049 23.2835 47.6446 23.3074 48.3763 23.2256C48.2949 23.8569 48.142 24.4769 47.9204 25.0737C46.6068 25.191 45.2906 24.8797 44.1687 24.1866C41.994 25.4187 39.8225 25.4187 37.614 24.1866C36.635 24.7793 35.5149 25.0984 34.3705 25.1106C33.2107 25.1115 32.0733 24.7917 31.0839 24.1866C30.3534 24.6351 29.539 24.9296 28.6906 25.0521C28.3456 25.1168 27.9975 25.1137 27.671 25.1291Z" fill="black"/>
<path d="M44.1563 25.2311C45.1576 25.8375 46.3062 26.1572 47.4768 26.1552C47.2019 26.7755 46.8589 27.3633 46.4542 27.9078C45.6434 27.7864 44.8652 27.5036 44.1656 27.0762C42.0094 28.3082 39.8225 28.3082 37.6232 27.0762C35.467 28.3082 33.2708 28.3082 31.0777 27.0762C30.4508 27.45 29.7657 27.7165 29.0509 27.8647C28.6594 27.3308 28.3259 26.7567 28.056 26.1521C29.1288 26.1089 30.1725 25.7907 31.087 25.228C33.2647 26.4601 35.4455 26.4817 37.6263 25.228C39.7609 26.454 41.9416 26.4663 44.1563 25.2311Z" fill="black"/>
<path d="M32.2174 17.3428C32.2154 17.0625 32.2689 16.7846 32.3748 16.5251C32.4808 16.2657 32.637 16.0298 32.8346 15.831C33.0322 15.6323 33.2673 15.4746 33.5261 15.3672C33.785 15.2598 34.0625 15.2047 34.3428 15.2051C34.8937 15.226 35.415 15.4596 35.7973 15.8568C36.1797 16.2539 36.3933 16.7838 36.3933 17.3351C36.3933 17.8863 36.1797 18.4162 35.7973 18.8133C35.415 19.2105 34.8937 19.4441 34.3428 19.465C34.0634 19.4671 33.7863 19.4136 33.5277 19.3077C33.2692 19.2018 33.0342 19.0456 32.8365 18.8482C32.6387 18.6507 32.4822 18.416 32.3759 18.1576C32.2697 17.8991 32.2158 17.6222 32.2174 17.3428Z" fill="black"/>
<path d="M15.1905 56.3241L21.5703 46.81L24.948 48.2372L20.9798 51.7573C20.5855 52.1095 20.5093 52.7092 20.8247 53.1427C21.1626 53.607 21.8168 53.7091 22.2861 53.3713L28.4831 48.9092C28.6428 48.793 28.7856 48.6377 28.8873 48.4546C29.2579 47.7866 29.0145 46.9494 28.344 46.5854L28.2186 46.5174L23.9759 44.2143L27.2209 39.6224C27.2563 39.5714 27.2924 39.5154 27.3269 39.4579L30.1473 42.0611C30.457 42.3471 30.9027 42.4356 31.3014 42.291L36.5146 40.4007C37.1021 40.1877 37.4072 39.5431 37.1961 38.961C36.985 38.3789 36.3377 38.0797 35.7502 38.2927L31.1871 39.9473L28.5046 37.471C28.4395 37.4108 28.3676 37.3588 28.29 37.3154L27.2822 36.754C27.2615 36.7216 27.2415 36.6894 27.2191 36.658C27.4155 36.6389 27.6128 36.598 27.807 36.5276C29.0439 36.0791 29.6861 34.7218 29.2418 33.4964C28.7974 32.2708 27.4345 31.6405 26.1976 32.089C24.9607 32.5375 24.3183 33.8945 24.7629 35.1205C24.802 35.2283 24.8505 35.3299 24.9035 35.4286L24.0202 34.9366C23.9017 34.8705 23.7718 34.8263 23.6366 34.8062L19.6231 34.2078C19.3061 34.1606 18.9819 34.2498 18.7337 34.453L14.238 38.1275C13.7547 38.5225 13.6831 39.2299 14.0781 39.7075C14.4731 40.1852 15.1848 40.2522 15.6683 39.8571L19.7733 36.5017L22.8196 36.956C22.8109 36.9728 22.8002 36.9879 22.7916 37.005L19.5383 43.4089C19.5001 43.4837 19.4744 43.5618 19.4461 43.6392C19.4345 43.6594 19.4189 43.6763 19.408 43.6973L13.3899 55.2787C13.1474 55.7442 13.2898 56.3246 13.7381 56.6194C14.2187 56.9358 14.8691 56.8035 15.1905 56.3241Z" fill="black"/>
<path d="M41.6939 45.4892C42.1818 45.4892 42.6348 45.5955 43.0879 45.7727L45.6318 40.175C45.5621 40.175 45.4576 40.175 45.3879 40.175C44.9348 40.175 44.2727 40.175 43.9939 39.7499C43.7848 39.3956 43.8545 38.8642 44.2379 38.0848C44.2727 38.0139 44.3773 37.9785 44.4818 38.0139C44.5515 38.0493 44.5864 38.1556 44.5515 38.2619C44.2379 38.8642 44.1333 39.3247 44.2727 39.5727C44.447 39.8562 44.9697 39.8562 45.353 39.8562C45.6667 39.8562 45.8758 39.8562 45.9803 39.9979C46.0152 40.0333 46.05 40.1396 45.9803 40.2459L44.9697 42.4778H52.3227L53.0894 40.7419C52.95 40.7064 52.8455 40.6356 52.7409 40.5647C52.4273 40.3876 52.0788 40.2104 51.4515 40.1042C50.65 39.9979 50.5106 39.7144 50.5106 39.5373C50.5106 39.2539 50.8939 39.0767 51.4515 39.0413C51.7303 39.0413 52.0091 39.0413 52.3227 39.0767C52.5667 39.0767 52.8455 39.1122 53.1591 39.1122C53.7864 39.1122 54.3788 39.0413 55.0758 38.8996C55.5288 38.7933 55.9121 38.935 56.0864 39.2539C56.2258 39.5727 56.1561 39.9624 55.8773 40.3522C55.5636 40.671 55.0758 40.8836 54.3788 40.8836C54.1 40.8836 53.8561 40.8481 53.6121 40.8127H53.5076C53.4727 40.8127 53.4727 40.8127 53.4379 40.8127L52.6364 42.5841L55.2152 46.1269C55.8076 45.7372 56.5045 45.4892 57.2712 45.4892C59.3273 45.4892 61 47.1898 61 49.2446C61 51.2994 59.3273 53 57.3061 53C55.3197 53 53.7167 51.4057 53.6121 49.4218H49.5C49.4303 49.4218 49.3955 49.3863 49.3606 49.3509L44.7258 42.9738L43.4015 45.9144C44.5864 46.5521 45.3879 47.7921 45.3879 49.2446C45.3879 51.2994 43.7152 53 41.6939 53C39.6727 53 38 51.3349 38 49.2446C38 47.1898 39.6727 45.4892 41.6939 45.4892ZM53.5773 40.4584H53.6818C53.8909 40.4939 54.1348 40.5293 54.3788 40.5293C54.9364 40.5293 55.3545 40.3876 55.5636 40.0687C55.7727 39.7853 55.8424 39.5373 55.7379 39.3602C55.6682 39.2185 55.5288 39.183 55.3545 39.183C55.2848 39.183 55.2152 39.183 55.1455 39.2185C54.4485 39.3602 53.8212 39.431 53.1591 39.431C52.8455 39.431 52.5667 39.431 52.3227 39.3956C52.0439 39.3956 51.7652 39.3602 51.4864 39.3602C51.0333 39.3602 50.8939 39.5019 50.8591 39.5019C50.8591 39.5373 51.0333 39.6436 51.4864 39.7144C52.1485 39.8207 52.5667 40.0333 52.8803 40.2104C53.1591 40.3167 53.3333 40.423 53.5773 40.4584ZM45.0045 42.7613L49.4303 48.8549L52.1833 42.7613H45.0045ZM52.497 42.9384L49.7091 49.0675H53.6121C53.647 47.9692 54.1697 46.9772 54.9712 46.3395L52.497 42.9384ZM53.9606 49.0675H56.9576L55.1803 46.6229C54.4833 47.2252 54.0303 48.0755 53.9606 49.0675ZM57.3061 52.6457C59.153 52.6457 60.6515 51.1223 60.6515 49.2446C60.6515 47.3669 59.153 45.8435 57.3061 45.8435C56.6091 45.8435 55.9818 46.0561 55.4591 46.4104L57.4455 49.1383C57.4803 49.2092 57.4803 49.28 57.4455 49.3155C57.4106 49.3509 57.3409 49.4218 57.3061 49.4218H53.9606C54.0652 51.2286 55.5288 52.6457 57.3061 52.6457ZM41.6939 52.6457C43.5409 52.6457 45.0394 51.1223 45.0394 49.2446C45.0394 47.9338 44.3076 46.8001 43.2621 46.2332L41.8682 49.3155C41.8333 49.3863 41.7636 49.4218 41.6939 49.4218C41.6591 49.4218 41.6591 49.4218 41.6242 49.4218C41.5197 49.3863 41.4848 49.28 41.5545 49.1738L42.9485 46.0915C42.5652 45.9498 42.147 45.8435 41.7288 45.8435C39.8818 45.8435 38.3833 47.3669 38.3833 49.2446C38.3485 51.1223 39.847 52.6457 41.6939 52.6457Z" fill="black"/>
<path fill-rule="evenodd" clip-rule="evenodd" d="M43.4015 45.9144C43.4047 45.9161 43.4079 45.9178 43.4111 45.9196C43.4166 45.9225 43.422 45.9254 43.4274 45.9284C43.4646 45.9488 43.5013 45.9698 43.5377 45.9913C43.539 45.9921 43.5403 45.9928 43.5415 45.9936C44.6491 46.6514 45.3879 47.85 45.3879 49.2446C45.3879 51.2994 43.7152 53 41.6939 53C39.6727 53 38 51.3349 38 49.2446C38 49.2422 38 49.2399 38 49.2375C38.0039 47.1858 39.6751 45.4892 41.6939 45.4892C41.7056 45.4892 41.7172 45.4893 41.7288 45.4894C42.1511 45.4938 42.5478 45.5777 42.9416 45.718C42.943 45.7185 42.9443 45.7189 42.9457 45.7194C42.9869 45.7341 43.028 45.7494 43.0691 45.7653C43.0727 45.7667 43.0764 45.7682 43.0801 45.7696C43.0827 45.7706 43.0853 45.7716 43.0879 45.7726L45.6318 40.175H45.3879C45.3764 40.175 45.3648 40.175 45.353 40.175C45.2687 40.1749 45.1779 40.1745 45.0843 40.1712C44.6767 40.1567 44.2149 40.0868 43.9939 39.7499C43.9931 39.7485 43.9923 39.747 43.9915 39.7456C43.9893 39.7419 43.9872 39.7382 43.9851 39.7344C43.8098 39.4211 43.8468 38.9724 44.1191 38.3415C44.146 38.2791 44.1752 38.2149 44.2068 38.1488C44.2152 38.1313 44.2238 38.1136 44.2325 38.0957C44.2343 38.0921 44.2361 38.0884 44.2379 38.0847C44.2727 38.0139 44.3773 37.9785 44.4818 38.0139C44.5471 38.0471 44.5818 38.1425 44.5573 38.2418C44.5556 38.2485 44.5537 38.2552 44.5515 38.2619C44.5093 38.343 44.4708 38.4216 44.4362 38.4974C44.2156 38.9812 44.1529 39.3533 44.2704 39.5686C44.2712 39.5699 44.272 39.5713 44.2727 39.5727C44.2746 39.5758 44.2766 39.5789 44.2785 39.5819C44.4583 39.8561 44.9739 39.8561 45.353 39.8561C45.3648 39.8561 45.3764 39.8561 45.3879 39.8562C45.4783 39.8562 45.5597 39.8567 45.6318 39.8614C45.7944 39.8719 45.9106 39.9034 45.9803 39.9979C46.0152 40.0333 46.05 40.1396 45.9803 40.2459L44.9697 42.4778H52.3227L53.0894 40.7418C53.037 40.7285 52.9895 40.7102 52.9452 40.6888C52.9117 40.6726 52.88 40.6547 52.8492 40.6358C52.8134 40.6138 52.7789 40.5904 52.7443 40.567C52.7432 40.5663 52.7421 40.5655 52.7409 40.5647C52.7256 40.5561 52.7103 40.5475 52.6948 40.5388C52.3927 40.3705 52.0482 40.2052 51.4515 40.1041C51.4429 40.103 51.4344 40.1018 51.426 40.1007C51.4254 40.1006 51.4249 40.1005 51.4244 40.1004C51.232 40.0735 51.0788 40.0361 50.9573 39.9924C50.9219 39.9797 50.8893 39.9665 50.8591 39.9528C50.5737 39.8238 50.5106 39.6565 50.5106 39.5373C50.5106 39.5253 50.5113 39.5135 50.5127 39.5019C50.53 39.3538 50.6564 39.2371 50.8591 39.1573C51.016 39.0956 51.2185 39.0561 51.4515 39.0413C51.4631 39.0413 51.4747 39.0413 51.4864 39.0413C51.7536 39.0414 52.0222 39.0428 52.3227 39.0767C52.338 39.0767 52.3534 39.0769 52.369 39.0771C52.4698 39.0788 52.5763 39.0856 52.6886 39.0928C52.8356 39.1021 52.9924 39.1122 53.1591 39.1122C53.7611 39.1122 54.3309 39.0469 54.9919 38.9164C55.0197 38.9109 55.0476 38.9053 55.0758 38.8996C55.0773 38.8992 55.0789 38.8989 55.0804 38.8985C55.1753 38.8766 55.2671 38.8655 55.3545 38.8647C55.6496 38.862 55.8948 38.9759 56.041 39.1813C56.0462 39.1886 56.0513 39.196 56.0562 39.2036C56.0669 39.2198 56.0769 39.2366 56.0864 39.2539C56.2194 39.5581 56.162 39.9269 55.9142 40.2986C55.91 40.305 55.9057 40.3114 55.9013 40.3178C55.8935 40.3293 55.8855 40.3407 55.8773 40.3521C55.5636 40.671 55.0758 40.8836 54.3788 40.8836C54.1265 40.8836 53.9028 40.8546 53.6818 40.8228C53.6617 40.8199 53.6416 40.817 53.6216 40.8141C53.6184 40.8136 53.6153 40.8132 53.6121 40.8127L53.4379 40.8127L52.6364 42.5841L55.2152 46.1269C55.2271 46.1191 55.2391 46.1113 55.2511 46.1035C55.289 46.0791 55.3273 46.0554 55.366 46.0322C55.3667 46.0318 55.3674 46.0313 55.3681 46.0309C55.9263 45.6969 56.5695 45.4892 57.2712 45.4892C57.2828 45.4892 57.2945 45.4893 57.3061 45.4894C59.3461 45.5085 61 47.2014 61 49.2446C61 51.2994 59.3273 53 57.3061 53C55.3686 53 53.7958 51.4832 53.6225 49.5675C53.6188 49.5258 53.6157 49.4839 53.6132 49.4418C53.6128 49.4351 53.6125 49.4284 53.6121 49.4217H49.5C49.4303 49.4217 49.3955 49.3863 49.3606 49.3509L44.7258 42.9738L43.4015 45.9144ZM44.8279 43.9648L48.978 49.675L49.0041 49.7015C49.0056 49.703 49.0073 49.7047 49.0091 49.7066C49.0556 49.7545 49.2183 49.9217 49.5 49.9217H53.1637C53.4924 51.9351 55.2029 53.5 57.3061 53.5C59.6112 53.5 61.5 51.5678 61.5 49.2446C61.5 46.9184 59.6081 44.9892 57.2712 44.9892C56.569 44.9892 55.9225 45.1713 55.3531 45.4669L53.2119 42.5251L53.7494 41.337C53.9387 41.3621 54.1477 41.3836 54.3788 41.3836C55.1807 41.3836 55.8075 41.1361 56.2337 40.7028L56.2612 40.6749L56.2839 40.643C56.6266 40.164 56.7775 39.5865 56.5445 39.0536L56.5357 39.0334L56.5251 39.0141C56.2146 38.4459 55.5721 38.2724 54.9695 38.411C54.2998 38.5468 53.7433 38.6122 53.1591 38.6122C53.0198 38.6122 52.8858 38.6043 52.7465 38.5954C52.7367 38.5948 52.7268 38.5942 52.7168 38.5935C52.6003 38.5861 52.4737 38.578 52.3514 38.5769C52.0209 38.5413 51.7273 38.5413 51.4603 38.5413L51.4356 38.5413L51.4198 38.5423C51.1055 38.5623 50.795 38.6237 50.5454 38.7506C50.2989 38.8759 50.0106 39.1266 50.0106 39.5373C50.0106 39.7768 50.1139 40.0376 50.3713 40.2402C50.6044 40.4237 50.9376 40.5394 51.3764 40.5985C51.8884 40.6863 52.1763 40.8227 52.4419 40.9703L51.997 41.9778H45.745L46.4238 40.4785C46.5741 40.2146 46.5384 39.9115 46.3916 39.7117L46.4083 39.675H46.3626C46.204 39.4777 45.9906 39.4083 45.8286 39.3809C45.6815 39.356 45.5132 39.3561 45.3757 39.3561C45.3681 39.3561 45.3605 39.3561 45.353 39.3561C45.1521 39.3561 44.9709 39.3548 44.8215 39.3284C44.7689 39.319 44.7341 39.3089 44.7121 39.301C44.7122 39.2721 44.7159 39.2254 44.7309 39.1559C44.7659 38.9943 44.8493 38.7725 44.995 38.4928L45.0139 38.4565L45.0266 38.4177C45.1079 38.1697 45.0749 37.7545 44.7084 37.5682L44.6763 37.5519L44.6423 37.5403C44.3863 37.4536 43.9708 37.4948 43.7892 37.8641C43.4013 38.6527 43.2112 39.4074 43.5633 40.004L43.5693 40.0142L43.5758 40.024C43.8207 40.3974 44.2102 40.5466 44.5243 40.6115C44.6371 40.6348 44.7519 40.6496 44.8627 40.6589L44.1345 42.2613H44.0234L44.0917 42.3553L42.82 45.1535C42.4617 45.0501 42.0898 44.9892 41.6939 44.9892C39.3888 44.9892 37.5 46.9214 37.5 49.2446C37.5 51.6063 39.3919 53.5 41.6939 53.5C43.999 53.5 45.8879 51.5678 45.8879 49.2446C45.8879 47.7702 45.1565 46.4874 44.0382 45.7182L44.8279 43.9648ZM44.6866 38.3054C44.6867 38.3052 44.6864 38.3056 44.6866 38.3054ZM52.1833 42.7613L49.4303 48.8549L45.0045 42.7613H52.1833ZM51.4088 43.2613L49.329 47.8646L45.9857 43.2613H51.4088ZM52.497 42.9384L54.9712 46.3395C54.9641 46.3451 54.9571 46.3508 54.9501 46.3565C54.9188 46.3817 54.888 46.4075 54.8577 46.4338C54.85 46.4405 54.8423 46.4472 54.8347 46.4539C54.1449 47.0624 53.6895 47.9448 53.6196 48.9217C53.6168 48.962 53.6145 49.0025 53.613 49.043C53.6127 49.0512 53.6124 49.0593 53.6121 49.0675H49.7091L52.497 42.9384ZM52.5971 43.9259L50.4858 48.5675H53.156C53.2883 47.6813 53.7007 46.8786 54.3021 46.2697L52.5971 43.9259ZM55.8954 46.1602C56.3091 45.963 56.772 45.8488 57.2712 45.8437C57.2828 45.8436 57.2944 45.8435 57.3061 45.8435C59.153 45.8435 60.6515 47.3669 60.6515 49.2446C60.6515 51.1223 59.153 52.6457 57.3061 52.6457C55.6964 52.6457 54.344 51.4833 54.0256 49.9217C54.0019 49.8057 53.984 49.6875 53.972 49.5675C53.9673 49.5192 53.9634 49.4706 53.9606 49.4217H57.3061C57.3409 49.4217 57.4106 49.3509 57.4455 49.3155C57.4803 49.28 57.4803 49.2092 57.4455 49.1383L55.4591 46.4103C55.4994 46.383 55.5404 46.3565 55.582 46.3309C55.5823 46.3307 55.5826 46.3305 55.5829 46.3303C55.5835 46.3299 55.5842 46.3295 55.5849 46.3291C55.685 46.2676 55.7885 46.2111 55.8954 46.1602ZM54.5376 49.9217C54.8463 51.2098 55.9795 52.1457 57.3061 52.1457C58.8691 52.1457 60.1515 50.854 60.1515 49.2446C60.1515 47.6352 58.8691 46.3435 57.3061 46.3435C56.9052 46.3435 56.5325 46.4259 56.1958 46.5726L57.8751 48.8789L57.8941 48.9176C57.939 49.0089 57.9716 49.1195 57.9716 49.2402C57.9716 49.3184 57.9569 49.4207 57.9059 49.5215L57.9393 49.5675H57.8799C57.8587 49.6013 57.833 49.6345 57.8019 49.6661L57.7995 49.6686C57.7826 49.6857 57.7429 49.7262 57.699 49.7634C57.6762 49.7826 57.6399 49.8118 57.5951 49.8387C57.5671 49.8555 57.457 49.9217 57.3061 49.9217H54.5376ZM56.9576 49.0675H53.9606C53.964 49.0185 53.9684 48.97 53.9737 48.9217C53.9869 48.8014 54.0058 48.6832 54.0301 48.5675C54.1574 47.9624 54.4336 47.4237 54.8215 46.9796C54.8927 46.898 54.9678 46.8196 55.0463 46.7446C55.0537 46.7376 55.0612 46.7305 55.0686 46.7235C55.1051 46.6893 55.1423 46.6557 55.1803 46.6229L56.9576 49.0675ZM55.9759 48.5675L55.1243 47.3962C54.8515 47.7332 54.6512 48.1283 54.543 48.5675H55.9759ZM53.6818 40.4584H53.5773C53.5534 40.455 53.5303 40.4508 53.5076 40.4461C53.4839 40.4411 53.4607 40.4355 53.4379 40.4292C53.3539 40.4063 53.2749 40.3753 53.1915 40.3401C53.1705 40.3312 53.1492 40.3221 53.1275 40.3127C53.1229 40.3107 53.1184 40.3088 53.1138 40.3068C53.0652 40.2859 53.0144 40.264 52.9598 40.2418C52.95 40.2378 52.9401 40.2338 52.9301 40.2298C52.9138 40.2234 52.8973 40.2169 52.8803 40.2104C52.6982 40.1076 52.4808 39.9928 52.2009 39.8938C52.0062 39.8249 51.7812 39.7636 51.5167 39.7194C51.5121 39.7186 51.5075 39.7179 51.5028 39.7171C51.4974 39.7162 51.4919 39.7153 51.4864 39.7144C51.299 39.6851 51.1594 39.6498 51.06 39.6159C51.0389 39.6087 51.0197 39.6016 51.0022 39.5946C50.9495 39.5736 50.9126 39.5539 50.8894 39.5373C50.8688 39.5225 50.8591 39.5102 50.8591 39.5019C50.8667 39.5019 50.8792 39.4952 50.8987 39.4847C50.9587 39.4527 51.0851 39.3851 51.3396 39.3655C51.3745 39.3629 51.4117 39.3611 51.4515 39.3604C51.4582 39.3603 51.465 39.3602 51.4718 39.3602C51.4766 39.3602 51.4815 39.3601 51.4864 39.3601C51.5048 39.3601 51.5233 39.3603 51.5417 39.3606C51.5422 39.3606 51.5427 39.3606 51.5432 39.3606C51.6636 39.3626 51.7841 39.3702 51.9045 39.3779C52.0319 39.386 52.1593 39.3941 52.2867 39.3954C52.2875 39.3954 52.2882 39.3954 52.2889 39.3954C52.3002 39.3955 52.3114 39.3956 52.3227 39.3956C52.5667 39.431 52.8455 39.431 53.1591 39.431C53.8197 39.431 54.4457 39.3605 55.1408 39.2194C55.1423 39.2191 55.1439 39.2188 55.1455 39.2184C55.147 39.2177 55.1485 39.2169 55.15 39.2162C55.2182 39.183 55.2864 39.183 55.3545 39.183C55.5288 39.183 55.6682 39.2184 55.7379 39.3601C55.7451 39.3724 55.7515 39.3849 55.757 39.3978C55.7613 39.4076 55.765 39.4175 55.7683 39.4277C55.8224 39.5946 55.7503 39.811 55.5743 40.0541C55.5708 40.059 55.5672 40.0638 55.5636 40.0687C55.5548 40.0821 55.5456 40.0953 55.5361 40.1081C55.3191 40.3993 54.9129 40.5293 54.3788 40.5293C54.1631 40.5293 53.9474 40.5016 53.7557 40.4707C53.7307 40.4666 53.706 40.4625 53.6818 40.4584ZM53.5007 39.925C54.0634 39.9049 54.611 39.8352 55.1994 39.7176C55.1881 39.7346 55.1755 39.7527 55.1613 39.7719L55.1531 39.783L55.1455 39.7945C55.078 39.8975 54.8833 40.0293 54.3788 40.0293C54.1787 40.0293 53.9689 39.9999 53.7653 39.9654L53.7239 39.9584H53.6186C53.5818 39.9512 53.5444 39.9406 53.5007 39.925ZM43.2621 46.2332C43.2626 46.2335 43.2631 46.2337 43.2636 46.234C43.3075 46.2578 43.3508 46.2827 43.3936 46.3085C43.395 46.3093 43.3965 46.3102 43.3979 46.3111C43.4975 46.3714 43.594 46.437 43.6868 46.5075C44.5004 47.1252 45.0394 48.1197 45.0394 49.2446C45.0394 51.1223 43.5409 52.6457 41.6939 52.6457C39.847 52.6457 38.3485 51.1223 38.3833 49.2446C38.3833 47.3787 39.863 45.8627 41.6939 45.8437C41.7055 45.8436 41.7172 45.8435 41.7288 45.8435C41.9775 45.8435 42.2262 45.8811 42.4676 45.9414C42.5793 45.9693 42.6895 46.0021 42.7974 46.0382C42.7986 46.0386 42.7998 46.039 42.801 46.0394C42.8507 46.0561 42.8999 46.0735 42.9485 46.0915L41.6685 48.9217L41.668 48.923L41.5546 49.1736C41.4849 49.2799 41.5197 49.3863 41.6242 49.4217H41.6939C41.7472 49.4217 41.8004 49.4011 41.8381 49.3597C41.8498 49.347 41.8599 49.3322 41.8681 49.3156C41.8681 49.3155 41.8681 49.3156 41.8681 49.3156L43.2621 46.2332ZM42.2577 46.4056C42.0784 46.3661 41.9011 46.3435 41.7288 46.3435C40.1657 46.3435 38.8833 47.6352 38.8833 49.2446L38.8832 49.2539C38.8535 50.8543 40.1292 52.1457 41.6939 52.1457C43.257 52.1457 44.5394 50.854 44.5394 49.2446C44.5394 48.3239 44.1175 47.5068 43.4745 46.9769L42.3204 49.5289L42.3169 49.5361C42.1876 49.799 41.9296 49.9217 41.6939 49.9217H41.5418L41.4638 49.8953C41.2779 49.8323 41.1094 49.6857 41.0445 49.4658C40.9871 49.2713 41.0297 49.0852 41.1107 48.9418L42.2577 46.4056Z" fill="black"/>
</svg>
