<svg width="68" height="68" viewBox="0 0 68 68" fill="none" xmlns="http://www.w3.org/2000/svg">
<path fill-rule="evenodd" clip-rule="evenodd" d="M11.5 18.5625C11.5 14.9409 14.4409 12 18.0625 12C21.6841 12 24.625 14.9409 24.625 18.5625C24.625 22.1841 21.6841 25.125 18.0625 25.125C14.4409 25.125 11.5 22.1841 11.5 18.5625ZM22.75 18.5625C22.75 17.2617 22.2192 16.0841 21.3626 15.2346C21.1329 15.9844 20.875 17.1425 20.875 18.5624C20.875 19.9823 21.133 21.1405 21.3627 21.8904C22.2193 21.0409 22.75 19.8633 22.75 18.5625ZM19 18.5624C19 16.5861 19.4309 15.0357 19.7371 14.1834C19.217 13.9842 18.6524 13.875 18.0625 13.875C17.4726 13.875 16.908 13.9842 16.3878 14.1834C16.6941 15.0357 17.125 16.5861 17.125 18.5624C17.125 20.5388 16.694 22.0893 16.3878 22.9416C16.9079 23.1408 17.4725 23.25 18.0625 23.25C18.6525 23.25 19.2171 23.1408 19.7372 22.9416C19.431 22.0893 19 20.5388 19 18.5624ZM14.7623 21.8904C13.9057 21.0409 13.375 19.8633 13.375 18.5625C13.375 17.2617 13.9057 16.0841 14.7624 15.2346C14.992 15.9844 15.25 17.1425 15.25 18.5624C15.25 19.9823 14.992 21.1405 14.7623 21.8904ZM33.6419 16.6575C39.3597 10.9397 48.0644 10.4428 53.0603 15.4397C58.0572 20.4356 57.5603 29.1403 51.8425 34.8581C48.7799 37.9212 44.8603 39.4862 41.1126 39.5113C41.07 39.5156 41.0265 39.5171 40.9825 39.5155L40.846 39.5105C40.628 39.5077 40.4107 39.4996 40.1943 39.4863L38.4756 39.4227C34.6646 39.2821 30.9662 40.7343 28.27 43.4314L26.888 44.8126L27.1628 45.0874C27.5294 45.453 27.5294 46.0474 27.1628 46.413L24.3621 49.2137L24.3503 49.2258L24.3382 49.2377L17.7878 55.788C17.1147 56.4612 16.2016 56.8399 15.25 56.8399C14.2985 56.8399 13.3853 56.4612 12.7122 55.788C12.0391 55.1149 11.6603 54.2018 11.6603 53.2502C11.6603 52.2987 12.0391 51.3855 12.7122 50.7124L22.0872 41.3374C22.4528 40.9709 23.0472 40.9709 23.4128 41.3374L23.6874 41.612L25.0684 40.2303C27.7656 37.534 29.2178 33.8356 29.0771 30.0246L29.0133 28.2994C29.0003 28.0871 28.9925 27.8741 28.9896 27.6604L28.9843 27.5178C28.9827 27.4732 28.9842 27.4293 28.9887 27.3862C29.0141 23.6388 30.5791 19.7198 33.6419 16.6575ZM25.1744 45.7502L23.6874 47.2373L21.263 44.8129L22.75 43.3259L23.0163 43.5921L23.0246 43.6006L23.0331 43.6089L25.1744 45.7502ZM14.0378 52.038L19.9374 46.1385L22.3617 48.5629L16.4622 54.4624C16.1407 54.784 15.7047 54.9649 15.25 54.9649C14.7953 54.9649 14.3594 54.784 14.0378 54.4624C13.7163 54.1409 13.5353 53.7049 13.5353 53.2502C13.5353 52.7955 13.7163 52.3596 14.0378 52.038ZM25.5622 43.4868L26.9434 42.1049C29.101 39.9479 31.8224 38.4913 34.7555 37.8732C33.9242 37.3892 33.1473 36.7975 32.4435 36.0972C32.4366 36.0907 32.4298 36.0841 32.4231 36.0774C32.4164 36.0707 32.4098 36.0639 32.4033 36.057C31.7028 35.3531 31.1108 34.576 30.6267 33.7444C30.0087 36.6776 28.552 39.3991 26.395 41.5568L25.0132 42.9378L25.5622 43.4868ZM34.4439 35.3822C35.5822 36.3184 36.8952 36.9598 38.2976 37.3148L41.1119 34.5005L38.2187 31.6074L34.4439 35.3822ZM40.6375 37.6261L42.4375 35.8262L43.9075 37.2962C42.9784 37.5206 42.0418 37.638 41.1183 37.6463C41.0964 37.6439 41.0742 37.6423 41.0518 37.6415L40.6375 37.6261ZM43.7631 34.5005L45.9043 36.6417C47.3577 36.0358 48.7533 35.159 50.006 34.0197L47.125 31.1387L43.7631 34.5005ZM45.7994 29.813L42.4375 33.1749L39.5443 30.2818L42.9062 26.9199L45.7994 29.813ZM47.125 28.4874L44.2318 25.5943L47.5937 22.2324L50.4869 25.1255L47.125 28.4874ZM42.9062 24.2686L46.2681 20.9067L43.375 18.0136L40.0131 21.3755L42.9062 24.2686ZM44.7006 16.688L47.5937 19.5811L51.04 16.1348C49.8719 15.1738 48.5197 14.5234 47.0759 14.1745C47.0313 14.3075 46.9561 14.4325 46.8503 14.5383L44.7006 16.688ZM51.8125 23.7999L48.9194 20.9067L52.3656 17.4605C53.3265 18.6287 53.9768 19.9809 54.3257 21.4247C54.1928 21.4693 54.0679 21.5445 53.9622 21.6502L51.8125 23.7999ZM48.4506 29.813L51.8125 26.4511L53.8113 28.4499C53.2552 29.9376 52.4188 31.3751 51.3109 32.6733L48.4506 29.813ZM53.1381 25.1255L54.3977 26.3851C54.5782 25.4669 54.6542 24.5452 54.6238 23.6398L53.1381 25.1255ZM44.8611 13.8762L43.375 15.3624L42.1149 14.1023C43.0335 13.9217 43.9555 13.8457 44.8611 13.8762ZM40.0501 14.6887L42.0494 16.688L38.6875 20.0499L35.8267 17.1891C37.1249 16.0812 38.5624 15.2448 40.0501 14.6887ZM41.5806 25.5943L38.6875 22.7011L35.3256 26.063L38.2187 28.9561L41.5806 25.5943ZM37.3618 21.3755L34 24.7374L31.8583 22.5957C32.4642 21.1423 33.341 19.7467 34.4803 18.494L37.3618 21.3755ZM34 27.3886L36.8931 30.2818L33.1183 34.0566C32.1819 32.9184 31.5405 31.6055 31.1854 30.2032L34 27.3886ZM32.6743 26.063L31.2038 24.5925C30.9793 25.522 30.8619 26.4591 30.8536 27.3831C30.856 27.4046 30.8576 27.4264 30.8584 27.4484L30.8738 27.8636L32.6743 26.063Z" fill="black"/>
</svg>
