<svg width="68" height="68" viewBox="0 0 68 68" fill="none" xmlns="http://www.w3.org/2000/svg">
<path fill-rule="evenodd" clip-rule="evenodd" d="M15.4358 53.3042C8.82847 46.6968 12.0565 32.2716 22.4972 21.8309C27.087 17.241 33.3918 13.8617 39.9487 12.5503C46.1021 11.3398 51.3477 12.1468 53.9705 14.7696C56.5932 17.3924 57.4003 22.6379 56.1897 28.7913C54.8784 35.2474 51.499 41.653 46.9092 46.2429C36.418 56.6331 22.0432 59.9116 15.4358 53.3042ZM52.9617 15.7783C48.624 11.4407 33.3918 12.9538 23.5059 22.8397C13.7714 32.5742 10.4425 46.2933 16.3942 52.245C22.3459 58.1967 36.1154 54.9182 45.85 45.1837C50.2381 40.7956 53.5165 34.6926 54.7775 28.4887C55.8367 22.8901 55.181 17.9976 52.9617 15.7783ZM18.3613 50.3786C18.0587 50.076 18.0587 49.6725 18.3613 49.3698L27.5914 40.1397L25.3722 37.9205C25.0695 37.6178 25.0695 37.2143 25.3722 36.9117C25.6748 36.6091 26.0783 36.6091 26.3809 36.9117L28.6002 39.131L30.6681 37.0631L28.4488 34.8438C28.1462 34.5412 28.1462 34.1377 28.4488 33.8351C28.7514 33.5324 29.1549 33.5324 29.4576 33.8351L31.6768 36.0543L33.6944 34.0367L31.4752 31.8174C31.1726 31.5148 31.1726 31.1113 31.4752 30.8087C31.7778 30.5061 32.1813 30.5061 32.4839 30.8087L34.7032 33.0279L36.7205 31.0106L34.5014 28.7916C34.1988 28.4889 34.1988 28.0854 34.5014 27.7828C34.8041 27.4802 35.2076 27.4802 35.5102 27.7828L37.7293 30.0019L39.7468 27.9843L37.5277 25.7652C37.225 25.4626 37.225 25.0591 37.5277 24.7564C37.8303 24.4538 38.2338 24.4538 38.5364 24.7564L40.7556 26.9756L49.9859 17.7452C50.2885 17.4426 50.6921 17.4426 50.9947 17.7452C51.2973 18.0478 51.2973 18.4513 50.9947 18.754L41.7643 27.9843L43.9333 30.1533C44.2359 30.4559 44.2359 30.8594 43.9333 31.1621C43.6307 31.4647 43.2272 31.4647 42.9245 31.1621L40.7556 28.9931L38.738 31.0106L40.9071 33.1797C41.2097 33.4823 41.2097 33.8858 40.9071 34.1884C40.6044 34.4911 40.2009 34.4911 39.8983 34.1884L37.7293 32.0194L35.712 34.0367L37.8808 36.2056C38.1834 36.5082 38.1834 36.9117 37.8808 37.2143C37.5782 37.5169 37.1747 37.5169 36.872 37.2143L34.7032 35.0455L32.6856 37.0631L34.8544 39.2319C35.1571 39.5345 35.1571 39.938 34.8544 40.2407C34.5518 40.5433 34.1483 40.5433 33.8457 40.2407L31.6768 38.0718L29.6089 40.1397L31.7778 42.3086C32.0804 42.6112 32.0804 43.0147 31.7778 43.3173C31.4751 43.62 31.0716 43.62 30.769 43.3173L28.6002 41.1485L19.3196 50.429C19.0674 50.6812 18.6135 50.6308 18.3613 50.3786Z" fill="black"/>
<path d="M22.4972 21.8309L22.1436 21.4773L22.1436 21.4773L22.4972 21.8309ZM15.4358 53.3042L15.7894 52.9506L15.7894 52.9506L15.4358 53.3042ZM39.9487 12.5503L39.8522 12.0597L39.8506 12.06L39.9487 12.5503ZM53.9705 14.7696L54.324 14.416L54.324 14.416L53.9705 14.7696ZM56.1897 28.7913L56.6797 28.8909L56.6803 28.8879L56.1897 28.7913ZM46.9092 46.2429L47.261 46.5981L47.2627 46.5964L46.9092 46.2429ZM23.5059 22.8397L23.1524 22.4861L23.1524 22.4861L23.5059 22.8397ZM52.9617 15.7783L52.6082 16.1319L52.6082 16.1319L52.9617 15.7783ZM16.3942 52.245L16.7477 51.8914L16.7477 51.8914L16.3942 52.245ZM54.7775 28.4887L55.2675 28.5883L55.2688 28.5817L54.7775 28.4887ZM18.3613 49.3698L18.7149 49.7234L18.7149 49.7234L18.3613 49.3698ZM18.3613 50.3786L18.0078 50.7321L18.0078 50.7321L18.3613 50.3786ZM27.5914 40.1397L27.945 40.4933L28.2985 40.1397L27.945 39.7862L27.5914 40.1397ZM25.3722 37.9205L25.7257 37.5669L25.7257 37.5669L25.3722 37.9205ZM25.3722 36.9117L25.0186 36.5582L25.0186 36.5582L25.3722 36.9117ZM26.3809 36.9117L26.7345 36.5582L26.7345 36.5582L26.3809 36.9117ZM28.6002 39.131L28.2466 39.4845L28.6002 39.8381L28.9537 39.4845L28.6002 39.131ZM30.6681 37.0631L31.0216 37.4166L31.3752 37.0631L31.0216 36.7095L30.6681 37.0631ZM28.4488 34.8438L28.8024 34.4903L28.8024 34.4903L28.4488 34.8438ZM31.6768 36.0543L31.3233 36.4079L31.6768 36.7614L32.0304 36.4079L31.6768 36.0543ZM33.6944 34.0367L34.048 34.3903L34.4015 34.0367L34.048 33.6831L33.6944 34.0367ZM31.4752 31.8174L31.8287 31.4639L31.8287 31.4639L31.4752 31.8174ZM34.7032 33.0279L34.3496 33.3815L34.7032 33.735L35.0567 33.3815L34.7032 33.0279ZM36.7205 31.0106L37.0741 31.3642L37.4276 31.0106L37.0741 30.6571L36.7205 31.0106ZM34.5014 28.7916L34.855 28.438L34.855 28.438L34.5014 28.7916ZM34.5014 27.7828L34.855 28.1364L34.855 28.1364L34.5014 27.7828ZM35.5102 27.7828L35.1566 28.1364L35.1566 28.1364L35.5102 27.7828ZM37.7293 30.0019L37.3757 30.3554L37.7293 30.709L38.0828 30.3554L37.7293 30.0019ZM39.7468 27.9843L40.1004 28.3379L40.4539 27.9843L40.1004 27.6308L39.7468 27.9843ZM37.5277 25.7652L37.8812 25.4116L37.8812 25.4116L37.5277 25.7652ZM37.5277 24.7564L37.8812 25.11L37.8812 25.11L37.5277 24.7564ZM38.5364 24.7564L38.1829 25.11L38.1829 25.11L38.5364 24.7564ZM40.7556 26.9756L40.402 27.3291L40.7556 27.6827L41.1091 27.3291L40.7556 26.9756ZM49.9859 17.7452L50.3395 18.0988L50.3395 18.0988L49.9859 17.7452ZM50.9947 18.754L51.3482 19.1075L51.3482 19.1075L50.9947 18.754ZM41.7643 27.9843L41.4108 27.6308L41.0572 27.9843L41.4108 28.3379L41.7643 27.9843ZM43.9333 30.1533L43.5797 30.5069L43.5797 30.5069L43.9333 30.1533ZM43.9333 31.1621L43.5797 30.8085L43.5797 30.8085L43.9333 31.1621ZM42.9245 31.1621L42.571 31.5156L42.571 31.5156L42.9245 31.1621ZM40.7556 28.9931L41.1091 28.6395L40.7556 28.286L40.402 28.6395L40.7556 28.9931ZM38.738 31.0106L38.3845 30.6571L38.0309 31.0106L38.3845 31.3642L38.738 31.0106ZM39.8983 34.1884L39.5447 34.542L39.5447 34.542L39.8983 34.1884ZM37.7293 32.0194L38.0828 31.6658L37.7293 31.3123L37.3757 31.6658L37.7293 32.0194ZM35.712 34.0367L35.3584 33.6831L35.0048 34.0367L35.3584 34.3903L35.712 34.0367ZM37.8808 37.2143L38.2344 37.5679L38.2344 37.5679L37.8808 37.2143ZM36.872 37.2143L36.5185 37.5679L36.5185 37.5679L36.872 37.2143ZM34.7032 35.0455L35.0567 34.6919L34.7032 34.3384L34.3496 34.6919L34.7032 35.0455ZM32.6856 37.0631L32.332 36.7095L31.9785 37.0631L32.332 37.4166L32.6856 37.0631ZM34.8544 40.2407L35.208 40.5942L35.208 40.5942L34.8544 40.2407ZM33.8457 40.2407L33.4921 40.5942L33.4921 40.5942L33.8457 40.2407ZM31.6768 38.0718L32.0304 37.7183L31.6768 37.3647L31.3233 37.7183L31.6768 38.0718ZM29.6089 40.1397L29.2554 39.7862L28.9018 40.1397L29.2554 40.4933L29.6089 40.1397ZM28.6002 41.1485L28.9537 40.7949L28.6002 40.4414L28.2466 40.7949L28.6002 41.1485ZM19.3196 50.429L19.6732 50.7826L19.6732 50.7826L19.3196 50.429ZM22.1436 21.4773C16.864 26.7569 13.3948 33.0557 12.0856 38.8957C10.7791 44.7235 11.6108 50.1863 15.0823 53.6577L15.7894 52.9506C12.6535 49.8147 11.7955 44.7612 13.0614 39.1144C14.3245 33.4797 17.6897 27.3455 22.8507 22.1844L22.1436 21.4773ZM39.8506 12.06C33.1981 13.3905 26.8041 16.8168 22.1436 21.4773L22.8507 22.1844C27.3699 17.6653 33.5854 14.3329 40.0468 13.0406L39.8506 12.06ZM54.324 14.416C52.9141 13.0061 50.8352 12.1171 48.3612 11.7285C45.8829 11.3393 42.9729 11.4458 39.8522 12.0597L40.0452 13.0409C43.0779 12.4443 45.8674 12.3491 48.206 12.7164C50.5488 13.0844 52.4041 13.9103 53.6169 15.1231L54.324 14.416ZM56.6803 28.8879C57.2943 25.7671 57.4008 22.8572 57.0115 20.3789C56.6229 17.9049 55.734 15.826 54.324 14.416L53.6169 15.1231C54.8297 16.336 55.6557 18.1912 56.0236 20.534C56.391 22.8726 56.2957 25.6621 55.6991 28.6948L56.6803 28.8879ZM47.2627 46.5964C51.9245 41.9347 55.3495 35.4397 56.6797 28.8909L55.6997 28.6918C54.4072 35.0551 51.0736 41.3714 46.5556 45.8893L47.2627 46.5964ZM15.0823 53.6577C18.5542 57.1297 24.0049 57.9482 29.8261 56.6354C35.6592 55.3199 41.957 51.8511 47.261 46.5981L46.5573 45.8876C41.3702 51.0249 35.235 54.3904 29.6061 55.6599C23.9653 56.932 18.9248 56.0861 15.7894 52.9506L15.0823 53.6577ZM23.8595 23.1932C28.7231 18.3296 34.9082 15.5216 40.4086 14.4662C43.1582 13.9386 45.7212 13.8521 47.8487 14.1565C49.9871 14.4624 51.6309 15.1547 52.6082 16.1319L53.3153 15.4248C52.1236 14.2332 50.2368 13.488 47.9903 13.1666C45.7329 12.8436 43.0566 12.9399 40.2202 13.4841C34.5486 14.5724 28.1746 17.4638 23.1524 22.4861L23.8595 23.1932ZM16.7477 51.8914C13.9493 49.093 13.2676 44.3906 14.5537 39.0785C15.8351 33.7855 19.0509 28.0018 23.8595 23.1932L23.1524 22.4861C18.2264 27.4121 14.9105 33.3551 13.5818 38.8432C12.2577 44.3123 12.8873 49.4453 16.0406 52.5986L16.7477 51.8914ZM45.4964 44.8301C40.6885 49.638 34.8927 52.8413 29.5872 54.1104C24.2624 55.3841 19.5467 54.6904 16.7477 51.8914L16.0406 52.5986C19.1934 55.7513 24.3383 56.3942 29.8198 55.083C35.3206 53.7671 41.2769 50.4639 46.2035 45.5372L45.4964 44.8301ZM54.2875 28.3891C53.0459 34.4977 49.8144 40.5121 45.4964 44.8301L46.2035 45.5372C50.6617 41.079 53.9871 34.8874 55.2675 28.5883L54.2875 28.3891ZM52.6082 16.1319C53.6106 17.1343 54.3027 18.7907 54.6039 20.9358C54.9037 23.0711 54.808 25.6378 54.2862 28.3958L55.2688 28.5817C55.8062 25.741 55.9122 23.0622 55.5942 20.7967C55.2775 18.5412 54.5321 16.6416 53.3153 15.4248L52.6082 16.1319ZM18.0078 49.0163C17.7761 49.2479 17.6343 49.5472 17.6343 49.8742C17.6343 50.2012 17.7761 50.5005 18.0078 50.7321L18.7149 50.025C18.6439 49.9541 18.6343 49.9003 18.6343 49.8742C18.6343 49.8481 18.6439 49.7944 18.7149 49.7234L18.0078 49.0163ZM27.2379 39.7862L18.0077 49.0163L18.7149 49.7234L27.945 40.4933L27.2379 39.7862ZM25.0186 38.274L27.2379 40.4933L27.945 39.7862L25.7257 37.5669L25.0186 38.274ZM25.0186 36.5582C24.7869 36.7898 24.6452 37.0891 24.6452 37.4161C24.6452 37.7431 24.7869 38.0424 25.0186 38.274L25.7257 37.5669C25.6547 37.496 25.6452 37.4422 25.6452 37.4161C25.6452 37.39 25.6547 37.3362 25.7257 37.2653L25.0186 36.5582ZM26.7345 36.5582C26.5028 36.3265 26.2035 36.1847 25.8765 36.1847C25.5495 36.1847 25.2503 36.3265 25.0186 36.5582L25.7257 37.2653C25.7967 37.1943 25.8505 37.1847 25.8765 37.1847C25.9026 37.1847 25.9564 37.1943 26.0274 37.2653L26.7345 36.5582ZM28.9537 38.7774L26.7345 36.5582L26.0274 37.2653L28.2466 39.4845L28.9537 38.7774ZM30.3145 36.7095L28.2466 38.7774L28.9537 39.4845L31.0216 37.4166L30.3145 36.7095ZM28.0953 35.1974L30.3145 37.4166L31.0216 36.7095L28.8024 34.4903L28.0953 35.1974ZM28.0953 33.4815C27.8636 33.7132 27.7218 34.0124 27.7218 34.3394C27.7218 34.6664 27.8636 34.9657 28.0953 35.1974L28.8024 34.4903C28.7314 34.4193 28.7218 34.3655 28.7218 34.3394C28.7218 34.3134 28.7314 34.2596 28.8024 34.1886L28.0953 33.4815ZM29.8111 33.4815C29.5795 33.2498 29.2802 33.1081 28.9532 33.1081C28.6262 33.1081 28.3269 33.2498 28.0953 33.4815L28.8024 34.1886C28.8733 34.1176 28.9271 34.1081 28.9532 34.1081C28.9793 34.1081 29.0331 34.1176 29.104 34.1886L29.8111 33.4815ZM32.0304 35.7008L29.8111 33.4815L29.104 34.1886L31.3233 36.4079L32.0304 35.7008ZM33.3409 33.6831L31.3233 35.7008L32.0304 36.4079L34.048 34.3903L33.3409 33.6831ZM31.1216 32.171L33.3409 34.3903L34.048 33.6831L31.8287 31.4639L31.1216 32.171ZM31.1216 30.4551C30.89 30.6868 30.7482 30.9861 30.7482 31.3131C30.7482 31.6401 30.89 31.9393 31.1216 32.171L31.8287 31.4639C31.7578 31.3929 31.7482 31.3391 31.7482 31.3131C31.7482 31.287 31.7578 31.2332 31.8287 31.1622L31.1216 30.4551ZM32.8375 30.4551C32.6058 30.2235 32.3066 30.0817 31.9796 30.0817C31.6526 30.0817 31.3533 30.2235 31.1216 30.4551L31.8287 31.1622C31.8997 31.0913 31.9535 31.0817 31.9796 31.0817C32.0056 31.0817 32.0594 31.0913 32.1304 31.1622L32.8375 30.4551ZM35.0567 32.6744L32.8375 30.4551L32.1304 31.1622L34.3496 33.3815L35.0567 32.6744ZM36.3669 30.6571L34.3496 32.6744L35.0567 33.3815L37.0741 31.3642L36.3669 30.6571ZM34.1479 29.1451L36.3669 31.3642L37.0741 30.6571L34.855 28.438L34.1479 29.1451ZM34.1479 27.4293C33.9162 27.6609 33.7745 27.9602 33.7745 28.2872C33.7745 28.6142 33.9162 28.9135 34.1479 29.1451L34.855 28.438C34.784 28.367 34.7745 28.3133 34.7745 28.2872C34.7745 28.2611 34.784 28.2073 34.855 28.1364L34.1479 27.4293ZM35.8637 27.4293C35.6321 27.1976 35.3328 27.0558 35.0058 27.0558C34.6788 27.0558 34.3795 27.1976 34.1479 27.4293L34.855 28.1364C34.926 28.0654 34.9797 28.0558 35.0058 28.0558C35.0319 28.0558 35.0857 28.0654 35.1566 28.1364L35.8637 27.4293ZM38.0828 29.6483L35.8637 27.4293L35.1566 28.1364L37.3757 30.3554L38.0828 29.6483ZM39.3933 27.6308L37.3757 29.6483L38.0828 30.3554L40.1004 28.3379L39.3933 27.6308ZM40.1004 27.6308L37.8812 25.4116L37.1741 26.1188L39.3933 28.3379L40.1004 27.6308ZM37.8812 25.4116C37.8103 25.3407 37.8007 25.2869 37.8007 25.2608C37.8007 25.2347 37.8103 25.181 37.8812 25.11L37.1741 24.4029C36.9425 24.6345 36.8007 24.9338 36.8007 25.2608C36.8007 25.5878 36.9425 25.8871 37.1741 26.1188L37.8812 25.4116ZM37.8812 25.11C37.9522 25.039 38.006 25.0295 38.0321 25.0295C38.0581 25.0295 38.1119 25.039 38.1829 25.11L38.89 24.4029C38.6583 24.1712 38.359 24.0295 38.0321 24.0295C37.7051 24.0295 37.4058 24.1712 37.1741 24.4029L37.8812 25.11ZM38.1829 25.11L40.402 27.3291L41.1091 26.622L38.89 24.4029L38.1829 25.11ZM49.6324 17.3917L40.402 26.622L41.1091 27.3291L50.3395 18.0988L49.6324 17.3917ZM51.3482 17.3917C51.1166 17.16 50.8173 17.0182 50.4903 17.0182C50.1633 17.0182 49.864 17.16 49.6324 17.3917L50.3395 18.0988C50.4104 18.0278 50.4642 18.0182 50.4903 18.0182C50.5164 18.0182 50.5702 18.0278 50.6411 18.0988L51.3482 17.3917ZM51.3482 19.1075C51.5799 18.8759 51.7217 18.5766 51.7217 18.2496C51.7217 17.9226 51.5799 17.6233 51.3482 17.3917L50.6411 18.0988C50.7121 18.1697 50.7217 18.2235 50.7217 18.2496C50.7217 18.2757 50.7121 18.3294 50.6411 18.4004L51.3482 19.1075ZM42.1179 28.3379L51.3482 19.1075L50.6411 18.4004L41.4108 27.6308L42.1179 28.3379ZM41.4108 28.3379L43.5797 30.5069L44.2868 29.7998L42.1179 27.6308L41.4108 28.3379ZM43.5797 30.5069C43.6507 30.5778 43.6603 30.6316 43.6603 30.6577C43.6603 30.6838 43.6507 30.7375 43.5797 30.8085L44.2868 31.5156C44.5185 31.284 44.6603 30.9847 44.6603 30.6577C44.6603 30.3307 44.5185 30.0314 44.2868 29.7998L43.5797 30.5069ZM43.5797 30.8085C43.5088 30.8795 43.455 30.889 43.4289 30.889C43.4028 30.889 43.3491 30.8795 43.2781 30.8085L42.571 31.5156C42.8026 31.7473 43.1019 31.889 43.4289 31.889C43.7559 31.889 44.0552 31.7473 44.2868 31.5156L43.5797 30.8085ZM43.2781 30.8085L41.1091 28.6395L40.402 29.3466L42.571 31.5156L43.2781 30.8085ZM39.0916 31.3642L41.1091 29.3466L40.402 28.6395L38.3845 30.6571L39.0916 31.3642ZM41.2606 32.8261L39.0916 30.6571L38.3845 31.3642L40.5535 33.5332L41.2606 32.8261ZM41.2606 34.542C41.4923 34.3103 41.634 34.011 41.634 33.6841C41.634 33.3571 41.4923 33.0578 41.2606 32.8261L40.5535 33.5332C40.6245 33.6042 40.634 33.658 40.634 33.6841C40.634 33.7101 40.6245 33.7639 40.5535 33.8349L41.2606 34.542ZM39.5447 34.542C39.7764 34.7736 40.0757 34.9154 40.4027 34.9154C40.7297 34.9154 41.0289 34.7736 41.2606 34.542L40.5535 33.8349C40.4825 33.9058 40.4287 33.9154 40.4027 33.9154C40.3766 33.9154 40.3228 33.9058 40.2518 33.8349L39.5447 34.542ZM37.3757 32.3729L39.5447 34.542L40.2518 33.8349L38.0828 31.6658L37.3757 32.3729ZM36.0655 34.3903L38.0828 32.3729L37.3757 31.6658L35.3584 33.6831L36.0655 34.3903ZM38.2344 35.852L36.0655 33.6831L35.3584 34.3903L37.5273 36.5591L38.2344 35.852ZM38.2344 37.5679C38.466 37.3362 38.6078 37.0369 38.6078 36.7099C38.6078 36.3829 38.466 36.0837 38.2344 35.852L37.5273 36.5591C37.5982 36.6301 37.6078 36.6839 37.6078 36.7099C37.6078 36.736 37.5982 36.7898 37.5273 36.8608L38.2344 37.5679ZM36.5185 37.5679C36.7502 37.7995 37.0494 37.9413 37.3764 37.9413C37.7034 37.9413 38.0027 37.7995 38.2344 37.5679L37.5273 36.8608C37.4563 36.9317 37.4025 36.9413 37.3764 36.9413C37.3504 36.9413 37.2966 36.9317 37.2256 36.8608L36.5185 37.5679ZM34.3496 35.399L36.5185 37.5679L37.2256 36.8608L35.0567 34.6919L34.3496 35.399ZM33.0391 37.4166L35.0567 35.399L34.3496 34.6919L32.332 36.7095L33.0391 37.4166ZM35.208 38.8784L33.0391 36.7095L32.332 37.4166L34.5009 39.5855L35.208 38.8784ZM35.208 40.5942C35.4397 40.3626 35.5814 40.0633 35.5814 39.7363C35.5814 39.4093 35.4397 39.11 35.208 38.8784L34.5009 39.5855C34.5719 39.6564 34.5814 39.7102 34.5814 39.7363C34.5814 39.7624 34.5719 39.8162 34.5009 39.8871L35.208 40.5942ZM33.4921 40.5942C33.7238 40.8259 34.0231 40.9676 34.3501 40.9676C34.677 40.9676 34.9763 40.8259 35.208 40.5942L34.5009 39.8871C34.4299 39.9581 34.3761 39.9676 34.3501 39.9676C34.324 39.9676 34.2702 39.9581 34.1992 39.8871L33.4921 40.5942ZM31.3233 38.4254L33.4921 40.5942L34.1992 39.8871L32.0304 37.7183L31.3233 38.4254ZM29.9625 40.4933L32.0304 38.4254L31.3233 37.7183L29.2554 39.7862L29.9625 40.4933ZM32.1313 41.955L29.9625 39.7862L29.2554 40.4933L31.4242 42.6621L32.1313 41.955ZM32.1313 43.6709C32.363 43.4392 32.5047 43.1399 32.5047 42.813C32.5047 42.486 32.363 42.1867 32.1313 41.955L31.4242 42.6621C31.4952 42.7331 31.5047 42.7869 31.5047 42.813C31.5047 42.839 31.4952 42.8928 31.4242 42.9638L32.1313 43.6709ZM30.4155 43.6709C30.6471 43.9026 30.9464 44.0443 31.2734 44.0443C31.6004 44.0443 31.8997 43.9026 32.1313 43.6709L31.4242 42.9638C31.3533 43.0348 31.2995 43.0443 31.2734 43.0443C31.2473 43.0443 31.1935 43.0348 31.1226 42.9638L30.4155 43.6709ZM28.2466 41.502L30.4155 43.6709L31.1226 42.9638L28.9537 40.7949L28.2466 41.502ZM19.6732 50.7826L28.9537 41.502L28.2466 40.7949L18.9661 50.0755L19.6732 50.7826ZM18.0078 50.7321C18.2248 50.9492 18.5169 51.0711 18.8048 51.0917C19.0946 51.1124 19.4242 51.0315 19.6732 50.7826L18.9661 50.0755C18.9628 50.0787 18.9393 50.0987 18.8761 50.0942C18.811 50.0896 18.75 50.0602 18.7149 50.025L18.0078 50.7321Z" fill="black"/>
</svg>
