<svg width="68" height="68" viewBox="0 0 68 68" fill="none" xmlns="http://www.w3.org/2000/svg">
<path d="M51.3745 46.6391L51.4805 46.7452L48.7444 49.4804C48.4339 49.791 47.9309 49.791 47.6203 49.4804L47.143 49.0031C43.6402 51.6912 39.2565 53.2899 34.5 53.2899C29.7435 53.2899 25.3598 51.6912 21.857 49.0031L21.3797 49.4804C21.0691 49.791 20.5661 49.791 20.2555 49.4804L17.5194 46.7452L17.6255 46.6391L17.5194 46.7452C17.2089 46.4346 17.2089 45.9307 17.5194 45.6202L17.9955 45.143C15.3087 41.6402 13.71 37.2564 13.71 32.4999C13.71 27.7433 15.3087 23.3596 17.9955 19.8568L17.5194 19.3796L17.5193 19.3794M51.3745 46.6391L17.6255 18.3615C17.3735 18.6134 17.3735 19.0215 17.6255 19.2735L17.5193 19.3794M51.3745 46.6391L51.4805 46.7452C51.7911 46.4346 51.7911 45.9307 51.4805 45.6202L51.0044 45.143C53.6913 41.6402 55.29 37.2564 55.29 32.4999C55.29 27.7433 53.6913 23.3596 51.0044 19.8568L51.4805 19.3796C51.7911 19.069 51.7911 18.566 51.4805 18.2554L48.7446 15.5195L51.3745 46.6391ZM17.5193 19.3794C17.2089 19.0689 17.2089 18.5659 17.5194 18.2554L20.2553 15.5195L17.5193 19.3794ZM39.4975 23.6418L39.411 23.7277L39.4105 23.7283C39.1016 24.0388 39.1016 24.5423 39.4105 24.8528L39.4108 24.8531L42.1478 27.5888C42.4573 27.8999 42.9619 27.8995 43.2723 27.5891L43.2725 27.5889L43.3584 27.5027C44.1931 28.9781 44.67 30.6826 44.67 32.4999C44.67 34.3164 44.1931 36.0216 43.358 37.4975L43.272 37.4112L43.2718 37.411C42.9614 37.1006 42.4569 37.1002 42.1474 37.4113L39.4103 40.1471L39.41 40.1474C39.1011 40.4579 39.1011 40.9614 39.41 41.2719L39.4104 41.2723L39.4973 41.359C38.0221 42.193 36.3165 42.6699 34.5 42.6699C32.6835 42.6699 30.979 42.193 29.5023 41.3585L29.5891 41.2718L29.5895 41.2714C29.8984 40.961 29.8984 40.4575 29.5895 40.147L29.5892 40.1467L26.8521 37.4109C26.8521 37.4108 26.852 37.4107 26.8519 37.4107C26.5424 37.0998 26.038 37.1003 25.7277 37.4106L25.7275 37.4108L25.6416 37.4971C24.8068 36.0215 24.33 34.3163 24.33 32.4999C24.33 30.6825 24.8068 28.9781 25.642 27.5022L25.7279 27.5885L25.7281 27.5887C26.0385 27.899 26.5429 27.8995 26.8524 27.5886C26.8524 27.5886 26.8525 27.5885 26.8526 27.5884L29.5896 24.8526L29.5899 24.8523C29.8989 24.5418 29.8989 24.0383 29.5899 23.7278L29.5894 23.7273L29.503 23.6414C30.9792 22.8067 32.6836 22.3299 34.5 22.3299C36.3164 22.3299 38.022 22.8067 39.4975 23.6418ZM27.9019 40.7094L20.8174 47.794L19.2055 46.182L26.29 39.0967L27.9019 40.7094ZM27.902 24.2903L26.29 25.9031L19.2054 18.8177L20.8178 17.2049L27.902 24.2903ZM41.098 24.2899L48.1826 17.2045L49.7945 18.8172L42.71 25.9026L41.098 24.2899ZM48.1826 47.7944L41.098 40.7098L42.71 39.0971L49.7945 46.1825L48.1826 47.7944ZM28.3414 22.4806L22.9918 17.1314C26.1985 14.7257 30.1825 13.2999 34.5 13.2999C38.8174 13.2999 42.8015 14.7257 46.0082 17.1314L40.6586 22.4806C38.8669 21.3771 36.7575 20.7399 34.5 20.7399C32.2425 20.7399 30.133 21.3771 28.3414 22.4806ZM44.5189 26.3412L49.8684 20.9917C52.2746 24.1984 53.7 28.1824 53.7 32.4999C53.7 36.8173 52.2737 40.8013 49.8684 44.008L44.5188 38.6585C45.6232 36.8669 46.26 34.7582 46.26 32.4999C46.26 30.2415 45.6232 28.1321 44.5189 26.3412ZM34.5 44.2599C36.7575 44.2599 38.8669 43.6231 40.6586 42.5191L46.0082 47.8683C42.8015 50.2744 38.8175 51.6999 34.5 51.6999C30.1825 51.6999 26.1985 50.2744 22.9918 47.8683L28.3414 42.5191C30.133 43.6227 32.2425 44.2599 34.5 44.2599ZM19.1315 20.9917L24.4811 26.3412C23.3767 28.1321 22.74 30.2416 22.74 32.4999C22.74 34.7573 23.3767 36.8676 24.4811 38.6585L19.1315 44.0081C16.7254 40.8014 15.3 36.8173 15.3 32.4999C15.3 28.1824 16.7254 24.1984 19.1315 20.9917Z" fill="black" stroke="black" stroke-width="0.3"/>
</svg>
