<svg width="68" height="68" viewBox="0 0 68 68" fill="none" xmlns="http://www.w3.org/2000/svg">
<path fill-rule="evenodd" clip-rule="evenodd" d="M16.8476 31.1507C16.4237 30.8519 16.1719 30.3658 16.1719 29.8478C16.1719 27.913 16.1719 25.206 16.1902 23.6912C16.1902 22.8704 16.509 22.0815 17.0787 21.491C18.9203 19.6797 23.8601 16.1719 34.5 16.1719C45.1399 16.1719 50.0797 19.6797 51.9348 21.4783C52.5078 22.0719 52.8281 22.8656 52.8281 23.6912V29.8478C52.8281 30.3658 52.5763 30.8519 52.1524 31.1507C51.7284 31.4488 51.1866 31.5229 50.6981 31.3484C48.1704 30.4455 44.0872 28.9872 42.4185 28.392C41.9819 28.2358 41.7125 27.7983 41.7699 27.3385C41.7699 27.3385 41.7699 27.3377 41.7707 27.3377C41.9468 25.9224 41.5077 24.5 40.5642 23.4314C39.6207 22.362 38.2636 21.75 36.838 21.75H31.7986C30.483 21.75 29.2287 22.3094 28.3497 23.2896C27.4716 24.2689 27.0508 25.5758 27.1935 26.8843V26.8875C27.2723 27.6126 26.8428 28.2979 26.1551 28.5442C24.2944 29.2087 20.6352 30.5156 18.3019 31.3484C17.8134 31.5229 17.2716 31.4488 16.8476 31.1507ZM28.9219 34.5C28.9219 35.8203 27.8516 36.8906 26.5312 36.8906C25.2109 36.8906 24.1406 35.8203 24.1406 34.5C24.1406 33.1797 25.2109 32.1094 26.5312 32.1094C27.8516 32.1094 28.9219 33.1797 28.9219 34.5ZM34.5 36.8906C35.8203 36.8906 36.8906 35.8203 36.8906 34.5C36.8906 33.1797 35.8203 32.1094 34.5 32.1094C33.1797 32.1094 32.1094 33.1797 32.1094 34.5C32.1094 35.8203 33.1797 36.8906 34.5 36.8906ZM44.8594 34.5C44.8594 35.8203 43.7891 36.8906 42.4688 36.8906C41.1484 36.8906 40.0781 35.8203 40.0781 34.5C40.0781 33.1797 41.1484 32.1094 42.4688 32.1094C43.7891 32.1094 44.8594 33.1797 44.8594 34.5ZM26.5312 44.8594C27.8516 44.8594 28.9219 43.7891 28.9219 42.4688C28.9219 41.1484 27.8516 40.0781 26.5312 40.0781C25.2109 40.0781 24.1406 41.1484 24.1406 42.4688C24.1406 43.7891 25.2109 44.8594 26.5312 44.8594ZM36.8906 42.4688C36.8906 43.7891 35.8203 44.8594 34.5 44.8594C33.1797 44.8594 32.1094 43.7891 32.1094 42.4688C32.1094 41.1484 33.1797 40.0781 34.5 40.0781C35.8203 40.0781 36.8906 41.1484 36.8906 42.4688ZM42.4688 44.8594C43.7891 44.8594 44.8594 43.7891 44.8594 42.4688C44.8594 41.1484 43.7891 40.0781 42.4688 40.0781C41.1484 40.0781 40.0781 41.1484 40.0781 42.4688C40.0781 43.7891 41.1484 44.8594 42.4688 44.8594ZM28.9219 50.4375C28.9219 51.7578 27.8516 52.8281 26.5312 52.8281C25.2109 52.8281 24.1406 51.7578 24.1406 50.4375C24.1406 49.1172 25.2109 48.0469 26.5312 48.0469C27.8516 48.0469 28.9219 49.1172 28.9219 50.4375ZM34.5 52.8281C35.8203 52.8281 36.8906 51.7578 36.8906 50.4375C36.8906 49.1172 35.8203 48.0469 34.5 48.0469C33.1797 48.0469 32.1094 49.1172 32.1094 50.4375C32.1094 51.7578 33.1797 52.8281 34.5 52.8281ZM44.8594 50.4375C44.8594 51.7578 43.7891 52.8281 42.4688 52.8281C41.1484 52.8281 40.0781 51.7578 40.0781 50.4375C40.0781 49.1172 41.1484 48.0469 42.4688 48.0469C43.7891 48.0469 44.8594 49.1172 44.8594 50.4375Z" fill="black"/>
</svg>
