<svg width="68" height="68" viewBox="0 0 68 68" fill="none" xmlns="http://www.w3.org/2000/svg">
<mask id="path-1-outside-1" maskUnits="userSpaceOnUse" x="12.72" y="16.6331" width="42" height="34" fill="black">
<rect fill="white" x="12.72" y="16.6331" width="42" height="34"/>
<path fill-rule="evenodd" clip-rule="evenodd" d="M43.132 45.4541H51.216C52.377 45.4541 53.28 46.2711 53.28 47.3891C53.28 48.5071 52.377 49.3671 51.216 49.3671H43.046C42.186 49.3671 41.584 49.0661 41.24 48.4641L39.133 44.5081L33.5 34.5751L27.867 44.5511L25.76 48.5071C25.416 49.1091 24.814 49.4101 23.954 49.4101H15.784C14.623 49.4101 13.72 48.5501 13.72 47.4321C13.72 46.3141 14.623 45.4541 15.784 45.4541H23.868L27.179 43.9921L33.027 33.7151L24.169 18.0631L24.9 17.6331L33.5 32.8121L42.1 17.6331L42.831 18.0631L33.973 33.7151L39.821 43.9921L43.132 45.4541ZM23.954 48.5501C24.341 48.5501 24.642 48.4211 24.857 48.2491L26.534 45.2391L24.04 46.3141H15.784C15.096 46.3141 14.58 46.7871 14.58 47.4321C14.58 48.0771 15.096 48.5501 15.784 48.5501H23.954ZM43.046 48.5071H51.216C51.904 48.5071 52.42 48.0341 52.42 47.3891C52.42 46.7441 51.904 46.2711 51.216 46.2711H42.96L40.466 45.1961L42.143 48.2061C42.315 48.4211 42.616 48.5071 43.046 48.5071ZM31.8659 46.658H35.1339C35.5209 46.658 35.7789 46.959 35.7789 47.303V48.722C35.7789 49.066 35.4779 49.367 35.1339 49.367H31.8659C31.5219 49.367 31.2209 49.066 31.2209 48.722V47.303C31.2209 46.959 31.5219 46.658 31.8659 46.658ZM32.0379 48.507H34.9189V47.518H32.0379V48.507Z"/>
</mask>
<path fill-rule="evenodd" clip-rule="evenodd" d="M43.132 45.4541H51.216C52.377 45.4541 53.28 46.2711 53.28 47.3891C53.28 48.5071 52.377 49.3671 51.216 49.3671H43.046C42.186 49.3671 41.584 49.0661 41.24 48.4641L39.133 44.5081L33.5 34.5751L27.867 44.5511L25.76 48.5071C25.416 49.1091 24.814 49.4101 23.954 49.4101H15.784C14.623 49.4101 13.72 48.5501 13.72 47.4321C13.72 46.3141 14.623 45.4541 15.784 45.4541H23.868L27.179 43.9921L33.027 33.7151L24.169 18.0631L24.9 17.6331L33.5 32.8121L42.1 17.6331L42.831 18.0631L33.973 33.7151L39.821 43.9921L43.132 45.4541ZM23.954 48.5501C24.341 48.5501 24.642 48.4211 24.857 48.2491L26.534 45.2391L24.04 46.3141H15.784C15.096 46.3141 14.58 46.7871 14.58 47.4321C14.58 48.0771 15.096 48.5501 15.784 48.5501H23.954ZM43.046 48.5071H51.216C51.904 48.5071 52.42 48.0341 52.42 47.3891C52.42 46.7441 51.904 46.2711 51.216 46.2711H42.96L40.466 45.1961L42.143 48.2061C42.315 48.4211 42.616 48.5071 43.046 48.5071ZM31.8659 46.658H35.1339C35.5209 46.658 35.7789 46.959 35.7789 47.303V48.722C35.7789 49.066 35.4779 49.367 35.1339 49.367H31.8659C31.5219 49.367 31.2209 49.066 31.2209 48.722V47.303C31.2209 46.959 31.5219 46.658 31.8659 46.658ZM32.0379 48.507H34.9189V47.518H32.0379V48.507Z" fill="black"/>
<path d="M43.132 45.4541L42.93 45.9115L43.0265 45.9541H43.132V45.4541ZM41.24 48.4641L40.7987 48.6991L40.8022 48.7057L40.8058 48.7121L41.24 48.4641ZM39.133 44.5081L39.5744 44.2729L39.5679 44.2614L39.133 44.5081ZM33.5 34.5751L33.9349 34.3284L33.499 33.5598L33.0646 34.3292L33.5 34.5751ZM27.867 44.5511L27.4315 44.3051L27.4257 44.316L27.867 44.5511ZM25.76 48.5071L26.1941 48.7551L26.1978 48.7487L26.2013 48.7421L25.76 48.5071ZM23.868 45.4541V45.9541H23.9734L24.0699 45.9115L23.868 45.4541ZM27.179 43.9921L27.3809 44.4495L27.5319 44.3828L27.6135 44.2393L27.179 43.9921ZM33.027 33.7151L33.4615 33.9623L33.6019 33.7157L33.4621 33.4688L33.027 33.7151ZM24.169 18.0631L23.9155 17.6321L23.4916 17.8814L23.7338 18.3093L24.169 18.0631ZM24.9 17.6331L25.335 17.3866L25.0845 16.9444L24.6465 17.2021L24.9 17.6331ZM33.5 32.8121L33.0649 33.0585L33.5 33.8264L33.935 33.0585L33.5 32.8121ZM42.1 17.6331L42.3535 17.2021L41.9155 16.9444L41.6649 17.3866L42.1 17.6331ZM42.831 18.0631L43.2661 18.3093L43.5083 17.8814L43.0845 17.6321L42.831 18.0631ZM33.973 33.7151L33.5378 33.4688L33.3981 33.7157L33.5384 33.9623L33.973 33.7151ZM39.821 43.9921L39.3864 44.2393L39.468 44.3828L39.619 44.4495L39.821 43.9921ZM24.857 48.2491L25.1693 48.6395L25.246 48.5782L25.2938 48.4924L24.857 48.2491ZM26.534 45.2391L26.9708 45.4824L27.6864 44.1978L26.3361 44.7799L26.534 45.2391ZM24.04 46.3141V46.8141H24.1431L24.2379 46.7732L24.04 46.3141ZM42.96 46.2711L42.7621 46.7302L42.8568 46.7711H42.96V46.2711ZM40.466 45.1961L40.6639 44.7369L39.3135 44.1548L40.0292 45.4394L40.466 45.1961ZM42.143 48.2061L41.7062 48.4494L41.7265 48.4858L41.7525 48.5184L42.143 48.2061ZM34.9189 48.507V49.007H35.4189V48.507H34.9189ZM32.0379 48.507H31.5379V49.007H32.0379V48.507ZM34.9189 47.518H35.4189V47.018H34.9189V47.518ZM32.0379 47.518V47.018H31.5379V47.518H32.0379ZM51.216 44.9541H43.132V45.9541H51.216V44.9541ZM53.78 47.3891C53.78 45.9602 52.617 44.9541 51.216 44.9541V45.9541C52.1369 45.9541 52.78 46.582 52.78 47.3891H53.78ZM51.216 49.8671C52.6319 49.8671 53.78 48.8039 53.78 47.3891H52.78C52.78 48.2102 52.122 48.8671 51.216 48.8671V49.8671ZM43.046 49.8671H51.216V48.8671H43.046V49.8671ZM40.8058 48.7121C41.2614 49.5093 42.057 49.8671 43.046 49.8671V48.8671C42.3149 48.8671 41.9066 48.6228 41.6741 48.216L40.8058 48.7121ZM38.6917 44.7431L40.7987 48.6991L41.6813 48.229L39.5743 44.273L38.6917 44.7431ZM33.065 34.8217L38.698 44.7547L39.5679 44.2614L33.9349 34.3284L33.065 34.8217ZM28.3024 44.7969L33.9354 34.8209L33.0646 34.3292L27.4316 44.3052L28.3024 44.7969ZM26.2013 48.7421L28.3083 44.7861L27.4257 44.316L25.3187 48.272L26.2013 48.7421ZM23.954 49.9101C24.9429 49.9101 25.7386 49.5523 26.1941 48.7551L25.3258 48.259C25.0934 48.6658 24.685 48.9101 23.954 48.9101V49.9101ZM15.784 49.9101H23.954V48.9101H15.784V49.9101ZM13.22 47.4321C13.22 48.8469 14.368 49.9101 15.784 49.9101V48.9101C14.8779 48.9101 14.22 48.2532 14.22 47.4321H13.22ZM15.784 44.9541C14.368 44.9541 13.22 46.0172 13.22 47.4321H14.22C14.22 46.6109 14.8779 45.9541 15.784 45.9541V44.9541ZM23.868 44.9541H15.784V45.9541H23.868V44.9541ZM26.977 43.5347L23.666 44.9967L24.0699 45.9115L27.3809 44.4495L26.977 43.5347ZM32.5924 33.4678L26.7444 43.7448L27.6135 44.2393L33.4615 33.9623L32.5924 33.4678ZM23.7338 18.3093L32.5918 33.9613L33.4621 33.4688L24.6041 17.8168L23.7338 18.3093ZM24.6465 17.2021L23.9155 17.6321L24.4225 18.494L25.1535 18.064L24.6465 17.2021ZM33.935 32.5656L25.335 17.3866L24.4649 17.8795L33.0649 33.0585L33.935 32.5656ZM41.6649 17.3866L33.0649 32.5656L33.935 33.0585L42.535 17.8795L41.6649 17.3866ZM43.0845 17.6321L42.3535 17.2021L41.8465 18.064L42.5775 18.494L43.0845 17.6321ZM34.4081 33.9613L43.2661 18.3093L42.3958 17.8168L33.5378 33.4688L34.4081 33.9613ZM40.2555 43.7448L34.4075 33.4678L33.5384 33.9623L39.3864 44.2393L40.2555 43.7448ZM43.3339 44.9967L40.0229 43.5347L39.619 44.4495L42.93 45.9115L43.3339 44.9967ZM24.5446 47.8586C24.4151 47.9622 24.2235 48.0501 23.954 48.0501V49.0501C24.4585 49.0501 24.8688 48.8799 25.1693 48.6395L24.5446 47.8586ZM26.0972 44.9957L24.4202 48.0057L25.2938 48.4924L26.9708 45.4824L26.0972 44.9957ZM24.2379 46.7732L26.7319 45.6982L26.3361 44.7799L23.8421 45.8549L24.2379 46.7732ZM15.784 46.8141H24.04V45.8141H15.784V46.8141ZM15.08 47.4321C15.08 47.0992 15.3347 46.8141 15.784 46.8141V45.8141C14.8572 45.8141 14.08 46.4749 14.08 47.4321H15.08ZM15.784 48.0501C15.3347 48.0501 15.08 47.7649 15.08 47.4321H14.08C14.08 48.3892 14.8572 49.0501 15.784 49.0501V48.0501ZM23.954 48.0501H15.784V49.0501H23.954V48.0501ZM51.216 48.0071H43.046V49.0071H51.216V48.0071ZM51.92 47.3891C51.92 47.7219 51.6652 48.0071 51.216 48.0071V49.0071C52.1427 49.0071 52.92 48.3462 52.92 47.3891H51.92ZM51.216 46.7711C51.6652 46.7711 51.92 47.0562 51.92 47.3891H52.92C52.92 46.4319 52.1427 45.7711 51.216 45.7711V46.7711ZM42.96 46.7711H51.216V45.7711H42.96V46.7711ZM40.2681 45.6552L42.7621 46.7302L43.1579 45.8119L40.6639 44.7369L40.2681 45.6552ZM42.5798 47.9627L40.9028 44.9527L40.0292 45.4394L41.7062 48.4494L42.5798 47.9627ZM43.046 48.0071C42.6524 48.0071 42.5564 47.9225 42.5334 47.8937L41.7525 48.5184C42.0735 48.9196 42.5795 49.0071 43.046 49.0071V48.0071ZM35.1339 46.158H31.8659V47.158H35.1339V46.158ZM36.2789 47.303C36.2789 46.705 35.8188 46.158 35.1339 46.158V47.158C35.1911 47.158 35.2216 47.1775 35.2399 47.1967C35.2615 47.2193 35.2789 47.2558 35.2789 47.303H36.2789ZM36.2789 48.722V47.303H35.2789V48.722H36.2789ZM35.1339 49.867C35.7541 49.867 36.2789 49.3421 36.2789 48.722H35.2789C35.2789 48.7468 35.2672 48.7846 35.2319 48.8199C35.1966 48.8552 35.1588 48.867 35.1339 48.867V49.867ZM31.8659 49.867H35.1339V48.867H31.8659V49.867ZM30.7209 48.722C30.7209 49.3421 31.2458 49.867 31.8659 49.867V48.867C31.8411 48.867 31.8033 48.8552 31.768 48.8199C31.7327 48.7846 31.7209 48.7468 31.7209 48.722H30.7209ZM30.7209 47.303V48.722H31.7209V47.303H30.7209ZM31.8659 46.158C31.2458 46.158 30.7209 46.6828 30.7209 47.303H31.7209C31.7209 47.2781 31.7327 47.2403 31.768 47.205C31.8033 47.1697 31.8411 47.158 31.8659 47.158V46.158ZM34.9189 48.007H32.0379V49.007H34.9189V48.007ZM34.4189 47.518V48.507H35.4189V47.518H34.4189ZM32.0379 48.018H34.9189V47.018H32.0379V48.018ZM32.5379 48.507V47.518H31.5379V48.507H32.5379Z" fill="black" mask="url(#path-1-outside-1)"/>
</svg>
