<svg width="68" height="68" viewBox="0 0 68 68" fill="none" xmlns="http://www.w3.org/2000/svg">
<path d="M21.7539 55.9905C21.4897 55.9903 21.2322 55.9077 21.0171 55.7542C20.8021 55.6007 20.6403 55.3839 20.5544 55.1342C20.4684 54.8844 20.4625 54.6139 20.5374 54.3606C20.6124 54.1073 20.7645 53.8837 20.9726 53.7209L46.1875 34.0002L20.9707 14.2737C20.8339 14.173 20.7187 14.046 20.6318 13.9001C20.545 13.7541 20.4884 13.5922 20.4652 13.424C20.4421 13.2558 20.4529 13.0846 20.4971 12.9206C20.5413 12.7567 20.6179 12.6032 20.7225 12.4694C20.827 12.3356 20.9574 12.2241 21.1058 12.1415C21.2542 12.059 21.4176 12.007 21.5865 11.9888C21.7553 11.9705 21.9261 11.9864 22.0887 12.0353C22.2513 12.0842 22.4025 12.1653 22.5332 12.2737L49.0293 33.0002C49.1814 33.1188 49.3046 33.2704 49.3892 33.4437C49.4739 33.617 49.5179 33.8074 49.5179 34.0002C49.5179 34.1931 49.4739 34.3834 49.3892 34.5567C49.3046 34.73 49.1814 34.8817 49.0293 35.0002L22.5351 55.7209C22.3123 55.8958 22.0372 55.9907 21.7539 55.9905Z" fill="black"/>
</svg>
