<svg width="68" height="68" viewBox="0 0 68 68" fill="none" xmlns="http://www.w3.org/2000/svg">
<path d="M34 14.285C23.1177 14.285 14.285 23.1177 14.285 34C14.285 44.8823 23.1177 53.715 34 53.715C44.8823 53.715 53.715 44.8823 53.715 34C53.715 23.1177 44.8823 14.285 34 14.285ZM34 15.715C44.1044 15.715 52.285 23.8956 52.285 34C52.285 44.1044 44.1044 52.285 34 52.285C23.8956 52.285 15.715 44.1044 15.715 34C15.715 23.8956 23.8956 15.715 34 15.715ZM34 19.785C33.6051 19.785 33.285 20.1051 33.285 20.5V34C33.285 34.2818 33.456 34.4937 33.6581 34.608C36.304 36.1725 39.0364 37.7449 41.7517 39.3075C42.6612 39.8309 43.5688 40.3532 44.4706 40.8737C44.8147 41.0723 45.2555 40.9473 45.4518 40.6075C45.6506 40.2634 45.5254 39.8225 45.1856 39.6263C45.1856 39.6263 45.1856 39.6263 45.1856 39.6263L34.715 33.579V20.5C34.715 20.1051 34.3949 19.785 34 19.785Z" fill="black" stroke="black" stroke-width="0.43"/>
</svg>
