<svg width="68" height="68" viewBox="0 0 68 68" fill="none" xmlns="http://www.w3.org/2000/svg">
<mask id="path-1-outside-1" maskUnits="userSpaceOnUse" x="15" y="11.5741" width="44" height="39" fill="black">
<rect fill="white" x="15" y="11.5741" width="44" height="39"/>
<path fill-rule="evenodd" clip-rule="evenodd" d="M51.0414 27.0858L48.1834 27.2101C45.6982 27.2101 43.0888 27.4586 43.0888 30.5651V35.1627C43.0888 37.1509 44.5799 38.642 46.4438 38.642H50.6686C51.4142 38.642 52.0355 39.2633 52.0355 40.0089V46.0976C52.0355 46.8432 51.4142 47.4645 50.6686 47.4645H19.4793C18.7337 47.4645 18.1124 46.8432 18.1124 46.0976V19.7544C18.1124 19.0089 18.7337 18.3876 19.4793 18.3876H30.9112L26.9349 20.2515H21.2189C20.5976 20.2515 20.1006 20.7485 20.1006 21.3698C20.1006 21.8669 20.5976 22.3639 21.2189 22.3639H52.0355V25.8432C52.0355 26.4645 51.5385 26.9615 51.0414 27.0858ZM45.4497 20.2515H31.7811L42.8402 15.0325L45.4497 20.2515ZM52.0355 20.2515H47.8107L46.8166 18.3876H50.6686C51.4142 18.3876 52.0355 19.0089 52.0355 19.7544V20.2515ZM50.6686 16.2751H45.8225L44.3314 13.1686C44.0828 12.6716 43.4615 12.4231 42.9645 12.6716L35.2604 16.2751H19.4793C17.6154 16.2751 16 17.8905 16 19.7544V46.0976C16 47.9615 17.6154 49.4527 19.4793 49.4527H50.6686C52.5325 49.4527 54.0237 47.9615 54.0237 46.0976V40.0089C54.0237 39.5118 54.0237 39.0148 53.7752 38.642H54.5207C56.3846 38.642 58 37.0266 58 35.1627V30.5651C58 28.7012 56.3846 27.2101 54.5207 27.2101H53.7752C54.0237 26.713 54.0237 26.3402 54.0237 25.8432V19.7544C54.0237 17.8905 52.5325 16.2751 50.6686 16.2751ZM46.4438 29.3225H54.5207C55.2663 29.3225 55.8876 29.8195 55.8876 30.5651V35.1627C55.8876 35.9083 55.2663 36.5296 54.5207 36.5296H46.4438C45.6982 36.5296 45.2012 35.9083 45.2012 35.1627V30.5651C45.2012 29.8195 45.6982 29.3225 46.4438 29.3225ZM37.9806 34.4378C38.4397 34.7426 38.6974 35.2311 38.6679 35.7935C38.6384 36.356 38.3214 36.8334 37.8635 37.0849L26.6028 42.9687C26.3891 43.0914 26.1323 43.0796 25.9303 42.9455C25.8936 42.9212 25.8385 42.8846 25.7956 42.8296C25.5873 42.5855 25.5805 42.2371 25.7696 41.9922L30.5012 35.8214L28.206 34.2977C27.7837 34.0173 27.5322 33.5593 27.5129 33.0703C27.4936 32.5813 27.7127 32.0919 28.0973 31.7916L35.7695 25.7741C36.2883 25.3513 37.0156 25.3316 37.5665 25.6973L40.4493 27.6112C40.8716 27.8916 41.1231 28.3495 41.1424 28.8385C41.1617 29.3275 40.9426 29.817 40.558 30.1172L36.4015 33.3894L37.9806 34.4378ZM28.6151 40.4158L37.2316 35.9247C37.3171 35.8756 37.3353 35.8083 37.3413 35.7594C37.3473 35.7105 37.3288 35.6188 37.237 35.5579L34.8867 33.9975C34.7215 33.8878 34.5866 33.6925 34.5923 33.4846C34.598 33.2768 34.6832 33.0688 34.848 32.9401L39.7308 29.0919C39.8082 29.0475 39.8154 28.9782 39.8206 28.9292C39.8211 28.924 39.8216 28.9191 39.8222 28.9144C39.816 28.8839 39.7975 28.7922 39.7241 28.7434L36.8229 26.8174C36.7494 26.7686 36.6394 26.7749 36.5723 26.8362L28.9001 32.8537C28.8228 32.8981 28.8155 32.9673 28.8104 33.0164C28.8098 33.0215 28.8093 33.0265 28.8087 33.0312C28.8149 33.0617 28.8334 33.1534 28.9069 33.2021L31.7897 35.116C31.9366 35.2135 32.0469 35.3661 32.0839 35.5494C32.1209 35.7328 32.0785 35.9162 31.9626 36.0509L28.6151 40.4158Z"/>
</mask>
<path fill-rule="evenodd" clip-rule="evenodd" d="M51.0414 27.0858L48.1834 27.2101C45.6982 27.2101 43.0888 27.4586 43.0888 30.5651V35.1627C43.0888 37.1509 44.5799 38.642 46.4438 38.642H50.6686C51.4142 38.642 52.0355 39.2633 52.0355 40.0089V46.0976C52.0355 46.8432 51.4142 47.4645 50.6686 47.4645H19.4793C18.7337 47.4645 18.1124 46.8432 18.1124 46.0976V19.7544C18.1124 19.0089 18.7337 18.3876 19.4793 18.3876H30.9112L26.9349 20.2515H21.2189C20.5976 20.2515 20.1006 20.7485 20.1006 21.3698C20.1006 21.8669 20.5976 22.3639 21.2189 22.3639H52.0355V25.8432C52.0355 26.4645 51.5385 26.9615 51.0414 27.0858ZM45.4497 20.2515H31.7811L42.8402 15.0325L45.4497 20.2515ZM52.0355 20.2515H47.8107L46.8166 18.3876H50.6686C51.4142 18.3876 52.0355 19.0089 52.0355 19.7544V20.2515ZM50.6686 16.2751H45.8225L44.3314 13.1686C44.0828 12.6716 43.4615 12.4231 42.9645 12.6716L35.2604 16.2751H19.4793C17.6154 16.2751 16 17.8905 16 19.7544V46.0976C16 47.9615 17.6154 49.4527 19.4793 49.4527H50.6686C52.5325 49.4527 54.0237 47.9615 54.0237 46.0976V40.0089C54.0237 39.5118 54.0237 39.0148 53.7752 38.642H54.5207C56.3846 38.642 58 37.0266 58 35.1627V30.5651C58 28.7012 56.3846 27.2101 54.5207 27.2101H53.7752C54.0237 26.713 54.0237 26.3402 54.0237 25.8432V19.7544C54.0237 17.8905 52.5325 16.2751 50.6686 16.2751ZM46.4438 29.3225H54.5207C55.2663 29.3225 55.8876 29.8195 55.8876 30.5651V35.1627C55.8876 35.9083 55.2663 36.5296 54.5207 36.5296H46.4438C45.6982 36.5296 45.2012 35.9083 45.2012 35.1627V30.5651C45.2012 29.8195 45.6982 29.3225 46.4438 29.3225ZM37.9806 34.4378C38.4397 34.7426 38.6974 35.2311 38.6679 35.7935C38.6384 36.356 38.3214 36.8334 37.8635 37.0849L26.6028 42.9687C26.3891 43.0914 26.1323 43.0796 25.9303 42.9455C25.8936 42.9212 25.8385 42.8846 25.7956 42.8296C25.5873 42.5855 25.5805 42.2371 25.7696 41.9922L30.5012 35.8214L28.206 34.2977C27.7837 34.0173 27.5322 33.5593 27.5129 33.0703C27.4936 32.5813 27.7127 32.0919 28.0973 31.7916L35.7695 25.7741C36.2883 25.3513 37.0156 25.3316 37.5665 25.6973L40.4493 27.6112C40.8716 27.8916 41.1231 28.3495 41.1424 28.8385C41.1617 29.3275 40.9426 29.817 40.558 30.1172L36.4015 33.3894L37.9806 34.4378ZM28.6151 40.4158L37.2316 35.9247C37.3171 35.8756 37.3353 35.8083 37.3413 35.7594C37.3473 35.7105 37.3288 35.6188 37.237 35.5579L34.8867 33.9975C34.7215 33.8878 34.5866 33.6925 34.5923 33.4846C34.598 33.2768 34.6832 33.0688 34.848 32.9401L39.7308 29.0919C39.8082 29.0475 39.8154 28.9782 39.8206 28.9292C39.8211 28.924 39.8216 28.9191 39.8222 28.9144C39.816 28.8839 39.7975 28.7922 39.7241 28.7434L36.8229 26.8174C36.7494 26.7686 36.6394 26.7749 36.5723 26.8362L28.9001 32.8537C28.8228 32.8981 28.8155 32.9673 28.8104 33.0164C28.8098 33.0215 28.8093 33.0265 28.8087 33.0312C28.8149 33.0617 28.8334 33.1534 28.9069 33.2021L31.7897 35.116C31.9366 35.2135 32.0469 35.3661 32.0839 35.5494C32.1209 35.7328 32.0785 35.9162 31.9626 36.0509L28.6151 40.4158Z" fill="black"/>
<path d="M48.1834 27.2101V27.4102L48.1921 27.4099L48.1834 27.2101ZM51.0414 27.0858L51.0501 27.2856L51.0703 27.2847L51.0899 27.2798L51.0414 27.0858ZM30.9112 18.3876L30.9961 18.5687L30.9112 18.1876V18.3876ZM26.9349 20.2515V20.4515H26.9795L27.0198 20.4326L26.9349 20.2515ZM52.0355 22.3639H52.2355V22.1639H52.0355V22.3639ZM31.7811 20.2515L31.6957 20.0706L31.7811 20.4515V20.2515ZM45.4497 20.2515V20.4515H45.7733L45.6286 20.162L45.4497 20.2515ZM42.8402 15.0325L43.0191 14.9431L42.9317 14.7682L42.7549 14.8517L42.8402 15.0325ZM47.8107 20.2515L47.6342 20.3456L47.6907 20.4515H47.8107V20.2515ZM52.0355 20.2515V20.4515H52.2355V20.2515H52.0355ZM46.8166 18.3876V18.1876H46.4832L46.6401 18.4817L46.8166 18.3876ZM45.8225 16.2751L45.6422 16.3617L45.6966 16.4751H45.8225V16.2751ZM44.3314 13.1686L44.5117 13.0821L44.5102 13.0792L44.3314 13.1686ZM42.9645 12.6716L43.0493 12.8528L43.0539 12.8505L42.9645 12.6716ZM35.2604 16.2751V16.4751H35.3048L35.3451 16.4563L35.2604 16.2751ZM53.7752 38.642V38.442H53.4014L53.6087 38.7529L53.7752 38.642ZM53.7752 27.2101L53.5963 27.1206L53.4515 27.4101H53.7752V27.2101ZM38.6679 35.7935L38.4681 35.7831L38.4681 35.7831L38.6679 35.7935ZM37.9806 34.4378L37.87 34.6044L37.87 34.6044L37.9806 34.4378ZM37.8635 37.0849L37.9561 37.2622L37.9597 37.2602L37.8635 37.0849ZM26.6028 42.9687L26.5101 42.7913L26.5032 42.7952L26.6028 42.9687ZM25.9303 42.9455L25.8197 43.1122L25.8197 43.1122L25.9303 42.9455ZM25.7956 42.8296L25.9534 42.7064L25.9477 42.6998L25.7956 42.8296ZM25.7696 41.9922L25.9279 42.1145L25.9283 42.1139L25.7696 41.9922ZM30.5012 35.8214L30.6599 35.9431L30.7902 35.7732L30.6118 35.6548L30.5012 35.8214ZM28.206 34.2977L28.0954 34.4643L28.0954 34.4643L28.206 34.2977ZM27.5129 33.0703L27.313 33.0782L27.313 33.0782L27.5129 33.0703ZM28.0973 31.7916L28.2204 31.9493L28.2207 31.949L28.0973 31.7916ZM35.7695 25.7741L35.8929 25.9315L35.8958 25.9291L35.7695 25.7741ZM37.5665 25.6973L37.4559 25.8639L37.4559 25.8639L37.5665 25.6973ZM40.4493 27.6112L40.5599 27.4446L40.5599 27.4446L40.4493 27.6112ZM41.1424 28.8385L40.9426 28.8464L40.9426 28.8464L41.1424 28.8385ZM40.558 30.1172L40.435 29.9596L40.4343 29.9601L40.558 30.1172ZM36.4015 33.3894L36.2778 33.2323L36.0607 33.4032L36.2909 33.5561L36.4015 33.3894ZM37.2316 35.9247L37.3241 36.1022L37.3312 36.0981L37.2316 35.9247ZM28.6151 40.4158L28.4564 40.2941L28.7075 40.5931L28.6151 40.4158ZM37.3413 35.7594L37.5398 35.7838L37.5398 35.7838L37.3413 35.7594ZM37.237 35.5579L37.3476 35.3913L37.3476 35.3913L37.237 35.5579ZM34.8867 33.9975L34.7761 34.1641L34.7761 34.1641L34.8867 33.9975ZM34.848 32.9401L34.9711 33.0977L34.9718 33.0972L34.848 32.9401ZM39.7308 29.0919L39.6313 28.9184L39.6186 28.9257L39.607 28.9348L39.7308 29.0919ZM39.8206 28.9292L39.6217 28.9084L39.6216 28.9084L39.8206 28.9292ZM39.8222 28.9144L40.0207 28.9388L40.0247 28.9066L40.0182 28.8748L39.8222 28.9144ZM39.7241 28.7434L39.6134 28.9101L39.6134 28.9101L39.7241 28.7434ZM36.8229 26.8174L36.9335 26.6508L36.9335 26.6507L36.8229 26.8174ZM36.5723 26.8362L36.6957 26.9936L36.7016 26.989L36.7071 26.9839L36.5723 26.8362ZM28.9001 32.8537L28.9996 33.0272L29.0122 33.02L29.0235 33.0111L28.9001 32.8537ZM28.8104 33.0164L28.6115 32.9955L28.6115 32.9955L28.8104 33.0164ZM28.8087 33.0312L28.6102 33.0067L28.6063 33.0389L28.6127 33.0708L28.8087 33.0312ZM28.9069 33.2021L28.7962 33.3687L28.7962 33.3687L28.9069 33.2021ZM31.7897 35.116L31.679 35.2826L31.6791 35.2826L31.7897 35.116ZM32.0839 35.5494L31.8879 35.589L31.8879 35.589L32.0839 35.5494ZM31.9626 36.0509L31.8108 35.9203L31.8039 35.9292L31.9626 36.0509ZM48.1921 27.4099L51.0501 27.2856L51.0327 26.886L48.1747 27.0102L48.1921 27.4099ZM43.2888 30.5651C43.2888 29.8166 43.4458 29.257 43.7056 28.8352C43.965 28.4142 44.3358 28.1157 44.7889 27.9038C45.7064 27.4746 46.9373 27.4101 48.1834 27.4101V27.0101C46.9443 27.0101 45.6279 27.0698 44.6194 27.5415C44.1094 27.78 43.6726 28.1261 43.365 28.6254C43.0579 29.1239 42.8888 29.7603 42.8888 30.5651H43.2888ZM43.2888 35.1627V30.5651H42.8888V35.1627H43.2888ZM46.4438 38.442C44.6951 38.442 43.2888 37.0452 43.2888 35.1627H42.8888C42.8888 37.2565 44.4647 38.842 46.4438 38.842V38.442ZM50.6686 38.442H46.4438V38.842H50.6686V38.442ZM52.2355 40.0089C52.2355 39.1529 51.5247 38.442 50.6686 38.442V38.842C51.3037 38.842 51.8355 39.3738 51.8355 40.0089H52.2355ZM52.2355 46.0976V40.0089H51.8355V46.0976H52.2355ZM50.6686 47.6645C51.5247 47.6645 52.2355 46.9537 52.2355 46.0976H51.8355C51.8355 46.7327 51.3037 47.2645 50.6686 47.2645V47.6645ZM19.4793 47.6645H50.6686V47.2645H19.4793V47.6645ZM17.9124 46.0976C17.9124 46.9537 18.6233 47.6645 19.4793 47.6645V47.2645C18.8442 47.2645 18.3124 46.7327 18.3124 46.0976H17.9124ZM17.9124 19.7544V46.0976H18.3124V19.7544H17.9124ZM19.4793 18.1876C18.6233 18.1876 17.9124 18.8984 17.9124 19.7544H18.3124C18.3124 19.1193 18.8442 18.5876 19.4793 18.5876V18.1876ZM30.9112 18.1876H19.4793V18.5876H30.9112V18.1876ZM27.0198 20.4326L30.9961 18.5687L30.8264 18.2065L26.85 20.0704L27.0198 20.4326ZM21.2189 20.4515H26.9349V20.0515H21.2189V20.4515ZM20.3006 21.3698C20.3006 20.859 20.7081 20.4515 21.2189 20.4515V20.0515C20.4872 20.0515 19.9006 20.6381 19.9006 21.3698H20.3006ZM21.2189 22.1639C20.6927 22.1639 20.3006 21.7416 20.3006 21.3698H19.9006C19.9006 21.9921 20.5026 22.5639 21.2189 22.5639V22.1639ZM52.0355 22.1639H21.2189V22.5639H52.0355V22.1639ZM52.2355 25.8432V22.3639H51.8355V25.8432H52.2355ZM51.0899 27.2798C51.6606 27.1372 52.2355 26.5713 52.2355 25.8432H51.8355C51.8355 26.3577 51.4164 26.7859 50.9929 26.8918L51.0899 27.2798ZM31.7811 20.4515H45.4497V20.0515H31.7811V20.4515ZM42.7549 14.8517L31.6957 20.0706L31.8664 20.4323L42.9256 15.2134L42.7549 14.8517ZM45.6286 20.162L43.0191 14.9431L42.6614 15.122L45.2708 20.3409L45.6286 20.162ZM47.8107 20.4515H52.0355V20.0515H47.8107V20.4515ZM46.6401 18.4817L47.6342 20.3456L47.9871 20.1574L46.993 18.2935L46.6401 18.4817ZM50.6686 18.1876H46.8166V18.5876H50.6686V18.1876ZM52.2355 19.7544C52.2355 18.8984 51.5247 18.1876 50.6686 18.1876V18.5876C51.3037 18.5876 51.8355 19.1193 51.8355 19.7544H52.2355ZM52.2355 20.2515V19.7544H51.8355V20.2515H52.2355ZM45.8225 16.4751H50.6686V16.0751H45.8225V16.4751ZM44.1511 13.2552L45.6422 16.3617L46.0028 16.1886L44.5117 13.0821L44.1511 13.2552ZM43.0539 12.8505C43.4399 12.6575 43.947 12.8471 44.1525 13.2581L44.5102 13.0792C44.2187 12.4961 43.4831 12.1887 42.8751 12.4927L43.0539 12.8505ZM35.3451 16.4563L43.0492 12.8528L42.8798 12.4904L35.1756 16.094L35.3451 16.4563ZM19.4793 16.4751H35.2604V16.0751H19.4793V16.4751ZM16.2 19.7544C16.2 18.001 17.7258 16.4751 19.4793 16.4751V16.0751C17.5049 16.0751 15.8 17.7801 15.8 19.7544H16.2ZM16.2 46.0976V19.7544H15.8V46.0976H16.2ZM19.4793 49.2527C17.7163 49.2527 16.2 47.8418 16.2 46.0976H15.8C15.8 48.0813 17.5145 49.6527 19.4793 49.6527V49.2527ZM50.6686 49.2527H19.4793V49.6527H50.6686V49.2527ZM53.8237 46.0976C53.8237 47.8511 52.4221 49.2527 50.6686 49.2527V49.6527C52.643 49.6527 54.2237 48.072 54.2237 46.0976H53.8237ZM53.8237 40.0089V46.0976H54.2237V40.0089H53.8237ZM53.6087 38.7529C53.8172 39.0656 53.8237 39.4946 53.8237 40.0089H54.2237C54.2237 39.5291 54.2302 38.964 53.9416 38.5311L53.6087 38.7529ZM54.5207 38.442H53.7752V38.842H54.5207V38.442ZM57.8 35.1627C57.8 36.9162 56.2742 38.442 54.5207 38.442V38.842C56.4951 38.842 58.2 37.1371 58.2 35.1627H57.8ZM57.8 30.5651V35.1627H58.2V30.5651H57.8ZM54.5207 27.4101C56.2837 27.4101 57.8 28.8209 57.8 30.5651H58.2C58.2 28.5814 56.4855 27.0101 54.5207 27.0101V27.4101ZM53.7752 27.4101H54.5207V27.0101H53.7752V27.4101ZM53.8237 25.8432C53.8237 26.3385 53.822 26.6692 53.5963 27.1206L53.954 27.2995C54.2253 26.7569 54.2237 26.342 54.2237 25.8432H53.8237ZM53.8237 19.7544V25.8432H54.2237V19.7544H53.8237ZM50.6686 16.4751C52.4128 16.4751 53.8237 17.9914 53.8237 19.7544H54.2237C54.2237 17.7896 52.6523 16.0751 50.6686 16.0751V16.4751ZM54.5207 29.1225H46.4438V29.5225H54.5207V29.1225ZM56.0876 30.5651C56.0876 29.6848 55.3508 29.1225 54.5207 29.1225V29.5225C55.1817 29.5225 55.6876 29.9542 55.6876 30.5651H56.0876ZM56.0876 35.1627V30.5651H55.6876V35.1627H56.0876ZM54.5207 36.7296C55.3767 36.7296 56.0876 36.0187 56.0876 35.1627H55.6876C55.6876 35.7978 55.1558 36.3296 54.5207 36.3296V36.7296ZM46.4438 36.7296H54.5207V36.3296H46.4438V36.7296ZM45.0012 35.1627C45.0012 35.9928 45.5635 36.7296 46.4438 36.7296V36.3296C45.8329 36.3296 45.4012 35.8237 45.4012 35.1627H45.0012ZM45.0012 30.5651V35.1627H45.4012V30.5651H45.0012ZM46.4438 29.1225C46.0256 29.1225 45.6615 29.2628 45.4015 29.5228C45.1415 29.7828 45.0012 30.1469 45.0012 30.5651H45.4012C45.4012 30.2378 45.5094 29.9805 45.6843 29.8056C45.8592 29.6307 46.1165 29.5225 46.4438 29.5225V29.1225ZM38.8676 35.804C38.9009 35.1687 38.6073 34.6138 38.0913 34.2712L37.87 34.6044C38.272 34.8713 38.4938 35.2935 38.4681 35.7831L38.8676 35.804ZM37.9597 37.2602C38.4772 36.976 38.8344 36.437 38.8676 35.804L38.4681 35.7831C38.4424 36.275 38.1657 36.6907 37.7672 36.9096L37.9597 37.2602ZM26.6954 43.146L37.9561 37.2621L37.7708 36.9076L26.5101 42.7914L26.6954 43.146ZM25.8197 43.1122C26.0835 43.2873 26.4216 43.3033 26.7023 43.1421L26.5032 42.7952C26.3566 42.8794 26.1811 42.872 26.0409 42.7789L25.8197 43.1122ZM25.638 42.9527C25.7032 43.0363 25.7843 43.0886 25.8197 43.1122L26.0409 42.7789C26.0029 42.7537 25.9738 42.7328 25.9532 42.7066L25.638 42.9527ZM25.6112 41.87C25.3637 42.1907 25.3745 42.6442 25.6435 42.9595L25.9477 42.6998C25.8002 42.5269 25.7973 42.2836 25.9279 42.1145L25.6112 41.87ZM30.3425 35.6998L25.6108 41.8705L25.9283 42.1139L30.6599 35.9431L30.3425 35.6998ZM28.0954 34.4643L30.3906 35.9881L30.6118 35.6548L28.3166 34.131L28.0954 34.4643ZM27.313 33.0782C27.3348 33.631 27.6193 34.1482 28.0954 34.4643L28.3166 34.131C27.9481 33.8864 27.7295 33.4876 27.7127 33.0624L27.313 33.0782ZM27.9742 31.634C27.5371 31.9753 27.2913 32.5272 27.313 33.0782L27.7127 33.0624C27.6959 32.6354 27.8883 32.2085 28.2204 31.9493L27.9742 31.634ZM35.6461 25.6167L27.9738 31.6343L28.2207 31.949L35.8929 25.9315L35.6461 25.6167ZM37.6771 25.5307C37.0562 25.1185 36.2325 25.1387 35.6431 25.6191L35.8958 25.9291C36.344 25.5639 36.9751 25.5447 37.4559 25.8639L37.6771 25.5307ZM40.5599 27.4446L37.6771 25.5307L37.4559 25.8639L40.3387 27.7778L40.5599 27.4446ZM41.3423 28.8306C41.3205 28.2778 41.0361 27.7607 40.5599 27.4446L40.3387 27.7778C40.7072 28.0225 40.9258 28.4212 40.9426 28.8464L41.3423 28.8306ZM40.6811 30.2749C41.1182 29.9336 41.364 29.3816 41.3423 28.8306L40.9426 28.8464C40.9594 29.2734 40.767 29.7003 40.435 29.9596L40.6811 30.2749ZM36.5252 33.5466L40.6818 30.2744L40.4343 29.9601L36.2778 33.2323L36.5252 33.5466ZM38.0913 34.2712L36.5121 33.2228L36.2909 33.5561L37.87 34.6044L38.0913 34.2712ZM37.1392 35.7473L28.5226 40.2384L28.7075 40.5931L37.3241 36.102L37.1392 35.7473ZM37.1428 35.735C37.1414 35.7464 37.14 35.7475 37.141 35.7456C37.1416 35.7445 37.1421 35.744 37.1418 35.7444C37.1414 35.7447 37.1388 35.7473 37.1321 35.7512L37.3312 36.0981C37.4909 36.0064 37.5294 35.8686 37.5398 35.7838L37.1428 35.735ZM37.1264 35.7245C37.1325 35.7285 37.1358 35.732 37.1376 35.7342C37.1395 35.7366 37.1407 35.7387 37.1414 35.7404C37.1422 35.7423 37.1424 35.7436 37.1425 35.7439C37.1425 35.7445 37.142 35.7417 37.1428 35.735L37.5398 35.7838C37.5537 35.6707 37.5113 35.4999 37.3476 35.3913L37.1264 35.7245ZM34.7761 34.1641L37.1264 35.7245L37.3476 35.3913L34.9973 33.8309L34.7761 34.1641ZM34.3924 33.4791C34.3843 33.7749 34.5712 34.0281 34.7761 34.1641L34.9973 33.8309C34.8717 33.7475 34.7889 33.61 34.7922 33.4901L34.3924 33.4791ZM34.7249 32.7824C34.5037 32.9552 34.3994 33.2247 34.3924 33.4791L34.7922 33.4901C34.7967 33.3289 34.8627 33.1824 34.9711 33.0977L34.7249 32.7824ZM39.607 28.9348L34.7242 32.783L34.9718 33.0972L39.8546 29.2489L39.607 28.9348ZM39.6216 28.9084C39.621 28.9148 39.6205 28.9192 39.62 28.9234C39.6195 28.9275 39.619 28.9304 39.6186 28.9326C39.6178 28.9371 39.6174 28.9372 39.6183 28.9351C39.6193 28.9325 39.6216 28.9283 39.6253 28.924C39.629 28.9197 39.6319 28.9181 39.6313 28.9184L39.8304 29.2653C40.0019 29.1669 40.0143 28.9998 40.0195 28.95L39.6216 28.9084ZM39.6237 28.89C39.6229 28.8968 39.6222 28.9036 39.6217 28.9084L40.0195 28.95C40.0201 28.9445 40.0204 28.9414 40.0207 28.9388L39.6237 28.89ZM39.6134 28.9101C39.6081 28.9065 39.6104 28.9053 39.6156 28.9169C39.6206 28.9283 39.6234 28.9404 39.6262 28.954L40.0182 28.8748C40.0135 28.8516 39.9852 28.6767 39.8347 28.5768L39.6134 28.9101ZM36.7123 26.984L39.6134 28.9101L39.8347 28.5768L36.9335 26.6508L36.7123 26.984ZM36.7071 26.9839C36.705 26.9858 36.7038 26.9862 36.7044 26.986C36.705 26.9857 36.7067 26.9852 36.7091 26.985C36.7116 26.9849 36.7136 26.9851 36.7147 26.9854C36.7157 26.9857 36.7147 26.9856 36.7123 26.984L36.9335 26.6507C36.7857 26.5526 36.5742 26.5637 36.4375 26.6885L36.7071 26.9839ZM29.0235 33.0111L36.6957 26.9936L36.4489 26.6788L28.7767 32.6963L29.0235 33.0111ZM29.0093 33.0372C29.0099 33.0308 29.0104 33.0264 29.011 33.0221C29.0115 33.0181 29.0119 33.0152 29.0123 33.013C29.0132 33.0085 29.0136 33.0083 29.0127 33.0105C29.0116 33.013 29.0094 33.0172 29.0057 33.0215C29.0019 33.0259 28.9991 33.0275 28.9996 33.0272L28.8005 32.6802C28.629 32.7787 28.6167 32.9458 28.6115 32.9955L29.0093 33.0372ZM29.0072 33.0556C29.0081 33.0488 29.0088 33.042 29.0093 33.0372L28.6115 32.9955C28.6109 33.0011 28.6105 33.0042 28.6102 33.0067L29.0072 33.0556ZM29.0175 33.0355C29.0229 33.0391 29.0205 33.0402 29.0153 33.0286C29.0103 33.0172 29.0075 33.0051 29.0048 32.9916L28.6127 33.0708C28.6174 33.094 28.6457 33.2688 28.7962 33.3687L29.0175 33.0355ZM31.9003 34.9494L29.0175 33.0355L28.7962 33.3687L31.679 35.2826L31.9003 34.9494ZM32.28 35.5098C32.2317 35.2711 32.0884 35.0743 31.9003 34.9494L31.6791 35.2826C31.7847 35.3528 31.862 35.4611 31.8879 35.589L32.28 35.5098ZM32.1142 36.1814C32.2743 35.9953 32.328 35.7474 32.28 35.5098L31.8879 35.589C31.9139 35.7181 31.8827 35.8372 31.811 35.9205L32.1142 36.1814ZM28.7738 40.5375L32.1213 36.1726L31.8039 35.9292L28.4564 40.2941L28.7738 40.5375Z" fill="black" mask="url(#path-1-outside-1)"/>
</svg>
