<svg width="68" height="68" viewBox="0 0 68 68" fill="none" xmlns="http://www.w3.org/2000/svg">
<path fill-rule="evenodd" clip-rule="evenodd" d="M34.663 10L48.3259 23.6631H21L34.663 10ZM42.5539 52.4268C44.1845 51.0625 44.9998 49.3101 44.9998 47.1694C44.9998 45.0996 44.4058 43.4771 43.2178 42.3008C42.0298 41.1011 40.1196 40.1958 37.4874 39.584L35.9849 39.2314V33.3042C38.0115 33.7275 39.5722 34.9155 40.6671 36.8677L44.4407 33.7627C42.4607 31.0107 39.6421 29.4937 35.9849 29.2114V26.001H33.6787V29.2114C31.093 29.376 29.0547 30.0703 27.5639 31.293C26.0963 32.4927 25.3625 34.0806 25.3625 36.0562C25.3625 39.749 27.692 42.1245 32.3509 43.1831L33.6787 43.5005V50.4507C31.3027 50.0981 29.4857 48.7339 28.2278 46.3584L23.9998 49.2866C24.8151 50.8857 26.0614 52.1562 27.7386 53.0967C29.4158 54.0376 31.3958 54.5786 33.6787 54.7197V58.001H35.9849V54.7197C38.7569 54.5317 40.9466 53.7671 42.5539 52.4268ZM31.093 37.5381C30.6038 37.0908 30.3592 36.5146 30.3592 35.8091C30.3592 35.0327 30.6504 34.4214 31.2328 33.9746C31.8151 33.5278 32.6304 33.269 33.6787 33.1982V38.7021C32.4441 38.373 31.5822 37.9849 31.093 37.5381ZM38.8151 49.5688C38.1396 50.0864 37.1962 50.4038 35.9849 50.5215V44.0298C37.3825 44.3823 38.3726 44.8174 38.9549 45.335C39.5372 45.8291 39.8284 46.5347 39.8284 47.4521C39.8284 48.3457 39.4907 49.0513 38.8151 49.5688Z" fill="black"/>
</svg>
