<svg width="68" height="68" viewBox="0 0 68 68" fill="none" xmlns="http://www.w3.org/2000/svg">
<path d="M29.8 16C29.2192 16.0288 28.7237 16.5108 28.625 16.975L27.975 20.5375C27.6591 20.656 27.3544 20.7858 27.05 20.925L24.05 18.8625C23.591 18.5522 22.9147 18.6188 22.525 19.0125L18 23.5375C17.6101 23.9303 17.5491 24.6063 17.8625 25.0625L19.925 28.0375C19.7873 28.3384 19.6673 28.6504 19.55 28.9625L15.9875 29.6125C15.4371 29.7116 14.997 30.2408 15 30.8V37.2C15.004 37.7551 15.4412 38.2766 15.9875 38.375L19.55 39.025C19.6704 39.3395 19.7979 39.65 19.9375 39.95L17.8625 42.925C17.5491 43.3812 17.6101 44.0572 18 44.45L22.525 48.975C22.9162 49.3749 23.6014 49.4418 24.0625 49.125L27.05 47.0625C27.3557 47.2013 27.6595 47.3327 27.975 47.45L28.625 51.0125C28.7233 51.5588 29.2449 51.9972 29.8 52H36.2C36.7551 51.996 37.2767 51.5588 37.375 51.0125L38.025 47.45C38.3407 47.3316 38.6457 47.2018 38.95 47.0625L41.925 49.125C42.3861 49.4418 43.0714 49.3749 43.4625 48.975L47.9875 44.45C48.3775 44.0572 48.4384 43.3812 48.125 42.925L46.0625 39.95C46.199 39.6535 46.3205 39.3459 46.4375 39.0375L50.0125 38.375C50.5589 38.2766 50.9972 37.7551 51 37.2V30.8C51.004 30.2408 50.5629 29.7116 50.0125 29.6125L46.45 28.9625C46.3349 28.6532 46.1985 28.35 46.0625 28.05L48.125 25.0625C48.4384 24.6063 48.3775 23.9303 47.9875 23.5375L43.4625 19.0125C43.0682 18.6164 42.3833 18.5551 41.925 18.875L38.95 20.925C38.6457 20.7857 38.3407 20.6559 38.025 20.5375L37.375 16.975C37.2715 16.4332 36.7516 16.0018 36.2 16H29.8ZM30.8 18.4H35.2L35.7875 21.6125C35.8655 22.0363 36.1898 22.4054 36.6 22.5375C37.2744 22.7495 37.9304 23.0264 38.55 23.35C38.9347 23.5514 39.4299 23.5214 39.7875 23.275L42.475 21.4125L45.5875 24.525L43.725 27.225C43.4786 27.5826 43.4486 28.0778 43.65 28.4625C43.9682 29.0734 44.2252 29.7122 44.4375 30.3875C44.5677 30.8055 44.9439 31.1365 45.375 31.2125L48.6 31.8V36.2L45.375 36.7875C44.9439 36.8635 44.5677 37.1945 44.4375 37.6125C44.2269 38.2803 43.9615 38.9173 43.6375 39.5375C43.4361 39.9222 43.4661 40.4174 43.7125 40.775L45.5875 43.4625L42.475 46.575L39.7875 44.725C39.4322 44.4747 38.9369 44.4397 38.55 44.6375C37.9304 44.9611 37.2744 45.238 36.6 45.45C36.1898 45.582 35.8655 45.9512 35.7875 46.375L35.2 49.6H30.8L30.2125 46.375C30.1345 45.9512 29.8102 45.582 29.4 45.45C28.7202 45.2363 28.0527 44.9715 27.4375 44.65C27.0528 44.4486 26.5576 44.4786 26.2 44.725L23.5125 46.575L20.4125 43.475L22.2875 40.7875C22.5386 40.4272 22.5687 39.9252 22.3625 39.5375C22.0325 38.9063 21.7592 38.2654 21.55 37.6C21.4198 37.182 21.0437 36.851 20.6125 36.775L17.4 36.1875V31.8L20.6125 31.2125C21.0437 31.1365 21.4198 30.8055 21.55 30.3875C21.762 29.7131 22.0264 29.0696 22.35 28.45C22.5514 28.0653 22.5214 27.5701 22.275 27.2125L20.4 24.525L23.5125 21.4125L26.225 23.275C26.5799 23.5167 27.0682 23.5466 27.45 23.35C28.0678 23.0278 28.7291 22.7484 29.4 22.5375C29.8102 22.4054 30.1345 22.0363 30.2125 21.6125L30.8 18.4ZM33 25.6C28.3751 25.6 24.6 29.375 24.6 34C24.6 38.625 28.3751 42.4 33 42.4C37.625 42.4 41.4 38.625 41.4 34C41.4 29.375 37.625 25.6 33 25.6ZM33 28C36.3279 28 39 30.672 39 34C39 37.3279 36.3279 40 33 40C29.6721 40 27 37.3279 27 34C27 30.672 29.6721 28 33 28Z" fill="black"/>
</svg>
