<svg width="68" height="68" viewBox="0 0 68 68" fill="none" xmlns="http://www.w3.org/2000/svg">
<path d="M39.467 16.7824C39.3157 16.6558 39.1329 16.5727 38.9381 16.5419L33.5529 15.772C33.3278 15.7379 33.0978 15.7752 32.8951 15.8787C32.6925 15.9822 32.5273 16.1466 32.423 16.3489L20.9581 38.5131L18.386 41.0852C15.6294 43.8418 15.6299 48.3288 18.3871 51.0861C21.1443 53.8433 25.6314 53.8438 28.388 51.0872L30.9601 48.5151L53.1243 37.0501C53.3265 36.9458 53.491 36.7807 53.5944 36.578C53.6979 36.3753 53.7352 36.1453 53.7011 35.9203L52.9312 30.5351C52.8949 30.2904 52.7763 30.0653 52.5949 29.897C52.4135 29.7288 52.1802 29.6273 51.9335 29.6094L47.7143 29.2844L46.3674 23.8992C46.3197 23.7073 46.2206 23.5321 46.0808 23.3923C45.941 23.2525 45.7658 23.1535 45.574 23.1057L40.1887 21.7589L39.8637 17.5397C39.8522 17.3932 39.811 17.2506 39.7428 17.1205C39.6747 16.9903 39.5808 16.8753 39.467 16.7824L39.467 16.7824ZM44.4203 25.0529L45.6228 29.8852L27.6659 43.4422L26.031 41.8072L39.588 23.8503L44.4203 25.0529ZM37.7483 18.5732L38.0372 22.2995L24.4802 40.2564L23.1819 38.9581L34.0099 18.0319L37.7483 18.5732ZM50.8999 31.7249L51.4412 35.4633L30.5151 46.2913L29.2167 44.993L47.1736 31.436L50.8999 31.7249ZM21.8478 40.7009L28.7723 47.6254L26.8492 49.5484C24.9183 51.4794 21.8569 51.479 19.9256 49.5476C17.9942 47.6162 17.9938 44.5549 19.9248 42.6239L21.8478 40.7009Z" fill="black"/>
</svg>
