<svg width="68" height="68" viewBox="0 0 68 68" fill="none" xmlns="http://www.w3.org/2000/svg">
<path d="M49.3916 28.9033L34.9995 16.2414C34.6341 15.9195 34.0865 15.9195 33.7211 16.2414L19.3287 28.9033C19.1199 29.0869 19 29.3515 19 29.6298V47.4321C19 47.9667 19.4331 48.3998 19.9677 48.3998H29.5329C30.0675 48.3998 30.5006 47.9667 30.5006 47.4321V39.0362H38.219V47.4325C38.219 47.9671 38.652 48.4002 39.1866 48.4002H48.7518C49.2864 48.4002 49.7195 47.9671 49.7195 47.4325V29.6298C49.7202 29.3519 49.6007 29.0873 49.3916 28.9033ZM47.7849 46.4648H40.1547V38.0685C40.1547 37.5339 39.7216 37.1009 39.187 37.1009H29.5332C28.9986 37.1009 28.5656 37.5339 28.5656 38.0685V46.4648H20.9354V30.0675L34.3601 18.257L47.7849 30.0675V46.4648Z" fill="black"/>
</svg>
