<svg width="68" height="68" viewBox="0 0 68 68" fill="none" xmlns="http://www.w3.org/2000/svg">
<path fill-rule="evenodd" clip-rule="evenodd" d="M41.5541 36.4255C43.1847 35.0614 44 33.3091 44 31.1687C44 29.0989 43.406 27.476 42.218 26.2999C41.03 25.1003 39.1198 24.1948 36.4875 23.5833L34.985 23.2305V17.3032C37.0117 17.7266 38.5724 18.9144 39.6672 20.8666L43.4409 17.7618C41.4609 15.0099 38.6423 13.4928 34.985 13.2106V10H32.6789V13.2106C30.0932 13.3752 28.0549 14.0691 26.5641 15.2921C25.0965 16.4917 24.3627 18.0793 24.3627 20.0552C24.3627 23.7479 26.6922 26.1235 31.3511 27.1819L32.6789 27.4994V34.4498C30.3029 34.097 28.4858 32.7328 27.228 30.3572L23 33.2855C23.8153 34.885 25.0616 36.155 26.7388 37.0959C28.416 38.0367 30.396 38.5778 32.6789 38.7189V42H34.985V38.7189C37.7571 38.5306 39.9468 37.7662 41.5541 36.4255ZM30.0932 21.537C29.604 21.0901 29.3594 20.5138 29.3594 19.8081C29.3594 19.032 29.6506 18.4204 30.233 17.9735C30.8153 17.5266 31.6306 17.2679 32.6789 17.1974V22.7012C31.4443 22.3719 30.5823 21.9839 30.0932 21.537ZM37.8153 33.5677C37.1398 34.0852 36.1964 34.4028 34.985 34.5204V28.0287C36.3827 28.3815 37.3727 28.8167 37.9551 29.3341C38.5374 29.828 38.8286 30.5336 38.8286 31.4509C38.8286 32.3447 38.4908 33.0503 37.8153 33.5677ZM33.663 58.3259L20 44.663H47.3259L33.663 58.3259Z" fill="black"/>
</svg>
