<svg width="68" height="68" viewBox="0 0 68 68" fill="none" xmlns="http://www.w3.org/2000/svg">
<path d="M48.4715 41C48.4715 44.0333 47.3048 46.5167 44.9715 48.45C42.6715 50.35 39.5382 51.4333 35.5715 51.7V56.35H32.2715V51.7C29.0048 51.5 26.1715 50.7333 23.7715 49.4C21.3715 48.0667 19.5882 46.2667 18.4215 44L24.4715 39.85C26.2715 43.2167 28.8715 45.15 32.2715 45.65V35.8L30.3715 35.35C23.7048 33.85 20.3715 30.4833 20.3715 25.25C20.3715 22.45 21.4215 20.2 23.5215 18.5C25.6548 16.7667 28.5715 15.7833 32.2715 15.55V11H35.5715V15.55C40.8048 15.95 44.8382 18.1 47.6715 22L42.2715 26.4C40.7048 23.6333 38.4715 21.95 35.5715 21.35V29.75L37.7215 30.25C41.4882 31.1167 44.2215 32.4 45.9215 34.1C47.6215 35.7667 48.4715 38.0667 48.4715 41ZM27.5215 24.9C27.5215 25.9 27.8715 26.7167 28.5715 27.35C29.2715 27.9833 30.5048 28.5333 32.2715 29V21.2C30.7715 21.3 29.6048 21.6667 28.7715 22.3C27.9382 22.9333 27.5215 23.8 27.5215 24.9ZM35.5715 45.75C37.3048 45.5833 38.6548 45.1333 39.6215 44.4C40.5882 43.6667 41.0715 42.6667 41.0715 41.4C41.0715 40.1 40.6548 39.1 39.8215 38.4C38.9882 37.6667 37.5715 37.05 35.5715 36.55V45.75Z" fill="black"/>
</svg>
