<svg width="68" height="68" viewBox="0 0 68 68" fill="none" xmlns="http://www.w3.org/2000/svg">
<path d="M33.9756 15C27.1278 15 21.5974 20.7738 21.5974 27.805C21.5974 30.3407 22.3611 32.3585 23.5448 34.2741L32.8818 49.3867C32.9961 49.5744 33.1567 49.7295 33.3483 49.8371C33.5398 49.9447 33.7558 50.0012 33.9756 50.0012C34.1953 50.0012 34.4113 49.9447 34.6028 49.8371C34.7944 49.7295 34.955 49.5744 35.0693 49.3867L44.4063 34.2741C45.59 32.3585 46.3537 30.3407 46.3537 27.805C46.3537 20.7738 40.8233 15 33.9756 15ZM33.9756 17.561C39.386 17.561 43.7927 22.1066 43.7927 27.805C43.7927 29.8571 43.2549 31.2501 42.2188 32.927L33.9756 46.2655L25.7324 32.927C24.6963 31.2501 24.1584 29.8571 24.1584 27.805C24.1584 22.1066 28.5652 17.561 33.9756 17.561ZM33.9756 20.9757C30.4547 20.9757 27.5731 23.8573 27.5731 27.3781C27.5731 30.8989 30.4547 33.7806 33.9756 33.7806C37.4964 33.7806 40.3781 30.8989 40.3781 27.3781C40.3781 23.8573 37.4964 20.9757 33.9756 20.9757ZM33.9756 23.5367C36.1123 23.5367 37.8171 25.2414 37.8171 27.3781C37.8171 29.5148 36.1123 31.2196 33.9756 31.2196C31.8388 31.2196 30.1341 29.5148 30.1341 27.3781C30.1341 25.2414 31.8388 23.5367 33.9756 23.5367Z" fill="black"/>
</svg>
