<svg width="68" height="68" viewBox="0 0 68 68" fill="none" xmlns="http://www.w3.org/2000/svg">
<mask id="path-1-outside-1" maskUnits="userSpaceOnUse" x="20.6484" y="9.91797" width="28" height="47" fill="black">
<rect fill="white" x="20.6484" y="9.91797" width="28" height="47"/>
<path fill-rule="evenodd" clip-rule="evenodd" d="M42.8535 10.918C45.3412 10.918 47.3516 12.9283 47.3516 15.416V51.584C47.3516 54.0717 45.3412 56.082 42.8535 56.082H26.1465C23.6588 56.082 21.6484 54.0717 21.6484 51.584V15.416C21.6484 12.9283 23.6588 10.918 26.1465 10.918H42.8535ZM45.6992 18.6289H23.3008V45.8926H45.6992V18.6289ZM26.1373 54.4297H42.8627C44.4324 54.4297 45.6992 53.1353 45.6992 51.5656V47.5449H23.3008V51.5656C23.3008 53.1353 24.5676 54.4297 26.1373 54.4297ZM45.6992 16.9766V15.4344C45.6992 13.8646 44.4324 12.5703 42.8627 12.5703H26.1373C24.5676 12.5703 23.3008 13.8646 23.3008 15.4344V16.9766H45.6992ZM32.2602 50.207H36.7398C37.1988 50.207 37.566 50.5742 37.566 51.0332C37.566 51.4922 37.1988 51.8594 36.7398 51.8594H32.2602C31.8012 51.8594 31.434 51.4922 31.434 51.0332C31.434 50.5742 31.8012 50.207 32.2602 50.207Z"/>
</mask>
<path fill-rule="evenodd" clip-rule="evenodd" d="M42.8535 10.918C45.3412 10.918 47.3516 12.9283 47.3516 15.416V51.584C47.3516 54.0717 45.3412 56.082 42.8535 56.082H26.1465C23.6588 56.082 21.6484 54.0717 21.6484 51.584V15.416C21.6484 12.9283 23.6588 10.918 26.1465 10.918H42.8535ZM45.6992 18.6289H23.3008V45.8926H45.6992V18.6289ZM26.1373 54.4297H42.8627C44.4324 54.4297 45.6992 53.1353 45.6992 51.5656V47.5449H23.3008V51.5656C23.3008 53.1353 24.5676 54.4297 26.1373 54.4297ZM45.6992 16.9766V15.4344C45.6992 13.8646 44.4324 12.5703 42.8627 12.5703H26.1373C24.5676 12.5703 23.3008 13.8646 23.3008 15.4344V16.9766H45.6992ZM32.2602 50.207H36.7398C37.1988 50.207 37.566 50.5742 37.566 51.0332C37.566 51.4922 37.1988 51.8594 36.7398 51.8594H32.2602C31.8012 51.8594 31.434 51.4922 31.434 51.0332C31.434 50.5742 31.8012 50.207 32.2602 50.207Z" fill="black"/>
<path d="M23.3008 18.6289V18.3289H23.0008V18.6289H23.3008ZM45.6992 18.6289H45.9992V18.3289H45.6992V18.6289ZM23.3008 45.8926H23.0008V46.1926H23.3008V45.8926ZM45.6992 45.8926V46.1926H45.9992V45.8926H45.6992ZM45.6992 47.5449H45.9992V47.2449H45.6992V47.5449ZM23.3008 47.5449V47.2449H23.0008V47.5449H23.3008ZM45.6992 16.9766V17.2766H45.9992V16.9766H45.6992ZM23.3008 16.9766H23.0008V17.2766H23.3008V16.9766ZM47.6516 15.416C47.6516 12.7626 45.5069 10.618 42.8535 10.618V11.218C45.1755 11.218 47.0516 13.094 47.0516 15.416H47.6516ZM47.6516 51.584V15.416H47.0516V51.584H47.6516ZM42.8535 56.382C45.5069 56.382 47.6516 54.2374 47.6516 51.584H47.0516C47.0516 53.906 45.1755 55.782 42.8535 55.782V56.382ZM26.1465 56.382H42.8535V55.782H26.1465V56.382ZM21.3484 51.584C21.3484 54.2374 23.4931 56.382 26.1465 56.382V55.782C23.8245 55.782 21.9484 53.906 21.9484 51.584H21.3484ZM21.3484 15.416V51.584H21.9484V15.416H21.3484ZM26.1465 10.618C23.4931 10.618 21.3484 12.7626 21.3484 15.416H21.9484C21.9484 13.094 23.8245 11.218 26.1465 11.218V10.618ZM42.8535 10.618H26.1465V11.218H42.8535V10.618ZM23.3008 18.9289H45.6992V18.3289H23.3008V18.9289ZM23.6008 45.8926V18.6289H23.0008V45.8926H23.6008ZM45.6992 45.5926H23.3008V46.1926H45.6992V45.5926ZM45.3992 18.6289V45.8926H45.9992V18.6289H45.3992ZM42.8627 54.1297H26.1373V54.7297H42.8627V54.1297ZM45.3992 51.5656C45.3992 52.9734 44.263 54.1297 42.8627 54.1297V54.7297C44.6019 54.7297 45.9992 53.2973 45.9992 51.5656H45.3992ZM45.3992 47.5449V51.5656H45.9992V47.5449H45.3992ZM23.3008 47.8449H45.6992V47.2449H23.3008V47.8449ZM23.6008 51.5656V47.5449H23.0008V51.5656H23.6008ZM26.1373 54.1297C24.737 54.1297 23.6008 52.9734 23.6008 51.5656H23.0008C23.0008 53.2973 24.3981 54.7297 26.1373 54.7297V54.1297ZM45.3992 15.4344V16.9766H45.9992V15.4344H45.3992ZM42.8627 12.8703C44.263 12.8703 45.3992 14.0266 45.3992 15.4344H45.9992C45.9992 13.7027 44.6019 12.2703 42.8627 12.2703V12.8703ZM26.1373 12.8703H42.8627V12.2703H26.1373V12.8703ZM23.6008 15.4344C23.6008 14.0266 24.737 12.8703 26.1373 12.8703V12.2703C24.3981 12.2703 23.0008 13.7027 23.0008 15.4344H23.6008ZM23.6008 16.9766V15.4344H23.0008V16.9766H23.6008ZM45.6992 16.6766H23.3008V17.2766H45.6992V16.6766ZM36.7398 49.907H32.2602V50.507H36.7398V49.907ZM37.866 51.0332C37.866 50.4085 37.3645 49.907 36.7398 49.907V50.507C37.0331 50.507 37.266 50.7399 37.266 51.0332H37.866ZM36.7398 52.1594C37.3645 52.1594 37.866 51.6579 37.866 51.0332H37.266C37.266 51.3265 37.0331 51.5594 36.7398 51.5594V52.1594ZM32.2602 52.1594H36.7398V51.5594H32.2602V52.1594ZM31.134 51.0332C31.134 51.6579 31.6355 52.1594 32.2602 52.1594V51.5594C31.9669 51.5594 31.734 51.3265 31.734 51.0332H31.134ZM32.2602 49.907C31.6355 49.907 31.134 50.4085 31.134 51.0332H31.734C31.734 50.7399 31.9669 50.507 32.2602 50.507V49.907Z" fill="black" mask="url(#path-1-outside-1)"/>
</svg>
