<svg width="68" height="68" viewBox="0 0 68 68" fill="none" xmlns="http://www.w3.org/2000/svg">
<path fill-rule="evenodd" clip-rule="evenodd" d="M50.3437 50.4327C50.5564 50.6147 50.8296 50.7103 51.1094 50.7007C51.275 50.7036 51.4393 50.671 51.5912 50.605C51.7431 50.5389 51.8791 50.441 51.9898 50.3178C55.746 45.8318 57.7439 40.1337 57.6115 34.2843C57.4791 28.4349 55.2254 22.8329 51.2701 18.5214C51.1759 18.3899 51.0549 18.2798 50.9151 18.1983C50.7753 18.1168 50.6199 18.0658 50.459 18.0485C50.2981 18.0313 50.1354 18.0483 49.9815 18.0983C49.8276 18.1483 49.686 18.2303 49.5661 18.3389C49.4461 18.4475 49.3504 18.5802 49.2853 18.7283C49.2202 18.8765 49.1871 19.0367 49.1883 19.1985C49.1894 19.3603 49.2247 19.52 49.2919 19.6673C49.3591 19.8145 49.4566 19.9458 49.5781 20.0527C53.1512 23.9572 55.1839 29.0269 55.298 34.3183C55.4121 39.6097 53.5997 44.7623 50.1983 48.8172C50.101 48.9325 50.0275 49.0659 49.9821 49.2098C49.9367 49.3536 49.9203 49.5051 49.9339 49.6553C49.9474 49.8055 49.9906 49.9516 50.0609 50.085C50.1313 50.2185 50.2274 50.3366 50.3437 50.4327ZM15.8906 50.8768C15.7224 50.8776 15.5561 50.8409 15.4038 50.7694C15.2515 50.6978 15.117 50.5933 15.0102 50.4633C11.254 45.9773 9.25611 40.2792 9.38851 34.4298C9.5209 28.5804 11.7746 22.9784 15.7298 18.6669C15.8241 18.5354 15.9451 18.4253 16.0849 18.3438C16.2247 18.2623 16.3801 18.2113 16.541 18.194C16.7019 18.1768 16.8646 18.1938 17.0185 18.2438C17.1724 18.2938 17.3139 18.3758 17.4339 18.4844C17.5539 18.593 17.6496 18.7257 17.7147 18.8738C17.7798 19.022 17.8129 19.1822 17.8117 19.344C17.8106 19.5058 17.7753 19.6656 17.7081 19.8128C17.6409 19.96 17.5434 20.0913 17.4219 20.1982C13.8445 24.0989 11.8062 29.1666 11.6865 34.4581C11.5668 39.7495 13.3738 44.9042 16.7711 48.9627C16.9204 49.1295 17.0176 49.3363 17.051 49.5576C17.0843 49.779 17.0522 50.0052 16.9587 50.2086C16.8651 50.4119 16.7142 50.5835 16.5245 50.7022C16.3347 50.8209 16.1144 50.8816 15.8906 50.8768ZM22.3449 45.8618L22.331 45.8616C22.5495 45.8584 22.7626 45.7929 22.9453 45.6726C23.1327 45.5493 23.2799 45.3738 23.3686 45.1677C23.4574 44.9617 23.4839 44.7342 23.4448 44.5133C23.4057 44.2924 23.3028 44.0878 23.1488 43.9248C20.7931 41.4364 19.5138 38.1194 19.5883 34.6937C19.6628 31.268 21.0853 28.0099 23.5469 25.6263C23.6931 25.5381 23.8178 25.4183 23.9119 25.2758C24.006 25.1333 24.0671 24.9716 24.0908 24.8025C24.1145 24.6334 24.1002 24.4611 24.0489 24.2982C23.9976 24.1353 23.9107 23.9859 23.7944 23.8609C23.6781 23.7358 23.5353 23.6383 23.3766 23.5754C23.2178 23.5125 23.047 23.4858 22.8766 23.4972C22.7062 23.5086 22.5405 23.5579 22.3916 23.6415C22.2426 23.725 22.1142 23.8408 22.0157 23.9802C19.1163 26.7792 17.4373 30.6084 17.3427 34.6373C17.2481 38.6662 18.7455 42.5699 21.5103 45.5019C21.6179 45.6152 21.7473 45.7055 21.8908 45.7673C22.0299 45.8273 22.1795 45.8594 22.331 45.8616L22.3142 45.8618H22.3449ZM27.8346 40.8339C28.3361 41.3368 29.0153 41.6221 29.7255 41.6281C30.1947 41.6336 30.657 41.5147 31.0653 41.2836L38.6144 36.9272C39.0213 36.6919 39.3593 36.3537 39.5942 35.9465C39.8291 35.5393 39.9528 35.0774 39.9528 34.6073C39.9528 34.1372 39.8291 33.6754 39.5942 33.2682C39.3593 32.861 39.0213 32.5228 38.6144 32.2875L31.0653 27.9311C30.6597 27.6969 30.1998 27.5731 29.7314 27.572C29.263 27.571 28.8025 27.6927 28.3959 27.9251C27.9892 28.1575 27.6505 28.4924 27.4137 28.8964C27.1768 29.3005 27.0499 29.7596 27.0458 30.228V38.9408C27.0498 39.651 27.3331 40.331 27.8346 40.8339ZM29.5341 29.8987C29.5929 29.8664 29.6584 29.8481 29.7255 29.8452C29.7936 29.8482 29.8597 29.8693 29.9169 29.9064L37.4659 34.2552C37.5254 34.2866 37.5749 34.3342 37.6088 34.3924C37.6426 34.4506 37.6594 34.5171 37.6573 34.5844C37.6591 34.6526 37.6422 34.7201 37.6085 34.7794C37.5748 34.8388 37.5255 34.8878 37.4659 34.9212L29.9169 39.2777C29.8583 39.3115 29.7918 39.3292 29.7241 39.329C29.6565 39.3287 29.5901 39.3106 29.5317 39.2763C29.4734 39.2421 29.4251 39.193 29.3919 39.1341C29.3587 39.0751 29.3417 39.0084 29.3427 38.9408V30.228C29.3414 30.1608 29.3586 30.0947 29.3924 30.0366C29.4261 29.9786 29.4751 29.9309 29.5341 29.8987ZM44.6552 45.6857C44.3694 45.6821 44.0956 45.5698 43.8895 45.3718C43.6683 45.1626 43.5391 44.8741 43.5305 44.5697C43.5219 44.2653 43.6345 43.97 43.8436 43.7486C46.1979 41.2616 47.4772 37.9469 47.4041 34.5231C47.331 31.0992 45.9114 27.8421 43.4531 25.4579C43.3156 25.366 43.1995 25.2454 43.1129 25.1045C43.0262 24.9636 42.971 24.8056 42.9511 24.6414C42.9311 24.4772 42.9469 24.3106 42.9973 24.153C43.0477 23.9955 43.1315 23.8506 43.2431 23.7285C43.3547 23.6063 43.4913 23.5097 43.6436 23.4453C43.796 23.3808 43.9605 23.35 44.1258 23.355C44.2912 23.36 44.4535 23.4007 44.6017 23.4742C44.7499 23.5478 44.8804 23.6525 44.9844 23.7811C47.8772 26.584 49.5492 30.4138 49.6381 34.4407C49.7269 38.4677 48.2255 42.3675 45.4591 45.2952C45.3588 45.4117 45.2358 45.5065 45.0975 45.5737C44.9593 45.6408 44.8087 45.6789 44.6552 45.6857Z" fill="black"/>
</svg>
