<svg width="68" height="68" viewBox="0 0 68 68" fill="none" xmlns="http://www.w3.org/2000/svg">
<path d="M47.3908 18.067C47.2377 17.7676 46.8516 17.6936 46.5498 17.792L46.5332 17.7974L46.5174 17.8051C46.2136 17.9537 46.1327 18.336 46.2361 18.6394L46.2429 18.6592L46.2529 18.6777C46.5948 19.3094 46.8153 19.8537 46.9146 20.2952C47.0147 20.7401 46.983 21.0407 46.8773 21.2251C46.7433 21.4302 46.453 21.565 46.0251 21.6378C45.6054 21.7092 45.1249 21.7098 44.6955 21.7098L44.6782 21.7098C44.3446 21.7098 44.0379 21.7098 43.7859 21.7509C43.5289 21.7927 43.2862 21.8835 43.1155 22.098C42.9644 22.261 42.8841 22.6007 43.086 22.914L45.1515 27.3027H29.4012L27.8845 23.9986C28.1002 23.9091 28.2791 23.7924 28.4401 23.6874L28.4418 23.6863C29.1188 23.3188 29.8628 22.9562 31.2087 22.7363C32.115 22.6202 32.6848 22.4041 33.0333 22.1402C33.3943 21.8668 33.5091 21.5478 33.5091 21.2796C33.5091 20.8376 33.1937 20.5253 32.7894 20.3276C32.3812 20.1279 31.8231 20.0108 31.188 19.9719L31.1804 19.9715H31.1727H31.1681C30.5563 19.9715 29.9308 19.9715 29.2273 20.0471C28.9698 20.0476 28.6967 20.0644 28.4164 20.0816C28.3964 20.0829 28.3764 20.0841 28.3563 20.0853C28.0473 20.1042 27.7257 20.1226 27.3864 20.1226C26.0163 20.1226 24.72 19.974 23.1878 19.6745C22.1142 19.4333 21.135 19.7471 20.6781 20.5515L20.6725 20.5613L20.6679 20.5715C20.3084 21.3626 20.5073 22.2913 21.1585 23.1671L21.1702 23.1829L21.1843 23.1967C21.9365 23.9324 23.0866 24.4016 24.6818 24.4016C25.3129 24.4016 25.8649 24.3251 26.3992 24.2505H26.6095L28.2549 27.7491L22.765 35.0054C21.4595 34.2218 19.9374 33.727 18.2682 33.727C13.5778 33.727 9.75 37.4601 9.75 41.9885C9.75 46.5154 13.5763 50.25 18.1909 50.25C22.6443 50.25 26.2592 46.8726 26.6151 42.6164H35.5C35.7568 42.6164 35.8973 42.4788 35.9788 42.399L35.9839 42.394L35.9973 42.3809L36.0086 42.366L46.0358 29.0925L48.6959 34.7754C46.1086 36.2061 44.3682 38.8735 44.3682 41.9885C44.3682 46.5154 48.1945 50.25 52.8091 50.25C57.4222 50.25 61.25 46.5925 61.25 41.9885C61.25 37.4616 57.4237 33.727 52.8091 33.727C51.7693 33.727 50.802 33.9299 49.8467 34.2685L44.4718 22.89H44.4729H44.474H44.4751H44.4761H44.4772H44.4783H44.4794H44.4805H44.4816H44.4826H44.4837H44.4848H44.4859H44.487H44.488H44.4891H44.4902H44.4913H44.4923H44.4934H44.4945H44.4956H44.4966H44.4977H44.4988H44.4998H44.5009H44.502H44.503H44.5041H44.5052H44.5062H44.5073H44.5083H44.5094H44.5105H44.5115H44.5126H44.5136H44.5147H44.5157H44.5168H44.5178H44.5189H44.5199H44.521H44.522H44.5231H44.5241H44.5252H44.5262H44.5272H44.5283H44.5293H44.5304H44.5314H44.5324H44.5335H44.5345H44.5355H44.5366H44.5376H44.5386H44.5396H44.5407H44.5417H44.5427H44.5437H44.5448H44.5458H44.5468H44.5478H44.5488H44.5498H44.5509H44.5519H44.5529H44.5539H44.5549H44.5559H44.5569H44.5579H44.5589H44.5599H44.5609H44.5619H44.5629H44.5639H44.5649H44.5659H44.5669H44.5679H44.5689H44.5699H44.5708H44.5718H44.5728H44.5738H44.5748H44.5757H44.5767H44.5777H44.5787H44.5796H44.5806H44.5816H44.5826H44.5835H44.5845H44.5855H44.5864H44.5874H44.5883H44.5893H44.5902H44.5912H44.5922H44.5931H44.5941H44.595H44.596H44.5969H44.5978H44.5988H44.5997H44.6007H44.6016H44.6025H44.6035H44.6044H44.6053H44.6063H44.6072H44.6081H44.609H44.61H44.6109H44.6118H44.6127H44.6136H44.6145H44.6155H44.6164H44.6173H44.6182H44.6281C45.1248 22.89 45.7632 22.89 46.3573 22.7719C46.9534 22.6533 47.5525 22.4068 47.9157 21.8739L47.9159 21.874L47.9222 21.8638C48.4622 20.9834 48.2429 19.7339 47.3908 18.067ZM47.3908 18.067L47.1684 18.1807L47.3908 18.067C47.3908 18.067 47.3908 18.067 47.3908 18.067ZM31.0955 21.1517C31.4431 21.1517 31.6968 21.1898 31.8798 21.2357C31.6815 21.295 31.4118 21.3571 31.0583 21.4103L31.0573 21.4104C29.5616 21.6414 28.6091 22.1034 27.9012 22.4873C27.7145 22.5562 27.539 22.6289 27.3807 22.6945C27.2842 22.7345 27.1941 22.7718 27.1118 22.804C26.8845 22.8929 26.6775 22.9599 26.4413 22.9947H26.2273H26.207L26.187 22.9979C25.7261 23.0731 25.2016 23.1458 24.6818 23.1458C23.4688 23.1458 22.6526 22.8468 22.2611 22.2725L22.2614 22.2723L22.2529 22.2612C22.0322 21.9734 21.8983 21.7199 21.8422 21.5084C21.7873 21.3013 21.8099 21.1488 21.8813 21.0324L21.8864 21.0241L21.8908 21.0155C21.9759 20.849 22.1473 20.7738 22.5182 20.7738C22.679 20.7738 22.7767 20.7773 22.872 20.824L22.9015 20.8384L22.9338 20.8447C24.4926 21.1496 25.8997 21.3029 27.3864 21.3029H27.3991C28.0776 21.3029 28.7043 21.3029 29.2582 21.2273C29.5691 21.2266 29.8787 21.2076 30.1798 21.1892L30.1834 21.189C30.4938 21.17 30.7953 21.1517 31.0955 21.1517ZM18.1909 42.6164H25.3386C24.9859 46.2087 21.9118 48.9942 18.1909 48.9942C14.2283 48.9942 11.0227 45.851 11.0227 41.9885C11.0227 38.126 14.2283 34.9828 18.1909 34.9828C19.5861 34.9828 20.8494 35.3645 21.9222 36.009L17.6825 41.6109L17.6692 41.6284L17.6592 41.648C17.6061 41.7519 17.5739 41.8663 17.5739 41.9791C17.5739 42.0906 17.6067 42.2202 17.707 42.3184L17.7092 42.3205C17.747 42.3576 17.8116 42.4207 17.8784 42.4752C17.9123 42.5028 17.9529 42.5333 17.9958 42.5581C18.0303 42.578 18.1026 42.6164 18.1909 42.6164ZM45.6409 41.9885C45.6409 39.3844 47.1002 37.1164 49.2185 35.9107L52.1965 42.246L52.1964 42.2461L52.2001 42.2535C52.3269 42.5015 52.5766 42.6164 52.8091 42.6164H52.8095H52.81H52.8104H52.8109H52.8113H52.8118H52.8122H52.8127H52.8131H52.8135H52.814H52.8144H52.8148H52.8153H52.8157H52.8161H52.8165H52.817H52.8174H52.8178H52.8182H52.8186H52.819H52.8195H52.8199H52.8203H52.8207H52.8211H52.8215H52.8219H52.8223H52.8227H52.8231H52.8235H52.8239H52.8243H52.8247H52.8251H52.8255H52.8259H52.8262H52.8266H52.827H52.8274H52.8278H52.8282H52.8285H52.8289H52.8293H52.8297H52.83H52.8304H52.8308H52.8311H52.8315H52.8319H52.8322H52.8326H52.833H52.8333H52.8337H52.834H52.8344H52.8347H52.8351H52.8355H52.8358H52.8362H52.8365H52.8368H52.8372H52.8375H52.8379H52.8382H52.8386H52.8389H52.8392H52.8396H52.8399H52.8402H52.8406H52.8409H52.8412H52.8416H52.8419H52.8422H52.8425H52.8429H52.8432H52.8435H52.8438H52.8442H52.8445H52.8448H52.8451H52.8454H52.8457H52.8461H52.8464H52.8467H52.847H52.8473H52.8476H52.8479H52.8482H52.8485H52.8488H52.8491H52.8494H52.8497H52.85H52.8503H52.8506H52.8509H52.8512H52.8515H52.8518H52.8521H52.8524H52.8527H52.853H52.8533H52.8535H52.8538H52.8541H52.8544H52.8547H52.855H52.8553H52.8555H52.8558H52.8561H52.8564H52.8567H52.8569H52.8572H52.8575H52.8578H52.858H52.8583H52.8586H52.8588H52.8591H52.8594H52.8597H52.8599H52.8602H52.8605H52.8607H52.861H52.8613H52.8615H52.8618H52.862H52.8623H52.8626H52.8628H52.8631H52.8634H52.8636H52.8639H52.8641H52.8644H52.8646H52.8649H52.8652H52.8654H52.8657H52.8659H52.8662H52.8664H52.8667H52.8669H52.8672H52.8674H52.8677H52.8679H52.8682H52.8684H52.8687H52.8689H52.8691H52.8694H52.8696H52.8699H52.8701H52.8704H52.8706H52.8708H52.8711H52.8713H52.8716H52.8718H52.8721H52.8723H52.8725H52.8728H52.873H52.8732H52.8735H52.8737H52.874H52.8742H52.8744H52.8747H52.8749H52.8751H52.8754H52.8756H52.8758H52.8761H52.8763H52.8765H52.8768H52.877H52.8772H52.8775H52.8777H52.8779H52.8782H52.8784H52.8786H52.8788H52.8791H52.8793H52.8795H52.8798H52.88H52.8802H52.8805H52.8807H52.8809H52.8811H52.8814H52.8816H52.8818H52.8821H52.8823H52.8825H52.8827H52.883H52.8832H52.8834H52.8836H52.8839H52.8841H52.8843H52.8846H52.8848H52.885H52.8852H52.8855H52.8857H52.8859H52.8861H52.8864H52.8866H52.8868H52.887H52.8873H52.8875H52.8877H52.8879H52.8882H52.8884H52.8886H52.8889H52.8891H52.8893H52.8895H52.8898H52.89H52.8902H52.8904H52.8907H52.8909H52.8911H52.8914H52.8916H52.8918H52.892H52.8923H52.8925H52.8927H52.893H52.8932H52.8934H52.8936H52.8939H52.8941H52.8943H52.8946H52.8948H52.895H52.8953H52.8955H52.8957H52.896H52.8962H52.8964H52.8967H52.8969H52.8971H52.8974H52.8976H52.8978H52.8981H52.8983H52.8985H52.8988H52.899H52.8992H52.8995H52.8997H52.9H52.9002H52.9004H52.9007H52.9009H52.9012H52.9014H52.9016H52.9019H52.9021H52.9024H52.9026H52.9028H52.9031H52.9033H52.9036H52.9038H52.9041H52.9043H52.9046H52.9048H52.9051H52.9053H52.9056H52.9058H52.9061H52.9063H52.9066H52.9068H52.9071H52.9073H52.9076H52.9078H52.9081H52.9083H52.9086H52.9089H52.9091H52.9094H52.9096H52.9099H52.9102H52.9104H52.9107H52.9109H52.9112H52.9115H52.9117H52.912H52.9123H52.9125H52.9128H52.9131H52.9133H52.9136H52.9139H52.9141H52.9144H52.9147H52.915H52.9152H52.9155H52.9158H52.9161H52.9164H52.9166H52.9169H52.9172H52.9175H52.9178H52.918H52.9183H52.9186H52.9189H52.9192H52.9195H52.9198H52.92H52.9203H52.9206H52.9209H52.9212H52.9215H52.9218H52.9221H52.9224H52.9227H52.923H52.9233H52.9236H52.9239H52.9242H52.9245H52.9248H52.9251H52.9254H52.9257H52.926H52.9264H52.9267H52.927H52.9273H52.9276H52.9279H52.9282H52.9286H52.9289H52.9292H52.9295H52.9299H52.9302H52.9305H52.9308H52.9312H52.9315H52.9318H52.9321H52.9325H52.9328H52.9332H52.9335H52.9338H52.9342H52.9345H52.9348H52.9352H52.9355H52.9359H52.9362H52.9366H52.9369H52.9373H52.9376H52.938H52.9383H52.9387H52.939H52.9394H52.9398H52.9401H52.9405H52.9408H52.9412H52.9416H52.942H52.9423H52.9427H52.9431H52.9434H52.9438H52.9442H52.9446H52.9449H52.9453H52.9457H52.9461H52.9465H52.9469H52.9473H52.9476H52.948H52.9484H52.9488H52.9492H52.9496H52.95H52.9504H52.9508H52.9512H52.9516H52.952H52.9524H52.9529H52.9533H52.9537H52.9541H52.9545H52.9549H52.9553H52.9558H52.9562H52.9566H52.957H52.9575H52.9579H52.9583H52.9588H52.9592H52.9596H52.9601H52.9605H52.9609H52.9614H52.9618H52.9623H52.9627H52.9632H52.9636H53.0034L53.0411 42.6041C53.221 42.5454 53.3681 42.4167 53.4248 42.2319C53.4788 42.0558 53.4378 41.8718 53.3367 41.7147L50.3722 35.408C51.1318 35.1577 51.9354 34.9828 52.7318 34.9828C56.6945 34.9828 59.9 38.126 59.9 41.9885L59.9 41.9933C59.9745 45.8511 56.7728 48.9942 52.8091 48.9942C48.8465 48.9942 45.6409 45.851 45.6409 41.9885ZM44.9662 28.4074L35.7047 40.6758L29.9436 28.4074H44.9662ZM23.7151 35.7466L28.805 29.0153L34.6416 41.3606H26.62C26.4767 39.1225 25.3791 37.1048 23.7151 35.7466ZM22.9434 36.7588C24.2627 37.9333 25.134 39.5217 25.3353 41.3606H19.4659L22.9434 36.7588Z" fill="black" stroke="black" stroke-width="0.5"/>
</svg>
