<svg width="68" height="68" viewBox="0 0 68 68" fill="none" xmlns="http://www.w3.org/2000/svg">
<path fill-rule="evenodd" clip-rule="evenodd" d="M8 50.5V17H60.8947V50.5H8ZM14.6118 21.895C14.1552 21.895 13.7855 22.2512 13.7855 22.6926V31.0676C13.7855 31.509 14.1552 31.8652 14.6118 31.8652H23.4276C23.8843 31.8652 24.254 31.509 24.254 31.0676V22.6926C24.254 22.2512 23.8843 21.895 23.4276 21.895H14.6118ZM23.4276 38.1868H14.6118C14.1552 38.1868 13.7855 38.5435 13.7855 38.9849C13.7855 39.4255 14.1552 39.7817 14.6118 39.7817H23.4276C23.8843 39.7817 24.254 39.4255 24.254 38.9849C24.254 38.5435 23.8843 38.1868 23.4276 38.1868ZM14.6118 44.8867H29.9701C30.4274 44.8867 30.7971 44.53 30.7971 44.0886C30.7971 43.6484 30.4274 43.2915 29.9701 43.2915H14.6118C14.1552 43.2915 13.7855 43.6484 13.7855 44.0886C13.7855 44.53 14.1552 44.8867 14.6118 44.8867ZM46.294 44.1567C47.108 44.6074 48.0407 44.8867 49.0486 44.8867C52.0884 44.8867 54.5609 42.5317 54.5609 39.6384C54.5609 36.7444 52.0884 34.3901 49.0486 34.3901C48.0407 34.3901 47.108 34.6675 46.294 35.1194C45.4806 34.668 44.5468 34.3901 43.5388 34.3901C40.5015 34.3901 38.0289 36.7444 38.0289 39.6384C38.0289 42.5317 40.5009 44.8867 43.5388 44.8867C44.5468 44.8867 45.4806 44.6082 46.294 44.1567ZM22.6013 23.4895H15.4382V30.27H22.6013V23.4895ZM43.5388 39.6389C43.5388 38.3318 44.0607 37.1506 44.8941 36.2302C44.4703 36.0791 44.0178 35.9856 43.5388 35.9856C41.4119 35.9856 39.6816 37.6243 39.6816 39.6389C39.6816 41.6531 41.4119 43.2915 43.5388 43.2915C44.0172 43.2915 44.4703 43.1982 44.8941 43.0466C44.0607 42.1274 43.5388 40.9453 43.5388 39.6389ZM46.2935 42.1873C45.614 41.5291 45.1915 40.6309 45.1915 39.6389C45.1915 38.6462 45.614 37.7488 46.2935 37.0894C46.974 37.7488 47.3972 38.6462 47.3972 39.6389C47.3972 40.6316 46.974 41.5291 46.2935 42.1873ZM49.0486 35.9856C48.5709 35.9856 48.1183 36.0791 47.6951 36.2302C48.528 37.1499 49.0504 38.3318 49.0504 39.6389C49.0504 40.946 48.528 42.1274 47.6951 43.0466C47.8373 43.0977 47.9828 43.1418 48.1315 43.1782C48.4254 43.2502 48.7314 43.2915 49.0486 43.2915C51.1762 43.2915 52.9077 41.6531 52.9077 39.6389C52.9077 37.6243 51.1762 35.9856 49.0486 35.9856Z" fill="black"/>
</svg>
