<svg width="68" height="68" viewBox="0 0 68 68" fill="none" xmlns="http://www.w3.org/2000/svg">
<path fill-rule="evenodd" clip-rule="evenodd" d="M40.5421 24.2158H42.1346C42.411 24.2158 42.6341 24.439 42.6335 24.7146C42.6335 24.9897 42.4104 25.2141 42.134 25.2141H40.1829C40.1864 25.2869 40.1923 25.3596 40.1923 25.4336C40.1923 27.4907 38.8087 29.165 37.1073 29.165C35.4071 29.165 34.0223 27.4907 34.0223 25.4336C34.0223 25.3516 34.0282 25.2715 34.033 25.1912C33.8134 25.1389 33.6459 24.9497 33.6459 24.7146C33.6459 22.563 35.1023 21 37.1079 21C38.9549 21 40.3338 22.3262 40.5421 24.2158ZM35.0218 25.4343C35.0218 26.9417 35.9581 28.1665 37.1079 28.1665C38.2578 28.1665 39.194 26.9417 39.194 25.4343C39.194 25.4062 39.1923 25.3787 39.19 25.3513C39.1861 25.3059 39.1804 25.2612 39.1774 25.2148H35.0384C35.0368 25.2441 35.0338 25.2729 35.0308 25.3018C35.0263 25.3455 35.0218 25.3892 35.0218 25.4343ZM53.6177 26.123V27.8582L55.4653 30.0957C58.2001 33.4082 62.9991 39.2207 63 39.2195L59.8085 42.7974L52.3122 39.7146H41.6836C41.4801 39.7952 41.2593 39.843 41.0262 39.843H31.3018C30.9651 39.843 30.6544 39.7449 30.3851 39.584C30.3023 39.6248 30.2212 39.6663 30.1372 39.7058C28.9548 40.2639 27.712 40.739 26.3823 41.0901C26.4355 41.6873 26.2319 42.2979 25.7822 42.7476L24.6566 43.8704L22.3539 46.1665L15.8235 52.7063L14.3345 51.2925C13.5995 50.5569 13.3486 49.3188 14.3345 48.3335L14.6985 47.9739L14.7346 47.927C14.7761 47.8723 14.8175 47.8179 14.8672 47.7683L20.875 41.7766H8V40.7776H21.0023C21.0705 40.7776 21.1366 40.7744 21.2028 40.7715C21.2561 40.769 21.3095 40.7666 21.3639 40.7656C19.9081 38.7849 16.8438 34.6128 16.2253 33.7703C15.8158 33.3984 15.5312 32.9163 15.4246 32.3894C15.1601 31.084 15.7685 29.604 17.5077 29.2517L22.1764 28.3015L30.0709 26.7078C31.8108 26.3567 32.9446 27.4858 33.2068 28.7908C33.3104 29.304 33.2749 29.8413 33.0938 30.3289V36.2581H34.0217C35.4734 35.2507 36.8588 34.1631 38.2288 33.0825C42.7666 29.5034 47.0536 26.123 53.1183 26.123H53.6177ZM25.9881 40.0496C26.0088 40.0781 26.0224 40.1094 26.042 40.1384C27.3268 39.803 28.4825 39.3501 29.63 38.8105C29.5211 38.5796 29.456 38.324 29.456 38.0518L29.4673 32.2646V29.9377C29.4673 29.4932 28.8015 29.4932 28.8015 29.9377V32.3989L27.5877 32.644L23.2304 33.5239L21.4544 33.8767L23.7642 37.0215L24.6661 38.2495L25.9881 40.0496ZM54.9374 39.7166C57.1288 40.6172 59.2486 41.4895 59.5333 41.6067C59.8789 41.219 61.2731 39.656 61.6815 39.1968C61.1684 38.5742 52.6188 28.2173 52.6188 28.2173V27.158C47.1624 27.3469 43.1122 30.5029 38.8472 33.8672C37.8269 34.6714 36.7984 35.4797 35.7415 36.2585H41.025C42.0156 36.2585 42.8187 37.061 42.8187 38.0518C42.8187 38.4216 42.7068 38.7649 42.5139 39.052H50.6919L49.4089 38.5239C48.4691 38.1499 47.4554 37.0422 47.4554 35.9036C47.4554 35.6284 47.6785 35.4041 47.9549 35.4041C48.23 35.4041 48.4543 35.6284 48.4543 35.9036C48.4543 36.571 49.1532 37.3469 49.7776 37.5955L53.3177 39.0513H57.1501C57.3336 39.0513 57.4827 39.1992 57.4827 39.3838C57.4827 39.5674 57.3342 39.7166 57.1501 39.7166H54.9374Z" fill="black"/>
</svg>
