<svg width="68" height="68" viewBox="0 0 68 68" fill="none" xmlns="http://www.w3.org/2000/svg">
<path fill-rule="evenodd" clip-rule="evenodd" d="M22.6101 42.2637L23.2423 44.9871H16.9341V22.4237C17.5262 21.1033 21.6878 12.9964 34.5 12.9964C47.3122 12.9964 51.4733 21.1033 52.0659 22.4237V44.9871H45.3893L46.0199 42.2642C47.2686 42.1128 48.2404 41.0469 48.2404 39.7581C48.2404 38.3658 47.1057 37.2311 45.7139 37.2311H44.3119V26.9535H24.6886V37.2311H22.9199C21.5271 37.2311 20.3949 38.3658 20.3949 39.7581C20.3949 41.0456 21.3634 42.1106 22.6101 42.2637ZM44.9148 47.0363L42.3659 58.0428L40.3696 57.5805L41.9504 50.7545L40.1237 42.8957L38.3007 50.9262L39.9116 57.5698L37.919 58.0523L37.2807 55.4198L36.6864 58.038L34.6902 57.5841L36.1965 50.9479L34.3567 43.3602L32.5172 50.9468L34.0237 57.5841L32.027 58.038L31.4327 55.4197L30.7943 58.0523L28.8018 57.5698L30.4127 50.9266L28.5916 42.9038L26.7259 50.9302L28.2693 57.5795L26.2727 58.043L23.7179 47.0363H14.8854L14.9553 21.8398C15.1312 21.3956 19.4025 10.9477 34.5 10.9477C49.597 10.9477 53.8688 21.3956 54.0447 21.8393L54.1151 22.2156V47.0363H54.1146H44.9148ZM26.7373 37.2305V29.0022H42.2627V37.2305H26.7373ZM32.5089 42.2826H30.5507L31.4974 46.4537L32.5089 42.2826ZM26.6312 42.2826L25.6743 46.3994L24.7187 42.2826H26.6312ZM38.1632 42.2826L37.2164 46.4541L36.205 42.2826H38.1632ZM43.0005 46.2196L43.9122 42.2826H42.0854L43.0005 46.2196ZM22.4436 39.7581C22.4436 39.4939 22.6578 39.2798 22.9199 39.2798H45.7139C45.9781 39.2798 46.1923 39.4939 46.1923 39.7581C46.1923 40.0203 45.9781 40.2345 45.7139 40.2345H22.9199C22.6573 40.2345 22.4436 40.0203 22.4436 39.7581Z" fill="black"/>
</svg>
