<svg width="68" height="68" viewBox="0 0 68 68" fill="none" xmlns="http://www.w3.org/2000/svg">
<path fill-rule="evenodd" clip-rule="evenodd" d="M40.821 26.4613C42.9658 26.4613 44.7085 24.7191 44.7085 22.5765C44.7085 20.429 42.9652 18.6874 40.821 18.6874C38.6767 18.6874 36.9334 20.4296 36.9334 22.5765C36.9334 24.7197 38.6762 26.4613 40.821 26.4613ZM55.4784 42.4879H55.3782V40.173H50.2536C49.9238 40.173 49.6561 40.2289 49.6561 40.5587C49.6561 40.8885 49.9232 40.9446 50.2536 40.9446H53.8348V42.4879H50.4048C48.9779 42.4879 47.817 43.8398 47.817 45.5747C47.817 47.3096 48.9779 48.6614 50.4048 48.6614H55.479C56.9058 48.6614 58.0667 47.3096 58.0667 45.5747C58.0662 43.8403 56.9053 42.4879 55.4784 42.4879ZM37.5707 26.3376L48.5221 36.4031C48.9012 36.7362 49.1532 37.2296 49.1543 37.78C49.1644 38.8138 48.339 39.6499 47.308 39.66C46.7922 39.66 46.333 39.4567 45.9886 39.124L38.3172 32.0574L30.06 36.1304L36.5728 36.351H36.581L36.6187 36.3518L36.6574 36.3538L36.7548 36.3571L36.7514 36.3616C37.4447 36.4304 38.0854 36.8403 38.4174 37.514C38.707 38.1016 38.6946 38.7533 38.4432 39.3027L38.4471 39.3038L34.946 47.9508C34.5305 49.0383 33.3282 49.5894 32.2406 49.1738C31.1531 48.7589 30.6245 47.5465 31.04 46.459L33.3366 40.7257L33.2895 40.7861L25.3823 40.7448L22.3398 47.4137C22.2995 47.5264 22.1063 47.8785 22.0453 47.9738C21.669 48.5601 20.68 48.5601 20.68 48.5601H10.0417C8.87744 48.5601 7.93384 47.7643 7.93384 46.6001C7.93384 45.4358 8.87744 44.64 10.0417 44.64H18.0564L20.4958 35.9001C20.7018 34.6626 21.4601 33.6036 22.5034 32.9943C22.5034 32.9943 32.9317 25.6146 34.1262 25.0177C35.3206 24.4207 37.2045 25.9814 37.5707 26.3376ZM28.6869 27.205L29.1752 26.868L29.6994 26.5072L26.9979 24.0947C26.7521 23.8752 26.3741 23.896 26.1546 24.1423C25.935 24.3882 25.9563 24.7662 26.2022 24.9857L28.6869 27.205ZM46.8499 43.4248L36.5739 34.2482L37.7292 33.6786L47.5488 42.4476C47.457 42.5424 47.3685 42.6426 47.285 42.7489C47.1198 42.9578 46.9748 43.1846 46.8499 43.4248Z" fill="black"/>
</svg>
