<svg width="68" height="68" viewBox="0 0 68 68" fill="none" xmlns="http://www.w3.org/2000/svg">
<path fill-rule="evenodd" clip-rule="evenodd" d="M12.74 50.5663C12.719 50.5663 12.698 50.5654 12.6769 50.5634C12.61 50.5576 12.5429 50.5429 12.4774 50.518L12.4459 50.5048L12.4227 50.4946C12.1457 50.3622 11.9885 50.0815 12.0012 49.7929L12.0047 49.7426C12.0109 49.6865 12.0229 49.6328 12.0401 49.582C12.0557 49.5361 12.0755 49.4921 12.0992 49.4511C22.9252 26.7177 37.4172 14.1225 55.1725 12.0175C55.2323 12.0102 55.2894 12.0107 55.3469 12.0175C55.3688 12.02 55.3905 12.0239 55.4119 12.0283C55.5478 12.0566 55.6773 12.124 55.7827 12.2294C55.7962 12.2431 55.8088 12.2573 55.821 12.2714C55.914 12.3793 55.9772 12.5141 55.9949 12.6655C56.0032 12.7353 56.0015 12.8041 55.9909 12.8705C53.8732 30.6357 41.2611 45.1176 18.5039 55.916C18.4019 55.9648 18.2938 55.9877 18.1874 55.9877L18.1356 55.9858C17.8772 55.9677 17.6365 55.8149 17.5173 55.5644C17.4793 55.4843 17.457 55.4003 17.4492 55.3168L16.9654 51.0468L12.74 50.5663ZM17.3633 49.602L19.1698 47.7949L17.3902 46.0346C17.1083 45.7553 17.0962 45.3037 17.3625 45.0102C19.4471 42.7167 21.9257 41.7797 24.7401 42.2255L53.16 13.8056C37.1576 16.56 23.9481 28.4555 13.8598 49.2065L17.3633 49.602ZM20.8355 47.3808C21.0267 47.6674 20.9973 48.058 20.7461 48.3124C20.7451 48.3134 20.7446 48.3149 20.7436 48.3159L18.411 50.6494L18.8053 54.1288C39.5565 44.0629 51.4531 30.8613 54.2074 14.8515L25.5181 43.5414L25.5125 43.5468C25.4222 43.6367 25.3144 43.6987 25.2 43.7329C25.1313 43.7534 25.0603 43.7636 24.9893 43.7636C24.9609 43.7636 24.9325 43.7621 24.9042 43.7587C24.8804 43.7563 24.8567 43.7524 24.8332 43.747C22.596 43.2978 20.6649 43.8701 18.9536 45.4985L20.7401 47.2651C20.7764 47.3012 20.8082 47.3398 20.8355 47.3808Z" fill="black"/>
</svg>
