<svg width="68" height="68" viewBox="0 0 68 68" fill="none" xmlns="http://www.w3.org/2000/svg">
<path fill-rule="evenodd" clip-rule="evenodd" d="M34.5 48C41.9558 48 48 41.9558 48 34.5C48 27.0442 41.9558 21 34.5 21C27.0442 21 21 27.0442 21 34.5C21 41.9558 27.0442 48 34.5 48ZM34.5 51C43.6127 51 51 43.6127 51 34.5C51 25.3873 43.6127 18 34.5 18C25.3873 18 18 25.3873 18 34.5C18 43.6127 25.3873 51 34.5 51Z" fill="black"/>
<path d="M44 34.5C44 39.7467 39.7467 44 34.5 44C29.2533 44 25 39.7467 25 34.5C25 29.2533 29.2533 25 34.5 25C39.7467 25 44 29.2533 44 34.5Z" fill="black"/>
</svg>
