<svg xmlns="http://www.w3.org/2000/svg" width="1633" height="1465" viewBox="0 0 1633 1465"><path d="M1654,1638h-11c-9.31-2.34-18.55-5-28-7-37.86-7.77-71.29-23.75-97.64-52.68-18-19.74-38.71-36.12-60.86-50.77-67.7-44.77-140.55-79.25-216.77-106.58-85.21-30.56-172.12-55.84-259.06-81q-177.66-51.36-357.83-93.18c-53.92-12.52-106.32-29.94-155.88-55-27.92-14.14-54.22-30.72-76.05-53.51-15.13-15.79-27.37-33.55-29.77-55.87-4.54-42.21-8.25-84.51-12.25-126.77-1.12-11.94-1.86-23.92-3.15-35.84-.29-2.72-2.13-5.28-3.26-7.91-2.27,1.7-5.27,2.94-6.69,5.18-8.37,13.21-14.66,27.4-15.8,43.16-2,28.24-3.55,56.52-5.17,84.79-.61,10.6-.9,21.22-1.33,31.77a8.12,8.12,0,0,1-1.85.44c-5.49-.32-11-1-16.46-.92-4,0-6.19-1.64-8.25-4.93-55.18-88-83.67-184.3-90.05-287.54-.74-12-1.29-23.92-1.93-35.88V726c.28-3.63.73-7.27.81-10.91A656.37,656.37,0,0,1,208.27,602C232,483.11,287.22,380.9,372,294.47a13.81,13.81,0,0,1,6.79-3.55c86-17.55,173.07-26.64,260.74-29.67,85.89-3,171.52.53,256.81,11.58A1253,1253,0,0,1,1079.1,310,56.67,56.67,0,0,1,1105,325.38c2.77,2.89,5.31,6,8.15,8.8a31.82,31.82,0,0,0,4.78,3.33l1.33-.92c-.24-3.93.22-8.06-.84-11.76-3.34-11.63-6.28-23.54-11.12-34.57-17.5-39.88-44.66-72.78-76.52-101.93-8.73-8-9.85-11.54,3.25-15.33h16a7.82,7.82,0,0,0,1.83.72c27.77,3.61,53.58,13.22,78.14,26.23,58.87,31.2,102.41,76.29,125.63,139.66.69,1.87,2.77,3.58,4.62,4.62,14.77,8.36,30,16,44.42,24.89,29.94,18.31,55.74,41.05,73.49,71.95,14.45,25.16,23.17,52.41,27.69,80.8,4,25.09,13.16,47.27,30,66.35,13.06,14.84,27.93,27.63,43.85,39.26,30.9,22.57,64.68,40.3,98.12,58.62,8.46,4.63,16.7,9.67,24.85,14.84a61.7,61.7,0,0,1,9.65,7.89c19.82,19.11,20.87,41.45,1.67,61.08-19.69,20.14-44.08,31.36-72.37,33-24.18,1.42-45.85-6.51-66.17-18.94-1.33-.81-3.19-.74-4.8-1.08-.37,2-1.59,4.29-1,5.86a35.59,35.59,0,0,0,5.64,9.33c6.21,7.39,12.76,14.51,19.16,21.75s5.29,12.53-4.45,14.22a113.1,113.1,0,0,1-27.26,1.31c-27.28-2-53.24-10-78.83-19.12-75-26.81-147.18-60.22-218.33-95.87a91.28,91.28,0,0,1-18-11.52c-20.35-17.21-40.12-35.12-60.54-52.25a321.75,321.75,0,0,0-32.83-24.34c-8.22-5.29-13.64-1.55-12.79,8.31a114.53,114.53,0,0,0,4.24,22c3.05,10.48,6.94,20.72,10.63,31.54L881.17,726c-.79-1.45-1.46-2.75-2.19-4-7-12.28-13.62-24.82-21.14-36.78-14.45-23-32.53-42.67-55.66-57.19a78,78,0,0,0-18.55-8.23c-5.34-1.63-8.18,2.1-5.69,7.1a197.13,197.13,0,0,0,10.24,17.69c11.3,17.7,22.11,35.64,30.19,55.11,15.19,36.63,17.17,73.26,2.48,110.79-13,33.28-29.24,64.88-46.3,96.17-6.92,12.68-13.13,25.79-19,39-5.31,12-4,24.16,4.16,34.46,7.73,9.73,15.93,19.32,25.17,27.58,24,21.41,51.33,38.13,79.63,53.1,31.77,16.8,64.3,32.17,96,49.07,126,67.15,248.91,139.52,370.1,214.86a1210.33,1210.33,0,0,1,208,163.23c21.86,21.4,46.32,36.47,75.22,45.27,11.76,3.59,23.36,7.74,34.94,11.89,7.91,2.84,13.33,8.6,17,16.07a86.62,86.62,0,0,1,8.88,46.52C1673.47,1621.39,1669.06,1633.45,1654,1638Z" transform="translate(-195 -173)"/><path d="M1828,1352c-1,4.36-1.83,8.78-3.1,13.06-4.51,15.2-12.51,21.57-28.35,23-21.53,1.89-42.49-1.76-63.35-6.46-3.73-.84-7.41-1.9-11.13-2.81-20.72-5-38.09-14.86-52.69-31.17-39.24-43.86-89.56-68.53-146.31-81.67-61.66-14.26-123.83-25.72-186.25-36-33.84-5.56-67.74-10.72-101.6-16.14a16.48,16.48,0,0,1-5.55-2.09Q1044.8,1103.39,860,994.9c-12.91-7.59-25.1-16.38-37.72-24.46a15.22,15.22,0,0,1-7.21-11.87,150.84,150.84,0,0,1,3.78-56.49,43.26,43.26,0,0,1,1.34-4.28c4.53-12.18,8.81-14.44,20.76-9.27,42.29,18.31,84.77,36.23,126.58,55.59,76.39,35.37,155.79,62.78,234.94,90.95,93.73,33.35,187.2,67.4,279.39,104.87,58.74,23.87,113.35,55.21,166,90.3,13,8.68,26.26,17,39.23,25.82,14.48,9.8,30.69,14,47.78,16,15.69,1.88,31.48,3.5,46.89,6.81,23.4,5,39.35,15.79,45.29,50.86a29.23,29.23,0,0,0,1,3.24Z" transform="translate(-195 -173)"/></svg>