<svg width="68" height="68" viewBox="0 0 68 68" fill="none" xmlns="http://www.w3.org/2000/svg">
<path fill-rule="evenodd" clip-rule="evenodd" d="M45.5025 19.8871C46.2028 20.9405 45.9166 22.3622 44.8632 23.0625C43.8098 23.7627 42.3881 23.4763 41.6879 22.4228C40.9876 21.3694 41.2738 19.9477 42.3272 19.2474C43.3806 18.5472 44.8022 18.8336 45.5025 19.8871ZM41.3209 31.7522C41.5224 31.7522 41.7174 31.6929 41.8854 31.5807C41.9781 31.5188 42.0568 31.444 42.1216 31.3604C43.7718 32.2003 46.3172 32.8008 48.9353 33.2457L47.9537 33.6014L47.0517 38.2871C47.0517 38.2871 50.3711 40.3607 51.2143 41.082C52.0575 41.8033 55.3075 45.6031 55.3075 45.6031L56.9726 47.0829L57.7359 48.8914L55.4465 49.0556L54.7525 46.836C54.7525 46.836 51.2916 43.6064 50.5164 43.0251C50.0306 42.6604 47.3934 41.7819 45.4931 41.1772L47.6585 48.5154L49.0534 48.9028L49.893 50.1301L46.7595 51.1343C46.7595 51.1343 46.3852 50.4286 46.2733 49.5187C46.2008 48.9289 46.0452 47.8985 45.9181 47.581C45.5951 46.7736 43.4016 41.9916 43.4016 41.9916L42.6754 40.9386C41.6329 41.3992 39.7819 42.114 38.2601 42.1531C36.0064 42.211 29.1525 38.2047 29.1525 38.2047C29.1525 38.2047 28.1126 39.491 26.7303 40.1185C25.3482 40.7459 22.631 40.4243 22.631 40.4243L18.954 44.7812L17.6358 45.9321C17.6358 45.9321 16.7185 48.128 15.5881 49.226C14.4577 50.3241 12.197 50.6471 12.197 50.6471L12.2044 48.8091L12.9602 48.3453L14.561 48.5478L16.5248 45.2857L17.5665 42.3971L18.5378 41.5752C18.5378 41.5752 18.5716 41.5098 18.6295 41.3986L17.2999 41.5397C17.2999 41.5397 13.0069 43.1173 12.5524 44.6077C12.0979 46.0982 10.6936 46.5314 10.6936 46.5314V42.7496L12.4279 42.8322C12.4279 42.8322 17.8811 38.0841 19.0881 37.8999C19.7123 37.8046 20.3028 37.7639 20.7279 37.7468L20.7381 37.7348L20.7381 37.7347C20.7449 37.7266 20.7517 37.7186 20.7579 37.7117C21.277 37.146 20.6886 34.7524 20.6886 34.7524C20.6886 34.7524 19.1794 32.1737 19.6315 30.7527C19.6499 30.6954 19.6714 30.6385 19.6929 30.5816L19.6929 30.5815L19.6994 30.5644C18.1656 30.812 16.1606 31.2632 14.7193 32.0528C12.0614 33.5091 6.90692 30.3652 7.00131 29.8945C7.06769 29.5634 8.38072 29.5533 9.54939 29.5442H9.5494C10.0425 29.5404 10.5099 29.5368 10.8471 29.5094C11.392 29.465 12.4577 29.0609 13.576 28.6369L13.576 28.6369C14.7901 28.1766 16.0663 27.6928 16.8057 27.62C17.9276 27.5094 20.0702 27.9619 21.3756 28.2762C21.7347 27.968 22.0955 27.7278 22.4091 27.5877C23.3559 27.1647 27.5541 27.4262 28.9444 27.6831C29.141 27.7195 29.3373 27.7671 29.5297 27.8217C29.7896 28.0647 29.5915 28.2314 29.2781 28.4953C28.8547 28.8517 28.2208 29.3853 28.2208 30.5234C28.2208 32.103 30.651 33.6318 33.3336 34.3604C33.1526 34.6955 33.1069 35.0801 33.2074 35.4488C33.3112 35.8293 33.5571 36.1467 33.8995 36.3423C34.1224 36.4697 34.3751 36.5372 34.6309 36.5372C35.16 36.5372 35.6514 36.252 35.9139 35.7929L36.4796 34.8028C36.5441 34.8024 36.6083 34.8016 36.672 34.7997C38.6774 34.7424 39.0491 32.4067 38.9909 30.375C39.1556 29.9568 39.1193 29.4892 38.9027 29.106C38.8925 29.0111 38.8819 28.9187 38.871 28.8292L39.1349 28.6173C39.4313 29.4666 39.8587 30.378 40.4734 31.2993C40.6628 31.5829 40.9795 31.7522 41.3209 31.7522ZM57.5313 34.9163C57.2673 34.6812 56.9841 34.4231 56.7179 34.1778C57.3859 34.2311 57.9171 34.2669 58.2609 34.2886C58.0116 34.5042 57.764 34.7174 57.5313 34.9163ZM60.436 32.933C59.9356 33.3721 58.7756 34.3876 57.8402 35.1883C58.1462 35.4539 58.3971 35.6585 58.5163 35.7263C58.9792 35.9896 61.0935 34.5595 60.9967 34.0124C60.9692 33.857 60.744 33.444 60.436 32.933ZM38.3159 27.8565C38.1495 27.8785 37.933 27.9059 37.6775 27.936L38.4306 28.5846C38.3942 28.3156 38.3547 28.0691 38.3159 27.8565ZM37.8844 33.7926C37.5916 34.1671 37.2083 34.3611 36.7164 34.3884L38.5789 31.129C38.544 32.1809 38.3588 33.1862 37.8844 33.7926ZM35.7327 30.1578L33.5223 28.2551C33.199 28.2648 32.8731 28.2704 32.5487 28.2704C31.6072 28.2704 30.7712 28.2249 30.0508 28.1352C30.0071 28.414 29.7707 28.613 29.5407 28.8066C29.1341 29.1486 28.628 29.5744 28.628 30.523C28.628 31.8264 30.9107 33.3058 33.5382 33.9983L35.7327 30.1578ZM39.5505 23.1891C39.0484 23.1891 38.6155 23.5643 38.5438 24.0624C38.5356 24.1211 38.4944 24.4392 38.494 24.9471C38.494 25.2335 38.5074 25.5841 38.5478 25.9843C37.7646 26.2116 36.9034 26.4833 36.0986 26.8456L38.4488 28.8686C38.9117 29.2671 39.0266 29.9343 38.7235 30.4646L35.7368 35.6915C35.5018 36.1027 35.0726 36.3331 34.6308 36.333C34.4166 36.333 34.1996 36.279 34.0003 36.165C33.3898 35.8164 33.1778 35.0388 33.5267 34.4285L35.9926 30.1131L33.4235 27.9013C33.325 27.8479 33.2386 27.7672 33.1565 27.6629C33.0367 27.537 32.9476 27.3914 32.8892 27.2361C32.874 27.2082 32.8587 27.1798 32.8432 27.1505C32.4055 26.3263 32.0407 25.2503 33.3525 24.2167C35.243 22.9472 36.5 22.4677 38.6433 22.1434C40.2036 21.9169 41.2001 22.821 41.4052 23.693C41.5492 24.304 41.1481 24.9261 40.5394 25.3141C40.5332 25.1812 40.5306 25.0581 40.5306 24.9473C40.5304 24.7397 40.5395 24.5787 40.5472 24.4804C40.5513 24.4302 40.5549 24.3931 40.5577 24.3691L40.5594 24.3525C40.5983 24.0832 40.5299 23.8151 40.3671 23.5972C40.2041 23.3794 39.9661 23.2381 39.697 23.1996C39.6484 23.1927 39.5992 23.1891 39.5505 23.1891ZM55.9843 33.9128C55.9936 33.8008 56.0923 33.7175 56.2043 33.7271H56.2044C54.4907 33.5817 52.1071 33.3386 49.719 32.962L52.2508 32.0445L55.6097 33.1426C55.6097 33.1426 55.8692 33.389 56.2344 33.7297C57.623 33.8469 58.5611 33.8994 58.7016 33.9069C58.8235 33.801 58.9439 33.6962 59.0606 33.5946C59.5543 33.1646 59.9832 32.7887 60.2202 32.5806C59.4419 31.3256 58.3604 29.7381 58.3604 29.7381L58.0136 28.423C58.0136 28.423 56.737 26.2695 55.4467 25.2169C55.0811 24.9188 54.7913 24.8867 54.2283 24.8245C53.9991 24.7991 53.7246 24.7687 53.3813 24.7134C53.2112 24.6859 52.7592 24.401 52.3159 24.1216C51.8987 23.8586 51.4893 23.6006 51.3303 23.5668C49.8787 23.2592 49.6348 23.809 49.6348 23.809L51.2013 24.8345L49.2876 24.8829L41.7869 26.4897L40.8415 27.2482C41.0769 28.1342 41.481 29.1426 42.1669 30.1688C42.336 30.4221 42.3752 30.7241 42.3022 30.9974C44.0082 31.8644 46.861 32.5142 49.699 32.9591V32.9592C49.5878 32.9416 49.4835 33.0173 49.466 33.1285C49.4485 33.2393 49.524 33.3433 49.6348 33.3613L49.6355 33.3615C52.0442 33.742 54.444 33.9868 56.1688 34.1331C56.0574 34.1225 55.9746 34.0244 55.9843 33.9128ZM55.7259 28.293L57.16 29.3788C57.16 29.3788 56.5317 30.0191 55.8995 29.553C55.2673 29.0868 55.7259 28.293 55.7259 28.293ZM40.3272 24.9475C40.3272 25.9767 40.5367 28.0956 41.9978 30.2816C42.2473 30.6556 42.1466 31.1615 41.7724 31.4113C41.6334 31.5041 41.4764 31.5485 41.3209 31.5485C41.0579 31.5485 40.7997 31.4213 40.6426 31.1861C38.9486 28.6475 38.6977 26.1891 38.6977 24.9474C38.6979 24.4336 38.7408 24.1233 38.7454 24.0907C38.8096 23.6455 39.2225 23.3367 39.6678 23.4008C40.1131 23.4648 40.422 23.8778 40.3578 24.3232L40.3551 24.3475C40.3524 24.3716 40.3484 24.4109 40.3443 24.4645C40.3359 24.572 40.327 24.7361 40.3272 24.9475Z" fill="black"/>
</svg>
