<?xml version="1.0" encoding="iso-8859-1"?>
<!-- Generator: Adobe Illustrator 19.0.0, SVG Export Plug-In . SVG Version: 6.00 Build 0)  -->
<svg version="1.1" id="Layer_1" xmlns="http://www.w3.org/2000/svg" xmlns:xlink="http://www.w3.org/1999/xlink" x="0px" y="0px"
	 viewBox="0 0 512 512" style="enable-background:new 0 0 512 512;" xml:space="preserve">
<g>
	<g>
		<path d="M437.02,74.98C388.667,26.628,324.38,0,256,0C187.619,0,123.333,26.628,74.98,74.98C26.628,123.333,0,187.62,0,256
			s26.628,132.667,74.98,181.02C123.333,485.372,187.619,512,256,512c68.38,0,132.667-26.628,181.02-74.98
			C485.372,388.667,512,324.38,512,256S485.372,123.333,437.02,74.98z M256,95.639c21.245,0,38.467,17.222,38.467,38.467
			c0,21.245-17.222,38.467-38.467,38.467s-38.467-17.222-38.467-38.467C217.533,112.861,234.755,95.639,256,95.639z
			 M294.467,420.258h-76.934c-18.135,0-32.837-14.701-32.837-32.837s14.701-32.837,32.837-32.837h0.938v-80.864
			c-18.165-2.62-32.124-18.251-32.124-37.142c0-20.726,16.802-37.529,37.529-37.529H256c20.726,0,37.529,16.802,37.529,37.529
			v118.006h0.938c18.135,0,32.837,14.701,32.837,32.837S312.602,420.258,294.467,420.258z"/>
	</g>
</g>
<g>
</g>
<g>
</g>
<g>
</g>
<g>
</g>
<g>
</g>
<g>
</g>
<g>
</g>
<g>
</g>
<g>
</g>
<g>
</g>
<g>
</g>
<g>
</g>
<g>
</g>
<g>
</g>
<g>
</g>
</svg>
