<svg xmlns="http://www.w3.org/2000/svg" width="384.24" height="298.17" viewBox="0 0 384.24 298.17"><path d="M954.06,427H1126.5c1.33,0,2.88.45,4-.07,6.41-3.06,12.14-6.94,14.52-14.16a20.72,20.72,0,0,0-5.91-22.22c-3.75-3.48-7.88-5.6-13.2-5.59Q953.94,385,782,385h-3c-.5,0-1.09-.17-1.49,0-6.36,3.17-12.12,7-14.5,14.2a21.83,21.83,0,0,0-.09,13.19c1.18,4.1,3.7,7.08,6.75,9.68,3.41,2.9,7.14,5,12,4.95Q867.84,426.93,954.06,427Zm-.58,128q85.72,0,171.44.11a20.47,20.47,0,0,0,11.2-3.19,22.49,22.49,0,0,0,5.75-5.39,20.14,20.14,0,0,0,3.62-17.54,19.87,19.87,0,0,0-6.71-10.73c-3.7-3.17-7.65-5.32-12.82-5.31q-171.44.1-342.88-.05a20.47,20.47,0,0,0-11.2,3.18,22.62,22.62,0,0,0-5.75,5.38A20.27,20.27,0,0,0,762.5,539a19.53,19.53,0,0,0,7.1,11c3.47,2.79,7.12,5,11.94,5Q867.51,554.93,953.48,555Zm.44,128q85.47,0,170.94.1a20.5,20.5,0,0,0,11.21-3.17,24.18,24.18,0,0,0,5.08-4.63c4.91-5.47,5.68-13,4.14-18.66a20.88,20.88,0,0,0-6.48-10.32c-3.62-3.3-7.64-5.37-12.79-5.37q-171.43.09-342.88-.05a20.59,20.59,0,0,0-11.21,3.17,24.18,24.18,0,0,0-5.08,4.63c-4.91,5.47-5.68,13-4.14,18.66a20.88,20.88,0,0,0,6.48,10.32c3.62,3.3,7.64,5.37,12.79,5.37Q867.95,682.93,953.92,683Z" transform="translate(-761.88 -384.93)" fill="#fff"/><path d="M954.06,427q-86.22,0-172.44.05c-4.81,0-8.54-2.05-12-4.95-3-2.6-5.57-5.58-6.75-9.68a21.83,21.83,0,0,1,.09-13.19c2.38-7.22,8.14-11,14.5-14.2.4-.2,1,0,1.49,0h3q171.93,0,343.88,0c5.32,0,9.45,2.11,13.2,5.59a20.72,20.72,0,0,1,5.91,22.22c-2.38,7.22-8.11,11.1-14.52,14.16-1.09.52-2.64.07-4,.07H954.06Z" transform="translate(-761.88 -384.93)"/><path d="M953.48,555q-86,0-171.94,0c-4.82,0-8.47-2.2-11.94-5a19.53,19.53,0,0,1-7.1-11,20.27,20.27,0,0,1,3.63-17.56,22.62,22.62,0,0,1,5.75-5.38,20.47,20.47,0,0,1,11.2-3.18q171.45.2,342.88.05c5.17,0,9.12,2.14,12.82,5.31a19.87,19.87,0,0,1,6.71,10.73,20.14,20.14,0,0,1-3.62,17.54,22.49,22.49,0,0,1-5.75,5.39,20.47,20.47,0,0,1-11.2,3.19Q1039.2,554.87,953.48,555Z" transform="translate(-761.88 -384.93)"/><path d="M953.92,683q-86,0-171.94,0c-5.15,0-9.17-2.07-12.79-5.37a20.88,20.88,0,0,1-6.48-10.32c-1.54-5.67-.77-13.19,4.14-18.66a24.18,24.18,0,0,1,5.08-4.63,20.59,20.59,0,0,1,11.21-3.17q171.43.2,342.88.05c5.15,0,9.17,2.07,12.79,5.37a20.88,20.88,0,0,1,6.48,10.32c1.54,5.67.77,13.19-4.14,18.66a24.18,24.18,0,0,1-5.08,4.63,20.5,20.5,0,0,1-11.21,3.17Q1039.39,682.88,953.92,683Z" transform="translate(-761.88 -384.93)"/></svg>