<svg xmlns="http://www.w3.org/2000/svg" viewBox="0 0 459.75 420"><g id="Layer_2" data-name="Layer 2"><g id="Layer_1-2" data-name="Layer 1"><path class="cls-1" d="M326.55,270a10,10,0,0,1-6.31-17.76,80,80,0,1,0-129.89-71.13,10,10,0,0,1-19.88-2.22,100,100,0,1,1,162.38,88.87A10,10,0,0,1,326.55,270Z"/><path class="cls-1" d="M269.75,74a10,10,0,0,1-10-10V10a10,10,0,0,1,20,0V64A10,10,0,0,1,269.75,74Z"/><path class="cls-1" d="M143.75,200h-54a10,10,0,0,1,0-20h54a10,10,0,0,1,0,20Z"/><path class="cls-1" d="M449.75,200h-54a10,10,0,0,1,0-20h54a10,10,0,0,1,0,20Z"/><path class="cls-1" d="M358.29,111.46a10,10,0,0,1-7.07-17.07L390,55.65A10,10,0,0,1,404.1,69.79l-38.74,38.74A10,10,0,0,1,358.29,111.46Z"/><path class="cls-1" d="M181.21,111.46a10,10,0,0,1-7.07-2.93L135.4,69.79a10,10,0,1,1,14.14-14.14l38.74,38.74a10,10,0,0,1-7.07,17.07Z"/><path class="cls-1" d="M397,327.28a10,10,0,0,1-7.07-2.93l-38.74-38.74a10,10,0,0,1,14.14-14.14l38.74,38.74A10,10,0,0,1,397,327.28Z"/><path class="cls-1" d="M69.72,420A70,70,0,0,1,54.28,281.73a47.64,47.64,0,0,1,71.22-49.48A105.2,105.2,0,0,1,210,190.35a106.26,106.26,0,0,1,104.78,89.79A70,70,0,0,1,310.68,420Zm31.41-174.44a27.65,27.65,0,0,0-27.62,27.61,27.37,27.37,0,0,0,2.93,12.38A10,10,0,0,1,67.9,300a50,50,0,0,0,1.88,100h240.8a50,50,0,0,0-.6-100c-1,0-2.14,0-3.51.14a10,10,0,0,1-10.67-9.34,86,86,0,0,0-159.46-38.94,10,10,0,0,1-15.64,1.86A27.41,27.41,0,0,0,101.13,245.56Z"/></g></g></svg>