<svg xmlns="http://www.w3.org/2000/svg" viewBox="0 0 414.75 471.92"><g id="Layer_2" data-name="Layer 2"><g id="Layer_1-2" data-name="Layer 1"><path class="cls-1" d="M301,232.6a9.5,9.5,0,0,1-6.54-16.39A72,72,0,1,0,174,151a9.5,9.5,0,1,1-18.7-3.37A91,91,0,1,1,307.56,230,9.49,9.49,0,0,1,301,232.6Z"/><path class="cls-1" d="M216.76,64.92a9.5,9.5,0,0,1-9.27-7.47l-10-45.92a9.5,9.5,0,1,1,18.56-4l10,45.92a9.51,9.51,0,0,1-9.29,11.52Z"/><path class="cls-1" d="M356.39,153.7a9.5,9.5,0,0,1-2-18.78l48.85-10.66a9.5,9.5,0,0,1,4,18.56l-48.85,10.66A9.57,9.57,0,0,1,356.39,153.7Z"/><path class="cls-1" d="M305.26,81a9.49,9.49,0,0,1-8-14.63l26.81-41.77a9.5,9.5,0,0,1,16,10.27L313.27,76.58A9.5,9.5,0,0,1,305.26,81Z"/><path class="cls-1" d="M148.52,115.15a9.41,9.41,0,0,1-5.12-1.5L101.63,86.84a9.5,9.5,0,1,1,10.26-16l41.77,26.81a9.5,9.5,0,0,1-5.14,17.49Z"/><path class="cls-1" d="M380.25,264.72a9.46,9.46,0,0,1-5.12-1.5l-41.77-26.81a9.5,9.5,0,0,1,10.27-16l41.76,26.81a9.5,9.5,0,0,1-5.14,17.49Z"/><path class="cls-1" d="M63.6,372.66a63.89,63.89,0,0,1-14.49-126A43.6,43.6,0,0,1,114,201.54a96.53,96.53,0,0,1,172,43.55,63.87,63.87,0,0,1-4.05,127.56Zm28.46-158a24.6,24.6,0,0,0-24.58,24.57,24.32,24.32,0,0,0,2.61,11A9.5,9.5,0,0,1,62,264a44.87,44.87,0,0,0,1.69,89.69H281.82a44.87,44.87,0,0,0-.54-89.73c-.93,0-1.93,0-3.16.12A9.48,9.48,0,0,1,268,255.17a77.51,77.51,0,0,0-143.65-35.08,9.5,9.5,0,0,1-14.86,1.78A24.39,24.39,0,0,0,92.06,214.62Z"/><path class="cls-1" d="M146.94,471.92a9.5,9.5,0,0,1-6.71-16.22L162.92,433a9.5,9.5,0,0,1,13.43,13.44l-22.69,22.67A9.51,9.51,0,0,1,146.94,471.92Z"/><path class="cls-1" d="M68.12,420.28a9.5,9.5,0,0,1-6.71-16.22l14.31-14.3a9.5,9.5,0,0,1,13.43,13.45L74.84,417.5A9.51,9.51,0,0,1,68.12,420.28Z"/><path class="cls-1" d="M194.06,420.28a9.5,9.5,0,0,1-6.72-16.22l14.31-14.3a9.5,9.5,0,0,1,13.43,13.45L200.77,417.5A9.47,9.47,0,0,1,194.06,420.28Z"/><path class="cls-1" d="M234.83,443.08a9.5,9.5,0,0,1-6.72-16.23l37.14-37.09a9.5,9.5,0,0,1,13.43,13.45L241.54,440.3A9.5,9.5,0,0,1,234.83,443.08Z"/><path class="cls-1" d="M98,453a9.5,9.5,0,0,1-6.71-16.22l47.1-47.06a9.5,9.5,0,1,1,13.43,13.45l-47.1,47.05A9.51,9.51,0,0,1,98,453Z"/></g></g></svg>