<svg xmlns="http://www.w3.org/2000/svg" width="547" height="439.031" viewBox="0 0 547 439.031">
  <defs>
    <style>
      .cls-1 {
        fill-rule: evenodd;
      }
    </style>
  </defs>
  <path id="light_bulb_1" data-name="light bulb 1" class="cls-1" d="M54.152,17.313c19.962-.561,40.788,15.572,55.091,23.049,7.354,3.844,17.051,4.821,18.03,15.032,3.623,5.14-2.008,12.73-6.01,14.03-5.276,4.763-15.44.376-20.033-2-18.193-9.429-41.2-17.986-55.091-32.068C45.85,23.941,48.963,22.618,54.152,17.313Zm220.365,0c18.468-.247,38.476-1.373,53.088,3.006,19.667,5.894,37.966,13.419,53.088,24.051,43.122,30.318,79.5,99.857,55.091,172.368-14.365,42.671-49.522,67.208-67.111,107.229-6.226,14.167-7.855,35.191-8.013,56.119v35.075c-2.2,6.686-9.433,12.4-13.022,18.039-4.5,7.069-7.64,19.156-17.028,21.044-5.273,3.243-31.531,1-40.066,1h-36.06c-5.316-1.754-27.976-34.015-30.05-40.086v-33.07c-2.416-11.114,2.724-26.421-1-40.086l-12.019-28.06c-7.905-13.028-16-26.848-25.042-39.083-9.915-13.419-22-25.433-30.05-41.088-3.574-6.954-4.236-13.473-7.011-21.045-5.874-16.028-10.576-41.98-6.01-62.132,2.5-11.038,1.284-19.748,5.008-29.062a237.1,237.1,0,0,1,32.053-56.12c12.639-16.744,40.971-32.63,62.1-41.088Zm245.407,0c3.677-.141,8.89-0.436,11.018,1,4.192,1.417,5.237,4.337,8.013,7.015,0.019,5.615.263,10.7-2,14.03-3.217,4.724-11.741,6.279-17.028,9.019-10.395,5.386-21.235,10.429-32.053,16.034-3.873,2.006-8.565,5.82-13.022,7.015-11.494,3.082-13.8-5.59-18.03-10.021,0.027-5.158,1.067-7.179,2-11.024C471.5,42.448,486.138,34.5,499.89,27.335,506.392,23.945,514.882,22.211,519.924,17.313ZM281.529,44.371c-3.648,2.209-9.252.734-14.024,2-7.592,2.021-16.629,3.877-24.039,7.015-23.4,9.91-44.435,29.263-57.095,50.107-5.469,9-9.872,20.532-13.022,31.066-10.225,34.2-.122,75.871,14.024,98.21,9.214,14.551,22.46,26.7,32.053,41.088,6.473,9.708,12.525,20.892,18.03,31.066,1.058,1.956,3.914,12.254,5.008,13.028H342.63c2.542-10.382,9.072-18.991,14.023-27.058,6.382-10.4,11.051-20.342,18.03-30.064,11.273-15.7,25-28.55,33.055-48.1C439.6,135.391,383.5,69.046,329.608,49.382,315.96,44.4,299.55,44.319,281.529,44.371Zm5.008,27.058c6.233-.1,9.628.939,14.023,2,3.2,4.8,5.859,6.554,6.01,15.032-2.878,3.622-3.062,7.283-8.013,9.019-6.412,4.156-23.372,2.874-31.052,6.013-27.271,11.146-41.819,33.6-44.073,70.15-4.391,3.212-4.291,6.61-12.019,7.015-1.546.77-3.428,0.191-7.012,0-2.224-2.824-4.61-3.1-6.01-7.015-6.1-8.022,2.248-33.537,5.008-40.086,10.819-25.674,26.795-44.237,52.087-55.117,6.623-2.849,14.791-4.34,22.036-6.013C280.888,71.654,284.343,72.758,286.537,71.429ZM29.111,153.6c21.321-.156,48.119-2.117,66.11,2,2.493,3.814,4.662,4.628,5.008,11.024,1.84,3.695-2.033,10.612-6.01,12.025-4.014,3.694-12.309,3-20.033,3.007-15.707,0-48.538,4.444-53.088-7.015-2.409-2.644-2.171-7.739-2-13.028,2.074-1.567,2.959-4.614,5.008-6.013C25.709,154.512,27.754,154.725,29.111,153.6Zm465.772,0c21.322-.156,48.119-2.117,66.11,2L566,161.621v12.026c-4.392,3.212-4.292,6.61-12.02,7.015-2.921,1.9-10.413,1-15.025,1-10.813,0-39.933,2.44-46.076-2-5.178-1.446-7.867-4.377-8.013-11.024-0.674-1.319-.463-5.042,1-7.015C487.646,156.427,491.1,156.582,494.882,153.6ZM109.243,263.839a43.972,43.972,0,0,1,14.023,2c3.755,6.124,4.776,8.85,4.007,18.039-15.862,10.793-34.073,18.712-52.086,28.06-5.627,2.92-13.779,9.641-21.035,5.011-4.706-1.616-5.051-4.886-8.013-8.018C46.524,282.662,93.937,278.387,109.243,263.839Zm356.591,0c17.322-.429,41.238,16.332,54.09,23.049,6.078,3.178,14.645,4.18,17.028,11.024,2.2,2.4,2.144,6.14,2,11.023-2.769,2.857-5.324,6.144-8.013,9.02-17.317.975-31.743-11.052-45.075-18.039-7.193-3.769-15.363-5.452-22.036-10.021-4.535-3.1-7.072-8.107-7.012-16.034,1.4-1.675,1.571-4.259,3-6.013C461.177,266.193,464.3,265.413,465.834,263.839ZM251.479,346.015v27.057h82.136V346.015H251.479Zm0,55.117c0.147,4.046,12.432,25.965,14.023,27.058H318.59c4.935-8.326,14.524-15.138,15.025-27.058H251.479Z" transform="translate(-19 -17)"/>
</svg>
