<svg xmlns="http://www.w3.org/2000/svg" viewBox="0 0 350.37 246.86"><g id="Layer_2" data-name="Layer 2"><g id="Layer_1-2" data-name="Layer 1"><path class="cls-1" d="M289.37,135H36.29C16.62,135,0,118.1,0,98.05c0-20.4,16.25-37,36.23-37S72.44,77.54,72.44,97.8a10,10,0,1,1-20,0c0-9.07-7.42-16.74-16.21-16.74S20,88.84,20,98.05s7.46,17,16.29,17H289.37a10,10,0,0,1,0,20Z"/><path class="cls-1" d="M340.37,92H135.51c-25.12,0-45.57-20.64-45.57-46S110.29,0,135.3,0s45.26,20.56,45.26,45.83a10,10,0,0,1-20,0C160.56,31.59,149.23,20,135.3,20s-25.36,11.67-25.36,26c0,14.1,11.71,26,25.57,26H340.37a10,10,0,0,1,0,20Z"/><path class="cls-1" d="M68.74,246.86a45.48,45.48,0,0,1-32-13A44.35,44.35,0,0,1,23.33,202c0-24.77,20.41-44.92,45.51-44.92H318.37a10,10,0,0,1,0,20H68.84C54.53,177,43.33,188,43.33,202s11.16,24.91,25.41,24.91a25,25,0,0,0,25.36-25.1,10,10,0,0,1,20,0A45.28,45.28,0,0,1,68.74,246.86Z"/></g></g></svg>