<svg xmlns="http://www.w3.org/2000/svg" width="208.29" height="208.35" viewBox="0 0 208.29 208.35"><path d="M958,434.85c28.64.19,53.41,10.25,73.6,30.42s30.47,45.13,30.56,74c.18,57.15-47.26,104-104.29,103.91-56.77-.1-104-46.85-104-104.26S901,434.49,958,434.85ZM912,520c0,3.17-.19,5.68,0,8.15.46,5.14,2.41,9.56,6.7,12.74,2.53,1.87,4.9,4,7.48,5.76,4.6,3.21,9.22,6.41,14,9.35,3.68,2.26,7.74,2.44,12,1.45a28.93,28.93,0,0,1,8.77-1.07,12.62,12.62,0,0,1,6.38,2.27,186.06,186.06,0,0,0,20,12.81c5.05,2.68,9.73,5.56,13.52,9.83,2.75,3.1,2.85,4.83.71,8.45-2.27,3.84-4.36,7.78-6.69,11.58a35.91,35.91,0,0,1-8.55,10.17,38.7,38.7,0,0,0-11.16,14.37c30.28-4.12,61.45-31.72,68.59-64.29a4,4,0,0,0-1.36-.39c-5,.43-8.72-1.39-11-5.94a16.21,16.21,0,0,0-1.28-1.53c-4.46-6.34-7.49-13.14-7.23-21.14.16-4.83.16-9.67-.07-14.49-.31-6.82-1.47-13.44-5.86-19a43.1,43.1,0,0,1-4.33-6.05c-4.65-8.74-9.13-17.58-13.65-26.39-.11-.23.11-.62.16-.9h9.26a88.08,88.08,0,0,0-36.88-14.53c-1.42,3.32.66,5.69,1.54,8.76-1.4,1.25-2.93,2.53-4.39,3.9-3,2.84-5,3-8.09.21-2.07-1.89-3.81-4.14-5.73-6.21-1.76-1.91-3.24-3.91-6-5a14,14,0,0,0-9-.87,109.42,109.42,0,0,0-16.47,5c-1.89.74-1.57,1.77-.54,3.38,2.9-.9,5.93-1.65,8.8-2.79a4.49,4.49,0,0,1,5.06.62c1.37,1.13,2.85,2.12,4.21,3.12-2.67,4.58-8.58,5.8-10.06,11.24,2.7,2.25,3.44,5.17,3.12,8.51a35.24,35.24,0,0,0,.26,4.49c2.76-2.94,4.88-5.29,7.11-7.53,3.52-3.54,5.74-3.88,10.09-1.64a13.13,13.13,0,0,1,2.92,1.88c3.38,3.09,7.38,5.7,8.68,10.42-1.88,3.87-4.75,6.5-8,8.94-5,3.8-9.25,8.53-14.71,11.79a8.43,8.43,0,0,0-4.25,5.8c1.21,3.13,2.53,6.16,3.53,9.29.65,2,1,4.27-1.7,5.48a12.17,12.17,0,0,1-6.35-5.34,9.38,9.38,0,0,0-8.8-4.63C919.41,520.09,915.93,520,912,520ZM889.66,482a88.52,88.52,0,0,0-20.53,53,81.61,81.61,0,0,0,.73,15.36A91.56,91.56,0,0,0,877,576a90.16,90.16,0,0,0,20,27.65c11.61,11.21,25.44,18.26,40.93,22.08,2.86.7,6,2.23,9.43.77,1.64-3.08,3.58-6.18,5-9.52s1.45-6.45-1.78-9c-2.22-1.73-4.25-3.7-6.42-5.5a27.47,27.47,0,0,1-8.81-13,6.57,6.57,0,0,1,.29-4.8,40,40,0,0,0,3.07-9.33c1-6.81,1-7.28-4.59-11.33-3-2.13-6-4.12-8.91-6.31-6.74-5.07-13.41-10.22-20.12-15.33a12.5,12.5,0,0,1-5-7.79,44.54,44.54,0,0,0-6.2-15.45,25.66,25.66,0,0,1-3.67-16.63C891.09,495.76,891.35,489.11,889.66,482Z" transform="translate(-853.82 -434.85)"/></svg>